<svg xmlns="http://www.w3.org/2000/svg" width="658" height="74" viewBox="0 0 658 74" fill="none">
<mask id="path-1-inside-1_28093_6328" fill="white">
<path fill-rule="evenodd" clip-rule="evenodd" d="M658 0H0V22H5.01786C8.81399 22 11.8914 24.7822 11.8914 28.2143V44.7855C11.8914 48.2176 8.81399 50.9998 5.01786 51H0V74H658V0Z"/>
</mask>
<path fill-rule="evenodd" clip-rule="evenodd" d="M658 0H0V22H5.01786C8.81399 22 11.8914 24.7822 11.8914 28.2143V44.7855C11.8914 48.2176 8.81399 50.9998 5.01786 51H0V74H658V0Z" fill="#FF7E21" fill-opacity="0.06"/>
<path d="M0 0V-1H-1V0H0ZM658 0H659V-1H658V0ZM0 22H-1V23H0V22ZM5.01786 51V52H5.01791L5.01786 51ZM0 51V50H-1V51H0ZM0 74H-1V75H0V74ZM658 74V75H659V74H658ZM0 1H658V-1H0V1ZM1 22V0H-1V22H1ZM5.01786 21H0V23H5.01786V21ZM12.8914 28.2143C12.8914 24.1375 9.26902 21 5.01786 21V23C8.35896 23 10.8914 25.427 10.8914 28.2143H12.8914ZM12.8914 44.7855V28.2143H10.8914V44.7855H12.8914ZM5.01791 52C9.26903 51.9998 12.8914 48.8623 12.8914 44.7855H10.8914C10.8914 47.5728 8.35896 49.9998 5.01781 50L5.01791 52ZM0 52H5.01786V50H0V52ZM1 74V51H-1V74H1ZM658 73H0V75H658V73ZM657 0V74H659V0H657Z" fill="#FF7E21" fill-opacity="0.3" mask="url(#path-1-inside-1_28093_6328)"/>
</svg>