<svg xmlns="http://www.w3.org/2000/svg" width="24" height="25" viewBox="0 0 24 25" fill="none">
<circle cx="9" cy="9" r="9" transform="matrix(0.866025 0.5 -0.866025 0.5 12 4.77002)" fill="white"/>
<path d="M0.977295 13.77C0.977295 15.5274 2.21105 17.1184 4.20577 18.27V21.27C2.21105 20.1184 0.977295 18.5274 0.977295 16.77V13.77Z" fill="#93AAFC"/>
<path d="M4.20581 18.27C8.51044 20.7553 15.4896 20.7553 19.7943 18.27V21.27C15.4896 23.7553 8.51044 23.7553 4.20581 21.27V18.27Z" fill="#6580E1"/>
<path d="M23.0227 13.77C23.0227 15.5274 21.7889 17.1184 19.7942 18.27V21.27C21.7889 20.1184 23.0227 18.5274 23.0227 16.77V13.77Z" fill="#6580E1"/>
<circle cx="7" cy="7" r="7" transform="matrix(0.866025 0.5 -0.866025 0.5 11.9998 3.1748)" fill="white"/>
<path d="M3.42651 10.1748C3.42651 11.5416 4.3861 12.7791 5.93755 13.6748V16.6748C4.3861 15.7791 3.42651 14.5416 3.42651 13.1748V10.1748Z" fill="#93DEFC"/>
<path d="M5.93774 13.6748C9.28579 15.6078 14.7141 15.6078 18.0621 13.6748V16.6748C14.7141 18.6078 9.28579 18.6078 5.93774 16.6748V13.6748Z" fill="#65BEE1"/>
<path d="M20.573 10.1748C20.573 11.5416 19.6135 12.7791 18.062 13.6748V16.6748C19.6135 15.7791 20.573 14.5416 20.573 13.1748V10.1748Z" fill="#65BEE1"/>
<circle cx="5" cy="5" r="5" transform="matrix(0.866025 0.5 -0.866025 0.5 12 1.55273)" fill="url(#paint0_linear_27996_18029)"/>
<path d="M5.87646 6.55273C5.87646 7.52905 6.56189 8.41293 7.67006 9.05273V12.0527C6.56189 11.4129 5.87646 10.529 5.87646 9.55273V6.55273Z" fill="url(#paint1_linear_27996_18029)"/>
<path d="M7.66992 9.05273C10.0614 10.4334 13.9387 10.4334 16.3302 9.05273V12.0527C13.9387 13.4334 10.0614 13.4334 7.66992 12.0527V9.05273Z" fill="url(#paint2_linear_27996_18029)"/>
<path d="M18.1239 6.55273C18.1239 7.52905 17.4385 8.41293 16.3303 9.05273V12.0527C17.4385 11.4129 18.1239 10.529 18.1239 9.55273V6.55273Z" fill="url(#paint3_linear_27996_18029)"/>
<circle cx="2" cy="2" r="2" transform="matrix(0.866025 0.5 -0.866025 0.5 12 1.90625)" fill="url(#paint4_linear_27996_18029)"/>
<path d="M9.55054 3.90625C9.55054 4.29677 9.82471 4.65033 10.268 4.90625V6.90625C9.82471 6.65033 9.55054 6.29677 9.55054 5.90625V3.90625Z" fill="url(#paint5_linear_27996_18029)"/>
<path d="M10.2678 4.90625C11.2244 5.45853 12.7753 5.45853 13.7319 4.90625V6.90625C12.7753 7.45853 11.2244 7.45853 10.2678 6.90625V4.90625Z" fill="url(#paint6_linear_27996_18029)"/>
<path d="M14.4494 3.90625C14.4494 4.29677 14.1752 4.65033 13.7319 4.90625V6.90625C14.1752 6.65033 14.4494 6.29677 14.4494 5.90625V3.90625Z" fill="url(#paint7_linear_27996_18029)"/>
<defs>
<linearGradient id="paint0_linear_27996_18029" x1="9.99611" y1="10.0025" x2="-0.524858" y2="0.581294" gradientUnits="userSpaceOnUse">
<stop stop-color="#D5FFFA"/>
<stop offset="1" stop-color="#BDFDCF"/>
</linearGradient>
<linearGradient id="paint1_linear_27996_18029" x1="5.87646" y1="6.55273" x2="7.957" y2="6.66351" gradientUnits="userSpaceOnUse">
<stop stop-color="#AEFC93"/>
<stop offset="1" stop-color="#93FCB1"/>
</linearGradient>
<linearGradient id="paint2_linear_27996_18029" x1="7.66992" y1="9.04904" x2="14.6367" y2="7.08766" gradientUnits="userSpaceOnUse">
<stop stop-color="#44D7A2"/>
<stop offset="1" stop-color="#65E188"/>
</linearGradient>
<linearGradient id="paint3_linear_27996_18029" x1="16.3303" y1="6.5477" x2="17.8847" y2="6.4812" gradientUnits="userSpaceOnUse">
<stop stop-color="#44D7A2"/>
<stop offset="1" stop-color="#65E188"/>
</linearGradient>
<linearGradient id="paint4_linear_27996_18029" x1="3.99844" y1="4.00099" x2="-0.209943" y2="0.232518" gradientUnits="userSpaceOnUse">
<stop stop-color="#D5FFFA"/>
<stop offset="1" stop-color="#BDFDCF"/>
</linearGradient>
<linearGradient id="paint5_linear_27996_18029" x1="9.55054" y1="3.90625" x2="10.3838" y2="3.93879" gradientUnits="userSpaceOnUse">
<stop stop-color="#AEFC93"/>
<stop offset="1" stop-color="#93FCB1"/>
</linearGradient>
<linearGradient id="paint6_linear_27996_18029" x1="10.2678" y1="4.90404" x2="13.1725" y2="4.35726" gradientUnits="userSpaceOnUse">
<stop stop-color="#44D7A2"/>
<stop offset="1" stop-color="#65E188"/>
</linearGradient>
<linearGradient id="paint7_linear_27996_18029" x1="13.7319" y1="3.9035" x2="14.3542" y2="3.88398" gradientUnits="userSpaceOnUse">
<stop stop-color="#44D7A2"/>
<stop offset="1" stop-color="#65E188"/>
</linearGradient>
</defs>
</svg>