<svg xmlns="http://www.w3.org/2000/svg" width="24" height="25" viewBox="0 0 24 25" fill="none">
  <circle cx="7.89359" cy="7.89359" r="7.89359" transform="matrix(0.866025 0.5 -0.866025 0.5 11.0493 7.39355)" fill="white"/>
  <path d="M1.38184 15.2871C1.38184 16.8284 2.46392 18.2238 4.21342 19.2339V21.8651C2.46392 20.855 1.38184 19.4596 1.38184 17.9183V15.2871Z" fill="#93AAFC"/>
  <path d="M4.21338 19.2339C7.98883 21.4136 14.11 21.4136 17.8855 19.2339V21.8651C14.11 24.0448 7.98883 24.0448 4.21338 21.8651V19.2339Z" fill="#6580E1"/>
  <path d="M20.7168 15.2871C20.7168 16.8284 19.6348 18.2238 17.8853 19.2339V21.8651C19.6348 20.855 20.7168 19.4596 20.7168 17.9183V15.2871Z" fill="#6580E1"/>
  <circle cx="7.89359" cy="7.89359" r="7.89359" transform="matrix(0.866025 0.5 -0.866025 0.5 13.6802 3.88574)" fill="white"/>
  <path d="M4.01318 11.7788C4.01318 13.3201 5.09527 14.7155 6.84477 15.7256V18.3568C5.09527 17.3467 4.01318 15.9513 4.01318 14.41V11.7788Z" fill="#93DEFC"/>
  <path d="M6.84473 15.7256C10.6202 17.9053 16.7414 17.9053 20.5168 15.7256V18.3568C16.7414 20.5365 10.6202 20.5365 6.84473 18.3568V15.7256Z" fill="#65BEE1"/>
  <path d="M23.3482 11.7788C23.3482 13.3201 22.2661 14.7155 20.5166 15.7256V18.3568C22.2661 17.3467 23.3482 15.9513 23.3482 14.41V11.7788Z" fill="#65BEE1"/>
  <circle cx="7.89359" cy="7.89359" r="7.89359" transform="matrix(0.866025 0.5 -0.866025 0.5 10.1724 -0.5)" fill="url(#paint0_linear_28386_11314)"/>
  <path d="M0.504883 7.39355C0.504883 8.93487 1.58697 10.3303 3.33647 11.3404V13.9715C1.58697 12.9615 0.504883 11.5661 0.504883 10.0248V7.39355Z" fill="url(#paint1_linear_28386_11314)"/>
  <path d="M3.33594 11.3403C7.11138 13.5201 13.2326 13.5201 17.008 11.3403V13.9715C13.2326 16.1513 7.11138 16.1513 3.33594 13.9715V11.3403Z" fill="url(#paint2_linear_28386_11314)"/>
  <path d="M19.8399 7.39355C19.8399 8.93487 18.7578 10.3303 17.0083 11.3404V13.9715C18.7578 12.9615 19.8399 11.5661 19.8399 10.0248V7.39355Z" fill="url(#paint3_linear_28386_11314)"/>
  <defs>
    <linearGradient id="paint0_linear_28386_11314" x1="15.781" y1="15.7911" x2="-0.828603" y2="0.9177" gradientUnits="userSpaceOnUse">
      <stop stop-color="#D5FFFA"/>
      <stop offset="1" stop-color="#BDFDCF"/>
    </linearGradient>
    <linearGradient id="paint1_linear_28386_11314" x1="0.504883" y1="7.39355" x2="3.78258" y2="7.62391" gradientUnits="userSpaceOnUse">
      <stop stop-color="#AEFC93"/>
      <stop offset="1" stop-color="#93FCB1"/>
    </linearGradient>
    <linearGradient id="paint2_linear_28386_11314" x1="3.33593" y1="11.3364" x2="13.4231" y2="7.09529" gradientUnits="userSpaceOnUse">
      <stop stop-color="#44D7A2"/>
      <stop offset="1" stop-color="#65E188"/>
    </linearGradient>
    <linearGradient id="paint3_linear_28386_11314" x1="17.0083" y1="7.38753" x2="19.4589" y2="7.24914" gradientUnits="userSpaceOnUse">
      <stop stop-color="#44D7A2"/>
      <stop offset="1" stop-color="#65E188"/>
    </linearGradient>
  </defs>
</svg>