<svg xmlns="http://www.w3.org/2000/svg" width="24" height="25" viewBox="0 0 24 25" fill="none">
<path d="M11.538 9.36231C12.0163 9.08616 12.7918 9.08616 13.2701 9.3623L16.0672 10.9772C16.5454 11.2533 16.5454 11.7011 16.0672 11.9772L13.2701 13.5921C12.7918 13.8682 12.0163 13.8682 11.538 13.5921L8.74095 11.9772C8.26266 11.7011 8.26266 11.2533 8.74095 10.9772L11.538 9.36231Z" fill="#BDCBFD"/>
<rect width="3.13787" height="3.13787" transform="matrix(0.866025 0.5 0 1 8.78076 12.0005)" fill="#93AAFC"/>
<rect width="3.13787" height="3.13787" transform="matrix(0.866025 -0.5 0 1 13.3101 13.5693)" fill="#6580E1"/>
<path d="M8.40576 11.4771C8.40576 11.6813 8.54915 11.8662 8.78097 12V15.1379C8.54915 15.0041 8.40576 14.8192 8.40576 14.6149V11.4771Z" fill="#93AAFC"/>
<path d="M11.4983 13.5693C11.9986 13.8582 12.8097 13.8582 13.3099 13.5693V16.7072C12.8097 16.996 11.9986 16.996 11.4983 16.7072V13.5693Z" fill="#6580E1"/>
<path d="M16.4025 11.4771C16.4025 11.6813 16.2592 11.8662 16.0273 12V15.1379C16.2592 15.0041 16.4025 14.8192 16.4025 14.6149V11.4771Z" fill="#6580E1"/>
<path d="M5.39252 13C5.87081 12.7239 6.64628 12.7239 7.12457 13L9.92165 14.6149C10.3999 14.891 10.3999 15.3388 9.92165 15.6149L7.12457 17.2298C6.64628 17.5059 5.87081 17.5059 5.39252 17.2298L2.59544 15.6149C2.11715 15.3388 2.11715 14.891 2.59544 14.6149L5.39252 13Z" fill="white"/>
<rect width="3.13787" height="3.13787" transform="matrix(0.866025 0.5 0 1 2.63525 15.6377)" fill="#93AAFC"/>
<rect width="3.13787" height="3.13787" transform="matrix(0.866025 -0.5 0 1 7.16455 17.207)" fill="#6580E1"/>
<path d="M2.26025 15.1147C2.26025 15.319 2.40364 15.5039 2.63546 15.6377V18.7756C2.40364 18.6418 2.26025 18.4569 2.26025 18.2526V15.1147Z" fill="#93AAFC"/>
<path d="M5.35278 17.207C5.85306 17.4959 6.66416 17.4959 7.16443 17.207V20.3449C6.66416 20.6337 5.85306 20.6337 5.35278 20.3449V17.207Z" fill="#6580E1"/>
<path d="M10.257 15.1147C10.257 15.319 10.1137 15.5039 9.88184 15.6377V18.7756C10.1137 18.6418 10.257 18.4569 10.257 18.2526V15.1147Z" fill="#6580E1"/>
<path d="M16.8754 13C17.3537 12.7239 18.1292 12.7239 18.6075 13L21.4046 14.6149C21.8829 14.891 21.8829 15.3388 21.4046 15.6149L18.6075 17.2298C18.1292 17.5059 17.3537 17.5059 16.8754 17.2298L14.0784 15.6149C13.6001 15.3388 13.6001 14.891 14.0784 14.6149L16.8754 13Z" fill="white"/>
<rect width="3.13787" height="3.13787" transform="matrix(0.866025 0.5 0 1 14.1182 15.6377)" fill="#93AAFC"/>
<rect width="3.13787" height="3.13787" transform="matrix(0.866025 -0.5 0 1 18.6475 17.207)" fill="#6580E1"/>
<path d="M13.7432 15.1147C13.7432 15.319 13.8865 15.5039 14.1184 15.6377V18.7756C13.8865 18.6418 13.7432 18.4569 13.7432 18.2526V15.1147Z" fill="#93AAFC"/>
<path d="M16.8357 17.207C17.336 17.4959 18.1471 17.4959 18.6473 17.207V20.3449C18.1471 20.6337 17.336 20.6337 16.8357 20.3449V17.207Z" fill="#6580E1"/>
<path d="M21.74 15.1147C21.74 15.319 21.5966 15.5039 21.3647 15.6377V18.7756C21.5966 18.6418 21.74 18.4569 21.74 18.2526V15.1147Z" fill="#6580E1"/>
<path d="M10.7299 16.6377C11.2082 16.3616 11.9837 16.3616 12.462 16.6377L15.2591 18.2526C15.7373 18.5287 15.7373 18.9764 15.2591 19.2526L12.462 20.8675C11.9837 21.1436 11.2082 21.1436 10.7299 20.8675L7.93284 19.2526C7.45455 18.9764 7.45455 18.5287 7.93284 18.2526L10.7299 16.6377Z" fill="white"/>
<rect width="3.13787" height="3.13787" transform="matrix(0.866025 0.5 0 1 7.97266 19.2754)" fill="#93AAFC"/>
<rect width="3.13787" height="3.13787" transform="matrix(0.866025 -0.5 0 1 12.502 20.8442)" fill="#6580E1"/>
<path d="M7.59766 18.7524C7.59766 18.9567 7.74104 19.1416 7.97286 19.2754V22.4133C7.74104 22.2795 7.59766 22.0946 7.59766 21.8903V18.7524Z" fill="#93AAFC"/>
<path d="M10.6902 20.8442C11.1905 21.1331 12.0016 21.1331 12.5018 20.8442V23.9821C12.0016 24.2709 11.1905 24.2709 10.6902 23.9821V20.8442Z" fill="#6580E1"/>
<path d="M15.5944 18.7524C15.5944 18.9567 15.4511 19.1416 15.2192 19.2754V22.4133C15.4511 22.2795 15.5944 22.0946 15.5944 21.8903V18.7524Z" fill="#6580E1"/>
<path d="M11.538 5.33154C12.0163 5.0554 12.7918 5.0554 13.2701 5.33154L16.0672 6.94644C16.5454 7.22258 16.5454 7.67029 16.0672 7.94644L13.2701 9.56133C12.7918 9.83747 12.0163 9.83747 11.538 9.56133L8.74095 7.94644C8.26266 7.6703 8.26266 7.22258 8.74095 6.94644L11.538 5.33154Z" fill="white"/>
<rect width="3.13787" height="3.13787" transform="matrix(0.866025 0.5 0 1 8.78076 7.96924)" fill="#93DEFC"/>
<rect width="3.13787" height="3.13787" transform="matrix(0.866025 -0.5 0 1 13.3101 9.53857)" fill="#65BEE1"/>
<path d="M8.40576 7.44629C8.40576 7.65053 8.54915 7.83543 8.78097 7.96927V11.1071C8.54915 10.9733 8.40576 10.7884 8.40576 10.5842V7.44629Z" fill="#93DEFC"/>
<path d="M11.4983 9.53857C11.9986 9.82741 12.8097 9.82741 13.3099 9.53857V12.6764C12.8097 12.9653 11.9986 12.9653 11.4983 12.6764V9.53857Z" fill="#65BEE1"/>
<path d="M16.4025 7.44629C16.4025 7.65053 16.2592 7.83543 16.0273 7.96927V11.1071C16.2592 10.9733 16.4025 10.7884 16.4025 10.5842V7.44629Z" fill="#65BEE1"/>
<path d="M5.39252 8.96924C5.87081 8.6931 6.64628 8.6931 7.12457 8.96924L9.92165 10.5841C10.3999 10.8603 10.3999 11.308 9.92165 11.5841L7.12457 13.199C6.64628 13.4752 5.87081 13.4752 5.39252 13.199L2.59544 11.5841C2.11715 11.308 2.11715 10.8603 2.59544 10.5841L5.39252 8.96924Z" fill="white"/>
<rect width="3.13787" height="3.13787" transform="matrix(0.866025 0.5 0 1 2.63525 11.6069)" fill="#93DEFC"/>
<rect width="3.13787" height="3.13787" transform="matrix(0.866025 -0.5 0 1 7.16455 13.1758)" fill="#65BEE1"/>
<path d="M2.26025 11.084C2.26025 11.2882 2.40364 11.4731 2.63546 11.607V14.7448C2.40364 14.611 2.26025 14.4261 2.26025 14.2219V11.084Z" fill="#93DEFC"/>
<path d="M5.35278 13.1758C5.85306 13.4646 6.66416 13.4646 7.16443 13.1758V16.3137C6.66416 16.6025 5.85306 16.6025 5.35278 16.3137V13.1758Z" fill="#65BEE1"/>
<path d="M10.257 11.084C10.257 11.2882 10.1137 11.4731 9.88184 11.607V14.7448C10.1137 14.611 10.257 14.4261 10.257 14.2219V11.084Z" fill="#65BEE1"/>
<path d="M16.8754 8.96924C17.3537 8.6931 18.1292 8.6931 18.6075 8.96924L21.4046 10.5841C21.8829 10.8603 21.8829 11.308 21.4046 11.5841L18.6075 13.199C18.1292 13.4752 17.3537 13.4752 16.8754 13.199L14.0784 11.5841C13.6001 11.308 13.6001 10.8603 14.0784 10.5841L16.8754 8.96924Z" fill="white"/>
<rect width="3.13787" height="3.13787" transform="matrix(0.866025 0.5 0 1 14.1182 11.6069)" fill="#93DEFC"/>
<rect width="3.13787" height="3.13787" transform="matrix(0.866025 -0.5 0 1 18.6475 13.1758)" fill="#65BEE1"/>
<path d="M13.7432 11.084C13.7432 11.2882 13.8865 11.4731 14.1184 11.607V14.7448C13.8865 14.611 13.7432 14.4261 13.7432 14.2219V11.084Z" fill="#93DEFC"/>
<path d="M16.8357 13.1758C17.336 13.4646 18.1471 13.4646 18.6473 13.1758V16.3137C18.1471 16.6025 17.336 16.6025 16.8357 16.3137V13.1758Z" fill="#65BEE1"/>
<path d="M21.74 11.084C21.74 11.2882 21.5966 11.4731 21.3647 11.607V14.7448C21.5966 14.611 21.74 14.4261 21.74 14.2219V11.084Z" fill="#65BEE1"/>
<path d="M10.7299 12.6069C11.2082 12.3308 11.9837 12.3308 12.462 12.6069L15.2591 14.2218C15.7373 14.498 15.7373 14.9457 15.2591 15.2218L12.462 16.8367C11.9837 17.1129 11.2082 17.1129 10.7299 16.8367L7.93284 15.2218C7.45455 14.9457 7.45455 14.498 7.93284 14.2218L10.7299 12.6069Z" fill="white"/>
<rect width="3.13787" height="3.13787" transform="matrix(0.866025 0.5 0 1 7.97266 15.2451)" fill="#93DEFC"/>
<rect width="3.13787" height="3.13787" transform="matrix(0.866025 -0.5 0 1 12.502 16.814)" fill="#65BEE1"/>
<path d="M7.59766 14.7217C7.59766 14.9259 7.74104 15.1108 7.97286 15.2447V18.3825C7.74104 18.2487 7.59766 18.0638 7.59766 17.8596V14.7217Z" fill="#93DEFC"/>
<path d="M10.6902 16.814C11.1905 17.1028 12.0016 17.1028 12.5018 16.814V19.9518C12.0016 20.2407 11.1905 20.2407 10.6902 19.9518V16.814Z" fill="#65BEE1"/>
<path d="M15.5944 14.7217C15.5944 14.9259 15.4511 15.1108 15.2192 15.2447V18.3825C15.4511 18.2487 15.5944 18.0638 15.5944 17.8596V14.7217Z" fill="#65BEE1"/>
<path d="M11.538 1.30127C12.0163 1.02513 12.7918 1.02513 13.2701 1.30127L16.0672 2.91616C16.5454 3.19231 16.5454 3.64002 16.0672 3.91616L13.2701 5.53106C12.7918 5.8072 12.0163 5.8072 11.538 5.53106L8.74095 3.91616C8.26266 3.64002 8.26266 3.19231 8.74095 2.91616L11.538 1.30127Z" fill="#BDFDCF"/>
<rect width="3.13787" height="3.13787" transform="matrix(0.866025 0.5 0 1 8.78076 3.93896)" fill="#93FCB1"/>
<rect width="3.13787" height="3.13787" transform="matrix(0.866025 -0.5 0 1 13.3101 5.50781)" fill="#65E188"/>
<path d="M8.40576 3.41602C8.40576 3.62025 8.54915 3.80515 8.78097 3.93899V7.07687C8.54915 6.94303 8.40576 6.75812 8.40576 6.55389V3.41602Z" fill="#93FCB1"/>
<path d="M11.4983 5.50781C11.9986 5.79665 12.8097 5.79665 13.3099 5.50781V8.64569C12.8097 8.93452 11.9986 8.93452 11.4983 8.64569V5.50781Z" fill="#65E188"/>
<path d="M16.4025 3.41602C16.4025 3.62025 16.2592 3.80515 16.0273 3.93899V7.07687C16.2592 6.94303 16.4025 6.75812 16.4025 6.55389V3.41602Z" fill="#65E188"/>
<path d="M5.39252 4.93897C5.87081 4.66282 6.64628 4.66282 7.12457 4.93896L9.92165 6.55386C10.3999 6.83 10.3999 7.27772 9.92165 7.55386L7.12457 9.16875C6.64628 9.4449 5.87081 9.4449 5.39252 9.16875L2.59544 7.55386C2.11715 7.27772 2.11715 6.83 2.59544 6.55386L5.39252 4.93897Z" fill="#BDFDCF"/>
<rect width="3.13787" height="3.13787" transform="matrix(0.866025 0.5 0 1 2.63525 7.57666)" fill="#93FCB1"/>
<rect width="3.13787" height="3.13787" transform="matrix(0.866025 -0.5 0 1 7.16455 9.146)" fill="#65E188"/>
<path d="M2.26025 7.05371C2.26025 7.25795 2.40364 7.44285 2.63546 7.57669V10.7146C2.40364 10.5807 2.26025 10.3958 2.26025 10.1916V7.05371Z" fill="#93FCB1"/>
<path d="M5.35278 9.146C5.85306 9.43483 6.66416 9.43483 7.16443 9.146V12.2839C6.66416 12.5727 5.85306 12.5727 5.35278 12.2839V9.146Z" fill="#65E188"/>
<path d="M10.257 7.05371C10.257 7.25795 10.1137 7.44285 9.88184 7.57669V10.7146C10.1137 10.5807 10.257 10.3958 10.257 10.1916V7.05371Z" fill="#65E188"/>
<path d="M16.8754 4.93897C17.3537 4.66282 18.1292 4.66282 18.6075 4.93896L21.4046 6.55386C21.8829 6.83 21.8829 7.27772 21.4046 7.55386L18.6075 9.16875C18.1292 9.4449 17.3537 9.4449 16.8754 9.16875L14.0784 7.55386C13.6001 7.27772 13.6001 6.83 14.0784 6.55386L16.8754 4.93897Z" fill="#BDFDCF"/>
<rect width="3.13787" height="3.13787" transform="matrix(0.866025 0.5 0 1 14.1182 7.57666)" fill="#93FCB1"/>
<rect width="3.13787" height="3.13787" transform="matrix(0.866025 -0.5 0 1 18.6475 9.146)" fill="#65E188"/>
<path d="M13.7432 7.05371C13.7432 7.25795 13.8865 7.44285 14.1184 7.57669V10.7146C13.8865 10.5807 13.7432 10.3958 13.7432 10.1916V7.05371Z" fill="#93FCB1"/>
<path d="M16.8357 9.146C17.336 9.43483 18.1471 9.43483 18.6473 9.146V12.2839C18.1471 12.5727 17.336 12.5727 16.8357 12.2839V9.146Z" fill="#65E188"/>
<path d="M21.74 7.05371C21.74 7.25795 21.5966 7.44285 21.3647 7.57669V10.7146C21.5966 10.5807 21.74 10.3958 21.74 10.1916V7.05371Z" fill="#65E188"/>
<path d="M10.7299 8.57617C11.2082 8.30003 11.9837 8.30003 12.462 8.57617L15.2591 10.1911C15.7373 10.4672 15.7373 10.9149 15.2591 11.1911L12.462 12.806C11.9837 13.0821 11.2082 13.0821 10.7299 12.806L7.93284 11.1911C7.45455 10.9149 7.45455 10.4672 7.93284 10.1911L10.7299 8.57617Z" fill="#BDFDCF"/>
<path d="M10.7299 9.146C11.2082 8.86985 11.9837 8.86985 12.462 9.146L12.5416 9.19195C13.0199 9.4681 13.0199 9.91581 12.5416 10.192L12.462 10.2379C11.9837 10.5141 11.2082 10.5141 10.7299 10.2379L10.6503 10.192C10.172 9.91581 10.172 9.4681 10.6503 9.19195L10.7299 9.146Z" fill="#BDFDCF"/>
<path d="M10.3149 9.69189C10.3149 9.89613 10.4583 10.081 10.6901 10.2149V11.2608C10.4583 11.127 10.3149 10.9421 10.3149 10.7379V9.69189Z" fill="#93FCB1"/>
<path d="M10.6899 10.2148C11.1902 10.5037 12.0013 10.5037 12.5016 10.2148V11.2608C12.0013 11.5496 11.1902 11.5496 10.6899 11.2608V10.2148Z" fill="#65E188"/>
<path d="M12.8769 9.69189C12.8769 9.89613 12.7335 10.081 12.5017 10.2149V11.2608C12.7335 11.127 12.8769 10.9421 12.8769 10.7379V9.69189Z" fill="#65E188"/>
<path d="M5.39276 5.51123C5.87106 5.23509 6.64652 5.23509 7.12481 5.51123L7.20442 5.55719C7.68271 5.83333 7.68271 6.28105 7.20442 6.55719L7.12481 6.60315C6.64652 6.87929 5.87106 6.87929 5.39276 6.60315L5.31316 6.55719C4.83487 6.28105 4.83487 5.83333 5.31316 5.55719L5.39276 5.51123Z" fill="#BDFDCF"/>
<path d="M4.97778 6.05713C4.97778 6.26136 5.12117 6.44627 5.35299 6.58011V7.62607C5.12117 7.49222 4.97778 7.30732 4.97778 7.10309V6.05713Z" fill="#93FCB1"/>
<path d="M5.35278 6.58008C5.85306 6.86891 6.66416 6.86891 7.16443 6.58008V7.62604C6.66416 7.91487 5.85306 7.91487 5.35278 7.62604V6.58008Z" fill="#65E188"/>
<path d="M7.53976 6.05713C7.53976 6.26136 7.39637 6.44627 7.16455 6.58011V7.62607C7.39637 7.49222 7.53976 7.30732 7.53976 7.10309V6.05713Z" fill="#65E188"/>
<path d="M11.5383 1.87939C12.0166 1.60325 12.792 1.60325 13.2703 1.87939L13.3499 1.92535C13.8282 2.20149 13.8282 2.64921 13.3499 2.92535L13.2703 2.97131C12.792 3.24745 12.0166 3.24745 11.5383 2.97131L11.4587 2.92535C10.9804 2.64921 10.9804 2.20149 11.4587 1.92535L11.5383 1.87939Z" fill="#BDFDCF"/>
<path d="M11.1233 2.42529C11.1233 2.62953 11.2667 2.81443 11.4985 2.94827V3.99423C11.2667 3.86039 11.1233 3.67549 11.1233 3.47125V2.42529Z" fill="#93FCB1"/>
<path d="M11.4983 2.94824C11.9986 3.23708 12.8097 3.23708 13.3099 2.94824V3.9942C12.8097 4.28303 11.9986 4.28303 11.4983 3.9942V2.94824Z" fill="#65E188"/>
<path d="M13.6853 2.42529C13.6853 2.62953 13.5419 2.81443 13.3101 2.94827V3.99423C13.5419 3.86039 13.6853 3.67549 13.6853 3.47125V2.42529Z" fill="#65E188"/>
<path d="M16.8754 5.51123C17.3537 5.23509 18.1292 5.23509 18.6075 5.51123L18.6871 5.55719C19.1654 5.83333 19.1654 6.28105 18.6871 6.55719L18.6075 6.60315C18.1292 6.87929 17.3537 6.87929 16.8754 6.60315L16.7958 6.55719C16.3175 6.28105 16.3175 5.83333 16.7958 5.55719L16.8754 5.51123Z" fill="#BDFDCF"/>
<path d="M16.4604 6.05713C16.4604 6.26136 16.6038 6.44627 16.8357 6.58011V7.62607C16.6038 7.49222 16.4604 7.30732 16.4604 7.10309V6.05713Z" fill="#93FCB1"/>
<path d="M16.8354 6.58008C17.3357 6.86891 18.1468 6.86891 18.6471 6.58008V7.62604C18.1468 7.91487 17.3357 7.91487 16.8354 7.62604V6.58008Z" fill="#65E188"/>
<path d="M19.0224 6.05713C19.0224 6.26136 18.879 6.44627 18.6472 6.58011V7.62607C18.879 7.49222 19.0224 7.30732 19.0224 7.10309V6.05713Z" fill="#65E188"/>
<rect width="3.13787" height="3.13787" transform="matrix(0.866025 0.5 0 1 7.97266 11.2144)" fill="#93FCB1"/>
<rect width="3.13787" height="3.13787" transform="matrix(0.866025 -0.5 0 1 12.5017 12.7832)" fill="#65E188"/>
<path d="M7.59741 10.6914C7.59741 10.8956 7.7408 11.0805 7.97262 11.2144V14.3523C7.7408 14.2184 7.59741 14.0335 7.59741 13.8293V10.6914Z" fill="#93FCB1"/>
<path d="M10.6902 12.7832C11.1905 13.072 12.0016 13.072 12.5018 12.7832V15.9211C12.0016 16.2099 11.1905 16.2099 10.6902 15.9211V12.7832Z" fill="#65E188"/>
<path d="M15.5944 10.6914C15.5944 10.8956 15.4511 11.0805 15.2192 11.2144V14.3523C15.4511 14.2184 15.5944 14.0335 15.5944 13.8293V10.6914Z" fill="#65E188"/>
</svg>