<svg xmlns="http://www.w3.org/2000/svg" width="79" height="44" viewBox="0 0 79 44" fill="none">
<path d="M19.2233 0.538574H10.187C8.3155 0.538574 6.79834 2.05574 6.79834 3.92722V10.7045C6.79834 11.3283 7.3041 11.8341 7.92792 11.8341H21.4825C22.1063 11.8341 22.6121 11.3283 22.6121 10.7045V3.92722C22.612 2.05574 21.0948 0.538574 19.2233 0.538574Z" fill="#DB1639"/>
<path d="M44.007 0.538574H34.9707C33.0992 0.538574 31.582 2.05574 31.582 3.92722V10.7045C31.582 11.3283 32.0878 11.8341 32.7116 11.8341H46.2662C46.89 11.8341 47.3958 11.3283 47.3958 10.7045V3.92722C47.3957 2.05574 45.8785 0.538574 44.007 0.538574Z" fill="#DB1639"/>
<path d="M68.5739 0.538574H59.5376C57.6661 0.538574 56.1489 2.05574 56.1489 3.92722V10.7045C56.1489 11.3283 56.6547 11.8341 57.2785 11.8341H70.8331C71.4569 11.8341 71.9627 11.3283 71.9627 10.7045V3.92722C71.9626 2.05574 70.4454 0.538574 68.5739 0.538574Z" fill="#DB1639"/>
<path fill-rule="evenodd" clip-rule="evenodd" d="M3.40964 8.74463H75.4682C77.3397 8.74463 78.8569 10.2618 78.857 12.1333V42.0156C78.857 42.6394 78.3512 43.1452 77.7274 43.1452H63.7062V40.8535C63.7061 38.982 62.1889 37.4649 60.3175 37.4649H51.2811C49.4096 37.4649 47.8924 38.982 47.8924 40.8535V43.1452H30.2515V40.8535C30.2514 38.982 28.7343 37.4649 26.8628 37.4649H17.8264C15.9549 37.4649 14.4378 38.982 14.4378 40.8535V43.1452H1.15058C0.526752 43.1452 0.0209961 42.6394 0.0209961 42.0156V12.1333C0.0209961 10.2618 1.53816 8.74463 3.40964 8.74463Z" fill="#FF0420"/>
<path d="M33.1604 28.0246C31.9042 28.0246 30.8756 27.7295 30.0746 27.1393C29.2821 26.5407 28.8859 25.6807 28.8859 24.5763C28.8859 24.3402 28.9112 24.062 28.9617 23.7248C29.0966 22.966 29.2906 22.0554 29.5435 20.9847C30.2601 18.0844 32.1149 16.6343 35.0995 16.6343C35.9089 16.6343 36.6424 16.7692 37.2831 17.0474C37.9239 17.3088 38.4298 17.7134 38.8007 18.253C39.1717 18.7842 39.3572 19.4165 39.3572 20.15C39.3572 20.3692 39.3319 20.6474 39.2813 20.9847C39.1211 21.9205 38.9356 22.8395 38.708 23.7248C38.337 25.1665 37.7047 26.2541 36.7941 26.9707C35.892 27.6789 34.678 28.0246 33.1604 28.0246ZM33.388 25.7482C33.9782 25.7482 34.4756 25.5711 34.8887 25.2255C35.3103 24.8798 35.6138 24.3486 35.7909 23.6236C36.0354 22.6287 36.2208 21.7688 36.3473 21.0268C36.3895 20.8076 36.4148 20.58 36.4148 20.3439C36.4148 19.3828 35.9173 18.9022 34.914 18.9022C34.3239 18.9022 33.818 19.0793 33.3965 19.4249C32.9833 19.7706 32.6882 20.3018 32.5112 21.0268C32.3173 21.735 32.1318 22.595 31.9379 23.6236C31.8957 23.8344 31.8704 24.0536 31.8704 24.2896C31.862 25.2676 32.3763 25.7482 33.388 25.7482Z" fill="white"/>
<path d="M40.0911 27.8723C39.9731 27.8723 39.8888 27.8386 39.8213 27.7627C39.7707 27.6784 39.7539 27.5856 39.7707 27.476L41.9544 17.1902C41.9712 17.0722 42.0302 16.9794 42.1314 16.9035C42.2241 16.8277 42.3253 16.7939 42.4349 16.7939H46.642C47.8139 16.7939 48.7497 17.0384 49.458 17.519C50.1746 18.008 50.5371 18.7078 50.5371 19.6268C50.5371 19.8881 50.5034 20.1663 50.4444 20.453C50.183 21.6671 49.6519 22.5608 48.8425 23.1425C48.05 23.7242 46.9624 24.0109 45.5797 24.0109H43.4466L42.7216 27.476C42.6963 27.5941 42.6457 27.6868 42.5445 27.7627C42.4518 27.8386 42.3506 27.8723 42.241 27.8723H40.0911ZM45.6893 21.8273C46.1361 21.8273 46.5155 21.7092 46.8443 21.4647C47.1816 21.2202 47.4008 20.8746 47.5104 20.4193C47.5441 20.2422 47.561 20.082 47.561 19.9471C47.561 19.6436 47.4682 19.4076 47.2912 19.2474C47.1141 19.0787 46.8022 18.9944 46.3722 18.9944H44.4752L43.8766 21.8273H45.6893Z" fill="white"/>
</svg>