<svg xmlns="http://www.w3.org/2000/svg" width="47" height="47" viewBox="0 0 47 47" fill="none">
<path d="M45.6553 29.1458C42.6177 41.33 30.2771 48.745 18.0915 45.7067C5.91093 42.6691 -1.50413 30.3277 1.53478 18.1445C4.57101 5.959 16.9116 -1.45661 29.0935 1.58096C41.2782 4.61853 48.6928 16.9612 45.6549 29.146L45.6552 29.1458H45.6553Z" fill="#F7931A"/>
<path fill-rule="evenodd" clip-rule="evenodd" d="M33.6236 20.4039C34.0763 17.3772 31.772 15.7502 28.621 14.6649L29.6432 10.565L27.1475 9.94313L26.1524 13.9351C25.4963 13.7714 24.8225 13.6173 24.1528 13.4644L25.1551 9.4461L22.6609 8.82422L21.6382 12.9228C21.0952 12.7992 20.562 12.677 20.0446 12.5483L20.0475 12.5354L16.6058 11.6759L15.9419 14.3415C15.9419 14.3415 17.7935 14.766 17.7545 14.7921C18.7652 15.0443 18.9479 15.7133 18.9176 16.2436L17.7532 20.9144C17.8228 20.932 17.913 20.9576 18.0127 20.9976L17.9402 20.9795L17.9397 20.9794C17.8783 20.964 17.8144 20.9481 17.7488 20.9324L16.1168 27.4754C15.9933 27.7825 15.6798 28.2433 14.9732 28.0683C14.9982 28.1045 13.1593 27.6156 13.1593 27.6156L11.9202 30.4724L15.168 31.2821C15.5234 31.3712 15.8747 31.4628 16.2224 31.5534L16.223 31.5536L16.224 31.5538C16.4667 31.6171 16.7078 31.6799 16.9473 31.7412L15.9146 35.8881L18.4074 36.51L19.4302 32.4071C20.1112 32.592 20.7721 32.7625 21.4191 32.9232L20.3998 37.0068L22.8956 37.6287L23.9283 33.4895C28.184 34.295 31.384 33.9702 32.7309 30.1209C33.8163 27.0217 32.6769 25.2342 30.438 24.0684C32.0687 23.6924 33.297 22.6198 33.6245 20.4042L33.6237 20.4037L33.6236 20.4039ZM27.9215 28.3998C27.2138 31.2432 22.7632 30.0677 20.7268 29.5298L20.7267 29.5298C20.5436 29.4814 20.38 29.4382 20.2404 29.4035L21.6109 23.9096C21.781 23.9521 21.989 23.9987 22.2246 24.0516C24.3309 24.5243 28.6465 25.4928 27.9216 28.3998H27.9215ZM22.647 21.5015C24.3447 21.9546 28.0483 22.943 28.6933 20.3587H28.6935C29.3521 17.7156 25.7529 16.9188 23.995 16.5296C23.7973 16.4858 23.6228 16.4472 23.4804 16.4117L22.2378 21.3944C22.3552 21.4236 22.4928 21.4603 22.647 21.5015Z" fill="white"/>
</svg>