<svg xmlns="http://www.w3.org/2000/svg" width="55" height="44" viewBox="0 0 55 44" fill="none">
<path d="M31.8725 0.854492H22.8362C20.9647 0.854492 19.4475 2.37165 19.4475 4.24314V11.0204C19.4475 11.6443 19.9533 12.15 20.5771 12.15H34.1317C34.7555 12.15 35.2613 11.6443 35.2613 11.0204V4.24314C35.2612 2.37165 33.744 0.854492 31.8725 0.854492Z" fill="#9344E3"/>
<path fill-rule="evenodd" clip-rule="evenodd" d="M45.8797 9.06055H9.42689C7.98888 9.06055 6.82312 10.5638 6.82312 12.4182V42.0271C6.82312 42.6452 7.21173 43.1463 7.69107 43.1463H19.4477V40.8536C19.4477 38.9821 20.9649 37.4649 22.8363 37.4649H31.8727C33.7442 37.4649 35.2613 38.9821 35.2614 40.8536V43.1463H47.6156C48.0949 43.1463 48.4835 42.6452 48.4835 42.0271V12.4182C48.4835 10.5638 47.3177 9.06055 45.8797 9.06055Z" fill="#AC5AFE"/>
<path d="M31.1639 25.7837L34.9069 23.6364C35.1053 23.5223 35.228 23.3107 35.228 23.0837V18.789C35.228 18.562 35.1053 18.3505 34.9069 18.2364L31.1639 16.089C30.9654 15.975 30.7191 15.9761 30.5218 16.089L26.7787 18.2364C26.5803 18.3505 26.4577 18.562 26.4577 18.789V26.4637L23.8326 27.9687L21.2076 26.4637V23.4525L23.8326 21.9475L25.5638 22.9408V20.9209L24.1536 20.1113C24.0567 20.0559 23.9452 20.026 23.8326 20.026C23.72 20.026 23.6086 20.0559 23.5116 20.1113L19.7685 22.2587C19.5701 22.3727 19.4475 22.5843 19.4475 22.8113V27.106C19.4475 27.333 19.5701 27.5445 19.7685 27.6586L23.5116 29.806C23.71 29.9189 23.9553 29.9189 24.1536 29.806L27.8967 27.6586C28.0952 27.5445 28.2177 27.333 28.2177 27.106V19.4302L28.2646 19.4037L30.8417 17.9252L33.4668 19.4302V22.4414L30.8417 23.9465L29.1128 22.9552V24.9753L30.5207 25.7826C30.7191 25.8956 30.9654 25.8956 31.1627 25.7826L31.1639 25.7837Z" fill="white"/>
</svg>