<svg xmlns="http://www.w3.org/2000/svg" width="55" height="44" viewBox="0 0 55 44" fill="none">
<path d="M19.6472 0.854492H10.6108C8.73933 0.854492 7.22217 2.37165 7.22217 4.24314V11.0204C7.22217 11.6443 7.72792 12.15 8.35175 12.15H21.9063C22.5302 12.15 23.0359 11.6443 23.0359 11.0204V4.24314C23.0358 2.37165 21.5187 0.854492 19.6472 0.854492Z" fill="#F07D12"/>
<path d="M44.4309 0.854492H35.3945C33.523 0.854492 32.0059 2.37165 32.0059 4.24314V11.0204C32.0059 11.6443 32.5116 12.15 33.1354 12.15H46.69C47.3139 12.15 47.8196 11.6443 47.8196 11.0204V4.24314C47.8195 2.37165 46.3024 0.854492 44.4309 0.854492Z" fill="#F07D12"/>
<path fill-rule="evenodd" clip-rule="evenodd" d="M51.2745 9.06055H3.83347C1.96199 9.06055 0.444824 10.5777 0.444824 12.4492V42.3315C0.444824 42.9554 0.95058 43.4611 1.57441 43.4611H19.3814V40.8536C19.3814 38.9821 20.8986 37.4649 22.7701 37.4649H31.8064C33.6779 37.4649 35.1951 38.9821 35.1952 40.8536V43.4611H53.5337C54.1575 43.4611 54.6633 42.9554 54.6633 42.3315V12.4492C54.6632 10.5777 53.146 9.06055 51.2745 9.06055Z" fill="#F7931A"/>
<path fill-rule="evenodd" clip-rule="evenodd" d="M33.7122 21.8115C33.9886 19.9635 32.5816 18.9701 30.6577 18.3074L31.2818 15.8041L29.758 15.4244L29.1504 17.8618C28.7498 17.7619 28.3384 17.6677 27.9295 17.5744L28.5415 15.1209L27.0186 14.7412L26.3941 17.2437C26.0626 17.1682 25.737 17.0936 25.4211 17.015L25.4228 17.0072L23.3214 16.4824L22.9161 18.11C22.9161 18.11 24.0466 18.3691 24.0228 18.3851C24.6399 18.5391 24.7515 18.9476 24.7329 19.2714L24.022 22.1232C24.0645 22.134 24.1196 22.1496 24.1804 22.1741L24.1362 22.163L24.1361 22.163C24.0985 22.1536 24.0594 22.1438 24.0193 22.1342L23.0228 26.1293C22.9474 26.3168 22.756 26.5981 22.3246 26.4913C22.3398 26.5134 21.217 26.2149 21.217 26.2149L20.4604 27.9592L22.4435 28.4535C22.6606 28.508 22.8752 28.5639 23.0876 28.6193C23.2361 28.658 23.3835 28.6964 23.5299 28.7339L22.8994 31.2659L24.4214 31.6456L25.0459 29.1405C25.4617 29.2533 25.8653 29.3575 26.2603 29.4556L25.6379 31.949L27.1619 32.3287L27.7924 29.8014C30.3909 30.2932 32.3447 30.0949 33.1671 27.7446C33.8298 25.8523 33.1341 24.7608 31.7671 24.049C32.7628 23.8194 33.5127 23.1645 33.7127 21.8117L33.7122 21.8114L33.7122 21.8115ZM30.2305 26.6937C29.7984 28.4299 27.0809 27.7121 25.8376 27.3837C25.7257 27.3542 25.6258 27.3278 25.5405 27.3066L26.3773 23.9521C26.4812 23.978 26.6082 24.0065 26.752 24.0388L26.752 24.0388C28.0381 24.3274 30.6731 24.9188 30.2305 26.6937H30.2305ZM27.01 22.4824C28.0466 22.759 30.3079 23.3625 30.7017 21.7846H30.7019C31.104 20.1708 28.9064 19.6843 27.8331 19.4466C27.7123 19.4199 27.6058 19.3963 27.5188 19.3746L26.7602 22.417C26.8318 22.4348 26.9158 22.4573 27.01 22.4824Z" fill="white"/>
</svg>