<svg width="23" height="23" viewBox="0 0 23 23" fill="none" xmlns="http://www.w3.org/2000/svg">
<rect width="22" height="22" transform="translate(0.5 0.5625)" fill="white" fill-opacity="0.15"/>
<path d="M9.61452 9.35848C9.53062 9.36148 9.44702 9.34748 9.36862 9.31738C9.29022 9.28738 9.21872 9.24178 9.15832 9.18358C9.09802 9.12528 9.04992 9.05538 9.01712 8.97808C8.98432 8.90088 8.96742 8.81778 8.96742 8.73388C8.96742 8.64998 8.98432 8.56688 9.01712 8.48958C9.04992 8.41238 9.09802 8.34248 9.15832 8.28418C9.21872 8.22588 9.29022 8.18038 9.36862 8.15028C9.44702 8.12028 9.53062 8.10628 9.61452 8.10928H14.3285C14.4941 8.10938 14.653 8.17518 14.7701 8.29228C14.8872 8.40938 14.953 8.56828 14.9531 8.73388V13.4479C14.9561 13.5318 14.9421 13.6154 14.9121 13.6938C14.882 13.7722 14.8365 13.8437 14.7782 13.9041C14.7199 13.9644 14.65 14.0125 14.5728 14.0453C14.4955 14.0781 14.4125 14.095 14.3285 14.095C14.2446 14.095 14.1615 14.0781 14.0843 14.0453C14.007 14.0125 13.9371 13.9644 13.8788 13.9041C13.8206 13.8437 13.775 13.7722 13.745 13.6938C13.7149 13.6154 13.7009 13.5318 13.7039 13.4479V10.2424L7.99402 15.9523C7.87682 16.0695 7.71782 16.1353 7.55212 16.1353C7.38632 16.1353 7.22732 16.0695 7.11012 15.9523C6.99292 15.8351 6.92712 15.6761 6.92712 15.5103C6.92712 15.3446 6.99292 15.1856 7.11012 15.0684L12.82 9.35848H9.61452Z" fill="white"/>
</svg>
