<svg width="29" height="30" viewBox="0 0 29 30" fill="none" xmlns="http://www.w3.org/2000/svg">
<path d="M12.6145 12.7961C12.5306 12.799 12.447 12.7851 12.3686 12.755C12.2902 12.725 12.2187 12.6794 12.1583 12.6211C12.098 12.5628 12.0499 12.493 12.0171 12.4157C11.9843 12.3385 11.9674 12.2554 11.9674 12.1715C11.9674 12.0875 11.9843 12.0045 12.0171 11.9272C12.0499 11.8499 12.098 11.7801 12.1583 11.7218C12.2187 11.6635 12.2902 11.618 12.3686 11.5879C12.447 11.5579 12.5306 11.5439 12.6145 11.5469L17.3285 11.5469C17.4941 11.547 17.653 11.6128 17.7701 11.7299C17.8872 11.847 17.953 12.0058 17.9531 12.1715L17.9531 16.8855C17.9561 16.9694 17.9421 17.053 17.9121 17.1314C17.882 17.2097 17.8365 17.2812 17.7782 17.3416C17.7199 17.402 17.65 17.45 17.5728 17.4828C17.4955 17.5157 17.4125 17.5326 17.3285 17.5326C17.2446 17.5326 17.1615 17.5157 17.0843 17.4828C17.007 17.45 16.9371 17.402 16.8788 17.3416C16.8206 17.2812 16.775 17.2097 16.745 17.1314C16.7149 17.053 16.7009 16.9694 16.7039 16.8855L16.7039 13.68L10.994 19.3898C10.8768 19.5071 10.7178 19.5729 10.5521 19.5729C10.3863 19.5729 10.2273 19.5071 10.1101 19.3898C9.99293 19.2726 9.92708 19.1137 9.92708 18.9479C9.92708 18.7821 9.99293 18.6232 10.1101 18.506L15.82 12.7961L12.6145 12.7961Z" fill="white"/>
</svg>
