<svg width="23" height="23" viewBox="0 0 23 23" fill="none" xmlns="http://www.w3.org/2000/svg">
<rect width="22" height="22" transform="translate(0.5 0.5625)" fill="#2AABEE"/>
<g clip-path="url(#clip0_31373_10886)">
<path fill-rule="evenodd" clip-rule="evenodd" d="M15.5366 6.58415C15.6807 6.52347 15.8385 6.50255 15.9935 6.52355C16.1485 6.54455 16.295 6.6067 16.4178 6.70355C16.5406 6.80039 16.6352 6.92838 16.6918 7.07419C16.7484 7.22001 16.7648 7.37832 16.7394 7.53265L15.4164 15.5576C15.2881 16.3316 14.4388 16.7756 13.7288 16.39C13.135 16.0674 12.253 15.5704 11.4597 15.0518C11.063 14.7922 9.84792 13.961 9.99725 13.3695C10.1256 12.8637 12.1673 10.9632 13.3339 9.83331C13.7918 9.3894 13.583 9.13331 13.0423 9.54165C11.6994 10.5555 9.54342 12.0972 8.83058 12.5312C8.20175 12.9139 7.87392 12.9792 7.48192 12.9139C6.76675 12.7949 6.1035 12.6106 5.56217 12.386C4.83067 12.0826 4.86625 11.077 5.56158 10.7841L15.5366 6.58415Z" fill="white"/>
</g>
<defs>
<clipPath id="clip0_31373_10886">
<rect width="14" height="14" fill="white" transform="translate(4 4)"/>
</clipPath>
</defs>
</svg>
