<svg width="55" height="53" viewBox="0 0 55 53" fill="none" xmlns="http://www.w3.org/2000/svg">
    <mask id="path-1-inside-1_28277_8676" fill="white">
        <path fill-rule="evenodd" clip-rule="evenodd" d="M48.2765 0.20459H0.204834V52.2746H48.2765V47.445H50.6151C52.5525 47.4449 54.1231 45.8868 54.1231 43.9648V34.6847C54.1231 32.7627 52.5525 31.2046 50.6151 31.2046H48.2765V22.445H50.6151C52.5525 22.4449 54.1231 20.8868 54.1231 18.9648V9.68466C54.1231 7.76268 52.5525 6.20459 50.6151 6.20459H48.2765V0.20459Z"/>
    </mask>
    <path fill-rule="evenodd" clip-rule="evenodd" d="M48.2765 0.20459H0.204834V52.2746H48.2765V47.445H50.6151C52.5525 47.4449 54.1231 45.8868 54.1231 43.9648V34.6847C54.1231 32.7627 52.5525 31.2046 50.6151 31.2046H48.2765V22.445H50.6151C52.5525 22.4449 54.1231 20.8868 54.1231 18.9648V9.68466C54.1231 7.76268 52.5525 6.20459 50.6151 6.20459H48.2765V0.20459Z" fill="url(#paint0_linear_28277_8676)" fill-opacity="0.2"/>
    <path d="M0.204834 0.20459V-0.79541H-0.795166V0.20459H0.204834ZM48.2765 0.20459H49.2765V-0.79541H48.2765V0.20459ZM0.204834 52.2746H-0.795166V53.2746H0.204834V52.2746ZM48.2765 52.2746V53.2746H49.2765V52.2746H48.2765ZM48.2765 47.445V46.445H47.2765V47.445H48.2765ZM50.6151 47.445V48.445H50.6152L50.6151 47.445ZM48.2765 31.2046H47.2765V32.2046H48.2765V31.2046ZM48.2765 22.445V21.445H47.2765V22.445H48.2765ZM50.6151 22.445V23.445H50.6152L50.6151 22.445ZM48.2765 6.20459H47.2765V7.20459H48.2765V6.20459ZM0.204834 1.20459H48.2765V-0.79541H0.204834V1.20459ZM1.20483 52.2746V0.20459H-0.795166V52.2746H1.20483ZM48.2765 51.2746H0.204834V53.2746H48.2765V51.2746ZM47.2765 47.445V52.2746H49.2765V47.445H47.2765ZM50.6151 46.445H48.2765V48.445H50.6151V46.445ZM53.1231 43.9648C53.1231 45.327 52.0077 46.4449 50.6151 46.445L50.6152 48.445C53.0973 48.4449 55.1231 46.4466 55.1231 43.9648H53.1231ZM53.1231 34.6847V43.9648H55.1231V34.6847H53.1231ZM50.6151 32.2046C52.0077 32.2046 53.1231 33.3225 53.1231 34.6847H55.1231C55.1231 32.2029 53.0973 30.2046 50.6151 30.2046V32.2046ZM48.2765 32.2046H50.6151V30.2046H48.2765V32.2046ZM47.2765 22.445V31.2046H49.2765V22.445H47.2765ZM50.6151 21.445H48.2765V23.445H50.6151V21.445ZM53.1231 18.9648C53.1231 20.327 52.0077 21.4449 50.6151 21.445L50.6152 23.445C53.0973 23.4449 55.1231 21.4466 55.1231 18.9648H53.1231ZM53.1231 9.68466V18.9648H55.1231V9.68466H53.1231ZM50.6151 7.20459C52.0077 7.20459 53.1231 8.32247 53.1231 9.68466H55.1231C55.1231 7.2029 53.0973 5.20459 50.6151 5.20459V7.20459ZM48.2765 7.20459H50.6151V5.20459H48.2765V7.20459ZM47.2765 0.20459V6.20459H49.2765V0.20459H47.2765Z" fill="url(#paint1_linear_28277_8676)" fill-opacity="0.7" mask="url(#path-1-inside-1_28277_8676)"/>
    <path fill-rule="evenodd" clip-rule="evenodd" d="M29.3055 26.0752C30.208 25.6121 30.778 24.8046 30.6473 23.4508C30.4692 21.5983 28.878 20.9808 26.8592 20.8027V18.3921H25.3036V20.7671H24.0567V18.3921H22.5011V20.7671C22.1567 20.7671 21.8361 20.779 21.5036 20.779H19.5798V22.4771C19.5798 22.4771 20.4942 22.4533 20.4705 22.4771C21.0998 22.4771 21.3136 22.8452 21.373 23.1658V26.0871V30.1721C21.3492 30.374 21.2305 30.6946 20.7911 30.6946C20.8148 30.7065 19.9005 30.6946 19.9005 30.6946L19.5917 32.6302H22.4892V35.0052H24.0448V32.6302H25.2917V35.0052H26.8473V32.5708C29.4717 32.4165 31.3005 31.7633 31.538 29.2933C31.728 27.3102 30.7898 26.4196 29.3055 26.0633V26.0752ZM24.0805 22.584H24.4011C25.4936 22.5602 27.7261 22.5008 27.7261 24.1515C27.7261 25.7665 25.3986 25.7308 24.3298 25.7071H24.0686V22.5958L24.0805 22.584ZM28.4505 28.9846C28.4505 30.7658 25.6598 30.7183 24.3773 30.7065H24.0686V27.2746H24.4486C25.7548 27.239 28.4386 27.1796 28.4386 28.9965L28.4505 28.9846Z" fill="url(#paint2_linear_28277_8676)"/>
    <defs>
        <linearGradient id="paint0_linear_28277_8676" x1="0.204834" y1="24.2404" x2="54.123" y2="24.2404" gradientUnits="userSpaceOnUse">
            <stop stop-color="#FF8008"/>
            <stop offset="1" stop-color="#FFC837"/>
        </linearGradient>
        <linearGradient id="paint1_linear_28277_8676" x1="0.204834" y1="24.2404" x2="54.123" y2="24.2404" gradientUnits="userSpaceOnUse">
            <stop stop-color="#FF8008"/>
            <stop offset="1" stop-color="#FFC837"/>
        </linearGradient>
        <linearGradient id="paint2_linear_28277_8676" x1="19.5798" y1="26.6987" x2="31.5623" y2="26.6987" gradientUnits="userSpaceOnUse">
            <stop stop-color="#FFE259"/>
            <stop offset="1" stop-color="#FFA751"/>
        </linearGradient>
    </defs>
</svg>
