<svg width="44" height="44" viewBox="0 0 44 44" fill="none" xmlns="http://www.w3.org/2000/svg">
<rect width="44" height="44" fill="url(#paint0_linear_28962_17187)" fill-opacity="0.2"/>
<rect x="0.5" y="0.5" width="43" height="43" stroke="url(#paint1_linear_28962_17187)" stroke-opacity="0.7"/>
<path d="M20 22C20 23.0609 19.5786 24.0783 18.8284 24.8284C18.0783 25.5786 17.0609 26 16 26C14.9391 26 13.9217 25.5786 13.1716 24.8284C12.4214 24.0783 12 23.0609 12 22C12 20.9391 12.4214 19.9217 13.1716 19.1716C13.9217 18.4214 14.9391 18 16 18C17.0609 18 18.0783 18.4214 18.8284 19.1716C19.5786 19.9217 20 20.9391 20 22ZM20 22H32V25M28 22V25" stroke="url(#paint2_linear_28962_17187)" stroke-width="1.5" stroke-linecap="round" stroke-linejoin="round"/>
<defs>
<linearGradient id="paint0_linear_28962_17187" x1="0" y1="20.3107" x2="43.9999" y2="20.3107" gradientUnits="userSpaceOnUse">
<stop stop-color="#FF8008"/>
<stop offset="1" stop-color="#FFC837"/>
</linearGradient>
<linearGradient id="paint1_linear_28962_17187" x1="0" y1="20.3107" x2="43.9999" y2="20.3107" gradientUnits="userSpaceOnUse">
<stop stop-color="#FF8008"/>
<stop offset="1" stop-color="#FFC837"/>
</linearGradient>
<linearGradient id="paint2_linear_28962_17187" x1="12" y1="22" x2="32" y2="22" gradientUnits="userSpaceOnUse">
<stop stop-color="#FFE259"/>
<stop offset="1" stop-color="#FFA751"/>
</linearGradient>
</defs>
</svg>
