<svg width="55" height="49" viewBox="0 0 55 49" fill="none" xmlns="http://www.w3.org/2000/svg">
    <mask id="path-1-inside-1_28257_8052" fill="white">
        <path fill-rule="evenodd" clip-rule="evenodd" d="M49.0717 0H1V48.0717H49.0717V32.0356H51.1151C53.0524 32.0355 54.623 30.4774 54.623 28.5555V19.2753C54.623 17.3533 53.0524 15.7952 51.1151 15.7952H49.0717V0Z"/>
    </mask>
    <path fill-rule="evenodd" clip-rule="evenodd" d="M49.0717 0H1V48.0717H49.0717V32.0356H51.1151C53.0524 32.0355 54.623 30.4774 54.623 28.5555V19.2753C54.623 17.3533 53.0524 15.7952 51.1151 15.7952H49.0717V0Z" fill="url(#paint0_linear_28257_8052)" fill-opacity="0.2"/>
    <path d="M1 0V-1H0V0H1ZM49.0717 0H50.0717V-1H49.0717V0ZM1 48.0717H0V49.0717H1V48.0717ZM49.0717 48.0717V49.0717H50.0717V48.0717H49.0717ZM49.0717 32.0356V31.0356H48.0717V32.0356H49.0717ZM51.1151 32.0356V33.0356H51.1151L51.1151 32.0356ZM49.0717 15.7952H48.0717V16.7952H49.0717V15.7952ZM1 1H49.0717V-1H1V1ZM2 48.0717V0H0V48.0717H2ZM49.0717 47.0717H1V49.0717H49.0717V47.0717ZM48.0717 32.0356V48.0717H50.0717V32.0356H48.0717ZM49.0717 33.0356H51.1151V31.0356H49.0717V33.0356ZM51.1151 33.0356C53.5972 33.0355 55.623 31.0372 55.623 28.5555H53.623C53.623 29.9177 52.5077 31.0356 51.115 31.0356L51.1151 33.0356ZM55.623 28.5555V19.2753H53.623V28.5555H55.623ZM55.623 19.2753C55.623 16.7935 53.5972 14.7952 51.1151 14.7952V16.7952C52.5077 16.7952 53.623 17.9131 53.623 19.2753H55.623ZM51.1151 14.7952H49.0717V16.7952H51.1151V14.7952ZM48.0717 0V15.7952H50.0717V0H48.0717Z" fill="url(#paint1_linear_28257_8052)" fill-opacity="0.7" mask="url(#path-1-inside-1_28257_8052)"/>
    <path fill-rule="evenodd" clip-rule="evenodd" d="M29.1006 23.8706C30.0031 23.4075 30.5731 22.6 30.4425 21.2463C30.2644 19.3938 28.6731 18.7762 26.6544 18.5981V16.1875H25.0988V18.5625H23.8519V16.1875H22.2963V18.5625C21.9519 18.5625 21.6312 18.5744 21.2987 18.5744H19.375V20.2725C19.375 20.2725 20.2894 20.2488 20.2656 20.2725C20.895 20.2725 21.1087 20.6406 21.1681 20.9612V23.8825V27.9675C21.1444 28.1694 21.0256 28.49 20.5862 28.49C20.61 28.5019 19.6956 28.49 19.6956 28.49L19.3869 30.4256H22.2844V32.8006H23.84V30.4256H25.0869V32.8006H26.6425V30.3662C29.2669 30.2119 31.0956 29.5588 31.3331 27.0888C31.5231 25.1056 30.585 24.215 29.1006 23.8588V23.8706ZM23.8756 20.3794H24.1962C25.2887 20.3556 27.5212 20.2962 27.5212 21.9469C27.5212 23.5619 25.1937 23.5262 24.125 23.5025H23.8638V20.3912L23.8756 20.3794ZM28.2456 26.78C28.2456 28.5613 25.455 28.5137 24.1725 28.5019H23.8638V25.07H24.2437C25.55 25.0344 28.2338 24.975 28.2338 26.7919L28.2456 26.78Z" fill="url(#paint2_linear_28257_8052)"/>
    <defs>
        <linearGradient id="paint0_linear_28257_8052" x1="1" y1="24.0358" x2="54.623" y2="24.0358" gradientUnits="userSpaceOnUse">
            <stop stop-color="#FF8008"/>
            <stop offset="1" stop-color="#FFC837"/>
        </linearGradient>
        <linearGradient id="paint1_linear_28257_8052" x1="1" y1="24.0358" x2="54.623" y2="24.0358" gradientUnits="userSpaceOnUse">
            <stop stop-color="#FF8008"/>
            <stop offset="1" stop-color="#FFC837"/>
        </linearGradient>
        <linearGradient id="paint2_linear_28257_8052" x1="19.375" y1="24.4941" x2="31.3575" y2="24.4941" gradientUnits="userSpaceOnUse">
            <stop stop-color="#FFE259"/>
            <stop offset="1" stop-color="#FFA751"/>
        </linearGradient>
    </defs>
</svg>
