<svg width="55" height="49" viewBox="0 0 55 49" fill="none" xmlns="http://www.w3.org/2000/svg">
    <mask id="path-1-inside-1_27930_13583" fill="white">
        <path fill-rule="evenodd" clip-rule="evenodd" d="M49.0716 0.20459H0.999969V48.2762H49.0716V32.0356H51.115C53.0524 32.0355 54.623 30.4774 54.623 28.5555V19.2753C54.623 17.3533 53.0524 15.7952 51.115 15.7952H49.0716V0.20459Z"/>
    </mask>
    <path fill-rule="evenodd" clip-rule="evenodd" d="M49.0716 0.20459H0.999969V48.2762H49.0716V32.0356H51.115C53.0524 32.0355 54.623 30.4774 54.623 28.5555V19.2753C54.623 17.3533 53.0524 15.7952 51.115 15.7952H49.0716V0.20459Z" fill="url(#paint0_linear_27930_13583)" fill-opacity="0.2"/>
    <path d="M0.999969 0.20459V-0.79541H-3.05176e-05V0.20459H0.999969ZM49.0716 0.20459H50.0716V-0.79541H49.0716V0.20459ZM0.999969 48.2762H-3.05176e-05V49.2762H0.999969V48.2762ZM49.0716 48.2762V49.2762H50.0716V48.2762H49.0716ZM49.0716 32.0356V31.0356H48.0716V32.0356H49.0716ZM51.115 32.0356V33.0356L51.1151 33.0356L51.115 32.0356ZM49.0716 15.7952H48.0716V16.7952H49.0716V15.7952ZM0.999969 1.20459H49.0716V-0.79541H0.999969V1.20459ZM1.99997 48.2762V0.20459H-3.05176e-05V48.2762H1.99997ZM49.0716 47.2762H0.999969V49.2762H49.0716V47.2762ZM48.0716 32.0356V48.2762H50.0716V32.0356H48.0716ZM49.0716 33.0356H51.115V31.0356H49.0716V33.0356ZM51.1151 33.0356C53.5972 33.0355 55.623 31.0372 55.623 28.5555H53.623C53.623 29.9177 52.5076 31.0356 51.115 31.0356L51.1151 33.0356ZM55.623 28.5555V19.2753H53.623V28.5555H55.623ZM55.623 19.2753C55.623 16.7935 53.5972 14.7952 51.115 14.7952V16.7952C52.5076 16.7952 53.623 17.9131 53.623 19.2753H55.623ZM51.115 14.7952H49.0716V16.7952H51.115V14.7952ZM48.0716 0.20459V15.7952H50.0716V0.20459H48.0716Z" fill="url(#paint1_linear_27930_13583)" fill-opacity="0.7" mask="url(#path-1-inside-1_27930_13583)"/>
    <path d="M24.5752 14.5747C24.6309 14.5188 24.6971 14.4745 24.77 14.4443C24.8429 14.414 24.921 14.3984 25 14.3984C25.0789 14.3984 25.157 14.414 25.2299 14.4443C25.3028 14.4745 25.369 14.5188 25.4248 14.5747L27.8248 16.9747C27.9374 17.0874 28.0007 17.2402 28.0007 17.3995C28.0007 17.5588 27.9374 17.7116 27.8248 17.8243C27.7121 17.937 27.5593 18.0003 27.4 18.0003C27.2406 18.0003 27.0878 17.937 26.9752 17.8243L25.6 16.4479V19.7995C25.6 19.9586 25.5368 20.1113 25.4242 20.2238C25.3117 20.3363 25.1591 20.3995 25 20.3995C24.8408 20.3995 24.6882 20.3363 24.5757 20.2238C24.4632 20.1113 24.4 19.9586 24.4 19.7995V16.4479L23.0248 17.8243C22.969 17.8801 22.9028 17.9243 22.8299 17.9545C22.757 17.9847 22.6789 18.0003 22.6 18.0003C22.5211 18.0003 22.443 17.9847 22.3701 17.9545C22.2972 17.9243 22.231 17.8801 22.1752 17.8243C22.1194 17.7685 22.0751 17.7023 22.0449 17.6294C22.0147 17.5565 21.9992 17.4784 21.9992 17.3995C21.9992 17.3206 22.0147 17.2425 22.0449 17.1696C22.0751 17.0967 22.1194 17.0305 22.1752 16.9747L24.5752 14.5747ZM25 26.3995C25.6365 26.3995 26.2469 26.1467 26.697 25.6966C27.1471 25.2465 27.4 24.636 27.4 23.9995C27.4 23.363 27.1471 22.7525 26.697 22.3025C26.2469 21.8524 25.6365 21.5995 25 21.5995C24.3634 21.5995 23.753 21.8524 23.3029 22.3025C22.8528 22.7525 22.6 23.363 22.6 23.9995C22.6 24.636 22.8528 25.2465 23.3029 25.6966C23.753 26.1467 24.3634 26.3995 25 26.3995ZM25 25.1995C24.6817 25.1995 24.3765 25.0731 24.1514 24.848C23.9264 24.623 23.8 24.3178 23.8 23.9995C23.8 23.6812 23.9264 23.376 24.1514 23.151C24.3765 22.9259 24.6817 22.7995 25 22.7995C25.3182 22.7995 25.6235 22.9259 25.8485 23.151C26.0735 23.376 26.2 23.6812 26.2 23.9995C26.2 24.3178 26.0735 24.623 25.8485 24.848C25.6235 25.0731 25.3182 25.1995 25 25.1995ZM32.0248 26.8243L34.4248 24.4243C34.4806 24.3686 34.525 24.3024 34.5552 24.2295C34.5855 24.1566 34.601 24.0784 34.601 23.9995C34.601 23.9206 34.5855 23.8424 34.5552 23.7695C34.525 23.6967 34.4806 23.6304 34.4248 23.5747L32.0248 21.1747C31.9121 21.062 31.7593 20.9988 31.6 20.9988C31.4406 20.9988 31.2878 21.062 31.1752 21.1747C31.0625 21.2874 30.9992 21.4402 30.9992 21.5995C30.9992 21.7588 31.0625 21.9116 31.1752 22.0243L32.5516 23.3995H29.2C29.0408 23.3995 28.8882 23.4627 28.7757 23.5752C28.6632 23.6878 28.6 23.8404 28.6 23.9995C28.6 24.1586 28.6632 24.3113 28.7757 24.4238C28.8882 24.5363 29.0408 24.5995 29.2 24.5995H32.5516L31.1752 25.9747C31.0625 26.0874 30.9992 26.2402 30.9992 26.3995C30.9992 26.5588 31.0625 26.7116 31.1752 26.8243C31.2878 26.937 31.4406 27.0003 31.6 27.0003C31.7593 27.0003 31.9121 26.937 32.0248 26.8243ZM25.4248 33.4243L27.8248 31.0243C27.9374 30.9116 28.0007 30.7588 28.0007 30.5995C28.0007 30.4402 27.9374 30.2874 27.8248 30.1747C27.7121 30.062 27.5593 29.9988 27.4 29.9988C27.2406 29.9988 27.0878 30.062 26.9752 30.1747L25.6 31.5511V28.1995C25.6 28.0404 25.5368 27.8878 25.4242 27.7752C25.3117 27.6627 25.1591 27.5995 25 27.5995C24.8408 27.5995 24.6882 27.6627 24.5757 27.7752C24.4632 27.8878 24.4 28.0404 24.4 28.1995V31.5511L23.0248 30.1747C22.9121 30.062 22.7593 29.9988 22.6 29.9988C22.4406 29.9988 22.2878 30.062 22.1752 30.1747C22.0625 30.2874 21.9992 30.4402 21.9992 30.5995C21.9992 30.7588 22.0625 30.9116 22.1752 31.0243L24.5752 33.4243C24.6309 33.4802 24.6971 33.5245 24.77 33.5548C24.8429 33.585 24.921 33.6006 25 33.6006C25.0789 33.6006 25.157 33.585 25.2299 33.5548C25.3028 33.5245 25.369 33.4802 25.4248 33.4243ZM15.5752 24.4243C15.5193 24.3686 15.475 24.3024 15.4447 24.2295C15.4145 24.1566 15.3989 24.0784 15.3989 23.9995C15.3989 23.9206 15.4145 23.8424 15.4447 23.7695C15.475 23.6967 15.5193 23.6304 15.5752 23.5747L17.9752 21.1747C18.031 21.1189 18.0972 21.0747 18.1701 21.0445C18.243 21.0143 18.3211 20.9988 18.4 20.9988C18.4789 20.9988 18.557 21.0143 18.6299 21.0445C18.7028 21.0747 18.769 21.1189 18.8248 21.1747C18.8806 21.2305 18.9248 21.2967 18.955 21.3696C18.9852 21.4425 19.0007 21.5206 19.0007 21.5995C19.0007 21.6784 18.9852 21.7565 18.955 21.8294C18.9248 21.9023 18.8806 21.9685 18.8248 22.0243L17.4484 23.3995H20.8C20.9591 23.3995 21.1117 23.4627 21.2242 23.5752C21.3368 23.6878 21.4 23.8404 21.4 23.9995C21.4 24.1586 21.3368 24.3113 21.2242 24.4238C21.1117 24.5363 20.9591 24.5995 20.8 24.5995H17.4484L18.8248 25.9747C18.9374 26.0874 19.0007 26.2402 19.0007 26.3995C19.0007 26.5588 18.9374 26.7116 18.8248 26.8243C18.7121 26.937 18.5593 27.0003 18.4 27.0003C18.2406 27.0003 18.0878 26.937 17.9752 26.8243L15.5752 24.4243Z" fill="url(#paint2_linear_27930_13583)"/>
    <defs>
        <linearGradient id="paint0_linear_27930_13583" x1="0.999969" y1="24.2404" x2="54.623" y2="24.2404" gradientUnits="userSpaceOnUse">
            <stop stop-color="#00F5A0"/>
            <stop offset="1" stop-color="#00D9F5"/>
        </linearGradient>
        <linearGradient id="paint1_linear_27930_13583" x1="0.999969" y1="24.2404" x2="54.623" y2="24.2404" gradientUnits="userSpaceOnUse">
            <stop stop-color="#00F5A0"/>
            <stop offset="1" stop-color="#00D9F5"/>
        </linearGradient>
        <linearGradient id="paint2_linear_27930_13583" x1="15.3989" y1="23.9995" x2="34.601" y2="23.9995" gradientUnits="userSpaceOnUse">
            <stop stop-color="#00F5A0"/>
            <stop offset="1" stop-color="#00D9F5"/>
        </linearGradient>
    </defs>
</svg>
