

<svg width="69" height="60" viewBox="0 0 69 60" fill="none" xmlns="http://www.w3.org/2000/svg">
<path fill-rule="evenodd" clip-rule="evenodd" d="M60.8513 0H0.851349V60H60.8513V39.7296H63.7703C66.1884 39.7295 68.1486 37.7848 68.1486 35.3859V23.803C68.1486 21.4041 66.1884 19.4593 63.7703 19.4593H60.8513V0Z" fill="white" fill-opacity="0.15"/>
<path d="M30.4265 20.5752C30.4823 20.5193 30.5485 20.475 30.6214 20.4447C30.6943 20.4145 30.7724 20.3989 30.8513 20.3989C30.9303 20.3989 31.0084 20.4145 31.0813 20.4447C31.1542 20.475 31.2204 20.5193 31.2761 20.5752L33.6761 22.9752C33.7888 23.0879 33.8521 23.2407 33.8521 23.4C33.8521 23.5593 33.7888 23.7121 33.6761 23.8248C33.5635 23.9375 33.4107 24.0008 33.2513 24.0008C33.092 24.0008 32.9392 23.9375 32.8265 23.8248L31.4513 22.4484V25.8C31.4513 25.9591 31.3881 26.1117 31.2756 26.2243C31.1631 26.3368 31.0105 26.4 30.8513 26.4C30.6922 26.4 30.5396 26.3368 30.4271 26.2243C30.3146 26.1117 30.2513 25.9591 30.2513 25.8V22.4484L28.8761 23.8248C28.8204 23.8806 28.7541 23.9248 28.6812 23.955C28.6084 23.9852 28.5302 24.0008 28.4513 24.0008C28.3725 24.0008 28.2943 23.9852 28.2214 23.955C28.1486 23.9248 28.0823 23.8806 28.0265 23.8248C27.9708 23.769 27.9265 23.7028 27.8963 23.6299C27.8661 23.557 27.8506 23.4789 27.8506 23.4C27.8506 23.3211 27.8661 23.243 27.8963 23.1701C27.9265 23.0972 27.9708 23.031 28.0265 22.9752L30.4265 20.5752ZM30.8513 32.4C31.4879 32.4 32.0983 32.1471 32.5484 31.6971C32.9985 31.247 33.2513 30.6365 33.2513 30C33.2513 29.3635 32.9985 28.753 32.5484 28.3029C32.0983 27.8529 31.4879 27.6 30.8513 27.6C30.2148 27.6 29.6044 27.8529 29.1543 28.3029C28.7042 28.753 28.4513 29.3635 28.4513 30C28.4513 30.6365 28.7042 31.247 29.1543 31.6971C29.6044 32.1471 30.2148 32.4 30.8513 32.4ZM30.8513 31.2C30.5331 31.2 30.2279 31.0736 30.0028 30.8485C29.7778 30.6235 29.6513 30.3183 29.6513 30C29.6513 29.6817 29.7778 29.3765 30.0028 29.1515C30.2279 28.9264 30.5331 28.8 30.8513 28.8C31.1696 28.8 31.4748 28.9264 31.6999 29.1515C31.9249 29.3765 32.0513 29.6817 32.0513 30C32.0513 30.3183 31.9249 30.6235 31.6999 30.8485C31.4748 31.0736 31.1696 31.2 30.8513 31.2ZM37.8761 32.8248L40.2761 30.4248C40.332 30.3691 40.3764 30.3029 40.4066 30.23C40.4369 30.1571 40.4524 30.0789 40.4524 30C40.4524 29.9211 40.4369 29.8429 40.4066 29.77C40.3764 29.6971 40.332 29.6309 40.2761 29.5752L37.8761 27.1752C37.7635 27.0625 37.6107 26.9992 37.4513 26.9992C37.292 26.9992 37.1392 27.0625 37.0265 27.1752C36.9139 27.2879 36.8506 27.4407 36.8506 27.6C36.8506 27.7593 36.9139 27.9121 37.0265 28.0248L38.4029 29.4H35.0513C34.8922 29.4 34.7396 29.4632 34.6271 29.5757C34.5146 29.6883 34.4513 29.8409 34.4513 30C34.4513 30.1591 34.5146 30.3117 34.6271 30.4243C34.7396 30.5368 34.8922 30.6 35.0513 30.6H38.4029L37.0265 31.9752C36.9139 32.0879 36.8506 32.2407 36.8506 32.4C36.8506 32.5593 36.9139 32.7121 37.0265 32.8248C37.1392 32.9375 37.292 33.0008 37.4513 33.0008C37.6107 33.0008 37.7635 32.9375 37.8761 32.8248ZM31.2761 39.4248L33.6761 37.0248C33.7888 36.9121 33.8521 36.7593 33.8521 36.6C33.8521 36.4407 33.7888 36.2879 33.6761 36.1752C33.5635 36.0625 33.4107 35.9992 33.2513 35.9992C33.092 35.9992 32.9392 36.0625 32.8265 36.1752L31.4513 37.5516V34.2C31.4513 34.0409 31.3881 33.8883 31.2756 33.7757C31.1631 33.6632 31.0105 33.6 30.8513 33.6C30.6922 33.6 30.5396 33.6632 30.4271 33.7757C30.3146 33.8883 30.2513 34.0409 30.2513 34.2V37.5516L28.8761 36.1752C28.7635 36.0625 28.6107 35.9992 28.4513 35.9992C28.292 35.9992 28.1392 36.0625 28.0265 36.1752C27.9139 36.2879 27.8506 36.4407 27.8506 36.6C27.8506 36.7593 27.9139 36.9121 28.0265 37.0248L30.4265 39.4248C30.4823 39.4807 30.5485 39.525 30.6214 39.5553C30.6943 39.5855 30.7724 39.6011 30.8513 39.6011C30.9303 39.6011 31.0084 39.5855 31.0813 39.5553C31.1542 39.525 31.2204 39.4807 31.2761 39.4248ZM21.4265 30.4248C21.3707 30.3691 21.3263 30.3029 21.2961 30.23C21.2658 30.1571 21.2503 30.0789 21.2503 30C21.2503 29.9211 21.2658 29.8429 21.2961 29.77C21.3263 29.6971 21.3707 29.6309 21.4265 29.5752L23.8265 27.1752C23.8823 27.1194 23.9486 27.0752 24.0214 27.045C24.0943 27.0148 24.1725 26.9992 24.2513 26.9992C24.3302 26.9992 24.4084 27.0148 24.4812 27.045C24.5541 27.0752 24.6204 27.1194 24.6761 27.1752C24.7319 27.231 24.7762 27.2972 24.8064 27.3701C24.8366 27.443 24.8521 27.5211 24.8521 27.6C24.8521 27.6789 24.8366 27.757 24.8064 27.8299C24.7762 27.9028 24.7319 27.969 24.6761 28.0248L23.2997 29.4H26.6513C26.8105 29.4 26.9631 29.4632 27.0756 29.5757C27.1881 29.6883 27.2513 29.8409 27.2513 30C27.2513 30.1591 27.1881 30.3117 27.0756 30.4243C26.9631 30.5368 26.8105 30.6 26.6513 30.6H23.2997L24.6761 31.9752C24.7888 32.0879 24.8521 32.2407 24.8521 32.4C24.8521 32.5593 24.7888 32.7121 24.6761 32.8248C24.5635 32.9375 24.4107 33.0008 24.2513 33.0008C24.092 33.0008 23.9392 32.9375 23.8265 32.8248L21.4265 30.4248Z" fill="white"/>
</svg>
