<svg width="67" height="37" viewBox="0 0 67 37" fill="none" xmlns="http://www.w3.org/2000/svg">
<path d="M17.0394 0.652832H9.46824C7.9002 0.652832 6.62903 1.924 6.62903 3.49204V9.17046C6.62903 9.69314 7.05278 10.1169 7.57546 10.1169H18.9323C19.455 10.1169 19.8787 9.69314 19.8787 9.17046V3.49204C19.8786 1.924 18.6075 0.652832 17.0394 0.652832Z" fill="#10D7A7"/>
<path d="M37.8052 0.652832H30.234C28.666 0.652832 27.3948 1.924 27.3948 3.49204V9.17046C27.3948 9.69314 27.8186 10.1169 28.3413 10.1169H39.6981C40.2208 10.1169 40.6445 9.69314 40.6445 9.17046V3.49204C40.6445 1.924 39.3733 0.652832 37.8052 0.652832Z" fill="#10D7A7"/>
<path d="M58.3881 0.652832H50.8169C49.2488 0.652832 47.9777 1.924 47.9777 3.49204V9.17046C47.9777 9.69314 48.4014 10.1169 48.9241 10.1169H60.2809C60.8036 10.1169 61.2274 9.69314 61.2274 9.17046V3.49204C61.2273 1.924 59.9561 0.652832 58.3881 0.652832Z" fill="#10D7A7"/>
<path fill-rule="evenodd" clip-rule="evenodd" d="M3.78977 7.52832H64.1647C65.7328 7.52832 67.0039 8.79949 67.004 10.3675V35.4047C67.004 35.9274 66.5803 36.3512 66.0576 36.3512H54.3104V34.4307C54.3103 32.8627 53.0392 31.5915 51.4711 31.5915H43.8999C42.3319 31.5915 41.0607 32.8627 41.0607 34.4307V36.3512H26.2803V34.4305C26.2803 32.8625 25.0091 31.5913 23.441 31.5913H15.8698C14.3018 31.5913 13.0306 32.8625 13.0306 34.4305V36.3512H1.89699C1.37431 36.3512 0.950562 35.9274 0.950562 35.4047V10.3675C0.950562 8.79949 2.22173 7.52832 3.78977 7.52832Z" fill="#00EC97"/>
<path d="M42.4284 12C41.5889 12 40.8095 12.3072 40.3698 12.8123L35.6319 17.7778C35.4775 17.9414 35.5401 18.162 35.772 18.271C35.9599 18.3594 36.2085 18.3485 36.3796 18.2446L41.0433 15.3892C41.1208 15.3399 41.2402 15.345 41.31 15.3997C41.3416 15.4247 41.3584 15.4571 41.3584 15.4904V24.4303C41.3584 24.5042 41.2738 24.5634 41.1692 24.5634C41.113 24.5634 41.0601 24.5461 41.0245 24.5156L26.9271 12.6035C26.4679 12.2211 25.7938 12.0005 25.0841 12H24.5914C23.2579 12 22.1769 12.7631 22.1769 13.7044V26.2956C22.1769 27.2369 23.2579 28 24.5914 28C25.4308 28 26.2103 27.6928 26.65 27.1877L31.388 22.2222C31.5423 22.0586 31.4796 21.838 31.2478 21.729C31.0599 21.6406 30.8113 21.6515 30.6402 21.7554L25.9765 24.6108C25.899 24.6601 25.7796 24.655 25.7098 24.6003C25.6782 24.5753 25.6614 24.5429 25.662 24.5096V15.5674C25.662 15.4936 25.7466 15.4343 25.8512 15.4343C25.9068 15.4343 25.9604 15.4516 25.9959 15.4822L40.0915 27.3965C40.5505 27.7789 41.2247 27.9996 41.9344 28H42.4271C43.7606 28.0005 44.8423 27.2378 44.8435 26.2966V13.7044C44.8435 12.7631 43.7619 12 42.4284 12Z" fill="black"/>
</svg>
