<svg width="56" height="44" viewBox="0 0 56 44" fill="none" xmlns="http://www.w3.org/2000/svg">
<path d="M32.3186 0.854858H23.2822C21.4107 0.854858 19.8936 2.37202 19.8936 4.24351V11.0208C19.8936 11.6446 20.3993 12.1504 21.0231 12.1504H34.5777C35.2016 12.1504 35.7073 11.6446 35.7073 11.0208V4.24351C35.7072 2.37202 34.19 0.854858 32.3186 0.854858Z" fill="#3F3F3F"/>
<path fill-rule="evenodd" clip-rule="evenodd" d="M46.0566 9.06061H9.60377C8.16576 9.06061 7 10.5639 7 12.4182V42.0272C7 42.6453 7.38861 43.1464 7.86795 43.1464H19.8936V40.8536C19.8936 38.9821 21.4108 37.465 23.2823 37.465H32.3186C34.1901 37.465 35.7073 38.9821 35.7074 40.8536V43.1464H47.7925C48.2718 43.1464 48.6604 42.6453 48.6604 42.0272V12.4182C48.6603 10.5639 47.4946 9.06061 46.0566 9.06061Z" fill="black"/>
<rect x="19.5" y="14.8478" width="17" height="17" rx="8.5" stroke="white"/>
<circle cx="28.0001" cy="23.3478" r="6.42857" fill="white"/>
</svg>
