<svg width="49" height="49" viewBox="0 0 49 49" fill="none" xmlns="http://www.w3.org/2000/svg">
    <mask id="path-1-inside-1_28257_8094" fill="white">
        <path fill-rule="evenodd" clip-rule="evenodd" d="M48.2953 0.20459H0.223633V14.7001H2.56233C4.49968 14.7001 6.07025 16.5075 6.07025 18.737V29.502C6.07025 31.7315 4.49968 33.5389 2.56233 33.539H0.223633V48.2762H48.2953V0.20459Z"/>
    </mask>
    <path fill-rule="evenodd" clip-rule="evenodd" d="M48.2953 0.20459H0.223633V14.7001H2.56233C4.49968 14.7001 6.07025 16.5075 6.07025 18.737V29.502C6.07025 31.7315 4.49968 33.5389 2.56233 33.539H0.223633V48.2762H48.2953V0.20459Z" fill="white" fill-opacity="0.1"/>
    <path d="M0.223633 0.20459V-0.79541H-0.776367V0.20459H0.223633ZM48.2953 0.20459H49.2953V-0.79541H48.2953V0.20459ZM0.223633 14.7001H-0.776367V15.7001H0.223633V14.7001ZM2.56233 33.539L2.56233 34.539L2.56239 34.539L2.56233 33.539ZM0.223633 33.539V32.539H-0.776367V33.539H0.223633ZM0.223633 48.2762H-0.776367V49.2762H0.223633V48.2762ZM48.2953 48.2762V49.2762H49.2953V48.2762H48.2953ZM0.223633 1.20459H48.2953V-0.79541H0.223633V1.20459ZM1.22363 14.7001V0.20459H-0.776367V14.7001H1.22363ZM2.56233 13.7001H0.223633V15.7001H2.56233V13.7001ZM7.07025 18.737C7.07025 16.0917 5.17923 13.7001 2.56233 13.7001V15.7001C3.82014 15.7001 5.07025 16.9233 5.07025 18.737H7.07025ZM7.07025 29.502V18.737H5.07025V29.502H7.07025ZM2.56239 34.539C5.17923 34.5388 7.07025 32.1473 7.07025 29.502H5.07025C5.07025 31.3157 3.82014 32.5389 2.56226 32.539L2.56239 34.539ZM0.223633 34.539H2.56233V32.539H0.223633V34.539ZM1.22363 48.2762V33.539H-0.776367V48.2762H1.22363ZM48.2953 47.2762H0.223633V49.2762H48.2953V47.2762ZM47.2953 0.20459V48.2762H49.2953V0.20459H47.2953Z" fill="white" fill-opacity="0.15" mask="url(#path-1-inside-1_28257_8094)"/>
    <g opacity="0.8">
        <path d="M26.4734 14.2046V21.5978L32.7222 24.39L26.4734 14.2046Z" fill="white" fill-opacity="0.602"/>
        <path d="M26.4733 14.2046L20.2236 24.39L26.4733 21.5978V14.2046Z" fill="white"/>
        <path d="M26.4734 29.1811V34.2047L32.7264 25.5537L26.4734 29.1811Z" fill="white" fill-opacity="0.602"/>
        <path d="M26.4733 34.2047V29.1803L20.2236 25.5537L26.4733 34.2047Z" fill="white"/>
        <path d="M26.4734 28.018L32.7222 24.3897L26.4734 21.5991V28.018Z" fill="white" fill-opacity="0.2"/>
        <path d="M20.2236 24.3897L26.4733 28.018V21.5991L20.2236 24.3897Z" fill="white" fill-opacity="0.602"/>
    </g>
</svg>
