<svg xmlns="http://www.w3.org/2000/svg" width="49" height="49" viewBox="0 0 49 49" fill="none">
    <mask id="path-1-inside-1_27930_13569" fill="white">
        <path fill-rule="evenodd" clip-rule="evenodd" d="M48.2953 0.205078H0.223602V14.4965H2.56229C4.49965 14.4965 6.07022 16.3039 6.07022 18.5334V29.2984C6.07022 31.5279 4.49965 33.3353 2.56229 33.3354H0.223602V48.2767H48.2953V0.205078Z"/>
    </mask>
    <path fill-rule="evenodd" clip-rule="evenodd" d="M48.2953 0.205078H0.223602V14.4965H2.56229C4.49965 14.4965 6.07022 16.3039 6.07022 18.5334V29.2984C6.07022 31.5279 4.49965 33.3353 2.56229 33.3354H0.223602V48.2767H48.2953V0.205078Z" fill="white" fill-opacity="0.1"/>
    <path d="M0.223602 0.205078V-0.794922H-0.776398V0.205078H0.223602ZM48.2953 0.205078H49.2953V-0.794922H48.2953V0.205078ZM0.223602 14.4965H-0.776398V15.4965H0.223602V14.4965ZM2.56229 33.3354V34.3354H2.56236L2.56229 33.3354ZM0.223602 33.3354V32.3354H-0.776398V33.3354H0.223602ZM0.223602 48.2767H-0.776398V49.2767H0.223602V48.2767ZM48.2953 48.2767V49.2767H49.2953V48.2767H48.2953ZM0.223602 1.20508H48.2953V-0.794922H0.223602V1.20508ZM1.2236 14.4965V0.205078H-0.776398V14.4965H1.2236ZM2.56229 13.4965H0.223602V15.4965H2.56229V13.4965ZM7.07022 18.5334C7.07022 15.8881 5.1792 13.4965 2.56229 13.4965V15.4965C3.82011 15.4965 5.07022 16.7197 5.07022 18.5334H7.07022ZM7.07022 29.2984V18.5334H5.07022V29.2984H7.07022ZM2.56236 34.3354C5.1792 34.3352 7.07022 31.9437 7.07022 29.2984H5.07022C5.07022 31.1121 3.82011 32.3353 2.56223 32.3354L2.56236 34.3354ZM0.223602 34.3354H2.56229V32.3354H0.223602V34.3354ZM1.2236 48.2767V33.3354H-0.776398V48.2767H1.2236ZM48.2953 47.2767H0.223602V49.2767H48.2953V47.2767ZM47.2953 0.205078V48.2767H49.2953V0.205078H47.2953Z" fill="white" fill-opacity="0.15" mask="url(#path-1-inside-1_27930_13569)"/>
</svg>
