<svg width="44" height="44" viewBox="0 0 44 44" fill="none" xmlns="http://www.w3.org/2000/svg">
<rect width="44" height="44" fill="white" fill-opacity="0.05"/>
<rect x="0.5" y="0.5" width="43" height="43" stroke="white" stroke-opacity="0.15"/>
<path d="M21.905 18C21.2511 18.005 20.6176 18.2287 20.1057 18.6356C19.5938 19.0426 19.2329 19.6092 19.0805 20.2451C18.9282 20.8811 18.9932 21.5497 19.2652 22.1444C19.5371 22.7391 20.0004 23.2256 20.5811 23.5263V27H23.0102V23.6356C23.6374 23.3786 24.1559 22.912 24.4773 22.3153C24.7987 21.7186 24.9031 21.0289 24.7727 20.3638C24.6422 19.6987 24.285 19.0995 23.7621 18.6684C23.2391 18.2373 22.5827 18.0011 21.905 18Z" fill="black" fill-opacity="0.1"/>
<path d="M21.9062 17.25V17.25L21.8993 17.25C21.0778 17.2562 20.2821 17.5374 19.639 18.0485C18.9959 18.5597 18.5426 19.2715 18.3512 20.0704C18.1598 20.8693 18.2414 21.7092 18.5831 22.4563C18.8588 23.0592 19.2911 23.5736 19.8311 23.9483V27V27.75H20.5811H23.0102H23.7602V27V24.0992C24.3387 23.76 24.8164 23.2671 25.1376 22.671C25.5413 21.9214 25.6725 21.0549 25.5086 20.2194C25.3448 19.384 24.8961 18.6312 24.2391 18.0897C23.5821 17.5482 22.7576 17.2514 21.9062 17.25Z" stroke="white" stroke-opacity="0.2" stroke-width="1.5"/>
</svg>
