
<svg width="61" height="60" viewBox="0 0 61 60" fill="none" xmlns="http://www.w3.org/2000/svg">
<mask id="path-1-inside-1_27930_13569" fill="white">
<path fill-rule="evenodd" clip-rule="evenodd" d="M60.1487 0H0.148651V17.8379H3.06766C5.48575 17.8379 7.44603 20.0938 7.44603 22.8765V36.3127C7.44603 39.0954 5.48575 41.3513 3.06766 41.3515H0.148651V60H60.1487V0Z"/>
</mask>
<path fill-rule="evenodd" clip-rule="evenodd" d="M60.1487 0H0.148651V17.8379H3.06766C5.48575 17.8379 7.44603 20.0938 7.44603 22.8765V36.3127C7.44603 39.0954 5.48575 41.3513 3.06766 41.3515H0.148651V60H60.1487V0Z" fill="#F6F6F6" fill-opacity="0.2"/>
<path d="M0.148651 0V-1H-0.851349V0H0.148651ZM60.1487 0H61.1487V-1H60.1487V0ZM0.148651 17.8379H-0.851349V18.8379H0.148651V17.8379ZM7.44603 36.3127H6.44603H7.44603ZM3.06766 41.3515V42.3515H3.06773L3.06766 41.3515ZM0.148651 41.3515V40.3515H-0.851349V41.3515H0.148651ZM0.148651 60H-0.851349V61H0.148651V60ZM60.1487 60V61H61.1487V60H60.1487ZM0.148651 1H60.1487V-1H0.148651V1ZM1.14865 17.8379V0H-0.851349V17.8379H1.14865ZM3.06766 16.8379H0.148651V18.8379H3.06766V16.8379ZM8.44603 22.8765C8.44603 19.678 6.1653 16.8379 3.06766 16.8379V18.8379C4.80621 18.8379 6.44603 20.5096 6.44603 22.8765H8.44603ZM8.44603 36.3127V22.8765H6.44603V36.3127H8.44603ZM3.06773 42.3515C6.16529 42.3512 8.44603 39.5112 8.44603 36.3127H6.44603C6.44603 38.6796 4.80621 40.3513 3.0676 40.3515L3.06773 42.3515ZM0.148651 42.3515H3.06766V40.3515H0.148651V42.3515ZM1.14865 60V41.3515H-0.851349V60H1.14865ZM60.1487 59H0.148651V61H60.1487V59ZM59.1487 0V60H61.1487V0H59.1487Z" fill="white" fill-opacity="0.2" mask="url(#path-1-inside-1_27930_13569)"/>
</svg>
