<svg width="54" height="53" viewBox="0 0 54 53" fill="none" xmlns="http://www.w3.org/2000/svg">
    <mask id="path-1-inside-1_28277_8684" fill="white">
        <path fill-rule="evenodd" clip-rule="evenodd" d="M0.313965 0.239746H48.314V6.23975H50.4992C52.4365 6.23975 54.0071 7.79784 54.0071 9.71982V19C54.0071 20.922 52.4365 22.4801 50.4992 22.4802H48.314V31.2397H50.4992C52.4365 31.2397 54.0071 32.7978 54.0071 34.7198V44C54.0071 45.922 52.4365 47.4801 50.4992 47.4802H48.314V52.2397H0.313965V48.5786H2.65262C4.58998 48.5785 6.16054 46.7711 6.16054 44.5416V33.7766C6.16054 31.5471 4.58998 29.7397 2.65262 29.7397H0.313965V23.5786H2.65262C4.58998 23.5785 6.16054 21.7711 6.16054 19.5416V8.77663C6.16054 6.54714 4.58998 4.73975 2.65262 4.73975H0.313965V0.239746Z"/>
    </mask>
    <path fill-rule="evenodd" clip-rule="evenodd" d="M0.313965 0.239746H48.314V6.23975H50.4992C52.4365 6.23975 54.0071 7.79784 54.0071 9.71982V19C54.0071 20.922 52.4365 22.4801 50.4992 22.4802H48.314V31.2397H50.4992C52.4365 31.2397 54.0071 32.7978 54.0071 34.7198V44C54.0071 45.922 52.4365 47.4801 50.4992 47.4802H48.314V52.2397H0.313965V48.5786H2.65262C4.58998 48.5785 6.16054 46.7711 6.16054 44.5416V33.7766C6.16054 31.5471 4.58998 29.7397 2.65262 29.7397H0.313965V23.5786H2.65262C4.58998 23.5785 6.16054 21.7711 6.16054 19.5416V8.77663C6.16054 6.54714 4.58998 4.73975 2.65262 4.73975H0.313965V0.239746Z" fill="white" fill-opacity="0.1"/>
    <path d="M48.314 0.239746H49.314V-0.760254H48.314V0.239746ZM0.313965 0.239746V-0.760254H-0.686035V0.239746H0.313965ZM48.314 6.23975H47.314V7.23975H48.314V6.23975ZM50.4992 22.4802V23.4802H50.4992L50.4992 22.4802ZM48.314 22.4802V21.4802H47.314V22.4802H48.314ZM48.314 31.2397H47.314V32.2397H48.314V31.2397ZM50.4992 47.4802V48.4802H50.4992L50.4992 47.4802ZM48.314 47.4802V46.4802H47.314V47.4802H48.314ZM48.314 52.2397V53.2397H49.314V52.2397H48.314ZM0.313965 52.2397H-0.686035V53.2397H0.313965V52.2397ZM0.313965 48.5786V47.5786H-0.686035V48.5786H0.313965ZM2.65262 48.5786V49.5786H2.65269L2.65262 48.5786ZM0.313965 29.7397H-0.686035V30.7397H0.313965V29.7397ZM0.313965 23.5786V22.5786H-0.686035V23.5786H0.313965ZM2.65262 23.5786V24.5786H2.65269L2.65262 23.5786ZM0.313965 4.73975H-0.686035V5.73975H0.313965V4.73975ZM48.314 -0.760254H0.313965V1.23975H48.314V-0.760254ZM49.314 6.23975V0.239746H47.314V6.23975H49.314ZM50.4992 5.23975H48.314V7.23975H50.4992V5.23975ZM55.0071 9.71982C55.0071 7.23806 52.9813 5.23975 50.4992 5.23975V7.23975C51.8918 7.23975 53.0071 8.35762 53.0071 9.71982H55.0071ZM55.0071 19V9.71982H53.0071V19H55.0071ZM50.4992 23.4802C52.9813 23.48 55.0071 21.4818 55.0071 19H53.0071C53.0071 20.3622 51.8918 21.4801 50.4991 21.4802L50.4992 23.4802ZM48.314 23.4802H50.4992V21.4802H48.314V23.4802ZM49.314 31.2397V22.4802H47.314V31.2397H49.314ZM50.4992 30.2397H48.314V32.2397H50.4992V30.2397ZM55.0071 34.7198C55.0071 32.2381 52.9813 30.2397 50.4992 30.2397V32.2397C51.8918 32.2397 53.0071 33.3576 53.0071 34.7198H55.0071ZM55.0071 44V34.7198H53.0071V44H55.0071ZM50.4992 48.4802C52.9813 48.48 55.0071 46.4818 55.0071 44H53.0071C53.0071 45.3622 51.8918 46.4801 50.4991 46.4802L50.4992 48.4802ZM48.314 48.4802H50.4992V46.4802H48.314V48.4802ZM49.314 52.2397V47.4802H47.314V52.2397H49.314ZM0.313965 53.2397H48.314V51.2397H0.313965V53.2397ZM-0.686035 48.5786V52.2397H1.31396V48.5786H-0.686035ZM2.65262 47.5786H0.313965V49.5786H2.65262V47.5786ZM5.16054 44.5416C5.16054 46.3553 3.91044 47.5786 2.65256 47.5786L2.65269 49.5786C5.26952 49.5785 7.16054 47.1869 7.16054 44.5416H5.16054ZM5.16054 33.7766V44.5416H7.16054V33.7766H5.16054ZM2.65262 30.7397C3.91044 30.7397 5.16054 31.9629 5.16054 33.7766H7.16054C7.16054 31.1313 5.26953 28.7397 2.65262 28.7397V30.7397ZM0.313965 30.7397H2.65262V28.7397H0.313965V30.7397ZM-0.686035 23.5786V29.7397H1.31396V23.5786H-0.686035ZM2.65262 22.5786H0.313965V24.5786H2.65262V22.5786ZM5.16054 19.5416C5.16054 21.3553 3.91044 22.5786 2.65256 22.5786L2.65269 24.5786C5.26952 24.5785 7.16054 22.1869 7.16054 19.5416H5.16054ZM5.16054 8.77663V19.5416H7.16054V8.77663H5.16054ZM2.65262 5.73975C3.91044 5.73975 5.16054 6.96293 5.16054 8.77663H7.16054C7.16054 6.13135 5.26953 3.73975 2.65262 3.73975V5.73975ZM0.313965 5.73975H2.65262V3.73975H0.313965V5.73975ZM-0.686035 0.239746V4.73975H1.31396V0.239746H-0.686035Z" fill="white" fill-opacity="0.15" mask="url(#path-1-inside-1_28277_8684)"/>
    <g opacity="0.8">
        <path d="M27.5637 16.2397V23.633L33.8125 26.4252L27.5637 16.2397Z" fill="white" fill-opacity="0.602"/>
        <path d="M27.5636 16.2397L21.314 26.4252L27.5636 23.633V16.2397Z" fill="white"/>
        <path d="M27.5637 31.2163V36.2398L33.8167 27.5889L27.5637 31.2163Z" fill="white" fill-opacity="0.602"/>
        <path d="M27.5636 36.2398V31.2155L21.314 27.5889L27.5636 36.2398Z" fill="white"/>
        <path d="M27.5637 30.0531L33.8125 26.4249L27.5637 23.6343V30.0531Z" fill="white" fill-opacity="0.2"/>
        <path d="M21.314 26.4249L27.5636 30.0531V23.6343L21.314 26.4249Z" fill="white" fill-opacity="0.602"/>
    </g>
</svg>
