<svg xmlns="http://www.w3.org/2000/svg" width="48" height="48" viewBox="0 0 48 48" fill="none">
<g filter="url(#filter0_f_38126_8782)">
<path d="M21.25 15.918L15.25 19.251V29.251L24.25 34.251L33.25 29.251V19.251L27.25 15.918" stroke="#FF7E21" stroke-width="1.5" stroke-linecap="round" stroke-linejoin="round"/>
<path d="M15.25 19.25L24.25 24.25L33.25 19.25" stroke="#FF7E21" stroke-width="1.5" stroke-linecap="round" stroke-linejoin="round"/>
<path d="M24.25 24.25V34.25" stroke="#FF7E21" stroke-width="1.5" stroke-linecap="round" stroke-linejoin="round"/>
<path d="M24.25 16.25C25.9069 16.25 27.25 15.5784 27.25 14.75C27.25 13.9216 25.9069 13.25 24.25 13.25C22.5931 13.25 21.25 13.9216 21.25 14.75C21.25 15.5784 22.5931 16.25 24.25 16.25Z" stroke="#FF7E21" stroke-width="1.5" stroke-linecap="round" stroke-linejoin="round"/>
<path d="M21.25 14.75V18.75C21.25 19.578 22.593 20.25 24.25 20.25C25.907 20.25 27.25 19.578 27.25 18.75V14.75" stroke="#FF7E21" stroke-width="1.5" stroke-linecap="round" stroke-linejoin="round"/>
</g>
<path d="M19.875 11.877L10.875 16.8765V31.8765L24.375 39.3765L37.875 31.8765V16.8765L28.875 11.877" stroke="#FF7E21" stroke-width="2.25" stroke-linecap="round" stroke-linejoin="round"/>
<path d="M10.875 16.875L24.375 24.375L37.875 16.875" stroke="#FF7E21" stroke-width="2.25" stroke-linecap="round" stroke-linejoin="round"/>
<path d="M24.375 24.375V39.375" stroke="#FF7E21" stroke-width="2.25" stroke-linecap="round" stroke-linejoin="round"/>
<path d="M24.375 12.375C26.8603 12.375 28.875 11.3676 28.875 10.125C28.875 8.88236 26.8603 7.875 24.375 7.875C21.8897 7.875 19.875 8.88236 19.875 10.125C19.875 11.3676 21.8897 12.375 24.375 12.375Z" stroke="#FF7E21" stroke-width="2.25" stroke-linecap="round" stroke-linejoin="round"/>
<path d="M19.875 10.125V16.125C19.875 17.367 21.8895 18.375 24.375 18.375C26.8605 18.375 28.875 17.367 28.875 16.125V10.125" stroke="#FF7E21" stroke-width="2.25" stroke-linecap="round" stroke-linejoin="round"/>
<defs>
<filter id="filter0_f_38126_8782" x="2" y="2" width="44" height="44" filterUnits="userSpaceOnUse" color-interpolation-filters="sRGB">
<feFlood flood-opacity="0" result="BackgroundImageFix"/>
<feBlend mode="normal" in="SourceGraphic" in2="BackgroundImageFix" result="shape"/>
<feGaussianBlur stdDeviation="5" result="effect1_foregroundBlur_38126_8782"/>
</filter>
</defs>
</svg>