<svg width="44" height="44" viewBox="0 0 44 44" fill="none" xmlns="http://www.w3.org/2000/svg">
<rect width="44" height="44" rx="22" fill="#FA4E0E"/>
<path d="M14.4716 23.8416C13.0419 23.8416 11.8713 23.5058 10.9598 22.8342C10.0579 22.1529 9.60693 21.1743 9.60693 19.9173C9.60693 19.6487 9.63572 19.332 9.69329 18.9482C9.84681 18.0847 10.0675 17.0484 10.3553 15.8299C11.1709 12.5292 13.2818 10.8789 16.6784 10.8789C17.5995 10.8789 18.4343 11.0324 19.1635 11.3491C19.8927 11.6465 20.4684 12.1071 20.8906 12.7211C21.3127 13.3256 21.5238 14.0452 21.5238 14.88C21.5238 15.1295 21.495 15.4461 21.4375 15.8299C21.2552 16.8949 21.0441 17.9408 20.785 18.9482C20.3628 20.589 19.6432 21.8267 18.607 22.6423C17.5803 23.4483 16.1986 23.8416 14.4716 23.8416ZM14.7306 21.251C15.4023 21.251 15.9684 21.0495 16.4385 20.6561C16.9183 20.2627 17.2637 19.6583 17.4652 18.8331C17.7434 17.7009 17.9545 16.7222 18.0984 15.8779C18.1464 15.6284 18.1752 15.3693 18.1752 15.1007C18.1752 14.0069 17.6091 13.4599 16.4673 13.4599C15.7957 13.4599 15.22 13.6614 14.7402 14.0548C14.2701 14.4482 13.9342 15.0527 13.7327 15.8779C13.5121 16.6838 13.301 17.6625 13.0803 18.8331C13.0323 19.073 13.0035 19.3224 13.0035 19.5911C12.9939 20.7041 13.5792 21.251 14.7306 21.251Z" fill="white"/>
<path d="M22.3586 23.6702C22.2243 23.6702 22.1283 23.6318 22.0516 23.5455C21.994 23.4495 21.9748 23.344 21.994 23.2193L24.4791 11.5135C24.4983 11.3791 24.5655 11.2736 24.6806 11.1872C24.7861 11.1009 24.9013 11.0625 25.026 11.0625H29.8139C31.1476 11.0625 32.2126 11.3408 33.0186 11.8877C33.8341 12.4442 34.2467 13.2405 34.2467 14.2864C34.2467 14.5838 34.2083 14.9005 34.1412 15.2267C33.8437 16.6084 33.2393 17.6254 32.3181 18.2875C31.4162 18.9495 30.1785 19.2758 28.6049 19.2758H26.1774L25.3522 23.2193C25.3235 23.3536 25.2659 23.4591 25.1507 23.5455C25.0452 23.6318 24.9301 23.6702 24.8053 23.6702H22.3586ZM28.7296 16.7907C29.2382 16.7907 29.6699 16.6563 30.0442 16.3781C30.4279 16.0998 30.6774 15.7064 30.8021 15.1883C30.8405 14.9868 30.8597 14.8045 30.8597 14.651C30.8597 14.3056 30.7542 14.0369 30.5527 13.8546C30.3512 13.6627 29.9962 13.5668 29.5068 13.5668H27.348L26.6667 16.7907H28.7296Z" fill="white"/>
<path d="M30.5379 33.0076V33.1909H30.7212H31.876H32.0593V33.0076V30.9931L32.4992 30.4696L34.3716 33.1135L34.4264 33.1909H34.5212H35.9267H36.2834L36.0757 32.9009L33.5758 29.4087L35.8703 26.6665L36.1222 26.3655H35.7297H34.4093H34.323L34.268 26.4321L32.0593 29.107V26.5488V26.3655H31.876H30.7212H30.5379V26.5488V33.0076Z" fill="white" stroke="white" stroke-width="0.366667"/>
<path d="M30.0175 28.6617L30.0175 28.6617L30.0169 28.6564C29.8337 27.2392 28.6547 26.2542 27.0868 26.2542C26.1165 26.2542 25.307 26.5883 24.7415 27.2074C24.1777 27.8246 23.8733 28.7062 23.8733 29.7721V29.7765C23.8733 30.8422 24.1764 31.7259 24.7395 32.3454C25.3044 32.9668 26.1139 33.3034 27.0868 33.3034C28.6511 33.3034 29.8347 32.3312 30.0161 30.9071L30.0238 30.8688L30.0676 30.6495H29.844H28.7116H28.5752L28.536 30.7802L28.5226 30.8249L28.5225 30.8249L28.5209 30.8308C28.4243 31.1965 28.2472 31.4691 28.0107 31.6509C27.7742 31.8328 27.4651 31.9341 27.0868 31.9341C26.5791 31.9341 26.1706 31.7321 25.8849 31.3718C25.5957 31.0072 25.4216 30.4661 25.4216 29.7765V29.7721C25.4216 29.0846 25.5947 28.5458 25.8831 28.1831C26.168 27.8247 26.5764 27.6234 27.0868 27.6234C27.4734 27.6234 27.7851 27.7289 28.0193 27.9084C28.2535 28.0879 28.4219 28.3504 28.5071 28.6849L28.5071 28.6849L28.5074 28.6863L28.5298 28.7713L28.5658 28.908H28.7071H29.8395H30.0421L30.0219 28.7064L30.0175 28.6617Z" fill="white" stroke="white" stroke-width="0.366667"/>
<path d="M17.7654 32.9458L17.6777 33.1909H17.938H19.1465H19.2794L19.3207 33.0646L19.8255 31.5214H21.9632L22.4679 33.0646L22.5092 33.1909H22.6422H23.8551H24.1154L24.0278 32.9458L21.7182 26.4871L21.6747 26.3655H21.5456H20.2476H20.1184L20.0749 26.4871L17.7654 32.9458ZM21.5526 30.264H20.2364L20.8962 28.2486L21.5526 30.264Z" fill="white" stroke="white" stroke-width="0.366667"/>
<path d="M15.2171 33.0076V33.1909H15.4004H16.5507H16.734V33.0076V27.7034H18.4798H18.6632V27.5201V26.5488V26.3655H18.4798H13.4668H13.2835V26.5488V27.5201V27.7034H13.4668H15.2171V33.0076Z" fill="white" stroke="white" stroke-width="0.366667"/>
<path d="M7.89031 31.2076L7.89478 31.2745L8.07324 31.3787V31.2628L7.89479 31.2747L7.89478 31.2746C7.93638 31.908 8.22647 32.4225 8.70943 32.7742C9.18793 33.1227 9.84358 33.3034 10.6111 33.3034C11.4262 33.3034 12.1017 33.1056 12.5775 32.7309C13.0583 32.3523 13.3188 31.8056 13.3188 31.1506V31.1462C13.3188 30.6031 13.1587 30.1625 12.8004 29.824C12.4498 29.4928 11.9285 29.2775 11.2435 29.136L11.2432 29.1359L10.5453 28.9928C10.5452 28.9927 10.5452 28.9927 10.5452 28.9927C10.1652 28.9141 9.91498 28.8138 9.76238 28.6952C9.62066 28.5851 9.55907 28.4569 9.55907 28.2861V28.2816C9.55907 28.0869 9.6451 27.9236 9.81268 27.8024C9.98502 27.6778 10.2506 27.5943 10.6027 27.5921C10.9383 27.5922 11.2045 27.6701 11.3906 27.7981C11.5731 27.9238 11.6875 28.1031 11.7185 28.3329L11.7184 28.333L11.7193 28.3386L11.7283 28.3923L11.7538 28.5455H11.9091H13.0146H13.2091L13.1977 28.3514L13.1932 28.2753L13.1932 28.2749C13.1564 27.6702 12.884 27.1593 12.427 26.8027C11.9726 26.4481 11.3471 26.2542 10.6111 26.2542C9.88272 26.2542 9.24266 26.4555 8.7799 26.8206C8.31409 27.1881 8.03561 27.7165 8.03314 28.3435H8.03314V28.3442V28.3487C8.03314 28.8743 8.20637 29.3125 8.56214 29.6518C8.91207 29.9856 9.42376 30.2097 10.077 30.3454L10.0772 30.3455L10.7704 30.4886C10.7705 30.4886 10.7706 30.4886 10.7706 30.4886C11.1798 30.5745 11.4375 30.6761 11.5913 30.7965C11.7316 30.9063 11.7929 31.0371 11.7929 31.2267V31.2312C11.7929 31.4448 11.698 31.6197 11.5144 31.7477C11.325 31.8798 11.0343 31.9654 10.6514 31.9654C9.87566 31.9654 9.43325 31.6409 9.36896 31.2213L9.36898 31.2213L9.36858 31.219L9.35963 31.1653L9.3341 31.0121H9.17879H8.07324H7.87728L7.89031 31.2076Z" fill="white" stroke="white" stroke-width="0.366667"/>
</svg>
