<svg xmlns="http://www.w3.org/2000/svg" width="48" height="52" viewBox="0 0 48 52" fill="none">
  <rect y="2" width="48" height="48" rx="24" fill="url(#paint0_linear_37881_3884)"/>
  <rect x="0.5" y="2.5" width="47" height="47" rx="23.5" stroke="url(#paint1_linear_37881_3884)" stroke-opacity="0.15"/>
  <g filter="url(#filter0_f_37881_3884)">
    <path fill-rule="evenodd" clip-rule="evenodd" d="M27.3797 16.5156C27.135 16.5156 26.9365 16.716 26.9365 16.9632V17.8585H24.388C24.1433 17.8585 23.9448 18.0589 23.9448 18.3061V27.9297C23.9448 28.1769 24.1433 28.3773 24.388 28.3773H26.2717V27.9297C26.2717 27.4353 26.6686 27.0345 27.1581 27.0345H28.931C29.4206 27.0345 29.8174 27.4353 29.8174 27.9297V28.3773H32.1443C32.3891 28.3773 32.5875 28.1769 32.5875 27.9297V18.3061C32.5875 18.0589 32.3891 17.8585 32.1443 17.8585H29.5958V16.9632C29.5958 16.716 29.3974 16.5156 29.1526 16.5156H27.3797ZM27.1643 25.9155L25.4287 19.0223H26.7548L28.1979 25.0785H28.3344L29.7775 19.0223H31.1036L29.368 25.9155H27.1643Z" fill="#FA4E0E"/>
    <path fill-rule="evenodd" clip-rule="evenodd" d="M18.5155 27.4805C18.2707 27.4805 18.0723 27.6809 18.0723 27.9281V28.8233H15.2167C14.9719 28.8233 14.7734 29.0237 14.7734 29.2709V37.5517C14.7734 37.7989 14.9719 37.9993 15.2167 37.9993H32.1443C32.3891 37.9993 32.5876 37.7989 32.5876 37.5517V29.2709C32.5876 29.0237 32.3891 28.8233 32.1443 28.8233H29.3742V27.9281C29.3742 27.6809 29.1758 27.4805 28.931 27.4805H27.1582C26.9134 27.4805 26.715 27.6809 26.715 27.9281V28.8233H20.7316V27.9281C20.7316 27.6809 20.5331 27.4805 20.2883 27.4805H18.5155ZM20.0667 29.9646V36.8578H21.3148V30.9198H21.4903L22.6604 36.8578H24.7861L25.9562 30.9198H26.1317V36.8578H27.3798V29.9646H24.9908L23.811 35.9716H23.6355L22.4557 29.9646H20.0667Z" fill="#FA4E0E"/>
    <path d="M18.48 22.2182H19.6891C19.9686 22.2182 20.1929 22.1493 20.3619 22.0114C20.5374 21.8735 20.6251 21.6766 20.6251 21.4205V21.3221C20.6251 21.066 20.5406 20.8691 20.3716 20.7312C20.2026 20.5934 19.9751 20.5244 19.6891 20.5244H18.48V22.2182Z" fill="#FA4E0E"/>
    <path d="M18.48 19.3427H19.6696C19.9361 19.3427 20.1539 19.2738 20.3229 19.1359C20.4984 18.9981 20.5861 18.8077 20.5861 18.5648V18.4663C20.5861 18.2168 20.5016 18.0265 20.3326 17.8952C20.1636 17.7573 19.9426 17.6884 19.6696 17.6884H18.48V19.3427Z" fill="#FA4E0E"/>
    <path fill-rule="evenodd" clip-rule="evenodd" d="M18.2176 14C17.9728 14 17.7744 14.2004 17.7744 14.4476V15.3428H15.2259C14.9811 15.3428 14.7827 15.5432 14.7827 15.7904V25.4141C14.7827 25.6613 14.9811 25.8617 15.2259 25.8617H17.4766V25.0371C17.4766 24.7899 17.675 24.5895 17.9198 24.5895H20.2883C20.5331 24.5895 20.7315 24.7899 20.7315 25.0371V25.8617H22.9822C23.227 25.8617 23.4254 25.6613 23.4254 25.4141V15.7904C23.4254 15.5432 23.227 15.3428 22.9822 15.3428H20.4337V14.4476C20.4337 14.2004 20.2353 14 19.9905 14H18.2176ZM17.4748 15.8352H18.1396V16.5067H19.3337V15.8352H19.9985V16.512C20.3344 16.5312 20.631 16.6016 20.8884 16.7233C21.2004 16.8612 21.441 17.0614 21.61 17.324C21.7855 17.58 21.8732 17.8886 21.8732 18.2497V18.3481C21.8732 18.6633 21.8147 18.9226 21.6977 19.1261C21.5807 19.323 21.441 19.4773 21.2784 19.5889C21.1224 19.694 20.9729 19.7695 20.8299 19.8154V19.9927C20.9729 20.0321 21.1289 20.1075 21.2979 20.2192C21.467 20.3242 21.61 20.4785 21.727 20.682C21.8505 20.8855 21.9122 21.1514 21.9122 21.4796V21.5781C21.9122 21.9589 21.8245 22.2871 21.649 22.5628C21.4735 22.832 21.2297 23.0388 20.9177 23.1832C20.6509 23.3093 20.3445 23.3804 19.9985 23.3964V24.0712H19.3337V23.3999H18.1396V24.0712H17.4748V23.3999H16.2958V22.2576H17.1929V17.649H16.2958V16.5067H17.4748V15.8352Z" fill="#FA4E0E"/>
  </g>
  <path fill-rule="evenodd" clip-rule="evenodd" d="M27.3797 16.5156C27.135 16.5156 26.9365 16.716 26.9365 16.9632V17.8585H24.388C24.1433 17.8585 23.9448 18.0589 23.9448 18.3061V27.9297C23.9448 28.1769 24.1433 28.3773 24.388 28.3773H26.2717V27.9297C26.2717 27.4353 26.6686 27.0345 27.1581 27.0345H28.931C29.4206 27.0345 29.8174 27.4353 29.8174 27.9297V28.3773H32.1443C32.3891 28.3773 32.5875 28.1769 32.5875 27.9297V18.3061C32.5875 18.0589 32.3891 17.8585 32.1443 17.8585H29.5958V16.9632C29.5958 16.716 29.3974 16.5156 29.1526 16.5156H27.3797ZM27.1643 25.9155L25.4287 19.0223H26.7548L28.1979 25.0785H28.3344L29.7775 19.0223H31.1036L29.368 25.9155H27.1643Z" fill="#FA4E0E"/>
  <path fill-rule="evenodd" clip-rule="evenodd" d="M18.5155 27.4805C18.2707 27.4805 18.0723 27.6809 18.0723 27.9281V28.8233H15.2167C14.9719 28.8233 14.7734 29.0237 14.7734 29.2709V37.5517C14.7734 37.7989 14.9719 37.9993 15.2167 37.9993H32.1443C32.3891 37.9993 32.5876 37.7989 32.5876 37.5517V29.2709C32.5876 29.0237 32.3891 28.8233 32.1443 28.8233H29.3742V27.9281C29.3742 27.6809 29.1758 27.4805 28.931 27.4805H27.1582C26.9134 27.4805 26.715 27.6809 26.715 27.9281V28.8233H20.7316V27.9281C20.7316 27.6809 20.5331 27.4805 20.2883 27.4805H18.5155ZM20.0667 29.9646V36.8578H21.3148V30.9198H21.4903L22.6604 36.8578H24.7861L25.9562 30.9198H26.1317V36.8578H27.3798V29.9646H24.9908L23.811 35.9716H23.6355L22.4557 29.9646H20.0667Z" fill="#FA4E0E"/>
  <path d="M18.48 22.2182H19.6891C19.9686 22.2182 20.1929 22.1493 20.3619 22.0114C20.5374 21.8735 20.6251 21.6766 20.6251 21.4205V21.3221C20.6251 21.066 20.5406 20.8691 20.3716 20.7312C20.2026 20.5934 19.9751 20.5244 19.6891 20.5244H18.48V22.2182Z" fill="#FA4E0E"/>
  <path d="M18.48 19.3427H19.6696C19.9361 19.3427 20.1539 19.2738 20.3229 19.1359C20.4984 18.9981 20.5861 18.8077 20.5861 18.5648V18.4663C20.5861 18.2168 20.5016 18.0265 20.3326 17.8952C20.1636 17.7573 19.9426 17.6884 19.6696 17.6884H18.48V19.3427Z" fill="#FA4E0E"/>
  <path fill-rule="evenodd" clip-rule="evenodd" d="M18.2176 14C17.9728 14 17.7744 14.2004 17.7744 14.4476V15.3428H15.2259C14.9811 15.3428 14.7827 15.5432 14.7827 15.7904V25.4141C14.7827 25.6613 14.9811 25.8617 15.2259 25.8617H17.4766V25.0371C17.4766 24.7899 17.675 24.5895 17.9198 24.5895H20.2883C20.5331 24.5895 20.7315 24.7899 20.7315 25.0371V25.8617H22.9822C23.227 25.8617 23.4254 25.6613 23.4254 25.4141V15.7904C23.4254 15.5432 23.227 15.3428 22.9822 15.3428H20.4337V14.4476C20.4337 14.2004 20.2353 14 19.9905 14H18.2176ZM17.4748 15.8352H18.1396V16.5067H19.3337V15.8352H19.9985V16.512C20.3344 16.5312 20.631 16.6016 20.8884 16.7233C21.2004 16.8612 21.441 17.0614 21.61 17.324C21.7855 17.58 21.8732 17.8886 21.8732 18.2497V18.3481C21.8732 18.6633 21.8147 18.9226 21.6977 19.1261C21.5807 19.323 21.441 19.4773 21.2784 19.5889C21.1224 19.694 20.9729 19.7695 20.8299 19.8154V19.9927C20.9729 20.0321 21.1289 20.1075 21.2979 20.2192C21.467 20.3242 21.61 20.4785 21.727 20.682C21.8505 20.8855 21.9122 21.1514 21.9122 21.4796V21.5781C21.9122 21.9589 21.8245 22.2871 21.649 22.5628C21.4735 22.832 21.2297 23.0388 20.9177 23.1832C20.6509 23.3093 20.3445 23.3804 19.9985 23.3964V24.0712H19.3337V23.3999H18.1396V24.0712H17.4748V23.3999H16.2958V22.2576H17.1929V17.649H16.2958V16.5067H17.4748V15.8352Z" fill="#FA4E0E"/>
  <defs>
    <filter id="filter0_f_37881_3884" x="1.44029" y="0.666849" width="44.4803" height="50.6663" filterUnits="userSpaceOnUse" color-interpolation-filters="sRGB">
      <feFlood flood-opacity="0" result="BackgroundImageFix"/>
      <feBlend mode="normal" in="SourceGraphic" in2="BackgroundImageFix" result="shape"/>
      <feGaussianBlur stdDeviation="6.66658" result="effect1_foregroundBlur_37881_3884"/>
    </filter>
    <linearGradient id="paint0_linear_37881_3884" x1="24" y1="2" x2="24" y2="50" gradientUnits="userSpaceOnUse">
      <stop/>
      <stop offset="1" stop-color="#0F0F0F"/>
    </linearGradient>
    <linearGradient id="paint1_linear_37881_3884" x1="24" y1="2" x2="24" y2="33.1444" gradientUnits="userSpaceOnUse">
      <stop stop-color="#ECECFB"/>
      <stop offset="1" stop-color="#ECECFB"/>
    </linearGradient>
  </defs>
</svg>