<svg xmlns="http://www.w3.org/2000/svg" width="44" height="44" viewBox="0 0 44 44" fill="none">
  <path d="M21.4905 0.0078125H22.5043C22.5386 0.0164039 22.573 0.0249953 22.6074 0.0335867C22.805 0.0421782 23.0026 0.0421782 23.2002 0.059361C23.7071 0.102318 24.214 0.128092 24.7209 0.196824C25.3566 0.282738 26.001 0.385835 26.6368 0.514706C28.0286 0.806814 29.386 1.23638 30.6919 1.80342C36.9293 4.49253 41.5772 9.90512 43.2869 16.4776C43.4931 17.2594 43.6478 18.0584 43.768 18.8574C43.8368 19.3299 43.8883 19.811 43.9227 20.2835C43.957 20.653 43.957 21.031 43.9742 21.4004C43.9828 21.4348 43.9914 21.4606 44 21.4949V22.5087C43.9914 22.5259 43.9828 22.5431 43.9742 22.5689C43.9656 22.7836 43.9656 22.9984 43.9485 23.2132C43.9141 23.6514 43.8969 24.0895 43.8368 24.5277C43.7423 25.2322 43.6392 25.9281 43.5017 26.624C43.1494 28.2993 42.5996 29.9231 41.8607 31.461C40.3744 34.5797 38.1836 37.2945 35.4515 39.3994C33.1233 41.2122 30.4599 42.5267 27.6076 43.2656C26.379 43.5921 25.1333 43.8068 23.8617 43.9013C23.3205 43.9443 22.7792 43.9615 22.2379 43.9873C21.963 43.9958 21.6795 43.9873 21.4046 43.9701C20.9063 43.9443 20.3994 43.9271 19.9011 43.8756C19.3942 43.824 18.8873 43.7553 18.3804 43.678C17.3065 43.5061 16.2497 43.257 15.2188 42.9133C8.1824 40.6452 2.7784 34.992 0.802372 27.8784C0.432941 26.5639 0.192382 25.2236 0.0892846 23.8576C0.0549189 23.3507 0.0205533 22.8352 0.00337045 22.3283C-0.00522096 22.0276 0.00337045 21.7183 0.0205533 21.4176C0.0549189 20.8334 0.0806932 20.2578 0.132242 19.6821C0.18379 19.1409 0.261113 18.591 0.355618 18.0584C0.587587 16.7439 0.948426 15.4552 1.42955 14.2094C3.96401 7.55107 9.56561 2.5251 16.4645 0.729491C17.2463 0.523297 18.0453 0.368652 18.8443 0.248372C19.3169 0.179641 19.798 0.128092 20.2705 0.0937266C20.6485 0.059361 21.0266 0.059361 21.396 0.0421782C21.4389 0.0249953 21.4647 0.0164039 21.4905 0.0078125ZM21.9888 38.1881C30.9239 38.231 38.1321 30.9283 38.1922 22.1908C38.2523 13.1011 30.9754 5.9273 22.195 5.83279C12.9936 5.73829 5.91426 13.0925 5.81976 21.8128C5.71666 30.9885 13.1654 38.2224 21.9888 38.1881Z" fill="#7B2BF9"/>
  <path d="M21.9891 38.1902C13.1657 38.2331 5.71693 30.9991 5.81144 21.8149C5.90594 13.1032 12.9853 5.74038 22.1867 5.83488C30.9671 5.92939 38.244 13.1032 38.1839 22.1929C38.1409 30.9304 30.9327 38.2245 21.9891 38.1902ZM30.6836 17.124C30.632 17.081 30.5977 17.0467 30.5633 17.0209C30.3829 16.8834 30.2111 16.7374 30.0306 16.5999C27.4103 14.5724 24.4204 13.0603 21.233 12.1496C19.8068 11.7286 18.3377 11.4794 16.86 11.4021C16.3101 11.3763 15.7603 11.4021 15.2104 11.4193C14.6692 11.4365 14.1279 11.5052 13.5953 11.6169C12.676 11.8059 11.7997 12.1066 11.0007 12.6049C10.2446 13.0689 9.62602 13.7304 9.22223 14.5294C8.79266 15.3799 8.70674 16.2992 8.80125 17.2357C8.87857 17.9144 9.05899 18.5845 9.31673 19.2117C9.76349 20.3372 10.3993 21.351 11.1381 22.3132C11.9199 23.3184 12.7963 24.2377 13.7585 25.0625C14.0248 25.303 14.4286 25.3202 14.7036 25.0882C16.1555 23.9456 17.6762 22.906 19.2656 21.9696C19.6264 21.772 19.8498 21.4025 19.8584 20.9987C19.8928 20.4575 19.9271 19.9076 19.9701 19.3664C20.0045 18.9454 20.0474 18.5244 20.1075 18.1034C20.2106 17.4247 20.3223 16.7374 20.4598 16.0673C20.6488 15.0964 20.9066 14.1342 21.233 13.1977C21.2846 12.9829 21.5079 12.8541 21.7227 12.9056C21.7399 12.9142 21.7571 12.9142 21.7743 12.9228C21.9289 12.9743 22.0922 13.0259 22.2468 13.0774C22.5389 13.172 22.642 13.3696 22.5389 13.6617C22.0492 15.148 21.697 16.6772 21.4994 18.2237C21.4049 18.954 21.3361 19.6842 21.276 20.4145C21.233 21.0331 21.2244 21.6603 21.2072 22.2789C21.1987 22.6311 21.2158 22.9919 21.2244 23.3442C21.2244 23.5418 21.233 23.7308 21.2416 23.9284C21.2846 24.5728 21.3189 25.2171 21.3791 25.8529C21.422 26.3426 21.4822 26.8323 21.5595 27.322C21.6712 28.0007 21.8172 28.6795 21.9547 29.3582C22.032 29.719 21.886 30.0111 21.5423 30.1572C21.2932 30.2603 21.044 30.3548 20.7949 30.4579C20.4426 30.6039 20.0388 30.5953 19.7038 30.4235C18.4408 29.8393 17.2208 29.1863 16.0352 28.4561C13.8272 27.0557 11.834 25.4061 10.1931 23.3528C9.35969 22.3046 8.6466 21.1791 8.13112 19.942C8.00225 19.6241 7.89056 19.2976 7.77887 18.9712C7.7531 18.8938 7.71014 18.8251 7.62422 18.8509C7.57268 18.8681 7.52113 18.911 7.50395 18.9626C7.32353 19.7358 7.22043 20.5176 7.19465 21.308C7.17747 21.961 7.19465 22.6225 7.23761 23.2755C7.27198 23.7995 7.34071 24.315 7.4438 24.8305C7.65 25.956 7.99366 27.0557 8.46618 28.0952C8.79266 28.8083 9.17068 29.4956 9.60025 30.1486C9.66039 30.2775 9.79785 30.3462 9.93531 30.329C10.0642 30.3118 10.1759 30.2173 10.2102 30.0884C10.2618 29.9768 10.3133 29.8651 10.3735 29.7534C10.9147 28.774 11.6278 27.9234 12.4182 27.133C12.6072 26.9526 12.9079 26.9354 13.1141 27.0986C13.2001 27.1588 13.2774 27.2275 13.3547 27.2876C13.5867 27.4595 13.6382 27.7859 13.4664 28.0179C13.4492 28.0437 13.4234 28.0695 13.3977 28.0952C12.8564 28.6279 12.3667 29.2121 11.9371 29.8307C11.6278 30.2946 11.3443 30.7758 11.224 31.3256C11.0952 31.8926 11.267 32.2535 11.7911 32.494C12.1863 32.6659 12.6072 32.7604 13.0368 32.769C13.4234 32.7861 13.81 32.7862 14.1881 32.7518C14.7981 32.6916 15.4166 32.6229 16.018 32.5026C17.4528 32.2105 18.8704 31.8067 20.2364 31.2827C22.1867 30.5524 24.0854 29.6932 25.9239 28.7052C28.1062 27.5454 30.1767 26.2051 32.1183 24.6844C32.2214 24.6157 32.2816 24.4954 32.2816 24.3752C32.3074 23.8769 32.3503 23.3785 32.3675 22.8888C32.3847 22.4593 32.3847 22.0297 32.3933 21.6001C32.3933 21.4111 32.3847 21.2221 32.3761 21.0331C32.3589 20.6121 32.3589 20.1911 32.3331 19.7702C32.2988 19.2547 32.2558 18.7392 32.1957 18.2323C32.1269 17.6481 32.0496 17.0553 31.9551 16.4711C31.7489 15.1995 31.4224 13.9538 30.9843 12.7424C30.6406 11.7887 30.2111 10.878 29.6268 10.0533C29.2488 9.51201 28.8107 9.01371 28.2436 8.66146C27.5993 8.25766 26.9205 8.14597 26.1903 8.4209C25.7693 8.59273 25.3827 8.84188 25.0562 9.15976C24.4892 9.69243 24.051 10.3282 23.6644 11.0069C23.5269 11.2561 23.5957 11.4537 23.862 11.5568C26.302 12.5018 28.6045 13.7819 30.6922 15.3628C31.0186 15.6033 31.242 15.9556 31.3193 16.3508C31.3881 16.6944 31.4482 17.0295 31.4912 17.3732C31.5599 17.9316 31.2678 18.3783 30.7609 18.5072C29.1973 18.9024 27.668 19.4093 26.1817 20.0193C24.8328 20.5692 23.5097 21.1877 22.221 21.8665C21.9633 21.9953 21.7743 21.8751 21.7743 21.5915C21.7829 21.3682 21.8001 21.1534 21.8001 20.93C21.8001 20.6293 21.9289 20.4403 22.2124 20.3114C23.0372 19.9334 23.8448 19.5296 24.6696 19.1688C26.3277 18.4299 28.0374 17.8199 29.7901 17.3388C30.0908 17.2701 30.3743 17.2013 30.6836 17.124ZM21.9805 36.8327C22.6077 36.8241 23.2348 36.7812 23.862 36.6952C23.9651 36.6952 24.051 36.6265 24.0854 36.532C24.1111 36.4375 24.0682 36.3344 23.9909 36.2829C23.3293 35.7244 22.8224 35.0457 22.3843 34.3068C22.0664 33.757 21.7829 33.1899 21.5423 32.6057C21.4564 32.3995 21.3103 32.3394 21.1042 32.4167C19.5147 33.0267 17.8824 33.5164 16.2156 33.8601C15.5369 33.9975 14.8582 34.092 14.1623 34.135C14.0506 34.1436 13.9647 34.1694 13.9303 34.2811C13.896 34.3927 13.9647 34.4615 14.0592 34.513C14.3427 34.6849 14.6176 34.8567 14.9097 35.0199C16.6108 35.9564 18.4838 36.5406 20.4082 36.7382C20.9323 36.7898 21.4564 36.7983 21.9805 36.8327ZM21.7571 10.8265C22.0836 10.8265 22.2812 10.7062 22.41 10.4742C22.7193 9.89862 23.0888 9.35736 23.4926 8.85047C23.8019 8.46386 24.1455 8.1202 24.5321 7.81091C24.6094 7.75936 24.6438 7.66486 24.618 7.57035C24.6009 7.48444 24.5235 7.4157 24.4376 7.39852C24.3861 7.38993 24.3345 7.38134 24.283 7.37275C23.6902 7.31261 23.106 7.24388 22.5131 7.20951C22.0922 7.19233 21.6712 7.19233 21.2502 7.22669C20.6832 7.26965 20.1247 7.3212 19.5663 7.39852C18.2604 7.60472 16.9803 7.99133 15.7775 8.54977C14.9527 8.92779 14.1709 9.38314 13.432 9.90721C13.3633 9.95876 13.3031 10.0103 13.3375 10.1048C13.3719 10.1907 13.4492 10.1993 13.5265 10.1821C14.1795 10.0619 14.8324 9.99313 15.494 9.97595C16.0524 9.96735 16.6108 9.98454 17.1693 10.0103C17.6934 10.0447 18.2174 10.0962 18.7415 10.165C19.6178 10.2852 20.4856 10.4657 21.3361 10.7062C21.5079 10.7749 21.654 10.8093 21.7571 10.8265ZM26.5941 35.965C26.7659 35.9392 26.9463 35.922 27.1096 35.8791C27.6594 35.7416 28.1062 35.4409 28.51 35.0629C29.2144 34.4013 29.7213 33.6023 30.1509 32.7432C30.2111 32.6315 30.1681 32.4855 30.0564 32.4253C30.0134 32.4081 29.9705 32.3909 29.9275 32.3995C29.644 32.4081 29.3605 32.4339 29.077 32.4339C28.6216 32.4339 28.1663 32.4253 27.7195 32.3909C27.2556 32.3652 26.7831 32.3308 26.3277 32.2535C25.6404 32.1504 24.9617 32.0215 24.283 31.8841C23.9393 31.8153 23.5957 31.7122 23.252 31.6263C23.1231 31.5834 22.9771 31.6177 22.8826 31.7208C22.7967 31.8239 22.7795 31.97 22.8482 32.0817C23.106 32.5885 23.3379 33.1126 23.6128 33.6109C23.9737 34.2896 24.472 34.8825 25.082 35.3636C25.5201 35.7244 26.0098 35.9478 26.5941 35.965ZM19.824 23.2497C19.2398 23.4816 15.6142 26.0075 15.3823 26.3426C16.9803 27.4938 18.6986 28.4561 20.5113 29.2293C20.0818 27.2619 19.8584 25.2601 19.824 23.2497ZM28.699 31.0765C28.9997 31.0679 29.3004 31.0593 29.6011 31.0421C29.9018 31.0249 30.1939 30.9734 30.4946 30.9562C30.8296 30.939 31.0101 30.7672 31.1132 30.4579C31.4912 29.2894 31.7833 28.0952 31.9809 26.8838C31.9981 26.7979 31.9981 26.7206 31.9207 26.6691C31.8434 26.6261 31.7747 26.6605 31.706 26.712C31.4568 26.8924 31.2077 27.0729 30.9499 27.2447C29.2144 28.4303 27.4017 29.5042 25.5287 30.4579C25.4514 30.4922 25.3913 30.5438 25.3999 30.6297C25.4085 30.7242 25.4858 30.7586 25.5717 30.7758C26.6027 30.9648 27.6508 31.0679 28.699 31.0765ZM36.036 25.8701C36.0188 25.6209 36.0103 25.3632 35.9673 25.114C35.8986 24.7188 35.8212 24.3322 35.7181 23.9456C35.6494 23.6878 35.3573 23.6277 35.1597 23.8081C34.7387 24.2033 34.3092 24.5985 33.8882 24.9937C33.7335 25.1226 33.6304 25.2944 33.5789 25.492C33.5359 25.6811 33.5102 25.8787 33.4844 26.0763C33.3899 26.6519 33.3211 27.2275 33.2009 27.7945C33.0634 28.4904 32.883 29.1778 32.7197 29.8651C32.6682 30.0197 32.7541 30.1915 32.9088 30.2431C32.9861 30.2689 33.072 30.2603 33.1493 30.2173C33.218 30.183 33.2782 30.1486 33.3469 30.1228C34.0514 29.7534 34.67 29.2809 35.1425 28.6365C35.7353 27.8375 36.0532 26.8667 36.036 25.8701ZM35.4776 16.7632C35.6752 16.7718 35.7783 16.6343 35.7181 16.4453C35.7096 16.4109 35.6924 16.3765 35.6752 16.3422C35.0566 14.8559 34.1975 13.4812 33.1321 12.2699C32.8314 11.9262 32.505 11.6083 32.1871 11.2904C32.1441 11.2561 32.084 11.2475 32.0238 11.2647C31.9637 11.2904 31.9293 11.3592 31.9551 11.4193C31.9551 11.4279 31.9551 11.4279 31.9637 11.4365C31.9895 11.488 32.0067 11.5482 32.0238 11.5997C32.5995 13.0259 33.0204 14.5122 33.2868 16.0329C33.3383 16.4109 33.6648 16.6944 34.0514 16.6772C34.3006 16.6772 34.5583 16.6858 34.8075 16.703C35.0308 16.7116 35.2542 16.7374 35.4776 16.7632ZM34.3951 18.0347C34.3435 18.0347 34.3006 18.0347 34.249 18.0347C34.1373 18.0175 34.0342 18.0776 33.9913 18.1807C33.9397 18.2924 33.9913 18.3783 34.06 18.4557C34.2318 18.6619 34.4123 18.8595 34.5669 19.0743C34.9106 19.5382 35.2456 20.0107 35.5807 20.4832C35.7181 20.6723 35.9673 20.6723 36.0876 20.4747C36.268 20.174 36.3969 19.8389 36.4742 19.5038C36.6031 18.9196 36.4141 18.5502 35.8814 18.3182C35.8728 18.3096 35.8642 18.3096 35.847 18.3096C35.3831 18.1034 34.8934 18.0519 34.3951 18.0347ZM33.7679 22.8717H33.7507C33.7507 22.8802 33.7507 22.8974 33.7507 22.906C33.7507 22.9833 33.7421 23.0607 33.828 23.095C33.914 23.1294 33.9741 23.0864 34.0256 23.0263C34.2576 22.7857 34.4896 22.5538 34.713 22.3132C34.8848 22.1328 34.902 22.0039 34.7731 21.7977C34.5411 21.4197 34.3006 21.0589 34.06 20.6894C34.0085 20.6121 33.9483 20.5692 33.8624 20.5949C33.7765 20.6207 33.7593 20.698 33.7593 20.7839C33.7679 21.4798 33.7679 22.1758 33.7679 22.8717ZM31.7833 33.0869C31.8176 33.0697 31.8434 33.0525 31.8692 33.0353C31.9465 32.9666 32.0324 32.8978 32.1012 32.8205C32.3331 32.5971 32.5651 32.3738 32.7885 32.1418C32.8228 32.0988 32.84 32.0387 32.8228 31.9786C32.8057 31.9012 32.7369 31.8841 32.6596 31.8926C32.6424 31.8926 32.6338 31.8926 32.6166 31.9012C32.4276 31.9528 32.2386 32.0129 32.0496 32.0731C32.0067 32.0902 31.9637 32.116 31.9379 32.159C31.8262 32.4081 31.7145 32.6487 31.6115 32.9064C31.5857 32.9923 31.6544 33.0869 31.7833 33.0869ZM36.8178 22.2445C36.8093 22.2015 36.8093 22.1586 36.8093 22.1156C36.8093 22.0898 36.7921 22.0555 36.7749 22.0469C36.7491 22.0469 36.7233 22.0555 36.6976 22.0727C36.5773 22.1672 36.5601 22.339 36.6546 22.4593C36.6546 22.4679 36.6632 22.4679 36.6632 22.4765C36.7062 22.528 36.7663 22.5194 36.7835 22.4507C36.8007 22.3819 36.8093 22.3218 36.8178 22.2445Z" fill="white"/>
  <path d="M30.6832 17.1232C30.3739 17.2005 30.0818 17.2693 29.7983 17.3466C28.0456 17.8277 26.336 18.4377 24.6778 19.1766C23.853 19.546 23.0454 19.9498 22.2207 20.3192C21.9457 20.4481 21.8083 20.6371 21.8083 20.9378C21.8083 21.1612 21.7911 21.376 21.7825 21.5993C21.7739 21.8829 21.9715 22.0117 22.2293 21.8743C23.518 21.1955 24.841 20.577 26.1899 20.0271C27.6762 19.4085 29.2055 18.9102 30.7691 18.515C31.276 18.3861 31.5681 17.9394 31.4994 17.381C31.4564 17.0373 31.3963 16.6936 31.3276 16.3586C31.2502 15.9634 31.0269 15.6111 30.7004 15.3706C28.6127 13.7897 26.3102 12.5096 23.8702 11.5646C23.6039 11.4615 23.5352 11.2553 23.6726 11.0147C24.0592 10.336 24.4974 9.70882 25.0644 9.16756C25.3909 8.84968 25.7775 8.60053 26.1985 8.4287C26.9202 8.14518 27.6075 8.25687 28.2518 8.66926C28.8189 9.0301 29.257 9.51981 29.6351 10.0611C30.2193 10.8944 30.6403 11.8051 30.9925 12.7502C31.4307 13.9616 31.7571 15.2073 31.9633 16.4789C32.0578 17.0631 32.1352 17.6473 32.2039 18.2401C32.264 18.7556 32.307 19.2625 32.3414 19.778C32.3671 20.1989 32.3757 20.6199 32.3843 21.0409C32.3929 21.2299 32.4015 21.4189 32.4015 21.6079C32.4015 22.0375 32.3929 22.4671 32.3757 22.8966C32.3585 23.3949 32.3156 23.8932 32.2898 24.383C32.2898 24.5032 32.2297 24.6235 32.1266 24.6922C30.1849 26.2129 28.1058 27.5532 25.9322 28.713C24.1022 29.701 22.1949 30.5602 20.2446 31.2905C18.87 31.8145 17.461 32.2183 16.0263 32.5104C15.4249 32.6307 14.8063 32.6994 14.1963 32.7596C13.8097 32.7939 13.4316 32.8025 13.045 32.7768C12.6155 32.7682 12.1945 32.6737 11.7993 32.5018C11.2752 32.2527 11.1034 31.8919 11.2322 31.3334C11.3611 30.7836 11.636 30.3024 11.9453 29.8385C12.3835 29.2199 12.8732 28.6357 13.4059 28.103C13.6207 27.9054 13.6378 27.579 13.4402 27.3642C13.4145 27.3384 13.3887 27.3126 13.3629 27.2954C13.2856 27.2267 13.2083 27.1666 13.1224 27.1064C12.9162 26.9432 12.6155 26.9604 12.4265 27.1408C11.6446 27.9312 10.923 28.7732 10.3817 29.7612C10.3216 29.8729 10.2614 29.9846 10.2185 30.0962C10.1755 30.2251 10.0724 30.311 9.94353 30.3368C9.80607 30.354 9.66861 30.2853 9.60847 30.1564C9.1789 29.5034 8.80088 28.8161 8.4744 28.103C8.00187 27.0635 7.65822 25.9638 7.45202 24.8383C7.35752 24.3228 7.28879 23.8073 7.24583 23.2833C7.20287 22.6303 7.18569 21.9688 7.20287 21.3158C7.22865 20.5254 7.33174 19.7436 7.51216 18.9704C7.52935 18.9188 7.5809 18.8759 7.63244 18.8587C7.71836 18.8329 7.76132 18.9016 7.78709 18.979C7.90737 19.3054 8.01047 19.6319 8.13934 19.9498C8.65482 21.1869 9.36791 22.3124 10.2013 23.3606C11.8422 25.4139 13.8269 27.0635 16.0434 28.4639C17.2205 29.1941 18.449 29.8557 19.712 30.4313C20.0556 30.6031 20.4508 30.6117 20.8031 30.4657C21.0522 30.3626 21.3014 30.2681 21.5505 30.165C21.8942 30.0189 22.0402 29.7268 21.9629 29.366C21.8255 28.6873 21.688 28.0171 21.5677 27.3298C21.4818 26.8401 21.4303 26.3504 21.3873 25.8607C21.3272 25.2163 21.2928 24.5806 21.2498 23.9362C21.2412 23.7386 21.2327 23.5496 21.2327 23.352C21.2241 22.9997 21.2069 22.6389 21.2155 22.2866C21.2327 21.6681 21.2412 21.0409 21.2842 20.4223C21.3357 19.692 21.4045 18.9618 21.5076 18.2315C21.7052 16.6765 22.0574 15.1472 22.5471 13.6695C22.6502 13.3774 22.5471 13.1797 22.255 13.0852C22.1004 13.0337 21.9457 12.9821 21.7825 12.9306C21.5763 12.8447 21.3443 12.9478 21.2584 13.154C21.2498 13.1712 21.2498 13.1883 21.2412 13.2055C20.9234 14.142 20.6656 15.1042 20.468 16.0751C20.3391 16.7538 20.2189 17.4325 20.1158 18.1112C20.0556 18.5322 20.0127 18.9532 19.9783 19.3742C19.9353 19.9154 19.901 20.4567 19.8666 21.0065C19.858 21.4103 19.6261 21.7883 19.2738 21.9774C17.6844 22.9138 16.1637 23.9534 14.7118 25.096C14.4283 25.3194 14.0245 25.3108 13.7667 25.0703C12.8045 24.2455 11.9282 23.3262 11.1463 22.321C10.4075 21.3674 9.7803 20.345 9.32495 19.2195C9.06721 18.5837 8.88679 17.9222 8.80947 17.2435C8.70637 16.307 8.80088 15.3877 9.23045 14.5372C9.63424 13.7468 10.2442 13.0767 11.0089 12.6127C11.8079 12.1144 12.6842 11.8137 13.6035 11.6247C14.1361 11.513 14.6774 11.4443 15.2187 11.4271C15.7685 11.4099 16.3184 11.3841 16.8682 11.4099C18.3545 11.4872 19.8237 11.7364 21.2412 12.1574C24.4287 13.0681 27.4185 14.5801 30.0389 16.6077C30.2193 16.7452 30.3911 16.8912 30.5715 17.0287C30.6059 17.0459 30.6317 17.0717 30.6832 17.1232Z" fill="#7B2BF9"/>
  <path d="M21.9802 36.8293C21.4561 36.7949 20.932 36.7863 20.4165 36.7348C18.4835 36.5372 16.6191 35.953 14.918 35.0165C14.6259 34.8618 14.351 34.6814 14.0675 34.5096C13.9815 34.458 13.9128 34.3893 13.9386 34.2776C13.973 34.1659 14.0589 34.1402 14.1706 34.1316C14.8579 34.0886 15.5452 33.9941 16.2239 33.8566C17.8906 33.513 19.523 33.0319 21.1124 32.4133C21.3186 32.336 21.4647 32.3961 21.5506 32.6023C21.7911 33.1865 22.0747 33.7536 22.3925 34.3034C22.8307 35.0423 23.3376 35.721 23.9991 36.2794C24.0851 36.331 24.1194 36.4341 24.0936 36.5286C24.0593 36.6231 23.9734 36.6918 23.8703 36.6918C23.2345 36.7691 22.6073 36.8207 21.9802 36.8293Z" fill="#7B2BF9"/>
  <path d="M21.7571 10.8252C21.6626 10.7994 21.5079 10.7736 21.3533 10.7306C20.5027 10.4987 19.635 10.3183 18.7587 10.1894C18.2346 10.1207 17.7105 10.0605 17.1865 10.0347C16.628 10.0004 16.0696 9.9832 15.5111 10.0004C14.8496 10.0176 14.1881 10.0863 13.5437 10.2066C13.4578 10.2238 13.3891 10.2152 13.3547 10.1292C13.3203 10.0347 13.3805 9.9832 13.4492 9.93165C14.1881 9.40757 14.9699 8.95223 15.7947 8.5742C16.9975 8.01576 18.269 7.62056 19.5835 7.42295C20.1419 7.33704 20.7089 7.28549 21.2674 7.25113C21.6884 7.21676 22.1093 7.21676 22.5303 7.23394C23.1231 7.26831 23.7073 7.33704 24.3002 7.39718C24.3517 7.40577 24.4033 7.41436 24.4548 7.42295C24.5493 7.43155 24.618 7.50028 24.6352 7.59478C24.661 7.68929 24.6266 7.78379 24.5493 7.83534C24.1627 8.14463 23.819 8.48829 23.5097 8.8749C23.0974 9.3818 22.7365 9.93165 22.4272 10.4987C22.2812 10.7135 22.0836 10.8252 21.7571 10.8252Z" fill="#7B2BF9"/>
  <path d="M26.594 35.9632C26.0098 35.9461 25.52 35.7141 25.0733 35.3704C24.4719 34.8893 23.9736 34.2965 23.6042 33.6178C23.3206 33.1195 23.0887 32.5954 22.8395 32.0885C22.7708 31.9768 22.7794 31.8308 22.8739 31.7277C22.9684 31.6246 23.1145 31.5816 23.2433 31.6332C23.587 31.7191 23.9306 31.8222 24.2743 31.8909C24.953 32.0284 25.6403 32.1572 26.319 32.2603C26.783 32.3291 27.2469 32.3634 27.7109 32.3978C28.1662 32.4236 28.6215 32.4322 29.0683 32.4408C29.3518 32.4408 29.6353 32.415 29.9189 32.4064C30.0477 32.3978 30.1594 32.4923 30.1766 32.6212C30.1766 32.6641 30.168 32.7071 30.1508 32.7501C29.7212 33.6092 29.2058 34.4082 28.5099 35.0697C28.1061 35.4478 27.6593 35.757 27.1095 35.8859C26.9462 35.9203 26.7658 35.9375 26.594 35.9632Z" fill="#7B2BF9"/>
  <path d="M19.8241 23.2461C19.8499 25.2565 20.0818 27.2669 20.5114 29.2343C18.6986 28.4611 16.9803 27.4903 15.3823 26.3476C15.6143 26.0039 19.2399 23.4781 19.8241 23.2461Z" fill="#7B2BF9"/>
  <path d="M28.6988 31.0736C27.6507 31.065 26.6025 30.9619 25.5716 30.7729C25.4857 30.7557 25.4083 30.7214 25.3997 30.6269C25.3912 30.541 25.4513 30.498 25.5286 30.455C27.4015 29.5014 29.2143 28.4275 30.9498 27.2419C31.1989 27.07 31.4567 26.8896 31.7058 26.7092C31.7746 26.6662 31.8347 26.6233 31.9206 26.6662C32.0065 26.7178 31.998 26.7865 31.9808 26.881C31.7832 28.0924 31.4911 29.2866 31.113 30.455C31.0099 30.7643 30.8295 30.9362 30.4945 30.9533C30.1938 30.9705 29.9016 31.0135 29.6009 31.0393C29.3002 31.0564 28.9995 31.065 28.6988 31.0736Z" fill="#7B2BF9"/>
  <path d="M36.0359 25.867C36.0445 26.8636 35.7352 27.8344 35.1424 28.6334C34.6698 29.2778 34.0512 29.7503 33.3468 30.1197C33.278 30.1541 33.2179 30.1885 33.1491 30.2142C33.0031 30.2916 32.8227 30.24 32.7454 30.1026C32.7024 30.0252 32.6938 29.9393 32.7196 29.862C32.8828 29.1747 33.0546 28.4874 33.2007 27.7915C33.3124 27.2244 33.3897 26.6488 33.4842 26.0732C33.5186 25.8756 33.5358 25.678 33.5787 25.489C33.6303 25.3 33.742 25.1195 33.888 24.9907C34.309 24.5955 34.7386 24.2003 35.1595 23.805C35.3486 23.6246 35.6492 23.6848 35.718 23.9425C35.8211 24.3291 35.8984 24.7157 35.9671 25.1109C36.0187 25.3601 36.0187 25.6178 36.0359 25.867Z" fill="#7B2BF9"/>
  <path d="M35.4773 16.761C35.2539 16.7438 35.0306 16.7095 34.7986 16.7009C34.5495 16.6837 34.2917 16.6837 34.0426 16.6751C33.6559 16.6923 33.3295 16.4088 33.2779 16.0307C33.0116 14.5101 32.5906 13.0323 32.015 11.5976C31.9892 11.546 31.972 11.4859 31.9548 11.4343C31.9205 11.3742 31.9463 11.2969 32.0064 11.2711C32.015 11.2711 32.015 11.2625 32.0236 11.2625C32.0837 11.2453 32.1439 11.2539 32.1868 11.2883C32.5047 11.6062 32.8312 11.924 33.1319 12.2677C34.1972 13.4705 35.0649 14.8451 35.6749 16.34C35.6921 16.3744 35.7007 16.4088 35.7179 16.4431C35.7866 16.6321 35.6749 16.7696 35.4773 16.761Z" fill="#7B2BF9"/>
  <path d="M34.3945 18.0337C34.8928 18.0509 35.3825 18.1025 35.8551 18.2915C35.8636 18.2915 35.8722 18.3001 35.8894 18.3001C36.4221 18.532 36.6111 18.9015 36.4822 19.4857C36.4049 19.8293 36.276 20.1558 36.0956 20.4565C35.9753 20.6627 35.7262 20.6627 35.5887 20.4651C35.2537 19.9926 34.9186 19.52 34.5749 19.0561C34.4203 18.8413 34.2399 18.6437 34.068 18.4375C33.9993 18.3516 33.9392 18.2743 33.9993 18.1626C34.0423 18.0595 34.154 18.008 34.2571 18.0165C34.3 18.0337 34.343 18.0337 34.3945 18.0337Z" fill="#7B2BF9"/>
  <path d="M33.7676 22.8696C33.7676 22.1737 33.7676 21.4778 33.7676 20.7819C33.7676 20.696 33.7762 20.6272 33.8707 20.5929C33.9652 20.5585 34.0254 20.6101 34.0683 20.6874C34.3089 21.0568 34.5494 21.4262 34.7814 21.7957C34.9103 22.0019 34.8845 22.1307 34.7213 22.3112C34.4979 22.5517 34.2659 22.7837 34.034 23.0243C33.9738 23.0844 33.9137 23.1273 33.8363 23.093C33.7504 23.0586 33.759 22.9813 33.759 22.904C33.759 22.8954 33.759 22.8782 33.759 22.8696H33.7676Z" fill="#7B2BF9"/>
  <path d="M31.7827 33.0864C31.6538 33.0864 31.5851 32.9919 31.628 32.8888C31.7311 32.6397 31.8428 32.3905 31.9545 32.1414C31.9803 32.0984 32.0146 32.0727 32.0662 32.0555C32.2552 31.9953 32.4442 31.9438 32.6332 31.8836C32.6504 31.8836 32.659 31.8751 32.6762 31.8751C32.7449 31.8665 32.8222 31.8836 32.8394 31.961C32.848 32.0211 32.8394 32.0813 32.805 32.1242C32.5817 32.3562 32.3497 32.5796 32.1177 32.8029C32.0404 32.8803 31.9631 32.949 31.8858 33.0177C31.8428 33.0521 31.8084 33.0693 31.7827 33.0864Z" fill="#7B2BF9"/>
  <path d="M36.8174 22.2437C36.8088 22.3124 36.8002 22.3812 36.7916 22.4499C36.7745 22.5186 36.7143 22.5272 36.6714 22.4757C36.5683 22.364 36.5769 22.1921 36.6885 22.0891C36.6971 22.0805 36.6971 22.0805 36.7057 22.0805C36.7229 22.0633 36.7573 22.0547 36.7831 22.0547C36.8002 22.0633 36.8174 22.0976 36.8174 22.1234C36.8088 22.1578 36.8088 22.2007 36.8174 22.2437Z" fill="#7B2BF9"/>
</svg>