<svg xmlns="http://www.w3.org/2000/svg" width="42" height="42" viewBox="0 0 42 42" fill="none">
  <path fill-rule="evenodd" clip-rule="evenodd" d="M21.0002 41.7992C9.56019 41.7992 0.200195 32.4394 0.200195 20.8956C0.304195 9.45589 9.56019 0.0960793 21.1042 0.200077C32.5442 0.304075 41.8002 9.55989 41.8002 21.2076C41.6962 32.5434 32.4402 41.7992 21.0002 41.7992Z" fill="#0090FF"/>
  <path fill-rule="evenodd" clip-rule="evenodd" d="M22.9766 18.503L22.3526 21.831L28.2806 22.663L27.8646 24.2229L22.0406 23.3909C21.6246 24.7429 21.4166 26.1989 20.8966 27.4469C20.3766 28.9028 19.8566 30.3588 19.2326 31.7108C18.4006 33.4787 16.9446 34.7267 14.9686 35.0387C13.8246 35.2467 12.5766 35.1427 11.6406 34.4147C11.3286 34.2067 11.0166 33.7907 11.0166 33.4787C11.0166 33.0627 11.2246 32.5427 11.5366 32.3348C11.7446 32.2308 12.2646 32.3348 12.5766 32.4388C12.8886 32.7507 13.2006 33.1667 13.4086 33.5827C14.0326 34.4147 14.8646 34.5187 15.6966 33.8947C16.6326 33.0627 17.1526 31.9188 17.4646 30.7748C18.0886 28.2788 18.7126 25.8869 19.2326 23.3909V22.9749L13.7206 22.143L13.9286 20.583L19.6486 21.415L20.3766 18.191L14.4486 17.2551L14.6566 15.5911L20.7926 16.4231C21.0006 15.7991 21.1046 15.2791 21.3126 14.7591C21.8326 12.8872 22.3526 11.0152 23.6006 9.35123C24.8486 7.68726 26.3046 6.64728 28.4886 6.75128C29.4246 6.75128 30.3606 7.06327 30.9846 7.79126C31.0886 7.89526 31.2966 8.10325 31.2966 8.31125C31.2966 8.72724 31.2966 9.24723 30.9846 9.55922C30.5686 9.87122 30.0486 9.76722 29.6326 9.35123C29.3206 9.03923 29.1126 8.72724 28.8006 8.41525C28.1766 7.58326 27.2406 7.47927 26.5126 8.20725C25.9926 8.72724 25.4726 9.45523 25.1606 10.1832C24.4326 12.3672 23.9126 14.6551 23.1846 16.9431L28.9046 17.7751L28.4886 19.335L22.9766 18.503Z" fill="white"/>
</svg>