<svg width="48" height="48" viewBox="0 0 48 48" fill="none" xmlns="http://www.w3.org/2000/svg">
<rect width="48" height="48" rx="24" fill="url(#paint0_linear_37886_15222)" fill-opacity="0.1"/>
<rect x="0.5" y="0.5" width="47" height="47" rx="23.5" stroke="url(#paint1_linear_37886_15222)" stroke-opacity="0.15"/>
<g filter="url(#filter0_f_37886_15222)">
<path d="M26.25 35.25H31.25C32.907 35.25 34.25 33.907 34.25 32.25V29.25" stroke="url(#paint2_linear_37886_15222)" stroke-width="1.5" stroke-linecap="round" stroke-linejoin="round"/>
<path d="M19.25 24.25H14.25V29.25C14.25 30.355 15.145 31.25 16.25 31.25H19.25V24.25Z" stroke="url(#paint3_linear_37886_15222)" stroke-width="1.5" stroke-linecap="round" stroke-linejoin="round"/>
<path d="M34.25 24.25H29.25V31.25H32.25C33.355 31.25 34.25 30.355 34.25 29.25V24.25Z" stroke="url(#paint4_linear_37886_15222)" stroke-width="1.5" stroke-linecap="round" stroke-linejoin="round"/>
<path d="M34.25 24.25V23.25C34.25 17.727 29.773 13.25 24.25 13.25C18.727 13.25 14.25 17.727 14.25 23.25V24.25" stroke="url(#paint5_linear_37886_15222)" stroke-width="1.5" stroke-linecap="round" stroke-linejoin="round"/>
</g>
<path d="M26.25 35.25H31.25C32.907 35.25 34.25 33.907 34.25 32.25V29.25" stroke="url(#paint6_linear_37886_15222)" stroke-width="1.5" stroke-linecap="round" stroke-linejoin="round"/>
<path d="M19.25 24.25H14.25V29.25C14.25 30.355 15.145 31.25 16.25 31.25H19.25V24.25Z" stroke="url(#paint7_linear_37886_15222)" stroke-width="1.5" stroke-linecap="round" stroke-linejoin="round"/>
<path d="M34.25 24.25H29.25V31.25H32.25C33.355 31.25 34.25 30.355 34.25 29.25V24.25Z" stroke="url(#paint8_linear_37886_15222)" stroke-width="1.5" stroke-linecap="round" stroke-linejoin="round"/>
<path d="M34.25 24.25V23.25C34.25 17.727 29.773 13.25 24.25 13.25C18.727 13.25 14.25 17.727 14.25 23.25V24.25" stroke="url(#paint9_linear_37886_15222)" stroke-width="1.5" stroke-linecap="round" stroke-linejoin="round"/>
<defs>
<filter id="filter0_f_37886_15222" x="8" y="8" width="32" height="32" filterUnits="userSpaceOnUse" color-interpolation-filters="sRGB">
<feFlood flood-opacity="0" result="BackgroundImageFix"/>
<feBlend mode="normal" in="SourceGraphic" in2="BackgroundImageFix" result="shape"/>
<feGaussianBlur stdDeviation="2" result="effect1_foregroundBlur_37886_15222"/>
</filter>
<linearGradient id="paint0_linear_37886_15222" x1="0" y1="24" x2="48" y2="24" gradientUnits="userSpaceOnUse">
<stop stop-color="#FFE259"/>
<stop offset="1" stop-color="#FFA751"/>
</linearGradient>
<linearGradient id="paint1_linear_37886_15222" x1="0" y1="24" x2="48" y2="24" gradientUnits="userSpaceOnUse">
<stop stop-color="#FFE259"/>
<stop offset="1" stop-color="#FFA751"/>
</linearGradient>
<linearGradient id="paint2_linear_37886_15222" x1="26.25" y1="32.25" x2="34.25" y2="32.25" gradientUnits="userSpaceOnUse">
<stop stop-color="#FFE259"/>
<stop offset="1" stop-color="#FFA751"/>
</linearGradient>
<linearGradient id="paint3_linear_37886_15222" x1="14.25" y1="27.75" x2="19.25" y2="27.75" gradientUnits="userSpaceOnUse">
<stop stop-color="#FFE259"/>
<stop offset="1" stop-color="#FFA751"/>
</linearGradient>
<linearGradient id="paint4_linear_37886_15222" x1="29.25" y1="27.75" x2="34.25" y2="27.75" gradientUnits="userSpaceOnUse">
<stop stop-color="#FFE259"/>
<stop offset="1" stop-color="#FFA751"/>
</linearGradient>
<linearGradient id="paint5_linear_37886_15222" x1="14.25" y1="18.75" x2="34.25" y2="18.75" gradientUnits="userSpaceOnUse">
<stop stop-color="#FFE259"/>
<stop offset="1" stop-color="#FFA751"/>
</linearGradient>
<linearGradient id="paint6_linear_37886_15222" x1="26.25" y1="32.25" x2="34.25" y2="32.25" gradientUnits="userSpaceOnUse">
<stop stop-color="#FFE259"/>
<stop offset="1" stop-color="#FFA751"/>
</linearGradient>
<linearGradient id="paint7_linear_37886_15222" x1="14.25" y1="27.75" x2="19.25" y2="27.75" gradientUnits="userSpaceOnUse">
<stop stop-color="#FFE259"/>
<stop offset="1" stop-color="#FFA751"/>
</linearGradient>
<linearGradient id="paint8_linear_37886_15222" x1="29.25" y1="27.75" x2="34.25" y2="27.75" gradientUnits="userSpaceOnUse">
<stop stop-color="#FFE259"/>
<stop offset="1" stop-color="#FFA751"/>
</linearGradient>
<linearGradient id="paint9_linear_37886_15222" x1="14.25" y1="18.75" x2="34.25" y2="18.75" gradientUnits="userSpaceOnUse">
<stop stop-color="#FFE259"/>
<stop offset="1" stop-color="#FFA751"/>
</linearGradient>
</defs>
</svg>
