<svg xmlns="http://www.w3.org/2000/svg" width="38" height="38" viewBox="0 0 38 38" fill="none">
  <g clip-path="url(#clip0_37915_3685)">
    <path d="M30.0492 2.53801L22.3984 13.8921C21.8694 14.6653 22.8867 15.6013 23.6193 14.9501L31.1479 8.39816C31.3514 8.23538 31.6363 8.35747 31.6363 8.64234V29.1122C31.6363 29.3971 31.27 29.5191 31.1072 29.3157L8.31775 2.04966C7.58523 1.15436 6.52715 0.666016 5.34698 0.666016H4.53307C2.4169 0.666016 0.666992 2.41592 0.666992 4.57279V33.3852C0.666992 35.5421 2.4169 37.292 4.57376 37.292C5.91672 37.292 7.17828 36.6002 7.9108 35.42L15.5616 24.0659C16.0906 23.2927 15.0732 22.3567 14.3407 23.0079L6.81202 29.5191C6.60854 29.6819 6.32367 29.5598 6.32367 29.275V8.84582C6.32367 8.56095 6.68993 8.43886 6.85271 8.64234L29.6422 35.9083C30.3747 36.8036 31.4735 37.292 32.613 37.292H33.4269C35.5838 37.292 37.3337 35.5421 37.3337 33.3852V4.57279C37.3337 2.41592 35.5838 0.666016 33.4269 0.666016C32.0432 0.666016 30.7817 1.35784 30.0492 2.53801Z" fill="white"/>
  </g>
  <defs>
    <clipPath id="clip0_37915_3685">
      <rect width="36.6667" height="36.626" fill="white" transform="translate(0.666992 0.666016)"/>
    </clipPath>
  </defs>
</svg>