<svg width="48" height="48" viewBox="0 0 48 48" fill="none" xmlns="http://www.w3.org/2000/svg">
<rect width="48" height="48" rx="24" fill="url(#paint0_linear_37913_3423)"/>
<rect x="0.5" y="0.5" width="47" height="47" rx="23.5" stroke="url(#paint1_linear_37913_3423)" stroke-opacity="0.15"/>
<g clip-path="url(#clip0_37913_3423)" filter="url(#filter0_f_37913_3423)">
<path d="M15.625 34.625C15.0946 34.625 14.5859 34.4143 14.2108 34.0392C13.8357 33.6641 13.625 33.1554 13.625 32.625V24.625H15.125" stroke="white" stroke-width="1.5" stroke-linecap="round" stroke-linejoin="round"/>
<path d="M17.625 13.625V32.625C17.625 33.1554 17.4143 33.6641 17.0392 34.0392C16.6641 34.4143 16.1554 34.625 15.625 34.625H32.625C33.1554 34.625 33.6641 34.4143 34.0392 34.0392C34.4143 33.6641 34.625 33.1554 34.625 32.625V13.625H17.625Z" stroke="white" stroke-width="1.5" stroke-linecap="round" stroke-linejoin="round"/>
<path d="M21.125 25.625H31.125" stroke="white" stroke-width="1.5" stroke-linecap="round" stroke-linejoin="round"/>
<path d="M21.125 29.625H31.125" stroke="white" stroke-width="1.5" stroke-linecap="round" stroke-linejoin="round"/>
<path d="M31.125 17.625H21.125V21.625H31.125V17.625Z" stroke="white" stroke-width="1.5" stroke-linecap="round" stroke-linejoin="round"/>
</g>
<g clip-path="url(#clip1_37913_3423)">
<path d="M15.625 34.625C15.0946 34.625 14.5859 34.4143 14.2108 34.0392C13.8357 33.6641 13.625 33.1554 13.625 32.625V24.625H15.125" stroke="white" stroke-width="1.5" stroke-linecap="round" stroke-linejoin="round"/>
<path d="M17.625 13.625V32.625C17.625 33.1554 17.4143 33.6641 17.0392 34.0392C16.6641 34.4143 16.1554 34.625 15.625 34.625H32.625C33.1554 34.625 33.6641 34.4143 34.0392 34.0392C34.4143 33.6641 34.625 33.1554 34.625 32.625V13.625H17.625Z" stroke="white" stroke-width="1.5" stroke-linecap="round" stroke-linejoin="round"/>
<path d="M21.125 25.625H31.125" stroke="white" stroke-width="1.5" stroke-linecap="round" stroke-linejoin="round"/>
<path d="M21.125 29.625H31.125" stroke="white" stroke-width="1.5" stroke-linecap="round" stroke-linejoin="round"/>
<path d="M31.125 17.625H21.125V21.625H31.125V17.625Z" stroke="white" stroke-width="1.5" stroke-linecap="round" stroke-linejoin="round"/>
</g>
<defs>
<filter id="filter0_f_37913_3423" x="2" y="2" width="44" height="44" filterUnits="userSpaceOnUse" color-interpolation-filters="sRGB">
<feFlood flood-opacity="0" result="BackgroundImageFix"/>
<feBlend mode="normal" in="SourceGraphic" in2="BackgroundImageFix" result="shape"/>
<feGaussianBlur stdDeviation="5" result="effect1_foregroundBlur_37913_3423"/>
</filter>
<linearGradient id="paint0_linear_37913_3423" x1="24" y1="0" x2="24" y2="48" gradientUnits="userSpaceOnUse">
<stop/>
<stop offset="1" stop-color="#0F0F0F"/>
</linearGradient>
<linearGradient id="paint1_linear_37913_3423" x1="24" y1="0" x2="24" y2="31.1444" gradientUnits="userSpaceOnUse">
<stop stop-color="#ECECFB"/>
<stop offset="1" stop-color="#ECECFB"/>
</linearGradient>
<clipPath id="clip0_37913_3423">
<rect width="24" height="24" fill="white" transform="translate(12 12)"/>
</clipPath>
<clipPath id="clip1_37913_3423">
<rect width="24" height="24" fill="white" transform="translate(12 12)"/>
</clipPath>
</defs>
</svg>
