<svg xmlns="http://www.w3.org/2000/svg" width="44" height="44" viewBox="0 0 44 44" fill="none">
  <path d="M32.6682 29.2803L43.1048 23.2539C43.6581 22.9338 44 22.3401 44 21.703V9.65021C44 9.01307 43.6581 8.41945 43.1048 8.09932L32.6682 2.07291C32.1149 1.75279 31.4281 1.7559 30.878 2.07291L20.4413 8.09932C19.8881 8.41945 19.5462 9.01307 19.5462 9.65021V31.1886L12.2269 35.4124L4.90754 31.1886V22.7381L12.2269 18.5143L17.0537 21.302V15.6331L13.1219 13.3612C12.8515 13.2058 12.5409 13.1219 12.2269 13.1219C11.9129 13.1219 11.6022 13.2058 11.3318 13.3612L0.895113 19.3876C0.341887 19.7077 0 20.3014 0 20.9385V32.9914C0 33.6285 0.341887 34.222 0.895113 34.5421L11.3318 40.5686C11.8849 40.8856 12.5688 40.8856 13.1219 40.5686L23.5586 34.5421C24.1119 34.222 24.4537 33.6285 24.4537 32.9914V11.4497L24.5842 11.3751L31.77 7.22597L39.0894 11.4497V19.9004L31.77 24.1242L26.9494 21.3424V27.0116L30.8748 29.2773C31.4281 29.5943 32.1149 29.5943 32.6651 29.2773L32.6682 29.2803Z" fill="url(#paint0_linear_37915_3687)"/>
  <defs>
    <linearGradient id="paint0_linear_37915_3687" x1="-0.142971" y1="34.1723" x2="42.1103" y2="9.6471" gradientUnits="userSpaceOnUse">
      <stop stop-color="#A726C1"/>
      <stop offset="0.88" stop-color="#803BDF"/>
      <stop offset="1" stop-color="#7B3FE4"/>
    </linearGradient>
  </defs>
</svg>