<svg width="48" height="48" viewBox="0 0 48 48" fill="none" xmlns="http://www.w3.org/2000/svg">
<rect width="48" height="48" rx="24" fill="url(#paint0_linear_37915_3550)" fill-opacity="0.1"/>
<rect x="0.5" y="0.5" width="47" height="47" rx="23.5" stroke="url(#paint1_linear_37915_3550)" stroke-opacity="0.15"/>
<g filter="url(#filter0_f_37915_3550)">
<path d="M33.1875 26.7848V18.9907L26.4375 15.0938" stroke="url(#paint2_linear_37915_3550)" stroke-width="1.5" stroke-linecap="round" stroke-linejoin="round"/>
<path d="M17.4375 30.6816L24.1875 34.5786L30.9375 30.6816" stroke="url(#paint3_linear_37915_3550)" stroke-width="1.5" stroke-linecap="round" stroke-linejoin="round"/>
<path d="M15.1875 18.9922L24.1875 24.1882L33.1875 18.9922" stroke="url(#paint4_linear_37915_3550)" stroke-width="1.5" stroke-linecap="round" stroke-linejoin="round"/>
<path d="M21.9375 15.0938L15.1875 18.9938V26.7848" stroke="url(#paint5_linear_37915_3550)" stroke-width="1.5" stroke-linecap="round" stroke-linejoin="round"/>
<path d="M24.1875 34.5795V24.1875" stroke="url(#paint6_linear_37915_3550)" stroke-width="1.5" stroke-linecap="round" stroke-linejoin="round"/>
<path d="M21.9375 14.8125V18.5625C21.9375 19.1835 22.9448 19.6875 24.1875 19.6875C25.4302 19.6875 26.4375 19.1835 26.4375 18.5625V14.8125" stroke="url(#paint7_linear_37915_3550)" stroke-width="1.5" stroke-linecap="round" stroke-linejoin="round"/>
<path d="M24.1875 15.9375C25.4301 15.9375 26.4375 15.4338 26.4375 14.8125C26.4375 14.1912 25.4301 13.6875 24.1875 13.6875C22.9449 13.6875 21.9375 14.1912 21.9375 14.8125C21.9375 15.4338 22.9449 15.9375 24.1875 15.9375Z" stroke="url(#paint8_linear_37915_3550)" stroke-width="1.5" stroke-linecap="round" stroke-linejoin="round"/>
<path d="M33.4311 26.9257L30.1874 25.0507C29.6496 24.7402 28.7099 25.3605 28.0874 26.4367C27.4649 27.513 27.3989 28.6372 27.9374 28.9477L31.1849 30.8227" stroke="url(#paint9_linear_37915_3550)" stroke-width="1.5" stroke-linecap="round" stroke-linejoin="round"/>
<path d="M17.1938 30.8227L20.4413 28.9477C20.9791 28.6372 20.9116 27.513 20.2913 26.4367C19.6711 25.3605 18.7298 24.7402 18.1913 25.0507L14.9438 26.9257" stroke="url(#paint10_linear_37915_3550)" stroke-width="1.5" stroke-linecap="round" stroke-linejoin="round"/>
<path d="M17.1935 30.8228C17.7316 30.5121 17.6641 29.3879 17.0427 28.3118C16.4214 27.2357 15.4816 26.6151 14.9435 26.9258C14.4054 27.2364 14.4729 28.3607 15.0942 29.4368C15.7156 30.5129 16.6554 31.1334 17.1935 30.8228Z" stroke="url(#paint11_linear_37915_3550)" stroke-width="1.5" stroke-linecap="round" stroke-linejoin="round"/>
<path d="M33.4315 26.9257C32.8938 26.6152 31.954 27.2355 31.3315 28.3117C30.709 29.388 30.643 30.5122 31.1815 30.8227C31.72 31.1332 32.6598 30.513 33.2815 29.4367C33.9033 28.3605 33.97 27.2362 33.4315 26.9257Z" stroke="url(#paint12_linear_37915_3550)" stroke-width="1.5" stroke-linecap="round" stroke-linejoin="round"/>
</g>
<path d="M33.1875 26.7848V18.9907L26.4375 15.0938" stroke="url(#paint13_linear_37915_3550)" stroke-width="1.5" stroke-linecap="round" stroke-linejoin="round"/>
<path d="M17.4375 30.6816L24.1875 34.5786L30.9375 30.6816" stroke="url(#paint14_linear_37915_3550)" stroke-width="1.5" stroke-linecap="round" stroke-linejoin="round"/>
<path d="M15.1875 18.9922L24.1875 24.1882L33.1875 18.9922" stroke="url(#paint15_linear_37915_3550)" stroke-width="1.5" stroke-linecap="round" stroke-linejoin="round"/>
<path d="M21.9375 15.0938L15.1875 18.9938V26.7848" stroke="url(#paint16_linear_37915_3550)" stroke-width="1.5" stroke-linecap="round" stroke-linejoin="round"/>
<path d="M24.1875 34.5795V24.1875" stroke="url(#paint17_linear_37915_3550)" stroke-width="1.5" stroke-linecap="round" stroke-linejoin="round"/>
<path d="M21.9375 14.8125V18.5625C21.9375 19.1835 22.9448 19.6875 24.1875 19.6875C25.4302 19.6875 26.4375 19.1835 26.4375 18.5625V14.8125" stroke="url(#paint18_linear_37915_3550)" stroke-width="1.5" stroke-linecap="round" stroke-linejoin="round"/>
<path d="M24.1875 15.9375C25.4301 15.9375 26.4375 15.4338 26.4375 14.8125C26.4375 14.1912 25.4301 13.6875 24.1875 13.6875C22.9449 13.6875 21.9375 14.1912 21.9375 14.8125C21.9375 15.4338 22.9449 15.9375 24.1875 15.9375Z" stroke="url(#paint19_linear_37915_3550)" stroke-width="1.5" stroke-linecap="round" stroke-linejoin="round"/>
<path d="M33.4311 26.9257L30.1874 25.0507C29.6496 24.7402 28.7099 25.3605 28.0874 26.4367C27.4649 27.513 27.3989 28.6372 27.9374 28.9477L31.1849 30.8227" stroke="url(#paint20_linear_37915_3550)" stroke-width="1.5" stroke-linecap="round" stroke-linejoin="round"/>
<path d="M17.1938 30.8227L20.4413 28.9477C20.9791 28.6372 20.9116 27.513 20.2913 26.4367C19.6711 25.3605 18.7298 24.7402 18.1913 25.0507L14.9438 26.9257" stroke="url(#paint21_linear_37915_3550)" stroke-width="1.5" stroke-linecap="round" stroke-linejoin="round"/>
<path d="M17.1935 30.8228C17.7316 30.5121 17.6641 29.3879 17.0427 28.3118C16.4214 27.2357 15.4816 26.6151 14.9435 26.9258C14.4054 27.2364 14.4729 28.3607 15.0942 29.4368C15.7156 30.5129 16.6554 31.1334 17.1935 30.8228Z" stroke="url(#paint22_linear_37915_3550)" stroke-width="1.5" stroke-linecap="round" stroke-linejoin="round"/>
<path d="M33.4315 26.9257C32.8938 26.6152 31.954 27.2355 31.3315 28.3117C30.709 29.388 30.643 30.5122 31.1815 30.8227C31.72 31.1332 32.6598 30.513 33.2815 29.4367C33.9033 28.3605 33.97 27.2362 33.4315 26.9257Z" stroke="url(#paint23_linear_37915_3550)" stroke-width="1.5" stroke-linecap="round" stroke-linejoin="round"/>
<defs>
<filter id="filter0_f_37915_3550" x="2" y="2" width="44" height="44" filterUnits="userSpaceOnUse" color-interpolation-filters="sRGB">
<feFlood flood-opacity="0" result="BackgroundImageFix"/>
<feBlend mode="normal" in="SourceGraphic" in2="BackgroundImageFix" result="shape"/>
<feGaussianBlur stdDeviation="5" result="effect1_foregroundBlur_37915_3550"/>
</filter>
<linearGradient id="paint0_linear_37915_3550" x1="0" y1="24" x2="48" y2="24" gradientUnits="userSpaceOnUse">
<stop stop-color="#FFE259"/>
<stop offset="1" stop-color="#FFA751"/>
</linearGradient>
<linearGradient id="paint1_linear_37915_3550" x1="0" y1="24" x2="48" y2="24" gradientUnits="userSpaceOnUse">
<stop stop-color="#FFE259"/>
<stop offset="1" stop-color="#FFA751"/>
</linearGradient>
<linearGradient id="paint2_linear_37915_3550" x1="26.4375" y1="20.9393" x2="33.1875" y2="20.9393" gradientUnits="userSpaceOnUse">
<stop stop-color="#FFE259"/>
<stop offset="1" stop-color="#FFA751"/>
</linearGradient>
<linearGradient id="paint3_linear_37915_3550" x1="17.4375" y1="32.6301" x2="30.9375" y2="32.6301" gradientUnits="userSpaceOnUse">
<stop stop-color="#FFE259"/>
<stop offset="1" stop-color="#FFA751"/>
</linearGradient>
<linearGradient id="paint4_linear_37915_3550" x1="15.1875" y1="21.5902" x2="33.1875" y2="21.5902" gradientUnits="userSpaceOnUse">
<stop stop-color="#FFE259"/>
<stop offset="1" stop-color="#FFA751"/>
</linearGradient>
<linearGradient id="paint5_linear_37915_3550" x1="15.1875" y1="20.9393" x2="21.9375" y2="20.9393" gradientUnits="userSpaceOnUse">
<stop stop-color="#FFE259"/>
<stop offset="1" stop-color="#FFA751"/>
</linearGradient>
<linearGradient id="paint6_linear_37915_3550" x1="24.1875" y1="29.3835" x2="25.1875" y2="29.3835" gradientUnits="userSpaceOnUse">
<stop stop-color="#FFE259"/>
<stop offset="1" stop-color="#FFA751"/>
</linearGradient>
<linearGradient id="paint7_linear_37915_3550" x1="21.9375" y1="17.25" x2="26.4375" y2="17.25" gradientUnits="userSpaceOnUse">
<stop stop-color="#FFE259"/>
<stop offset="1" stop-color="#FFA751"/>
</linearGradient>
<linearGradient id="paint8_linear_37915_3550" x1="21.9375" y1="14.8125" x2="26.4375" y2="14.8125" gradientUnits="userSpaceOnUse">
<stop stop-color="#FFE259"/>
<stop offset="1" stop-color="#FFA751"/>
</linearGradient>
<linearGradient id="paint9_linear_37915_3550" x1="27.5732" y1="27.8967" x2="33.4311" y2="27.8967" gradientUnits="userSpaceOnUse">
<stop stop-color="#FFE259"/>
<stop offset="1" stop-color="#FFA751"/>
</linearGradient>
<linearGradient id="paint10_linear_37915_3550" x1="14.9438" y1="27.8967" x2="20.8044" y2="27.8967" gradientUnits="userSpaceOnUse">
<stop stop-color="#FFE259"/>
<stop offset="1" stop-color="#FFA751"/>
</linearGradient>
<linearGradient id="paint11_linear_37915_3550" x1="15.0942" y1="29.4368" x2="17.0427" y2="28.3118" gradientUnits="userSpaceOnUse">
<stop stop-color="#FFE259"/>
<stop offset="1" stop-color="#FFA751"/>
</linearGradient>
<linearGradient id="paint12_linear_37915_3550" x1="30.8174" y1="28.8742" x2="33.7954" y2="28.8742" gradientUnits="userSpaceOnUse">
<stop stop-color="#FFE259"/>
<stop offset="1" stop-color="#FFA751"/>
</linearGradient>
<linearGradient id="paint13_linear_37915_3550" x1="26.4375" y1="20.9393" x2="33.1875" y2="20.9393" gradientUnits="userSpaceOnUse">
<stop stop-color="#FFE259"/>
<stop offset="1" stop-color="#FFA751"/>
</linearGradient>
<linearGradient id="paint14_linear_37915_3550" x1="17.4375" y1="32.6301" x2="30.9375" y2="32.6301" gradientUnits="userSpaceOnUse">
<stop stop-color="#FFE259"/>
<stop offset="1" stop-color="#FFA751"/>
</linearGradient>
<linearGradient id="paint15_linear_37915_3550" x1="15.1875" y1="21.5902" x2="33.1875" y2="21.5902" gradientUnits="userSpaceOnUse">
<stop stop-color="#FFE259"/>
<stop offset="1" stop-color="#FFA751"/>
</linearGradient>
<linearGradient id="paint16_linear_37915_3550" x1="15.1875" y1="20.9393" x2="21.9375" y2="20.9393" gradientUnits="userSpaceOnUse">
<stop stop-color="#FFE259"/>
<stop offset="1" stop-color="#FFA751"/>
</linearGradient>
<linearGradient id="paint17_linear_37915_3550" x1="24.1875" y1="29.3835" x2="25.1875" y2="29.3835" gradientUnits="userSpaceOnUse">
<stop stop-color="#FFE259"/>
<stop offset="1" stop-color="#FFA751"/>
</linearGradient>
<linearGradient id="paint18_linear_37915_3550" x1="21.9375" y1="17.25" x2="26.4375" y2="17.25" gradientUnits="userSpaceOnUse">
<stop stop-color="#FFE259"/>
<stop offset="1" stop-color="#FFA751"/>
</linearGradient>
<linearGradient id="paint19_linear_37915_3550" x1="21.9375" y1="14.8125" x2="26.4375" y2="14.8125" gradientUnits="userSpaceOnUse">
<stop stop-color="#FFE259"/>
<stop offset="1" stop-color="#FFA751"/>
</linearGradient>
<linearGradient id="paint20_linear_37915_3550" x1="27.5732" y1="27.8967" x2="33.4311" y2="27.8967" gradientUnits="userSpaceOnUse">
<stop stop-color="#FFE259"/>
<stop offset="1" stop-color="#FFA751"/>
</linearGradient>
<linearGradient id="paint21_linear_37915_3550" x1="14.9438" y1="27.8967" x2="20.8044" y2="27.8967" gradientUnits="userSpaceOnUse">
<stop stop-color="#FFE259"/>
<stop offset="1" stop-color="#FFA751"/>
</linearGradient>
<linearGradient id="paint22_linear_37915_3550" x1="15.0942" y1="29.4368" x2="17.0427" y2="28.3118" gradientUnits="userSpaceOnUse">
<stop stop-color="#FFE259"/>
<stop offset="1" stop-color="#FFA751"/>
</linearGradient>
<linearGradient id="paint23_linear_37915_3550" x1="30.8174" y1="28.8742" x2="33.7954" y2="28.8742" gradientUnits="userSpaceOnUse">
<stop stop-color="#FFE259"/>
<stop offset="1" stop-color="#FFA751"/>
</linearGradient>
</defs>
</svg>
