<svg width="48" height="48" viewBox="0 0 48 48" fill="none" xmlns="http://www.w3.org/2000/svg">
<rect width="48" height="48" rx="24" fill="url(#paint0_linear_37881_4222)"/>
<rect x="0.5" y="0.5" width="47" height="47" rx="23.5" stroke="url(#paint1_linear_37881_4222)" stroke-opacity="0.15"/>
<g filter="url(#filter0_f_37881_4222)">
<path d="M19.5839 31V28.58L24.1439 24C24.7839 23.3467 25.2572 22.76 25.5639 22.24C25.8706 21.7067 26.0239 21.16 26.0239 20.6C26.0239 19.92 25.8372 19.3933 25.4639 19.02C25.0906 18.6333 24.5839 18.44 23.9439 18.44C23.2372 18.44 22.6839 18.6467 22.2839 19.06C21.8839 19.46 21.6839 20.02 21.6839 20.74H19.1839C19.1972 19.8067 19.3972 19.0067 19.7839 18.34C20.1839 17.66 20.7439 17.1333 21.4639 16.76C22.1839 16.3867 23.0239 16.2 23.9839 16.2C24.9039 16.2 25.7039 16.3733 26.3839 16.72C27.0639 17.0667 27.5906 17.5533 27.9639 18.18C28.3372 18.8067 28.5239 19.5533 28.5239 20.42C28.5239 21.3133 28.2906 22.1867 27.8239 23.04C27.3706 23.88 26.6372 24.7867 25.6239 25.76L22.5839 28.74H28.7039V31H19.5839Z" fill="white"/>
</g>
<path d="M19.5839 31V28.58L24.1439 24C24.7839 23.3467 25.2572 22.76 25.5639 22.24C25.8706 21.7067 26.0239 21.16 26.0239 20.6C26.0239 19.92 25.8372 19.3933 25.4639 19.02C25.0906 18.6333 24.5839 18.44 23.9439 18.44C23.2372 18.44 22.6839 18.6467 22.2839 19.06C21.8839 19.46 21.6839 20.02 21.6839 20.74H19.1839C19.1972 19.8067 19.3972 19.0067 19.7839 18.34C20.1839 17.66 20.7439 17.1333 21.4639 16.76C22.1839 16.3867 23.0239 16.2 23.9839 16.2C24.9039 16.2 25.7039 16.3733 26.3839 16.72C27.0639 17.0667 27.5906 17.5533 27.9639 18.18C28.3372 18.8067 28.5239 19.5533 28.5239 20.42C28.5239 21.3133 28.2906 22.1867 27.8239 23.04C27.3706 23.88 26.6372 24.7867 25.6239 25.76L22.5839 28.74H28.7039V31H19.5839Z" fill="white"/>
<defs>
<filter id="filter0_f_37881_4222" x="9.18408" y="6.19922" width="29.52" height="34.8008" filterUnits="userSpaceOnUse" color-interpolation-filters="sRGB">
<feFlood flood-opacity="0" result="BackgroundImageFix"/>
<feBlend mode="normal" in="SourceGraphic" in2="BackgroundImageFix" result="shape"/>
<feGaussianBlur stdDeviation="5" result="effect1_foregroundBlur_37881_4222"/>
</filter>
<linearGradient id="paint0_linear_37881_4222" x1="24" y1="0" x2="24" y2="48" gradientUnits="userSpaceOnUse">
<stop/>
<stop offset="1" stop-color="#0F0F0F"/>
</linearGradient>
<linearGradient id="paint1_linear_37881_4222" x1="24" y1="0" x2="24" y2="31.1444" gradientUnits="userSpaceOnUse">
<stop stop-color="#ECECFB"/>
<stop offset="1" stop-color="#ECECFB"/>
</linearGradient>
</defs>
</svg>
