<svg width="48" height="48" viewBox="0 0 48 48" fill="none" xmlns="http://www.w3.org/2000/svg">
<rect width="48" height="48" rx="24" fill="url(#paint0_linear_37881_4560)"/>
<rect x="0.5" y="0.5" width="47" height="47" rx="23.5" stroke="url(#paint1_linear_37881_4560)" stroke-opacity="0.15"/>
<g filter="url(#filter0_f_37881_4560)">
<path d="M23.8639 31.2C22.9172 31.2 22.0906 31.0267 21.3839 30.68C20.6906 30.3333 20.1506 29.8467 19.7639 29.22C19.3772 28.5933 19.1839 27.8533 19.1839 27H21.7039C21.7039 27.6533 21.8906 28.1667 22.2639 28.54C22.6506 28.9 23.1906 29.08 23.8839 29.08C24.5772 29.08 25.1106 28.8933 25.4839 28.52C25.8572 28.1467 26.0439 27.64 26.0439 27V25.86C26.0439 25.2067 25.8572 24.7 25.4839 24.34C25.1106 23.9667 24.5772 23.78 23.8839 23.78H22.2439V21.52L25.4639 18.54H19.8439V16.4H28.0039V18.66L23.8839 22.44V21.64C25.3239 21.64 26.4639 22.02 27.3039 22.78C28.1439 23.54 28.5639 24.5667 28.5639 25.86V27C28.5639 27.8533 28.3706 28.5933 27.9839 29.22C27.5972 29.8467 27.0506 30.3333 26.3439 30.68C25.6372 31.0267 24.8106 31.2 23.8639 31.2Z" fill="white"/>
</g>
<path d="M23.8639 31.2C22.9172 31.2 22.0906 31.0267 21.3839 30.68C20.6906 30.3333 20.1506 29.8467 19.7639 29.22C19.3772 28.5933 19.1839 27.8533 19.1839 27H21.7039C21.7039 27.6533 21.8906 28.1667 22.2639 28.54C22.6506 28.9 23.1906 29.08 23.8839 29.08C24.5772 29.08 25.1106 28.8933 25.4839 28.52C25.8572 28.1467 26.0439 27.64 26.0439 27V25.86C26.0439 25.2067 25.8572 24.7 25.4839 24.34C25.1106 23.9667 24.5772 23.78 23.8839 23.78H22.2439V21.52L25.4639 18.54H19.8439V16.4H28.0039V18.66L23.8839 22.44V21.64C25.3239 21.64 26.4639 22.02 27.3039 22.78C28.1439 23.54 28.5639 24.5667 28.5639 25.86V27C28.5639 27.8533 28.3706 28.5933 27.9839 29.22C27.5972 29.8467 27.0506 30.3333 26.3439 30.68C25.6372 31.0267 24.8106 31.2 23.8639 31.2Z" fill="white"/>
<defs>
<filter id="filter0_f_37881_4560" x="9.18408" y="6.40039" width="29.3799" height="34.7988" filterUnits="userSpaceOnUse" color-interpolation-filters="sRGB">
<feFlood flood-opacity="0" result="BackgroundImageFix"/>
<feBlend mode="normal" in="SourceGraphic" in2="BackgroundImageFix" result="shape"/>
<feGaussianBlur stdDeviation="5" result="effect1_foregroundBlur_37881_4560"/>
</filter>
<linearGradient id="paint0_linear_37881_4560" x1="24" y1="0" x2="24" y2="48" gradientUnits="userSpaceOnUse">
<stop/>
<stop offset="1" stop-color="#0F0F0F"/>
</linearGradient>
<linearGradient id="paint1_linear_37881_4560" x1="24" y1="0" x2="24" y2="31.1444" gradientUnits="userSpaceOnUse">
<stop stop-color="#ECECFB"/>
<stop offset="1" stop-color="#ECECFB"/>
</linearGradient>
</defs>
</svg>
