<svg xmlns="http://www.w3.org/2000/svg" width="44" height="44" viewBox="0 0 44 44" fill="none">
  <g clip-path="url(#clip0_37915_3691)">
    <path d="M43.3419 27.3202C40.4025 39.1122 28.4553 46.2804 16.6801 43.3408C4.88776 40.4014 -2.28046 28.4547 0.659117 16.6798C3.59852 4.88776 15.5284 -2.28046 27.3207 0.659118C39.0959 3.58134 46.2814 15.528 43.3419 27.3202Z" fill="url(#paint0_linear_37915_3691)"/>
    <path d="M32.4748 19.2594C32.9045 16.3375 30.6873 14.7562 27.6279 13.7078L28.6248 9.7375L26.2186 9.13594L25.2561 13.0031C24.6201 12.8484 23.967 12.6938 23.3139 12.5563L24.2764 8.67188L21.8701 8.07031L20.8904 12.0234C20.3576 11.9031 19.842 11.7828 19.3436 11.6625V11.6453L16.0092 10.8203L15.3732 13.3984C15.3732 13.3984 17.1607 13.8109 17.1264 13.8281C18.1061 14.0687 18.2779 14.7219 18.2436 15.2375L17.1092 19.7578C17.1779 19.775 17.2639 19.7922 17.367 19.8438C17.2811 19.8266 17.1951 19.8094 17.1092 19.775L15.5279 26.1C15.4076 26.3922 15.0982 26.8391 14.4279 26.6672C14.4451 26.7016 12.6748 26.2375 12.6748 26.2375L11.4717 29.0047L14.617 29.7953C15.2014 29.95 15.7686 30.0875 16.3357 30.2422L15.3389 34.2469L17.7451 34.8484L18.742 30.8781C19.3951 31.05 20.0482 31.2219 20.667 31.3766L19.6873 35.3297L22.0936 35.9313L23.0904 31.9266C27.2154 32.7 30.3092 32.3906 31.5982 28.6609C32.6467 25.6703 31.5467 23.9344 29.3811 22.8C30.9795 22.4391 32.1654 21.3906 32.4748 19.2594ZM26.9576 26.9938C26.2186 29.9844 21.1654 28.3687 19.5326 27.9562L20.8561 22.6453C22.4889 23.0578 27.7482 23.8656 26.9576 26.9938ZM27.7139 19.2078C27.0264 21.9406 22.8326 20.5484 21.4748 20.2047L22.6779 15.3922C24.0357 15.7359 28.4186 16.3719 27.7139 19.2078Z" fill="white"/>
  </g>
  <defs>
    <linearGradient id="paint0_linear_37915_3691" x1="2198.81" y1="-1.056" x2="2198.81" y2="4399.56" gradientUnits="userSpaceOnUse">
      <stop stop-color="#F9AA4B"/>
      <stop offset="1" stop-color="#F7931A"/>
    </linearGradient>
    <clipPath id="clip0_37915_3691">
      <rect width="44" height="44" fill="white"/>
    </clipPath>
  </defs>
</svg>