<svg width="16" height="16" viewBox="0 0 16 16" fill="none" xmlns="http://www.w3.org/2000/svg">
<path d="M10.9067 9.33301C10.96 8.89301 11 8.45301 11 7.99967C11 7.54634 10.96 7.10634 10.9067 6.66634H13.16C13.2667 7.09301 13.3334 7.53967 13.3334 7.99967C13.3334 8.45967 13.2667 8.90634 13.16 9.33301M9.72671 13.0397C10.1267 12.2997 10.4334 11.4997 10.6467 10.6663H12.6134C11.9675 11.7785 10.9428 12.621 9.72671 13.0397ZM9.56004 9.33301H6.44004C6.37337 8.89301 6.33337 8.45301 6.33337 7.99967C6.33337 7.54634 6.37337 7.09967 6.44004 6.66634H9.56004C9.62004 7.09967 9.66671 7.54634 9.66671 7.99967C9.66671 8.45301 9.62004 8.89301 9.56004 9.33301ZM8.00004 13.3063C7.44671 12.5063 7.00004 11.6197 6.72671 10.6663H9.27337C9.00004 11.6197 8.55337 12.5063 8.00004 13.3063ZM5.33337 5.33301H3.38671C4.0258 4.2177 5.04981 3.37384 6.26671 2.95967C5.86671 3.69967 5.56671 4.49967 5.33337 5.33301ZM3.38671 10.6663H5.33337C5.56671 11.4997 5.86671 12.2997 6.26671 13.0397C5.05222 12.6212 4.02957 11.7785 3.38671 10.6663ZM2.84004 9.33301C2.73337 8.90634 2.66671 8.45967 2.66671 7.99967C2.66671 7.53967 2.73337 7.09301 2.84004 6.66634H5.09337C5.04004 7.10634 5.00004 7.54634 5.00004 7.99967C5.00004 8.45301 5.04004 8.89301 5.09337 9.33301M8.00004 2.68634C8.55337 3.48634 9.00004 4.37967 9.27337 5.33301H6.72671C7.00004 4.37967 7.44671 3.48634 8.00004 2.68634ZM12.6134 5.33301H10.6467C10.4377 4.50741 10.1288 3.71041 9.72671 2.95967C10.9534 3.37967 11.9734 4.22634 12.6134 5.33301ZM8.00004 1.33301C4.31337 1.33301 1.33337 4.33301 1.33337 7.99967C1.33337 9.76778 2.03575 11.4635 3.286 12.7137C3.90505 13.3328 4.63998 13.8238 5.44882 14.1589C6.25765 14.4939 7.12456 14.6663 8.00004 14.6663C9.76815 14.6663 11.4638 13.964 12.7141 12.7137C13.9643 11.4635 14.6667 9.76778 14.6667 7.99967C14.6667 7.1242 14.4943 6.25729 14.1592 5.44845C13.8242 4.63961 13.3331 3.90469 12.7141 3.28563C12.095 2.66657 11.3601 2.17551 10.5513 1.84048C9.74243 1.50545 8.87552 1.33301 8.00004 1.33301Z" fill="white"/>
</svg>
