<svg xmlns="http://www.w3.org/2000/svg" width="40" height="40" viewBox="0 0 40 40" fill="none">
<path d="M32.5 27.5H30.8333C28.715 27.5 27.5 28.715 27.5 30.8333V32.5C27.5 34.6183 28.715 35.8333 30.8333 35.8333H32.5C34.6183 35.8333 35.8333 34.6183 35.8333 32.5V30.8333C35.8333 28.715 34.6183 27.5 32.5 27.5Z" fill="#686A6C"/>
<path d="M9.16675 27.5H7.50008C5.38175 27.5 4.16675 28.715 4.16675 30.8333V32.5C4.16675 34.6183 5.38175 35.8333 7.50008 35.8333H9.16675C11.2851 35.8333 12.5001 34.6183 12.5001 32.5V30.8333C12.5001 28.715 11.2851 27.5 9.16675 27.5Z" fill="#686A6C"/>
<path d="M32.5 4.1665H30.8333C28.715 4.1665 27.5 5.3815 27.5 7.49984V9.1665C27.5 11.2848 28.715 12.4998 30.8333 12.4998H32.5C34.6183 12.4998 35.8333 11.2848 35.8333 9.1665V7.49984C35.8333 5.3815 34.6183 4.1665 32.5 4.1665Z" fill="#686A6C"/>
<path d="M9.16675 4.1665H7.50008C5.38175 4.1665 4.16675 5.3815 4.16675 7.49984V9.1665C4.16675 11.2848 5.38175 12.4998 7.50008 12.4998H9.16675C11.2851 12.4998 12.5001 11.2848 12.5001 9.1665V7.49984C12.5001 5.3815 11.2851 4.1665 9.16675 4.1665Z" fill="#686A6C"/>
<path d="M28.3334 9.5835H11.6667C10.9767 9.5835 10.4167 9.0235 10.4167 8.3335C10.4167 7.6435 10.9767 7.0835 11.6667 7.0835H28.3334C29.0234 7.0835 29.5834 7.6435 29.5834 8.3335C29.5834 9.0235 29.0234 9.5835 28.3334 9.5835Z" fill="#E1E2E2"/>
<path d="M31.6667 29.5832C30.9767 29.5832 30.4167 29.0232 30.4167 28.3332V11.6665C30.4167 10.9765 30.9767 10.4165 31.6667 10.4165C32.3567 10.4165 32.9167 10.9765 32.9167 11.6665V28.3332C32.9167 29.0232 32.3567 29.5832 31.6667 29.5832Z" fill="#E1E2E2"/>
<path d="M8.33325 29.5832C7.64325 29.5832 7.08325 29.0232 7.08325 28.3332V11.6665C7.08325 10.9765 7.64325 10.4165 8.33325 10.4165C9.02325 10.4165 9.58325 10.9765 9.58325 11.6665V28.3332C9.58325 29.0232 9.02325 29.5832 8.33325 29.5832Z" fill="#E1E2E2"/>
<path d="M28.3334 32.9165H11.6667C10.9767 32.9165 10.4167 32.3565 10.4167 31.6665C10.4167 30.9765 10.9767 30.4165 11.6667 30.4165H28.3334C29.0234 30.4165 29.5834 30.9765 29.5834 31.6665C29.5834 32.3565 29.0234 32.9165 28.3334 32.9165Z" fill="#E1E2E2"/>
</svg>