<svg xmlns="http://www.w3.org/2000/svg" width="40" height="40" viewBox="0 0 40 40" fill="none">
  <path fill-rule="evenodd" clip-rule="evenodd" d="M10 30H30C33.3333 30 35 28.2051 35 24.6151V12.05C35 8.45997 33.3333 6.66504 30 6.66504H10C6.66667 6.66504 5 8.45997 5 12.05V24.6151C5 28.2051 6.66667 30 10 30Z" fill="#E1E2E2"/>
  <path d="M28.3334 36.25H11.6667C10.9767 36.25 10.4167 35.69 10.4167 35C10.4167 34.31 10.9767 33.75 11.6667 33.75H28.3334C29.0234 33.75 29.5834 34.31 29.5834 35C29.5834 35.69 29.0234 36.25 28.3334 36.25Z" fill="#686A6C"/>
</svg>