<svg xmlns="http://www.w3.org/2000/svg" width="40" height="40" viewBox="0 0 40 40" fill="none">
<path d="M19.9999 36.6668C29.2047 36.6668 36.6666 29.2049 36.6666 20.0002C36.6666 10.7954 29.2047 3.3335 19.9999 3.3335C10.7952 3.3335 3.33325 10.7954 3.33325 20.0002C3.33325 29.2049 10.7952 36.6668 19.9999 36.6668Z" fill="#E1E2E2"/>
<path d="M27.7917 19.9203C26.7567 25.2586 19.9999 28.3335 19.9999 28.3335C19.9999 28.3335 13.2432 25.2586 12.2082 19.9203C11.5732 16.6453 12.96 13.3502 16.49 13.3335C19.1183 13.3202 19.9999 15.9702 19.9999 15.9702C19.9999 15.9702 20.8815 13.3202 23.5099 13.3335C27.0465 13.3502 28.4267 16.6453 27.7917 19.9203Z" fill="#686A6C"/>
</svg>