<svg xmlns="http://www.w3.org/2000/svg" width="40" height="40" viewBox="0 0 40 40" fill="none">
<path d="M35.2283 19.1985L30.6834 17.9001C26.5034 16.7051 23.2934 13.4968 22.0984 9.31512L20.8 4.77014C20.595 4.05514 19.4017 4.05514 19.1967 4.77014L17.8984 9.31512C16.7034 13.4968 13.4934 16.7068 9.31337 17.9001L4.76834 19.1985C4.41001 19.3002 4.16333 19.6285 4.16333 20.0001C4.16333 20.3718 4.41001 20.6985 4.76834 20.8018L9.31337 22.1002C13.4934 23.2952 16.7034 26.5035 17.8984 30.6852L19.1967 35.2301C19.3 35.5885 19.6267 35.8351 19.9983 35.8351C20.37 35.8351 20.6967 35.5885 20.8 35.2301L22.0984 30.6852C23.2934 26.5035 26.5034 23.2935 30.6834 22.1002L35.2283 20.8018C35.5867 20.7001 35.8334 20.3718 35.8334 20.0001C35.8334 19.6285 35.5867 19.3018 35.2283 19.1985Z" fill="#E1E2E2"/>
</svg>