<svg width="200" height="201" viewBox="0 0 200 201" fill="none" xmlns="http://www.w3.org/2000/svg">
<rect y="0.5" width="200" height="200" rx="12" fill="black"/>
<path d="M67.644 156.463C63.8652 156.656 60.0851 156.084 56.5407 154.779C52.9964 153.474 49.7624 151.468 47.04 148.88C41.7083 143.223 38.4053 136.006 37.6358 128.329C36.4222 118.936 36.9476 109.405 39.1873 100.196C41.2146 90.0734 45.0554 80.3851 50.5305 71.585C55.2002 64.0247 61.4449 57.5235 68.8562 52.5118C75.3326 47.9248 83.0791 45.3955 91.0586 45.2645C96.3696 45.0659 101.599 46.5912 105.942 49.6032C109.999 52.6414 113.202 56.645 115.25 61.2374C117.736 66.6367 119.575 72.3007 120.728 78.1179C122.053 84.4756 123.071 91.1519 123.782 98.1454L126.836 120.795C127.492 126.777 129.009 132.637 131.344 138.199C131.969 139.995 133.123 141.567 134.659 142.714C136.197 143.86 138.048 144.531 139.973 144.637C142.947 144.528 145.804 143.473 148.118 141.633C150.98 139.502 153.686 137.176 156.214 134.671L161.061 140.44C157.445 144.507 153.324 148.111 148.797 151.17C144.593 154.249 139.495 155.921 134.253 155.937C132.17 156.024 130.095 155.639 128.187 154.812C126.279 153.986 124.589 152.739 123.249 151.17C120.209 147.405 117.938 143.098 116.559 138.486C114.797 132.805 113.564 126.98 112.875 121.082C112.05 114.739 111.323 108.493 110.595 102.389C109.529 93.3295 108.22 85.27 106.717 78.5468C105.658 72.7007 103.453 67.1125 100.222 62.0966C98.9224 60.1604 97.1392 58.5854 95.0415 57.5249C92.9439 56.4629 90.6035 55.9527 88.2466 56.0409C82.817 56.1499 77.6274 58.26 73.7038 61.9532C68.79 66.4823 64.792 71.887 61.9234 77.8793C58.2632 85.2203 55.6374 93.0165 54.119 101.054C52.3978 108.461 51.8586 116.086 52.5192 123.656C52.8571 129.327 54.9368 134.764 58.4811 139.249C60.1305 141.144 62.1965 142.644 64.5231 143.636C66.851 144.627 69.3762 145.084 71.9096 144.971C77.3737 144.935 82.697 143.271 87.1806 140.202C92.9577 136.296 98.1611 131.626 102.645 126.326C108.429 119.606 113.664 112.447 118.305 104.917C123.54 96.4284 128.953 87.0987 134.544 76.9263C140.136 66.7539 145.759 55.9458 151.414 44.5005L163 48.6971C156.247 60.9037 149.783 72.4124 143.61 83.2206C137.437 94.0287 131.312 103.914 125.236 112.88C119.79 121.051 113.712 128.799 107.056 136.053C101.602 142.012 95.2208 147.083 88.1501 151.075C81.893 154.56 74.8347 156.414 67.644 156.463Z" fill="white"/>
</svg>
