<svg width="80" height="80" viewBox="0 0 80 80" fill="none" xmlns="http://www.w3.org/2000/svg">
<path d="M22.8199 63.5996H6.93988C5.24989 63.5996 3.87988 64.9696 3.87988 66.6596V73.0396C3.87988 74.7296 5.24989 76.0996 6.93988 76.0996H22.8199C24.5099 76.0996 25.8799 74.7296 25.8799 73.0396V66.6596C25.8799 64.9696 24.5099 63.5996 22.8199 63.5996Z" stroke="#FA4E0E" stroke-width="1.82574" stroke-miterlimit="10"/>
<path d="M60.8199 63.5996H44.9399C43.2499 63.5996 41.8799 64.9696 41.8799 66.6596V73.0396C41.8799 74.7296 43.2499 76.0996 44.9399 76.0996H60.8199C62.5099 76.0996 63.8799 74.7296 63.8799 73.0396V66.6596C63.8799 64.9696 62.5099 63.5996 60.8199 63.5996Z" stroke="#FA4E0E" stroke-width="1.82574" stroke-miterlimit="10"/>
<path d="M22.8199 51.0996H6.93988C5.24989 51.0996 3.87988 52.4696 3.87988 54.1596V60.5396C3.87988 62.2296 5.24989 63.5996 6.93988 63.5996H22.8199C24.5099 63.5996 25.8799 62.2296 25.8799 60.5396V54.1596C25.8799 52.4696 24.5099 51.0996 22.8199 51.0996Z" stroke="#FA4E0E" stroke-width="1.82574" stroke-miterlimit="10"/>
<path d="M22.8199 38.5996H6.93988C5.24989 38.5996 3.87988 39.9696 3.87988 41.6596V48.0396C3.87988 49.7296 5.24989 51.0996 6.93988 51.0996H22.8199C24.5099 51.0996 25.8799 49.7296 25.8799 48.0396V41.6596C25.8799 39.9696 24.5099 38.5996 22.8199 38.5996Z" stroke="#FA4E0E" stroke-width="1.82574" stroke-miterlimit="10"/>
<path d="M50.1455 28.8373L34.7902 24.7889C33.156 24.3581 31.482 25.3335 31.0512 26.9677L29.4247 33.1369C28.9938 34.771 29.9693 36.445 31.6034 36.8759L46.9587 40.9243C48.5929 41.3551 50.2669 40.3797 50.6977 38.7455L52.3242 32.5763C52.7551 30.9422 51.7796 29.2682 50.1455 28.8373Z" stroke="#FA4E0E" stroke-width="1.82574" stroke-miterlimit="10"/>
<path d="M54.2901 35.4201L57.7201 41.6901C58.4901 43.1001 60.6501 41.8401 59.8801 40.4301L56.4501 34.1601C55.6801 32.7401 53.5201 34.0001 54.2901 35.4201Z" fill="#FA4E0E"/>
<path d="M51.9101 42.2204L55.2701 48.3804C56.0501 49.7904 58.2101 48.5304 57.4301 47.1204L54.0701 41.0004C53.2901 39.5904 51.1301 40.8504 51.9101 42.2604V42.2204Z" fill="#FA4E0E"/>
<path d="M58.76 33.2404L62.08 39.3104C62.85 40.7204 65.01 39.4604 64.24 38.0504L60.92 32.0004C60.15 30.5904 57.99 31.8504 58.76 33.2604V33.2404Z" fill="#FA4E0E"/>
<path d="M65.6799 29.1601C65.1284 29.5106 64.6357 29.9459 64.2199 30.4501H65.9999C63.2199 28.1101 60.7199 29.3801 58.8999 32.1101L60.8999 31.8601C58.8999 30.2701 57.3099 30.2901 55.3399 31.9601C55.0199 32.2201 54.9299 33.0301 54.6499 33.1401C54.1699 33.3201 55.4599 32.4801 54.5799 32.6501C53.3399 32.8901 52.6599 32.2001 51.3499 32.9301C46.7899 35.4801 51.4499 41.2601 53.0199 44.1401L53.4699 42.4301C52.0399 43.2401 49.8699 43.9701 49.0299 45.4301C47.7299 47.7401 49.5899 50.5301 50.9699 52.3101C52.7399 54.6101 55.2099 56.6201 58.2399 56.8101C60.2399 56.9401 59.7099 56.5201 60.8799 57.7501C61.5035 58.6379 62.0236 59.5941 62.4299 60.6001C62.5988 60.8845 62.8728 61.0912 63.1927 61.1754C63.5126 61.2596 63.8529 61.2146 64.1399 61.0501L79.1399 52.8701C79.4205 52.6976 79.6238 52.4237 79.7076 52.1052C79.7914 51.7868 79.7493 51.4482 79.5899 51.1601C78.6799 49.4901 77.7899 47.9901 77.8299 46.7601C77.9399 43.3901 78.0499 41.8601 76.3799 38.6301C74.2299 34.6901 71.8599 27.0001 65.9999 29.0001C64.4899 29.5301 65.1399 31.9501 66.6699 31.4101C70.1399 30.1801 71.8199 35.6001 72.9099 37.6101C73.8532 39.1058 74.6025 40.7154 75.1399 42.4001C75.6399 44.3401 75.0799 45.1701 75.1399 46.9201C75.1399 48.9801 76.3799 50.5401 77.4199 52.4401L77.8699 50.7301L62.8699 58.9101L64.5799 59.3601C63.5799 57.5901 62.9599 55.5001 61.2199 54.5701C59.7599 53.7801 57.4899 54.4501 55.8299 53.5201C54.1699 52.5901 51.1699 49.8301 51.1899 47.8101C51.1899 45.9801 53.3899 45.3101 54.7199 44.5501C55.0024 44.3794 55.2074 44.1054 55.2914 43.7862C55.3754 43.467 55.3318 43.1277 55.1699 42.8401C54.4399 41.5101 53.0199 39.7401 52.6699 38.2701C52.2399 36.4901 50.1599 37.3301 54.5699 35.5401C54.7899 35.4501 55.5699 35.6501 55.9599 35.5401C56.1676 35.4824 56.3569 35.372 56.5093 35.2195C56.6618 35.0671 56.7722 34.8778 56.8299 34.6701L59.1299 33.6001C59.2658 33.7407 59.4325 33.8478 59.6169 33.9128C59.8013 33.9779 59.9983 33.9991 60.1924 33.9749C60.3864 33.9506 60.5721 33.8815 60.7349 33.7731C60.8976 33.6646 61.0328 33.5198 61.1299 33.3501C61.6899 31.8901 62.7466 31.5067 64.2999 32.2001C64.5381 32.428 64.8551 32.5553 65.1849 32.5553C65.5146 32.5553 65.8317 32.428 66.0699 32.2001L67.0699 31.3001C68.2399 30.3901 66.9999 28.2201 65.6799 29.1601Z" fill="#FA4E0E"/>
<path d="M64.1299 32.0797L66.6999 36.7797C67.4699 38.1897 69.6299 36.9297 68.8599 35.5197L66.2899 30.8197C65.5199 29.4097 63.3599 30.6697 64.1299 32.0797Z" fill="#FA4E0E"/>
<path d="M14.87 26.1496C17.9146 22.4899 21.653 19.4686 25.87 17.2596C36.55 11.8496 47.51 14.7796 56.78 21.6396C58.07 22.5896 59.32 20.4196 58.04 19.4796C48.65 12.4796 37.41 9.41959 26.36 14.2696C21.0002 16.6237 16.3096 20.2731 12.71 24.8896C11.71 26.1696 13.9 27.4196 14.87 26.1496Z" fill="#FA4E0E"/>
<path d="M55.5201 17.8103L57.1401 22.0003L58.3401 20.4103L54.3401 20.0403C52.7401 19.8903 52.7501 22.3903 54.3401 22.5403L58.3401 22.9103C58.5327 22.911 58.7229 22.8671 58.8958 22.7821C59.0687 22.6971 59.2197 22.5733 59.3368 22.4203C59.454 22.2673 59.5342 22.0894 59.5711 21.9003C59.6081 21.7112 59.6009 21.5161 59.5501 21.3303L57.9301 17.1603C57.8305 16.8477 57.6164 16.5844 57.3308 16.423C57.0452 16.2617 56.7092 16.2143 56.3901 16.2903C56.0718 16.3813 55.8022 16.5938 55.6394 16.882C55.4766 17.1701 55.4338 17.5108 55.5201 17.8303V17.8103Z" fill="#FA4E0E"/>
<path d="M6.30012 31.2301L9.30012 35.2301C9.47421 35.5088 9.7481 35.7105 10.0659 35.7942C10.3837 35.8778 10.7214 35.837 11.0101 35.6801C11.2866 35.5116 11.4877 35.243 11.5715 34.9302C11.6553 34.6174 11.6154 34.2843 11.4601 34.0001L8.46012 30.0001C8.28602 29.7214 8.01213 29.5197 7.69434 29.436C7.37656 29.3524 7.03884 29.3932 6.75012 29.5501C6.46563 29.719 6.25898 29.993 6.17479 30.3129C6.0906 30.6328 6.13561 30.9731 6.30012 31.2601V31.2301Z" fill="#FA4E0E"/>
<path d="M15.1299 28.5996V33.5996C15.1299 33.9311 15.2616 34.2491 15.496 34.4835C15.7304 34.7179 16.0484 34.8496 16.3799 34.8496C16.7114 34.8496 17.0293 34.7179 17.2638 34.4835C17.4982 34.2491 17.6299 33.9311 17.6299 33.5996V28.5996C17.6299 28.2681 17.4982 27.9501 17.2638 27.7157C17.0293 27.4813 16.7114 27.3496 16.3799 27.3496C16.0484 27.3496 15.7304 27.4813 15.496 27.7157C15.2616 27.9501 15.1299 28.2681 15.1299 28.5996Z" fill="#FA4E0E"/>
<path d="M23.3001 30.0005L20.3001 34.0005C20.1356 34.2875 20.0906 34.6277 20.1748 34.9477C20.259 35.2676 20.4656 35.5416 20.7501 35.7105C21.0383 35.8699 21.3768 35.912 21.6953 35.8282C22.0138 35.7444 22.2877 35.5411 22.4601 35.2605L25.4601 31.2605C25.5459 31.1165 25.602 30.9568 25.6253 30.7908C25.6485 30.6248 25.6385 30.4559 25.5956 30.2939C25.5528 30.1318 25.4781 29.98 25.3758 29.8472C25.2735 29.7144 25.1458 29.6033 25.0001 29.5205C24.7094 29.3668 24.3706 29.3309 24.054 29.4202C23.7375 29.5096 23.4675 29.7174 23.3001 30.0005Z" fill="#FA4E0E"/>
</svg>
