<svg width="80" height="80" viewBox="0 0 80 80" fill="none" xmlns="http://www.w3.org/2000/svg">
<path d="M31.1 47.1796V49.6096C31.1 49.9969 30.9462 50.3682 30.6724 50.642C30.3986 50.9158 30.0272 51.0696 29.64 51.0696C29.2528 51.0696 28.8814 50.9158 28.6076 50.642C28.3338 50.3682 28.18 49.9969 28.18 49.6096V47.3797C26.8425 47.2526 25.5517 46.8217 24.4062 46.1198C23.2606 45.4179 22.2905 44.4636 21.57 43.3297C21.4188 43.1008 21.3356 42.8338 21.33 42.5597C21.3271 42.3585 21.3653 42.1588 21.4422 41.9729C21.519 41.7869 21.633 41.6186 21.7772 41.4782C21.9213 41.3378 22.0926 41.2283 22.2805 41.1563C22.4683 41.0844 22.6689 41.0515 22.87 41.0597C23.1055 41.06 23.3371 41.1198 23.5433 41.2334C23.7496 41.347 23.9238 41.5108 24.05 41.7096C24.5496 42.4953 25.2375 43.1437 26.0513 43.596C26.8651 44.0483 27.779 44.2902 28.71 44.2996C29.4873 44.3392 30.2644 44.2194 30.9937 43.9477C31.723 43.676 32.3891 43.2581 32.951 42.7196C33.5129 42.1811 33.9588 41.5334 34.2612 40.8163C34.5637 40.0992 34.7164 39.3279 34.71 38.5496C34.71 35.3896 32.45 33.5497 29.24 32.7896C24.75 31.7896 22.15 28.8996 22.15 25.3696C22.1687 23.6612 22.7755 22.0114 23.8684 20.6982C24.9613 19.3849 26.4734 18.4884 28.15 18.1596V15.8496C28.15 15.4624 28.3038 15.0911 28.5776 14.8173C28.8514 14.5435 29.2228 14.3896 29.61 14.3896C29.9972 14.3896 30.3686 14.5435 30.6424 14.8173C30.9162 15.0911 31.07 15.4624 31.07 15.8496V17.9996H32.69C33.0984 17.9996 33.4901 18.1619 33.7789 18.4507C34.0677 18.7395 34.23 19.1312 34.23 19.5396C34.23 19.9481 34.0677 20.3398 33.7789 20.6286C33.4901 20.9174 33.0984 21.0796 32.69 21.0796H29.6C29.0419 21.0484 28.4834 21.1344 27.9606 21.3322C27.4378 21.53 26.9622 21.8352 26.5646 22.2281C26.167 22.621 25.8561 23.0929 25.6521 23.6134C25.448 24.1338 25.3554 24.6912 25.38 25.2496C25.38 27.7696 27.9 29.1496 29.96 29.5896C35.03 30.6796 37.91 34.1296 37.91 38.5096C37.8832 40.5017 37.2021 42.4297 35.9714 43.9965C34.7408 45.5632 33.029 46.6818 31.1 47.1796Z" fill="#FA4E0E"/>
<path d="M47.31 25.42C47.31 22.62 45.81 21.12 43.01 21.12H41.31C41.1078 21.12 40.9075 21.0802 40.7207 21.0028C40.5338 20.9254 40.3641 20.812 40.2211 20.669C40.0781 20.526 39.9646 20.3562 39.8872 20.1694C39.8099 19.9825 39.77 19.7823 39.77 19.58C39.77 19.3778 39.8099 19.1775 39.8872 18.9907C39.9646 18.8039 40.0781 18.6341 40.2211 18.4911C40.3641 18.3481 40.5338 18.2347 40.7207 18.1573C40.9075 18.0799 41.1078 18.04 41.31 18.04H43C47.74 18.04 50.54 20.84 50.54 25.58V45.15C50.5374 45.5895 50.3617 46.0102 50.0509 46.3209C49.7402 46.6317 49.3195 46.8074 48.88 46.81C48.6695 46.8088 48.4614 46.7657 48.2676 46.6833C48.0739 46.6009 47.8985 46.4809 47.7515 46.3302C47.6045 46.1795 47.4889 46.0011 47.4114 45.8054C47.3339 45.6097 47.296 45.4005 47.3 45.19L47.31 25.42Z" fill="#FA4E0E"/>
<path d="M29 55.7598C29.0013 55.8473 28.9852 55.9342 28.9526 56.0154C28.9201 56.0967 28.8717 56.1706 28.8102 56.2329C28.7488 56.2953 28.6756 56.3448 28.5949 56.3786C28.5141 56.4124 28.4275 56.4298 28.34 56.4298H25.34V66.3698C25.34 66.5581 25.2652 66.7387 25.132 66.8718C24.9989 67.005 24.8183 67.0798 24.63 67.0798C24.4417 67.0798 24.2611 67.005 24.1279 66.8718C23.9948 66.7387 23.92 66.5581 23.92 66.3698V56.4298H20.92C20.7404 56.4299 20.5679 56.3599 20.439 56.2348C20.3102 56.1097 20.2352 55.9393 20.23 55.7598C20.2351 55.5793 20.3098 55.4078 20.4383 55.2811C20.5669 55.1544 20.7395 55.0823 20.92 55.0798H28.3C28.3913 55.0757 28.4825 55.0903 28.568 55.1228C28.6534 55.1552 28.7313 55.2048 28.7969 55.2685C28.8625 55.3322 28.9143 55.4087 28.9492 55.4931C28.9842 55.5776 29.0014 55.6684 29 55.7598Z" fill="#FA4E0E"/>
<path d="M31.59 59.9098H31C30.7939 59.8841 30.5845 59.9057 30.3879 59.9728C30.1912 60.04 30.0125 60.151 29.8651 60.2974C29.7176 60.4439 29.6055 60.6219 29.537 60.8181C29.4686 61.0143 29.4457 61.2235 29.47 61.4298V66.4298C29.47 66.6102 29.3984 66.7832 29.2709 66.9107C29.1433 67.0382 28.9704 67.1098 28.79 67.1098C28.6097 67.1098 28.4367 67.0382 28.3092 66.9107C28.1817 66.7832 28.11 66.6102 28.11 66.4298V61.4298C28.0763 61.0576 28.1247 60.6825 28.252 60.3311C28.3793 59.9797 28.5822 59.6606 28.8465 59.3963C29.1108 59.132 29.4299 58.9291 29.7813 58.8018C30.1327 58.6745 30.5078 58.6261 30.88 58.6598H31.59C31.7617 58.6598 31.9266 58.7266 32.0498 58.846C32.173 58.9655 32.2448 59.1283 32.25 59.2998C32.2422 59.4678 32.1686 59.626 32.0451 59.7402C31.9216 59.8543 31.7581 59.9153 31.59 59.9098Z" fill="#FA4E0E"/>
<path d="M34.31 57.3097C34.1872 57.3228 34.0631 57.31 33.9456 57.272C33.8281 57.234 33.7199 57.1717 33.6281 57.0892C33.5363 57.0067 33.4628 56.9058 33.4126 56.793C33.3623 56.6802 33.3363 56.5582 33.3363 56.4347C33.3363 56.3112 33.3623 56.1891 33.4126 56.0764C33.4628 55.9636 33.5363 55.8627 33.6281 55.7802C33.7199 55.6976 33.8281 55.6353 33.9456 55.5974C34.0631 55.5594 34.1872 55.5465 34.31 55.5597C34.4327 55.5465 34.5569 55.5594 34.6744 55.5974C34.7919 55.6353 34.9 55.6976 34.9919 55.7802C35.0837 55.8627 35.1571 55.9636 35.2074 56.0764C35.2577 56.1891 35.2837 56.3112 35.2837 56.4347C35.2837 56.5582 35.2577 56.6802 35.2074 56.793C35.1571 56.9058 35.0837 57.0067 34.9919 57.0892C34.9 57.1717 34.7919 57.234 34.6744 57.272C34.5569 57.31 34.4327 57.3228 34.31 57.3097ZM33.63 66.3997V59.3097C33.63 59.1293 33.7016 58.9564 33.8291 58.8289C33.9567 58.7013 34.1296 58.6297 34.31 58.6297C34.3988 58.6297 34.4868 58.6473 34.5687 58.6816C34.6507 58.7159 34.725 58.7662 34.7873 58.8294C34.8497 58.8927 34.8988 58.9678 34.9319 59.0502C34.965 59.1327 34.9813 59.2209 34.98 59.3097V66.3997C34.98 66.5783 34.9097 66.7498 34.7844 66.877C34.659 67.0043 34.4886 67.0771 34.31 67.0797C34.1304 67.0771 33.959 67.0046 33.832 66.8777C33.705 66.7507 33.6326 66.5792 33.63 66.3997Z" fill="#FA4E0E"/>
<path d="M37.14 66.4004V55.0804C37.14 54.9 37.2117 54.7271 37.3392 54.5996C37.4667 54.472 37.6397 54.4004 37.82 54.4004C38.0004 54.4004 38.1733 54.472 38.3008 54.5996C38.4284 54.7271 38.5 54.9 38.5 55.0804V66.4004C38.5 66.5807 38.4284 66.7537 38.3008 66.8812C38.1733 67.0087 38.0004 67.0804 37.82 67.0804C37.6397 67.0804 37.4667 67.0087 37.3392 66.8812C37.2117 66.7537 37.14 66.5807 37.14 66.4004Z" fill="#FA4E0E"/>
<path d="M40.54 66.4001V55.0801C40.5601 54.9152 40.6399 54.7634 40.7642 54.6533C40.8886 54.5432 41.0489 54.4824 41.215 54.4824C41.3811 54.4824 41.5415 54.5432 41.6658 54.6533C41.7902 54.7634 41.8699 54.9152 41.89 55.0801V66.4001C41.9017 66.4957 41.8929 66.5926 41.8643 66.6845C41.8357 66.7764 41.7879 66.8612 41.7241 66.9332C41.6603 67.0053 41.582 67.063 41.4942 67.1025C41.4064 67.142 41.3113 67.1624 41.215 67.1624C41.1188 67.1624 41.0236 67.142 40.9359 67.1025C40.8481 67.063 40.7697 67.0053 40.7059 66.9332C40.6421 66.8612 40.5943 66.7764 40.5657 66.6845C40.5371 66.5926 40.5284 66.4957 40.54 66.4001Z" fill="#FA4E0E"/>
<path d="M44.74 57.3097C44.6173 57.3228 44.4931 57.31 44.3756 57.272C44.2582 57.234 44.15 57.1717 44.0582 57.0892C43.9663 57.0067 43.8929 56.9058 43.8426 56.793C43.7923 56.6802 43.7664 56.5582 43.7664 56.4347C43.7664 56.3112 43.7923 56.1891 43.8426 56.0764C43.8929 55.9636 43.9663 55.8627 44.0582 55.7802C44.15 55.6976 44.2582 55.6353 44.3756 55.5974C44.4931 55.5594 44.6173 55.5465 44.74 55.5597C44.8628 55.5465 44.9869 55.5594 45.1044 55.5974C45.2219 55.6353 45.3301 55.6976 45.4219 55.7802C45.5137 55.8627 45.5872 55.9636 45.6375 56.0764C45.6877 56.1891 45.7137 56.3112 45.7137 56.4347C45.7137 56.5582 45.6877 56.6802 45.6375 56.793C45.5872 56.9058 45.5137 57.0067 45.4219 57.0892C45.3301 57.1717 45.2219 57.234 45.1044 57.272C44.9869 57.31 44.8628 57.3228 44.74 57.3097ZM44.07 66.3997V59.3097C44.0687 59.2209 44.0851 59.1327 44.1181 59.0502C44.1512 58.9678 44.2004 58.8927 44.2627 58.8294C44.325 58.7662 44.3994 58.7159 44.4813 58.6816C44.5632 58.6473 44.6512 58.6297 44.74 58.6297C44.9204 58.6297 45.0933 58.7013 45.2209 58.8289C45.3484 58.9564 45.42 59.1293 45.42 59.3097V66.3997C45.4174 66.5792 45.345 66.7507 45.218 66.8777C45.091 67.0046 44.9196 67.0771 44.74 67.0797C44.5614 67.0771 44.391 67.0043 44.2656 66.877C44.1403 66.7498 44.07 66.5783 44.07 66.3997Z" fill="#FA4E0E"/>
<path d="M54.3 63.5297C54.3523 64.0153 54.3018 64.5065 54.1517 64.9713C54.0017 65.4361 53.7554 65.8642 53.4291 66.2276C53.1027 66.5909 52.7035 66.8816 52.2575 67.0805C51.8114 67.2794 51.3284 67.3823 50.84 67.3823C50.3516 67.3823 49.8686 67.2794 49.4225 67.0805C48.9764 66.8816 48.5772 66.5909 48.2509 66.2276C47.9245 65.8642 47.6783 65.4361 47.5283 64.9713C47.3782 64.5065 47.3277 64.0153 47.38 63.5297V62.1797C47.3277 61.6941 47.3782 61.2029 47.5283 60.7381C47.6783 60.2733 47.9245 59.8453 48.2509 59.4819C48.5772 59.1185 48.9764 58.8279 49.4225 58.6289C49.8686 58.43 50.3516 58.3271 50.84 58.3271C51.3284 58.3271 51.8114 58.43 52.2575 58.6289C52.7035 58.8279 53.1027 59.1185 53.4291 59.4819C53.7554 59.8453 54.0017 60.2733 54.1517 60.7381C54.3018 61.2029 54.3523 61.6941 54.3 62.1797V63.5297ZM53 62.0797C53.0416 61.7782 53.0181 61.4714 52.9311 61.1797C52.8442 60.8881 52.6957 60.6185 52.4958 60.3891C52.2958 60.1597 52.0491 59.9758 51.7721 59.8497C51.4951 59.7237 51.1943 59.6585 50.89 59.6585C50.5857 59.6585 50.2849 59.7237 50.0079 59.8497C49.7309 59.9758 49.4841 60.1597 49.2842 60.3891C49.0843 60.6185 48.9358 60.8881 48.8488 61.1797C48.7619 61.4714 48.7384 61.7782 48.78 62.0797V63.6097C48.7384 63.9112 48.7619 64.218 48.8488 64.5097C48.9358 64.8013 49.0843 65.0709 49.2842 65.3003C49.4841 65.5297 49.7309 65.7136 50.0079 65.8397C50.2849 65.9657 50.5857 66.0309 50.89 66.0309C51.1943 66.0309 51.4951 65.9657 51.7721 65.8397C52.0491 65.7136 52.2958 65.5297 52.4958 65.3003C52.6957 65.0709 52.8442 64.8013 52.9311 64.5097C53.0181 64.218 53.0416 63.9112 53 63.6097V62.0797Z" fill="#FA4E0E"/>
<path d="M61.59 66.3997V61.9997C61.6316 61.6983 61.6081 61.3914 61.5211 61.0998C61.4342 60.8081 61.2857 60.5385 61.0858 60.3091C60.8858 60.0797 60.6391 59.8958 60.3621 59.7697C60.0851 59.6437 59.7843 59.5785 59.48 59.5785C59.1757 59.5785 58.8749 59.6437 58.5979 59.7697C58.3209 59.8958 58.0741 60.0797 57.8742 60.3091C57.6743 60.5385 57.5258 60.8081 57.4388 61.0998C57.3519 61.3914 57.3284 61.6983 57.37 61.9997V66.3997C57.3713 66.4885 57.355 66.5767 57.3219 66.6592C57.2888 66.7416 57.2397 66.8167 57.1773 66.88C57.115 66.9432 57.0407 66.9935 56.9587 67.0278C56.8768 67.0621 56.7888 67.0797 56.7 67.0797C56.609 67.0824 56.5184 67.0668 56.4336 67.0338C56.3488 67.0008 56.2714 66.9512 56.2062 66.8878C56.1409 66.8243 56.089 66.7485 56.0536 66.6646C56.0182 66.5808 55.9999 66.4907 56 66.3997V62.1797C55.9551 61.6976 56.0113 61.2114 56.165 60.7522C56.3187 60.2931 56.5665 59.871 56.8927 59.5131C57.2188 59.1552 57.616 58.8693 58.059 58.6736C58.5019 58.478 58.9808 58.377 59.465 58.377C59.9492 58.377 60.4281 58.478 60.871 58.6736C61.3139 58.8693 61.7112 59.1552 62.0373 59.5131C62.3634 59.871 62.6113 60.2931 62.765 60.7522C62.9187 61.2114 62.9749 61.6976 62.93 62.1797V66.3997C62.93 66.5801 62.8583 66.753 62.7308 66.8805C62.6033 67.0081 62.4303 67.0797 62.25 67.0797C62.0696 67.0797 61.8967 67.0081 61.7692 66.8805C61.6416 66.753 61.57 66.5801 61.57 66.3997H61.59Z" fill="#FA4E0E"/>
</svg>
