<svg width="80" height="80" viewBox="0 0 80 80" fill="none" xmlns="http://www.w3.org/2000/svg">
<path d="M20 73.5V68.5L19 69.5H25L24 68.5V73.5C24 73.7652 24.1054 74.0196 24.2929 74.2071C24.4804 74.3946 24.7348 74.5 25 74.5C25.2652 74.5 25.5196 74.3946 25.7071 74.2071C25.8946 74.0196 26 73.7652 26 73.5V68.5C26 68.2348 25.8946 67.9804 25.7071 67.7929C25.5196 67.6054 25.2652 67.5 25 67.5H19C18.7348 67.5 18.4804 67.6054 18.2929 67.7929C18.1054 67.9804 18 68.2348 18 68.5V73.5C18 73.7652 18.1054 74.0196 18.2929 74.2071C18.4804 74.3946 18.7348 74.5 19 74.5C19.2652 74.5 19.5196 74.3946 19.7071 74.2071C19.8946 74.0196 20 73.7652 20 73.5Z" fill="#FA4E0E"/>
<path d="M32.1701 73.5001V59.5001L31.0001 60.6701H37.0001L35.8301 59.5001V73.5001C35.8301 73.8104 35.9533 74.108 36.1728 74.3274C36.3922 74.5468 36.6898 74.6701 37.0001 74.6701C37.3104 74.6701 37.608 74.5468 37.8274 74.3274C38.0468 74.108 38.1701 73.8104 38.1701 73.5001V59.5001C38.1649 59.1914 38.04 58.8968 37.8217 58.6785C37.6034 58.4601 37.3088 58.3352 37.0001 58.3301H31.0001C30.6914 58.3352 30.3968 58.4601 30.1785 58.6785C29.9601 58.8968 29.8352 59.1914 29.8301 59.5001V73.5001C29.8301 73.8104 29.9533 74.108 30.1728 74.3274C30.3922 74.5468 30.6898 74.6701 31.0001 74.6701C31.3104 74.6701 31.608 74.5468 31.8274 74.3274C32.0468 74.108 32.1701 73.8104 32.1701 73.5001Z" fill="#FA4E0E"/>
<path d="M44.0799 73.4999V49.4999L42.9999 50.5799H48.9999L47.9199 49.4999V73.4999C47.9199 73.7864 48.0337 74.0611 48.2362 74.2636C48.4388 74.4661 48.7135 74.5799 48.9999 74.5799C49.2864 74.5799 49.5611 74.4661 49.7636 74.2636C49.9661 74.0611 50.0799 73.7864 50.0799 73.4999V49.4999C50.0773 49.2143 49.9627 48.9411 49.7607 48.7391C49.5587 48.5372 49.2855 48.4225 48.9999 48.4199H42.9999C42.7143 48.4225 42.4411 48.5372 42.2391 48.7391C42.0372 48.9411 41.9225 49.2143 41.9199 49.4999V73.4999C41.9199 73.7864 42.0337 74.0611 42.2362 74.2636C42.4388 74.4661 42.7135 74.5799 42.9999 74.5799C43.2864 74.5799 43.5611 74.4661 43.7636 74.2636C43.9661 74.0611 44.0799 73.7864 44.0799 73.4999Z" fill="#FA4E0E"/>
<path d="M56.1901 73.4996V35.4996L55.0001 36.6896H61.0001L59.8101 35.4996V73.4996C59.8101 73.8152 59.9354 74.1179 60.1586 74.341C60.3818 74.5642 60.6844 74.6896 61.0001 74.6896C61.3157 74.6896 61.6183 74.5642 61.8415 74.341C62.0647 74.1179 62.1901 73.8152 62.1901 73.4996V35.4996C62.1849 35.1856 62.0579 34.8859 61.8358 34.6638C61.6138 34.4417 61.3141 34.3147 61.0001 34.3096H55.0001C54.6861 34.3147 54.3864 34.4417 54.1643 34.6638C53.9422 34.8859 53.8152 35.1856 53.8101 35.4996V73.4996C53.8101 73.8152 53.9354 74.1179 54.1586 74.341C54.3818 74.5642 54.6844 74.6896 55.0001 74.6896C55.3157 74.6896 55.6183 74.5642 55.8415 74.341C56.0647 74.1179 56.1901 73.8152 56.1901 73.4996Z" fill="#FA4E0E"/>
<path d="M68.1799 73.5V17.5L66.9999 18.68H72.9999L71.8199 17.5V73.5L72.9999 72.32H2.99989L3.59989 74.52C13.494 68.9759 22.8451 62.5142 31.5299 55.22C45.3499 43.79 59.6499 29.09 63.1399 10.81C63.4299 9.32999 61.1399 8.68999 60.8599 10.19C57.3699 28.45 42.8499 43 28.9999 54.28C20.7004 61.1367 11.7974 67.2282 2.3999 72.48C2.18243 72.6153 2.01443 72.8172 1.92086 73.0556C1.8273 73.2941 1.81316 73.5563 1.88055 73.8035C1.94795 74.0506 2.09328 74.2693 2.29494 74.4273C2.4966 74.5852 2.74383 74.6738 2.99989 74.68H72.9999C73.3112 74.6748 73.6084 74.5489 73.8286 74.3287C74.0488 74.1085 74.1747 73.8113 74.1799 73.5V17.5C74.1747 17.1886 74.0488 16.8915 73.8286 16.6713C73.6084 16.4511 73.3112 16.3251 72.9999 16.32H66.9999C66.6885 16.3251 66.3914 16.4511 66.1712 16.6713C65.951 16.8915 65.825 17.1886 65.8199 17.5V73.5C65.8471 73.7955 65.9837 74.0702 66.2029 74.2702C66.4221 74.4702 66.7081 74.581 67.0049 74.581C67.3016 74.581 67.5877 74.4702 67.8069 74.2702C68.0261 74.0702 68.1627 73.7955 68.1899 73.5H68.1799Z" fill="#FA4E0E"/>
<path d="M57.6299 12.5802L63.6299 8.58021L61.7899 7.83021L63.7899 13.8302C64.2999 15.3502 66.7199 14.7002 66.2099 13.1702L64.2099 7.17021C64.1561 6.98699 64.0617 6.81825 63.9337 6.67655C63.8058 6.53485 63.6475 6.42383 63.4706 6.35176C63.2938 6.27968 63.103 6.24841 62.9125 6.26026C62.7219 6.27211 62.5364 6.32679 62.3699 6.42021L56.3699 10.4202C55.0399 11.3102 56.2899 13.4802 57.6299 12.5802Z" fill="#FA4E0E"/>
</svg>
