<svg width="80" height="80" viewBox="0 0 80 80" fill="none" xmlns="http://www.w3.org/2000/svg">
<path d="M22.5 8.12012L22.73 73.1201C22.73 73.4516 22.8617 73.7696 23.0961 74.004C23.3305 74.2384 23.6485 74.3701 23.98 74.3701C24.3115 74.3701 24.6295 74.2384 24.8639 74.004C25.0983 73.7696 25.23 73.4516 25.23 73.1201L25 8.12012C25 7.7886 24.8683 7.47065 24.6339 7.23623C24.3995 7.00181 24.0815 6.87012 23.75 6.87012C23.4185 6.87012 23.1005 7.00181 22.8661 7.23623C22.6317 7.47065 22.5 7.7886 22.5 8.12012Z" fill="#FA4E0E"/>
<path d="M33.1799 7.62012V14.0001C33.1799 14.3316 33.3116 14.6496 33.546 14.884C33.7805 15.1184 34.0984 15.2501 34.4299 15.2501C34.7615 15.2501 35.0794 15.1184 35.3138 14.884C35.5482 14.6496 35.6799 14.3316 35.6799 14.0001V7.62012C35.6799 7.2886 35.5482 6.97065 35.3138 6.73623C35.0794 6.50181 34.7615 6.37012 34.4299 6.37012C34.0984 6.37012 33.7805 6.50181 33.546 6.73623C33.3116 6.97065 33.1799 7.2886 33.1799 7.62012Z" fill="#FA4E0E"/>
<path d="M33.1799 66.21V73.62C33.1799 73.9515 33.3116 74.2694 33.546 74.5038C33.7805 74.7383 34.0984 74.87 34.4299 74.87C34.7615 74.87 35.0794 74.7383 35.3138 74.5038C35.5482 74.2694 35.6799 73.9515 35.6799 73.62V66.21C35.6799 65.8784 35.5482 65.5605 35.3138 65.3261C35.0794 65.0917 34.7615 64.96 34.4299 64.96C34.0984 64.96 33.7805 65.0917 33.546 65.3261C33.3116 65.5605 33.1799 65.8784 33.1799 66.21Z" fill="#FA4E0E"/>
<path d="M13.53 16.52C21.07 16.52 28.93 15.83 36.43 16.63C42.43 17.27 47.12 21.86 47.02 27.97C46.92 34.52 41.46 38.57 35.23 38.84C31.49 39 27.72 38.84 23.98 38.84C23.6485 38.84 23.3306 38.9717 23.0961 39.2061C22.8617 39.4405 22.73 39.7585 22.73 40.09C22.73 40.4215 22.8617 40.7395 23.0961 40.9739C23.3306 41.2083 23.6485 41.34 23.98 41.34C29.42 41.34 36.04 42.34 41.17 40.15C43.092 39.3852 44.8103 38.1849 46.1898 36.6435C47.5692 35.1021 48.5722 33.2617 49.1198 31.267C49.6675 29.2722 49.7448 27.1776 49.3457 25.148C48.9467 23.1183 48.0821 21.2089 46.82 19.57C42.62 14.23 36.62 14 30.46 14H13.53C13.1985 14 12.8806 14.1317 12.6461 14.3661C12.4117 14.6005 12.28 14.9185 12.28 15.25C12.28 15.5815 12.4117 15.8995 12.6461 16.1339C12.8806 16.3683 13.1985 16.5 13.53 16.5V16.52Z" fill="#FA4E0E"/>
<path d="M48.69 48.6597C43.89 38.6597 33.24 40.1397 23.98 40.1397C23.6485 40.1397 23.3305 40.2714 23.0961 40.5058C22.8617 40.7402 22.73 41.0582 22.73 41.3897C22.73 41.7212 22.8617 42.0392 23.0961 42.2736C23.3305 42.508 23.6485 42.6397 23.98 42.6397C32.24 42.6397 42.22 40.9697 46.53 49.9197C47.23 51.3697 49.39 50.0997 48.69 48.6597Z" fill="#FA4E0E"/>
<path d="M13.53 67.46H38.25C38.5816 67.46 38.8995 67.3283 39.1339 67.0938C39.3683 66.8594 39.5 66.5415 39.5 66.21C39.5 65.8784 39.3683 65.5605 39.1339 65.3261C38.8995 65.0917 38.5816 64.96 38.25 64.96H13.53C13.1985 64.96 12.8806 65.0917 12.6461 65.3261C12.4117 65.5605 12.28 65.8784 12.28 66.21C12.28 66.5415 12.4117 66.8594 12.6461 67.0938C12.8806 67.3283 13.1985 67.46 13.53 67.46Z" fill="#FA4E0E"/>
<path d="M58.2501 73.6595H43.8501L45.1001 74.9095V64.5195L43.8501 65.7695H58.2501L57.0001 64.5195V74.9095C57.0001 75.2411 57.1318 75.559 57.3662 75.7934C57.6006 76.0278 57.9186 76.1595 58.2501 76.1595C58.5816 76.1595 58.8996 76.0278 59.134 75.7934C59.3684 75.559 59.5001 75.2411 59.5001 74.9095V64.5195C59.4975 64.1888 59.3649 63.8724 59.1311 63.6385C58.8972 63.4047 58.5808 63.2721 58.2501 63.2695H43.8501C43.5194 63.2721 43.203 63.4047 42.9691 63.6385C42.7352 63.8724 42.6027 64.1888 42.6001 64.5195V74.9095C42.6053 75.2394 42.7386 75.5544 42.9719 75.7877C43.2052 76.021 43.5202 76.1544 43.8501 76.1595H58.2501C58.5816 76.1595 58.8996 76.0278 59.134 75.7934C59.3684 75.559 59.5001 75.2411 59.5001 74.9095C59.5001 74.578 59.3684 74.2601 59.134 74.0256C58.8996 73.7912 58.5816 73.6595 58.2501 73.6595Z" fill="#FA4E0E"/>
<path d="M58.2501 63.2696H43.8501L45.1001 64.5196C45.1001 63.2696 45.0301 61.9996 45.1001 60.7596C45.3001 57.2096 48.0101 55.3096 51.3901 55.3696C57.0001 55.4796 57.0001 60.2896 57.0001 64.5196C57.0001 64.8511 57.1318 65.169 57.3662 65.4035C57.6006 65.6379 57.9185 65.7696 58.2501 65.7696C58.5816 65.7696 58.8995 65.6379 59.1339 65.4035C59.3684 65.169 59.5001 64.8511 59.5001 64.5196C59.5001 62.2896 59.7701 59.8596 58.9501 57.7396C58.3394 56.2519 57.2872 54.9874 55.9353 54.1166C54.5835 53.2457 52.997 52.8105 51.3901 52.8696C48.2101 52.8696 45.2501 53.9996 43.6201 56.8696C42.3001 59.2096 42.6201 61.8696 42.6201 64.4996C42.6252 64.8295 42.7586 65.1444 42.9919 65.3777C43.2252 65.6111 43.5401 65.7444 43.8701 65.7496H58.2701C58.5716 65.7088 58.8478 65.5595 59.0471 65.3296C59.2464 65.0997 59.355 64.805 59.3525 64.5008C59.3501 64.1965 59.2368 63.9036 59.0338 63.677C58.8308 63.4503 58.5522 63.3055 58.2501 63.2696Z" fill="#FA4E0E"/>
<path d="M52.1599 69.49C52.1336 69.7675 52.0048 70.0253 51.7986 70.2128C51.5924 70.4004 51.3236 70.5043 51.0449 70.5043C50.7662 70.5043 50.4974 70.4004 50.2912 70.2128C50.0851 70.0253 49.9562 69.7675 49.9299 69.49C49.9562 69.2125 50.0851 68.9548 50.2912 68.7673C50.4974 68.5797 50.7662 68.4758 51.0449 68.4758C51.3236 68.4758 51.5924 68.5797 51.7986 68.7673C52.0048 68.9548 52.1336 69.2125 52.1599 69.49C52.2099 70.49 53.7099 70.49 53.6599 69.49C53.6618 68.9732 53.5108 68.4672 53.2258 68.036C52.9409 67.6047 52.5347 67.2674 52.0585 67.0665C51.5823 66.8655 51.0572 66.8099 50.5495 66.9067C50.0417 67.0034 49.5739 67.2482 49.205 67.6102C48.836 67.9723 48.5824 68.4353 48.476 68.9411C48.3696 69.447 48.4153 69.973 48.6071 70.4529C48.799 70.9329 49.1286 71.3454 49.5543 71.6385C49.9801 71.9316 50.4831 72.0921 50.9999 72.1C51.3492 72.1067 51.6965 72.0444 52.0217 71.9168C52.347 71.7892 52.6439 71.5988 52.8956 71.3564C53.1472 71.1141 53.3487 70.8245 53.4884 70.5042C53.6281 70.184 53.7034 69.8394 53.7099 69.49C53.7099 68.53 52.2099 68.53 52.1599 69.49Z" fill="#FA4E0E"/>
</svg>
