<svg width="80" height="80" viewBox="0 0 80 80" fill="none" xmlns="http://www.w3.org/2000/svg">
<path d="M19.0499 54.8802V57.3102C19.0666 57.5114 19.0414 57.7139 18.9759 57.9049C18.9103 58.0959 18.8059 58.2712 18.6692 58.4197C18.5324 58.5683 18.3664 58.6868 18.1815 58.7679C17.9966 58.8491 17.7969 58.8909 17.5949 58.8909C17.393 58.8909 17.1933 58.8491 17.0084 58.7679C16.8235 58.6868 16.6575 58.5683 16.5207 58.4197C16.384 58.2712 16.2796 58.0959 16.214 57.9049C16.1485 57.7139 16.1233 57.5114 16.1399 57.3102V55.0802C14.8069 54.9588 13.5189 54.5355 12.3737 53.8425C11.2284 53.1495 10.256 52.2048 9.52995 51.0802C9.37721 50.8521 9.29384 50.5847 9.28995 50.3102C9.28706 50.109 9.32523 49.9094 9.40212 49.7234C9.47901 49.5375 9.593 49.3692 9.73714 49.2288C9.88127 49.0884 10.0525 48.9789 10.2404 48.9069C10.4283 48.8349 10.6289 48.802 10.8299 48.8102C11.0636 48.8131 11.2928 48.8741 11.497 48.9875C11.7012 49.101 11.874 49.2634 11.9999 49.4602C12.5074 50.2347 13.1983 50.8718 14.0112 51.3149C14.8242 51.7581 15.7341 51.9935 16.6599 52.0002C19.8599 52.0002 22.6599 49.8602 22.6599 46.2502C22.6599 43.0902 20.3899 41.2502 17.1899 40.5002C12.6899 39.5002 10.0999 36.6002 10.0999 33.0802C10.113 31.3702 10.7178 29.7176 11.8117 28.4031C12.9055 27.0887 14.4208 26.1937 16.0999 25.8702V23.5502C16.1302 23.1851 16.2967 22.8448 16.5662 22.5967C16.8357 22.3486 17.1886 22.2109 17.5549 22.2109C17.9213 22.2109 18.2742 22.3486 18.5437 22.5967C18.8132 22.8448 18.9797 23.1851 19.0099 23.5502V25.7402H20.6399C21.0484 25.7402 21.4401 25.9025 21.7289 26.1913C22.0177 26.4801 22.1799 26.8718 22.1799 27.2802C22.1799 27.6886 22.0177 28.0803 21.7289 28.3692C21.4401 28.658 21.0484 28.8202 20.6399 28.8202H17.5499C16.9918 28.7903 16.4335 28.8776 15.9112 29.0767C15.3888 29.2758 14.914 29.5821 14.5173 29.9759C14.1207 30.3698 13.8109 30.8424 13.6081 31.3633C13.4054 31.8842 13.314 32.4418 13.3399 33.0002C13.3399 35.5102 15.8499 36.8902 17.9199 37.3302C22.9899 38.4302 25.8599 41.8702 25.8599 46.2502C25.8278 48.2363 25.1439 50.1568 23.9134 51.7161C22.683 53.2754 20.9741 54.3872 19.0499 54.8802Z" fill="#FA4E0E"/>
<path d="M28.6201 34.9399C28.6201 28.9399 32.6201 25.1299 37.5301 25.1299C42.4401 25.1299 46.4501 28.8199 46.4501 34.9399V44.7099C46.4501 50.8299 42.7601 54.5199 36.6401 54.5199H32.2601C32.0474 54.5199 31.8367 54.478 31.6402 54.3966C31.4436 54.3152 31.265 54.1958 31.1146 54.0454C30.9642 53.895 30.8448 53.7164 30.7634 53.5198C30.682 53.3233 30.6401 53.1126 30.6401 52.8999C30.6401 52.6871 30.682 52.4765 30.7634 52.2799C30.8448 52.0834 30.9642 51.9048 31.1146 51.7544C31.265 51.6039 31.4436 51.4846 31.6402 51.4032C31.8367 51.3218 32.0474 51.2799 32.2601 51.2799H36.8001C40.9001 51.2799 43.2101 48.9599 43.2101 44.8699V42.6799C42.4394 43.4683 41.5184 44.094 40.5015 44.52C39.4846 44.946 38.3926 45.1636 37.2901 45.1599C32.5101 45.1599 28.6201 41.5899 28.6201 35.5899V34.9399ZM31.8601 35.6699C31.8601 39.7699 34.4101 42.0799 37.5301 42.0799C39.0349 42.0746 40.4766 41.4745 41.5407 40.4104C42.6047 39.3464 43.2048 37.9047 43.2101 36.3999V34.6199C43.2101 30.5299 40.6501 28.2099 37.5301 28.2099C34.4101 28.2099 31.8601 30.5299 31.8601 34.6199V35.6699Z" fill="#FA4E0E"/>
<path d="M50.6201 34.9399C50.6201 28.9399 54.6201 25.1299 59.5401 25.1299C64.4601 25.1299 68.4501 28.8199 68.4501 34.9399V44.7099C68.4501 50.8299 64.7601 54.5199 58.6401 54.5199H54.2701C54.0574 54.5199 53.8467 54.478 53.6502 54.3966C53.4536 54.3152 53.275 54.1958 53.1246 54.0454C52.9742 53.895 52.8548 53.7164 52.7734 53.5198C52.692 53.3233 52.6501 53.1126 52.6501 52.8999C52.6501 52.6871 52.692 52.4765 52.7734 52.2799C52.8548 52.0834 52.9742 51.9048 53.1246 51.7544C53.275 51.6039 53.4536 51.4846 53.6502 51.4032C53.8467 51.3218 54.0574 51.2799 54.2701 51.2799H58.8101C62.9001 51.2799 65.2101 48.9599 65.2101 44.8699V42.6799C64.4401 43.4692 63.5192 44.0955 62.5022 44.5216C61.4851 44.9476 60.3928 45.1647 59.2901 45.1599C54.5101 45.1599 50.6201 41.5899 50.6201 35.5899V34.9399ZM53.8601 35.6699C53.8601 39.7699 56.4201 42.0799 59.5401 42.0799C61.044 42.0746 62.4846 41.4742 63.5471 40.4098C64.6096 39.3455 65.2075 37.9038 65.2101 36.3999V34.6199C65.2101 30.5299 62.6601 28.2099 59.5401 28.2099C56.4201 28.2099 53.8601 30.5299 53.8601 34.6199V35.6699Z" fill="#FA4E0E"/>
</svg>
