<svg width="62" height="49" viewBox="0 0 62 49" fill="none" xmlns="http://www.w3.org/2000/svg">
<path d="M22.1578 0.853027H12.0525C9.95958 0.853027 8.26294 2.54966 8.26294 4.64254V12.2216C8.26294 12.9192 8.82852 13.4848 9.52615 13.4848H24.6842C25.3818 13.4848 25.9474 12.9192 25.9474 12.2216V4.64254C25.9473 2.54966 24.2507 0.853027 22.1578 0.853027Z" fill="#3F3F3F"/>
<path d="M49.8731 0.853027H39.7678C37.6749 0.853027 35.9783 2.54966 35.9783 4.64254V12.2216C35.9783 12.9192 36.5439 13.4848 37.2415 13.4848H52.3995C53.0972 13.4848 53.6628 12.9192 53.6628 12.2216V4.64254C53.6626 2.54966 51.966 0.853027 49.8731 0.853027Z" fill="#3F3F3F"/>
<path fill-rule="evenodd" clip-rule="evenodd" d="M57.8427 10.0293H4.78951C2.69664 10.0293 1 11.7259 1 13.8188V47.2361C1 47.9338 1.56559 48.4994 2.26321 48.4994H21.8605V45.5838C21.8605 43.491 23.5572 41.7943 25.65 41.7943H35.7554C37.8483 41.7943 39.5449 43.491 39.545 45.5838V48.4994H60.3691C61.0668 48.4994 61.6324 47.9338 61.6324 47.2361V13.8188C61.6322 11.7259 59.9356 10.0293 57.8427 10.0293Z" fill="black"/>
<rect x="20.6111" y="15.6111" width="20.7778" height="20.7778" rx="10.3889" stroke="white" stroke-width="1.22222"/>
<circle cx="31" cy="25.9997" r="7.85714" fill="white"/>
</svg>
