<svg width="89" height="49" viewBox="0 0 89 49" fill="none" xmlns="http://www.w3.org/2000/svg">
<path d="M22.2643 0.5H12.1591C10.0662 0.5 8.36963 2.19662 8.36963 4.28948V11.8684C8.36963 12.566 8.93521 13.1316 9.63283 13.1316H24.7907C25.4883 13.1316 26.0539 12.566 26.0539 11.8684V4.28948C26.0538 2.19662 24.3572 0.5 22.2643 0.5Z" fill="#10D7A7"/>
<path d="M49.9797 0.5H39.8744C37.7816 0.5 36.085 2.19662 36.085 4.28948V11.8684C36.085 12.566 36.6505 13.1316 37.3482 13.1316H52.5061C53.2037 13.1316 53.7693 12.566 53.7693 11.8684V4.28948C53.7691 2.19662 52.0725 0.5 49.9797 0.5Z" fill="#10D7A7"/>
<path d="M77.4523 0.5H67.3471C65.2542 0.5 63.5576 2.19662 63.5576 4.28948V11.8684C63.5576 12.566 64.1232 13.1316 64.8208 13.1316H79.9787C80.6763 13.1316 81.2419 12.566 81.2419 11.8684V4.28948C81.2418 2.19662 79.5452 0.5 77.4523 0.5Z" fill="#10D7A7"/>
<path fill-rule="evenodd" clip-rule="evenodd" d="M4.58 9.67627H85.1621C87.2549 9.67627 88.9515 11.3729 88.9517 13.4657V46.8827C88.9517 47.5804 88.3861 48.1459 87.6885 48.1459H72.0088V45.5834C72.0087 43.4905 70.3121 41.7939 68.2192 41.7939H58.114C56.0212 41.7939 54.3245 43.4905 54.3245 45.5834V48.1459H34.5971V45.5834C34.597 43.4905 32.9003 41.7939 30.8075 41.7939H20.7022C18.6094 41.7939 16.9128 43.4905 16.9128 45.5834V48.1459H2.05373C1.35611 48.1459 0.790527 47.5804 0.790527 46.8827V13.4657C0.790527 11.3729 2.48715 9.67627 4.58 9.67627Z" fill="#00EC97"/>
<path d="M54.513 17C53.5871 17 52.7274 17.3389 52.2424 17.8959L47.0168 23.3725C46.8465 23.5531 46.9156 23.7964 47.1713 23.9166C47.3786 24.0141 47.6528 24.002 47.8416 23.8874L52.9853 20.7381C53.0708 20.6838 53.2025 20.6893 53.2794 20.7496C53.3143 20.7773 53.3329 20.813 53.3329 20.8497V30.7099C53.3329 30.7913 53.2395 30.8567 53.1241 30.8567C53.0622 30.8567 53.0038 30.8376 52.9646 30.8039L37.4159 17.6657C36.9095 17.2438 36.166 17.0005 35.3832 17H34.8398C33.369 17 32.1768 17.8416 32.1768 18.8798V32.7672C32.1768 33.8054 33.369 34.6471 34.8398 34.6471C35.7657 34.6471 36.6253 34.3082 37.1104 33.7511L42.3361 28.2745C42.5062 28.094 42.4372 27.8507 42.1814 27.7305C41.9742 27.633 41.7 27.6451 41.5113 27.7597L36.3675 30.909C36.2821 30.9633 36.1503 30.9577 36.0734 30.8974C36.0385 30.8698 36.02 30.8341 36.0207 30.7974V20.9346C36.0207 20.8532 36.114 20.7878 36.2293 20.7878C36.2906 20.7878 36.3497 20.8069 36.3889 20.8406L51.9355 33.9814C52.4418 34.4032 53.1854 34.6466 53.9682 34.6471H54.5116C55.9823 34.6476 57.1754 33.8064 57.1768 32.7683V18.8798C57.1768 17.8416 55.9837 17 54.513 17Z" fill="black"/>
</svg>
