<svg width="87" height="69" viewBox="0 0 87 69" fill="none" xmlns="http://www.w3.org/2000/svg">
<path d="M50.7896 1.00035H36.4739C33.509 1.00035 31.1055 3.40389 31.1055 6.36877V17.1056C31.1055 18.0939 31.9067 18.8952 32.895 18.8952H54.3687C55.357 18.8952 56.1582 18.0939 56.1582 17.1056V6.36877C56.1581 3.40389 53.7545 1.00035 50.7896 1.00035Z" fill="#4FC0FF"/>
<path fill-rule="evenodd" clip-rule="evenodd" d="M81.3164 14.0004H6.15846C3.19358 14.0004 0.790039 16.4039 0.790039 19.3688V66.7095C0.790039 67.6978 1.59128 68.499 2.57957 68.499H30.79V64.8688C30.79 61.9039 33.1936 59.5004 36.1585 59.5004H50.4742C53.4391 59.5004 55.8426 61.9039 55.8428 64.8688V68.499H84.8955C85.8838 68.499 86.685 67.6978 86.685 66.7095V19.3688C86.6848 16.4039 84.2813 14.0004 81.3164 14.0004Z" fill="#12AAFF"/>
<g clip-path="url(#clip0_27717_6373)">
<path d="M30.0737 30.3364V43.6644C30.0737 44.5212 30.5225 45.2964 31.2705 45.7316L42.8169 52.3956C43.5513 52.8172 44.4625 52.8172 45.1969 52.3956L56.7433 45.7316C57.4777 45.31 57.9401 44.5212 57.9401 43.6644V30.3364C57.9401 29.4796 57.4913 28.7044 56.7433 28.2692L45.1969 21.6052C44.4625 21.1836 43.5513 21.1836 42.8169 21.6052L31.2705 28.2692C30.5361 28.6908 30.0873 29.4796 30.0873 30.3364H30.0737Z" fill="#213147"/>
<path d="M46.516 39.5844L44.8704 44.0996C44.8296 44.222 44.8296 44.358 44.8704 44.494L47.6992 52.2596L50.9768 50.3692L47.0464 39.5844C46.9512 39.3396 46.6112 39.3396 46.516 39.5844Z" fill="#12AAFF"/>
<path d="M49.8209 31.9956C49.7257 31.7508 49.3857 31.7508 49.2905 31.9956L47.6449 36.5108C47.6041 36.6332 47.6041 36.7692 47.6449 36.9052L52.2825 49.6212L55.5601 47.7308L49.8209 32.0092V31.9956Z" fill="#12AAFF"/>
<path d="M44 22.1084C44.0816 22.1084 44.1632 22.1356 44.2312 22.1764L56.716 29.3844C56.8656 29.466 56.9472 29.6292 56.9472 29.7924V44.2084C56.9472 44.3716 56.852 44.5348 56.716 44.6164L44.2312 51.8244C44.1632 51.8652 44.0816 51.8924 44 51.8924C43.9184 51.8924 43.8368 51.8652 43.7688 51.8244L31.284 44.6164C31.1344 44.5348 31.0528 44.3716 31.0528 44.2084V29.7788C31.0528 29.6156 31.148 29.4524 31.284 29.3708L43.7688 22.1628C43.8368 22.122 43.9184 22.0948 44 22.0948V22.1084ZM44 20.0004C43.5512 20.0004 43.116 20.1092 42.708 20.3404L30.2232 27.5484C29.4208 28.0108 28.9312 28.854 28.9312 29.7788V44.1948C28.9312 45.1196 29.4208 45.9628 30.2232 46.4252L42.708 53.6332C43.1024 53.8644 43.5512 53.9732 44 53.9732C44.4488 53.9732 44.884 53.8644 45.292 53.6332L57.7768 46.4252C58.5792 45.9628 59.0688 45.1196 59.0688 44.1948V29.7788C59.0688 28.854 58.5792 28.0108 57.7768 27.5484L45.2784 20.3404C44.884 20.1092 44.4352 20.0004 43.9864 20.0004H44Z" fill="#9DCCED"/>
<path d="M35.731 49.6348L36.887 46.4796L39.199 48.3972L37.0366 50.3828L35.731 49.6348Z" fill="#213147"/>
<path d="M42.9392 28.7587H39.7704C39.5392 28.7587 39.3216 28.9083 39.24 29.1259L32.4536 47.7307L35.7312 49.6211L43.2112 29.1259C43.2792 28.9355 43.1432 28.7451 42.9528 28.7451L42.9392 28.7587Z" fill="white"/>
<path d="M48.4878 28.7587H45.319C45.0878 28.7587 44.8702 28.9083 44.7886 29.1259L37.0366 50.3691L40.3142 52.2595L48.7462 29.1259C48.8142 28.9355 48.6782 28.7451 48.4878 28.7451V28.7587Z" fill="white"/>
</g>
<defs>
<clipPath id="clip0_27717_6373">
<rect width="34" height="34" fill="white" transform="translate(27 20.0004)"/>
</clipPath>
</defs>
</svg>
