<svg width="62" height="49" viewBox="0 0 62 49" fill="none" xmlns="http://www.w3.org/2000/svg">
<path d="M37.6832 0.852951H23.3674C20.4026 0.852951 17.999 2.54959 17.999 4.64247V12.2215C17.999 12.9191 18.8003 13.4847 19.7886 13.4847H41.2622C42.2505 13.4847 43.0518 12.9191 43.0518 12.2215V4.64247C43.0516 2.54959 40.6481 0.852951 37.6832 0.852951Z" fill="#4FC0FF"/>
<path fill-rule="evenodd" clip-rule="evenodd" d="M57.5263 10.0295H4.47311C2.38023 10.0295 0.683594 11.7261 0.683594 13.819V47.2364C0.683594 47.934 1.24918 48.4996 1.9468 48.4996H21.8603V45.937C21.8603 43.8441 23.5569 42.1475 25.6498 42.1475H35.7551C37.848 42.1475 39.5446 43.8441 39.5448 45.937V48.4996H60.0527C60.7504 48.4996 61.3159 47.934 61.3159 47.2364V13.819C61.3158 11.7261 59.6192 10.0295 57.5263 10.0295Z" fill="#12AAFF"/>
<g clip-path="url(#clip0_27996_20050)">
<path d="M21.3242 21.296V30.704C21.3242 31.3088 21.641 31.856 22.169 32.1632L30.3194 36.8672C30.8378 37.1648 31.481 37.1648 31.9994 36.8672L40.1498 32.1632C40.6682 31.8656 40.9946 31.3088 40.9946 30.704V21.296C40.9946 20.6912 40.6778 20.144 40.1498 19.8368L31.9994 15.1328C31.481 14.8352 30.8378 14.8352 30.3194 15.1328L22.169 19.8368C21.6506 20.1344 21.3338 20.6912 21.3338 21.296H21.3242Z" fill="#213147"/>
<path d="M32.9303 27.824L31.7687 31.0112C31.7399 31.0976 31.7399 31.1936 31.7687 31.2896L33.7655 36.7712L36.0791 35.4368L33.3047 27.824C33.2375 27.6512 32.9975 27.6512 32.9303 27.824Z" fill="#12AAFF"/>
<path d="M35.2632 22.4672C35.196 22.2944 34.956 22.2944 34.8888 22.4672L33.7272 25.6544C33.6984 25.7408 33.6984 25.8368 33.7272 25.9328L37.0008 34.9088L39.3144 33.5744L35.2632 22.4768V22.4672Z" fill="#12AAFF"/>
<path d="M31.1544 15.488C31.212 15.488 31.2696 15.5072 31.3176 15.536L40.1304 20.624C40.236 20.6816 40.2936 20.7968 40.2936 20.912V31.088C40.2936 31.2032 40.2264 31.3184 40.1304 31.376L31.3176 36.464C31.2696 36.4928 31.212 36.512 31.1544 36.512C31.0968 36.512 31.0392 36.4928 30.9912 36.464L22.1784 31.376C22.0728 31.3184 22.0152 31.2032 22.0152 31.088V20.9024C22.0152 20.7872 22.0824 20.672 22.1784 20.6144L30.9912 15.5264C31.0392 15.4976 31.0968 15.4784 31.1544 15.4784V15.488ZM31.1544 14C30.8376 14 30.5304 14.0768 30.2424 14.24L21.4296 19.328C20.8632 19.6544 20.5176 20.2496 20.5176 20.9024V31.0784C20.5176 31.7312 20.8632 32.3264 21.4296 32.6528L30.2424 37.7408C30.5208 37.904 30.8376 37.9808 31.1544 37.9808C31.4712 37.9808 31.7784 37.904 32.0664 37.7408L40.8792 32.6528C41.4456 32.3264 41.7912 31.7312 41.7912 31.0784V20.9024C41.7912 20.2496 41.4456 19.6544 40.8792 19.328L32.0568 14.24C31.7784 14.0768 31.4616 14 31.1448 14H31.1544Z" fill="#9DCCED"/>
<path d="M25.3174 34.9184L26.1334 32.6912L27.7654 34.0448L26.239 35.4464L25.3174 34.9184Z" fill="#213147"/>
<path d="M30.4055 20.1824H28.1687C28.0055 20.1824 27.8519 20.288 27.7943 20.4416L23.0039 33.5744L25.3175 34.9088L30.5975 20.4416C30.6455 20.3072 30.5495 20.1728 30.4151 20.1728L30.4055 20.1824Z" fill="white"/>
<path d="M34.322 20.1824H32.0852C31.922 20.1824 31.7684 20.288 31.7108 20.4416L26.2388 35.4368L28.5524 36.7712L34.5044 20.4416C34.5524 20.3072 34.4564 20.1728 34.322 20.1728V20.1824Z" fill="white"/>
</g>
<defs>
<clipPath id="clip0_27996_20050">
<rect width="24" height="24" fill="white" transform="translate(19.1543 14)"/>
</clipPath>
</defs>
</svg>
