<svg width="62" height="49" viewBox="0 0 62 49" fill="none" xmlns="http://www.w3.org/2000/svg">
<path d="M22.1575 0.852936H12.0522C9.95933 0.852936 8.2627 2.54957 8.2627 4.64245V12.2215C8.2627 12.9191 8.82828 13.4847 9.52591 13.4847H24.684C25.3816 13.4847 25.9472 12.9191 25.9472 12.2215V4.64245C25.9471 2.54957 24.2504 0.852936 22.1575 0.852936Z" fill="#3B3B3F"/>
<path d="M49.8729 0.852936H39.7675C37.6747 0.852936 35.978 2.54957 35.978 4.64245V12.2215C35.978 12.9191 36.5436 13.4847 37.2412 13.4847H52.3993C53.0969 13.4847 53.6625 12.9191 53.6625 12.2215V4.64245C53.6624 2.54957 51.9658 0.852936 49.8729 0.852936Z" fill="#3B3B3F"/>
<path fill-rule="evenodd" clip-rule="evenodd" d="M57.5263 10.0295H4.47311C2.38023 10.0295 0.683594 11.7261 0.683594 13.819V47.2364C0.683594 47.934 1.24918 48.4996 1.9468 48.4996H21.8603V45.937C21.8603 43.8441 23.5569 42.1475 25.6498 42.1475H35.7551C37.848 42.1475 39.5446 43.8441 39.5448 45.937V48.4996H60.0527C60.7504 48.4996 61.3159 47.934 61.3159 47.2364V13.819C61.3158 11.7261 59.6192 10.0295 57.5263 10.0295Z" fill="#1E1E20"/>
<g clip-path="url(#clip0_27996_20100)">
<path d="M39.8725 26.4306C40.1771 26.1336 40.3712 25.7013 40.2534 25.1262C40.1543 24.6452 39.7433 24.243 39.2671 24.1979C38.9511 24.1679 38.6846 24.2505 38.3952 24.4008C38.3952 24.4008 37.6414 23.9686 36.6171 23.3785C37.5727 22.8296 38.4826 22.3111 39.187 21.9088C39.3508 21.8148 39.6288 21.6269 39.8725 21.3903C40.1771 21.0934 40.3712 20.6611 40.2534 20.086C40.1543 19.605 39.7433 19.2027 39.2671 19.1577C38.9511 19.1277 38.6846 19.2102 38.3952 19.3606C38.3952 19.3606 31.0698 15.1511 30.9824 15.1021C30.8909 15.0533 30.8035 15.008 30.6892 15.0005C30.5597 14.993 30.4416 15.0718 30.3466 15.1246C27.2742 16.8914 23.7674 18.9058 21.1253 20.4205C21.0452 20.4655 20.9692 20.5145 20.8929 20.5633C20.7824 20.6346 20.6912 20.7286 20.6912 20.8602C20.6912 20.9918 20.7827 21.0743 20.8587 21.1309C20.9309 21.1797 20.9616 21.1984 21.1139 21.285C21.7002 21.6232 23.1889 22.4764 24.7536 23.3747C23.4552 24.1188 22.2141 24.833 21.1215 25.4607C21.0414 25.5057 20.9654 25.5547 20.8891 25.6035C20.7786 25.6748 20.6874 25.7689 20.6874 25.9004C20.6874 26.032 20.7789 26.1146 20.8549 26.1711C20.9271 26.2199 20.9578 26.2387 21.1101 26.3252C21.6964 26.6633 23.1851 27.5166 24.7498 28.415C23.4514 29.1591 22.2103 29.8733 21.1177 30.5009C21.0376 30.5459 20.9616 30.595 20.8853 30.6437C20.7748 30.715 20.6836 30.8091 20.6836 30.9407C20.6836 31.0723 20.7751 31.1547 20.8511 31.2114C20.9233 31.2601 20.954 31.2789 21.1063 31.3655C22.298 32.0496 27.1561 34.8382 28.9266 35.8605C29.1017 35.9621 29.4711 36.1725 29.6614 36.2591C30.0192 36.4244 30.476 36.5673 30.857 36.5334C31.4091 36.4885 31.7973 36.229 32.3114 35.9322C34.1085 34.8985 37.3485 33.0344 39.1876 31.9855C39.3513 31.8914 39.6293 31.7036 39.873 31.467C40.1777 31.1701 40.3718 30.7378 40.254 30.1627C40.1549 29.6817 39.7439 29.2795 39.2677 29.2344C38.9517 29.2044 38.6851 29.2869 38.3958 29.4373C38.3958 29.4373 37.6419 29.005 36.6177 28.415C37.5732 27.8661 38.4831 27.3476 39.1876 26.9453C39.3475 26.8587 39.625 26.6709 39.8725 26.4306ZM21.5935 20.8602C21.5973 20.7699 21.6391 20.7249 21.704 20.6874L30.4495 15.6659C30.5941 15.5831 30.7769 15.5831 30.9216 15.6659L37.8851 19.6613C37.8851 19.6613 32.7909 22.5892 30.9101 23.6641C30.7579 23.7507 30.4685 23.931 30.3618 24.0211C30.2247 24.1339 30.1256 24.2805 30.0762 24.4609C29.981 24.8291 30.1525 25.1147 30.3542 25.2275C30.655 25.3928 30.895 25.2726 30.8911 25.1222C30.6667 25.0394 30.6131 24.8628 30.6436 24.6787C30.674 24.5171 30.7997 24.393 31.0014 24.363C31.2983 24.318 31.5688 24.5021 31.641 24.8816C31.7131 25.2498 31.5725 25.5657 31.3288 25.7423C30.83 26.1031 30.1789 25.9152 29.7296 25.6558C29.3183 25.4189 23.2495 21.9348 21.7076 21.0478C21.6429 21.0065 21.5897 20.9503 21.5935 20.8602ZM37.8813 29.7417C37.8813 29.7417 32.787 32.6697 30.9063 33.7446C30.754 33.8312 30.4647 34.0115 30.358 34.1016C30.221 34.2144 30.1219 34.3609 30.0724 34.5413C29.9771 34.9095 30.1487 35.1952 30.3504 35.308C30.6512 35.4733 30.8911 35.353 30.8873 35.2026C30.6629 35.1199 30.6094 34.9433 30.6398 34.7591C30.6702 34.5976 30.7959 34.4735 30.9976 34.4435C31.2946 34.3984 31.565 34.5826 31.6371 34.962C31.7093 35.3302 31.5688 35.6461 31.325 35.8228C30.8263 36.1835 30.175 35.9956 29.7258 35.7362C29.3145 35.4993 23.2457 32.0153 21.7038 31.1283C21.6391 31.0908 21.5857 31.038 21.5895 30.9479C21.5933 30.8576 21.6351 30.8126 21.6999 30.775L25.2675 28.7266C25.1 28.6288 28.0316 30.3165 28.9225 30.8313C29.0976 30.9329 29.4671 31.1433 29.6574 31.2299C30.0151 31.3952 30.472 31.538 30.8529 31.5042C31.405 31.4592 31.7932 31.1998 32.3074 30.9029C33.4114 30.2677 36.2631 28.6291 36.0957 28.7266L37.8813 29.7417ZM30.9063 28.7044C30.754 28.7909 30.4647 28.9713 30.358 29.0613C30.221 29.1741 30.1219 29.3207 30.0724 29.501C29.9771 29.8693 30.1487 30.1549 30.3504 30.2677C30.6512 30.4331 30.8911 30.3128 30.8873 30.1624C30.6629 30.0796 30.6094 29.903 30.6398 29.7189C30.6702 29.5573 30.7959 29.4333 30.9976 29.4032C31.2946 29.3583 31.565 29.5423 31.6371 29.9218C31.7093 30.29 31.5688 30.606 31.325 30.7826C30.8263 31.1433 30.175 30.9554 29.7258 30.696C29.3145 30.4591 23.2457 26.975 21.7038 26.088C21.6391 26.0505 21.5857 25.9977 21.5895 25.9077C21.5933 25.8173 21.6351 25.7724 21.6999 25.7349L25.2675 23.6864C26.6989 24.5096 28.1268 25.3289 28.9225 25.7911C29.0976 25.8926 29.4671 26.1031 29.6574 26.1896C30.0151 26.3549 30.472 26.4978 30.8529 26.464C31.405 26.419 31.7932 26.1596 32.3074 25.8627C33.4076 25.2313 36.2555 23.5926 36.0957 23.6864L37.8813 24.7087C37.8813 24.7012 32.787 27.6294 30.9063 28.7044Z" fill="white"/>
</g>
<defs>
<clipPath id="clip0_27996_20100">
<rect width="20" height="21.5385" fill="white" transform="translate(20.6836 15)"/>
</clipPath>
</defs>
</svg>
