<svg width="126" height="68" viewBox="0 0 126 68" fill="none" xmlns="http://www.w3.org/2000/svg">
<path d="M30.8961 0H16.5803C13.6155 0 11.2119 2.40354 11.2119 5.36842V16.1053C11.2119 17.0936 12.0132 17.8948 13.0014 17.8948H34.4751C35.4634 17.8948 36.2647 17.0936 36.2647 16.1053V5.36842C36.2645 2.40354 33.861 0 30.8961 0Z" fill="#DB1639"/>
<path d="M70.1593 0H55.8435C52.8786 0 50.4751 2.40354 50.4751 5.36842V16.1053C50.4751 17.0936 51.2763 17.8948 52.2646 17.8948H73.7383C74.7266 17.8948 75.5279 17.0936 75.5279 16.1053V5.36842C75.5277 2.40354 73.1241 0 70.1593 0Z" fill="#DB1639"/>
<path d="M109.079 0H94.7634C91.7986 0 89.395 2.40354 89.395 5.36842V16.1053C89.395 17.0936 90.1963 17.8948 91.1846 17.8948H112.658C113.647 17.8948 114.448 17.0936 114.448 16.1053V5.36842C114.448 2.40354 112.044 0 109.079 0Z" fill="#DB1639"/>
<path fill-rule="evenodd" clip-rule="evenodd" d="M5.84352 13H120.001C122.966 13 125.37 15.4035 125.37 18.3684V65.7092C125.37 66.6975 124.569 67.4987 123.581 67.4987H101.368V63.8684C101.368 60.9035 98.964 58.5 95.9991 58.5H81.6834C78.7185 58.5 76.3149 60.9035 76.3149 63.8684V67.4987H48.3677V63.8684C48.3675 60.9035 45.964 58.5 42.9991 58.5H28.6834C25.7185 58.5 23.3149 60.9035 23.3149 63.8684V67.4987H2.26463C1.27633 67.4987 0.475098 66.6975 0.475098 65.7092V18.3684C0.475098 15.4035 2.87864 13 5.84352 13Z" fill="#FF0420"/>
<path d="M52.976 43.5449C50.9858 43.5449 49.3563 43.0774 48.0874 42.1425C46.8319 41.1941 46.2041 39.8318 46.2041 38.082C46.2041 37.708 46.2442 37.2673 46.3243 36.733C46.538 35.5309 46.8452 34.0884 47.2459 32.3921C48.3812 27.7974 51.3197 25.5 56.048 25.5C57.3302 25.5 58.4923 25.7137 59.5074 26.1545C60.5225 26.5685 61.3239 27.2097 61.9116 28.0645C62.4993 28.906 62.7931 29.9077 62.7931 31.0697C62.7931 31.417 62.7531 31.8578 62.6729 32.3921C62.4192 33.8747 62.1253 35.3305 61.7647 36.733C61.177 39.017 60.1752 40.74 58.7327 41.8753C57.3035 42.9973 55.3802 43.5449 52.976 43.5449ZM53.3366 39.9386C54.2716 39.9386 55.0596 39.6581 55.7141 39.1105C56.3819 38.5629 56.8628 37.7214 57.1433 36.5727C57.5306 34.9966 57.8244 33.6342 58.0248 32.4588C58.0916 32.1116 58.1316 31.7509 58.1316 31.377C58.1316 29.8543 57.3436 29.093 55.7542 29.093C54.8192 29.093 54.0178 29.3734 53.3499 29.9211C52.6955 30.4687 52.228 31.3102 51.9475 32.4588C51.6403 33.5808 51.3464 34.9432 51.0392 36.5727C50.9724 36.9066 50.9324 37.2539 50.9324 37.6279C50.919 39.1773 51.7338 39.9386 53.3366 39.9386Z" fill="white"/>
<path d="M63.9556 43.3034C63.7686 43.3034 63.635 43.2499 63.5281 43.1297C63.448 42.9961 63.4213 42.8492 63.448 42.6756L66.9074 26.3804C66.9341 26.1934 67.0276 26.0465 67.1879 25.9263C67.3348 25.8061 67.4951 25.7526 67.6687 25.7526H74.3337C76.1903 25.7526 77.6729 26.14 78.7949 26.9013C79.9302 27.676 80.5045 28.7846 80.5045 30.2405C80.5045 30.6545 80.4511 31.0953 80.3576 31.5494C79.9436 33.4728 79.1021 34.8886 77.8198 35.8102C76.5643 36.7318 74.8413 37.186 72.6508 37.186H69.2715L68.1229 42.6756C68.0828 42.8626 68.0026 43.0095 67.8424 43.1297C67.6954 43.2499 67.5352 43.3034 67.3615 43.3034H63.9556ZM72.8244 33.7266C73.5323 33.7266 74.1334 33.5396 74.6543 33.1522C75.1886 32.7649 75.5358 32.2173 75.7095 31.496C75.7629 31.2155 75.7896 30.9617 75.7896 30.748C75.7896 30.2672 75.6427 29.8932 75.3622 29.6394C75.0817 29.3723 74.5875 29.2387 73.9063 29.2387H70.9011L69.9527 33.7266H72.8244Z" fill="white"/>
</svg>
