<svg width="89" height="49" viewBox="0 0 89 49" fill="none" xmlns="http://www.w3.org/2000/svg">
<path d="M22.2643 0.5H12.1591C10.0662 0.5 8.36963 2.19662 8.36963 4.28948V11.8684C8.36963 12.566 8.93521 13.1316 9.63283 13.1316H24.7907C25.4883 13.1316 26.0539 12.566 26.0539 11.8684V4.28948C26.0538 2.19662 24.3572 0.5 22.2643 0.5Z" fill="#DB1639"/>
<path d="M49.9797 0.5H39.8744C37.7816 0.5 36.085 2.19662 36.085 4.28948V11.8684C36.085 12.566 36.6505 13.1316 37.3482 13.1316H52.5061C53.2037 13.1316 53.7693 12.566 53.7693 11.8684V4.28948C53.7691 2.19662 52.0725 0.5 49.9797 0.5Z" fill="#DB1639"/>
<path d="M77.4523 0.5H67.3471C65.2542 0.5 63.5576 2.19662 63.5576 4.28948V11.8684C63.5576 12.566 64.1232 13.1316 64.8208 13.1316H79.9787C80.6763 13.1316 81.2419 12.566 81.2419 11.8684V4.28948C81.2418 2.19662 79.5452 0.5 77.4523 0.5Z" fill="#DB1639"/>
<path fill-rule="evenodd" clip-rule="evenodd" d="M4.58 9.67647H85.1621C87.2549 9.67647 88.9515 11.3731 88.9517 13.4659V46.8829C88.9517 47.5806 88.3861 48.1461 87.6885 48.1461H72.0088V45.5836C72.0087 43.4907 70.3121 41.7941 68.2192 41.7941H58.114C56.0212 41.7941 54.3245 43.4907 54.3245 45.5836V48.1461H34.5971V45.5836C34.5969 43.4907 32.9003 41.7941 30.8075 41.7941H20.7022C18.6094 41.7941 16.9128 43.4907 16.9128 45.5836V48.1461H2.05373C1.35611 48.1461 0.790527 47.5806 0.790527 46.8829V13.4659C0.790527 11.3731 2.48715 9.67647 4.58 9.67647Z" fill="#FF0420"/>
<path d="M37.85 31.2376C36.4451 31.2376 35.2949 30.9076 34.3992 30.2476C33.513 29.5782 33.0698 28.6165 33.0698 27.3814C33.0698 27.1174 33.0981 26.8063 33.1547 26.4292C33.3055 25.5806 33.5224 24.5624 33.8052 23.365C34.6066 20.1217 36.6809 18.5 40.0185 18.5C40.9236 18.5 41.7438 18.6509 42.4604 18.962C43.1769 19.2543 43.7426 19.7068 44.1575 20.3102C44.5723 20.9042 44.7797 21.6113 44.7797 22.4316C44.7797 22.6767 44.7514 22.9879 44.6949 23.365C44.5157 24.4115 44.3083 25.4392 44.0538 26.4292C43.6389 28.0414 42.9318 29.2577 41.9135 30.0591C40.9047 30.851 39.547 31.2376 37.85 31.2376ZM38.1045 28.692C38.7645 28.692 39.3208 28.494 39.7828 28.1074C40.2542 27.7208 40.5936 27.1269 40.7916 26.316C41.065 25.2035 41.2724 24.2418 41.4138 23.4121C41.461 23.167 41.4893 22.9124 41.4893 22.6484C41.4893 21.5736 40.933 21.0362 39.811 21.0362C39.1511 21.0362 38.5854 21.2342 38.1139 21.6208C37.652 22.0073 37.322 22.6013 37.124 23.4121C36.9071 24.2041 36.6997 25.1658 36.4829 26.316C36.4357 26.5517 36.4074 26.7969 36.4074 27.0609C36.398 28.1545 36.9731 28.692 38.1045 28.692Z" fill="white"/>
<path d="M45.6002 31.0671C45.4682 31.0671 45.3739 31.0293 45.2985 30.9445C45.2419 30.8502 45.2231 30.7465 45.2419 30.6239L47.6839 19.1214C47.7027 18.9894 47.7687 18.8857 47.8818 18.8009C47.9856 18.716 48.0987 18.6783 48.2213 18.6783H52.926C54.2365 18.6783 55.283 18.9517 56.075 19.4891C56.8764 20.036 57.2818 20.8185 57.2818 21.8462C57.2818 22.1385 57.2441 22.4496 57.1781 22.7702C56.8858 24.1279 56.2919 25.1273 55.3868 25.7778C54.5005 26.4284 53.2842 26.7489 51.738 26.7489H49.3527L48.5418 30.6239C48.5135 30.7559 48.457 30.8596 48.3438 30.9445C48.2401 31.0293 48.127 31.0671 48.0044 31.0671H45.6002ZM51.8606 24.307C52.3603 24.307 52.7845 24.175 53.1523 23.9016C53.5294 23.6282 53.7745 23.2416 53.8971 22.7325C53.9348 22.5345 53.9537 22.3553 53.9537 22.2045C53.9537 21.8651 53.8499 21.6011 53.652 21.4219C53.454 21.2334 53.1051 21.1391 52.6243 21.1391H50.5029L49.8335 24.307H51.8606Z" fill="white"/>
</svg>
