<svg width="86" height="68" viewBox="0 0 86 68" fill="none" xmlns="http://www.w3.org/2000/svg">
<path d="M30.421 0.5H16.1052C13.1404 0.5 10.7368 2.90354 10.7368 5.86842V16.6053C10.7368 17.5936 11.5381 18.3948 12.5263 18.3948H34C34.9883 18.3948 35.7896 17.5936 35.7896 16.6053V5.86842C35.7894 2.90354 33.3859 0.5 30.421 0.5Z" fill="#3F3F3F"/>
<path d="M69.6842 0.5H55.3684C52.4035 0.5 50 2.90354 50 5.86842V16.6053C50 17.5936 50.8012 18.3948 51.7895 18.3948H73.2632C74.2515 18.3948 75.0528 17.5936 75.0528 16.6053V5.86842C75.0526 2.90354 72.649 0.5 69.6842 0.5Z" fill="#3F3F3F"/>
<path fill-rule="evenodd" clip-rule="evenodd" d="M80.5264 13.5H5.36842C2.40354 13.5 0 15.9035 0 18.8684V66.2092C0 67.1975 0.801237 67.9987 1.78953 67.9987H30V64.3684C30 61.4035 32.4035 59 35.3684 59H49.6842C52.649 59 55.0526 61.4035 55.0528 64.3684V67.9987H84.1054C85.0937 67.9987 85.8949 67.1975 85.8949 66.2092V18.8684C85.8948 15.9035 83.4912 13.5 80.5264 13.5Z" fill="black"/>
<rect x="31.8606" y="24.5" width="6.09966" height="24.3986" fill="white"/>
<rect x="37.3506" y="42.5952" width="12.8093" height="6.30298" fill="white"/>
<rect x="41.0105" y="36.6992" width="3.04983" height="5.89634" fill="white"/>
<rect width="6.09966" height="6.09966" transform="matrix(-1 0 0 1 50.1594 30.6014)" fill="white"/>
<rect width="3.25315" height="6.09966" transform="matrix(-1 0 0 1 47.3127 24.5)" fill="white"/>
<rect width="3.04983" height="3.25315" transform="matrix(-1 0 0 1 44.0598 24.5)" fill="white"/>
<rect width="3.25315" height="6.09966" transform="matrix(-1 0 0 1 53.4124 24.5)" fill="white"/>
</svg>
