<svg width="62" height="49" viewBox="0 0 62 49" fill="none" xmlns="http://www.w3.org/2000/svg">
<path d="M22.1575 0.853027H12.0522C9.95933 0.853027 8.2627 2.54966 8.2627 4.64254V12.2216C8.2627 12.9192 8.82828 13.4848 9.52591 13.4848H24.684C25.3816 13.4848 25.9472 12.9192 25.9472 12.2216V4.64254C25.9471 2.54966 24.2504 0.853027 22.1575 0.853027Z" fill="#0172C9"/>
<path d="M49.8729 0.853027H39.7675C37.6747 0.853027 35.978 2.54966 35.978 4.64254V12.2216C35.978 12.9192 36.5436 13.4848 37.2412 13.4848H52.3993C53.0969 13.4848 53.6625 12.9192 53.6625 12.2216V4.64254C53.6624 2.54966 51.9658 0.853027 49.8729 0.853027Z" fill="#0172C9"/>
<path fill-rule="evenodd" clip-rule="evenodd" d="M57.5263 10.0293H4.47311C2.38023 10.0293 0.683594 11.7259 0.683594 13.8188V47.2361C0.683594 47.9338 1.24918 48.4994 1.9468 48.4994H21.8603V45.9368C21.8603 43.8439 23.5569 42.1473 25.6498 42.1473H35.7551C37.848 42.1473 39.5446 43.8439 39.5448 45.9368V48.4994H60.0527C60.7504 48.4994 61.3159 47.9338 61.3159 47.2361V13.8188C61.3158 11.7259 59.6192 10.0293 57.5263 10.0293Z" fill="#0090FF"/>
<path fill-rule="evenodd" clip-rule="evenodd" d="M32.3298 27.3196L31.9098 29.5596L35.8998 30.1196L35.6198 31.1696L31.6998 30.6096C31.4198 31.5196 31.2798 32.4996 30.9298 33.3396C30.5798 34.3196 30.2298 35.2996 29.8098 36.2096C29.2498 37.3996 28.2698 38.2396 26.9398 38.4496C26.1698 38.5896 25.3298 38.5196 24.6998 38.0296C24.4898 37.8896 24.2798 37.6096 24.2798 37.3996C24.2798 37.1196 24.4198 36.7696 24.6298 36.6296C24.7698 36.5596 25.1198 36.6296 25.3298 36.6996C25.5398 36.9096 25.7498 37.1896 25.8898 37.4696C26.3098 38.0296 26.8698 38.0996 27.4298 37.6796C28.0598 37.1196 28.4098 36.3496 28.6198 35.5796C29.0398 33.8996 29.4598 32.2896 29.8098 30.6096V30.3296L26.0998 29.7696L26.2398 28.7196L30.0898 29.2796L30.5798 27.1096L26.5898 26.4796L26.7298 25.3596L30.8598 25.9196C30.9998 25.4996 31.0698 25.1496 31.2098 24.7996C31.5598 23.5396 31.9098 22.2796 32.7498 21.1596C33.5898 20.0396 34.5698 19.3396 36.0398 19.4096C36.6698 19.4096 37.2998 19.6196 37.7198 20.1096C37.7898 20.1796 37.9298 20.3196 37.9298 20.4596C37.9298 20.7396 37.9298 21.0896 37.7198 21.2996C37.4398 21.5096 37.0898 21.4396 36.8098 21.1596C36.5998 20.9496 36.4598 20.7396 36.2498 20.5296C35.8298 19.9696 35.1998 19.8996 34.7098 20.3896C34.3598 20.7396 34.0098 21.2296 33.7998 21.7196C33.3098 23.1896 32.9598 24.7296 32.4698 26.2696L36.3198 26.8296L36.0398 27.8796L32.3298 27.3196Z" fill="white"/>
</svg>
