<svg width="62" height="49" viewBox="0 0 62 49" fill="none" xmlns="http://www.w3.org/2000/svg">
<path d="M22.1575 0.853027H12.0522C9.95933 0.853027 8.2627 2.54966 8.2627 4.64254V12.2216C8.2627 12.9192 8.82828 13.4848 9.52591 13.4848H24.684C25.3816 13.4848 25.9472 12.9192 25.9472 12.2216V4.64254C25.9471 2.54966 24.2504 0.853027 22.1575 0.853027Z" fill="#0172C9"/>
<path d="M49.8729 0.853027H39.7675C37.6747 0.853027 35.978 2.54966 35.978 4.64254V12.2216C35.978 12.9192 36.5436 13.4848 37.2412 13.4848H52.3993C53.0969 13.4848 53.6625 12.9192 53.6625 12.2216V4.64254C53.6624 2.54966 51.9658 0.853027 49.8729 0.853027Z" fill="#0172C9"/>
<path fill-rule="evenodd" clip-rule="evenodd" d="M57.5263 10.0293H4.47311C2.38023 10.0293 0.683594 11.7259 0.683594 13.8188V47.2361C0.683594 47.9338 1.24918 48.4994 1.9468 48.4994H21.8603V45.9368C21.8603 43.8439 23.5569 42.1473 25.6498 42.1473H35.7551C37.848 42.1473 39.5446 43.8439 39.5448 45.9368V48.4994H60.0527C60.7504 48.4994 61.3159 47.9338 61.3159 47.2361V13.8188C61.3158 11.7259 59.6192 10.0293 57.5263 10.0293Z" fill="#0090FF"/>
</svg>
