<svg width="89" height="49" viewBox="0 0 89 49" fill="none" xmlns="http://www.w3.org/2000/svg">
<path d="M22.2643 0.5H12.1591C10.0662 0.5 8.36963 2.19662 8.36963 4.28948V11.8684C8.36963 12.566 8.93521 13.1316 9.63283 13.1316H24.7907C25.4883 13.1316 26.0539 12.566 26.0539 11.8684V4.28948C26.0538 2.19662 24.3572 0.5 22.2643 0.5Z" fill="#C1C1C1"/>
<path d="M49.9797 0.5H39.8744C37.7816 0.5 36.085 2.19662 36.085 4.28948V11.8684C36.085 12.566 36.6505 13.1316 37.3482 13.1316H52.5061C53.2037 13.1316 53.7693 12.566 53.7693 11.8684V4.28948C53.7691 2.19662 52.0725 0.5 49.9797 0.5Z" fill="#C1C1C1"/>
<path d="M77.4523 0.5H67.3471C65.2542 0.5 63.5576 2.19662 63.5576 4.28948V11.8684C63.5576 12.566 64.1232 13.1316 64.8208 13.1316H79.9787C80.6763 13.1316 81.2419 12.566 81.2419 11.8684V4.28948C81.2418 2.19662 79.5452 0.5 77.4523 0.5Z" fill="#C1C1C1"/>
<path fill-rule="evenodd" clip-rule="evenodd" d="M4.58 9.67627H85.1621C87.2549 9.67627 88.9515 11.3729 88.9517 13.4657V46.8827C88.9517 47.5804 88.3861 48.1459 87.6885 48.1459H72.0088V45.5834C72.0087 43.4905 70.3121 41.7939 68.2192 41.7939H58.114C56.0212 41.7939 54.3245 43.4905 54.3245 45.5834V48.1459H34.5971V45.5834C34.597 43.4905 32.9003 41.7939 30.8075 41.7939H20.7022C18.6094 41.7939 16.9128 43.4905 16.9128 45.5834V48.1459H2.05373C1.35611 48.1459 0.790527 47.5804 0.790527 46.8827V13.4657C0.790527 11.3729 2.48715 9.67627 4.58 9.67627Z" fill="#E0E0E0"/>
</svg>
