<svg width="62" height="49" viewBox="0 0 62 49" fill="none" xmlns="http://www.w3.org/2000/svg">
<path d="M22.1575 0.852951H12.0522C9.95933 0.852951 8.2627 2.54959 8.2627 4.64247V12.2215C8.2627 12.9191 8.82828 13.4847 9.52591 13.4847H24.684C25.3816 13.4847 25.9472 12.9191 25.9472 12.2215V4.64247C25.9471 2.54959 24.2504 0.852951 22.1575 0.852951Z" fill="#3F3F3F"/>
<path d="M49.8729 0.852951H39.7675C37.6747 0.852951 35.978 2.54959 35.978 4.64247V12.2215C35.978 12.9191 36.5436 13.4847 37.2412 13.4847H52.3993C53.0969 13.4847 53.6625 12.9191 53.6625 12.2215V4.64247C53.6624 2.54959 51.9658 0.852951 49.8729 0.852951Z" fill="#3F3F3F"/>
<path fill-rule="evenodd" clip-rule="evenodd" d="M57.5263 10.0295H4.47311C2.38023 10.0295 0.683594 11.7261 0.683594 13.819V47.2364C0.683594 47.934 1.24918 48.4996 1.9468 48.4996H21.8603V45.937C21.8603 43.8441 23.5569 42.1475 25.6498 42.1475H35.7551C37.848 42.1475 39.5446 43.8441 39.5448 45.937V48.4996H60.0527C60.7504 48.4996 61.3159 47.934 61.3159 47.2364V13.819C61.3158 11.7261 59.6192 10.0295 57.5263 10.0295Z" fill="black"/>
<rect x="22.8896" y="17" width="4.65518" height="18.6207" fill="white"/>
<rect x="27.0796" y="30.81" width="9.77589" height="4.81036" fill="white"/>
<rect x="29.873" y="26.3103" width="2.32759" height="4.50001" fill="white"/>
<rect width="4.65518" height="4.65518" transform="matrix(-1 0 0 1 36.855 21.6565)" fill="white"/>
<rect width="2.48277" height="4.65518" transform="matrix(-1 0 0 1 34.6826 17)" fill="white"/>
<rect width="2.32759" height="2.48277" transform="matrix(-1 0 0 1 32.2002 17)" fill="white"/>
<rect width="2.48277" height="4.65518" transform="matrix(-1 0 0 1 39.3379 17)" fill="white"/>
</svg>
