<svg width="87" height="69" viewBox="0 0 87 69" fill="none" xmlns="http://www.w3.org/2000/svg">
<path d="M50.7367 1.00037H36.4209C33.456 1.00037 31.0525 3.40391 31.0525 6.36879V17.1056C31.0525 18.0939 31.8537 18.8952 32.842 18.8952H54.3157C55.304 18.8952 56.1052 18.0939 56.1052 17.1056V6.36879C56.1051 3.40391 53.7015 1.00037 50.7367 1.00037Z" fill="#5B69E4"/>
<path fill-rule="evenodd" clip-rule="evenodd" d="M72.9274 14.0004H15.1775C12.8993 14.0004 11.0525 16.3819 11.0525 19.3197V66.2272C11.0525 67.2065 11.6681 68.0004 12.4275 68.0004H31.0525V64.3688C31.0525 61.4039 33.456 59.0004 36.4209 59.0004H50.7367C53.7015 59.0004 56.1051 61.4039 56.1052 64.3688V68.0004H75.6775C76.4368 68.0004 77.0525 67.2065 77.0525 66.2272V19.3197C77.0524 16.3819 75.2055 14.0004 72.9274 14.0004Z" fill="#627EEA"/>
<path d="M44.0525 54.0004C54.0227 54.0004 62.1052 45.9179 62.1052 35.9476C62.1052 25.9774 54.0227 17.8949 44.0525 17.8949C34.0822 17.8949 25.9998 25.9774 25.9998 35.9476C25.9998 45.9179 34.0822 54.0004 44.0525 54.0004Z" fill="#627EEA"/>
<path d="M44.6143 22.4078V32.4158L53.0731 36.1956L44.6143 22.4078Z" fill="white" fill-opacity="0.602"/>
<path d="M44.6143 22.4078L36.1543 36.1956L44.6143 32.4158V22.4078Z" fill="white"/>
<path d="M44.6143 42.68V49.4802L53.0787 37.7696L44.6143 42.68Z" fill="white" fill-opacity="0.602"/>
<path d="M44.6143 49.4802V42.6788L36.1543 37.7696L44.6143 49.4802Z" fill="white"/>
<path d="M44.6143 41.1069L53.0731 36.1955L44.6143 32.4179V41.1069Z" fill="white" fill-opacity="0.2"/>
<path d="M36.1543 36.1955L44.6143 41.1069V32.4179L36.1543 36.1955Z" fill="white" fill-opacity="0.602"/>
</svg>
