<svg width="86" height="68" viewBox="0 0 86 68" fill="none" xmlns="http://www.w3.org/2000/svg">
<path d="M49.8941 0.5H35.5784C32.6135 0.5 30.21 2.90354 30.21 5.86842V16.6053C30.21 17.5936 31.0112 18.3948 31.9995 18.3948H53.4732C54.4615 18.3948 55.2627 17.5936 55.2627 16.6053V5.86842C55.2625 2.90354 52.859 0.5 49.8941 0.5Z" fill="#654DC7"/>
<path fill-rule="evenodd" clip-rule="evenodd" d="M72.0848 13.5H14.335C12.0568 13.5 10.21 15.8816 10.21 18.8193V65.7268C10.21 66.7061 10.8256 67.5 11.585 67.5H30.21V63.8684C30.21 60.9035 32.6135 58.5 35.5784 58.5H49.8941C52.859 58.5 55.2625 60.9035 55.2627 63.8684V67.5H74.8349C75.5943 67.5 76.21 66.7061 76.21 65.7268V18.8193C76.2098 15.8816 74.363 13.5 72.0848 13.5Z" fill="#8247E5"/>
<path d="M48.7715 39.9935L54.7013 36.5916C55.0157 36.4109 55.21 36.0758 55.21 35.7161V28.9123C55.21 28.5526 55.0157 28.2175 54.7013 28.0368L48.7715 24.6349C48.4571 24.4542 48.0668 24.4559 47.7543 24.6349L41.8243 28.0368C41.51 28.2175 41.3158 28.5526 41.3158 28.9123V41.0708L37.157 43.4551L32.9983 41.0708V36.3004L37.157 33.9161L39.8995 35.4898V32.2896L37.6656 31.0071C37.512 30.9194 37.3354 30.872 37.157 30.872C36.9786 30.872 36.8021 30.9194 36.6485 31.0071L30.7185 34.409C30.4042 34.5897 30.21 34.9249 30.21 35.2845V42.0884C30.21 42.4481 30.4042 42.7831 30.7185 42.9638L36.6485 46.3658C36.9628 46.5447 37.3513 46.5447 37.6656 46.3658L43.5955 42.9638C43.9099 42.7831 44.1041 42.4481 44.1041 42.0884V29.9281L44.1783 29.886L48.2611 27.5438L52.4198 29.9281V34.6986L48.2611 37.0829L45.5221 35.5126V38.7128L47.7525 39.9918C48.0668 40.1707 48.4571 40.1707 48.7697 39.9918L48.7715 39.9935Z" fill="white"/>
</svg>
