<svg width="46" height="37" viewBox="0 0 46 37" fill="none" xmlns="http://www.w3.org/2000/svg">
<path d="M25.6124 0.953613H19.3616C18.0671 0.953613 17.0176 2.22479 17.0176 3.79285V9.47133C17.0176 9.99402 17.3674 10.4178 17.799 10.4178H27.1752C27.6067 10.4178 27.9565 9.99402 27.9565 9.47133V3.79285C27.9565 2.22479 26.907 0.953613 25.6124 0.953613Z" fill="#0172C9"/>
<path fill-rule="evenodd" clip-rule="evenodd" d="M38.6315 7.82959H8.08884C6.88398 7.82959 5.90723 9.08914 5.90723 10.6428V35.4512C5.90723 35.9691 6.23283 36.389 6.63445 36.389H16.6962V34.4682C16.6962 32.9001 17.9674 31.6289 19.5355 31.6289H27.1067C28.6748 31.6289 29.946 32.9001 29.9461 34.4682V36.389H40.0859C40.4875 36.389 40.8131 35.9691 40.8131 35.4512V10.6428C40.8131 9.08914 39.8363 7.82959 38.6315 7.82959Z" fill="#0090FF"/>
<g clip-path="url(#clip0_32839_15704)">
<path fill-rule="evenodd" clip-rule="evenodd" d="M23.4307 32.0003C16.8307 32.0003 11.4307 26.6003 11.4307 19.9403C11.4907 13.3403 16.8307 7.94025 23.4907 8.00025C30.0907 8.06025 35.4307 13.4003 35.4307 20.1203C35.3707 26.6603 30.0307 32.0003 23.4307 32.0003Z" fill="#0090FF"/>
<path fill-rule="evenodd" clip-rule="evenodd" d="M24.5699 18.56L24.2099 20.48L27.6299 20.96L27.3899 21.86L24.0299 21.38C23.7899 22.16 23.6699 23 23.3699 23.72C23.0699 24.56 22.7699 25.4 22.4099 26.18C21.9299 27.2 21.0899 27.92 19.9499 28.1C19.2899 28.22 18.5699 28.16 18.0299 27.74C17.8499 27.62 17.6699 27.38 17.6699 27.2C17.6699 26.96 17.7899 26.66 17.9699 26.54C18.0899 26.48 18.3899 26.54 18.5699 26.6C18.7499 26.78 18.9299 27.02 19.0499 27.26C19.4099 27.74 19.8899 27.8 20.3699 27.44C20.9099 26.96 21.2099 26.3 21.3899 25.64C21.7499 24.2 22.1099 22.82 22.4099 21.38V21.14L19.2299 20.66L19.3499 19.76L22.6499 20.24L23.0699 18.38L19.6499 17.84L19.7699 16.88L23.3099 17.36C23.4299 17 23.4899 16.7 23.6099 16.4C23.9099 15.32 24.2099 14.24 24.9299 13.28C25.6499 12.32 26.4899 11.72 27.7499 11.78C28.2899 11.78 28.8299 11.96 29.1899 12.38C29.2499 12.44 29.3699 12.56 29.3699 12.68C29.3699 12.92 29.3699 13.22 29.1899 13.4C28.9499 13.58 28.6499 13.52 28.4099 13.28C28.2299 13.1 28.1099 12.92 27.9299 12.74C27.5699 12.26 27.0299 12.2 26.6099 12.62C26.3099 12.92 26.0099 13.34 25.8299 13.76C25.4099 15.02 25.1099 16.34 24.6899 17.66L27.9899 18.14L27.7499 19.04L24.5699 18.56Z" fill="white"/>
</g>
<defs>
<clipPath id="clip0_32839_15704">
<rect width="24" height="24" fill="white" transform="translate(11.4307 8)"/>
</clipPath>
</defs>
</svg>
