<svg width="89" height="49" viewBox="0 0 89 49" fill="none" xmlns="http://www.w3.org/2000/svg">
<path d="M22.2643 0.5H12.1591C10.0662 0.5 8.36963 2.19662 8.36963 4.28948V11.8684C8.36963 12.566 8.93521 13.1316 9.63283 13.1316H24.7907C25.4883 13.1316 26.0539 12.566 26.0539 11.8684V4.28948C26.0538 2.19662 24.3572 0.5 22.2643 0.5Z" fill="#F07D12"/>
<path d="M49.9797 0.5H39.8744C37.7816 0.5 36.085 2.19662 36.085 4.28948V11.8684C36.085 12.566 36.6505 13.1316 37.3482 13.1316H52.5061C53.2037 13.1316 53.7693 12.566 53.7693 11.8684V4.28948C53.7691 2.19662 52.0725 0.5 49.9797 0.5Z" fill="#F07D12"/>
<path d="M77.4523 0.5H67.3471C65.2542 0.5 63.5576 2.19662 63.5576 4.28948V11.8684C63.5576 12.566 64.1232 13.1316 64.8208 13.1316H79.9787C80.6763 13.1316 81.2419 12.566 81.2419 11.8684V4.28948C81.2418 2.19662 79.5452 0.5 77.4523 0.5Z" fill="#F07D12"/>
<path fill-rule="evenodd" clip-rule="evenodd" d="M4.58 9.67645H85.1621C87.2549 9.67645 88.9515 11.3731 88.9517 13.4659V46.8829C88.9517 47.5805 88.3861 48.1461 87.6885 48.1461H72.0088V45.5836C72.0087 43.4907 70.3121 41.7941 68.2192 41.7941H58.114C56.0212 41.7941 54.3245 43.4907 54.3245 45.5836V48.1461H34.5971V45.5836C34.597 43.4907 32.9003 41.7941 30.8075 41.7941H20.7022C18.6094 41.7941 16.9128 43.4907 16.9128 45.5836V48.1461H2.05373C1.35611 48.1461 0.790527 47.5805 0.790527 46.8829V13.4659C0.790527 11.3731 2.48715 9.67645 4.58 9.67645Z" fill="#F7931A"/>
<path d="M25.0523 24.9H26.9603C27.2963 24.9 27.5723 24.82 27.7883 24.66C28.0043 24.5 28.1123 24.24 28.1123 23.88C28.1123 23.68 28.0763 23.516 28.0043 23.388C27.9323 23.26 27.8363 23.16 27.7163 23.088C27.5963 23.016 27.4563 22.968 27.2963 22.944C27.1443 22.912 26.9843 22.896 26.8163 22.896H25.0523V24.9ZM23.1683 21.432H27.2003C27.6083 21.432 27.9803 21.468 28.3163 21.54C28.6523 21.612 28.9403 21.732 29.1803 21.9C29.4203 22.06 29.6043 22.276 29.7323 22.548C29.8683 22.82 29.9363 23.156 29.9363 23.556C29.9363 23.988 29.8363 24.348 29.6363 24.636C29.4443 24.924 29.1563 25.16 28.7723 25.344C29.3003 25.496 29.6923 25.764 29.9483 26.148C30.2123 26.524 30.3443 26.98 30.3443 27.516C30.3443 27.948 30.2603 28.324 30.0923 28.644C29.9243 28.956 29.6963 29.212 29.4083 29.412C29.1283 29.612 28.8043 29.76 28.4363 29.856C28.0763 29.952 27.7043 30 27.3203 30H23.1683V21.432ZM25.0523 28.536H27.0683C27.2523 28.536 27.4283 28.52 27.5963 28.488C27.7643 28.448 27.9123 28.388 28.0403 28.308C28.1683 28.22 28.2683 28.104 28.3403 27.96C28.4203 27.816 28.4603 27.632 28.4603 27.408C28.4603 26.968 28.3363 26.656 28.0883 26.472C27.8403 26.28 27.5123 26.184 27.1043 26.184H25.0523V28.536ZM33.6216 25.308H35.6856C36.1176 25.308 36.4416 25.212 36.6576 25.02C36.8736 24.828 36.9816 24.516 36.9816 24.084C36.9816 23.668 36.8736 23.368 36.6576 23.184C36.4416 22.992 36.1176 22.896 35.6856 22.896H33.6216V25.308ZM31.7376 21.432H36.3576C36.7416 21.432 37.0856 21.496 37.3896 21.624C37.7016 21.744 37.9656 21.912 38.1816 22.128C38.4056 22.344 38.5736 22.596 38.6856 22.884C38.8056 23.164 38.8656 23.468 38.8656 23.796C38.8656 24.3 38.7576 24.736 38.5416 25.104C38.3336 25.472 37.9896 25.752 37.5096 25.944V25.968C37.7416 26.032 37.9336 26.132 38.0856 26.268C38.2376 26.396 38.3616 26.552 38.4576 26.736C38.5536 26.912 38.6216 27.108 38.6616 27.324C38.7096 27.54 38.7416 27.756 38.7576 27.972C38.7656 28.108 38.7736 28.268 38.7816 28.452C38.7896 28.636 38.8016 28.824 38.8176 29.016C38.8416 29.208 38.8736 29.392 38.9136 29.568C38.9616 29.736 39.0296 29.88 39.1176 30H37.2336C37.1296 29.728 37.0656 29.404 37.0416 29.028C37.0176 28.652 36.9816 28.292 36.9336 27.948C36.8696 27.5 36.7336 27.172 36.5256 26.964C36.3176 26.756 35.9776 26.652 35.5056 26.652H33.6216V30H31.7376V21.432ZM46.2297 24.312C46.1977 24.096 46.1257 23.9 46.0137 23.724C45.9017 23.54 45.7617 23.38 45.5937 23.244C45.4257 23.108 45.2337 23.004 45.0177 22.932C44.8097 22.852 44.5897 22.812 44.3577 22.812C43.9337 22.812 43.5737 22.896 43.2777 23.064C42.9817 23.224 42.7417 23.444 42.5577 23.724C42.3737 23.996 42.2377 24.308 42.1497 24.66C42.0697 25.012 42.0297 25.376 42.0297 25.752C42.0297 26.112 42.0697 26.464 42.1497 26.808C42.2377 27.144 42.3737 27.448 42.5577 27.72C42.7417 27.992 42.9817 28.212 43.2777 28.38C43.5737 28.54 43.9337 28.62 44.3577 28.62C44.9337 28.62 45.3817 28.444 45.7017 28.092C46.0297 27.74 46.2297 27.276 46.3017 26.7H48.1257C48.0777 27.236 47.9537 27.72 47.7537 28.152C47.5537 28.584 47.2897 28.952 46.9617 29.256C46.6337 29.56 46.2497 29.792 45.8097 29.952C45.3697 30.112 44.8857 30.192 44.3577 30.192C43.7017 30.192 43.1097 30.08 42.5817 29.856C42.0617 29.624 41.6217 29.308 41.2617 28.908C40.9017 28.508 40.6257 28.04 40.4337 27.504C40.2417 26.96 40.1457 26.376 40.1457 25.752C40.1457 25.112 40.2417 24.52 40.4337 23.976C40.6257 23.424 40.9017 22.944 41.2617 22.536C41.6217 22.128 42.0617 21.808 42.5817 21.576C43.1097 21.344 43.7017 21.228 44.3577 21.228C44.8297 21.228 45.2737 21.296 45.6897 21.432C46.1137 21.568 46.4897 21.768 46.8177 22.032C47.1537 22.288 47.4297 22.608 47.6457 22.992C47.8617 23.376 47.9977 23.816 48.0537 24.312H46.2297ZM49.3402 25.992H52.9522V27.456H49.3402V25.992ZM54.155 24.828C54.139 24.348 54.195 23.904 54.323 23.496C54.451 23.08 54.643 22.72 54.899 22.416C55.155 22.104 55.475 21.864 55.859 21.696C56.251 21.52 56.699 21.432 57.203 21.432C57.587 21.432 57.951 21.492 58.295 21.612C58.647 21.732 58.955 21.904 59.219 22.128C59.483 22.352 59.691 22.628 59.843 22.956C60.003 23.284 60.083 23.652 60.083 24.06C60.083 24.484 60.015 24.848 59.879 25.152C59.743 25.456 59.563 25.728 59.339 25.968C59.115 26.2 58.859 26.412 58.571 26.604C58.291 26.796 58.007 26.988 57.719 27.18C57.431 27.364 57.151 27.564 56.879 27.78C56.607 27.996 56.367 28.248 56.159 28.536H60.131V30H53.963C53.963 29.512 54.031 29.088 54.167 28.728C54.311 28.368 54.503 28.048 54.743 27.768C54.983 27.48 55.263 27.216 55.583 26.976C55.911 26.736 56.255 26.492 56.615 26.244C56.799 26.116 56.995 25.988 57.203 25.86C57.411 25.724 57.599 25.576 57.767 25.416C57.943 25.256 58.087 25.076 58.199 24.876C58.319 24.676 58.379 24.448 58.379 24.192C58.379 23.784 58.259 23.468 58.019 23.244C57.787 23.012 57.487 22.896 57.119 22.896C56.871 22.896 56.659 22.956 56.483 23.076C56.315 23.188 56.179 23.34 56.075 23.532C55.971 23.716 55.895 23.924 55.847 24.156C55.807 24.38 55.787 24.604 55.787 24.828H54.155ZM62.4549 25.764C62.4549 26.004 62.4629 26.296 62.4789 26.64C62.4949 26.976 62.5429 27.304 62.6229 27.624C62.7109 27.936 62.8469 28.204 63.0309 28.428C63.2149 28.652 63.4789 28.764 63.8229 28.764C64.1749 28.764 64.4429 28.652 64.6269 28.428C64.8189 28.204 64.9549 27.936 65.0349 27.624C65.1229 27.304 65.1749 26.976 65.1909 26.64C65.2069 26.296 65.2149 26.004 65.2149 25.764C65.2149 25.62 65.2109 25.448 65.2029 25.248C65.2029 25.04 65.1869 24.828 65.1549 24.612C65.1309 24.396 65.0909 24.184 65.0349 23.976C64.9869 23.76 64.9109 23.568 64.8069 23.4C64.7029 23.232 64.5709 23.096 64.4109 22.992C64.2509 22.888 64.0549 22.836 63.8229 22.836C63.5909 22.836 63.3949 22.888 63.2349 22.992C63.0829 23.096 62.9549 23.232 62.8509 23.4C62.7549 23.568 62.6789 23.76 62.6229 23.976C62.5669 24.184 62.5269 24.396 62.5029 24.612C62.4789 24.828 62.4629 25.04 62.4549 25.248C62.4549 25.448 62.4549 25.62 62.4549 25.764ZM60.7509 25.764C60.7509 24.948 60.8309 24.264 60.9909 23.712C61.1589 23.152 61.3829 22.704 61.6629 22.368C61.9429 22.032 62.2669 21.792 62.6349 21.648C63.0109 21.504 63.4069 21.432 63.8229 21.432C64.2469 21.432 64.6429 21.504 65.0109 21.648C65.3869 21.792 65.7149 22.032 65.9949 22.368C66.2829 22.704 66.5069 23.152 66.6669 23.712C66.8349 24.264 66.9189 24.948 66.9189 25.764C66.9189 26.604 66.8349 27.308 66.6669 27.876C66.5069 28.436 66.2829 28.884 65.9949 29.22C65.7149 29.556 65.3869 29.796 65.0109 29.94C64.6429 30.084 64.2469 30.156 63.8229 30.156C63.4069 30.156 63.0109 30.084 62.6349 29.94C62.2669 29.796 61.9429 29.556 61.6629 29.22C61.3829 28.884 61.1589 28.436 60.9909 27.876C60.8309 27.308 60.7509 26.604 60.7509 25.764Z" fill="white"/>
</svg>
