<svg width="126" height="69" viewBox="0 0 126 69" fill="none" xmlns="http://www.w3.org/2000/svg">
<path d="M31.3707 0.5H17.0549C14.0901 0.5 11.6865 2.90354 11.6865 5.86842V16.6053C11.6865 17.5936 12.4878 18.3948 13.4761 18.3948H34.9497C35.938 18.3948 36.7393 17.5936 36.7393 16.6053V5.86842C36.7391 2.90354 34.3356 0.5 31.3707 0.5Z" fill="#10D7A7"/>
<path d="M70.6339 0.5H56.3181C53.3533 0.5 50.9497 2.90354 50.9497 5.86842V16.6053C50.9497 17.5936 51.7509 18.3948 52.7392 18.3948H74.2129C75.2012 18.3948 76.0025 17.5936 76.0025 16.6053V5.86842C76.0023 2.90354 73.5988 0.5 70.6339 0.5Z" fill="#10D7A7"/>
<path d="M109.554 0.5H95.2381C92.2732 0.5 89.8696 2.90354 89.8696 5.86842V16.6053C89.8696 17.5936 90.6709 18.3948 91.6592 18.3948H113.133C114.121 18.3948 114.922 17.5936 114.922 16.6053V5.86842C114.922 2.90354 112.519 0.5 109.554 0.5Z" fill="#10D7A7"/>
<path fill-rule="evenodd" clip-rule="evenodd" d="M6.31813 13.5H120.476C123.441 13.5 125.844 15.9035 125.845 18.8684V66.2092C125.845 67.1975 125.043 67.9987 124.055 67.9987H101.842V64.3684C101.842 61.4035 99.4386 59 96.4737 59H82.158C79.1931 59 76.7896 61.4035 76.7896 64.3684V67.9987H48.8423V64.3684C48.8421 61.4035 46.4386 59 43.4737 59H29.158C26.1931 59 23.7896 61.4035 23.7896 64.3684V67.9987H2.73924C1.75094 67.9987 0.949707 67.1975 0.949707 66.2092V18.8684C0.949707 15.9035 3.35325 13.5 6.31813 13.5Z" fill="#00EC97"/>
<path d="M73.3362 23C72.4103 23 71.5507 23.4801 71.0657 24.2692L65.84 32.0278C65.6698 32.2835 65.7389 32.6282 65.9946 32.7985C66.2018 32.9366 66.476 32.9195 66.6648 32.7571L71.8085 28.2956C71.894 28.2187 72.0257 28.2265 72.1027 28.312C72.1376 28.3511 72.1561 28.4017 72.1561 28.4537V42.4224C72.1561 42.5377 72.0628 42.6303 71.9474 42.6303C71.8854 42.6303 71.8271 42.6033 71.7879 42.5556L56.2392 23.943C55.7328 23.3454 54.9892 23.0007 54.2065 23H53.663C52.1923 23 51 24.1923 51 25.6631V45.3369C51 46.8077 52.1923 48 53.663 48C54.5889 48 55.4486 47.52 55.9336 46.7308L61.1593 38.9722C61.3295 38.7165 61.2604 38.3718 61.0047 38.2016C60.7974 38.0634 60.5232 38.0805 60.3345 38.2429L55.1908 42.7044C55.1053 42.7814 54.9735 42.7735 54.8966 42.688C54.8617 42.6488 54.8432 42.5983 54.8439 42.5463V28.5741C54.8439 28.4587 54.9372 28.3661 55.0526 28.3661C55.1138 28.3661 55.173 28.3932 55.2121 28.4409L70.7587 47.057C71.2651 47.6546 72.0087 47.9993 72.7914 48H73.3348C74.8056 48.0008 75.9986 46.8091 76 45.3384V25.6631C76 24.1923 74.807 23 73.3362 23Z" fill="black"/>
</svg>
