<svg width="62" height="49" viewBox="0 0 62 49" fill="none" xmlns="http://www.w3.org/2000/svg">
<path d="M22.1575 0.852936H12.0522C9.95933 0.852936 8.2627 2.54957 8.2627 4.64245V12.2215C8.2627 12.9191 8.82828 13.4847 9.52591 13.4847H24.684C25.3816 13.4847 25.9472 12.9191 25.9472 12.2215V4.64245C25.9471 2.54957 24.2504 0.852936 22.1575 0.852936Z" fill="#3F3F3F"/>
<path d="M49.8729 0.852936H39.7675C37.6747 0.852936 35.978 2.54957 35.978 4.64245V12.2215C35.978 12.9191 36.5436 13.4847 37.2412 13.4847H52.3993C53.0969 13.4847 53.6625 12.9191 53.6625 12.2215V4.64245C53.6624 2.54957 51.9658 0.852936 49.8729 0.852936Z" fill="#3F3F3F"/>
<path fill-rule="evenodd" clip-rule="evenodd" d="M57.5263 10.0295H4.47311C2.38023 10.0295 0.683594 11.7262 0.683594 13.8191V47.2364C0.683594 47.934 1.24918 48.4996 1.9468 48.4996H21.8603V45.937C21.8603 43.8442 23.5569 42.1475 25.6498 42.1475H35.7551C37.848 42.1475 39.5446 43.8442 39.5448 45.937V48.4996H60.0527C60.7504 48.4996 61.3159 47.934 61.3159 47.2364V13.8191C61.3158 11.7262 59.6192 10.0295 57.5263 10.0295Z" fill="black"/>
<path d="M23.9345 29.9158C24.0568 29.7935 24.225 29.7222 24.4033 29.7222H40.5751C40.8706 29.7222 41.0184 30.0788 40.8095 30.2877L37.6149 33.4823C37.4926 33.6046 37.3245 33.676 37.1461 33.676H20.9743C20.6788 33.676 20.531 33.3193 20.7399 33.1104L23.9345 29.9158Z" fill="url(#paint0_linear_27996_20256)"/>
<path d="M23.9345 17.9879C24.0619 17.8656 24.2301 17.7943 24.4033 17.7943H40.5751C40.8706 17.7943 41.0184 18.151 40.8095 18.3599L37.6149 21.5545C37.4926 21.6768 37.3245 21.7481 37.1461 21.7481H20.9743C20.6788 21.7481 20.531 21.3914 20.7399 21.1825L23.9345 17.9879Z" fill="url(#paint1_linear_27996_20256)"/>
<path d="M37.6149 23.9138C37.4926 23.7915 37.3245 23.7202 37.1461 23.7202H20.9743C20.6788 23.7202 20.531 24.0769 20.7399 24.2858L23.9345 27.4804C24.0568 27.6027 24.225 27.674 24.4033 27.674H40.5751C40.8706 27.674 41.0184 27.3174 40.8095 27.1085L37.6149 23.9138Z" fill="url(#paint2_linear_27996_20256)"/>
<defs>
<linearGradient id="paint0_linear_27996_20256" x1="-15.9091" y1="14.7944" x2="-16.3393" y2="36.4458" gradientUnits="userSpaceOnUse">
<stop stop-color="#00FFA3"/>
<stop offset="1" stop-color="#DC1FFF"/>
</linearGradient>
<linearGradient id="paint1_linear_27996_20256" x1="-20.8029" y1="12.2391" x2="-21.2332" y2="33.8906" gradientUnits="userSpaceOnUse">
<stop stop-color="#00FFA3"/>
<stop offset="1" stop-color="#DC1FFF"/>
</linearGradient>
<linearGradient id="paint2_linear_27996_20256" x1="-18.3716" y1="13.5088" x2="-18.8019" y2="35.1602" gradientUnits="userSpaceOnUse">
<stop stop-color="#00FFA3"/>
<stop offset="1" stop-color="#DC1FFF"/>
</linearGradient>
</defs>
</svg>
