<svg width="62" height="49" viewBox="0 0 62 49" fill="none" xmlns="http://www.w3.org/2000/svg">
<path d="M37.4727 0.852936H23.157C20.1921 0.852936 17.7886 2.54957 17.7886 4.64245V12.2215C17.7886 12.9191 18.5898 13.4847 19.5781 13.4847H41.0518C42.0401 13.4847 42.8413 12.9191 42.8413 12.2215V4.64245C42.8412 2.54957 40.4376 0.852936 37.4727 0.852936Z" fill="#5B69E4"/>
<path fill-rule="evenodd" clip-rule="evenodd" d="M51.4932 10.0295H10.7282C9.12007 10.0295 7.81641 11.7107 7.81641 13.7844V46.8959C7.81641 47.5872 8.25099 48.1476 8.78703 48.1476H21.9342V45.5841C21.9342 43.4912 23.6308 41.7946 25.7237 41.7946H35.829C37.9219 41.7946 39.6186 43.4912 39.6187 45.5841V48.1476H53.4345C53.9705 48.1476 54.4051 47.5872 54.4051 46.8959V13.7844C54.405 11.7107 53.1014 10.0295 51.4932 10.0295Z" fill="#627EEA"/>
<path d="M31.1109 38.2651C38.1488 38.2651 43.8542 32.5598 43.8542 25.5219C43.8542 18.484 38.1488 12.7786 31.1109 12.7786C24.073 12.7786 18.3677 18.484 18.3677 25.5219C18.3677 32.5598 24.073 38.2651 31.1109 38.2651Z" fill="#627EEA"/>
<path d="M31.5073 15.9643V23.0288L37.4783 25.6969L31.5073 15.9643Z" fill="white" fill-opacity="0.602"/>
<path d="M31.5074 15.9643L25.5356 25.6969L31.5074 23.0288V15.9643Z" fill="white"/>
<path d="M31.5073 30.2742V35.0744L37.4823 26.808L31.5073 30.2742Z" fill="white" fill-opacity="0.602"/>
<path d="M31.5074 35.0744V30.2734L25.5356 26.808L31.5074 35.0744Z" fill="white"/>
<path d="M31.5073 29.1638L37.4783 25.6969L31.5073 23.0303V29.1638Z" fill="white" fill-opacity="0.2"/>
<path d="M25.5356 25.6969L31.5074 29.1638V23.0303L25.5356 25.6969Z" fill="white" fill-opacity="0.602"/>
</svg>
