<svg width="62" height="49" viewBox="0 0 62 49" fill="none" xmlns="http://www.w3.org/2000/svg">
<path d="M22.1575 0.852951H12.0522C9.95933 0.852951 8.2627 2.54959 8.2627 4.64247V12.2215C8.2627 12.9191 8.82828 13.4847 9.52591 13.4847H24.684C25.3816 13.4847 25.9472 12.9191 25.9472 12.2215V4.64247C25.9471 2.54959 24.2504 0.852951 22.1575 0.852951Z" fill="#F07D12"/>
<path d="M49.8729 0.852951H39.7675C37.6747 0.852951 35.978 2.54959 35.978 4.64247V12.2215C35.978 12.9191 36.5436 13.4847 37.2412 13.4847H52.3993C53.0969 13.4847 53.6625 12.9191 53.6625 12.2215V4.64247C53.6624 2.54959 51.9658 0.852951 49.8729 0.852951Z" fill="#F07D12"/>
<path fill-rule="evenodd" clip-rule="evenodd" d="M57.5263 10.0295H4.47311C2.38023 10.0295 0.683594 11.7261 0.683594 13.819V47.2364C0.683594 47.934 1.24918 48.4996 1.9468 48.4996H21.8603V45.5841C21.8603 43.4912 23.5569 41.7945 25.6498 41.7945H35.7551C37.848 41.7945 39.5446 43.4912 39.5448 45.5841V48.4996H60.0527C60.7504 48.4996 61.3159 47.934 61.3159 47.2364V13.819C61.3158 11.7261 59.6192 10.0295 57.5263 10.0295Z" fill="#F7931A"/>
<path fill-rule="evenodd" clip-rule="evenodd" d="M37.8862 24.2892C38.1953 22.2226 36.6219 21.1117 34.4704 20.3706L35.1684 17.5712L33.4643 17.1465L32.7848 19.8723C32.3368 19.7605 31.8768 19.6553 31.4195 19.5509L32.1039 16.8071L30.4008 16.3825L29.7025 19.1811C29.3317 19.0967 28.9676 19.0132 28.6143 18.9253L28.6163 18.9165L26.2663 18.3297L25.813 20.1498C25.813 20.1498 27.0773 20.4396 27.0507 20.4574C27.7407 20.6297 27.8655 21.0865 27.8448 21.4486L27.0497 24.6378C27.0973 24.6499 27.1589 24.6673 27.2269 24.6947L27.1775 24.6823C27.1354 24.6718 27.0917 24.6608 27.0468 24.6501L25.9324 29.1178C25.8481 29.3274 25.634 29.6421 25.1515 29.5226C25.1686 29.5473 23.913 29.2135 23.913 29.2135L23.0669 31.1641L25.2845 31.717C25.5273 31.7779 25.7672 31.8404 26.0047 31.9023L26.0049 31.9024C26.1709 31.9456 26.3357 31.9886 26.4995 32.0305L25.7943 34.862L27.4965 35.2867L28.1948 32.4852C28.6598 32.6114 29.1111 32.7278 29.5529 32.8376L28.8569 35.6259L30.5611 36.0505L31.2662 33.2243C34.172 33.7742 36.357 33.5525 37.2767 30.9241C38.0178 28.808 37.2398 27.5874 35.7111 26.7914C36.8245 26.5346 37.6632 25.8023 37.8869 24.2895L37.8863 24.2891L37.8862 24.2892ZM33.9927 29.7489C33.5096 31.6904 30.4706 30.8878 29.0802 30.5205L29.08 30.5205C28.955 30.4875 28.8433 30.458 28.748 30.4343L29.6838 26.683C29.8 26.712 29.942 26.7438 30.1028 26.7799C31.5411 27.1027 34.4878 27.764 33.9928 29.7489H33.9927ZM30.3913 25.0389C31.5505 25.3482 34.0794 26.0231 34.5198 24.2586H34.5199C34.9696 22.4539 32.512 21.9097 31.3117 21.644C31.1767 21.6141 31.0576 21.5877 30.9603 21.5635L30.1119 24.9657C30.192 24.9857 30.286 25.0108 30.3913 25.0389Z" fill="white"/>
</svg>
