<svg width="87" height="69" viewBox="0 0 87 69" fill="none" xmlns="http://www.w3.org/2000/svg">
<path d="M31.316 1.00037H17.0003C14.0354 1.00037 11.6318 3.40391 11.6318 6.36879V17.1056C11.6318 18.0939 12.4331 18.8952 13.4214 18.8952H34.8951C35.8834 18.8952 36.6846 18.0939 36.6846 17.1056V6.36879C36.6844 3.40391 34.2809 1.00037 31.316 1.00037Z" fill="#3F3F3F"/>
<path d="M70.5792 1.00037H56.2634C53.2986 1.00037 50.895 3.40391 50.895 6.36879V17.1056C50.895 18.0939 51.6963 18.8952 52.6846 18.8952H74.1582C75.1465 18.8952 75.9478 18.0939 75.9478 17.1056V6.36879C75.9476 3.40391 73.5441 1.00037 70.5792 1.00037Z" fill="#3F3F3F"/>
<path fill-rule="evenodd" clip-rule="evenodd" d="M81.4214 14.0004H6.26344C3.29856 14.0004 0.89502 16.4039 0.89502 19.3688V66.7095C0.89502 67.6978 1.69626 68.4991 2.68455 68.4991H30.895V64.8688C30.895 61.9039 33.2986 59.5004 36.2634 59.5004H50.5792C53.5441 59.5004 55.9476 61.9039 55.9478 64.8688V68.4991H85.0004C85.9887 68.4991 86.79 67.6978 86.79 66.7095V19.3688C86.7898 16.4039 84.3863 14.0004 81.4214 14.0004Z" fill="black"/>
<path d="M33.8332 42.1723C34.0064 41.9991 34.2446 41.898 34.4973 41.898H57.4071C57.8258 41.898 58.0351 42.4033 57.7392 42.6992L53.2135 47.2249C53.0403 47.3981 52.8021 47.4992 52.5494 47.4992H29.6396C29.2209 47.4992 29.0116 46.9939 29.3075 46.698L33.8332 42.1723Z" fill="url(#paint0_linear_27717_6489)"/>
<path d="M33.8332 25.2746C34.0137 25.1014 34.2519 25.0004 34.4973 25.0004H57.4071C57.8258 25.0004 58.0351 25.5056 57.7392 25.8016L53.2135 30.3272C53.0403 30.5005 52.8021 30.6015 52.5494 30.6015H29.6396C29.2209 30.6015 29.0116 30.0963 29.3075 29.8003L33.8332 25.2746Z" fill="url(#paint1_linear_27717_6489)"/>
<path d="M53.2135 33.6696C53.0403 33.4964 52.8021 33.3954 52.5494 33.3954H29.6396C29.2209 33.3954 29.0116 33.9006 29.3075 34.1966L33.8332 38.7222C34.0064 38.8955 34.2446 38.9965 34.4973 38.9965H57.4071C57.8258 38.9965 58.0351 38.4912 57.7392 38.1953L53.2135 33.6696Z" fill="url(#paint2_linear_27717_6489)"/>
<defs>
<linearGradient id="paint0_linear_27717_6489" x1="-22.6113" y1="20.7505" x2="-23.2209" y2="51.4231" gradientUnits="userSpaceOnUse">
<stop stop-color="#00FFA3"/>
<stop offset="1" stop-color="#DC1FFF"/>
</linearGradient>
<linearGradient id="paint1_linear_27717_6489" x1="-29.5442" y1="17.1306" x2="-30.1537" y2="47.8031" gradientUnits="userSpaceOnUse">
<stop stop-color="#00FFA3"/>
<stop offset="1" stop-color="#DC1FFF"/>
</linearGradient>
<linearGradient id="paint2_linear_27717_6489" x1="-26.0998" y1="18.9293" x2="-26.7094" y2="49.6019" gradientUnits="userSpaceOnUse">
<stop stop-color="#00FFA3"/>
<stop offset="1" stop-color="#DC1FFF"/>
</linearGradient>
</defs>
</svg>
