<svg width="86" height="69" viewBox="0 0 86 69" fill="none" xmlns="http://www.w3.org/2000/svg">
<path d="M30.421 1.00035H16.1052C13.1404 1.00035 10.7368 3.40389 10.7368 6.36877V17.1056C10.7368 18.0939 11.5381 18.8952 12.5263 18.8952H34C34.9883 18.8952 35.7896 18.0939 35.7896 17.1056V6.36877C35.7894 3.40389 33.3859 1.00035 30.421 1.00035Z" fill="#F07D12"/>
<path d="M69.6842 1.00035H55.3684C52.4035 1.00035 50 3.40389 50 6.36877V17.1056C50 18.0939 50.8012 18.8952 51.7895 18.8952H73.2632C74.2515 18.8952 75.0528 18.0939 75.0528 17.1056V6.36877C75.0526 3.40389 72.649 1.00035 69.6842 1.00035Z" fill="#F07D12"/>
<path fill-rule="evenodd" clip-rule="evenodd" d="M80.5264 14.0004H5.36842C2.40354 14.0004 0 16.4039 0 19.3688V66.7095C0 67.6978 0.801237 68.499 1.78953 68.499H30V64.3688C30 61.4039 32.4035 59.0004 35.3684 59.0004H49.6842C52.649 59.0004 55.0526 61.4039 55.0528 64.3688V68.499H84.1054C85.0937 68.499 85.8949 67.6978 85.8949 66.7095V19.3688C85.8948 16.4039 83.4912 14.0004 80.5264 14.0004Z" fill="#F7931A"/>
<path fill-rule="evenodd" clip-rule="evenodd" d="M52.7033 34.2014C53.1412 31.2737 50.9123 29.6999 47.8643 28.6501L48.8531 24.6842L46.4389 24.0827L45.4764 27.9441C44.8417 27.7858 44.19 27.6367 43.5422 27.4888L44.5117 23.6019L42.0991 23.0004L41.1098 26.9649C40.5846 26.8453 40.0687 26.7272 39.5683 26.6026L39.5711 26.5902L36.2419 25.7588L35.5997 28.3373C35.5997 28.3373 37.3908 28.7478 37.3531 28.7731C38.3307 29.0171 38.5075 29.6642 38.4781 30.1772L37.3518 34.6952C37.4191 34.7123 37.5064 34.737 37.6028 34.7758L37.5327 34.7583L37.5325 34.7582C37.473 34.7433 37.4111 34.7278 37.3476 34.7126L35.7689 41.0418C35.6494 41.3388 35.3462 41.7845 34.6627 41.6152C34.6869 41.6503 32.908 41.1774 32.908 41.1774L31.7095 43.9408L34.8511 44.7239C35.1949 44.8102 35.5347 44.8987 35.871 44.9864L35.8715 44.9865L35.8717 44.9866C36.1068 45.0479 36.3403 45.1087 36.5723 45.1681L35.5733 49.1794L37.9846 49.7809L38.9739 45.8122C39.6327 45.991 40.272 46.156 40.8978 46.3115L39.9118 50.2615L42.3261 50.8631L43.325 46.8592C47.4416 47.6383 50.537 47.3242 51.8398 43.6007C52.8897 40.6029 51.7876 38.8738 49.6218 37.7462C51.1993 37.3824 52.3874 36.3449 52.7042 34.2017L52.7034 34.2012L52.7033 34.2014ZM47.1876 41.9359C46.5031 44.6863 42.1979 43.5492 40.2282 43.029C40.051 42.9822 39.8927 42.9404 39.7576 42.9068L41.0833 37.5925C41.2479 37.6336 41.4491 37.6787 41.6769 37.7299C43.7144 38.1871 47.8889 39.124 47.1877 41.9359H47.1876ZM42.0856 35.2634C43.7278 35.7017 47.3103 36.6578 47.9342 34.158H47.9344C48.5715 31.6013 45.09 30.8305 43.3896 30.454C43.1983 30.4117 43.0295 30.3743 42.8917 30.34L41.6898 35.1598C41.8033 35.188 41.9364 35.2236 42.0856 35.2634Z" fill="white"/>
</svg>
