<svg width="126" height="69" viewBox="0 0 126 69" fill="none" xmlns="http://www.w3.org/2000/svg">
<path d="M30.6861 0.5H16.3704C13.4055 0.5 11.002 2.90354 11.002 5.86842V16.6053C11.002 17.5936 11.8032 18.3948 12.7915 18.3948H34.2652C35.2535 18.3948 36.0547 17.5936 36.0547 16.6053V5.86842C36.0545 2.90354 33.651 0.5 30.6861 0.5Z" fill="#F07D12"/>
<path d="M69.9493 0.5H55.6336C52.6687 0.5 50.2651 2.90354 50.2651 5.86842V16.6053C50.2651 17.5936 51.0664 18.3948 52.0547 18.3948H73.5284C74.5167 18.3948 75.3179 17.5936 75.3179 16.6053V5.86842C75.3177 2.90354 72.9142 0.5 69.9493 0.5Z" fill="#F07D12"/>
<path d="M108.869 0.5H94.5535C91.5886 0.5 89.1851 2.90354 89.1851 5.86842V16.6053C89.1851 17.5936 89.9863 18.3948 90.9746 18.3948H112.448C113.437 18.3948 114.238 17.5936 114.238 16.6053V5.86842C114.238 2.90354 111.834 0.5 108.869 0.5Z" fill="#F07D12"/>
<path fill-rule="evenodd" clip-rule="evenodd" d="M5.63356 13.5H119.791C122.756 13.5 125.16 15.9035 125.16 18.8684V66.2092C125.16 67.1975 124.359 67.9987 123.371 67.9987H101.158V64.3684C101.158 61.4035 98.754 59 95.7891 59H81.4734C78.5085 59 76.105 61.4035 76.105 64.3684V67.9987H48.1577V64.3684C48.1576 61.4035 45.754 59 42.7891 59H28.4734C25.5085 59 23.105 61.4035 23.105 64.3684V67.9987H2.05467C1.06637 67.9987 0.265137 67.1975 0.265137 66.2092V18.8684C0.265137 15.9035 2.66868 13.5 5.63356 13.5Z" fill="#F7931A"/>
<path d="M42.712 34.9H44.62C44.956 34.9 45.232 34.82 45.448 34.66C45.664 34.5 45.772 34.24 45.772 33.88C45.772 33.68 45.736 33.516 45.664 33.388C45.592 33.26 45.496 33.16 45.376 33.088C45.256 33.016 45.116 32.968 44.956 32.944C44.804 32.912 44.644 32.896 44.476 32.896H42.712V34.9ZM40.828 31.432H44.86C45.268 31.432 45.64 31.468 45.976 31.54C46.312 31.612 46.6 31.732 46.84 31.9C47.08 32.06 47.264 32.276 47.392 32.548C47.528 32.82 47.596 33.156 47.596 33.556C47.596 33.988 47.496 34.348 47.296 34.636C47.104 34.924 46.816 35.16 46.432 35.344C46.96 35.496 47.352 35.764 47.608 36.148C47.872 36.524 48.004 36.98 48.004 37.516C48.004 37.948 47.92 38.324 47.752 38.644C47.584 38.956 47.356 39.212 47.068 39.412C46.788 39.612 46.464 39.76 46.096 39.856C45.736 39.952 45.364 40 44.98 40H40.828V31.432ZM42.712 38.536H44.728C44.912 38.536 45.088 38.52 45.256 38.488C45.424 38.448 45.572 38.388 45.7 38.308C45.828 38.22 45.928 38.104 46 37.96C46.08 37.816 46.12 37.632 46.12 37.408C46.12 36.968 45.996 36.656 45.748 36.472C45.5 36.28 45.172 36.184 44.764 36.184H42.712V38.536ZM51.2812 35.308H53.3452C53.7772 35.308 54.1012 35.212 54.3172 35.02C54.5332 34.828 54.6412 34.516 54.6412 34.084C54.6412 33.668 54.5332 33.368 54.3172 33.184C54.1012 32.992 53.7772 32.896 53.3452 32.896H51.2812V35.308ZM49.3972 31.432H54.0172C54.4012 31.432 54.7452 31.496 55.0492 31.624C55.3612 31.744 55.6252 31.912 55.8412 32.128C56.0652 32.344 56.2332 32.596 56.3452 32.884C56.4652 33.164 56.5252 33.468 56.5252 33.796C56.5252 34.3 56.4172 34.736 56.2012 35.104C55.9932 35.472 55.6492 35.752 55.1692 35.944V35.968C55.4012 36.032 55.5932 36.132 55.7452 36.268C55.8972 36.396 56.0212 36.552 56.1172 36.736C56.2132 36.912 56.2812 37.108 56.3212 37.324C56.3692 37.54 56.4012 37.756 56.4172 37.972C56.4252 38.108 56.4332 38.268 56.4412 38.452C56.4492 38.636 56.4612 38.824 56.4772 39.016C56.5012 39.208 56.5332 39.392 56.5732 39.568C56.6212 39.736 56.6892 39.88 56.7772 40H54.8932C54.7892 39.728 54.7252 39.404 54.7012 39.028C54.6772 38.652 54.6412 38.292 54.5932 37.948C54.5292 37.5 54.3932 37.172 54.1852 36.964C53.9772 36.756 53.6372 36.652 53.1652 36.652H51.2812V40H49.3972V31.432ZM63.8894 34.312C63.8574 34.096 63.7854 33.9 63.6734 33.724C63.5614 33.54 63.4214 33.38 63.2534 33.244C63.0854 33.108 62.8934 33.004 62.6774 32.932C62.4694 32.852 62.2494 32.812 62.0174 32.812C61.5934 32.812 61.2334 32.896 60.9374 33.064C60.6414 33.224 60.4014 33.444 60.2174 33.724C60.0334 33.996 59.8974 34.308 59.8094 34.66C59.7294 35.012 59.6894 35.376 59.6894 35.752C59.6894 36.112 59.7294 36.464 59.8094 36.808C59.8974 37.144 60.0334 37.448 60.2174 37.72C60.4014 37.992 60.6414 38.212 60.9374 38.38C61.2334 38.54 61.5934 38.62 62.0174 38.62C62.5934 38.62 63.0414 38.444 63.3614 38.092C63.6894 37.74 63.8894 37.276 63.9614 36.7H65.7854C65.7374 37.236 65.6134 37.72 65.4134 38.152C65.2134 38.584 64.9494 38.952 64.6214 39.256C64.2934 39.56 63.9094 39.792 63.4694 39.952C63.0294 40.112 62.5454 40.192 62.0174 40.192C61.3614 40.192 60.7694 40.08 60.2414 39.856C59.7214 39.624 59.2814 39.308 58.9214 38.908C58.5614 38.508 58.2854 38.04 58.0934 37.504C57.9014 36.96 57.8054 36.376 57.8054 35.752C57.8054 35.112 57.9014 34.52 58.0934 33.976C58.2854 33.424 58.5614 32.944 58.9214 32.536C59.2814 32.128 59.7214 31.808 60.2414 31.576C60.7694 31.344 61.3614 31.228 62.0174 31.228C62.4894 31.228 62.9334 31.296 63.3494 31.432C63.7734 31.568 64.1494 31.768 64.4774 32.032C64.8134 32.288 65.0894 32.608 65.3054 32.992C65.5214 33.376 65.6574 33.816 65.7134 34.312H63.8894ZM66.9999 35.992H70.6119V37.456H66.9999V35.992ZM71.8146 34.828C71.7986 34.348 71.8546 33.904 71.9826 33.496C72.1106 33.08 72.3026 32.72 72.5586 32.416C72.8146 32.104 73.1346 31.864 73.5186 31.696C73.9106 31.52 74.3586 31.432 74.8626 31.432C75.2466 31.432 75.6106 31.492 75.9546 31.612C76.3066 31.732 76.6146 31.904 76.8786 32.128C77.1426 32.352 77.3506 32.628 77.5026 32.956C77.6626 33.284 77.7426 33.652 77.7426 34.06C77.7426 34.484 77.6746 34.848 77.5386 35.152C77.4026 35.456 77.2226 35.728 76.9986 35.968C76.7746 36.2 76.5186 36.412 76.2306 36.604C75.9506 36.796 75.6666 36.988 75.3786 37.18C75.0906 37.364 74.8106 37.564 74.5386 37.78C74.2666 37.996 74.0266 38.248 73.8186 38.536H77.7906V40H71.6226C71.6226 39.512 71.6906 39.088 71.8266 38.728C71.9706 38.368 72.1626 38.048 72.4026 37.768C72.6426 37.48 72.9226 37.216 73.2426 36.976C73.5706 36.736 73.9146 36.492 74.2746 36.244C74.4586 36.116 74.6546 35.988 74.8626 35.86C75.0706 35.724 75.2586 35.576 75.4266 35.416C75.6026 35.256 75.7466 35.076 75.8586 34.876C75.9786 34.676 76.0386 34.448 76.0386 34.192C76.0386 33.784 75.9186 33.468 75.6786 33.244C75.4466 33.012 75.1466 32.896 74.7786 32.896C74.5306 32.896 74.3186 32.956 74.1426 33.076C73.9746 33.188 73.8386 33.34 73.7346 33.532C73.6306 33.716 73.5546 33.924 73.5066 34.156C73.4666 34.38 73.4466 34.604 73.4466 34.828H71.8146ZM80.1146 35.764C80.1146 36.004 80.1226 36.296 80.1386 36.64C80.1546 36.976 80.2026 37.304 80.2826 37.624C80.3706 37.936 80.5066 38.204 80.6906 38.428C80.8746 38.652 81.1386 38.764 81.4826 38.764C81.8346 38.764 82.1026 38.652 82.2866 38.428C82.4786 38.204 82.6146 37.936 82.6946 37.624C82.7826 37.304 82.8346 36.976 82.8506 36.64C82.8666 36.296 82.8746 36.004 82.8746 35.764C82.8746 35.62 82.8706 35.448 82.8626 35.248C82.8626 35.04 82.8466 34.828 82.8146 34.612C82.7906 34.396 82.7506 34.184 82.6946 33.976C82.6466 33.76 82.5706 33.568 82.4666 33.4C82.3626 33.232 82.2306 33.096 82.0706 32.992C81.9106 32.888 81.7146 32.836 81.4826 32.836C81.2506 32.836 81.0546 32.888 80.8946 32.992C80.7426 33.096 80.6146 33.232 80.5106 33.4C80.4146 33.568 80.3386 33.76 80.2826 33.976C80.2266 34.184 80.1866 34.396 80.1626 34.612C80.1386 34.828 80.1226 35.04 80.1146 35.248C80.1146 35.448 80.1146 35.62 80.1146 35.764ZM78.4106 35.764C78.4106 34.948 78.4906 34.264 78.6506 33.712C78.8186 33.152 79.0426 32.704 79.3226 32.368C79.6026 32.032 79.9266 31.792 80.2946 31.648C80.6706 31.504 81.0666 31.432 81.4826 31.432C81.9066 31.432 82.3026 31.504 82.6706 31.648C83.0466 31.792 83.3746 32.032 83.6546 32.368C83.9426 32.704 84.1666 33.152 84.3266 33.712C84.4946 34.264 84.5786 34.948 84.5786 35.764C84.5786 36.604 84.4946 37.308 84.3266 37.876C84.1666 38.436 83.9426 38.884 83.6546 39.22C83.3746 39.556 83.0466 39.796 82.6706 39.94C82.3026 40.084 81.9066 40.156 81.4826 40.156C81.0666 40.156 80.6706 40.084 80.2946 39.94C79.9266 39.796 79.6026 39.556 79.3226 39.22C79.0426 38.884 78.8186 38.436 78.6506 37.876C78.4906 37.308 78.4106 36.604 78.4106 35.764Z" fill="white"/>
</svg>
