<svg width="86" height="69" viewBox="0 0 86 69" fill="none" xmlns="http://www.w3.org/2000/svg">
<path d="M30.421 1.00035H16.1052C13.1404 1.00035 10.7368 3.40389 10.7368 6.36877V17.1056C10.7368 18.0939 11.5381 18.8952 12.5263 18.8952H34C34.9883 18.8952 35.7896 18.0939 35.7896 17.1056V6.36877C35.7894 3.40389 33.3859 1.00035 30.421 1.00035Z" fill="#3B3B3F"/>
<path d="M69.6842 1.00035H55.3684C52.4035 1.00035 50 3.40389 50 6.36877V17.1056C50 18.0939 50.8012 18.8952 51.7895 18.8952H73.2632C74.2515 18.8952 75.0528 18.0939 75.0528 17.1056V6.36877C75.0526 3.40389 72.649 1.00035 69.6842 1.00035Z" fill="#3B3B3F"/>
<path fill-rule="evenodd" clip-rule="evenodd" d="M80.5264 14.0004H5.36842C2.40354 14.0004 0 16.4039 0 19.3688V66.7095C0 67.6978 0.801237 68.4991 1.78953 68.4991H30V64.8688C30 61.9039 32.4035 59.5004 35.3684 59.5004H49.6842C52.649 59.5004 55.0526 61.9039 55.0528 64.8688V68.4991H84.1054C85.0937 68.4991 85.8949 67.6978 85.8949 66.7095V19.3688C85.8948 16.4039 83.4912 14.0004 80.5264 14.0004Z" fill="#1E1E20"/>
<g clip-path="url(#clip0_27717_6433)">
<path d="M54.9456 36.8601C55.3416 36.474 55.5939 35.912 55.4408 35.1644C55.3119 34.5391 54.7776 34.0162 54.1586 33.9576C53.7478 33.9187 53.4013 34.026 53.0251 34.2214C53.0251 34.2214 52.0452 33.6595 50.7136 32.8924C51.9558 32.1789 53.1387 31.5048 54.0545 30.9819C54.2673 30.8596 54.6287 30.6154 54.9456 30.3077C55.3416 29.9217 55.5939 29.3598 55.4408 28.6122C55.3119 27.9868 54.7776 27.4639 54.1586 27.4054C53.7478 27.3664 53.4013 27.4737 53.0251 27.6691C53.0251 27.6691 43.502 22.1968 43.3885 22.1331C43.2695 22.0696 43.1559 22.0108 43.0073 22.001C42.8389 21.9913 42.6854 22.0937 42.5619 22.1623C38.5678 24.4592 34.009 27.0779 30.5742 29.047C30.4701 29.1055 30.3713 29.1692 30.2721 29.2326C30.1285 29.3253 30.0099 29.4476 30.0099 29.6187C30.0099 29.7897 30.1288 29.897 30.2276 29.9705C30.3215 30.0339 30.3614 30.0583 30.5593 30.1708C31.3216 30.6105 33.2569 31.7197 35.2911 32.8875C33.6031 33.8549 31.9897 34.7833 30.5692 35.5993C30.4651 35.6578 30.3663 35.7215 30.2671 35.7849C30.1235 35.8776 30.0049 35.9999 30.0049 36.1709C30.0049 36.342 30.1239 36.4493 30.2227 36.5228C30.3166 36.5863 30.3564 36.6106 30.5544 36.7231C31.3167 37.1627 33.252 38.272 35.2861 39.4398C33.5982 40.4072 31.9847 41.3356 30.5643 42.1515C30.4602 42.2101 30.3614 42.2739 30.2622 42.3372C30.1186 42.4299 30 42.5521 30 42.7233C30 42.8943 30.1189 43.0015 30.2177 43.0751C30.3116 43.1385 30.3515 43.1629 30.5495 43.2755C32.0987 44.1648 38.4142 47.79 40.7159 49.1191C40.9435 49.2511 41.4238 49.5246 41.6712 49.6372C42.1363 49.8521 42.7302 50.0378 43.2254 49.9938C43.9432 49.9354 44.4478 49.5981 45.1162 49.2122C47.4524 47.8684 51.6644 45.4451 54.0552 44.0815C54.268 43.9592 54.6294 43.7151 54.9463 43.4074C55.3423 43.0215 55.5946 42.4595 55.4415 41.7119C55.3127 41.0866 54.7784 40.5637 54.1593 40.5051C53.7485 40.4661 53.402 40.5733 53.0258 40.7689C53.0258 40.7689 52.0458 40.2069 50.7143 39.4398C51.9565 38.7263 53.1394 38.0522 54.0552 37.5293C54.2631 37.4167 54.6238 37.1725 54.9456 36.8601ZM31.1829 29.6187C31.1879 29.5012 31.2422 29.4427 31.3266 29.3939L42.6957 22.866C42.8837 22.7584 43.1213 22.7584 43.3094 22.866L52.362 28.06C52.362 28.06 45.7395 31.8664 43.2945 33.2637C43.0966 33.3763 42.7204 33.6107 42.5816 33.7278C42.4034 33.8745 42.2746 34.065 42.2104 34.2995C42.0866 34.7782 42.3096 35.1495 42.5718 35.2962C42.9628 35.5111 43.2748 35.3547 43.2698 35.1592C42.978 35.0516 42.9084 34.822 42.948 34.5826C42.9875 34.3726 43.1509 34.2113 43.4132 34.1723C43.7991 34.1137 44.1507 34.3531 44.2446 34.8464C44.3384 35.3251 44.1556 35.7358 43.8387 35.9654C43.1904 36.4344 42.3439 36.1901 41.7598 35.8529C41.2251 35.5449 33.3356 31.0156 31.3312 29.8625C31.2472 29.8089 31.178 29.7357 31.1829 29.6187ZM52.357 41.1646C52.357 41.1646 45.7345 44.971 43.2895 46.3683C43.0916 46.4809 42.7154 46.7153 42.5768 46.8324C42.3986 46.979 42.2698 47.1696 42.2055 47.4041C42.0816 47.8827 42.3046 48.2541 42.5669 48.4007C42.9579 48.6157 43.2698 48.4593 43.2648 48.2638C42.9731 48.1562 42.9036 47.9266 42.943 47.6872C42.9826 47.4772 43.146 47.3159 43.4082 47.2769C43.7943 47.2183 44.1458 47.4577 44.2396 47.951C44.3334 48.4297 44.1507 48.8403 43.8338 49.0699C43.1855 49.5389 42.3389 49.2946 41.7548 48.9575C41.2202 48.6495 33.3307 44.1202 31.3262 42.9671C31.2422 42.9184 31.1727 42.8497 31.1776 42.7326C31.1826 42.6152 31.2369 42.5567 31.3213 42.5079L35.9591 39.8449C35.7414 39.7178 39.5524 41.9119 40.7106 42.5811C40.9382 42.7131 41.4185 42.9866 41.6659 43.0992C42.131 43.3141 42.725 43.4998 43.2201 43.4558C43.9379 43.3974 44.4425 43.0601 45.111 42.6742C46.5462 41.8484 50.2534 39.7182 50.0357 39.8449L52.357 41.1646ZM43.2895 39.8161C43.0916 39.9285 42.7154 40.163 42.5768 40.28C42.3986 40.4267 42.2698 40.6173 42.2055 40.8517C42.0816 41.3304 42.3046 41.7017 42.5669 41.8484C42.9579 42.0634 43.2698 41.907 43.2648 41.7115C42.9731 41.6039 42.9036 41.3743 42.943 41.135C42.9826 40.9249 43.146 40.7636 43.4082 40.7245C43.7943 40.6661 44.1458 40.9054 44.2396 41.3986C44.3334 41.8773 44.1507 42.2881 43.8338 42.5177C43.1855 42.9866 42.3389 42.7424 41.7548 42.4051C41.2202 42.0972 33.3307 37.5679 31.3262 36.4148C31.2422 36.366 31.1727 36.2974 31.1776 36.1804C31.1826 36.0629 31.2369 36.0044 31.3213 35.9557L35.9591 33.2926C37.82 34.3628 39.6762 35.4279 40.7106 36.0288C40.9382 36.1608 41.4185 36.4344 41.6659 36.5468C42.131 36.7617 42.725 36.9475 43.2201 36.9036C43.9379 36.845 44.4425 36.5079 45.111 36.1218C46.5412 35.3011 50.2435 33.1707 50.0357 33.2926L52.357 34.6217C52.357 34.6119 45.7345 38.4186 43.2895 39.8161Z" fill="white"/>
</g>
<defs>
<clipPath id="clip0_27717_6433">
<rect width="26" height="28" fill="white" transform="translate(30 22.0004)"/>
</clipPath>
</defs>
</svg>
