<svg width="62" height="49" viewBox="0 0 62 49" fill="none" xmlns="http://www.w3.org/2000/svg">
<path d="M37.4727 0.852951H23.157C20.1921 0.852951 17.7886 2.54959 17.7886 4.64247V12.2215C17.7886 12.9191 18.5898 13.4847 19.5781 13.4847H41.0518C42.0401 13.4847 42.8413 12.9191 42.8413 12.2215V4.64247C42.8412 2.54959 40.4376 0.852951 37.4727 0.852951Z" fill="#654DC7"/>
<path fill-rule="evenodd" clip-rule="evenodd" d="M51.4932 10.0295H10.7282C9.12007 10.0295 7.81641 11.7106 7.81641 13.7843V46.8959C7.81641 47.5871 8.25099 48.1476 8.78703 48.1476H21.9342V45.5841C21.9342 43.4912 23.6308 41.7945 25.7237 41.7945H35.829C37.9219 41.7945 39.6186 43.4912 39.6187 45.5841V48.1476H53.4345C53.9705 48.1476 54.4051 47.5871 54.4051 46.8959V13.7843C54.405 11.7106 53.1014 10.0295 51.4932 10.0295Z" fill="#8247E5"/>
<path d="M35.0227 29.5095L39.654 26.8526C39.8995 26.7114 40.0513 26.4497 40.0513 26.1688V20.8549C40.0513 20.574 39.8995 20.3123 39.654 20.1711L35.0227 17.5142C34.7772 17.373 34.4724 17.3744 34.2283 17.5142L29.5969 20.1711C29.3514 20.3123 29.1997 20.574 29.1997 20.8549V30.3509L25.9517 32.2131L22.7036 30.3509V26.6251L25.9517 24.7629L28.0936 25.992V23.4926L26.3488 22.491C26.2288 22.4225 26.091 22.3855 25.9517 22.3855C25.8123 22.3855 25.6745 22.4225 25.5545 22.491L20.9231 25.1479C20.6776 25.2891 20.5259 25.5508 20.5259 25.8317V31.1456C20.5259 31.4265 20.6776 31.6882 20.9231 31.8294L25.5545 34.4864C25.7999 34.6261 26.1034 34.6261 26.3488 34.4864L30.9802 31.8294C31.2258 31.6882 31.3774 31.4265 31.3774 31.1456V21.6483L31.4353 21.6154L34.6241 19.7861L37.8721 21.6483V25.3741L34.6241 27.2363L32.4849 26.0098V28.5093L34.2269 29.5082C34.4724 29.6479 34.7772 29.6479 35.0213 29.5082L35.0227 29.5095Z" fill="white"/>
</svg>
