<svg width="62" height="49" viewBox="0 0 62 49" fill="none" xmlns="http://www.w3.org/2000/svg">
<path d="M37.4727 0.853027H23.157C20.1921 0.853027 17.7886 2.54966 17.7886 4.64254V12.2216C17.7886 12.9192 18.5898 13.4848 19.5781 13.4848H41.0518C42.0401 13.4848 42.8413 12.9192 42.8413 12.2216V4.64254C42.8412 2.54966 40.4376 0.853027 37.4727 0.853027Z" fill="#654DC7"/>
<path fill-rule="evenodd" clip-rule="evenodd" d="M51.4932 10.0293H10.7282C9.12007 10.0293 7.81641 11.7104 7.81641 13.7841V46.8957C7.81641 47.5869 8.25099 48.1473 8.78703 48.1473H21.9342V45.5838C21.9342 43.491 23.6308 41.7943 25.7237 41.7943H35.829C37.9219 41.7943 39.6186 43.491 39.6187 45.5838V48.1473H53.4345C53.9705 48.1473 54.4051 47.5869 54.4051 46.8957V13.7841C54.405 11.7104 53.1014 10.0293 51.4932 10.0293Z" fill="#8247E5"/>
</svg>
