<svg width="21" height="20" viewBox="0 0 21 20" fill="none" xmlns="http://www.w3.org/2000/svg">
<g clip-path="url(#clip0_37948_3838)">
<path d="M10.5 20C16.0228 20 20.5 15.5228 20.5 10C20.5 4.47715 16.0228 0 10.5 0C4.97715 0 0.5 4.47715 0.5 10C0.5 15.5228 4.97715 20 10.5 20Z" fill="white"/>
<path d="M10.5 19.6797C15.8459 19.6797 20.1797 15.3459 20.1797 9.99999C20.1797 4.65405 15.8459 0.320312 10.5 0.320312C5.15405 0.320312 0.820312 4.65405 0.820312 9.99999C0.820312 15.3459 5.15405 19.6797 10.5 19.6797Z" fill="#7A6A2A"/>
<path d="M10.5001 19.4749C15.7334 19.4749 19.9759 15.2325 19.9759 9.99917C19.9759 4.76587 15.7334 0.523438 10.5001 0.523438C5.26684 0.523438 1.02441 4.76587 1.02441 9.99917C1.02441 15.2325 5.26684 19.4749 10.5001 19.4749Z" fill="#BA9F33"/>
<path fill-rule="evenodd" clip-rule="evenodd" d="M4.87171 8.9319C4.81507 8.88016 4.75523 8.82832 4.70019 8.77659C4.64515 8.72486 4.58861 8.67302 4.53197 8.62128L4.36365 8.46128C4.33613 8.43376 4.30701 8.40955 4.27949 8.38192C4.25197 8.35771 4.21965 8.33019 4.19213 8.30587C3.96877 8.09392 3.74413 7.88198 3.52387 7.66992C3.75203 7.87867 3.97539 8.08592 4.20355 8.29776L4.2828 8.37712C4.31032 8.40454 4.33944 8.42886 4.36696 8.45638L4.53517 8.61168C4.59181 8.66342 4.64685 8.71526 4.70349 8.77168C4.76013 8.82811 4.81517 8.88006 4.87181 8.93168L4.87171 8.9319ZM1.90733 8.8999C1.90733 8.8999 2.7196 8.98395 3.11608 9.04059C3.48333 9.09243 4.63224 9.26875 4.63224 9.26875L1.90733 8.8999ZM1.90733 8.8999C2.13549 8.91931 2.36365 8.94352 2.59181 8.96784C2.70829 8.97915 2.81997 8.99206 2.93165 9.00336L3.10307 9.02288C3.15971 9.03088 3.21475 9.03899 3.27139 9.0471L3.95107 9.15547L4.2908 9.21211C4.40248 9.23152 4.51416 9.25264 4.63064 9.27206C4.51896 9.26075 4.40248 9.24454 4.2908 9.22832L3.95107 9.17979L3.27139 9.07952C3.21475 9.07141 3.15971 9.06 3.10307 9.052L2.93155 9.03227C2.81987 9.02096 2.70339 9.00475 2.59171 8.99174C2.36355 8.96432 2.13539 8.93509 1.90723 8.89957L1.90733 8.8999ZM4.55139 9.48038C4.55139 9.48038 3.68408 9.70054 3.39117 9.7847C3.10317 9.86395 2.23096 10.1293 2.23096 10.1293L4.55128 9.48048L4.55139 9.48038Z" fill="#CFB66C"/>
<path fill-rule="evenodd" clip-rule="evenodd" d="M4.55209 9.48047C4.35956 9.53711 4.16809 9.59215 3.97279 9.64399L3.39348 9.7993C3.20095 9.85594 3.00948 9.91098 2.81748 9.96762L2.52948 10.0469C2.43401 10.0744 2.33695 10.0986 2.23828 10.1262C2.33364 10.0942 2.43081 10.0615 2.52628 10.034L2.81428 9.9418C3.00681 9.88186 3.19828 9.82522 3.39028 9.76538C3.58601 9.71684 3.77865 9.665 3.97439 9.61807C4.16041 9.57114 4.35625 9.52431 4.55209 9.48058V9.48047ZM2.35316 10.6634C2.44852 10.6278 3.54889 10.1149 3.80457 9.99514C3.93257 9.93519 4.30463 9.80314 4.30463 9.80314L2.35316 10.6634Z" fill="#CFB66C"/>
<path fill-rule="evenodd" clip-rule="evenodd" d="M2.35265 10.6636C2.4367 10.6316 2.51606 10.5924 2.59691 10.5552L2.83638 10.4435L3.31702 10.2122C3.47702 10.1361 3.63254 10.0522 3.79755 9.98071C3.88171 9.94519 3.96587 9.91607 4.04993 9.88855L4.17793 9.84813C4.22155 9.83682 4.26209 9.82381 4.30593 9.8125C4.14593 9.88855 3.9775 9.9533 3.81729 10.0276C3.65729 10.107 3.49366 10.1718 3.32854 10.2429L2.8399 10.458C2.67585 10.5245 2.51585 10.5956 2.35254 10.6636H2.35265ZM2.45931 11.1116C2.45931 11.1116 3.45601 10.5275 3.79905 10.3398C3.97867 10.2395 4.55958 9.95138 4.55958 9.95138L2.45931 11.1116Z" fill="#CFB66C"/>
<path fill-rule="evenodd" clip-rule="evenodd" d="M2.45996 11.1107C2.62817 11.0071 2.79969 10.9019 2.97121 10.7952L3.22721 10.6397C3.31457 10.588 3.39873 10.5395 3.4878 10.4877C3.57516 10.4359 3.65932 10.3842 3.74828 10.3356C3.79063 10.3095 3.835 10.2868 3.88097 10.2677L4.01687 10.1997C4.19649 10.1124 4.37612 10.0233 4.56545 9.94727C4.39393 10.0557 4.21751 10.148 4.04119 10.2434C3.95383 10.2919 3.86476 10.3356 3.7774 10.3842C3.69004 10.4327 3.60588 10.4845 3.51681 10.5315C3.42945 10.5832 3.34529 10.6317 3.25633 10.6787L2.99255 10.8227L2.46017 11.1107H2.45996ZM4.55212 10.0783C4.55212 10.0783 3.93239 10.554 3.73175 10.7061C3.53111 10.8582 2.94049 11.2854 2.94049 11.2854L4.55212 10.0783Z" fill="#CFB66C"/>
<path fill-rule="evenodd" clip-rule="evenodd" d="M8.10814 13.9142L7.79102 13.3139L7.97544 12.563L9.29096 12.055L8.73107 10.9062L9.00776 9.74597L9.52723 8.70704L11.1325 8.45467L12.312 7.33008L14.859 7.52261L15.3589 10.2459L14.3961 13.6747L13.8477 15.4499L11.6243 15.534L10.592 14.8188L9.38323 14.3139L8.10814 13.9142Z" fill="#E2CC85"/>
<path fill-rule="evenodd" clip-rule="evenodd" d="M12.0085 13.8952C12.0085 13.8952 11.701 14.036 11.1765 14.0036C11.0247 13.7997 9.96167 13.7043 9.96167 13.7043C9.96167 13.7043 9.82898 13.6638 9.59431 13.7609C9.35815 13.8569 9.13479 13.8451 8.92604 13.8968C8.7173 13.9485 8.51004 13.6767 8.35004 13.6201C8.19004 13.5603 7.97788 13.4163 7.97788 13.4163L7.52988 13.3725L6.63026 12.9923L5.20103 11.5684L4.81266 12.1764L4.69287 12.9288L5.12498 13.8204L6.28839 14.8803L8.55698 15.4563L9.90162 15.0601L11.5861 14.3481L12.0085 13.8951V13.8952Z" fill="#F1D789"/>
<path fill-rule="evenodd" clip-rule="evenodd" d="M3.94798 8.86546L4.23598 7.99336L4.57913 7.43016L5.68419 7.33789L5.35246 8.30557L4.42862 9.94962L4.81209 11.4173L4.13251 11.757L3.92366 11.4367L3.75545 10.7021L3.74414 9.87677L3.94798 8.86546Z" fill="#F4ECB4"/>
<path fill-rule="evenodd" clip-rule="evenodd" d="M5.18793 13.8368L4.97598 13.5407C4.97598 13.5407 4.91934 13.3999 4.95177 13.2769C4.98377 13.1523 4.97919 13.1442 4.96308 13.0973C4.94697 13.0504 4.81097 12.8886 4.81908 12.7494C4.82708 12.6086 4.80777 12.5616 4.91124 12.45C5.01961 12.3417 4.98729 12.1539 4.98729 12.1539L5.12809 12.2413L5.16009 12.1928C5.16009 12.1928 5.21182 12.2332 5.21182 12.2963C5.22313 12.209 5.1762 11.8044 5.28297 11.7122C5.38974 11.6201 5.57908 12.1442 5.57908 12.1442L5.4626 11.3837L5.16318 10.6039L4.63081 9.89186L4.59881 9.10701V9.03906C4.59881 9.03906 4.35444 9.41453 4.28649 9.71106C4.23796 9.9149 4.35444 10.1625 4.33022 10.4554C4.3107 10.7467 4.28649 10.724 4.35764 10.8394C4.42878 10.9548 4.60201 11.1921 4.53407 11.3636C4.47423 11.511 4.27028 11.4074 4.27028 11.4074C4.27028 11.4074 4.22985 11.5271 4.17481 11.5708C4.1554 11.4996 4.13438 11.4543 4.09556 11.4108C4.09225 11.4383 4.08425 11.4755 4.08425 11.4755C4.08425 11.4755 4.04863 11.3639 4.013 11.2231C3.96457 11.0354 3.91273 10.7879 3.8658 10.6552C3.84638 10.7312 3.79785 10.9626 3.79785 10.9626L3.82537 11.3186L3.95807 11.8073L4.08607 12.1273L4.21065 12.5188L4.31892 12.7819L4.40628 12.9825L4.48233 13.434L4.84958 13.8223L5.04542 13.9098L5.18772 13.8369L5.18793 13.8368Z" fill="#F3E19D"/>
<path fill-rule="evenodd" clip-rule="evenodd" d="M4.14121 8.15297C4.14121 8.15297 3.87742 8.60097 3.80147 9.05259C3.72553 9.50422 3.65747 9.98145 3.70547 10.5963C3.75401 11.2161 3.84627 11.5963 3.92073 11.8682C4.04873 12.3197 4.38025 12.9475 4.38025 12.9475L4.39155 12.9232C4.33583 12.8176 4.29135 12.7064 4.25886 12.5915C4.21513 12.42 4.19891 12.2161 4.15849 12.1238C4.12286 12.0317 4.06302 11.9523 4.0339 11.839C4.00638 11.7307 4.0019 11.5592 3.91742 11.4314C3.88179 11.3795 3.83806 11.2436 3.82515 11.1077C3.80894 10.9038 3.83326 10.6756 3.81385 10.488C3.77822 10.1757 3.75401 9.96374 3.78633 9.80022C3.81865 9.6367 3.98707 9.17249 4.09065 8.80353C4.15859 8.56726 4.11806 8.36822 4.24265 8.16267C4.36723 7.95883 4.44339 7.77921 4.47081 7.65462C4.50281 7.54134 4.14078 8.15297 4.14078 8.15297H4.14121Z" fill="#F2E8B0"/>
<path fill-rule="evenodd" clip-rule="evenodd" d="M5.39204 7.97266C5.39204 7.97266 5.25615 8.01319 5.1914 8.08434C5.12666 8.15228 5.09914 8.20892 5.01178 8.3238C4.92442 8.43868 4.91951 8.53255 4.84826 8.67655C4.77711 8.81735 4.6201 9.0293 4.60068 9.10535C4.58127 9.1814 4.54895 9.53735 4.50852 9.70567C4.4729 9.87399 4.54895 10.0811 4.54895 10.0811L4.64111 10.0616C4.64111 10.0616 4.64111 10.1814 4.73338 10.2624C4.82554 10.3416 4.84175 9.99367 4.84175 9.99367L5.18639 8.83026L5.70575 8.47751L5.76239 8.19271L5.39183 7.97266H5.39204Z" fill="#F5EEC0"/>
<path fill-rule="evenodd" clip-rule="evenodd" d="M5.64404 8.50074C5.64404 8.50074 5.39967 8.51685 5.27999 8.60432C5.23145 8.63984 5.21204 8.66895 5.16031 8.71269C5.06484 8.79194 4.96767 8.86479 4.92084 8.96869C4.869 9.07215 4.81236 9.22917 4.77353 9.52527C4.75732 9.64986 4.75732 9.76474 4.74601 9.86511C4.7298 10.001 4.70559 10.1094 4.71849 10.1851C4.73471 10.3404 4.89492 10.4214 4.91049 10.5977L5.24223 10.4295L5.55455 9.19802L6.21801 8.78202L5.84255 8.36133L5.64361 8.49999L5.64404 8.50074Z" fill="#E6DB9D"/>
<path fill-rule="evenodd" clip-rule="evenodd" d="M3.89366 16.7924C3.89505 16.7802 3.89643 16.768 3.89782 16.7556C3.94625 16.3396 3.95446 16.0243 3.98998 15.8268C4.04171 15.5469 4.07734 15.4428 4.06923 15.3381C4.05793 15.1699 4.04502 15.0469 4.06123 14.9174C4.08545 14.7459 4.25377 14.542 4.24897 14.4012C4.24566 14.2895 4.18902 14.2168 4.14049 14.1488C4.09195 14.0809 4.05313 14.0243 4.05313 14.0243C4.05313 14.0243 4.38486 13.7961 4.38166 12.877C4.38844 12.8789 4.39495 12.8816 4.40107 12.8851L4.56449 13.3494L4.67617 13.4853L5.10497 14.2846L5.65675 14.8203L6.47222 15.3688L6.98358 15.9253L7.03531 17.4091L6.36705 18.2764L6.25761 18.4746C5.38814 18.0381 4.59083 17.4707 3.89355 16.7923L3.89366 16.7924Z" fill="#E5CB7A"/>
<path fill-rule="evenodd" clip-rule="evenodd" d="M5.93555 18.2115C5.93555 18.2115 5.94685 18.027 6.09896 17.9072C6.12328 17.9477 6.13939 17.9866 6.13459 18.0156C6.16211 17.9672 6.35464 17.6565 6.78995 17.5755C7.22525 17.4963 7.33043 17.1791 7.33043 17.1791L8.25427 16.3394L9.31091 15.3669L10.5957 14.9154L11.1961 14.7681C11.1961 14.7681 11.2074 14.8118 11.1848 14.9089C11.2964 14.9009 11.544 14.8442 11.8013 14.7535C11.9048 14.7131 12.002 14.6969 12.0537 14.7503C12.1298 14.8215 12.1411 14.9898 12.1459 15.0901C12.2705 15.0626 12.4145 14.9429 12.5299 14.9542C12.7144 14.9736 12.8778 15.1905 13.0656 15.1905C13.3131 15.1905 13.4247 15.0383 13.5979 14.9186C13.7015 14.8474 13.8503 14.7586 13.9345 14.6985C14.1351 14.5512 16.2581 13.9023 16.2581 13.9023L17.0024 13.9509L17.1222 14.7502L17.0582 16.8398C17.0503 16.8474 17.0424 16.8553 17.0344 16.8629L13.6501 18.6305L8.95891 19.3496C7.90806 19.1779 6.89398 18.8291 5.95987 18.318L5.93587 18.2114L5.93555 18.2115Z" fill="#D8C173"/>
<path fill-rule="evenodd" clip-rule="evenodd" d="M4.17871 17.0594C4.24538 16.92 4.30532 16.8034 4.31588 16.7617C4.3242 16.8458 4.33946 17.0302 4.37018 17.2263C4.30568 17.1714 4.24186 17.1158 4.17871 17.0593V17.0594Z" fill="#F1D789"/>
<path fill-rule="evenodd" clip-rule="evenodd" d="M7.60524 19.0246L8.21196 18.8558L8.26369 18.872C8.26369 18.872 8.29121 18.8883 8.29121 18.9432C8.36727 18.8996 8.43201 18.9076 8.47895 18.8786C8.50316 18.9303 8.52737 19.1018 8.63425 19.1228C8.74583 19.1471 8.86561 19.0743 8.987 18.9821C9.10668 18.8867 9.243 18.7669 9.34615 18.7183C9.38399 18.7879 9.41751 18.8598 9.44652 18.9335C9.58241 18.8251 9.81868 18.385 10.1552 18.393C10.2525 18.1631 10.415 17.9668 10.6226 17.8283C10.9349 17.6164 11.1307 17.6002 11.3751 17.6196C11.4721 17.4935 11.5917 17.3865 11.7278 17.304C11.7682 17.3203 11.8799 17.3882 12.0191 17.3235C12.1599 17.2588 12.3184 17.0079 12.5272 16.9756C12.6396 16.9601 12.754 16.9842 12.8508 17.0436C12.8508 17.0436 13.4588 16.4399 13.8783 16.2393C13.8621 16.1908 13.8298 16.0079 14.3216 15.6034C14.3491 15.6277 14.3297 15.6956 14.3491 15.6994C14.3571 15.6994 14.4771 15.6476 14.629 15.531C14.8168 15.3903 15.0416 15.243 15.1775 15.2026C15.4335 15.1266 15.7051 15.2819 15.7051 15.2819C15.7282 15.2657 15.7539 15.2536 15.7811 15.2462C15.8458 15.2349 15.8927 15.2268 15.9283 15.2142C15.9251 15.2984 15.9721 15.4424 15.9283 15.567C15.979 15.5955 16.0327 15.6183 16.0883 15.6349C16.0609 15.6948 16.001 15.8469 15.9007 15.9197C15.9848 15.9602 15.9961 16.0071 16.1159 16.0477C16.0673 16.1157 15.9879 16.2323 15.9524 16.3037C15.9168 16.3798 15.7889 16.6953 15.7323 16.815C15.6724 16.9348 15.5916 17.1548 15.5527 17.199C15.5137 17.2431 15.373 17.4303 15.2647 17.5225C15.3607 17.4869 15.7534 17.3672 15.92 17.3219C15.8704 17.3946 15.619 17.7676 15.3773 18.1263C14.22 18.82 12.9282 19.259 11.5879 19.4142C10.2476 19.5693 8.88964 19.4371 7.60449 19.0262L7.60524 19.0246Z" fill="#E0CD81"/>
<path fill-rule="evenodd" clip-rule="evenodd" d="M5.68393 8.45564C5.68393 8.45564 5.54323 8.45564 5.51571 8.47505C5.48819 8.49447 5.65651 8.535 5.70825 8.55441C5.75998 8.57383 5.87166 8.66279 5.90078 8.73404C5.9283 8.80199 6.91209 9.19836 6.91209 9.19836L7.60787 9.16273L7.84777 8.83132L7.39145 8.43164L7.71145 7.48828L7.28755 7.55623L6.26814 8.16423L5.75678 8.36007L5.68393 8.45564Z" fill="#DFC57C"/>
<path fill-rule="evenodd" clip-rule="evenodd" d="M7.21209 8.76875C7.22215 8.78504 7.23632 8.79839 7.25317 8.80747C7.27002 8.81655 7.28896 8.82104 7.30809 8.82049C7.45209 8.82049 7.58468 8.85611 7.63972 8.92886C7.73199 9.04545 7.98767 9.41761 7.98767 9.41761L8.59929 9.63766L8.63876 8.91745L7.97049 8.45312L7.20996 8.73302V8.76865H7.21167L7.21209 8.76875Z" fill="#E5CC7C"/>
<path fill-rule="evenodd" clip-rule="evenodd" d="M7.09185 9.03469C7.09185 9.03469 7.20342 9.04279 7.34422 8.99095C7.48502 8.93911 7.71638 8.82754 7.81675 8.87127C7.95745 8.93111 7.92833 9.11885 8.08054 9.28727C8.1727 9.39085 8.34102 9.38765 8.43649 9.49933C8.53195 9.61101 8.86038 9.55917 8.86038 9.55917L8.98497 10.2312L8.48502 10.872L8.3215 11.6681H7.64545L7.02785 11.4231L6.72363 10.6871L6.87574 9.94274L7.09185 9.03469Z" fill="#D2C281"/>
<path fill-rule="evenodd" clip-rule="evenodd" d="M8.39954 9.06765C8.41631 9.07282 8.43373 9.07555 8.45128 9.07576C8.43186 9.09197 8.39133 9.12749 8.40754 9.21976C8.42376 9.31202 8.47549 9.4285 8.43186 9.49965C8.46669 9.53773 8.49266 9.58304 8.50792 9.63234C8.53544 9.7117 8.54354 9.78445 8.72306 9.79586C8.69715 9.81181 8.67327 9.83083 8.65192 9.8525C8.65192 9.8525 8.7765 9.96088 8.83965 10.0611C8.90429 10.0584 9.07581 10.005 9.07581 10.005L9.11144 10.0294L9.18749 9.99736C9.18749 9.99736 9.11634 9.96984 9.16808 9.79672C9.21661 9.64461 9.26034 9.65272 9.26408 9.64141C9.26781 9.6301 9.2997 9.46989 9.2997 9.40514C9.32392 9.32109 9.34333 9.06541 9.34333 9.06541L9.2916 8.50072L9.0004 8.32429L8.7636 8.0957L8.54024 8.5164L8.39314 8.66306L8.38184 9.02712L8.39954 9.06765Z" fill="#E2C270"/>
<path fill-rule="evenodd" clip-rule="evenodd" d="M9.10059 8.59429C9.10059 8.59429 9.15232 8.74149 9.17184 8.85477C9.17872 8.83275 9.18252 8.80988 9.18315 8.78682C9.18315 8.78682 9.22357 9.01018 9.23157 9.10245C9.24779 9.09914 9.26357 9.09434 9.2672 9.11045C9.27083 9.12656 9.30773 9.30629 9.2992 9.40656C9.36658 9.29539 9.45982 9.20215 9.57099 9.13477C9.63573 9.09424 9.71179 9.05061 9.79115 9.0473C9.91573 9.0441 10.0063 9.12666 10.1552 9.12666C10.5143 9.12666 10.8397 8.86288 11.0791 8.78202C11.2555 8.72208 11.4076 8.67845 11.5143 8.58128C11.5662 8.53765 11.6585 8.44058 11.7425 8.29648C11.8542 8.10448 11.9707 7.93733 12.0873 7.91632C12.0345 7.92601 11.9808 7.9298 11.9273 7.92762C11.9273 7.92762 11.9629 7.892 12.0233 7.84346C12.0836 7.79493 12.1559 7.73509 12.2594 7.73509C12.4439 7.73509 12.5361 7.7625 12.6397 7.7625C12.7433 7.7593 12.8031 7.73509 12.8031 7.73509C12.8031 7.73509 12.9116 7.81114 13.1558 7.81114C13.4002 7.81434 13.5636 7.83536 13.6915 7.84677C13.8194 7.85818 14.2481 7.81114 14.3711 7.81477C14.4513 7.81786 14.53 7.83712 14.6026 7.87141L14.2061 6.71941L12.7819 5.47461L11.934 6.07493L10.6297 7.37914L9.36757 7.84677L9.10379 8.14288V8.59429H9.10059Z" fill="#CCB360"/>
<path fill-rule="evenodd" clip-rule="evenodd" d="M11.9318 7.93463C11.9318 7.93463 11.9675 7.89911 12.0272 7.85057C12.0869 7.80204 12.16 7.74209 12.2635 7.74209C12.4479 7.74209 12.5402 7.76961 12.6437 7.76961C12.7473 7.76641 12.8072 7.74209 12.8072 7.74209C12.8072 7.74209 12.9157 7.81804 13.1599 7.81804C13.4043 7.82124 13.5677 7.84225 13.6956 7.85356C13.8235 7.86487 14.2522 7.81804 14.3752 7.82156C14.4553 7.82458 14.534 7.84385 14.6065 7.8782L14.4269 7.35873L14.2182 6.96236L13.6227 6.3102C13.6227 6.3102 12.9081 5.88951 12.9026 5.88631C12.8994 5.88311 12.655 5.81836 12.655 5.81836L12.0078 6.20993L11.4205 7.7294L11.4092 8.0494L11.7893 8.22903C11.8848 8.06903 11.9901 7.94103 12.0888 7.92481C11.9997 7.93452 11.9317 7.93452 11.9317 7.93452L11.9318 7.93463Z" fill="#D5B457"/>
<path fill-rule="evenodd" clip-rule="evenodd" d="M11.9239 8.04332C11.8672 8.04652 11.8204 8.03521 11.8074 7.99479C11.7589 7.85889 11.72 7.83948 11.6794 7.83948C11.6388 7.83948 11.5839 7.92684 11.5514 7.93484C11.5189 7.94284 11.4803 7.83457 11.4803 7.83457L11.4446 7.81836C11.4446 7.81836 11.2359 7.95425 11.0887 8.11447C10.9415 8.27468 10.7003 8.54657 10.5919 8.595C10.4836 8.64343 10.1113 8.65975 9.98394 8.68727C9.85658 8.71479 9.71536 8.80705 9.69594 8.82807C9.67653 8.84908 9.75269 8.87169 9.764 8.89271C9.7753 8.91212 9.6393 8.90401 9.628 8.92471C9.62 8.94092 9.66 9.03308 9.67984 9.08001C9.71455 9.06275 9.75265 9.05336 9.79141 9.05249C9.916 9.04929 10.0067 9.13185 10.1555 9.13185C10.5147 9.13185 10.8399 8.86807 11.0794 8.78711C11.2558 8.72727 11.4079 8.68353 11.5147 8.58647C11.5664 8.54284 11.6587 8.44567 11.7429 8.30167C11.8043 8.203 11.8643 8.11073 11.9242 8.04279L11.9239 8.04332Z" fill="#D2B257"/>
<path fill-rule="evenodd" clip-rule="evenodd" d="M6.77194 16.0523C6.77194 16.0523 6.73994 15.9325 6.44341 15.6235C6.35925 15.5361 6.30752 15.4635 6.25088 15.4115C6.11008 15.2787 6.02752 15.2432 5.92725 15.1672C5.7072 15.0037 5.46773 15.0037 5.2833 14.8031C5.09888 14.6025 4.88394 14.2191 4.73461 13.8273C4.58741 13.4357 4.54688 13.3112 4.54688 13.2999C4.54688 13.2885 4.58741 13.2125 4.63914 13.2238C4.69087 13.2351 4.69088 13.3354 4.70389 13.3597C4.72966 13.3994 4.7589 13.4367 4.79125 13.4713C4.8673 13.5587 4.97568 13.6633 5.03072 13.8192C5.01941 13.6865 4.97408 13.5393 4.97408 13.5393C4.97408 13.5393 5.25887 13.7189 5.50154 13.9066C5.74591 14.0943 5.84618 14.1591 5.91754 14.2787C5.9889 14.3984 6.15701 14.714 6.23754 14.8063C6.31808 14.8986 7.42154 15.2464 7.42154 15.2464L7.94645 15.6378L8.20703 16.209L8.00309 16.529L7.61152 16.6131L6.97557 16.3283L6.77194 16.0522V16.0523Z" fill="#D2B159"/>
<path fill-rule="evenodd" clip-rule="evenodd" d="M5.35938 14.0853C5.35938 14.0853 5.49207 14.2973 5.81569 14.4979C6.107 14.6744 6.56812 14.8346 6.97921 14.93C7.21537 14.9867 7.45164 15.0303 7.66359 15.0336C8.23479 15.0416 8.62796 14.8783 9.11511 14.8249C9.3789 14.7973 9.70252 14.7763 10.0391 14.6969C10.4711 14.5933 10.7267 14.4767 11.0747 14.3129C11.3271 14.1964 11.5585 14.109 11.7461 13.9973C12.0099 13.842 12.2025 13.6689 12.4258 13.6172C12.3983 13.6932 12.3692 13.8291 12.1491 13.9699C12.2656 13.9666 12.4258 13.9586 12.4258 13.9586C12.4258 13.9586 12.2705 14.0508 11.997 14.2579C11.8287 14.3859 11.6055 14.6026 11.3773 14.7466C11.23 14.8388 11.0698 14.9066 10.9646 14.9618C10.7086 15.1026 10.6053 15.1738 10.4371 15.3458C10.497 15.3426 10.5019 15.3458 10.5019 15.3458C10.5019 15.3458 10.2898 15.3733 10.1378 15.4542C10.1058 15.4542 10.0504 15.4429 9.95329 15.4704C9.87724 15.4946 9.77687 15.5498 9.6734 15.5788C9.52609 15.6225 9.47767 15.6031 9.47767 15.6031L9.50188 15.6516C9.50188 15.6516 9.30988 15.6483 9.24588 15.6548C9.25719 15.658 9.25399 15.6629 9.25399 15.6629C9.24275 15.6648 9.23192 15.6687 9.22199 15.6743C9.19119 15.6942 9.15731 15.7089 9.12172 15.7179C9.10231 15.7211 9.0861 15.7211 9.06178 15.726C9.06988 15.7454 9.13303 15.854 9.16215 15.918C9.13794 15.9342 8.77378 16.2093 8.77378 16.2093C8.78507 16.2271 8.7943 16.2461 8.80129 16.2659C8.8126 16.3015 8.81751 16.3533 8.82882 16.3775C8.85623 16.426 8.87244 16.4341 8.87244 16.4341C8.87244 16.4341 8.82881 16.4423 8.75265 16.4617C8.68801 16.4779 8.60865 16.5053 8.49665 16.5215C8.46229 16.526 8.42772 16.5287 8.39308 16.5296C8.4093 16.5652 8.48044 16.7011 8.34935 16.858C8.21825 17.0149 8.17783 17.0378 8.1374 17.138C8.11705 17.1227 8.09539 17.1091 8.07265 17.0975C8.02903 17.0781 7.96908 17.0491 7.94807 17.0101C7.93582 17.062 7.91959 17.1129 7.89954 17.1623C7.85911 17.2706 7.79927 17.3775 7.78796 17.4584C7.74423 17.4098 7.66338 17.3144 7.5517 17.3338C7.44002 17.3532 7.35106 17.5053 7.33164 17.549C7.33164 17.5215 7.31223 17.5005 7.30743 17.5328C7.30412 17.5684 7.24268 17.9405 6.89964 18.2415C6.89644 18.1655 6.89644 17.9971 6.88834 17.9422C6.85634 17.9742 6.81719 18.0215 6.58412 18.1218C6.35596 18.2221 6.39212 18.3225 6.39212 18.3225C6.39212 18.3225 6.37271 18.1625 6.4957 17.9939C6.62028 17.8257 6.69634 17.7464 6.69634 17.7335C6.69432 17.7203 6.68871 17.708 6.68012 17.6978C6.66391 17.6816 6.63159 17.6622 6.63159 17.6493C6.651 17.6413 6.84354 17.549 6.83223 17.358C6.82092 17.1866 6.74818 17.0975 6.69634 17.0345C6.68834 17.0264 6.7725 16.9665 6.76108 16.9471C6.75298 16.9358 6.64951 16.8596 6.6365 16.8191C6.63955 16.7949 6.64498 16.7711 6.65271 16.748C6.66401 16.7123 6.67212 16.688 6.66892 16.6638C6.66082 16.6234 6.61708 16.5117 6.60418 16.5004C6.61548 16.5036 6.69634 16.5004 6.69634 16.5004C6.69634 16.5004 6.6317 16.3968 6.62028 16.3483C6.60887 16.2997 6.58466 16.1719 6.57175 16.1476C6.59927 16.1508 6.66721 16.1556 6.66721 16.1476C6.67052 16.1233 6.60737 16.0829 6.63521 16.0516C6.65463 16.0548 6.69185 16.0711 6.72737 16.1164C6.70796 16.0645 6.67564 15.9643 6.60759 15.9239C6.63959 15.9125 6.74839 15.8833 6.84385 15.94C6.93932 15.9966 6.97185 16.0759 6.97185 16.0759C6.97185 16.0759 7.02849 16.1196 7.11596 16.1843C7.21623 16.2636 7.34401 16.3763 7.54796 16.4561C7.59169 16.4804 7.70327 16.4804 7.78423 16.4642C7.81948 16.4558 7.85328 16.4422 7.8845 16.4238C7.89577 16.4172 7.90771 16.4117 7.92012 16.4076C7.90273 16.3727 7.88272 16.3391 7.86028 16.3072C7.8878 16.3072 7.92012 16.3105 7.92012 16.3105C7.92012 16.3105 7.93954 16.2668 7.85218 16.1825C7.87159 16.1631 7.89591 16.1505 7.89591 16.1178C7.86839 16.1146 7.81985 16.0741 7.80855 16.0579C7.82465 16.0466 7.84898 16.0094 7.8765 15.9981C7.85218 15.9787 7.79234 15.8977 7.76482 15.8897C7.7911 15.88 7.81654 15.868 7.84087 15.8541C7.84087 15.8541 7.70497 15.8185 7.66124 15.7893C7.61751 15.7573 7.55287 15.702 7.51404 15.6858C7.47351 15.6696 7.40236 15.6616 7.37324 15.6291C7.40065 15.6372 7.44439 15.6291 7.47682 15.6291C7.50103 15.6291 7.51244 15.6323 7.52044 15.6323C7.51724 15.621 7.51724 15.5967 7.58039 15.5887C7.61076 15.5841 7.64024 15.5748 7.66775 15.5612C7.66775 15.5612 7.6078 15.558 7.53975 15.4932C7.4717 15.4285 7.41516 15.3768 7.37634 15.3687C7.33591 15.3605 7.25986 15.3962 7.21292 15.3929C7.14818 15.3849 7.12065 15.3524 7.12065 15.3524C7.12065 15.3524 6.90551 15.3719 6.42818 15.0807C6.01548 14.8282 5.83586 14.6049 5.83586 14.6049C5.79723 14.5909 5.7599 14.5736 5.72428 14.5531C5.56898 14.4722 5.35372 14.3039 5.36023 14.0837L5.35938 14.0853Z" fill="#C2A44D"/>
<path fill-rule="evenodd" clip-rule="evenodd" d="M11.3119 4.37292C11.3493 4.38508 11.3826 4.40751 11.4079 4.43766C11.4839 4.52502 11.5325 4.69004 11.3593 4.86646C11.4273 4.89068 11.4553 4.89846 11.5146 4.89068C11.4548 4.96193 11.3189 5.11404 11.3108 5.24673C11.3027 5.3551 11.3706 5.38753 11.3706 5.38753C11.3706 5.38753 11.2671 5.50721 11.2623 5.70753C11.3112 5.65237 11.3647 5.60148 11.4223 5.55542C11.5421 5.45996 11.7071 5.35158 11.8188 5.28364C11.8172 5.31211 11.8211 5.34062 11.8301 5.36769C11.8301 5.36769 12.0387 5.19617 12.2141 5.27233C12.2933 5.30796 12.2577 5.41953 12.2577 5.41953C12.2577 5.41953 12.3662 5.3791 12.4422 5.45516C12.5183 5.53121 12.6258 5.72737 12.6809 5.80342C12.7052 5.83905 12.7683 5.907 12.8329 6.01217C12.9213 6.15942 12.995 6.31493 13.0531 6.47649C13.0563 6.39233 13.0773 6.26134 13.3169 6.3438C13.5564 6.42796 13.8281 6.60438 14.0563 6.9518C14.2845 7.29921 14.341 7.69142 14.4559 7.84076C14.5724 7.98476 14.6921 8.22422 14.7002 8.3246C14.7084 8.42497 14.6646 8.74849 14.9041 9.6239C14.972 9.35212 15.0756 8.74849 15.0756 8.74849L15.1322 8.21612L15.197 6.56886L13.4769 5.13985L12.1322 4.16406L11.2568 4.24822L11.3118 4.37281L11.3119 4.37292Z" fill="#CAA13E"/>
<path fill-rule="evenodd" clip-rule="evenodd" d="M14.5077 6.8238C14.5077 6.8238 14.4834 6.6638 14.0789 6.3918C13.6743 6.12322 13.3588 6.12322 13.0676 5.89506C12.8442 5.71543 12.6113 5.30274 12.4596 5.16684C12.3123 5.03255 12.2881 4.64418 12.2881 4.64418L12.7848 4.22818L13.5236 3.16034L14.1481 2.47266L14.4474 2.88866L14.8634 3.3773L15.0948 4.35788L15.179 5.79319L14.507 6.82391L14.5077 6.8238Z" fill="#B59544"/>
<path fill-rule="evenodd" clip-rule="evenodd" d="M15.0084 8.54339C15.0207 8.32573 14.9938 8.10763 14.9291 7.89945C14.8224 7.56771 14.5893 6.9787 14.4811 6.75811C14.4373 6.51374 14.4698 6.49433 14.5167 6.46681C14.5636 6.43929 14.7401 6.33881 14.8367 5.98627C14.9333 5.63374 15.2332 5.62222 15.2332 5.62222L15.4176 5.48633L15.6976 6.18691L15.9419 6.81966L16.0179 7.3035L16.0746 7.71609L15.9419 8.5883L15.2866 9.18051L15.0083 8.54339H15.0084Z" fill="#C89D3A"/>
<path fill-rule="evenodd" clip-rule="evenodd" d="M5.86426 18.2651V18.2472C5.87787 18.2387 5.8899 18.2279 5.89978 18.2152C5.91108 18.199 5.9193 18.1796 5.9273 18.1748C5.94351 18.1667 6.01956 18.1428 6.05999 18.1505C6.10042 18.1582 6.2073 18.2022 6.26394 18.199C6.38042 18.1958 6.51631 18.1067 6.73156 18.1473C7.05519 18.2071 7.13124 18.4272 7.31898 18.5518C7.44698 18.6392 7.57946 18.6003 7.59887 18.6003H7.6425C7.6506 18.6003 7.71044 18.5323 7.74287 18.5356C7.80762 18.5388 7.81402 18.5923 7.85444 18.5955C7.94991 18.6068 8.13444 18.547 8.22671 18.5713C8.25407 18.5798 8.27895 18.5949 8.29923 18.6152C8.31951 18.6354 8.3346 18.6603 8.34319 18.6876C8.3626 18.7475 8.34639 18.8235 8.29946 18.8673C8.19919 18.9594 8.10372 19.0469 8.08431 19.1233C8.109 19.1421 8.13271 19.1622 8.15535 19.1834C7.35473 18.9794 6.58442 18.671 5.86426 18.2661V18.2651Z" fill="#CEB052"/>
<path fill-rule="evenodd" clip-rule="evenodd" d="M14.4805 15.0328C14.4805 15.0328 14.7328 14.6963 14.8203 14.5295C14.9077 14.3577 14.5436 12.1817 14.5436 12.1817L15.275 9.78533L15.2555 9.00538C15.2555 9.00538 15.2911 8.28527 15.3753 7.97295C15.4757 8.15258 15.788 8.36943 15.8559 8.48431C15.8879 8.26415 15.9966 7.79983 15.9805 7.30469C16.0404 7.39685 16.1844 8.3241 16.1844 8.3241L16.3284 8.94863L16.5161 9.6121L16.7248 10.3128L16.8494 10.7966L16.9206 10.9131L16.9805 11.117L17.0372 11.3371L17.2006 11.8533L17.2966 12.2772L17.3726 13.0458C17.3892 13.1047 17.4011 13.1647 17.4083 13.2254C17.4115 13.3096 17.3969 13.3581 17.3969 13.3727C17.3969 13.3874 17.4245 13.5572 17.4132 13.6851C17.3969 13.8131 17.3969 13.9132 17.2966 14.0051C17.1962 14.0969 17.1332 14.6458 17.1332 14.6458L16.9535 14.5261C16.9535 14.5261 16.9892 14.3626 16.905 14.2138C16.8208 14.065 16.6574 14.0342 16.5652 14.0585C16.473 14.0779 16.2886 14.1069 16.2286 14.1588C16.172 14.2105 16.0329 14.3707 15.905 14.4436C15.745 14.5396 15.4843 14.5471 15.3452 14.5795C15.2044 14.6115 15.0491 14.7075 14.8856 14.8189C14.7574 14.9019 14.622 14.9733 14.4811 15.0323L14.4805 15.0328Z" fill="#CCA847"/>
<path fill-rule="evenodd" clip-rule="evenodd" d="M14.4805 18.5681C14.4805 18.5681 14.4911 18.575 14.5117 18.5863C15.6613 18.0477 16.6914 17.2842 17.5411 16.341C17.5318 16.0135 17.5197 15.6778 17.5065 15.5534C17.4791 15.2897 17.4985 15.0211 17.4904 14.8658C17.4823 14.7105 17.3949 14.0777 17.3545 13.9143C17.3108 13.7509 17.2265 13.6699 17.2137 13.6699C17.2024 13.6732 17.1343 13.9774 17.1343 14.0539C17.1343 14.1304 17.1181 14.3145 17.1181 14.3614C17.1068 14.3581 17.102 14.3294 17.102 14.3177C17.0858 14.3581 17.0664 14.4294 17.0583 14.4375C17.0502 14.4456 17.0696 14.3695 17.0583 14.3533C17.047 14.3371 17.0263 14.3452 17.0308 14.3048C17.0327 14.2808 17.0365 14.257 17.0421 14.2337C17.0421 14.2337 16.9935 14.3048 16.958 14.486C16.9224 14.6657 16.9224 14.6706 16.9095 14.6867C16.8982 14.7062 16.8334 14.7708 16.8301 14.7951C16.8269 14.8388 16.8901 14.8825 16.8949 14.9067C16.8981 14.9473 16.8382 15.1349 16.8188 15.2267C16.7994 15.3186 16.8075 15.4985 16.7868 15.5908C16.7706 15.6749 16.7548 15.7235 16.6995 15.759C16.7399 15.7671 16.7787 15.7784 16.7787 15.7784C16.7787 15.7784 16.8353 16.0179 16.6913 16.2218C16.6396 16.293 16.6267 16.3254 16.5717 16.3901C16.4632 16.5098 16.379 16.6461 16.3709 16.7348C16.3653 16.7086 16.3615 16.6821 16.3596 16.6554C16.3596 16.6554 16.1914 16.8513 16.1201 16.9629C16.028 17.1069 15.9001 17.0988 15.8641 17.1345C15.8282 17.1701 15.8204 17.2347 15.8321 17.2866C15.8001 17.2946 15.74 17.306 15.6995 17.4306C15.68 17.4952 15.6315 17.5586 15.5555 17.6021C15.4794 17.6456 15.3871 17.6587 15.3402 17.67C15.3806 17.6813 15.3968 17.6813 15.4163 17.6942C15.392 17.7347 15.2804 17.7978 15.1558 17.8788C15.0312 17.9548 14.9712 18.0664 14.9405 18.1393C14.9085 18.2072 14.8613 18.2509 14.7852 18.259C14.8172 18.2785 14.8646 18.3237 14.8888 18.3383C14.8532 18.3464 14.7928 18.3464 14.6849 18.4387C14.5717 18.5325 14.5328 18.5601 14.481 18.5682L14.4805 18.5681Z" fill="#C39D3C"/>
<path fill-rule="evenodd" clip-rule="evenodd" d="M12.229 19.3192C12.291 19.2758 12.3581 19.2402 12.4288 19.2133C12.6812 19.113 12.9482 19.0936 13.0534 19.0613C13.1537 19.0293 13.233 18.9852 13.3576 18.9609C13.3543 18.9893 13.3515 19.016 13.3485 19.0412C12.9812 19.1566 12.6072 19.2495 12.2285 19.3192H12.229Z" fill="#D2BA6B"/>
<path fill-rule="evenodd" clip-rule="evenodd" d="M16.8837 12.6787C16.8837 12.6787 16.832 12.9586 16.7397 13.135C16.6475 13.3114 16.5477 13.5557 16.5477 13.5557C16.5483 13.5007 16.5548 13.4458 16.5671 13.3922C16.4507 13.4601 16.1675 13.6237 16.0871 13.6964C16.0111 13.7643 15.8832 13.8841 15.8509 13.9408C15.9269 13.7175 16.0062 13.5169 16.0192 13.4246C15.9027 13.5088 15.3589 13.957 15.0758 14.2531L14.1939 14.9667C14.0921 15.0216 13.9873 15.0707 13.88 15.1137C13.728 15.1783 13.5484 15.2334 13.4157 15.2852C13.4513 15.1897 13.5078 15.1055 13.5872 15.0246C13.6713 14.9454 13.9237 14.6719 13.9625 14.5446C13.9982 14.4119 14.0063 14.3327 13.9593 14.221C13.9156 14.2323 13.8153 14.2372 13.7474 14.2566C13.6795 14.276 13.6066 14.3488 13.6066 14.3488C13.6066 14.3488 13.6583 14.0527 13.77 13.7728C13.6859 13.776 13.5419 13.8002 13.5419 13.8002C13.5419 13.8002 13.7425 13.4637 14.0859 13.2291C13.9807 13.2515 13.8778 13.2834 13.7784 13.3245C13.5778 13.4086 13.3577 13.5332 13.1943 13.6011C13.2865 13.4731 13.9337 12.5494 14.3189 11.6885C14.7029 10.8293 14.8464 10.6093 14.9305 10.1481C14.9742 9.91998 14.9625 9.5828 14.9742 9.28083C14.9855 8.98142 15.0227 8.71283 14.9985 8.5332C15.0988 8.65779 15.4742 9.00894 15.4871 9.79379C15.4984 10.5785 15.128 11.6385 14.7347 12.2096C14.8307 12.2371 15.0795 12.2695 15.335 11.8256C15.5906 11.3816 15.5875 11.2577 15.6798 11.0731C15.6911 11.1654 15.6878 11.1977 15.6878 11.1977C15.6878 11.1977 16.06 10.7463 16.2364 10.1783C16.272 10.4227 16.3772 10.6379 16.212 11.0862C16.0648 11.4906 15.8723 11.5894 15.8723 11.5894C15.8723 11.5894 15.9678 11.5732 16.1085 11.489C16.1328 11.5489 16.128 11.617 16.1684 11.6411C16.2088 11.6653 16.2639 11.7059 16.272 11.7447C16.3156 11.68 16.3836 11.5974 16.4047 11.536C16.3885 11.664 16.3772 12.2237 16.4367 12.5085C16.5614 12.4971 16.6892 12.489 16.7765 12.2641C16.7167 12.4842 16.7167 12.6168 16.7571 12.8046C16.8235 12.7593 16.8833 12.6784 16.8833 12.6784L16.8837 12.6787Z" fill="#C0993A"/>
<path fill-rule="evenodd" clip-rule="evenodd" d="M12.68 3.7616C12.68 3.7616 12.5555 3.81333 12.3435 3.81333C12.1591 3.81333 12.2108 3.74219 11.9228 3.74219C11.4795 3.74219 9.93092 3.99819 9.65903 3.99456C9.4826 3.99136 10.2544 4.07061 10.2544 4.07061L12.227 4.09813L12.6234 4.06613L12.7707 3.7664L12.68 3.7616Z" fill="#A88F33"/>
<path fill-rule="evenodd" clip-rule="evenodd" d="M7.56495 7.61799C7.56495 7.61799 7.31247 7.81052 7.2057 7.95782C7.09893 8.10513 7.04229 8.20209 6.9209 8.32188C6.94939 8.32297 6.97786 8.31914 7.00506 8.31057C7.00506 8.31057 7.00506 8.34257 6.98565 8.351C7.00242 8.34912 7.0194 8.35102 7.03535 8.35656C7.0513 8.3621 7.0658 8.37113 7.07781 8.383C7.04218 8.40241 6.94511 8.49958 7.02117 8.61446C7.07781 8.70182 7.19759 8.70982 7.19759 8.70982C7.19759 8.70982 7.17007 8.78919 7.28495 8.78108C7.53253 8.76977 7.80922 8.66129 7.93701 8.68881C8.06501 8.72081 8.13775 8.73255 8.22831 8.88956C8.32431 9.04487 8.40794 9.06918 8.40794 9.06918C8.40794 9.06918 8.46458 8.92508 8.45167 8.70993C8.49811 8.59396 8.52385 8.47074 8.52773 8.34588L8.44357 7.72615L8.07631 7.26172L7.60058 7.52551L7.56495 7.61767V7.61799Z" fill="#E3C571"/>
<path fill-rule="evenodd" clip-rule="evenodd" d="M8.0166 7.52514C8.0166 7.52514 8.05223 7.6093 8.20113 7.6173C8.18492 7.65293 8.18492 7.65783 8.18983 7.68525C8.19303 7.71277 8.19783 7.75319 8.19783 7.75319C8.21422 7.74526 8.22904 7.73442 8.24156 7.72119C8.24967 7.75682 8.23345 7.81335 8.24156 7.85389C8.24656 7.87854 8.2547 7.90245 8.26577 7.92503C8.26814 7.9195 8.27084 7.91412 8.27388 7.90893C8.27708 7.90082 8.30588 7.99629 8.38556 8.06893C8.38549 8.05776 8.38824 8.04675 8.39356 8.03693C8.39478 8.05722 8.40149 8.07679 8.41297 8.09357C8.40701 8.09072 8.40157 8.0869 8.39687 8.08226C8.39687 8.08226 8.40487 8.33826 8.4486 8.47063C8.45591 8.46208 8.46241 8.45287 8.46801 8.44311C8.46801 8.43511 8.46481 8.51437 8.45671 8.57111C8.4454 8.62775 8.45351 8.70701 8.45351 8.70701C8.48268 8.68404 8.51474 8.665 8.54887 8.65037C8.5974 8.63085 8.67687 8.57101 8.72529 8.43831C8.75339 8.36316 8.77505 8.28577 8.79004 8.20695C8.80569 8.23707 8.81649 8.26947 8.82204 8.30295C8.82535 8.34338 8.9014 8.32237 8.9014 8.32237L8.91761 8.14594L9.01361 7.74626L9.10097 7.49869L9.52167 6.84343L10.2818 6.25805L10.9452 6.41015L11.505 5.64962L10.5407 5.07031L9.62801 5.16578L8.79975 6.31298L8.13639 7.35351L8.0166 7.52503V7.52514Z" fill="#D8B65B"/>
<path fill-rule="evenodd" clip-rule="evenodd" d="M12.7963 5.86342C12.7963 5.86342 12.7396 5.87473 12.5762 5.95942C12.4128 6.04412 12.2995 6.071 12.2364 6.19558C12.1732 6.32017 12.1684 6.41894 12.1684 6.41894C12.1684 6.41894 12.2801 6.37041 12.3448 6.3542C12.4128 6.33809 12.4888 6.34289 12.4807 6.37041C12.473 6.38928 12.4621 6.40675 12.4487 6.42214C12.4487 6.42214 12.5767 6.41894 12.5733 6.48209C12.5699 6.54524 12.5491 6.61478 12.5249 6.6455C12.5006 6.6775 12.4003 6.72486 12.389 6.76209C12.3615 6.83814 12.4003 6.84134 12.3857 6.90278C12.3744 6.96273 12.3211 7.07921 12.1462 7.28305C11.9666 7.487 11.8902 7.631 11.8902 7.631C11.8902 7.631 11.8029 7.46758 11.7575 7.32678C11.7255 7.34289 11.5537 7.43836 11.5537 7.43836L11.1556 6.05169L11.1636 5.95942C11.1636 5.95942 11.1992 5.9158 11.2073 5.83484C11.1475 5.81542 11.1394 5.79921 11.06 5.72326C10.9807 5.64732 10.916 5.55494 10.7835 5.4918C10.764 5.45617 10.7397 5.40774 10.6427 5.38822C10.5456 5.3687 10.4873 5.3527 10.4873 5.3527C10.4873 5.3527 10.5391 5.33318 10.5634 5.29276C10.5035 5.30086 10.455 5.32028 10.3239 5.31708C10.1912 5.31377 10.1766 5.30897 10.1039 5.32028C10.0311 5.33158 9.94388 5.36401 9.91135 5.25233C9.87572 5.22481 9.79967 5.24913 9.73492 5.34449C9.67017 5.43985 9.64756 5.51601 9.52297 5.55324C9.51421 5.60815 9.49498 5.66088 9.46633 5.70854C9.43071 5.76849 9.37407 5.82833 9.29801 5.91729C9.17823 6.05809 9.19764 6.28945 9.00671 6.46588C8.81417 6.6422 9.03871 5.97713 9.03871 5.97713L9.34612 5.24113L10.2215 4.38513L11.5808 4.29297L11.7135 4.99697L12.3769 5.22513L12.796 5.86428L12.7963 5.86342Z" fill="#D3AE4D"/>
<path fill-rule="evenodd" clip-rule="evenodd" d="M13.0117 6.02008L12.4405 5.1965L12.0408 4.88898C12.0408 4.88898 11.756 4.36482 11.7366 4.34861C11.7204 4.3373 11.4518 4.30818 11.2803 4.29688L11.3123 4.37613C11.3497 4.38829 11.383 4.41072 11.4083 4.44087C11.4843 4.52823 11.5329 4.69325 11.3598 4.86968C11.4277 4.89389 11.4558 4.90168 11.5151 4.89389C11.4552 4.96514 11.3193 5.11725 11.3112 5.24994C11.3031 5.35832 11.3711 5.39064 11.3711 5.39064C11.3711 5.39064 11.2675 5.51042 11.2627 5.71064C11.3116 5.65548 11.3651 5.60459 11.4227 5.55853C11.5425 5.46253 11.7075 5.35458 11.8192 5.28664C11.8177 5.31515 11.8215 5.34369 11.8305 5.3708C11.8305 5.3708 12.0391 5.19928 12.2145 5.27533C12.2937 5.31096 12.2581 5.42264 12.2581 5.42264C12.2581 5.42264 12.3666 5.38221 12.4426 5.45826C12.5187 5.53432 12.6271 5.73005 12.6821 5.80621C12.7063 5.84184 12.7695 5.90978 12.8341 6.01485C12.9224 6.16212 12.9962 6.31767 13.0543 6.47928C13.0575 6.41453 13.0705 6.32397 13.1823 6.32397L13.0123 6.01975L13.0117 6.02008Z" fill="#CAA13E"/>
<path fill-rule="evenodd" clip-rule="evenodd" d="M4.44863 8.35904C4.44863 8.35904 4.4082 8.25866 4.44863 8.06293C4.48906 7.8672 4.5522 7.77493 4.57322 7.48693C4.59423 7.19893 4.78196 6.83968 4.78196 6.83968L5.30132 6.60352L5.66868 6.70378L5.77706 7.19573L5.31263 7.45173C5.31263 7.45173 5.28842 7.5601 5.15732 7.64746C5.02623 7.73482 4.845 7.80277 4.80138 7.89184C4.7753 7.94637 4.75626 8.00401 4.74474 8.06336C4.74474 8.06336 4.61204 8.03584 4.53279 8.1232C4.44863 8.21226 4.45183 8.29152 4.44863 8.35946V8.35904Z" fill="#F4EFC8"/>
<path fill-rule="evenodd" clip-rule="evenodd" d="M5.49709 8.22789C5.49709 8.22789 5.45336 8.25541 5.42104 8.32389C5.38904 8.27216 5.31256 7.96464 5.30936 7.68795C5.30616 7.41125 5.28962 7.34267 5.35362 7.24731C5.41762 7.15195 5.66861 7.05147 5.63298 6.87973C5.59736 6.71632 5.44845 6.64837 5.26562 6.69531C5.13762 6.72731 5.04237 6.99952 4.90968 7.13541C4.8093 7.23899 4.68962 7.22277 4.6573 7.27941C4.61357 7.35547 4.654 7.43152 4.64109 7.48005C4.63778 7.49627 4.59736 7.58363 4.5245 7.6888C4.3773 7.90075 4.12813 8.20016 4.0957 8.46875C4.10701 8.31664 4.09901 8.31344 4.13944 8.14512L4.11512 8.10469L4.27512 7.58043L4.37869 7.14843L4.61016 6.42501L5.01784 5.6856L5.41432 5.24219L5.8269 5.26971L5.87544 5.88944L6.1117 7.05296L6.60845 7.66459L5.81229 8.20037L5.49677 8.22789H5.49709Z" fill="#EBCC73"/>
<path fill-rule="evenodd" clip-rule="evenodd" d="M5.74453 8.44828C5.74453 8.44828 5.67658 8.46449 5.65226 8.45158C5.62794 8.43868 5.60383 8.42406 5.61183 8.40785C5.61983 8.39164 5.66357 8.36422 5.66357 8.35121C5.66446 8.33945 5.66074 8.3278 5.6532 8.31874C5.64565 8.30968 5.63487 8.30392 5.62314 8.30267C5.58591 8.29787 5.57461 8.32209 5.57461 8.32209C5.57461 8.32209 5.53898 8.29468 5.50997 8.29009C5.52713 8.28799 5.5444 8.28688 5.5617 8.28678C5.51698 8.26653 5.46955 8.25291 5.4209 8.24636C5.46133 8.22214 5.54068 8.15089 5.59242 8.15089C5.64415 8.15089 5.67658 8.14289 5.66847 8.11537C5.66037 8.08785 5.61994 8.04742 5.57631 8.03121C5.59242 8.0118 5.60383 7.98268 5.565 7.90321C5.52447 7.82396 5.54068 7.77052 5.5537 7.75121C5.565 7.72689 5.60543 7.68326 5.62485 7.65574C5.64426 7.62822 5.66047 7.591 5.69279 7.57158C5.70901 7.56028 5.76074 7.53958 5.81258 7.51985C5.86922 7.50044 5.91615 7.47612 5.94847 7.50044C5.9841 7.52465 5.96788 7.55708 5.96788 7.55708C5.96788 7.55708 6.07956 7.51654 6.17983 7.56838C6.2802 7.61681 6.52458 7.64764 6.52458 7.64764L6.61215 7.82406L6.03285 8.32081L5.79338 8.4406L5.74485 8.4486L5.74453 8.44828Z" fill="#E5C66B"/>
<path fill-rule="evenodd" clip-rule="evenodd" d="M6.54838 7.63666C6.54838 7.63666 6.36876 7.75644 6.32833 7.80007C6.35254 7.80338 6.39297 7.81959 6.37676 7.8438C6.35734 7.86802 6.24086 7.95218 6.17612 8.03154C6.10817 8.11079 6.04342 8.21116 6.02081 8.2597C5.9966 8.30332 5.81206 8.43122 5.74902 8.44732C5.88172 8.44732 6.1487 8.28391 6.24897 8.28391C6.24577 8.33244 6.27649 8.38748 6.33313 8.39228C6.38977 8.39708 6.55318 8.42791 6.77324 8.29202C6.99329 8.15932 6.92054 8.06055 7.0127 7.99591C7.18913 7.87932 7.26028 7.77575 7.35734 7.71111C7.45441 7.64647 7.50465 7.63175 7.50465 7.63175C7.50465 7.63175 7.50785 7.58322 7.53665 7.58812C7.54453 7.58903 7.55202 7.59207 7.5583 7.59692C7.56458 7.60177 7.56941 7.60825 7.57228 7.61564C7.57228 7.61564 7.7406 7.49586 7.95628 7.46354C7.95125 7.46129 7.94722 7.45726 7.94497 7.45223C7.94497 7.45223 7.96108 7.44412 7.96438 7.43602C7.96438 7.43602 7.97569 7.4198 7.9838 7.42791C7.9919 7.43602 8.00321 7.49586 8.01942 7.52018C8.05505 7.50396 8.123 7.35186 8.123 7.35186L8.28652 6.88423V6.45703L8.15852 6.48135L7.19852 6.88903L6.6159 7.49266L6.54796 7.63666H6.54838Z" fill="#E6BD62"/>
<path fill-rule="evenodd" clip-rule="evenodd" d="M9.31266 5.54149C9.36459 5.52889 9.41437 5.50869 9.46039 5.48154C9.44098 5.53338 9.44098 5.59002 9.35682 5.71301C9.27266 5.83599 9.26946 5.85381 9.20151 5.98159C9.13357 6.11429 9.12546 6.30522 9.06071 6.38927C9.08973 6.37517 9.12086 6.36591 9.15287 6.36186C9.15287 6.36186 9.08823 6.4185 9.06071 6.47834C9.03319 6.53818 8.98466 6.66277 8.86498 6.73893C8.7453 6.81509 8.59309 6.86351 8.42967 7.04314C8.26615 7.21946 8.09794 7.44282 8.01367 7.52314C8.05741 7.44709 8.11724 7.29498 8.13346 7.19471C8.14967 7.09445 8.13015 6.97455 8.15767 6.84197C8.18519 6.70938 8.18519 6.61381 8.31767 6.38234C8.45015 6.15087 8.67693 5.34671 8.67693 5.34671L9.16557 5.19141L9.31287 5.54095L9.31266 5.54149Z" fill="#B6933F"/>
<path fill-rule="evenodd" clip-rule="evenodd" d="M8.95941 5.24531C8.95941 5.24531 8.81221 5.45726 8.77178 5.64499C8.73135 5.83273 8.76847 5.81651 8.74426 5.90878C8.72978 5.96504 8.72978 6.02404 8.74426 6.0803C8.79524 5.99817 8.86504 5.92936 8.94789 5.87955C9.08709 5.7955 9.20037 5.73555 9.26789 5.66441C9.33583 5.58835 9.39247 5.46377 9.53967 5.3683C9.47983 5.36019 9.39567 5.33267 9.37967 5.3363C9.43962 5.26835 9.61914 5.16478 9.80037 5.04019C9.97999 4.91219 9.96869 4.86057 10.26 4.73278C10.1645 4.74899 10.1192 4.72467 10.0398 4.73278C10.0718 4.66483 10.1838 4.63241 10.2958 4.52083C10.4078 4.40926 10.2247 4.24414 10.2247 4.24414L9.37135 4.7603L8.95877 5.24574L8.95941 5.24531Z" fill="#C49937"/>
<path fill-rule="evenodd" clip-rule="evenodd" d="M6.64355 4.85831L6.66297 4.70301L6.90734 4.31143L7.16302 3.62375V2.68359L7.14361 2.13991L7.18403 1.78386L7.21475 1.67069L7.24718 1.62695L7.45582 1.73533L7.74393 2.1269L7.77145 2.88263L7.49145 4.07517L6.69209 4.94738L6.64355 4.85831Z" fill="#DFC068"/>
<path fill-rule="evenodd" clip-rule="evenodd" d="M7.27961 1.58409C7.27961 1.58409 7.15161 1.5874 7.1243 2.11977C7.09699 2.65214 7.08377 2.93204 7.06435 3.19582C7.04494 3.45961 6.99971 3.61972 6.97699 3.77513C6.95427 3.93054 6.94137 4.14238 6.86862 4.27188C6.83662 4.33172 6.76825 4.51945 6.60803 4.66025C6.42841 4.81556 6.16003 4.92404 6.11939 4.93214C6.04814 4.94825 5.68729 4.98388 5.54009 5.06484C5.48835 5.09236 5.39929 5.12468 5.30062 5.21694C5.10478 5.39326 4.8443 5.70878 4.65657 6.08905C4.36857 6.65705 4.08057 8.26057 4.08057 8.26057L4.14531 8.1522C4.14531 8.1522 4.15342 8.00819 4.29742 7.75571C4.43822 7.50334 4.39779 7.22014 4.59353 6.7363C4.66958 6.55188 4.76505 6.31241 4.88153 6.10846C5.06606 5.77673 5.28931 5.49193 5.51427 5.33662C5.88153 5.08425 6.28611 5.02921 6.28611 5.02921L6.72142 4.74121C6.72142 4.74121 6.79747 4.59401 6.89785 4.42569C7.03854 4.18953 7.21785 3.92574 7.25699 3.54228C7.31694 2.97428 7.17283 2.60212 7.18094 2.26558C7.18905 1.92905 7.19225 1.68148 7.2603 1.62153C7.32835 1.56158 7.27971 1.5843 7.27971 1.5843L7.27961 1.58409Z" fill="#A88F33"/>
<path fill-rule="evenodd" clip-rule="evenodd" d="M7.27951 4.12389C7.27951 4.12389 7.47151 3.65136 7.5594 3.23227C7.57561 3.14811 7.60793 3.06406 7.61604 2.99611C7.65647 2.59963 7.66777 2.43622 7.61604 2.21936C7.57561 2.05936 7.42031 1.91515 7.33935 1.80336C7.26009 1.68678 7.22287 1.64336 7.23908 1.61883C7.2553 1.59429 7.31834 1.55419 7.37978 1.55899C7.44508 1.56089 7.50933 1.57605 7.56859 1.60356C7.62786 1.63106 7.68091 1.67034 7.72452 1.71899C7.84911 1.86299 7.94778 2.35173 7.94778 2.35173L8.05156 2.99664L8.31535 3.80891L7.27972 4.12453L7.27951 4.12389Z" fill="#C99E3D"/>
<path fill-rule="evenodd" clip-rule="evenodd" d="M9.08457 3.63292C9.08457 3.63292 9.04894 3.64903 8.9843 3.63292C8.98706 3.65933 8.98247 3.686 8.97105 3.70998C8.95962 3.73395 8.9418 3.75431 8.91955 3.76881C8.85161 3.74129 8.21555 3.79633 8.21555 3.79633C8.21555 3.79633 7.91945 3.74449 7.82718 3.35292C7.76254 3.09233 7.87571 2.73319 7.83849 2.49692C7.78185 2.14897 7.70259 2.08092 7.69449 1.97265C7.68638 1.86439 7.67827 1.83676 7.67827 1.76881C7.64265 1.76071 7.62163 1.7494 7.58611 1.7494C7.57801 1.7174 7.59411 1.68945 7.55859 1.63281C7.57801 1.64092 7.7107 1.65713 7.86601 1.80433C7.99401 1.92412 7.99401 1.96775 8.01331 1.99207C8.03753 2.01628 8.23337 2.18407 8.31753 2.35132C8.40169 2.51857 8.5651 3.05191 8.60233 3.13927C8.61363 3.17489 8.63795 3.21052 8.69833 3.29137C8.79219 3.40796 8.92969 3.60071 9.08499 3.63271L9.08457 3.63292Z" fill="#B58634"/>
<path fill-rule="evenodd" clip-rule="evenodd" d="M8.03613 2C8.13416 2.15835 8.22222 2.32265 8.29981 2.49195C8.39528 2.70709 8.45192 2.88352 8.57171 3.02752C8.50696 2.83989 8.39208 2.47093 8.32413 2.33984C8.24808 2.20117 8.09277 2.05184 8.03613 2.00011V2Z" fill="#A88F33"/>
<path fill-rule="evenodd" clip-rule="evenodd" d="M6.93569 4.66026C6.93569 4.66026 6.77227 4.70069 6.46806 4.8609C6.36769 4.91264 6.27233 4.95626 6.18006 4.9968C5.94038 5.10517 5.68332 5.20533 5.47937 5.26058C5.49558 5.28 5.50358 5.288 5.50358 5.288C5.50358 5.288 5.50358 5.36736 5.54731 5.41258C5.5231 5.4369 5.19937 5.65696 5.29494 6.39317C5.35958 6.36896 5.43563 6.33653 5.44694 6.33653C5.46646 6.33984 5.47126 6.39317 5.49548 6.39317C5.51969 6.39317 5.59905 6.36117 5.68321 6.25237C5.68001 6.2961 5.63147 6.73621 5.89195 7.03232C5.94049 6.97568 6.06347 6.78794 6.06347 6.78794L6.06668 6.7281C6.06668 6.7281 6.07798 6.51936 6.14604 6.32842C6.21409 6.13749 6.34668 5.99669 6.34668 5.99669L7.03905 5.008L6.93547 4.66016L6.93569 4.66026Z" fill="#E6C367"/>
<path fill-rule="evenodd" clip-rule="evenodd" d="M6.28804 6.11212C6.25634 6.13452 6.22141 6.15196 6.18446 6.16385C6.17316 6.12342 6.15694 5.98422 6.25241 5.84833C6.36409 5.68481 6.60836 5.47286 6.6763 5.30433C6.72004 5.19585 6.70062 4.92406 7.089 4.57612C7.47737 4.22817 7.62937 4.10849 7.62937 4.10849L8.25721 3.79297L9.02905 4.09718L8.64558 5.60012L8.34788 6.30412L7.16388 6.08086L6.28793 6.11212H6.28804Z" fill="#DCBA5A"/>
<path fill-rule="evenodd" clip-rule="evenodd" d="M6.73975 5.70516L6.88705 5.52073V5.38964C6.88705 5.38964 7.05047 5.34591 7.22679 5.16628C7.40311 4.98665 7.64748 4.64201 7.86273 4.66303C8.07799 4.68735 8.099 5.13065 8.10711 5.25535C8.11521 5.38004 8.14273 5.66303 8.18636 5.81524C8.23489 5.96735 7.66209 6.54335 7.66209 6.54335L7.27308 6.83945L6.73975 5.70516Z" fill="#E9CE77"/>
<path fill-rule="evenodd" clip-rule="evenodd" d="M7.19531 7.24024C7.19531 7.24024 7.3151 7.05251 7.22731 7.01208C7.27905 6.8956 7.37451 6.77261 7.37451 6.77261C7.37451 6.77261 7.44246 6.6044 7.66251 6.39725C7.88257 6.19011 8.01857 6.05251 8.05419 5.91341C8.07616 5.82276 8.0881 5.72998 8.08982 5.63672C8.11361 5.65615 8.13906 5.67346 8.16587 5.68845C8.2015 5.70467 8.36971 5.84376 8.3455 6.12376C8.32129 6.40376 8.2175 6.52024 8.2175 6.52024C8.2175 6.52024 8.11723 6.62051 8.04609 6.67235C7.96993 6.72408 7.94251 6.78392 7.81462 6.78883C7.82776 6.77837 7.84254 6.77016 7.85835 6.76451C7.85835 6.76451 7.72566 6.7484 7.65441 6.81304C7.58315 6.87768 7.43169 7.07683 7.35563 7.13677C7.27958 7.18531 7.19563 7.24035 7.19563 7.24035L7.19531 7.24024Z" fill="#CDAE50"/>
<path fill-rule="evenodd" clip-rule="evenodd" d="M12.5765 4.09281C12.3853 4.02314 12.1844 3.98383 11.9811 3.97633C11.6413 3.96502 11.1445 3.98444 10.6575 3.98764C10.1332 3.99084 9.65746 3.80801 8.9973 3.77569C8.88893 3.71094 8.6133 3.42774 7.75293 4.02806C7.80466 4.02486 8.37757 3.89537 8.5765 4.14465C8.77714 4.39222 8.7205 4.81292 8.69309 4.91318C8.64125 5.13654 8.47293 5.46177 8.40509 5.68993C8.33725 5.91809 8.35325 6.03798 8.30472 6.19798C8.25618 6.35798 8.14941 6.43745 8.21245 6.62188C8.29661 6.57014 8.34045 6.57014 8.48104 6.25462C8.62162 5.9391 8.59272 5.71414 8.82578 5.44716C9.05394 5.17857 9.43378 4.81121 9.57821 4.71894C9.72264 4.62668 10.8694 4.03126 12.0702 4.59926C12.3598 4.56854 12.5766 4.0927 12.5766 4.0927L12.5765 4.09281Z" fill="#D2A83E"/>
<path fill-rule="evenodd" clip-rule="evenodd" d="M8.2358 3.87348C8.23461 3.86132 8.23193 3.84936 8.2278 3.83786C8.21657 3.81419 8.20183 3.79236 8.18407 3.77311C8.18407 3.77311 7.89927 3.72138 7.75527 3.73748C7.50279 3.765 7.27463 4.07732 7.16786 4.23754C7.06108 4.39775 6.92839 4.64522 6.78439 4.77311C6.78597 4.76065 6.78309 4.74803 6.77628 4.73748C6.77628 4.73748 6.78439 4.74879 6.76828 4.765C6.75218 4.78122 6.75207 4.78922 6.76018 4.797L6.7845 4.82122C6.7925 4.82122 7.01586 4.72084 7.32007 4.43722C7.6437 4.14111 7.89127 3.98922 8.02076 3.93716C8.08982 3.90782 8.162 3.88645 8.23591 3.87348H8.2358Z" fill="#C29637"/>
<path fill-rule="evenodd" clip-rule="evenodd" d="M13.7609 2.6543C13.7609 2.6543 13.7091 2.71894 13.6444 2.79019C13.5004 2.9423 13.3126 3.11371 13.1524 3.29014C13.0004 3.45846 12.8289 3.58955 12.6363 3.8096C12.4436 4.02966 12.2203 4.27392 12.1637 4.34518C12.112 4.41643 12.0716 4.53291 12.0716 4.59275C12.044 4.57334 12.0117 4.55232 12.0117 4.55232C12.0253 4.57773 12.0416 4.60161 12.0603 4.62358C12.1007 4.68022 12.1637 4.75158 12.1961 4.7951C12.2359 4.8505 12.2645 4.91315 12.2802 4.97952C12.2996 4.98272 12.4242 5.00704 12.5796 4.75136C12.735 4.49568 12.9388 4.21579 12.9388 4.21579L13.2624 3.73515L13.4663 3.32747L13.7223 2.87115L13.7613 2.6543H13.7609Z" fill="#AC8132"/>
<path fill-rule="evenodd" clip-rule="evenodd" d="M14.0923 2.32812C14.0923 2.32812 13.8965 2.48813 13.8205 2.58413C13.7444 2.68013 13.5645 2.93207 13.5645 2.93207L13.6292 2.92397L13.9577 2.63276L14.0857 2.4046L14.0922 2.32855L14.0923 2.32812Z" fill="#A88F33"/>
<path fill-rule="evenodd" clip-rule="evenodd" d="M14.0321 15.1884C14.0321 15.1884 14.0289 15.0557 14.1034 14.9764C14.1794 14.897 14.3719 14.7806 14.5597 14.3437C14.7474 13.9068 14.7683 13.8081 14.7683 13.8081C14.7683 13.8081 14.4318 14.0961 14.2243 14.164C14.2729 14.0637 14.3004 13.9925 14.3247 13.9407C14.2972 13.9165 14.1807 13.8889 14.1694 13.876C14.234 13.8113 14.2697 13.6527 14.4007 13.5475C14.5691 13.4195 14.8765 13.1996 15.1154 13.0035C15.3543 12.8074 15.8241 12.3514 15.8841 12.2188C15.9197 12.2705 15.9277 12.3028 15.9277 12.3028C15.9277 12.3028 15.6915 12.6103 15.5685 12.8061C15.46 12.9744 15.4682 13.0698 15.4682 13.0698L15.6915 12.9738C15.6915 12.9738 15.7562 13.2133 15.4634 13.5775C15.5914 13.5289 15.643 13.5581 15.7157 13.5175C15.5959 13.5937 15.4309 13.6973 15.2756 13.982C15.1235 14.2668 14.9164 14.5985 14.5669 14.8055C14.2271 15.024 14.0312 15.1874 14.0312 15.1874L14.0321 15.1884Z" fill="#A67A2E"/>
<path fill-rule="evenodd" clip-rule="evenodd" d="M13.1553 4.26031C13.1553 4.26031 13.0226 4.53689 13.0032 4.75215C13 4.80399 12.987 4.84441 12.987 4.90425C12.9838 5.09678 12.9983 5.31204 12.955 5.4123C12.9388 5.37188 12.9307 5.34436 12.9145 5.32825C12.8903 5.3962 12.8465 5.60814 12.8109 5.6874C12.7948 5.63566 12.7592 5.45604 12.7625 5.24409C12.7658 5.03215 12.7705 4.99161 12.7705 4.94799C12.7625 5.01263 12.7187 5.10009 12.7025 5.15183C12.6783 5.1082 12.6508 5.05156 12.6184 5.00462C12.5989 5.03662 12.5747 5.08388 12.5537 5.1082C12.5504 5.08879 12.5424 5.03695 12.5375 4.9642C12.5343 4.88004 12.5294 4.77166 12.5343 4.74894C12.5423 4.70532 12.6104 4.5338 12.7544 4.37679C12.9259 4.18905 13.1023 3.8283 13.154 3.71662C13.2058 3.60494 13.4258 3.14062 13.4258 3.14062H13.5941L13.3498 3.69721C13.3498 3.69721 13.2026 4.00143 13.1265 4.11321C13.0505 4.225 12.8903 4.54532 12.819 4.6699C12.8707 4.60196 12.9145 4.56633 12.9663 4.50158C13.0164 4.45625 13.1555 4.26052 13.1555 4.26052L13.1553 4.26031Z" fill="#8C6228"/>
<path fill-rule="evenodd" clip-rule="evenodd" d="M14.0958 2.30859C14.0683 2.39322 14.0249 2.47179 13.9678 2.54006C13.8675 2.65985 13.6522 2.81995 13.5471 2.94774C13.4511 3.07233 13.2591 3.41217 13.3464 3.81505C13.3784 3.72769 13.4387 3.55457 13.5989 3.35873C13.7591 3.16289 13.9306 2.93803 14.0149 2.76331C14.0989 2.58689 14.1102 2.44779 14.1102 2.44779L14.1422 2.40737L14.1228 2.3151L14.0953 2.30859H14.0958Z" fill="#CBA94C"/>
<path fill-rule="evenodd" clip-rule="evenodd" d="M17.372 13.0406C17.372 13.0406 17.3073 12.8643 17.2878 12.704C17.2684 12.5438 17.3198 12.512 17.2603 12.3287C17.2247 12.217 17.1601 12.2327 17.1438 12.217C17.1276 12.2013 17.1163 12.0326 17.1195 11.9403C17.1227 11.848 17.1163 11.7284 17.1001 11.6765C17.0759 11.6571 17.0597 11.6409 17.0241 11.5212C16.9836 11.4014 16.9642 11.3416 16.9448 11.3061C16.9254 11.2706 16.8686 11.2381 16.8686 11.2025C16.8686 11.1312 16.9334 11.0941 16.9334 11.0745C16.9302 11.0341 16.8817 11.0665 16.8686 11.0551C16.8525 11.0357 16.9092 10.9192 16.8882 10.903C16.8801 10.895 16.8234 10.9629 16.8088 10.9435C16.7926 10.924 16.7732 10.7315 16.7441 10.6037C16.7166 10.4791 16.6874 10.3885 16.6842 10.3513C16.681 10.3157 16.4609 9.68784 16.4075 9.53573C16.3645 9.4072 16.3284 9.27649 16.2991 9.14416C16.2829 9.0681 16.2716 8.91269 16.2635 8.9289C16.2554 8.94512 16.2603 9.02437 16.2473 9.02117C16.236 9.01786 16.1956 8.74128 16.1827 8.69754C16.1714 8.65381 16.1033 8.50554 16.0867 8.39824C16.0705 8.28976 16.0349 8.00656 16.0106 7.81402C15.9863 7.62149 15.975 7.54224 15.975 7.49402C15.979 7.3761 15.9725 7.25805 15.9556 7.14128C15.9236 6.93733 15.8596 6.68976 15.8035 6.54586C15.6951 6.27397 15.407 5.57818 15.3555 5.40506C15.3555 5.36133 15.4121 5.38565 15.4121 5.38565C15.4121 5.38565 15.5528 5.7384 15.6564 6.01018C15.7567 6.28208 15.8522 6.52154 15.8765 6.54586C15.8959 6.57008 16.0481 6.83706 16.116 7.27397C16.1839 7.71088 16.2082 8.11376 16.2487 8.38234C16.2681 8.51034 16.2843 8.64613 16.3247 8.78202C16.3684 8.92933 16.4363 9.08144 16.5254 9.3144C16.6014 9.51024 16.6581 9.67365 16.6888 9.81445C16.7244 9.99408 16.7244 10.13 16.7454 10.219C16.765 10.2951 16.794 10.4471 16.862 10.667C16.9301 10.887 17.0302 11.1703 17.0982 11.3466C17.231 11.6994 17.2902 11.9939 17.3102 12.1509C17.3279 12.3127 17.3879 12.8726 17.3717 13.0408L17.372 13.0406Z" fill="#A88F33"/>
<path fill-rule="evenodd" clip-rule="evenodd" d="M14.1034 2.28748L14.0953 2.3069C14.0953 2.3069 14.1195 2.315 14.1147 2.34743C14.115 2.3918 14.1123 2.43613 14.1066 2.48012C14.0986 2.53676 14.0824 2.58039 14.0792 2.61602C14.0792 2.69207 14.0905 2.77943 13.9832 2.99628C13.9512 3.05612 13.9314 3.10786 13.9152 3.14348C13.8748 3.23084 13.8667 3.24386 13.8311 3.28428C13.8877 3.25228 14.0916 3.12428 14.1951 3.14348C14.124 3.18391 14.0155 3.26327 13.9475 3.36684C13.9637 3.37004 14.0317 3.38306 14.1395 3.36684C14.3192 3.33932 14.5198 3.27458 14.6961 3.28748C14.8888 3.29879 14.8127 3.05612 14.8127 3.05612L14.5904 2.56748L14.1697 2.27148L14.1034 2.28759V2.28748Z" fill="#BE9C44"/>
<path fill-rule="evenodd" clip-rule="evenodd" d="M15.2004 5.94885C15.2004 5.94885 15.0127 5.76112 14.9367 5.11685C14.8606 4.4696 14.8768 3.51685 14.8768 3.51685L14.7247 3.14469C14.7247 3.14469 14.6927 2.89712 14.613 2.80496C14.5334 2.7128 14.3769 2.55738 14.3056 2.48133C14.2344 2.40528 14.1535 2.3017 14.105 2.28549C14.1292 2.24506 14.2377 2.0169 14.6535 2.0137C15.0692 2.0105 15.1975 2.24186 15.2409 2.32602C15.2843 2.41018 15.4803 2.77402 15.5531 3.46736C15.621 4.15984 15.6243 4.21168 15.613 4.45114C15.6049 4.58384 15.5612 4.89125 15.485 5.21968C15.4155 5.49808 15.3394 5.8088 15.2002 5.94949L15.2004 5.94885Z" fill="#A17C34"/>
<path fill-rule="evenodd" clip-rule="evenodd" d="M14.612 6.49964C14.6746 6.50416 14.7371 6.49006 14.7916 6.45911C14.8515 6.45591 15.0683 6.48343 15.2349 6.27148C15.2463 6.31991 15.2755 6.45111 15.1993 6.56759C15.2399 6.52706 15.2997 6.51095 15.3078 6.49964C15.311 6.55948 15.3676 6.74391 15.1282 7.19212C15.1928 7.12098 15.2689 7.12418 15.3368 7.11607C15.3401 7.20023 15.3853 7.48332 15.2657 7.63554C15.1864 7.73911 15.0569 7.70668 15.0569 7.70668C15.0588 7.68407 15.0588 7.66135 15.0569 7.63874C15.0537 7.595 15.0375 7.55138 15.0489 7.52226C14.9864 7.49368 14.9294 7.4542 14.8806 7.40567C14.7398 7.27298 14.557 7.04652 14.5441 6.8782C14.5279 6.69047 14.6962 6.65004 14.6962 6.65004C14.6821 6.63743 14.6701 6.62267 14.6605 6.60631C14.6524 6.5789 14.6443 6.53516 14.612 6.49964Z" fill="#8C6228"/>
<path fill-rule="evenodd" clip-rule="evenodd" d="M13.3637 4.46297C13.3637 4.46297 13.3556 4.45166 13.312 4.5034C13.3201 4.45166 13.3282 4.40302 13.3314 4.35609C13.3521 4.31264 13.3788 4.27234 13.4108 4.23641C13.3865 4.28484 13.3703 4.32857 13.3703 4.32857C13.3703 4.32857 13.4302 4.21689 13.5176 4.14894C13.5774 4.10041 13.6535 4.0778 13.6858 4.03246C13.7214 3.98393 13.7133 3.97582 13.7214 3.96772C13.7214 3.96772 13.8008 3.91598 13.9221 3.76377C13.9383 3.74436 13.9626 3.72334 13.9788 3.70393C14.0062 3.69262 14.0709 3.6635 14.147 3.62457C14.2264 3.58094 14.3153 3.5211 14.3704 3.49657C14.4787 3.44804 14.5937 3.45294 14.6471 3.37678C14.6875 3.36548 14.7311 3.24409 14.7231 3.14062C14.7829 3.16484 15.0904 3.35577 15.1956 3.77326C15.2717 4.06937 15.1357 4.52569 15.0791 4.74585C15.0224 4.96601 15.0144 5.12932 14.9351 5.22958C14.8347 5.36238 14.5112 5.54958 14.4318 5.64228C14.3639 5.71833 14.16 5.91086 14.168 6.04996C14.1761 6.15353 14.3039 6.20996 14.3315 6.22958C14.3592 6.24921 14.3589 6.27332 14.4108 6.26158C14.4626 6.24985 14.4819 6.22596 14.5031 6.22596C14.5273 6.22916 14.5273 6.23407 14.5386 6.23407C14.5468 6.23382 14.5549 6.23271 14.5629 6.23076C14.5629 6.23076 14.5548 6.37807 14.2101 6.42276C14.1858 6.42607 14.1616 6.43406 14.1308 6.43897C14.1713 6.41956 14.1955 6.41956 14.2393 6.35972C14.1907 6.35161 14.0515 6.34351 14.0159 6.3322C14.0272 6.31279 14.0644 6.26095 14.0952 6.23673C14.1227 6.21252 14.092 6.20473 14.0677 6.21732C14.0261 6.24568 13.9861 6.27645 13.948 6.30948C13.9075 6.34511 13.8719 6.39364 13.8072 6.43748C13.7877 6.37273 13.7909 6.24975 13.8671 6.16079C13.8476 6.16399 13.8104 6.22062 13.7748 6.20932C13.7684 6.1503 13.7722 6.09061 13.7861 6.03289C13.8056 5.96004 13.9107 5.83225 13.9107 5.83225L14.4188 4.92441L14.5272 4.23673L13.3637 4.46276V4.46297Z" fill="#92723A"/>
<path fill-rule="evenodd" clip-rule="evenodd" d="M13.3364 4.50375C13.3364 4.50375 13.3089 4.52317 13.364 4.56039C13.3559 4.5717 13.3364 4.61213 13.3121 4.63965C13.2847 4.67165 13.2555 4.69149 13.2442 4.71901C13.22 4.77565 13.2005 4.81447 13.2005 4.83879C13.2005 4.86311 13.1924 5.01842 13.1245 5.11869C13.1002 5.15431 13.0727 5.21415 13.0532 5.25458C13.0128 5.32573 12.9772 5.38258 12.9691 5.41458C12.953 5.47122 12.9417 5.62653 12.9417 5.62653C12.9417 5.62653 12.9773 5.58279 12.9902 5.56669C12.9707 5.60711 12.9497 5.65074 12.9189 5.68317C12.9384 5.66695 12.995 5.62653 13.0905 5.54237C13.2232 5.43079 13.4303 5.24306 13.6828 5.09437C13.6066 5.12189 13.542 5.12189 13.4903 5.12999C13.5307 5.08957 13.8947 4.66237 14.0857 4.62194C14.0973 4.60724 14.103 4.58879 14.1019 4.5701L13.9384 4.55399L13.6066 4.62514L13.5582 4.36914L13.3364 4.50343V4.50375Z" fill="#B18E3E"/>
<path fill-rule="evenodd" clip-rule="evenodd" d="M13.8641 5.95856C13.8641 5.95856 13.8204 6.00219 13.7799 6.11067C13.7488 6.07817 13.7221 6.04169 13.7006 6.00219C13.6407 5.90192 13.5486 5.77403 13.3333 5.84688C13.3301 5.77894 13.3252 5.74331 13.3333 5.69478C13.369 5.68678 13.4773 5.59942 13.5857 5.47152C13.6619 5.38416 13.733 5.28379 13.7815 5.156C13.8135 5.13168 13.8689 5.09126 13.9415 5.04432C14.0451 4.97318 14.1697 4.876 14.1891 4.76763C14.1406 4.78704 14.037 4.83558 13.8816 4.82758C13.9415 4.80006 14.0337 4.77094 14.0224 4.65115C14.0467 4.63494 14.0661 4.62363 14.0661 4.62363C14.0479 4.61755 14.0287 4.6148 14.0095 4.61552C14.0062 4.60422 14.0014 4.58811 13.9739 4.59611C13.9463 4.60411 13.9419 4.60422 13.9382 4.61552C13.9269 4.61883 13.8897 4.61552 13.8622 4.63504C13.8347 4.65456 13.7586 4.7191 13.7295 4.7304C13.7408 4.71099 13.7569 4.68198 13.7569 4.68198C13.7569 4.68198 13.6776 4.68998 13.621 4.71398C13.5174 4.7496 13.3978 4.81435 13.2764 4.87739C13.2877 4.85798 13.2926 4.84539 13.3006 4.84176C13.3086 4.83814 13.3281 4.83376 13.3281 4.83046C13.3281 4.82715 13.3201 4.79846 13.3249 4.78683C13.3612 4.70995 13.404 4.63633 13.4529 4.56678C13.5095 4.49062 13.5208 4.38224 13.5208 4.38224L13.7684 4.25766L14.4642 4.09766L14.9157 4.12518L14.8591 4.4375L14.5924 4.98278L14.3643 5.47952L14.1037 5.78384L13.8642 5.95856H13.8641Z" fill="#543E26"/>
<path fill-rule="evenodd" clip-rule="evenodd" d="M14.9916 4.60841C14.9916 4.60841 14.7198 4.94494 14.6437 4.99678C14.6922 4.89321 14.9916 4.27668 15.1 4.10516C15.0758 4.08574 15.0434 4.08574 15.1194 3.78516C15.0548 3.93716 15.0321 4.01652 14.9787 4.05694C14.9254 4.09737 14.9188 4.08446 14.8827 4.08446C14.8896 4.07215 14.8923 4.05802 14.8907 4.04404C14.8907 4.04404 14.6626 4.01652 14.5067 4.01652C14.3509 4.01652 14.0424 4.10068 13.8708 4.16862C13.7349 4.22526 13.6588 4.22526 13.6103 4.26078C13.5618 4.30121 13.5343 4.34494 13.5099 4.35625C13.4905 4.36756 13.3984 4.39668 13.3772 4.4274C13.3578 4.4594 13.3255 4.49534 13.3255 4.50345C13.3255 4.51156 13.3174 4.52297 13.3417 4.51476C13.3497 4.51156 13.4097 4.47913 13.4776 4.4387C13.5698 4.38697 13.6815 4.32713 13.7624 4.2915C13.9938 4.19924 14.0666 4.21545 14.1701 4.19604C14.2785 4.17662 14.4339 4.13129 14.5374 4.13129C14.6409 4.12809 14.8368 4.13129 14.8821 4.1394C14.8627 4.15561 14.8465 4.17502 14.8546 4.24297C14.8546 4.26238 14.8384 4.2834 14.8226 4.33033C14.7742 4.46302 14.6819 4.68308 14.6306 4.79476C14.5594 4.94676 14.4786 5.07465 14.4386 5.1539C14.3986 5.23316 14.3106 5.4419 14.2234 5.55358C14.1363 5.66526 14.0907 5.73321 14.0634 5.75753C14.0361 5.78185 13.8401 5.92574 13.8547 5.97758C13.8903 5.96628 14.1153 5.88158 14.2786 5.69769C14.4419 5.5138 14.4744 5.40158 14.6022 5.30121C14.73 5.20084 14.8304 5.03262 14.8902 4.89353C14.9403 4.76404 14.929 4.72361 14.9921 4.60873L14.9916 4.60841Z" fill="#806031"/>
<path fill-rule="evenodd" clip-rule="evenodd" d="M9.1327 7.11907C9.1327 7.11907 9.09707 7.26627 9.01611 7.33912C8.93686 7.41038 8.79606 7.47182 8.77995 7.5916C8.76054 7.71128 8.92075 7.77123 8.92075 7.77123C8.92075 7.77123 8.83329 7.91523 8.83329 8.0236C8.83329 8.13528 8.83009 8.1563 8.84139 8.26307C8.82856 8.27133 8.81765 8.28224 8.80939 8.29507C8.80939 8.29507 8.81739 8.39864 8.89675 8.46328C8.97611 8.52792 9.04395 8.56686 9.08438 8.55064C9.09055 8.56383 9.09597 8.57737 9.10059 8.59118C9.10059 8.59118 9.16054 8.43907 9.20097 8.30638C9.24139 8.17048 9.27702 8.18979 9.29313 8.00696C9.30923 7.82414 9.48513 7.51022 9.48513 7.51022L9.60513 7.24195L9.40939 7.08984L9.1327 7.11896V7.11907Z" fill="#B6903C"/>
<path fill-rule="evenodd" clip-rule="evenodd" d="M9.49647 7.38281C9.45611 7.42425 9.41885 7.4686 9.38501 7.51551C9.33327 7.58676 9.29285 7.6514 9.21679 7.67903C9.14074 7.70665 9.09221 7.70644 9.09701 7.7826C9.10181 7.85876 9.17306 7.89097 9.21349 7.9298C9.25722 7.97023 9.29285 8.03817 9.27343 8.11433C9.29765 8.10303 9.34138 8.09001 9.38181 8.00265C9.42223 7.91529 9.70501 7.38292 9.70501 7.38292H9.49647V7.38281Z" fill="#685026"/>
<path fill-rule="evenodd" clip-rule="evenodd" d="M10.6116 6.15428C10.6116 6.15428 10.6358 6.08964 10.6116 6.04271C10.5872 5.99418 10.44 5.97796 10.3672 5.92292C10.2911 5.86628 10.1989 5.82693 10.1228 5.85178C10.1341 5.82426 10.1794 5.76431 10.1422 5.7514C10.1066 5.7401 9.97401 5.79994 9.93838 5.82746C9.90275 5.85498 9.82179 5.8873 9.80569 5.90682C9.78958 5.92634 9.76195 5.96346 9.74574 5.94725C9.72953 5.93594 9.72153 5.90682 9.69401 5.92292C9.66649 5.93903 9.53401 6.04751 9.50958 6.11066C9.48515 6.1738 9.43022 6.3146 9.26521 6.47471C9.10019 6.63482 9.02894 6.7385 9.07747 6.79834C9.12601 6.85818 9.14873 6.81455 9.15683 6.86628C9.16307 6.91707 9.16032 6.96856 9.14873 7.01839C9.12931 7.10255 9.09699 7.1818 9.14062 7.19802C9.2523 7.23364 9.36078 7.16602 9.38499 7.18671C9.43353 7.23034 9.35747 7.38735 9.47235 7.41807C9.58894 7.45007 9.70382 7.39055 9.70382 7.39055L10.1277 7.16239L10.5355 6.94725L10.7441 6.53455L10.6322 6.18991L10.6109 6.15428H10.6116Z" fill="#D4B968"/>
<path fill-rule="evenodd" clip-rule="evenodd" d="M10.2119 7.14212C10.2119 7.14212 10.1407 7.03375 10.2281 6.93817C10.3156 6.8426 10.4401 6.80228 10.4886 6.74244C10.4794 6.73104 10.467 6.72262 10.453 6.71823C10.4852 6.66058 10.5344 6.61422 10.5938 6.58543C10.5696 6.56121 10.5372 6.5418 10.5016 6.5418C10.4223 6.5418 10.3736 6.59033 10.3009 6.59033C10.2297 6.59033 10.2216 6.55471 10.2216 6.55471C10.2216 6.55471 10.3414 6.5434 10.33 6.48996C10.3187 6.43332 10.298 6.43332 10.298 6.43332C10.298 6.43332 10.5294 6.33732 10.5698 6.28612C10.6102 6.23492 10.6054 6.17444 10.6135 6.15023C10.6409 6.15023 10.8012 6.06607 10.8659 6.10169C10.9307 6.13732 10.8853 6.23439 10.8853 6.23439C10.8853 6.23439 11.0813 6.08708 11.1811 5.94265C11.2685 5.95076 11.3091 5.88281 11.3731 5.88281C11.4525 5.88281 11.5771 5.99119 11.6013 6.22255C11.6175 6.35524 11.6417 6.43129 11.6175 6.66596C11.6062 6.79865 11.6094 7.08196 11.6495 7.22255C11.6769 7.33423 11.7416 7.32292 11.7416 7.32292C11.7317 7.35695 11.712 7.38732 11.685 7.41028C11.6413 7.45071 11.6365 7.55759 11.6413 7.59801C11.6477 7.62757 11.6558 7.65674 11.6656 7.68537C11.6656 7.68537 11.6139 7.74521 11.6008 7.78575C11.5895 7.82617 11.5362 7.85369 11.4973 7.85369C11.4583 7.85369 11.4779 7.85039 11.4261 7.85369C11.3744 7.857 11.3582 7.865 11.3257 7.85369C11.2933 7.84239 11.2691 7.82937 11.2821 7.72569C11.2934 7.62212 10.8824 7.38105 10.8824 7.38105L10.2104 7.14159L10.2119 7.14212Z" fill="#CCA849"/>
<path fill-rule="evenodd" clip-rule="evenodd" d="M9.43999 8.16354C9.43999 8.16354 9.58719 8.35938 10.1924 8.35938C10.4804 8.35938 10.5808 8.33186 10.6404 8.31564C10.7052 8.29943 10.9478 8.20407 11.1922 7.91596C11.4123 7.65548 11.3637 7.54871 11.3637 7.54871L11.2357 7.5293L10.8197 7.58594L9.58879 8.1102L9.43945 8.16354H9.43999Z" fill="#585136"/>
<path fill-rule="evenodd" clip-rule="evenodd" d="M9.89145 8.21098C9.89145 8.21098 9.36719 8.32757 9.36719 7.99584C9.36719 7.67221 9.69081 7.33237 9.77177 7.27253C9.85593 7.21258 10.0566 7.14453 10.0566 7.14453H10.5404L10.6326 7.3889L10.5921 7.91637L9.89145 8.21088V8.21098Z" fill="#252211"/>
<path fill-rule="evenodd" clip-rule="evenodd" d="M10.375 7.24389C10.375 7.24389 10.2747 7.15162 10.0466 7.27589C9.81841 7.40015 9.63387 7.65989 9.62257 7.89573C9.61126 8.10437 9.79409 8.25978 10.0789 8.26789C10.2908 8.27589 10.4187 8.25167 10.4835 8.23589C10.4673 8.21647 10.3831 8.1113 10.3831 8.1113L10.3751 7.24399L10.375 7.24389Z" fill="#C3B378"/>
<path fill-rule="evenodd" clip-rule="evenodd" d="M10.2769 7.29587C10.2769 7.29587 10.2527 7.27646 10.1809 7.31528C10.1211 7.34728 10.0337 7.43187 9.9658 7.49171C9.92207 7.52734 9.89455 7.54344 9.8698 7.57096C9.76943 7.69075 9.68527 7.88659 9.73391 7.98366C9.78255 8.08072 9.94265 8.1924 10.3504 8.11635L10.2758 7.29598L10.2769 7.29587Z" fill="#E6D89C"/>
<path fill-rule="evenodd" clip-rule="evenodd" d="M10.1437 7.49684C10.1437 7.49684 10.0789 7.59721 10.0789 7.75743C10.0789 7.92084 10.1712 8.18132 10.511 8.20073C10.7715 8.21695 10.9462 7.82537 11.1356 7.67327C11.2796 7.55679 11.3669 7.55348 11.3669 7.55348C11.3669 7.55348 11.2197 7.39348 10.8265 7.18623C10.4382 6.97748 10.0029 6.94996 9.7666 7.27039C9.87828 7.26228 10.2391 7.17001 10.2391 7.17001L10.4156 7.22665L10.1437 7.49695V7.49684Z" fill="#252211"/>
<path fill-rule="evenodd" clip-rule="evenodd" d="M10.6519 7.70815C10.6406 7.68394 10.6324 7.65151 10.6794 7.64351C10.7263 7.63551 10.7473 7.64021 10.7635 7.67551C10.7798 7.71082 10.7955 7.74026 10.7715 7.75487C10.7473 7.76778 10.6842 7.75487 10.6518 7.70794L10.6519 7.70815ZM10.5758 7.47999C10.5758 7.47999 10.5596 7.4913 10.5677 7.46869C10.5709 7.44127 10.592 7.39263 10.6438 7.40405C10.6955 7.41546 10.6843 7.47199 10.6758 7.48821C10.6672 7.50442 10.624 7.53183 10.5916 7.52021C10.5875 7.51916 10.5837 7.51715 10.5805 7.51435C10.5773 7.51156 10.5748 7.50805 10.5732 7.50411C10.5717 7.50017 10.571 7.49591 10.5714 7.49169C10.5718 7.48746 10.5731 7.48338 10.5754 7.47978L10.5758 7.47999Z" fill="#6F674D"/>
<path fill-rule="evenodd" clip-rule="evenodd" d="M6.19629 7.58517C6.19629 7.58517 6.32429 7.68117 6.47298 7.67743C6.62018 7.67413 6.80952 7.52213 6.89688 7.42495C6.94861 7.36831 6.99288 7.30847 7.04088 7.26154C7.08141 7.22111 7.10882 7.2017 7.12824 7.17418C7.15576 7.14218 7.18488 7.08202 7.19949 7.0625C7.16386 7.09002 7.11213 7.13866 7.05869 7.17098C7.00696 7.20298 6.89528 7.26314 6.84994 7.27935C6.80632 7.29557 6.3532 7.53535 6.3532 7.53535L6.19629 7.58517Z" fill="#AC924C"/>
<path fill-rule="evenodd" clip-rule="evenodd" d="M6.3916 6.38795C6.3916 6.38795 6.46275 6.33942 6.60035 6.30859C6.73304 6.27659 7.00003 6.25195 7.00003 6.25195L7.22008 6.34795L7.30744 6.67969L7.14744 7.02443L6.9436 7.15243L6.71213 6.78027L6.39213 6.38859L6.3916 6.38795Z" fill="#9F8E57"/>
<path fill-rule="evenodd" clip-rule="evenodd" d="M6.1035 6.68511L6.02734 6.74197C6.02734 6.74197 6.04686 6.70634 6.06297 6.59797C6.07908 6.48959 6.16334 6.22581 6.28633 6.0737C6.40932 5.92159 6.40612 5.9297 6.40612 5.9297C6.3948 5.92763 6.38317 5.928 6.37201 5.93077C6.36084 5.93355 6.3504 5.93868 6.34137 5.94581C6.35758 5.90997 6.46116 5.78197 6.56473 5.71797C6.6683 5.65397 6.70873 5.63381 6.8171 5.68597C6.92548 5.73813 6.953 5.76522 7.03236 5.76202C7.11172 5.75882 7.17956 5.67466 7.17956 5.67466C7.17956 5.67466 7.19577 5.72639 7.13593 5.84618C7.07609 5.96597 6.83982 6.21023 6.83982 6.21023L6.34788 6.54677L6.1035 6.68543V6.68511Z" fill="#EAC970"/>
<path fill-rule="evenodd" clip-rule="evenodd" d="M6.46722 6.34787C6.46722 6.34787 6.82328 6.3964 6.93165 6.29613C6.93485 6.30744 6.94786 6.30744 6.94786 6.31555C6.94699 6.32166 6.94415 6.32731 6.93976 6.33165C6.95155 6.32977 6.96345 6.3287 6.97538 6.32845C6.98963 6.33269 7.00429 6.33541 7.01912 6.33656C7.03106 6.3363 7.04296 6.3352 7.05474 6.33325C7.05362 6.3413 7.05089 6.34903 7.04671 6.35599C7.04253 6.36296 7.03699 6.36901 7.03042 6.37379C7.04664 6.37379 7.06242 6.37699 7.06242 6.38989C7.06242 6.4028 7.06562 6.44173 7.04621 6.44984C7.03013 6.45429 7.01301 6.45312 6.99768 6.44653C6.99896 6.47717 7.00728 6.5071 7.022 6.534C7.054 6.59384 7.12226 6.662 7.214 6.64237C7.214 6.64237 7.26242 6.75885 7.05858 7.01773C7.03117 7.05336 7.00194 7.10189 6.96642 7.14232C6.95239 7.17291 6.94166 7.20491 6.93442 7.23779C6.93442 7.23779 7.27917 7.10509 7.37784 6.80248C7.47821 6.49827 7.49762 6.19896 7.47821 5.91907C7.4749 5.83971 7.462 5.78317 7.44258 5.74264C7.39405 5.64227 7.25805 5.65848 7.20312 5.71512C7.12376 5.79448 6.99106 5.99181 6.80664 6.12771C6.6189 6.2636 6.6109 6.28771 6.4668 6.34787H6.46722Z" fill="#D7BC6B"/>
<path fill-rule="evenodd" clip-rule="evenodd" d="M6.04037 6.78479C6.04037 6.78479 5.97243 6.82522 5.9368 6.97679C5.90117 7.1321 5.9688 7.32143 6.00795 7.38127C6.04709 7.44111 6.13595 7.60463 6.32027 7.61274C6.36589 7.6125 6.411 7.60314 6.45296 7.58522C6.5173 7.55571 6.57766 7.51819 6.63259 7.47354C6.71195 7.4137 6.77659 7.36197 6.76848 7.35706C6.74907 7.34895 6.27984 6.96058 6.27984 6.96058L6.10341 6.76367L6.04027 6.78501L6.04037 6.78479Z" fill="#585136"/>
<path fill-rule="evenodd" clip-rule="evenodd" d="M6.48431 7.42916C6.48431 7.42916 6.57978 7.42116 6.63642 7.38554C6.69306 7.34991 6.30469 6.96484 6.30469 6.96484L6.33221 7.38084L6.48431 7.42916Z" fill="#453A25"/>
<path fill-rule="evenodd" clip-rule="evenodd" d="M6.07162 6.75602C6.07162 6.75602 6.02309 6.84829 6.02309 6.87261C6.01498 6.95186 6.0393 7.20104 6.05871 7.28029C6.07813 7.36445 6.1833 7.49224 6.3193 7.49224C6.40335 7.49224 6.51994 7.4405 6.51994 7.4276C6.51994 7.41138 6.40015 7.3956 6.36783 7.33533C6.34842 7.30333 6.34031 7.22376 6.33583 7.14333C6.33263 7.0916 6.33263 7.03496 6.35205 7.01533C6.39578 6.9668 6.40378 6.8276 6.40378 6.8276L6.55909 6.53906H6.35482L6.11045 6.69117L6.07162 6.75602Z" fill="#84754B"/>
<path fill-rule="evenodd" clip-rule="evenodd" d="M6.01172 6.84478C6.01172 6.84478 6.17172 6.63284 6.31593 6.5842C6.46015 6.53556 6.52468 6.56478 6.52468 6.56478L6.44052 6.78004L6.32073 6.91273L6.32884 6.98068C6.32884 6.98068 6.30932 7.1603 6.42911 7.28489C6.54889 7.40948 6.63785 7.40468 6.68969 7.40468C6.74153 7.40468 6.89033 7.36094 6.96639 7.18132C7.03433 7.0131 7.09097 6.79732 6.95508 6.581C6.82228 6.36574 6.58772 6.35742 6.54239 6.35742C6.49705 6.35742 6.14111 6.37523 6.01172 6.84446V6.84478Z" fill="#252211"/>
<path fill-rule="evenodd" clip-rule="evenodd" d="M10.1202 7.56486C10.0604 7.53734 10.117 7.36912 10.1768 7.31728C10.2367 7.26544 10.3127 7.20571 10.4455 7.1975C10.494 7.1943 10.5409 7.22502 10.5329 7.25744C10.5216 7.31728 10.4374 7.40144 10.3614 7.46128C10.2562 7.54384 10.1881 7.59558 10.1202 7.56486Z" fill="#F7F7E7"/>
<path fill-rule="evenodd" clip-rule="evenodd" d="M6.88385 6.64669C6.92758 6.64349 6.98422 6.67869 6.99553 6.72605C7.00683 6.77778 6.96801 6.88135 6.88385 6.88135C6.8159 6.88135 6.78027 6.79719 6.78027 6.77298C6.78104 6.75307 6.7866 6.73364 6.79649 6.71634C6.79969 6.71143 6.80779 6.65479 6.88385 6.64669Z" fill="#F8F6DE"/>
<path fill-rule="evenodd" clip-rule="evenodd" d="M6.25241 6.68359C6.25241 6.68359 6.14073 6.73533 6.089 6.84359C6.05204 6.92354 6.04085 7.01301 6.057 7.09959C6.06511 7.14002 6.10553 7.24029 6.13305 7.27591C6.16057 7.31154 6.1978 7.33586 6.22532 7.33255C6.25284 7.32925 6.30937 7.2565 6.30937 7.21287C6.30937 7.16925 6.31268 6.98471 6.36601 6.88434C6.41295 6.78407 6.25273 6.6837 6.25273 6.6837L6.25241 6.68359Z" fill="#D4C38B"/>
<path fill-rule="evenodd" clip-rule="evenodd" d="M6.26861 6.67515C6.2492 6.68645 6.21688 6.70267 6.22488 6.72368C6.23299 6.74309 6.30093 6.75568 6.32525 6.80304C6.35277 6.85157 6.35277 6.90331 6.34467 6.92763C6.3658 6.91758 6.38498 6.90386 6.40131 6.88709C6.43693 6.84667 6.48056 6.79173 6.51779 6.79173C6.54211 6.79173 6.56632 6.80304 6.58904 6.80304C6.62467 6.80304 6.66019 6.79173 6.66509 6.75451C6.67309 6.70597 6.59715 6.66224 6.55341 6.67035C6.56152 6.63835 6.57283 6.59109 6.5372 6.55867C6.50157 6.52624 6.39 6.58299 6.36568 6.5992C6.34136 6.61541 6.26861 6.67525 6.26861 6.67525V6.67515Z" fill="#E2D59D"/>
<path fill-rule="evenodd" clip-rule="evenodd" d="M8.83949 10.0746L9.07896 10.0039L9.1469 10.0524C9.1469 10.0524 9.19533 10.156 9.27149 10.1689C9.24717 10.2207 9.18402 10.2649 9.18733 10.3016C9.19064 10.3383 9.22296 10.3664 9.22296 10.3664C9.22296 10.3664 9.0077 10.7223 9.4317 11.081C9.33133 11.1215 9.20354 11.177 9.1356 11.209C9.18402 11.2203 9.2876 11.241 9.33133 11.2803C9.37506 11.3195 9.37506 11.332 9.41549 11.3563C9.45592 11.3807 9.48013 11.413 9.47213 11.4275C9.44461 11.4113 9.35234 11.3628 9.33624 11.4081C9.32013 11.4533 8.93656 11.4356 8.93656 11.4356L8.2893 11.5602C8.2893 11.5602 8.31352 11.4954 8.24557 11.4356C8.16632 11.3644 8.06925 11.4388 7.96568 11.3595C7.82978 11.256 7.82488 11.1362 7.78125 11.0909C7.82488 11.0634 7.91394 11.023 8.12589 10.9949C8.11778 10.9787 8.09026 10.9302 8.10648 10.8866C8.12589 10.8299 8.20674 10.7943 8.18253 10.7266C8.21816 10.7185 8.23426 10.7185 8.32333 10.6068C8.40749 10.4951 8.45922 10.4709 8.52397 10.4628C8.58872 10.4547 8.62754 10.4628 8.74733 10.3511C8.83138 10.2719 8.80397 10.2039 8.80397 10.2039C8.80397 10.2039 8.8589 10.1861 8.8396 10.0744L8.83949 10.0746Z" fill="#CBAC5A"/>
<path fill-rule="evenodd" clip-rule="evenodd" d="M8.13319 10.1137C8.13639 10.0975 8.1494 10.0894 8.23676 10.0975C8.32412 10.1056 8.87751 10.0457 9.02801 10.0376C9.18012 10.0263 9.71569 10.0343 9.97628 10.0894C10.2369 10.1444 10.5005 10.2091 10.6283 10.2415C10.7563 10.2771 10.7967 10.2899 10.7917 10.3061C10.7885 10.3223 10.7597 10.3381 10.7432 10.3336C10.7271 10.3304 10.3031 10.2009 10.1721 10.1736C10.0411 10.1463 9.58791 10.0733 9.34012 10.0776C9.10876 10.0809 9.01649 10.0744 8.82076 10.097C8.62492 10.1214 8.30129 10.1537 8.20423 10.1408C8.10823 10.1295 8.12807 10.1295 8.13297 10.1133L8.13319 10.1137Z" fill="#D6BC6F"/>
<path fill-rule="evenodd" clip-rule="evenodd" d="M9.43498 11.379C9.43498 11.379 9.76672 11.5586 9.88651 11.7787C9.97387 11.9421 9.83477 12.023 9.83477 12.023C9.83477 12.023 10.0225 12.023 9.99818 12.1266C9.98688 12.1912 9.67456 12.366 9.46581 12.4582C9.25387 12.5505 9.26197 12.5457 9.1584 12.5618C9.05803 12.578 8.78293 12.5298 8.72629 12.6103C8.66965 12.6909 8.69429 12.7739 8.71008 12.7868C8.72629 12.7981 8.85739 12.8143 8.85739 12.8143C8.85739 12.8143 8.82986 12.8903 8.55808 12.8984C8.28629 12.9065 8.21824 12.9259 8.20203 12.9551C8.18581 12.9825 8.25376 12.9664 8.37845 12.9871C8.50304 13.0065 8.67776 13.0191 8.67776 13.0191C8.67776 13.0191 8.62112 13.0676 8.47392 13.1064C8.3056 13.1501 8.04181 13.1906 7.96256 13.2391C8.00299 13.2667 8.06293 13.3071 8.09056 13.3103C8.02261 13.3265 7.92704 13.3621 7.91093 13.375C7.93514 13.3912 7.96757 13.4107 7.96757 13.4107C7.96757 13.4107 7.83157 13.5741 7.75232 13.6146C7.67307 13.6551 7.21675 13.867 7.05973 13.8265C6.66816 13.723 6.61962 13.2942 6.52416 13.2619C6.38016 13.2133 6.31221 13.3103 6.18432 13.2423C6.24096 13.2019 6.27178 13.1777 6.33162 13.1502C6.26688 13.1182 5.93194 12.9058 5.93194 12.9058C5.89692 12.8295 5.85804 12.7549 5.81547 12.6825C5.75072 12.5709 5.65547 12.422 5.584 12.2909C5.42869 12.0029 5.42059 11.8702 5.27979 11.7068C5.30411 11.6748 5.38816 11.6792 5.38816 11.6792L6.56789 12.0676L8.65973 12.1282L9.20373 11.3516L9.43509 11.3791L9.43498 11.379Z" fill="#DFC677"/>
<path fill-rule="evenodd" clip-rule="evenodd" d="M6.33691 12.5656C6.34954 12.5797 6.36425 12.5917 6.38054 12.6013C6.42107 12.6288 6.48091 12.6612 6.52134 12.7096C6.53755 12.6854 6.57798 12.6417 6.64934 12.7096C6.7207 12.7776 6.80934 12.7292 6.86449 12.7453C6.92113 12.7648 6.92433 12.7728 6.92433 12.7728C6.92433 12.7728 6.95633 12.7453 7.0279 12.7162C7.07163 12.6999 7.12337 12.6886 7.18001 12.6725C7.23174 12.6612 7.28838 12.645 7.32731 12.645C7.36294 12.6692 7.49073 12.805 8.00369 12.6046C8.48753 12.4168 8.5991 12.3958 8.68006 12.4248C8.68817 12.4054 8.69627 12.3682 8.82086 12.3731C8.82086 12.3214 8.71729 12.145 8.71729 12.145L8.14609 11.9492H7.83366L6.89681 12.1207L6.37766 12.417L6.33723 12.5663L6.33691 12.5656Z" fill="#C4A859"/>
<path fill-rule="evenodd" clip-rule="evenodd" d="M6.02393 12.2376C6.02393 12.2376 6.03523 12.3249 6.16473 12.4172C6.29273 12.5094 6.33294 12.5644 6.33294 12.5644C6.33294 12.5644 6.35726 12.5324 6.37667 12.4998C6.39609 12.4641 6.4123 12.4237 6.44462 12.4124C6.50937 12.3849 6.65657 12.4366 6.68899 12.4285C6.71651 12.4205 6.70841 12.3639 6.73753 12.3639C6.80547 12.3606 6.8491 12.4075 6.87342 12.4075C6.89774 12.4075 6.95747 12.4043 6.96558 12.3914C6.97369 12.3785 6.97689 12.2441 7.06915 12.1793C7.16953 12.1082 7.29251 12.1389 7.32515 12.1551C7.32515 12.1793 7.32835 12.2393 7.3931 12.2425C7.45785 12.2457 7.46425 12.2344 7.5211 12.2538C7.57795 12.2732 7.64569 12.2506 7.67641 12.346C7.70393 12.338 7.76867 12.3299 7.75246 12.2376C7.78446 12.2134 7.81241 12.1972 7.88046 12.1017C7.89667 12.0775 7.92409 12.05 7.94521 12.0143C8.00185 12.0143 8.06979 12.003 8.16035 12.0823C8.13283 12.1017 8.11662 12.1143 8.10862 12.134C8.1323 12.1575 8.15393 12.1829 8.17326 12.2101C8.19758 12.2421 8.21379 12.2813 8.24451 12.2894C8.31246 12.3088 8.42414 12.2813 8.54873 12.2894C8.66851 12.2975 8.76878 12.3412 8.81251 12.3687C8.82873 12.3607 8.82873 12.3574 8.86915 12.3655C8.90958 12.3736 8.9403 12.3768 8.89667 12.3251C8.92089 12.3364 8.94841 12.3607 8.97273 12.3364C8.99705 12.312 9.01635 12.2765 9.0843 12.2684C9.15225 12.2603 9.17657 12.2716 9.20409 12.2005C9.23971 12.1131 9.11673 12.1131 9.11673 12.1131C9.11673 12.1131 9.17337 12.0613 9.23651 11.9933C9.31257 11.9222 9.39993 11.8299 9.42094 11.7166C9.45657 11.5079 9.25273 11.4805 9.25273 11.4805L8.26403 11.7847L7.05529 11.7247L6.02457 12.2377L6.02393 12.2376Z" fill="#927D49"/>
<path fill-rule="evenodd" clip-rule="evenodd" d="M5.13605 9.38015C5.13605 9.38015 5.10405 9.42058 5.08432 9.51605C5.06458 9.61151 5.07301 9.60021 5.0568 9.66815C5.04058 9.7361 4.84144 10.4125 4.9161 10.6406C4.99077 10.8688 5.12005 10.953 5.2009 11.1374C5.21712 11.1778 5.2329 11.2021 5.24133 11.2378C5.26885 11.3574 5.24464 11.4497 5.27696 11.5695C5.28826 11.6099 5.31749 11.6568 5.36112 11.7054C5.45712 11.8056 5.6136 11.9011 5.68112 11.9691C5.77648 12.0694 5.91248 12.2734 6.0856 12.2927C6.17786 12.304 6.30896 12.2652 6.41733 12.2005C6.51333 12.1406 6.57264 12.0565 6.67333 12.0085C6.74448 11.9729 6.82053 11.96 6.88847 11.9438C7.02927 11.9163 7.15717 11.9118 7.23322 11.9276C7.3497 11.9519 7.62479 12.036 7.77722 12.036C7.89633 12.0341 8.01477 12.0178 8.12997 11.9875C8.36133 11.9196 8.64122 11.803 8.82576 11.7512C8.93413 11.7192 9.02149 11.7108 9.11055 11.6914C9.26266 11.6558 9.39045 11.6072 9.4633 11.515C9.41477 11.4583 9.35493 11.371 9.03119 11.3742C8.66394 11.3823 8.23994 11.5861 8.03119 11.6186C7.82245 11.651 7.73189 11.6784 7.49882 11.5942C7.27034 11.5092 7.26277 11.453 7.26277 11.453C7.26277 11.453 7.02287 11.2852 6.9225 10.8575C6.82213 10.4298 6.9225 10.1181 7.18309 9.82186C7.25104 9.74581 7.23482 9.67786 7.23482 9.67786C7.23482 9.67786 7.40634 9.4465 7.35941 9.22986C7.30768 9.01461 6.97594 9.05834 6.97594 9.05834L5.13616 9.38015H5.13605Z" fill="#6E6342"/>
<path fill-rule="evenodd" clip-rule="evenodd" d="M5.41221 10.1016C5.39795 10.1284 5.39124 10.1586 5.3928 10.1889C5.396 10.2325 5.40901 10.2892 5.54 10.4171C5.65168 10.5287 5.62736 10.6532 5.62736 10.6532C5.62736 10.6532 5.68357 10.6645 5.83611 10.5932C5.95589 10.5365 5.99611 10.6369 5.99611 10.6369C6.03098 10.6186 6.06877 10.6066 6.10779 10.6013C6.14314 10.598 6.17735 10.5871 6.20805 10.5693C6.20805 10.5693 6.34885 10.7133 6.47184 10.7812C6.58352 10.8412 6.64827 10.8816 6.70331 10.8412C6.75504 10.8056 6.75504 10.7327 6.75173 10.7004C6.7389 10.6706 6.72265 10.6423 6.70331 10.6162C6.66768 10.5645 6.61104 10.5045 6.60731 10.4562C6.5992 10.3447 6.69147 10.2119 6.67195 10.1795C6.65243 10.1472 6.57979 10.1391 6.40016 10.2039C6.21413 10.2653 5.41147 10.1019 5.41147 10.1019L5.41221 10.1016Z" fill="#39331F"/>
<path fill-rule="evenodd" clip-rule="evenodd" d="M5.83624 10.8239C5.83624 10.8239 5.74408 10.7366 5.7764 10.3126C5.81553 10.312 5.8546 10.3158 5.89288 10.3239C5.89288 10.3239 5.94312 10.6524 5.83624 10.8239Z" fill="#292311"/>
<path fill-rule="evenodd" clip-rule="evenodd" d="M5.17981 9.05785C5.19267 9.04833 5.2046 9.03761 5.21543 9.02585C5.18343 9.08569 5.0357 9.32515 5.15549 9.70222C5.27527 10.0776 5.57618 10.3575 5.94674 10.3705C6.3173 10.3835 6.51208 10.2022 6.7348 9.93038C6.82216 9.82201 6.92253 9.68601 7.01149 9.59385C7.14418 9.44974 7.24776 9.40931 7.24776 9.27022C7.24776 8.98542 6.95645 8.85753 6.52765 8.72974C6.09885 8.60195 5.71207 8.61774 5.51143 8.70521C5.3157 8.80057 5.23154 8.90094 5.1797 9.05795L5.17981 9.05785Z" fill="#252211"/>
<path fill-rule="evenodd" clip-rule="evenodd" d="M6.55696 10.9514L6.58896 10.9352C6.58896 10.9352 6.59696 10.8072 6.6488 10.8106C6.70053 10.8187 6.72485 10.8868 6.71995 10.911C6.71675 10.9352 6.70384 10.9757 6.652 10.9708C6.58405 10.9724 6.55664 10.9514 6.55664 10.9514H6.55696Z" fill="#3F3824"/>
<path fill-rule="evenodd" clip-rule="evenodd" d="M6.41309 10.4078C6.41309 10.4078 6.44509 10.3965 6.48423 10.4353C6.51623 10.4353 6.65575 10.4191 6.69949 10.4466C6.74322 10.4741 6.75613 10.4983 6.75613 10.4983C6.75613 10.4983 6.59271 10.534 6.50365 10.4983C6.41309 10.4676 6.41309 10.4078 6.41309 10.4078Z" fill="#2D2815"/>
<path fill-rule="evenodd" clip-rule="evenodd" d="M7.13297 10.4331C7.13297 10.4249 7.04561 10.3651 6.95335 10.3456C6.93713 10.3424 6.93383 10.3537 6.92135 10.3537C6.91324 10.3505 6.91004 10.3262 6.91004 10.3262L6.85756 10.3538C6.85756 10.3538 6.84945 10.3651 6.87697 10.3858C6.90119 10.4052 6.94172 10.4214 6.95303 10.4537C6.96433 10.4861 6.96433 10.4974 6.96924 10.5023C6.97244 10.5055 7.02908 10.5023 7.0566 10.4861C7.08412 10.4699 7.13596 10.4434 7.13265 10.4327L7.13297 10.4331Z" fill="#82764F"/>
<path fill-rule="evenodd" clip-rule="evenodd" d="M6.31543 10.7595C6.31543 10.7595 6.33154 10.6479 6.44002 10.643C6.55159 10.6349 6.57271 10.7433 6.57271 10.7433L6.50796 10.808C6.50796 10.8064 6.45943 10.7385 6.31596 10.7595H6.31543Z" fill="#2D2816"/>
<path fill-rule="evenodd" clip-rule="evenodd" d="M7.01978 10.2809C7.01978 10.2809 6.95984 10.3457 6.82725 10.3651C6.81594 10.3489 6.79162 10.3166 6.82725 10.2648C6.86288 10.2131 6.9033 10.1969 6.94373 10.213C6.96157 10.2159 6.97821 10.2238 6.99168 10.2359C7.00516 10.2479 7.01491 10.2635 7.01978 10.2809Z" fill="#574F35"/>
<path fill-rule="evenodd" clip-rule="evenodd" d="M7.26374 10.3592C7.26705 10.343 7.25574 10.3398 7.26374 10.3317C7.27174 10.3236 7.31558 10.3075 7.32369 10.3155C7.32689 10.3188 7.32369 10.3317 7.32369 10.3475C7.32369 10.3632 7.32369 10.3795 7.31558 10.3911C7.30427 10.4073 7.27195 10.4154 7.25574 10.4106C7.23953 10.4058 7.23633 10.3831 7.23633 10.3786C7.24433 10.3754 7.26374 10.3673 7.26374 10.3592ZM7.54001 10.1845C7.54001 10.1764 7.56753 10.1602 7.58374 10.1602C7.60795 10.1602 7.60795 10.1796 7.61126 10.1845C7.61926 10.1877 7.61926 10.1812 7.62737 10.1958C7.63547 10.2104 7.64689 10.2362 7.63867 10.2524C7.63046 10.2686 7.59825 10.2798 7.59025 10.2766C7.57894 10.2685 7.54331 10.1958 7.54001 10.1845Z" fill="#82764F"/>
<path fill-rule="evenodd" clip-rule="evenodd" d="M6.9834 10.3966C6.9834 10.3966 7.01903 10.4046 7.06756 10.4451C7.05135 10.4564 7.02703 10.4693 7.02703 10.4693C7.02703 10.4693 7.02383 10.4321 6.9834 10.3965V10.3966Z" fill="#6E6342"/>
<path fill-rule="evenodd" clip-rule="evenodd" d="M6.9046 10.0393C6.89649 10.0313 6.92881 10.0119 6.94823 10.0151C6.96764 10.0183 6.97575 10.0313 6.99676 10.0345C7.01777 10.0377 7.02108 10.0264 7.02876 10.0183C7.03644 10.0101 7.06439 10.0151 7.06919 10.0183C7.07218 10.0218 7.07489 10.0256 7.07729 10.0296C7.07763 10.0234 7.07924 10.0174 7.08201 10.0119C7.08478 10.0064 7.08866 10.0015 7.0934 9.99756C7.09961 9.993 7.10676 9.9899 7.11434 9.9885C7.12191 9.98709 7.1297 9.98742 7.13713 9.98945C7.14033 10.0008 7.15655 10.0412 7.15335 10.0493C7.15015 10.0574 7.10161 10.0688 7.0934 10.0606C7.10151 10.0801 7.13713 10.1205 7.14193 10.1285C7.14673 10.1365 7.10631 10.1561 7.0902 10.1529C7.06759 10.1513 6.92839 10.0703 6.90417 10.0396L6.9046 10.0393ZM7.11655 9.77068C7.11355 9.76253 7.10782 9.75567 7.10033 9.75127C7.08903 9.74807 7.0518 9.75127 7.0518 9.77068C7.0518 9.79009 7.0838 9.89868 7.11975 9.95521C7.16028 10.0119 7.18769 10.0587 7.21521 10.0717C7.22385 10.0756 7.23366 10.0761 7.24267 10.0731C7.25167 10.0701 7.25921 10.0638 7.26375 10.0555C7.26695 10.0474 7.27505 9.98753 7.27185 9.84673C7.26865 9.70593 7.26375 9.57004 7.25564 9.56193C7.24753 9.55383 7.21521 9.55393 7.20391 9.57004C7.1926 9.58615 7.11975 9.74647 7.11644 9.77068H7.11655Z" fill="#585136"/>
<path fill-rule="evenodd" clip-rule="evenodd" d="M6.97275 10.6018C6.97275 10.6018 6.91611 10.5662 6.86107 10.5905C6.80934 10.6148 6.81254 10.7103 6.81254 10.7103C6.82418 10.7149 6.83675 10.7165 6.84917 10.7151C6.86159 10.7137 6.87347 10.7093 6.88379 10.7022C6.91942 10.678 6.96465 10.6376 6.97275 10.6019V10.6018Z" fill="#574F35"/>
<path fill-rule="evenodd" clip-rule="evenodd" d="M7.07887 10.7276C7.07567 10.6956 7.04688 10.6956 7.04688 10.6791C7.04886 10.6711 7.05344 10.6641 7.05988 10.6592C7.06632 10.6542 7.07425 10.6515 7.0824 10.6515C7.09861 10.6515 7.1144 10.6709 7.13424 10.6835C7.15365 10.6948 7.18277 10.7155 7.18597 10.7402C7.18917 10.7648 7.15397 10.8323 7.11482 10.8323C7.07567 10.8323 7.0873 10.7595 7.0792 10.7272L7.07887 10.7276ZM7.3912 10.6839C7.3912 10.6839 7.32645 10.7033 7.33125 10.6839C7.33605 10.6644 7.35077 10.6596 7.37178 10.6596C7.38246 10.6485 7.39682 10.6415 7.41221 10.6401C7.42101 10.6397 7.42966 10.6426 7.43642 10.6482C7.43642 10.6482 7.48016 10.6288 7.49306 10.6401C7.50597 10.6514 7.49637 10.6514 7.50437 10.6644C7.51456 10.6789 7.52124 10.6955 7.52389 10.713C7.52389 10.7259 7.47536 10.7534 7.43642 10.7486C7.3912 10.7389 7.3992 10.692 7.3912 10.6839ZM7.76815 10.611C7.76815 10.611 7.78757 10.6223 7.77146 10.6353C7.76015 10.6466 7.70351 10.6673 7.65487 10.6709C7.60634 10.6709 7.56271 10.6789 7.56271 10.6628C7.56271 10.6467 7.60314 10.6143 7.62735 10.6062C7.63221 10.6001 7.63838 10.5952 7.6454 10.5918C7.65242 10.5885 7.66011 10.5868 7.66789 10.5868C7.6873 10.5868 7.76325 10.5787 7.78437 10.5755C7.80378 10.5722 7.81999 10.5835 7.80858 10.5997C7.80378 10.611 7.76815 10.611 7.76815 10.611ZM7.87984 10.1114C7.87984 10.1114 7.85551 10.1631 7.8281 10.1631C7.80058 10.1599 7.80058 10.1518 7.80058 10.1437C7.80058 10.1324 7.8281 10.1033 7.82479 10.0952C7.81679 10.0952 7.79727 10.0952 7.80058 10.0757C7.80058 10.0595 7.8281 10.0401 7.85232 10.0437C7.87061 10.0287 7.89339 10.0202 7.91706 10.0195C7.94458 10.0195 7.96879 10.0275 7.96879 10.0437C7.96879 10.06 7.9368 10.0955 7.92506 10.1037C7.91216 10.1166 7.89594 10.125 7.87984 10.1117V10.1114ZM7.51087 11.0676C7.51087 11.0676 7.47887 11.0709 7.47887 11.0871C7.47887 11.0952 7.48688 11.0952 7.49829 11.0904C7.50486 11.09 7.51138 11.0889 7.5177 11.0871C7.5209 11.0904 7.5209 11.1065 7.54522 11.1065C7.56519 11.1038 7.58444 11.0972 7.60186 11.0871C7.62128 11.0791 7.63749 11.0708 7.63749 11.0551C7.62938 11.0275 7.61317 11.0145 7.58896 11.0145C7.57655 11.0137 7.56417 11.0165 7.55333 11.0226C7.55333 11.0226 7.54522 11.0064 7.5177 11.0226C7.49018 11.0388 7.49338 11.0388 7.50149 11.0469C7.51599 11.0599 7.5112 11.0683 7.5112 11.0683L7.51087 11.0676ZM7.32805 11.236C7.32805 11.2279 7.36848 11.2116 7.37978 11.2165C7.39109 11.2197 7.42341 11.2812 7.42341 11.2877C7.42341 11.2958 7.38298 11.3152 7.36677 11.3152C7.35055 11.3152 7.32314 11.2877 7.32314 11.2832C7.32314 11.28 7.34256 11.2752 7.34256 11.2719C7.34736 11.2639 7.32805 11.2444 7.32805 11.2363V11.236ZM7.20005 10.9997C7.20815 10.9965 7.20815 10.9884 7.21946 10.9803C7.223 10.9779 7.22703 10.9764 7.23125 10.9759C7.23547 10.9753 7.23975 10.9757 7.24378 10.9771C7.24664 10.972 7.25058 10.9676 7.25534 10.9642C7.2601 10.9608 7.26555 10.9586 7.2713 10.9576C7.29071 10.9544 7.30693 10.9576 7.3033 10.9657C7.3033 10.99 7.31951 11.0061 7.31951 11.0255C7.31951 11.0449 7.30821 11.0692 7.26778 11.0855C7.22736 11.0968 7.17231 11.0968 7.16421 11.0936C7.1561 11.0904 7.14799 11.0579 7.1561 11.0417C7.16421 11.0255 7.18682 11.0078 7.19984 10.9997H7.20005Z" fill="#82764F"/>
<path fill-rule="evenodd" clip-rule="evenodd" d="M7.25246 11.0117C7.25246 11.0117 7.22494 11.0279 7.22494 11.036C7.2225 11.0439 7.22141 11.0521 7.22174 11.0603C7.22174 11.0651 7.25736 11.0571 7.26216 11.0521C7.26376 11.0489 7.25246 11.0201 7.25246 11.0117Z" fill="#6E6342"/>
<path fill-rule="evenodd" clip-rule="evenodd" d="M7.01088 10.9342C7.02698 10.9375 7.0545 10.9342 7.07552 10.9423C7.09173 10.9505 7.10304 10.9667 7.08682 10.9861C7.07061 11.0055 7.05482 11.0346 7.01888 11.0297C6.97845 11.0265 6.93962 11.0055 6.93962 10.9893C6.93894 10.979 6.94031 10.9687 6.94364 10.959C6.94698 10.9493 6.95221 10.9403 6.95904 10.9326C6.97525 10.9197 6.98325 10.9278 7.01077 10.9342H7.01088Z" fill="#585136"/>
<path fill-rule="evenodd" clip-rule="evenodd" d="M6.99159 10.9531C6.99159 10.9531 6.93985 10.9936 6.92684 11.0131C6.91063 11.0325 6.83137 11.1328 6.80716 11.1538C6.8152 11.1396 6.82437 11.1261 6.83457 11.1133C6.80257 11.1338 6.77858 11.1646 6.76663 11.2007C6.74721 11.2606 6.87511 11.293 6.95916 11.3173C7.04321 11.3416 7.07575 11.3493 7.07575 11.3493C7.0448 11.3028 7.01823 11.2535 6.99639 11.2021C6.96439 11.126 6.94785 11.1179 6.96887 11.0823C6.98508 11.0467 7.0094 11.0225 7.0094 10.9949C6.99969 10.9693 6.99159 10.9531 6.99159 10.9531Z" fill="#574F35"/>
<path fill-rule="evenodd" clip-rule="evenodd" d="M5.14767 11.0794C5.15945 11.0816 5.17152 11.0816 5.1833 11.0794C5.20751 11.0761 5.45999 10.9834 5.72378 11C5.92125 11.012 6.11698 11.0441 6.30789 11.096C6.63962 11.1834 7.05221 11.3565 7.31919 11.4553C7.39034 11.4827 7.45999 11.5314 7.51119 11.5507C7.71514 11.63 7.72314 11.63 7.84293 11.651C7.98373 11.6704 8.12773 11.6235 8.27823 11.5912C8.46266 11.5507 8.77818 11.5312 9.05487 11.4908C9.14435 11.4784 9.2326 11.4584 9.31866 11.431C9.31866 11.431 9.09861 11.651 8.57103 11.7303C8.35779 11.7627 8.14108 11.7654 7.92709 11.7384C7.75877 11.7222 7.64719 11.6979 7.56303 11.6736C7.46757 11.6461 7.27173 11.5733 7.03066 11.5136C6.86234 11.4699 6.67461 11.4376 6.45946 11.3972C5.92869 11.3 5.35269 11.1884 5.14746 11.08L5.14767 11.0794Z" fill="#252211"/>
<path fill-rule="evenodd" clip-rule="evenodd" d="M4.55219 10.0801C4.42419 10.1885 4.2884 10.292 4.15581 10.3923L3.75613 10.6994C3.62024 10.7997 3.48755 10.9032 3.35155 11.0036C3.21555 11.104 3.07976 11.1993 2.93555 11.2916C3.06355 11.1832 3.19933 11.0829 3.33523 10.9842C3.47112 10.8855 3.61203 10.7888 3.74312 10.6887L4.1428 10.3812C4.28029 10.2809 4.41299 10.1774 4.55219 10.0803V10.0801ZM3.84509 11.2128C3.84509 11.2128 3.98909 11.093 4.16872 10.9248C4.39197 10.7161 4.66547 10.449 4.75283 10.4006L3.84499 11.2129L3.84509 11.2128Z" fill="#CFB66C"/>
<path fill-rule="evenodd" clip-rule="evenodd" d="M3.84473 11.2121C3.91598 11.1409 3.99203 11.0714 4.06809 11.0033L4.18457 10.903C4.22019 10.871 4.26073 10.8351 4.29625 10.7995C4.36739 10.7283 4.43705 10.6522 4.50819 10.5794C4.54346 10.5428 4.58074 10.5083 4.61987 10.4758C4.63944 10.4585 4.66117 10.4438 4.68451 10.4321C4.70403 10.4208 4.72505 10.4001 4.75246 10.3965C4.73635 10.4208 4.71694 10.4321 4.70073 10.4531C4.68131 10.4693 4.6651 10.4888 4.64899 10.5049C4.61337 10.5405 4.57294 10.5728 4.53731 10.6052C4.46126 10.67 4.38201 10.7332 4.30595 10.801C4.2299 10.8687 4.15875 10.9418 4.08259 11.0097C4.00014 11.0794 3.92409 11.1473 3.84473 11.2124V11.2121ZM4.81241 10.5648C4.81241 10.5648 4.28494 11.0811 4.17646 11.1651L4.81241 10.5648Z" fill="#CFB66C"/>
<path fill-rule="evenodd" clip-rule="evenodd" d="M4.8127 10.5645C4.76525 10.6194 4.71438 10.6713 4.66038 10.7198L4.50038 10.8719C4.44865 10.9236 4.40001 10.9754 4.34508 11.0272C4.28844 11.0757 4.2367 11.1232 4.17676 11.168L4.33206 11.0159C4.3839 10.9641 4.44054 10.9205 4.49558 10.8687L4.65089 10.7166C4.70422 10.6632 4.75606 10.6114 4.8127 10.5645ZM4.83692 10.8443C4.7883 10.98 4.73101 11.1125 4.6654 11.2408C4.5295 11.5127 4.32566 11.8525 4.2366 12.0257L4.83692 10.8443Z" fill="#CFB66C"/>
<path fill-rule="evenodd" clip-rule="evenodd" d="M4.837 10.8438C4.837 10.9036 4.82079 10.9554 4.80137 11.0072C4.78245 11.0589 4.76088 11.1097 4.73673 11.1593C4.71241 11.2078 4.68489 11.2596 4.65737 11.3066C4.62985 11.3535 4.59753 11.4019 4.57321 11.4506L4.4098 11.7386C4.35316 11.8346 4.29812 11.9311 4.23828 12.0234C4.27871 11.9198 4.33375 11.8227 4.38559 11.7273C4.44223 11.6313 4.49396 11.5353 4.54559 11.436C4.57079 11.3865 4.59347 11.3357 4.61353 11.284C4.63775 11.2321 4.66196 11.1836 4.68148 11.1367C4.70569 11.0849 4.72511 11.0363 4.74943 10.9895C4.77684 10.9392 4.79956 10.8907 4.83679 10.8438H4.837Z" fill="#CFB66C"/>
<path fill-rule="evenodd" clip-rule="evenodd" d="M5.4127 12.1719C5.4127 12.1719 5.2527 12.3838 5.2687 12.6524C5.31233 12.5117 5.36737 12.2965 5.4127 12.1719ZM5.56481 12.3844C5.56481 12.3844 5.50817 12.9604 5.46124 13.2436C5.52758 12.9162 5.54049 12.9437 5.56481 12.3844ZM6.62465 13.2776C6.62465 13.2776 6.38518 13.9816 6.38028 14.1772C6.43212 13.976 6.53238 13.565 6.62465 13.277V13.2776Z" fill="#DEC270"/>
<path fill-rule="evenodd" clip-rule="evenodd" d="M7.18457 12.127C7.18457 12.127 7.57294 12.7677 7.86425 13.3146C7.78542 13.0394 7.60409 12.5346 7.18457 12.127Z" fill="#CBAF59"/>
<path fill-rule="evenodd" clip-rule="evenodd" d="M8.22852 13.0703C8.44175 13.4472 8.63404 13.8356 8.80452 14.2337C8.7722 13.9586 8.68473 13.4878 8.22852 13.0703Z" fill="#E3C677"/>
<path fill-rule="evenodd" clip-rule="evenodd" d="M11.2963 14.0158C11.3609 13.9754 11.4888 13.7552 11.6005 13.7003C11.7121 13.6437 11.7962 13.6323 11.8966 13.5207C11.9969 13.4041 12.0246 13.3329 12.2444 13.2408C12.552 13.108 12.3404 12.9365 12.3404 12.9365C12.3743 12.9032 12.4105 12.8724 12.4488 12.8443C12.5282 12.7845 12.6203 12.7116 12.6123 12.5837C12.601 12.3686 12.5606 12.0562 12.3842 11.875C12.5557 11.8394 12.8841 11.8152 13.0882 11.7634C13.3243 11.7035 13.4328 11.6193 13.4328 11.6193C13.4328 11.6193 13.2969 11.388 13.517 11.155C13.737 10.9221 13.9167 10.7829 14.0493 10.5223C13.8972 10.5029 13.6653 10.422 13.0736 10.6469C13.1055 10.6619 13.1363 10.6792 13.1658 10.6986C13.1658 10.6986 12.8018 10.799 12.6691 10.9106C12.4376 11.1064 12.4085 11.2666 12.1577 11.3864C11.9069 11.5062 11.6545 11.4737 11.4458 11.5708C11.2372 11.6679 11.2064 11.7504 11.1302 11.7861C11.1464 11.8055 11.127 11.8378 11.1577 11.8653C11.1383 11.8928 11.025 12.0773 10.9101 12.0773C10.9215 12.121 11.0185 12.1533 11.0185 12.1533C11.0185 12.1533 10.9474 12.2051 10.7661 12.2181C10.8583 12.3141 10.9458 12.4187 11.1868 12.5708C11.1674 12.6112 11.0865 12.6712 11.1189 12.7472C11.1545 12.8233 11.2469 12.9269 11.6156 13.011C11.4279 13.019 11.208 13.0627 10.9116 13.0223C10.6155 12.9867 10.567 12.9657 10.3842 13.011C10.4036 13.0304 10.4553 13.0304 10.5007 13.0822C10.4521 13.0854 10.1479 13.0465 10.0443 13.1825C9.93596 13.3232 9.88903 13.5547 9.89713 13.71C9.84049 13.7375 9.78545 13.7861 9.81297 13.8864C9.84049 13.9868 9.98449 14.0191 10.0768 14.0822C10.1689 14.1501 10.177 14.1743 10.2645 14.1582C10.3567 14.1388 10.4925 14.0466 10.5719 14.0466C10.6513 14.0466 10.7078 14.1065 10.7078 14.1065C10.7078 14.1065 10.9231 14.0029 10.9441 14.0223C10.9635 14.0417 10.9473 14.1663 10.9683 14.1857C10.9896 14.2003 11.2321 14.0563 11.2968 14.0158H11.2963Z" fill="#ECD592"/>
<path fill-rule="evenodd" clip-rule="evenodd" d="M15.9996 7.54078C14.9883 4.92915 12.4883 4.44531 12.4883 4.44531H5.35558L5.3831 7.10547H6.80358V13.0456H5.35547V15.701H12.2908C13.9623 15.701 15.3021 14.0213 15.3021 14.0213C17.4477 10.9761 15.9995 7.54078 15.9995 7.54078H15.9996ZM12.3281 12.2317C12.3281 12.2317 11.7841 13.0165 11.1922 13.0165H10.0082L9.98011 7.11198H11.4996C11.4996 7.11198 12.2036 7.25918 12.6954 8.65235C12.6954 8.65235 13.3475 10.647 12.3281 12.2317Z" fill="white" fill-opacity="0.8"/>
</g>
<defs>
<clipPath id="clip0_37948_3838">
<rect width="20" height="20" fill="white" transform="translate(0.5)"/>
</clipPath>
</defs>
</svg>
