<svg width="21" height="20" viewBox="0 0 21 20" fill="none" xmlns="http://www.w3.org/2000/svg">
<g clip-path="url(#clip0_37948_3836)">
<path d="M20.3267 2.32388C20.3267 4.08625 18.6577 4.45216 18.6577 4.45216L10.4121 6.79344C10.4225 6.76165 11.3925 3.3456 12.9567 2.89396C14.521 2.4432 18.6577 1.2783 18.6577 1.2783C18.6577 1.2783 20.3345 0.648122 20.3267 2.32299V2.32388ZM14.9887 8.72023C14.9887 8.72023 14.1919 8.93323 12.632 9.3884C11.072 9.84356 10.419 13.1792 10.4129 13.2066L2.16994 15.5479C2.16994 15.5479 0.500033 15.912 0.500033 17.677C0.491372 19.3519 2.16908 18.7244 2.16908 18.7244C2.16908 18.7244 6.62013 17.4472 8.18092 16.9921C9.74083 16.5369 10.4043 13.2393 10.4129 13.2092L15.0017 11.8959C15.0017 11.8959 16.6707 11.5574 16.6707 9.79673C16.6707 8.03611 14.9896 8.71931 14.9896 8.71931L14.9887 8.72023ZM4.15425 10.2059C4.15425 11.8746 5.82329 11.2471 5.82329 11.2471C5.82329 11.2471 6.62187 11.0341 8.18262 10.5763C9.74254 10.1184 10.4086 6.82348 10.4121 6.79344L5.82329 8.10681C5.82329 8.10681 4.15425 8.44536 4.15425 10.2059Z" fill="white"/>
</g>
<defs>
<clipPath id="clip0_37948_3836">
<rect width="20" height="20" fill="white" transform="translate(0.5)"/>
</clipPath>
</defs>
</svg>
