<svg width="24" height="24" viewBox="0 0 24 24" fill="none" xmlns="http://www.w3.org/2000/svg">
<path d="M17.0289 18.1348L18.6854 18.9485C19.1741 19.1885 19.7665 18.9758 19.9551 18.4651C20.4397 17.1528 20.8186 15.5987 20.9491 13.9998C21.1018 12.1285 20.9131 10.2153 20.174 8.5597L20.1729 8.56015C20.1401 8.48883 20.1067 8.41768 20.0728 8.34677C19.8185 7.85638 19.3422 7.25494 18.6407 6.857C17.85 6.40843 16.7517 6.20544 15.3104 6.74814C15.0046 6.86329 14.6933 7.01209 14.3811 7.18957C14.7732 7.86014 15.0541 8.76457 15.0764 9.95712C15.0966 11.035 14.9226 12.0556 14.6562 12.965L17.1825 13.9079C17.7793 14.1306 18.1708 14.7214 18.0523 15.3474C17.9091 16.1041 17.6685 16.8406 17.338 17.5406C17.2445 17.7386 17.1417 17.9374 17.0289 18.1348Z" fill="white"/>
<path d="M8.4646 17.4217C8.6803 17.3564 8.90811 17.262 9.14717 17.1307C10.1596 16.5746 10.9254 15.6666 11.4697 14.7759C11.8226 14.1984 12.088 13.6191 12.2705 13.1298C12.3527 12.9093 12.5965 12.7895 12.8169 12.8717L16.9048 14.3974C17.3162 14.551 17.5755 14.9652 17.4833 15.3946C17.3612 15.9632 17.1554 16.6323 16.8376 17.3052C16.3177 18.4064 15.5074 19.4988 14.295 20.1893C13.2931 20.7599 12.2686 21.0543 11.3108 21.0985C10.2672 20.921 9.58255 20.4656 9.14642 19.8576C8.68461 19.2138 8.4793 18.3677 8.4646 17.4217Z" fill="white"/>
<path d="M10.9988 3.08394C13.5772 2.78062 15.4931 3.35407 16.9473 4.38627C17.72 4.93472 18.3689 5.61739 18.9193 6.3786L18.9133 6.37521C17.9747 5.84271 16.7048 5.63166 15.1161 6.22987C12.9833 7.03296 10.684 9.296 9.45992 11.6038C8.66596 13.1007 7.88297 15.3961 7.91258 17.422C7.92742 18.4374 8.14688 19.4107 8.69837 20.1796C8.89035 20.4473 9.11997 20.6865 9.38987 20.8923C7.42582 20.4011 4.95452 19.0336 3.62268 15.8814C2.46042 13.1306 3.01304 10.0856 4.51891 7.63813C6.02706 5.18699 8.46256 3.38229 10.9988 3.08394Z" fill="white"/>
</svg>
