<svg width="24" height="24" viewBox="0 0 24 24" fill="none" xmlns="http://www.w3.org/2000/svg">
<path d="M16.8721 9.5718C16.5614 9.39426 16.1619 9.39426 15.8068 9.5718L13.3211 11.0366L11.6345 11.9687L9.19321 13.4334C8.88251 13.611 8.48303 13.611 8.12794 13.4334L6.21932 12.2794C5.90862 12.1018 5.68668 11.7467 5.68668 11.3473V9.12794C5.68668 8.77285 5.86423 8.41775 6.21932 8.19582L8.12794 7.08616C8.43864 6.90862 8.83812 6.90862 9.19321 7.08616L11.1018 8.24021C11.4125 8.41775 11.6345 8.77285 11.6345 9.17232V10.6371L13.3211 9.66057V8.15144C13.3211 7.79634 13.1436 7.44125 12.7885 7.21932L9.2376 5.13316C8.92689 4.95561 8.52741 4.95561 8.17232 5.13316L4.53264 7.26371C4.17755 7.44125 4 7.79634 4 8.15144V12.3238C4 12.6789 4.17755 13.0339 4.53264 13.2559L8.12794 15.342C8.43864 15.5196 8.83812 15.5196 9.19321 15.342L11.6345 13.9217L13.3211 12.9452L15.7624 11.5248C16.0731 11.3473 16.4726 11.3473 16.8277 11.5248L18.7363 12.6345C19.047 12.812 19.2689 13.1671 19.2689 13.5666V15.7859C19.2689 16.141 19.0914 16.4961 18.7363 16.718L16.8721 17.8277C16.5614 18.0052 16.1619 18.0052 15.8068 17.8277L13.8982 16.718C13.5875 16.5405 13.3655 16.1854 13.3655 15.7859V14.3655L11.6789 15.342V16.8068C11.6789 17.1619 11.8564 17.517 12.2115 17.7389L15.8068 19.8251C16.1175 20.0026 16.517 20.0026 16.8721 19.8251L20.4674 17.7389C20.7781 17.5614 21 17.2063 21 16.8068V12.5901C21 12.235 20.8225 11.8799 20.4674 11.658L16.8721 9.5718Z" fill="white"/>
</svg>
