<svg width="24" height="24" viewBox="0 0 24 24" fill="none" xmlns="http://www.w3.org/2000/svg">
<path d="M8.66625 8.31552C12.4816 8.31552 15.3326 6.6484 15.3326 5.15772C15.3326 3.66719 12.4816 2 8.66625 2C4.85091 2 2 3.66719 2 5.15772C2 6.6484 4.85085 8.31552 8.66625 8.31552Z" fill="white"/>
<path d="M8.66625 20.9468C9.22313 20.9468 9.75913 20.911 10.269 20.8458C9.8392 20.2353 9.4838 19.5579 9.21755 18.8303C9.03461 18.8371 8.85103 18.8418 8.66618 18.8418C6.48607 18.8418 4.42147 18.3644 2.85285 17.4974C2.544 17.3267 2.25977 17.1434 2 16.9492V17.7891C2 19.2796 4.85085 20.9468 8.66625 20.9468Z" fill="white"/>
<path d="M8.66631 16.7358C8.68587 16.7358 8.70511 16.7355 8.7246 16.7354C8.68555 16.3904 8.66517 16.039 8.66517 15.6824C8.66517 15.326 8.68549 14.9748 8.7246 14.6301C8.70511 14.6301 8.68581 14.6308 8.66631 14.6308C6.4862 14.6308 4.42166 14.1534 2.85298 13.2864C2.54406 13.1157 2.25977 12.9323 2 12.7383V13.5781C2.00006 15.0687 4.85091 16.7358 8.66631 16.7358Z" fill="white"/>
<path d="M8.66631 12.5268C8.85529 12.5268 9.04172 12.5226 9.2258 12.5146C9.52145 11.7128 9.9255 10.9723 10.4181 10.3156C9.84777 10.3851 9.26161 10.4219 8.66631 10.4219C6.4862 10.4219 4.42166 9.94445 2.85298 9.07752C2.54406 8.90676 2.25977 8.72343 2 8.5293V9.36914C2.00006 10.8597 4.85091 12.5268 8.66631 12.5268Z" fill="white"/>
<path d="M11.5239 12.1935C11.1118 12.8783 10.8173 13.6566 10.6725 14.4929C10.6056 14.8785 10.5703 15.2762 10.5703 15.6829C10.5703 15.9887 10.5905 16.2894 10.6287 16.5837C10.7225 17.3067 10.9274 17.9903 11.2237 18.613C11.5345 19.2665 11.9458 19.8529 12.435 20.3467C13.4515 21.3729 14.8033 21.9996 16.2852 21.9996C19.4364 21.9996 22.0001 19.166 22.0001 15.6829C22.0001 12.1998 19.4364 9.36621 16.2852 9.36621C15.9595 9.36621 15.6402 9.39695 15.3292 9.45507C13.745 9.75118 12.3805 10.7702 11.5239 12.1935Z" fill="white"/>
</svg>
