<svg width="24" height="24" viewBox="0 0 24 24" fill="none" xmlns="http://www.w3.org/2000/svg">
<path d="M16.6747 11.2584C16.7719 10.8744 16.8235 10.472 16.8235 10.0575C16.8235 9.64303 16.7719 9.2407 16.6747 8.85667L20.949 7.12674L21 13.0089L16.6747 11.2584ZM8.90546 1.05455L15.1172 1L13.2969 5.38147C12.8842 5.26584 12.4493 5.20405 12 5.20405C11.5508 5.20405 11.1159 5.26584 10.7032 5.38145L8.90546 1.05455ZM7.72004 1.55689L9.52159 5.89288C8.81044 6.32229 8.21837 6.93089 7.80704 7.65664L3.47513 5.90337L7.72004 1.55689ZM16.2586 1.60836L20.5798 5.88113L16.193 7.65662C15.7816 6.9309 15.1896 6.32232 14.4785 5.89292L16.2586 1.60836ZM3 7.1061L7.32527 8.85669C7.22813 9.24072 7.17651 9.64303 7.17651 10.0575C7.17651 10.472 7.22814 10.8743 7.32528 11.2583L3.05102 12.9883L3 7.1061ZM3.42022 14.2338L7.80705 12.4584C8.24219 13.2261 8.87959 13.8628 9.64626 14.2948L7.92338 18.6866L3.42022 14.2338ZM16.0989 18.7434L14.3537 14.2948C15.1204 13.8628 15.7578 13.2262 16.1929 12.4585L20.5248 14.2116L16.0989 18.7434ZM14.8413 19.0627L9.13904 19.1127L10.8426 14.7703C11.2098 14.8613 11.5935 14.91 11.9884 14.9109C11.9923 14.9109 11.9961 14.9109 12 14.9109C12.0039 14.9109 12.0077 14.9109 12.0116 14.9109C12.4065 14.91 12.7902 14.8613 13.1574 14.7703L14.8413 19.0627ZM12 13.6167C10.0464 13.6167 8.46277 12.0232 8.46277 10.0575C8.46277 8.0918 10.0464 6.4983 12 6.4983C13.9536 6.4983 15.5372 8.0918 15.5372 10.0575C15.5372 12.0232 13.9536 13.6167 12 13.6167ZM9.13904 19.1127L7.77472 22.5905C7.67777 22.8376 7.44055 23 7.17651 23H3.96084C3.78325 23 3.63928 22.8551 3.63928 22.6764V22.0293C3.63928 21.8506 3.78325 21.7057 3.96084 21.7057H6.73895L7.92338 18.6866L8.17127 18.9317C8.29293 19.052 8.4571 19.1187 8.62766 19.1172L9.13904 19.1127ZM16.0989 18.7434L17.2611 21.7057H20.0392C20.2168 21.7057 20.3607 21.8506 20.3607 22.0293V22.6764C20.3607 22.8551 20.2168 23 20.0392 23H16.8235C16.5594 23 16.3222 22.8376 16.2253 22.5905L14.8413 19.0627L15.529 19.0566C15.6995 19.0551 15.8625 18.9855 15.9821 18.8631L16.0989 18.7434Z" fill="white"/>
</svg>
