<svg width="24" height="24" viewBox="0 0 24 24" fill="none" xmlns="http://www.w3.org/2000/svg">
<path d="M21.3333 12.6667C21.5101 12.6667 21.6797 12.5964 21.8047 12.4714C21.9298 12.3464 22 12.1768 22 12C22 11.8232 21.9298 11.6536 21.8047 11.5286C21.6797 11.4036 21.5101 11.3333 21.3333 11.3333H19.3333V8.66667H21.3333C21.5101 8.66667 21.6797 8.59643 21.8047 8.4714C21.9298 8.34638 22 8.17681 22 8C22 7.82319 21.9298 7.65362 21.8047 7.5286C21.6797 7.40357 21.5101 7.33333 21.3333 7.33333H19.2667C19.1286 6.67027 18.7917 6.06501 18.3011 5.59815C17.8104 5.13128 17.1891 4.82497 16.52 4.72V2.66667C16.52 2.48986 16.4498 2.32029 16.3247 2.19526C16.1997 2.07024 16.0301 2 15.8533 2C15.6765 2 15.507 2.07024 15.3819 2.19526C15.2569 2.32029 15.1867 2.48986 15.1867 2.66667V4.66667H12.6667V2.66667C12.6667 2.48986 12.5964 2.32029 12.4714 2.19526C12.3464 2.07024 12.1768 2 12 2C11.8232 2 11.6536 2.07024 11.5286 2.19526C11.4036 2.32029 11.3333 2.48986 11.3333 2.66667V4.66667H8.52V2.66667C8.52 2.48986 8.44976 2.32029 8.32474 2.19526C8.19971 2.07024 8.03014 2 7.85333 2C7.67652 2 7.50695 2.07024 7.38193 2.19526C7.2569 2.32029 7.18667 2.48986 7.18667 2.66667V4.78C6.57917 4.93216 6.02683 5.25238 5.59292 5.70397C5.15902 6.15556 4.86111 6.72025 4.73333 7.33333H2.66667C2.48986 7.33333 2.32029 7.40357 2.19526 7.5286C2.07024 7.65362 2 7.82319 2 8C2 8.17681 2.07024 8.34638 2.19526 8.4714C2.32029 8.59643 2.48986 8.66667 2.66667 8.66667H4.66667V11.3333H2.66667C2.48986 11.3333 2.32029 11.4036 2.19526 11.5286C2.07024 11.6536 2 11.8232 2 12C2 12.1768 2.07024 12.3464 2.19526 12.4714C2.32029 12.5964 2.48986 12.6667 2.66667 12.6667H4.66667V15.3333H2.66667C2.48986 15.3333 2.32029 15.4036 2.19526 15.5286C2.07024 15.6536 2 15.8232 2 16C2 16.1768 2.07024 16.3464 2.19526 16.4714C2.32029 16.5964 2.48986 16.6667 2.66667 16.6667H4.73333C4.86111 17.2798 5.15902 17.8444 5.59292 18.296C6.02683 18.7476 6.57917 19.0678 7.18667 19.22V21.3333C7.18667 21.5101 7.2569 21.6797 7.38193 21.8047C7.50695 21.9298 7.67652 22 7.85333 22C8.03014 22 8.19971 21.9298 8.32474 21.8047C8.44976 21.6797 8.52 21.5101 8.52 21.3333V19.3333H11.3333V21.3333C11.3333 21.5101 11.4036 21.6797 11.5286 21.8047C11.6536 21.9298 11.8232 22 12 22C12.1768 22 12.3464 21.9298 12.4714 21.8047C12.5964 21.6797 12.6667 21.5101 12.6667 21.3333V19.3333H15.1867V21.3333C15.1867 21.5101 15.2569 21.6797 15.3819 21.8047C15.507 21.9298 15.6765 22 15.8533 22C16.0301 22 16.1997 21.9298 16.3247 21.8047C16.4498 21.6797 16.52 21.5101 16.52 21.3333V19.28C17.1891 19.175 17.8104 18.8687 18.3011 18.4019C18.7917 17.935 19.1286 17.3297 19.2667 16.6667H21.3333C21.5101 16.6667 21.6797 16.5964 21.8047 16.4714C21.9298 16.3464 22 16.1768 22 16C22 15.8232 21.9298 15.6536 21.8047 15.5286C21.6797 15.4036 21.5101 15.3333 21.3333 15.3333H19.3333V12.6667H21.3333ZM16 18H8C7.46957 18 6.96086 17.7893 6.58579 17.4142C6.21071 17.0391 6 16.5304 6 16V8C6 7.46957 6.21071 6.96086 6.58579 6.58579C6.96086 6.21071 7.46957 6 8 6H16C16.5304 6 17.0391 6.21071 17.4142 6.58579C17.7893 6.96086 18 7.46957 18 8V16C18 16.5304 17.7893 17.0391 17.4142 17.4142C17.0391 17.7893 16.5304 18 16 18Z" fill="white"/>
<path d="M14.6667 7.33301H9.33333C8.8029 7.33301 8.29419 7.54372 7.91912 7.91879C7.54405 8.29387 7.33333 8.80257 7.33333 9.33301V14.6663C7.33333 15.1968 7.54405 15.7055 7.91912 16.0806C8.29419 16.4556 8.8029 16.6663 9.33333 16.6663H14.6667C15.1971 16.6663 15.7058 16.4556 16.0809 16.0806C16.456 15.7055 16.6667 15.1968 16.6667 14.6663V9.33301C16.6667 8.80257 16.456 8.29387 16.0809 7.91879C15.7058 7.54372 15.1971 7.33301 14.6667 7.33301ZM15.3333 14.6663C15.3333 14.8432 15.2631 15.0127 15.1381 15.1377C15.013 15.2628 14.8435 15.333 14.6667 15.333H9.33333C9.15652 15.333 8.98695 15.2628 8.86193 15.1377C8.7369 15.0127 8.66667 14.8432 8.66667 14.6663V9.33301C8.66667 9.1562 8.7369 8.98663 8.86193 8.8616C8.98695 8.73658 9.15652 8.66634 9.33333 8.66634H14.6667C14.8435 8.66634 15.013 8.73658 15.1381 8.8616C15.2631 8.98663 15.3333 9.1562 15.3333 9.33301V14.6663Z" fill="white"/>
</svg>
