<svg width="20" height="20" viewBox="0 0 20 20" fill="none" xmlns="http://www.w3.org/2000/svg">
<path d="M4.93755 11.5H8.25021L7.56631 17.9658C7.56329 17.9853 7.56247 18.043 7.56247 18.0625C7.56247 18.5792 7.98325 19 8.50002 19C8.79404 19 9.07447 18.859 9.26055 18.6093L15.8125 9.25005C15.9333 9.08868 16 8.88928 16 8.68755C16 8.17078 15.5794 7.75 15.0626 7.75H11.0081L11.683 2.04768C11.6852 2.02599 11.6868 1.95924 11.6868 1.93755C11.6876 1.42078 11.2668 1 10.75 1C10.456 1 10.1756 1.14104 9.98359 1.39825L4.18745 10C4.06674 10.1612 4 10.3608 4 10.5625C4 11.0793 4.42078 11.5 4.93755 11.5Z" fill="white"/>
</svg>
