<svg width="24" height="24" viewBox="0 0 24 24" fill="none" xmlns="http://www.w3.org/2000/svg">
<path d="M11.9949 21.9999C6.5439 22.0264 1.94217 17.555 2.00055 11.8781C2.05893 6.49324 6.43244 1.94214 12.1169 2.00056C17.5413 2.05897 22.0369 6.49324 21.9998 12.1117C21.9732 17.5125 17.5201 22.0211 11.9949 21.9999ZM17.3662 8.97855C17.3343 8.95199 17.3131 8.93075 17.2919 8.91482C17.1804 8.82985 17.0743 8.73958 16.9628 8.65461C15.344 7.40133 13.4969 6.46668 11.5278 5.90377C10.6467 5.64356 9.7391 5.48955 8.82619 5.44176C8.4865 5.42583 8.14681 5.44176 7.80712 5.45238C7.47274 5.463 7.13835 5.50548 6.80928 5.57452C6.24136 5.69135 5.69998 5.87722 5.20637 6.18523C4.7393 6.47199 4.35715 6.8809 4.10769 7.37478C3.8423 7.90052 3.78923 8.46874 3.84761 9.04758C3.89538 9.46711 4.00684 9.88133 4.16607 10.269C4.44207 10.9647 4.83483 11.5913 5.29129 12.1861C5.77429 12.8074 6.31567 13.3756 6.91013 13.8854C7.07466 14.0341 7.32412 14.0448 7.49397 13.9014C8.39096 13.1951 9.33041 12.5525 10.3123 11.9737C10.5352 11.8515 10.6732 11.6232 10.6786 11.3736C10.6998 11.039 10.721 10.6991 10.7476 10.3646C10.7688 10.1044 10.7953 9.84416 10.8325 9.58394C10.8962 9.16441 10.9652 8.73958 11.0501 8.32536C11.1669 7.72527 11.3261 7.1305 11.5278 6.55165C11.5596 6.41889 11.6976 6.33923 11.8303 6.37109C11.8409 6.37641 11.8515 6.3764 11.8622 6.38172C11.9577 6.41358 12.0585 6.44544 12.1541 6.4773C12.3345 6.53572 12.3982 6.65786 12.3345 6.83842C12.032 7.75713 11.8144 8.7024 11.6923 9.65829C11.6339 10.1097 11.5915 10.5611 11.5543 11.0125C11.5278 11.3948 11.5225 11.7825 11.5119 12.1648C11.5065 12.3826 11.5172 12.6056 11.5225 12.8233C11.5225 12.9455 11.5278 13.0623 11.5331 13.1845C11.5596 13.5827 11.5809 13.981 11.618 14.374C11.6445 14.6767 11.6817 14.9794 11.7295 15.2821C11.7985 15.7016 11.8887 16.1212 11.9736 16.5407C12.0214 16.7637 11.9312 16.9443 11.7189 17.0346C11.5649 17.0983 11.411 17.1567 11.2571 17.2204C11.0395 17.3107 10.79 17.3054 10.583 17.1992C9.80279 16.8381 9.04911 16.4345 8.31665 15.9831C6.95259 15.1175 5.72121 14.0979 4.70745 12.8287C4.19261 12.1808 3.75207 11.4851 3.43361 10.7204C3.354 10.5239 3.285 10.3221 3.216 10.1203C3.20008 10.0725 3.17354 10.03 3.12046 10.046C3.08862 10.0566 3.05677 10.0831 3.04616 10.115C2.9347 10.5929 2.871 11.0762 2.85508 11.5648C2.84447 11.9684 2.85508 12.3773 2.88162 12.7809C2.90285 13.1048 2.94531 13.4234 3.009 13.7421C3.13639 14.4377 3.34869 15.1175 3.64061 15.7601C3.8423 16.2008 4.07584 16.6257 4.34122 17.0293C4.37838 17.1089 4.4633 17.1514 4.54822 17.1408C4.62784 17.1302 4.69684 17.0717 4.71807 16.9921C4.74991 16.9231 4.78176 16.854 4.81891 16.785C5.15329 16.1796 5.59383 15.6538 6.08213 15.1653C6.1989 15.0538 6.38467 15.0431 6.51205 15.144C6.56513 15.1812 6.6129 15.2237 6.66067 15.2609C6.80397 15.3671 6.83582 15.5689 6.72966 15.7123C6.71905 15.7282 6.70313 15.7441 6.6872 15.7601C6.35282 16.0893 6.05029 16.4504 5.7849 16.8328C5.59383 17.1195 5.41868 17.4169 5.34437 17.7568C5.26475 18.1073 5.37091 18.3303 5.69467 18.479C5.93883 18.5852 6.1989 18.6437 6.46428 18.649C6.70313 18.6596 6.94197 18.6596 7.17551 18.6383C7.55235 18.6012 7.9345 18.5587 8.30604 18.4843C9.19241 18.3038 10.0682 18.0542 10.9121 17.7302C12.1169 17.2789 13.2899 16.7478 14.4258 16.1371C15.7739 15.4202 17.053 14.5917 18.2526 13.6518C18.3163 13.6093 18.3534 13.535 18.3534 13.4606C18.3693 13.1526 18.3959 12.8446 18.4065 12.5419C18.4171 12.2764 18.4171 12.0108 18.4224 11.7453C18.4224 11.6285 18.4171 11.5117 18.4118 11.3948C18.4012 11.1346 18.4012 10.8744 18.3853 10.6142C18.364 10.2956 18.3375 9.97692 18.3003 9.6636C18.2579 9.30249 18.2101 8.93606 18.1517 8.57495C18.0243 7.789 17.8227 7.01897 17.552 6.27019C17.3397 5.68073 17.0743 5.11782 16.7134 4.60801C16.4798 4.27345 16.2091 3.96544 15.8588 3.74771C15.4607 3.49812 15.0414 3.42908 14.5903 3.59902C14.3302 3.70523 14.0914 3.85923 13.8897 4.05572C13.5394 4.38497 13.2687 4.77795 13.0298 5.19747C12.9449 5.35148 12.9874 5.47362 13.1519 5.53735C14.6593 6.1215 16.0817 6.91276 17.3715 7.8899C17.5732 8.03859 17.7112 8.25632 17.759 8.5006C17.8014 8.71302 17.8386 8.92013 17.8651 9.13255C17.9076 9.47773 17.7271 9.75388 17.414 9.83354C16.448 10.0778 15.5032 10.3911 14.585 10.7682C13.7517 11.1081 12.9343 11.4904 12.1382 11.9099C11.9789 11.9896 11.8622 11.9153 11.8622 11.74C11.8675 11.6019 11.8781 11.4692 11.8781 11.3311C11.8781 11.1452 11.9577 11.0284 12.1329 10.9487C12.6424 10.7151 13.1413 10.4655 13.6508 10.2424C14.6752 9.78574 15.7314 9.4087 16.8142 9.11131C17 9.06883 17.1751 9.02634 17.3662 8.97855ZM11.9895 21.1608C12.377 21.1555 12.7645 21.129 13.1519 21.0759C13.2156 21.0759 13.2687 21.0334 13.2899 20.975C13.3058 20.9165 13.2793 20.8528 13.2315 20.821C12.8228 20.4758 12.5097 20.0562 12.239 19.5995C12.0426 19.2597 11.8675 18.9092 11.7189 18.5481C11.6658 18.4206 11.5755 18.3834 11.4482 18.4312C10.4663 18.8083 9.4578 19.111 8.42811 19.3234C8.00881 19.4084 7.5895 19.4668 7.15958 19.4933C7.09059 19.4986 7.03751 19.5146 7.01628 19.5836C6.99505 19.6526 7.03751 19.6951 7.09589 19.727C7.27105 19.8332 7.44089 19.9394 7.62135 20.0403C8.67226 20.6192 9.82933 20.9803 11.0182 21.1024C11.342 21.1343 11.6658 21.1396 11.9895 21.1608ZM11.8515 5.08595C12.0532 5.08595 12.1753 5.01161 12.2549 4.86822C12.446 4.51242 12.6742 4.17786 12.9237 3.86454C13.1148 3.62557 13.3271 3.41315 13.5659 3.22197C13.6137 3.19011 13.6349 3.13169 13.619 3.07328C13.6084 3.02017 13.5606 2.97769 13.5075 2.96707C13.4757 2.96176 13.4438 2.95645 13.412 2.95113C13.0458 2.91396 12.6848 2.87148 12.3186 2.85024C12.0585 2.83961 11.7985 2.83961 11.5384 2.86086C11.1881 2.88741 10.8431 2.91927 10.4981 2.96707C9.69133 3.09452 8.90049 3.33349 8.15742 3.67867C7.64789 3.91233 7.16489 4.19379 6.70843 4.51773C6.66597 4.54959 6.62882 4.58146 6.65005 4.63987C6.67128 4.69298 6.71905 4.69829 6.76682 4.68767C7.1702 4.61332 7.57358 4.57084 7.98227 4.56021C8.32727 4.5549 8.67226 4.56553 9.01726 4.58146C9.34103 4.6027 9.6648 4.63456 9.98856 4.67705C10.5299 4.75139 11.066 4.86291 11.5915 5.01161C11.6976 5.05409 11.7879 5.07533 11.8515 5.08595ZM14.8398 20.6245C14.9459 20.6085 15.0574 20.5979 15.1582 20.5714C15.4979 20.4864 15.7739 20.3005 16.0234 20.0669C16.4586 19.658 16.7717 19.1641 17.0371 18.633C17.0743 18.564 17.0477 18.4737 16.9787 18.4365C16.9522 18.4259 16.9257 18.4153 16.8991 18.4206C16.724 18.4259 16.5488 18.4419 16.3737 18.4419C16.0924 18.4419 15.8111 18.4365 15.5351 18.4153C15.2484 18.3994 14.9565 18.3781 14.6752 18.3303C14.2506 18.2666 13.8313 18.1869 13.412 18.102C13.1997 18.0595 12.9874 17.9958 12.7751 17.9427C12.6955 17.9161 12.6052 17.9374 12.5468 18.0011C12.4938 18.0648 12.4832 18.1551 12.5256 18.2241C12.6848 18.5374 12.8282 18.8614 12.998 19.1694C13.2209 19.5889 13.5288 19.9553 13.9056 20.2527C14.1763 20.4758 14.4788 20.6138 14.8398 20.6245ZM10.6573 12.7649C10.2964 12.9083 8.05658 14.4696 7.91327 14.6767C8.90049 15.3883 9.96202 15.9831 11.0819 16.461C10.8166 15.2449 10.6786 14.0076 10.6573 12.7649ZM16.1401 17.6028C16.3259 17.5975 16.5117 17.5922 16.6974 17.5816C16.8832 17.5709 17.0637 17.5391 17.2494 17.5284C17.4564 17.5178 17.5679 17.4116 17.6316 17.2204C17.8651 16.4982 18.0456 15.76 18.1677 15.0113C18.1783 14.9582 18.1783 14.9104 18.1305 14.8785C18.0827 14.852 18.0403 14.8732 17.9978 14.9051C17.8439 15.0166 17.69 15.1281 17.5307 15.2343C16.4586 15.9672 15.3387 16.631 14.1816 17.2204C14.1338 17.2417 14.0967 17.2735 14.102 17.3266C14.1073 17.3851 14.1551 17.4063 14.2081 17.4169C14.8451 17.5338 15.4926 17.5975 16.1401 17.6028ZM20.6729 14.3846C20.6622 14.2306 20.6569 14.0713 20.6304 13.9173C20.5879 13.673 20.5402 13.4341 20.4765 13.1951C20.434 13.0358 20.2536 12.9986 20.1315 13.1101C19.8714 13.3544 19.606 13.5987 19.3459 13.843C19.2504 13.9226 19.1867 14.0288 19.1549 14.151C19.1283 14.2678 19.1124 14.3899 19.0965 14.5121C19.0381 14.8679 18.9956 15.2237 18.9213 15.5742C18.8364 16.0043 18.725 16.4292 18.6241 16.854C18.5923 16.9496 18.6453 17.0558 18.7409 17.0877C18.7886 17.1036 18.8417 17.0983 18.8895 17.0717C18.9319 17.0505 18.9691 17.0293 19.0116 17.0133C19.4468 16.785 19.8289 16.4929 20.1209 16.0946C20.4871 15.6007 20.6835 15.0006 20.6729 14.3846ZM20.3279 8.75551C20.4499 8.76082 20.5136 8.67585 20.4765 8.55902C20.4712 8.53778 20.4606 8.51653 20.4499 8.49529C20.0678 7.57658 19.537 6.7269 18.8789 5.97812C18.6931 5.7657 18.4914 5.56921 18.295 5.37272C18.2685 5.35148 18.2313 5.34617 18.1942 5.35679C18.157 5.37272 18.1358 5.41521 18.1517 5.45238C18.1517 5.45769 18.1517 5.45769 18.157 5.463C18.173 5.49486 18.1836 5.53204 18.1942 5.5639C18.5498 6.44544 18.8099 7.36416 18.9744 8.30411C19.0063 8.53778 19.2079 8.71302 19.4468 8.7024C19.6007 8.7024 19.7599 8.70771 19.9139 8.71833C20.0519 8.72364 20.1899 8.73958 20.3279 8.75551ZM19.6591 9.54146C19.6273 9.54146 19.6007 9.54146 19.5689 9.54146C19.4999 9.53084 19.4362 9.56801 19.4096 9.63174C19.3778 9.70077 19.4096 9.75388 19.4521 9.80167C19.5583 9.92913 19.6697 10.0513 19.7653 10.184C19.9776 10.4708 20.1846 10.7629 20.3916 11.055C20.4765 11.1718 20.6304 11.1718 20.7047 11.0496C20.8162 10.8638 20.8958 10.6567 20.9436 10.4496C21.0232 10.0884 20.9064 9.86009 20.5773 9.71671C20.572 9.7114 20.5667 9.7114 20.5561 9.7114C20.2695 9.58394 19.9669 9.55208 19.6591 9.54146ZM19.2716 12.5313H19.261C19.261 12.5366 19.261 12.5472 19.261 12.5525C19.261 12.6003 19.2557 12.6481 19.3088 12.6693C19.3619 12.6906 19.399 12.664 19.4309 12.6269C19.5742 12.4782 19.7175 12.3348 19.8555 12.1861C19.9616 12.0746 19.9722 11.9949 19.8926 11.8675C19.7493 11.6338 19.6007 11.4108 19.4521 11.1824C19.4203 11.1346 19.3831 11.1081 19.33 11.124C19.2769 11.1399 19.2663 11.1877 19.2663 11.2408C19.2716 11.671 19.2716 12.1011 19.2716 12.5313ZM18.0456 18.8454C18.0668 18.8348 18.0827 18.8242 18.0986 18.8136C18.1464 18.7711 18.1995 18.7286 18.242 18.6808C18.3853 18.5428 18.5286 18.4047 18.6666 18.2613C18.6878 18.2347 18.6984 18.1976 18.6878 18.1604C18.6772 18.1126 18.6347 18.102 18.587 18.1073C18.5763 18.1073 18.571 18.1073 18.5604 18.1126C18.4436 18.1445 18.3269 18.1816 18.2101 18.2188C18.1836 18.2294 18.157 18.2454 18.1411 18.2719C18.0721 18.4259 18.0031 18.5746 17.9394 18.7339C17.9235 18.787 17.966 18.8454 18.0456 18.8454ZM21.1559 12.1436C21.1505 12.1171 21.1505 12.0905 21.1505 12.0639C21.1505 12.048 21.1399 12.0268 21.1293 12.0215C21.1134 12.0215 21.0975 12.0268 21.0815 12.0374C21.0072 12.0958 20.9966 12.202 21.055 12.2764C21.055 12.2817 21.0603 12.2817 21.0603 12.287C21.0869 12.3188 21.124 12.3135 21.1346 12.2711C21.1452 12.2286 21.1505 12.1914 21.1559 12.1436Z" fill="white"/>
</svg>
