<svg width="24" height="24" viewBox="0 0 24 24" fill="none" xmlns="http://www.w3.org/2000/svg">
<path fill-rule="evenodd" clip-rule="evenodd" d="M11.3693 6.97684C10.2405 7.38771 8.66024 8.32843 7.503 10.025C6.49828 9.07061 5.52026 8.23831 4.52821 7.50346L3.12169 6.38193C3.3488 5.49166 3.86106 4.44119 4.65192 3.59132C5.46512 2.71742 6.56083 2.06667 7.94046 2C8.8498 3.74353 10 5.40173 11.3693 6.97684ZM4.30094 8.34227C5.21848 9.03811 6.13102 9.82533 7.07396 10.7275C6.88844 11.0687 6.72053 11.4349 6.57531 11.8272C5.49597 10.9098 4.30946 10.041 3 9.25459C3.40762 8.98952 3.90238 8.65272 4.30094 8.34227ZM14.0568 9.71468C15.7401 11.2458 17.6461 12.6903 19.7519 14.051C18.4336 14.2607 17.2928 15.0852 16.4854 16.0332C15.9244 16.6917 15.5018 17.4333 15.275 18.123C15.2235 18.2797 15.1804 18.4392 15.1485 18.5983C13.2746 16.3031 11.6355 14.3626 10.12 12.7081C11.1821 10.9102 12.9776 10.0042 14.0568 9.71468ZM9.73626 13.4785C11.3914 15.2992 13.205 17.4698 15.3276 20.0884C15.3935 20.1698 15.4874 20.2215 15.5895 20.2325C16.0307 20.2805 16.4634 20.1533 16.8555 19.9501C17.2486 19.7466 17.6242 19.4545 17.9632 19.1362C18.6405 18.5003 19.2148 17.7189 19.5403 17.1889C19.6419 17.0234 19.6154 16.8068 19.4772 16.6727L18.8842 16.0977C18.725 15.9433 18.4747 15.9514 18.3251 16.1157C18.1756 16.2801 18.1834 16.5384 18.3426 16.6928L18.6916 17.0313C18.3828 17.4883 17.9348 18.0591 17.431 18.5321C17.1247 18.8196 16.8085 19.0609 16.5006 19.2204C16.2848 19.3322 16.0842 19.3981 15.9005 19.4189C15.8523 19.182 15.8769 18.8332 16.0241 18.3855C16.2132 17.8106 16.578 17.1611 17.0794 16.5724C18.0485 15.4348 19.4462 14.6095 20.9551 14.8633C20.9844 14.9698 21.002 15.1061 20.9998 15.2756C20.9967 15.5405 20.9456 15.8608 20.8424 16.2221C20.6357 16.9446 20.2317 17.7907 19.6546 18.6149C18.5399 20.2068 16.8304 21.6489 14.7676 22C13.4208 19.816 11.7238 17.1362 9.39973 14.5724C9.48272 14.1804 9.59709 13.8163 9.73626 13.4785ZM13.6878 8.97311C12.396 9.36444 10.4015 10.4495 9.28248 12.5732C9.01935 13.0725 8.80566 13.6278 8.66166 14.2422C8.48694 14.1185 8.26904 13.932 8.04625 13.7133C7.77857 13.4506 7.52414 13.1614 7.34949 12.9154C7.26133 12.7912 7.1895 12.6585 7.15772 12.5861C7.35179 11.9414 7.61124 11.3706 7.91226 10.8669C9.16558 8.76957 11.151 7.81971 12.1512 7.59055C12.1612 7.5929 12.1813 7.59857 12.2134 7.61231C12.2856 7.6431 12.3815 7.69855 12.4969 7.78053C12.7264 7.9435 12.9899 8.18027 13.229 8.43032C13.4149 8.62477 13.575 8.81559 13.6878 8.97311Z" fill="white"/>
</svg>
