<svg width="24" height="24" viewBox="0 0 24 24" fill="none" xmlns="http://www.w3.org/2000/svg">
<path d="M4.95749 7.02325C5.22466 6.75613 5.644 6.71674 5.95629 6.92953C7.13274 7.73141 13.0336 11.7637 13.6678 12.3978C14.5874 13.3175 14.5874 14.8139 13.6678 15.7336C13.2079 16.1934 12.6039 16.4233 11.9999 16.4233C11.3959 16.4233 10.7919 16.1934 10.332 15.7336C9.69787 15.0994 5.66566 9.19853 4.86374 8.02209C4.65102 7.70983 4.69037 7.29045 4.95749 7.02325ZM11.444 14.6216C11.7505 14.9282 12.2493 14.9282 12.5558 14.6216C12.8624 14.3151 12.8624 13.8164 12.556 13.5099C12.3096 13.2664 10.6342 12.0716 8.57296 10.6388C10.0057 12.7 11.2006 14.3753 11.444 14.6216Z" fill="white"/>
<path d="M18.438 17.7208L19.4087 18.1942C20.1189 16.9267 20.4913 15.512 20.4913 14.0638C20.4913 13.0028 20.2957 11.9865 19.9386 11.0493L18.8265 11.5827C18.7168 11.6353 18.601 11.6603 18.487 11.6603C18.194 11.6603 17.9127 11.4957 17.7775 11.2139C17.5897 10.8224 17.7548 10.3527 18.1464 10.1649L19.2445 9.63822C17.8797 7.41238 15.5183 5.86055 12.7862 5.60856V6.7911C12.7862 7.22534 12.4342 7.57734 12 7.57734C11.5657 7.57734 11.2137 7.22534 11.2137 6.7911V5.60797C10.277 5.69324 9.37062 5.93178 8.5102 6.32018C8.11453 6.49886 7.6488 6.32278 7.47013 5.9271C7.29146 5.53131 7.46746 5.06566 7.86325 4.88699C9.16706 4.29846 10.5589 4 12 4C14.6881 4 17.2154 5.04679 19.1162 6.9476C21.017 8.84844 22.0638 11.3757 22.0638 14.0638C22.0638 16.0503 21.4742 17.9822 20.3587 19.6506C20.2085 19.8753 19.9601 19.9999 19.7046 19.9999C19.5885 19.9999 19.4709 19.9742 19.3604 19.9203L17.7486 19.1341C17.3583 18.9437 17.1963 18.473 17.3867 18.0827C17.577 17.6925 18.0478 17.5305 18.438 17.7208Z" fill="white"/>
<path d="M2.82321 9.92782C3.00185 9.53207 3.46742 9.35595 3.86332 9.53471C4.25908 9.71338 4.43508 10.179 4.2564 10.5748C3.76021 11.6739 3.50865 12.848 3.50865 14.0645C3.50865 15.5149 3.88235 16.9319 4.59464 18.2008L5.60798 17.7183C5.99996 17.5316 6.46915 17.698 6.65588 18.0901C6.84257 18.4822 6.67609 18.9513 6.28403 19.138L4.63293 19.9243C4.52431 19.976 4.40917 20.0007 4.29532 20.0007C4.03979 20.0007 3.79134 19.8759 3.64129 19.6514C2.52578 17.9829 1.93618 16.051 1.93618 14.0645C1.93618 12.6234 2.23464 11.2316 2.82321 9.92782Z" fill="white"/>
</svg>
