<svg width="24" height="24" viewBox="0 0 24 24" fill="none" xmlns="http://www.w3.org/2000/svg">
<path d="M4.60098 19.399C3.95999 18.7581 3.95999 17.7188 4.60098 17.0778L17.0889 4.58986C17.7032 3.97558 18.423 3.47681 19.2138 3.11733C20.2739 2.63543 21.3645 3.72605 20.8827 4.78622C20.5232 5.57707 20.0244 6.29681 19.4101 6.91105L6.9222 19.399C6.28122 20.04 5.24196 20.04 4.60098 19.399Z" stroke="white" stroke-width="1.26563" stroke-miterlimit="10" stroke-linecap="round" stroke-linejoin="round"/>
<path d="M13.8785 7.72518L4.38772 3.37305L3 4.76077L9.92144 11.6822" stroke="white" stroke-width="1.26563" stroke-miterlimit="10" stroke-linecap="round" stroke-linejoin="round"/>
<path d="M5.19736 16.4838L3 14.2864L3.44664 13.8398C3.94519 13.3413 4.70142 13.2053 5.34263 13.4992L7.28903 14.3918" stroke="white" stroke-width="1.26563" stroke-miterlimit="10" stroke-linecap="round" stroke-linejoin="round"/>
<path d="M9.61023 16.7109L10.5028 18.6573C10.7967 19.2985 10.6607 20.0548 10.1622 20.5533L9.71554 21L7.51819 18.8026" stroke="white" stroke-width="1.26563" stroke-miterlimit="10" stroke-linecap="round" stroke-linejoin="round"/>
<path d="M12.3174 14.0801L19.2388 21.0015L20.6266 19.6138L16.2744 10.123" stroke="white" stroke-width="1.26563" stroke-miterlimit="10" stroke-linecap="round" stroke-linejoin="round"/>
<path d="M12.6639 5.75781L11.6963 6.72578" stroke="white" stroke-width="1.26563" stroke-miterlimit="10" stroke-linecap="round" stroke-linejoin="round"/>
<path d="M10.4233 4.63672L9.39221 5.66818" stroke="white" stroke-width="1.26563" stroke-miterlimit="10" stroke-linecap="round" stroke-linejoin="round"/>
<path d="M17.2749 12.3035L18.2429 11.3359" stroke="white" stroke-width="1.26563" stroke-miterlimit="10" stroke-linecap="round" stroke-linejoin="round"/>
<path d="M18.3318 14.6073L19.3632 13.5762" stroke="white" stroke-width="1.26563" stroke-miterlimit="10" stroke-linecap="round" stroke-linejoin="round"/>
</svg>
