<svg width="20" height="20" viewBox="0 0 20 20" fill="none" xmlns="http://www.w3.org/2000/svg">
<path d="M9.99992 11.1004C10.6099 11.1004 11.0999 10.6054 11.0999 10.0004C11.0999 9.39539 10.6099 8.90039 9.99992 8.90039C9.3949 8.90039 8.8999 9.39539 8.8999 10.0004C8.8999 10.6054 9.39495 11.1004 9.99992 11.1004Z" fill="white"/>
<path d="M9.99997 0C4.47501 0 0 4.47501 0 9.99997C0 15.52 4.47501 19.9999 9.99997 19.9999C15.5249 19.9999 19.9999 15.52 19.9999 9.99997C20 4.47501 15.525 0 9.99997 0ZM12.19 12.19L3.99998 16L7.80997 7.80997L16 3.99998L12.19 12.19Z" fill="white"/>
</svg>
