<svg width="24" height="24" viewBox="0 0 24 24" fill="none" xmlns="http://www.w3.org/2000/svg">
<path d="M19.0821 6C18.4154 6 17.7965 6.23043 17.4473 6.60923L13.6848 10.3333C13.5622 10.4561 13.612 10.6215 13.7961 10.7033C13.9453 10.7696 14.1427 10.7614 14.2787 10.6834L17.9822 8.54188C18.0437 8.50496 18.1385 8.50872 18.1939 8.54974C18.2191 8.56855 18.2324 8.59282 18.2324 8.61778V15.3228C18.2324 15.3781 18.1652 15.4226 18.0821 15.4226C18.0375 15.4226 17.9955 15.4096 17.9673 15.3867L6.7722 6.45265C6.4076 6.16581 5.87223 6.00034 5.30865 6H4.91738C3.85843 6 3 6.57231 3 7.27829V16.7217C3 17.4277 3.85843 18 4.91738 18C5.58403 18 6.20299 17.7696 6.5522 17.3908L10.3147 13.6667C10.4372 13.5439 10.3875 13.3785 10.2034 13.2967C10.0541 13.2304 9.85673 13.2386 9.72086 13.3166L6.01735 15.4581C5.95581 15.4951 5.86094 15.4913 5.80556 15.4502C5.78043 15.4314 5.7671 15.4072 5.76761 15.3822V8.67556C5.76761 8.62017 5.83479 8.57573 5.91786 8.57573C5.96197 8.57573 6.00453 8.58872 6.03273 8.61163L17.2263 17.5473C17.5908 17.8342 18.1262 17.9997 18.6898 18H19.0811C20.14 18.0004 20.999 17.4284 21 16.7224V7.27829C21 6.57231 20.141 6 19.0821 6Z" fill="white"/>
</svg>
