<svg width="24" height="24" viewBox="0 0 24 24" fill="none" xmlns="http://www.w3.org/2000/svg">
<path d="M21.6753 11.4729L19.1132 10.1973L13.48 13.0021C13.0243 13.229 12.5126 13.349 12 13.349C11.4874 13.349 10.9757 13.229 10.52 13.0021L4.88684 10.1973L2.32471 11.4729C2.12573 11.572 2 11.7751 2 11.9974C2 12.2198 2.12573 12.4229 2.32471 12.522L11.0424 16.8625C11.3422 17.012 11.671 17.0865 12 17.0865C12.3289 17.0865 12.6578 17.012 12.9576 16.8628L21.6753 12.522C21.8743 12.4229 22 12.2198 22 11.9974C22 11.7751 21.8743 11.572 21.6753 11.4729Z" fill="white"/>
<path d="M21.6753 16.3851L19.1132 15.1094L13.48 17.9143C13.0243 18.1412 12.5126 18.261 12 18.261C11.4874 18.261 10.9757 18.1412 10.52 17.9143L4.88684 15.1094L2.32471 16.3851C2.12573 16.4841 2 16.6874 2 16.9095C2 17.1318 2.12573 17.335 2.32471 17.4342L11.0424 21.7748C11.3422 21.9241 11.671 21.9988 12 21.9988C12.3289 21.9987 12.6578 21.9241 12.9576 21.7748L21.6753 17.4342C21.8743 17.335 22 17.1318 22 16.9095C22 16.6873 21.8743 16.4841 21.6753 16.3851Z" fill="white"/>
<path d="M2.32471 7.61374L11.0424 11.9544C11.3422 12.1036 11.671 12.1784 12 12.1784C12.329 12.1784 12.6578 12.1036 12.9576 11.9544L21.6753 7.61374C21.8743 7.51474 22 7.31149 22 7.08932C22 6.86691 21.8743 6.66367 21.6753 6.56467L12.9576 2.22385C12.3579 1.92538 11.6421 1.92538 11.0424 2.22385L2.32471 6.56467C2.12573 6.66367 2 6.86691 2 7.08932C2 7.31149 2.12573 7.51474 2.32471 7.61374Z" fill="white"/>
</svg>
