<svg width="24" height="24" viewBox="0 0 24 24" fill="none" xmlns="http://www.w3.org/2000/svg">
<path d="M19.2599 18.1678C19.6686 18.1678 20 17.8361 20 17.4208V2.74693C20 2.33445 19.6686 2 19.2599 2H6.63721C5.18191 2.00557 4.00276 3.19287 4 4.66165V19.3383C4 20.8071 5.18191 22 6.63721 22H19.2599C19.6686 22 20 21.6628 20 21.2531C20 20.8406 19.6686 20.5006 19.2599 20.5006H19.1439V18.1678H19.2599ZM15.6645 6.99211H8.33552C7.92682 6.99211 7.59544 6.66045 7.59544 6.24517C7.59544 5.83826 7.92682 5.49824 8.33552 5.49824H15.6645C16.0732 5.49824 16.4046 5.83547 16.4046 6.24517C16.4046 6.66045 16.0732 6.99211 15.6645 6.99211ZM17.6638 20.5033H6.63721C5.99931 20.5033 5.48015 19.9849 5.48015 19.3383C5.48015 18.6917 5.99931 18.1678 6.63721 18.1678H17.6638V20.5033Z" fill="white"/>
</svg>
