<svg width="24" height="24" viewBox="0 0 24 24" fill="none" xmlns="http://www.w3.org/2000/svg">
<path d="M15.5 6H13V4C13 3.73478 12.8946 3.48043 12.7071 3.29289C12.5196 3.10536 12.2652 3 12 3C11.7348 3 11.4804 3.10536 11.2929 3.29289C11.1054 3.48043 11 3.73478 11 4V6H8.5C6.51088 6 4.60322 6.79018 3.1967 8.1967C1.79018 9.60322 1 11.5109 1 13.5C1 15.4891 1.79018 17.3968 3.1967 18.8033C4.60322 20.2098 6.51088 21 8.5 21H15.5C17.4891 21 19.3968 20.2098 20.8033 18.8033C22.2098 17.3968 23 15.4891 23 13.5C23 11.5109 22.2098 9.60322 20.8033 8.1967C19.3968 6.79018 17.4891 6 15.5 6ZM15.5 19H8.5C7.04131 19 5.64236 18.4205 4.61091 17.3891C3.57946 16.3576 3 14.9587 3 13.5C3 12.0413 3.57946 10.6424 4.61091 9.61091C5.64236 8.57946 7.04131 8 8.5 8H15.5C16.9587 8 18.3576 8.57946 19.3891 9.61091C20.4205 10.6424 21 12.0413 21 13.5C21 14.9587 20.4205 16.3576 19.3891 17.3891C18.3576 18.4205 16.9587 19 15.5 19Z" fill="white"/>
<path d="M10 12.5H9V11.5C9 11.2348 8.89464 10.9804 8.70711 10.7929C8.51957 10.6054 8.26522 10.5 8 10.5C7.73478 10.5 7.48043 10.6054 7.29289 10.7929C7.10536 10.9804 7 11.2348 7 11.5V12.5H6C5.73478 12.5 5.48043 12.6054 5.29289 12.7929C5.10536 12.9804 5 13.2348 5 13.5C5 13.7652 5.10536 14.0196 5.29289 14.2071C5.48043 14.3946 5.73478 14.5 6 14.5H7V15.5C7 15.7652 7.10536 16.0196 7.29289 16.2071C7.48043 16.3946 7.73478 16.5 8 16.5C8.26522 16.5 8.51957 16.3946 8.70711 16.2071C8.89464 16.0196 9 15.7652 9 15.5V14.5H10C10.2652 14.5 10.5196 14.3946 10.7071 14.2071C10.8946 14.0196 11 13.7652 11 13.5C11 13.2348 10.8946 12.9804 10.7071 12.7929C10.5196 12.6054 10.2652 12.5 10 12.5Z" fill="white"/>
<path d="M18 13C18.5523 13 19 12.5523 19 12C19 11.4477 18.5523 11 18 11C17.4477 11 17 11.4477 17 12C17 12.5523 17.4477 13 18 13Z" fill="white"/>
<path d="M16 16C16.5523 16 17 15.5523 17 15C17 14.4477 16.5523 14 16 14C15.4477 14 15 14.4477 15 15C15 15.5523 15.4477 16 16 16Z" fill="white"/>
</svg>
