<svg width="24" height="24" viewBox="0 0 24 24" fill="none" xmlns="http://www.w3.org/2000/svg">
<path d="M7.00025 11.4256C6.99936 11.6502 7.0774 11.868 7.22075 12.0409C7.36409 12.2139 7.56363 12.331 7.78452 12.3718C8.00541 12.4126 8.23362 12.3745 8.42929 12.2642C8.62496 12.1539 8.77567 11.9783 8.8551 11.7682C8.87087 11.6844 8.89356 11.5998 8.91009 11.5152C8.30079 11.4123 7.72001 11.1822 7.20562 10.8398C7.0738 11.0067 7.00152 11.2129 7.00025 11.4256Z" fill="white"/>
<path d="M2.04419 10.2099C2.13149 10.3302 2.9022 11.3151 4.76204 11.559C4.62421 11.2163 4.44728 10.8907 4.23478 10.5887C4.02983 10.3137 3.915 9.98202 3.90604 9.63918C3.89709 9.29634 3.99446 8.95913 4.18478 8.67383C3.33807 8.82163 2.57555 9.27635 2.04304 9.95103C2.01521 9.98849 2.00028 10.034 2.00049 10.0806C2.0007 10.1273 2.01603 10.1726 2.04419 10.2099Z" fill="white"/>
<path d="M16.038 12.387C16.2179 12.3882 16.3945 12.3385 16.5475 12.2437C16.7005 12.1489 16.8235 12.0129 16.9025 11.8512C16.9815 11.6895 17.0133 11.5088 16.9941 11.3299C16.9749 11.151 16.9056 10.9811 16.7941 10.8398C16.2797 11.1822 15.6989 11.4123 15.0896 11.5152C15.1073 11.5998 15.1281 11.684 15.1446 11.7682C15.2133 11.9497 15.3355 12.1061 15.4951 12.2166C15.6546 12.3271 15.8439 12.3865 16.038 12.387Z" fill="white"/>
<path d="M7.76953 18.5401C7.76953 19.6004 8.45947 20.463 9.30787 20.463C9.55676 20.4623 9.79998 20.3886 10.0074 20.2511C10.6081 19.8866 11.2973 19.6939 12 19.6939C12.7026 19.6939 13.3918 19.8866 13.9925 20.2511C14.1999 20.3886 14.4431 20.4623 14.692 20.463C15.5404 20.463 16.2304 19.6004 16.2304 18.5401C16.2304 17.4798 15.5404 16.6172 14.692 16.6172C14.4431 16.6179 14.1999 16.6916 13.9925 16.8291C13.3918 17.1936 12.7026 17.3864 12 17.3864C11.2973 17.3864 10.6081 17.1936 10.0074 16.8291C9.79998 16.6916 9.55676 16.6179 9.30787 16.6172C8.45947 16.6172 7.76953 17.4798 7.76953 18.5401ZM14.3075 18.5401C14.3075 18.4381 14.348 18.3403 14.4201 18.2682C14.4922 18.196 14.59 18.1555 14.692 18.1555C14.794 18.1555 14.8919 18.196 14.964 18.2682C15.0361 18.3403 15.0766 18.4381 15.0766 18.5401V18.9247C15.0766 19.0267 15.0361 19.1245 14.964 19.1966C14.8919 19.2688 14.794 19.3093 14.692 19.3093C14.59 19.3093 14.4922 19.2688 14.4201 19.1966C14.348 19.1245 14.3075 19.0267 14.3075 18.9247V18.5401ZM8.92328 18.5401C8.92328 18.4381 8.9638 18.3403 9.03592 18.2682C9.10805 18.196 9.20587 18.1555 9.30787 18.1555C9.40986 18.1555 9.50768 18.196 9.57981 18.2682C9.65193 18.3403 9.69245 18.4381 9.69245 18.5401V18.9247C9.69245 19.0267 9.65193 19.1245 9.57981 19.1966C9.50768 19.2688 9.40986 19.3093 9.30787 19.3093C9.20587 19.3093 9.10805 19.2688 9.03592 19.1966C8.9638 19.1245 8.92328 19.0267 8.92328 18.9247V18.5401Z" fill="white"/>
<path d="M5.69537 11.8842C6.06072 13.0529 6.23109 14.5586 6.23109 16.6176C6.21615 16.999 6.27706 17.3796 6.41028 17.7372C6.5435 18.0949 6.74639 18.4226 7.00718 18.7013C7.00449 18.6478 7.00026 18.5948 7.00026 18.5405C6.98287 18.0253 7.11255 17.5157 7.37415 17.0715C7.63574 16.6272 8.01843 16.2666 8.47744 16.0319C8.46626 15.0207 8.52447 14.01 8.65166 13.0068C8.43458 13.104 8.1996 13.155 7.96172 13.1564C7.63485 13.157 7.3145 13.0649 7.03791 12.8907C6.76131 12.7165 6.53982 12.4674 6.39918 12.1724C6.25853 11.8773 6.2045 11.5484 6.24337 11.2238C6.28224 10.8993 6.41241 10.5924 6.61875 10.3389C6.48369 10.1969 6.36737 10.0382 6.27263 9.86663C6.22673 9.7755 6.21891 9.66986 6.2509 9.57296C6.28288 9.47607 6.35205 9.39584 6.44319 9.34994C6.53432 9.30405 6.63996 9.29623 6.73686 9.32822C6.83375 9.3602 6.91398 9.42937 6.95988 9.52051C6.98526 9.56896 7.48829 10.4843 9.09047 10.7658C9.16739 10.4797 9.2443 10.2074 9.32891 9.95816C9.36114 9.86127 9.43055 9.78114 9.52185 9.73541C9.61316 9.68969 9.7189 9.68211 9.81579 9.71434C9.91269 9.74657 9.99282 9.81597 10.0385 9.90728C10.0843 9.99859 10.0919 10.1043 10.0596 10.2012C9.95078 10.5289 9.84887 10.8842 9.74926 11.2877C9.69311 11.5111 9.64465 11.7376 9.60427 11.9603C9.60083 11.9782 9.59634 11.996 9.59081 12.0134C9.35553 13.2793 9.24054 14.5647 9.24738 15.8523C9.26853 15.8523 9.2893 15.8484 9.31045 15.8484C9.70737 15.85 10.0954 15.9663 10.4277 16.1834C10.9038 16.4676 11.448 16.6176 12.0025 16.6176C12.5571 16.6176 13.1012 16.4676 13.5774 16.1834C13.9089 15.9668 14.2959 15.8505 14.6919 15.8484C14.7131 15.8484 14.7339 15.8515 14.755 15.8523C14.7618 14.5647 14.6468 13.2793 14.4116 12.0134C14.406 11.996 14.4016 11.9782 14.3981 11.9603C14.3596 11.7376 14.3093 11.5111 14.2535 11.2888C14.1535 10.8842 14.0516 10.5289 13.9428 10.2012C13.9268 10.1532 13.9204 10.1026 13.9241 10.0522C13.9277 10.0017 13.9412 9.95249 13.9638 9.90728C13.9865 9.86207 14.0178 9.82176 14.056 9.78865C14.0942 9.75555 14.1386 9.7303 14.1866 9.71434C14.2346 9.69838 14.2852 9.69202 14.3357 9.69564C14.3861 9.69926 14.4353 9.71277 14.4805 9.73541C14.5257 9.75805 14.566 9.78938 14.5992 9.8276C14.6323 9.86582 14.6575 9.91018 14.6735 9.95816C14.7573 10.2078 14.8354 10.4797 14.9119 10.7658C16.5206 10.4831 17.021 9.56127 17.0429 9.51974C17.0896 9.42946 17.1702 9.36135 17.2669 9.33029C17.3637 9.29923 17.4689 9.30775 17.5594 9.35398C17.6494 9.39988 17.7177 9.47935 17.7496 9.5752C17.7814 9.67105 17.7743 9.7756 17.7298 9.86625C17.635 10.0378 17.5187 10.1965 17.3836 10.3385C17.6303 10.6384 17.7685 11.0128 17.7757 11.401C17.7829 11.7892 17.6588 12.1685 17.4235 12.4773C17.1881 12.7862 16.8554 13.0065 16.4791 13.1025C16.1029 13.1985 15.7053 13.1647 15.3507 13.0064C15.4779 14.0096 15.5361 15.0203 15.5249 16.0315C15.9835 16.2666 16.3657 16.6274 16.6268 17.0718C16.8879 17.5161 17.0171 18.0255 16.9994 18.5405C16.9994 18.5948 16.9952 18.6478 16.9925 18.7013C17.2533 18.4226 17.4562 18.0949 17.5894 17.7372C17.7226 17.3796 17.7835 16.999 17.7686 16.6176C17.7686 14.5586 17.939 13.0529 18.307 11.8807C18.4871 11.2581 18.7694 10.6698 19.1423 10.1397C19.2572 9.98876 19.3215 9.80548 19.3262 9.61588C19.3309 9.42629 19.2757 9.24004 19.1685 9.08362C19.1662 9.08016 18.9577 8.78864 18.6378 8.42137C18.3498 8.08047 18.0333 7.76474 17.6917 7.4776C17.4768 7.30479 17.3031 7.08621 17.1833 6.83778C17.0636 6.58935 17.0008 6.31734 16.9994 6.04156V5.46469C17.0013 5.43265 16.9957 5.40061 16.9831 5.37109C16.9706 5.34156 16.9513 5.31535 16.9269 5.29449C16.9025 5.27364 16.8736 5.25871 16.8425 5.25087C16.8114 5.24303 16.7789 5.2425 16.7475 5.24932C16.6552 5.26855 16.5483 5.28778 16.4376 5.30855C15.6954 5.43767 14.9324 5.36977 14.2247 5.11164L14.1712 5.09241C13.4832 4.80952 12.7434 4.6743 11.9998 4.69552C11.2563 4.6743 10.5165 4.80952 9.82849 5.09241L9.77541 5.11164C9.06758 5.37035 8.30413 5.43826 7.56175 5.30855C7.45137 5.28855 7.34446 5.27009 7.2487 5.24894C7.21851 5.24282 7.18734 5.24351 7.15745 5.25095C7.12756 5.2584 7.09971 5.27241 7.07592 5.29197C7.05212 5.31152 7.03299 5.33614 7.0199 5.36402C7.00681 5.3919 7.0001 5.42235 7.00026 5.45315V6.04156C6.99885 6.31727 6.93598 6.5892 6.81623 6.83755C6.69648 7.0859 6.52286 7.30442 6.30801 7.47721C5.96681 7.76398 5.65069 8.07933 5.36309 8.41983C5.04196 8.78864 4.83351 9.08016 4.83159 9.08324C4.72408 9.23995 4.6688 9.42661 4.67363 9.61659C4.67847 9.80658 4.74317 9.99018 4.85851 10.1412C5.23204 10.6719 5.51484 11.2609 5.69537 11.8842Z" fill="white"/>
<path d="M19.2378 11.559C21.0976 11.3151 21.8683 10.3283 21.9568 10.2079C21.9848 10.1706 21.9999 10.1252 21.9999 10.0785C21.9999 10.0319 21.9848 9.98645 21.9568 9.94911C21.4244 9.27544 20.6625 8.82146 19.8166 8.67383C20.0066 8.95892 20.1039 9.29577 20.0951 9.63828C20.0863 9.98078 19.9718 10.3122 19.7674 10.5871C19.5538 10.8895 19.3761 11.2156 19.2378 11.559Z" fill="white"/>
<path d="M10.7346 22.7704H13.2652C13.7358 22.7715 14.1923 22.6101 14.5577 22.3136C14.9231 22.0171 15.175 21.6036 15.2708 21.1428C15.0833 21.2009 14.8883 21.231 14.692 21.2321C14.2951 21.2305 13.9071 21.1142 13.5748 20.8971C13.0986 20.6129 12.5544 20.4629 11.9999 20.4629C11.4454 20.4629 10.9012 20.6129 10.425 20.8971C10.0927 21.1142 9.70475 21.2305 9.30783 21.2321C9.1122 21.2308 8.91782 21.2008 8.73096 21.1428C8.82671 21.6032 9.0783 22.0165 9.4433 22.313C9.80831 22.6095 10.2644 22.771 10.7346 22.7704Z" fill="white"/>
<path d="M19.2457 1.35645C19.8029 1.96861 20.2342 2.68447 20.5149 3.46319C20.61 3.73337 20.6383 4.02255 20.5973 4.30603C20.5564 4.58951 20.4475 4.85888 20.2799 5.09114C20.1131 5.32536 19.8927 5.51634 19.6372 5.64819C19.3817 5.78004 19.0983 5.84894 18.8108 5.84915H17.7686V6.04144C17.7701 6.20317 17.8076 6.36254 17.8783 6.50801C17.949 6.65347 18.0511 6.7814 18.1774 6.88253C18.5121 7.16228 18.8241 7.46822 19.1104 7.79745C19.4243 7.82037 19.736 7.86691 20.043 7.93667C20.6184 7.71239 21.1129 7.31982 21.4619 6.8102C21.8108 6.30059 21.998 5.69761 21.999 5.07998C21.9876 4.24924 21.7157 3.44303 21.2218 2.77499C20.7278 2.10695 20.0367 1.61079 19.2457 1.35645Z" fill="white"/>
<path d="M3.95673 7.93667C4.26353 7.86694 4.57516 7.8204 4.88896 7.79745C5.17576 7.46837 5.48798 7.16232 5.82272 6.88214C5.94887 6.78105 6.05095 6.65318 6.12159 6.50778C6.19223 6.36238 6.22965 6.20309 6.23115 6.04144V5.84915H5.18893C4.90164 5.84869 4.61861 5.77968 4.36336 5.64784C4.10811 5.516 3.88802 5.32515 3.72136 5.09114C3.55362 4.85864 3.44469 4.58897 3.40391 4.30519C3.36312 4.02142 3.39168 3.73199 3.48715 3.46166C3.76706 2.68353 4.19753 1.96817 4.75397 1.35645C3.96304 1.61079 3.27188 2.10695 2.77792 2.77499C2.28397 3.44303 2.01213 4.24924 2.00073 5.07998C2.00167 5.69762 2.18884 6.30062 2.53778 6.81025C2.88672 7.31987 3.38123 7.71243 3.95673 7.93667Z" fill="white"/>
</svg>
