<svg width="24" height="24" viewBox="0 0 24 24" fill="none" xmlns="http://www.w3.org/2000/svg">
<path fill-rule="evenodd" clip-rule="evenodd" d="M3 11.9552C3 16.9501 7.05 21 12 21C16.95 21 20.955 16.9951 21 12.0902C21 7.05029 16.995 3.04537 12.045 3.00037C7.05 2.95537 3.045 7.00529 3 11.9552ZM12.5847 12.3561L12.8547 10.9161L15.2397 11.2761L15.4197 10.6011L12.9447 10.2411C13.092 9.77805 13.2197 9.31497 13.3461 8.8565C13.4899 8.33484 13.632 7.81914 13.7997 7.31618C13.9347 7.00119 14.1597 6.6862 14.3847 6.4612C14.6997 6.14621 15.1047 6.19121 15.3747 6.5512C15.4422 6.6187 15.4984 6.6862 15.5547 6.7537C15.6109 6.8212 15.6672 6.88869 15.7347 6.95619C15.9147 7.13619 16.1397 7.18119 16.3197 7.04619C16.4547 6.91119 16.4547 6.6862 16.4547 6.5062C16.4547 6.4162 16.3647 6.3262 16.3197 6.28121C16.0497 5.96621 15.6447 5.83121 15.2397 5.83121C14.2947 5.78622 13.6647 6.23621 13.1247 6.95619C12.5847 7.67618 12.3597 8.48616 12.1347 9.29614C12.0823 9.42722 12.0451 9.5583 12.0054 9.69827C11.977 9.79857 11.9473 9.90343 11.9097 10.0161L9.25469 9.65614L9.16469 10.3761L11.7297 10.7811L11.4147 12.1761L8.93969 11.8161L8.84969 12.4911L11.2347 12.8511V13.0311C11.0474 13.9302 10.8288 14.7982 10.6051 15.6869C10.5601 15.8656 10.5149 16.0452 10.4697 16.226C10.3347 16.721 10.1097 17.216 9.70469 17.576C9.34469 17.846 8.98469 17.801 8.71469 17.441C8.62469 17.261 8.48969 17.081 8.35469 16.946C8.21969 16.901 7.99469 16.856 7.90469 16.901C7.76969 16.991 7.67969 17.216 7.67969 17.396C7.67969 17.531 7.81469 17.711 7.94969 17.801C8.35469 18.116 8.89469 18.161 9.38969 18.071C10.2447 17.936 10.8747 17.396 11.2347 16.631C11.5047 16.046 11.7297 15.416 11.9547 14.786C12.0916 14.4575 12.1785 14.0957 12.2661 13.7309C12.3225 13.4961 12.3792 13.2601 12.4497 13.0311L14.9697 13.3911L15.1497 12.7161L12.5847 12.3561Z" fill="white"/>
</svg>
