<svg width="24" height="24" viewBox="0 0 24 24" fill="none" xmlns="http://www.w3.org/2000/svg">
<path fill-rule="evenodd" clip-rule="evenodd" d="M12.6087 8.4676V10.1651C12.6087 10.2523 12.6528 10.3271 12.7274 10.3665C12.8021 10.4059 12.8859 10.3988 12.9534 10.3471L17.8006 6.63895C17.8561 6.59651 17.8867 6.5358 17.889 6.46407C17.8912 6.39239 17.8643 6.3297 17.8115 6.28369L12.9642 2.05338C12.8982 1.9958 12.8116 1.98397 12.7336 2.02194C12.6556 2.05991 12.6087 2.13675 12.6087 2.22654V3.80342C5.05139 3.80342 2.57272 9.59682 4.76834 13.7168C5.98291 8.78524 9.94865 8.4676 12.6087 8.4676ZM11.3913 15.5324C14.0514 15.5324 18.0171 15.2147 19.2317 10.2832C21.4273 14.4032 18.9486 20.1965 11.3913 20.1965V21.7734C11.3913 21.8632 11.3444 21.9401 11.2664 21.978C11.1884 22.016 11.1018 22.0042 11.0358 21.9466L6.18848 17.7163C6.13574 17.6703 6.10885 17.6076 6.11104 17.5359C6.11326 17.4642 6.1439 17.4035 6.19941 17.361L11.0467 13.6529C11.1142 13.6012 11.198 13.5941 11.2726 13.6335C11.3473 13.6729 11.3913 13.7476 11.3913 13.8349V15.5324Z" fill="white"/>
</svg>
