<svg width="24" height="24" viewBox="0 0 24 24" fill="none" xmlns="http://www.w3.org/2000/svg">
<mask id="mask0_40585_929" style="mask-type:luminance" maskUnits="userSpaceOnUse" x="0" y="0" width="24" height="24">
<path d="M0.670412 0.666018H23.3306V23.3262H0.670412V0.666018Z" fill="white"/>
</mask>
<g mask="url(#mask0_40585_929)">
<path d="M18.9396 15.7737L19.0193 17.5011C19.0392 17.9291 18.6975 18.2871 18.2691 18.2871H17.2303C16.7302 18.2871 16.37 17.8074 16.5089 17.3272L16.6545 16.8235C16.786 16.3698 16.4518 15.9131 15.9796 15.9038C14.5173 15.8746 13.1741 15.7086 12.1792 15.4493C11.3237 15.2258 10.4965 14.927 9.70425 14.561L9.77595 17.5175C9.78613 17.9392 9.44711 18.2871 9.02533 18.2871H7.85824C7.39353 18.2871 7.04035 17.8693 7.11736 17.4112L7.40106 15.7281C7.61925 14.4309 7.13949 13.1191 6.14811 12.2538C5.00094 11.2532 1.3346 8.67071 1.3346 8.67071C1.3346 8.67071 1.42754 5.17564 4.20341 5.78021C6.80977 6.34804 5.92151 8.2029 7.75601 10.314C10.4628 12.1852 12.8284 13.1877 16.1186 13.1877H20.6865L22.667 14.2552C21.5468 14.6752 20.2545 15.6281 18.9396 15.7737Z" stroke="white" stroke-width="1.40625" stroke-miterlimit="10" stroke-linejoin="round"/>
<path d="M20.6862 13.1855H16.1183C12.8282 13.1855 10.4626 12.1831 7.75574 10.3119C7.75574 10.3119 7.92126 9.28419 8.77943 8.25608C9.63715 7.22796 11.188 6.20029 13.959 6.20029C19.5005 6.20029 20.6862 13.1855 20.6862 13.1855Z" stroke="white" stroke-width="1.40625" stroke-miterlimit="10" stroke-linejoin="round"/>
<path d="M4.203 8.58594C4.55025 8.58594 4.88294 8.2806 4.86687 7.92207C4.85076 7.56238 4.57517 7.25819 4.203 7.25819C3.85575 7.25819 3.52306 7.56353 3.53913 7.92207C3.55524 8.28175 3.83083 8.58594 4.203 8.58594Z" fill="white"/>
<path d="M17.1089 7.12471L16.6634 9.42839L14.2823 9.85938L12.1436 8.55451L12.5807 6.29412" stroke="white" stroke-width="1.40625" stroke-miterlimit="10" stroke-linejoin="round"/>
<path d="M12.1433 8.55641L9.87696 11.625" stroke="white" stroke-width="1.40625" stroke-miterlimit="10" stroke-linejoin="round"/>
<path d="M14.2819 9.85879L13.9292 13.0195" stroke="white" stroke-width="1.40625" stroke-miterlimit="10" stroke-linejoin="round"/>
<path d="M16.6631 9.43043L17.8908 13.1875" stroke="white" stroke-width="1.40625" stroke-miterlimit="10" stroke-linejoin="round"/>
</g>
</svg>
