<svg width="24" height="24" viewBox="0 0 24 24" fill="none" xmlns="http://www.w3.org/2000/svg">
<path d="M6.66696 4.63372V20.5575C6.66696 21.3529 7.31411 22 8.10951 22H8.17114L8.17118 21.9999C8.96646 21.9999 9.61349 21.3529 9.61349 20.5576V18.1606H20.176V4.95823C20.176 3.32705 18.8489 2 17.2177 2H4.04565L4.04577 2.00031C5.49225 2.00711 6.66696 3.18567 6.66696 4.63372ZM14.2629 5.91084V7.08933H9.47835V5.91084H14.2629ZM17.5913 15.9213H9.47835V14.7428H17.5913V15.9213ZM17.5913 12.9615H9.47835V11.783H17.5913V12.9615ZM17.5913 10.0017H9.47835V8.8232H17.5913V10.0017Z" fill="white"/>
<path d="M5.48847 5.83954V4.63394C5.48847 3.83151 4.83567 3.17871 4.03328 3.17871H3.99698C3.19455 3.17871 2.54175 3.83151 2.54175 4.63394V5.83954H5.48847Z" fill="white"/>
<path d="M21.4584 20.5573V20.5573V19.339V19.3389H10.7919V20.5574C10.7919 21.0899 10.6323 21.5857 10.3584 21.9997H20.0156C20.8111 21.9997 21.4584 21.3526 21.4584 20.5573Z" fill="white"/>
</svg>
