<svg width="24" height="24" viewBox="0 0 24 24" fill="none" xmlns="http://www.w3.org/2000/svg">
<path d="M19.0425 7.02325C18.7753 6.75613 18.356 6.71674 18.0437 6.92953C16.8673 7.73141 10.9664 11.7637 10.3322 12.3978C9.41256 13.3175 9.41256 14.8139 10.3322 15.7336C10.7921 16.1934 11.3961 16.4233 12.0001 16.4233C12.6041 16.4233 13.2081 16.1934 13.668 15.7336C14.3021 15.0994 18.3343 9.19853 19.1363 8.02209C19.349 7.70983 19.3096 7.29045 19.0425 7.02325ZM12.556 14.6216C12.2495 14.9282 11.7507 14.9282 11.4442 14.6216C11.1376 14.3151 11.1376 13.8164 11.444 13.5099C11.6904 13.2664 13.3658 12.0716 15.427 10.6388C13.9943 12.7 12.7994 14.3753 12.556 14.6216Z" fill="white"/>
<path d="M5.56195 17.7208L4.59134 18.1942C3.88113 16.9267 3.50865 15.512 3.50865 14.0638C3.50865 13.0028 3.70431 11.9865 4.06138 11.0493L5.17355 11.5827C5.28323 11.6353 5.399 11.6603 5.51304 11.6603C5.80604 11.6603 6.08731 11.4957 6.2225 11.2139C6.41026 10.8224 6.24515 10.3527 5.8536 10.1649L4.75554 9.63822C6.12033 7.41238 8.48168 5.86055 11.2138 5.60856V6.7911C11.2138 7.22534 11.5658 7.57734 12 7.57734C12.4343 7.57734 12.7863 7.22534 12.7863 6.7911V5.60797C13.723 5.69324 14.6294 5.93178 15.4898 6.32018C15.8855 6.49886 16.3512 6.32278 16.5299 5.9271C16.7085 5.53131 16.5325 5.06566 16.1367 4.88699C14.8329 4.29846 13.4411 4 12 4C9.31186 4 6.78462 5.04679 4.88378 6.9476C2.98301 8.84844 1.93618 11.3757 1.93618 14.0638C1.93618 16.0503 2.52578 17.9822 3.64125 19.6506C3.7915 19.8753 4.03991 19.9999 4.29536 19.9999C4.41149 19.9999 4.52911 19.9742 4.63961 19.9203L6.2514 19.1341C6.64169 18.9437 6.80373 18.473 6.61334 18.0827C6.42296 17.6925 5.95224 17.5305 5.56195 17.7208Z" fill="white"/>
<path d="M21.1768 9.92782C20.9982 9.53207 20.5326 9.35595 20.1367 9.53471C19.7409 9.71338 19.5649 10.179 19.7436 10.5748C20.2398 11.6739 20.4913 12.848 20.4913 14.0645C20.4913 15.5149 20.1176 16.9319 19.4054 18.2008L18.392 17.7183C18 17.5316 17.5308 17.698 17.3441 18.0901C17.1574 18.4822 17.3239 18.9513 17.716 19.138L19.3671 19.9243C19.4757 19.976 19.5908 20.0007 19.7047 20.0007C19.9602 20.0007 20.2087 19.8759 20.3587 19.6514C21.4742 17.9829 22.0638 16.051 22.0638 14.0645C22.0638 12.6234 21.7654 11.2316 21.1768 9.92782Z" fill="white"/>
</svg>
