<svg xmlns="http://www.w3.org/2000/svg" width="18" height="18" viewBox="0 0 18 18" fill="none">
  <g clip-path="url(#clip0_36556_4013)">
    <path d="M17.25 3H3H2.25C1.83675 3 1.5 2.66325 1.5 2.25C1.5 1.83675 1.83675 1.5 2.25 1.5H13.5V2.25H15V0.75C15 0.336 14.664 0 14.25 0H2.25C1.00725 0 0 1.00725 0 2.25V15C0 16.6567 1.34325 18 3 18H17.25C17.664 18 18 17.664 18 17.25V3.75C18 3.336 17.664 3 17.25 3ZM13.5 12C12.6713 12 12 11.3287 12 10.5C12 9.67125 12.6713 9 13.5 9C14.3287 9 15 9.67125 15 10.5C15 11.3287 14.3287 12 13.5 12Z" fill="white"/>
  </g>
  <defs>
    <clipPath id="clip0_36556_4013">
      <rect width="18" height="18" fill="white"/>
    </clipPath>
  </defs>
</svg>