<svg width="24" height="24" viewBox="0 0 24 24" fill="none" xmlns="http://www.w3.org/2000/svg">
<path d="M5.02601 11.999L5.03717 16.0932L8.516 18.1403V20.5372L3.00124 17.3028V10.8017L5.02601 11.999ZM5.02601 7.90478V10.2906L3 9.0921V6.7063L5.02601 5.50781L7.06194 6.7063L5.02601 7.90478ZM9.96882 6.7063L11.9948 5.50781L14.0308 6.7063L11.9948 7.90478L9.96882 6.7063Z" fill="white"/>
<path d="M6.49023 15.2446V12.8476L8.51624 14.0461V16.4319L6.49023 15.2446ZM9.96906 18.9988L11.9951 20.1973L14.031 18.9988V21.3846L11.9951 22.5831L9.96906 21.3846V18.9988ZM16.9366 6.7063L18.9626 5.50781L20.9986 6.7063V9.0921L18.9626 10.2906V7.90478L16.9366 6.7063ZM18.9626 16.0932L18.9738 11.999L20.9998 10.8005V17.3016L15.4851 20.536V18.139L18.9626 16.0932Z" fill="white"/>
<path d="M17.5099 15.2456L15.4839 16.4329V14.0471L17.5099 12.8486V15.2456Z" fill="white"/>
<path d="M17.5098 8.75358L17.521 11.1505L14.0322 13.1976V17.3018L12.0062 18.4891L9.98023 17.3018V13.1976L6.49147 11.1505V8.75358L8.52617 7.55509L11.9938 9.61212L15.4826 7.55509L17.5185 8.75358H17.5098ZM6.49023 4.66062L11.9951 1.41504L17.5098 4.66062L15.4838 5.8591L11.9951 3.80208L8.51624 5.8591L6.49023 4.66062Z" fill="white"/>
</svg>
