<svg width="24" height="24" viewBox="0 0 24 24" fill="none" xmlns="http://www.w3.org/2000/svg">
<path d="M18.652 9.82856C18.072 9.82856 17.517 9.93703 17.0058 10.1344C16.6052 9.24426 16.2592 8.30294 16.0864 7.42721C15.8088 6.02078 14.566 5 13.1312 5C12.7675 5 12.4727 5.29482 12.4727 5.65848C12.4727 6.02214 12.7675 6.31696 13.1312 6.31696C13.2879 6.31696 13.4404 6.33882 13.5858 6.37943C14.0275 6.50287 14.4024 6.80165 14.621 7.20288C14.6033 7.22536 14.5864 7.24867 14.5715 7.27391L14.3669 7.6183L13.3319 9.36064H7.80227L7.48795 8.56954H7.61842C7.98208 8.56954 8.2769 8.27472 8.2769 7.91106C8.2769 7.5474 7.98208 7.25258 7.61842 7.25258H5.34802C4.98436 7.25258 4.68954 7.5474 4.68954 7.91106C4.68954 8.27472 4.98436 8.56954 5.34802 8.56954H6.07086L6.64549 10.0157C6.2339 9.89414 5.79851 9.82851 5.34802 9.82851C2.81923 9.82856 0.761917 11.8859 0.761917 14.4146C0.761917 16.9434 2.81923 19.0007 5.34798 19.0007C7.65314 19.0007 9.56625 17.291 9.88658 15.0731H11.0959C11.3282 15.0731 11.5433 14.9507 11.662 14.7509L15.1224 8.9253C15.3254 9.55349 15.5795 10.1829 15.8533 10.7842C14.767 11.6237 14.066 12.9387 14.066 14.4147C14.066 16.9434 16.1233 19.0007 18.652 19.0007C21.1808 19.0007 23.2381 16.9434 23.2381 14.4147C23.2381 11.8859 21.1808 9.82856 18.652 9.82856ZM5.34798 15.0731H8.55043C8.2449 16.5611 6.92508 17.6837 5.34798 17.6837C3.54541 17.6837 2.07888 16.2172 2.07888 14.4146C2.07888 12.612 3.54541 11.1455 5.34798 11.1455C6.92508 11.1455 8.2449 12.2681 8.55043 13.7561H5.34798C4.98432 13.7561 4.6895 14.051 4.6895 14.4146C4.6895 14.7783 4.98432 15.0731 5.34798 15.0731ZM10.7211 13.7561H9.88658C9.73377 12.6982 9.21862 11.7561 8.47124 11.0598C8.46439 11.0334 8.45645 11.0071 8.44609 10.981L8.32554 10.6776H12.5497L10.7211 13.7561ZM18.652 17.6837C16.8494 17.6837 15.3829 16.2171 15.3829 14.4146C15.3829 13.4596 15.7946 12.5991 16.4497 12.0009C17.2596 13.5486 18.0506 14.7023 18.1101 14.7886C18.2379 14.9738 18.4435 15.0731 18.6526 15.0731C18.7816 15.0731 18.9119 15.0353 19.0261 14.9565C19.3254 14.7499 19.4005 14.3398 19.194 14.0405C19.1798 14.0199 18.3829 12.8579 17.585 11.3252C17.9197 11.2093 18.2784 11.1454 18.652 11.1454C20.4546 11.1454 21.9211 12.612 21.9211 14.4145C21.9211 16.2171 20.4546 17.6837 18.652 17.6837Z" fill="white"/>
</svg>
