<svg width="24" height="24" viewBox="0 0 24 24" fill="none" xmlns="http://www.w3.org/2000/svg">
<path d="M2.38582 9.3699L11.5524 15.2032C11.6891 15.2898 11.8449 15.3332 11.9999 15.3332C12.1557 15.3332 12.3107 15.2898 12.4474 15.2032L21.6139 9.3699C21.8539 9.21658 21.9998 8.95159 21.9998 8.66659C21.9998 8.38159 21.8539 8.1166 21.6139 7.9641L12.4473 2.12999C12.174 1.95667 11.8257 1.95667 11.5523 2.12999L2.38582 7.9641C2.14582 8.1166 2 8.38159 2 8.66659C1.99996 8.95159 2.14582 9.21658 2.38582 9.3699Z" fill="white"/>
<path d="M21.6144 14.6308L19.0336 12.9883L13.3429 16.6099C12.9387 16.8657 12.4754 17.0007 12.0004 17.0007C11.5254 17.0007 11.0621 16.8657 10.6604 16.6107L4.96709 12.9883L2.3863 14.6308C2.14631 14.7841 2.00049 15.0491 2.00049 15.3341C2.00049 15.6191 2.14631 15.8841 2.3863 16.0366L11.5529 21.8707C11.6896 21.9574 11.8446 22.0007 12.0004 22.0007C12.1554 22.0007 12.3112 21.9574 12.4479 21.8707L21.6144 16.0366C21.8544 15.8841 22.0002 15.6191 22.0002 15.3341C22.0003 15.0491 21.8544 14.7841 21.6144 14.6308Z" fill="white"/>
</svg>
