<svg width="24" height="24" viewBox="0 0 24 24" fill="none" xmlns="http://www.w3.org/2000/svg">
<path d="M21.0331 7.291C18.1272 2.51687 13.7498 5.83829 13.7498 5.83829C13.4659 6.05285 12.9424 6.22926 12.5868 6.23008L11.4143 6.2309C11.0586 6.23131 10.5351 6.05491 10.2516 5.84034C10.2516 5.84034 5.87376 2.5181 2.96752 7.29223C0.0620921 12.0647 1.23296 17.2622 1.23296 17.2622C1.43809 18.5349 2.11419 19.3841 3.39008 19.2774C4.66228 19.1712 7.4237 15.8501 7.4237 15.8501C7.6518 15.5765 8.12975 15.3529 8.48462 15.3529L15.5139 15.3517C15.8692 15.3517 16.3467 15.5753 16.5744 15.8489C16.5744 15.8489 19.3363 19.1699 20.6105 19.2762C21.8848 19.3828 22.5625 18.5328 22.7664 17.261C22.7664 17.261 23.9389 12.0643 21.0331 7.291ZM9.35846 11.1769H7.85119V12.6296C7.85119 12.6296 7.53201 12.8733 7.03806 12.8672C6.54494 12.8598 6.32176 12.6013 6.32176 12.6013V11.1773H4.89817C4.89817 11.1773 4.72053 10.9952 4.67294 10.5156C4.62618 10.036 4.86946 9.64833 4.86946 9.64833H6.37714V8.14105C6.37714 8.14105 6.6873 7.9749 7.13324 7.98761C7.5796 8.00156 7.90657 8.16936 7.90657 8.16936L7.90042 9.64792H9.324C9.324 9.64792 9.57262 9.96709 9.59313 10.3527C9.61364 10.7388 9.35846 11.1769 9.35846 11.1769ZM16.2721 12.8327C15.612 12.8327 15.0799 12.299 15.0799 11.6397C15.0799 10.9792 15.612 10.4467 16.2721 10.4467C16.9293 10.4467 17.4655 10.9792 17.4655 11.6397C17.4655 12.2994 16.9293 12.8327 16.2721 12.8327ZM16.2721 9.55027C15.612 9.55027 15.0799 9.01694 15.0799 8.35766C15.0799 7.69715 15.612 7.16464 16.2721 7.16464C16.9293 7.16464 17.4655 7.69715 17.4655 8.35766C17.4655 9.01735 16.9293 9.55027 16.2721 9.55027ZM19.2431 11.3123C18.583 11.3123 18.0509 10.779 18.0509 10.1193C18.0509 9.4592 18.583 8.92628 19.2431 8.92628C19.9004 8.92628 20.4366 9.4592 20.4366 10.1193C20.4366 10.779 19.9004 11.3123 19.2431 11.3123Z" fill="white"/>
</svg>
