<svg width="24" height="24" viewBox="0 0 24 24" fill="none" xmlns="http://www.w3.org/2000/svg">
<path d="M12.0001 4.10976C12.3779 4.10979 12.7022 4.37846 12.7726 4.74975C13.0374 6.14864 14.3587 13.1724 14.3588 14.0692C14.3587 15.3699 13.3007 16.428 12 16.428C11.3498 16.428 10.76 16.1634 10.333 15.7363C9.90587 15.3092 9.64135 14.7195 9.64129 14.0692C9.64132 13.1724 10.9627 6.14867 11.2275 4.74975C11.2979 4.37854 11.6222 4.10982 12.0001 4.10976ZM11.2138 14.0693C11.2138 14.5028 11.5665 14.8555 12 14.8555C12.4335 14.8555 12.7862 14.5029 12.7863 14.0695C12.7842 13.7231 12.4444 11.6935 12 9.22284C11.5556 11.6935 11.2159 13.723 11.2138 14.0693Z" fill="white"/>
<path d="M14.9131 4.4238C14.5285 4.3081 14.1325 4.53472 14.0063 4.91601V4.91601C13.8597 5.35912 14.1334 5.82844 14.578 5.97042C16.5367 6.59591 18.1888 7.9144 19.2445 9.6362L18.1465 10.1629C17.7549 10.3507 17.5898 10.8203 17.7776 11.2119C17.9128 11.4937 18.194 11.6582 18.487 11.6582C18.6011 11.6582 18.7168 11.6333 18.8265 11.5807L19.9387 11.0473C20.2958 11.9845 20.4914 13.0007 20.4914 14.0618C20.4914 15.51 20.1189 16.9247 19.4087 18.1922L18.4381 17.7187C18.0478 17.5284 17.5771 17.6904 17.3867 18.0807C17.1963 18.471 17.3584 18.9417 17.7487 19.132L19.3605 19.9183C19.471 19.9722 19.5886 19.9979 19.7047 19.9979C19.9602 19.9979 20.2086 19.8733 20.3588 19.6486C21.4743 17.9802 22.0639 16.0482 22.0639 14.0618C22.0639 11.3737 21.0171 8.84642 19.1163 6.94558C17.9235 5.75285 16.4842 4.89638 14.9131 4.4238Z" fill="white"/>
<path d="M9.17234 4.4238C9.55695 4.3081 9.95293 4.53472 10.0791 4.91601V4.91601C10.2258 5.35912 9.9521 5.82844 9.50746 5.97042C7.54874 6.59591 5.89669 7.9144 4.84096 9.6362L5.93902 10.1629C6.33056 10.3507 6.49567 10.8203 6.30792 11.2119C6.17272 11.4937 5.89145 11.6582 5.59846 11.6582C5.48441 11.6582 5.36864 11.6333 5.25896 11.5807L4.14679 11.0473C3.78972 11.9845 3.59407 13.0007 3.59407 14.0618C3.59407 15.51 3.96655 16.9247 4.67675 18.1922L5.64736 17.7187C6.03765 17.5284 6.50837 17.6904 6.69876 18.0807C6.88914 18.471 6.7271 18.9417 6.33681 19.132L4.72503 19.9183C4.61452 19.9722 4.4969 19.9979 4.38077 19.9979C4.12533 19.9979 3.87691 19.8733 3.72666 19.6486C2.61119 17.9802 2.02159 16.0482 2.02159 14.0618C2.02159 11.3737 3.06843 8.84642 4.96919 6.94558C6.16194 5.75285 7.60133 4.89638 9.17234 4.4238Z" fill="white"/>
</svg>
