<svg width="24" height="24" viewBox="0 0 24 24" fill="none" xmlns="http://www.w3.org/2000/svg">
<path fill-rule="evenodd" clip-rule="evenodd" d="M15.6131 4.10059C15.407 4.10059 15.24 4.26765 15.24 4.47374V5.22004H13.0943C12.8883 5.22004 12.7212 5.38711 12.7212 5.5932V13.616C12.7212 13.8221 12.8883 13.9891 13.0943 13.9891H14.6802V13.616C14.6802 13.2038 15.0144 12.8697 15.4266 12.8697H16.9192C17.3313 12.8697 17.6655 13.2038 17.6655 13.616V13.9891H19.6245C19.8306 13.9891 19.9977 13.8221 19.9977 13.616V5.5932C19.9977 5.38711 19.8306 5.22004 19.6245 5.22004H17.4789V4.47374C17.4789 4.26765 17.3118 4.10059 17.1057 4.10059H15.6131ZM15.4318 11.9368L13.9705 6.19028H15.087L16.302 11.239H16.4169L17.6319 6.19028H18.7484L17.2871 11.9368H15.4318Z" fill="white"/>
<path fill-rule="evenodd" clip-rule="evenodd" d="M8.14929 13.2432C7.94321 13.2432 7.77614 13.4102 7.77614 13.6163V14.3626H5.37193C5.16585 14.3626 4.99878 14.5297 4.99878 14.7358V21.6391C4.99878 21.8452 5.16585 22.0123 5.37193 22.0123H19.6237C19.8298 22.0123 19.9969 21.8452 19.9969 21.6391V14.7358C19.9969 14.5297 19.8298 14.3626 19.6237 14.3626H17.2915V13.6163C17.2915 13.4102 17.1245 13.2432 16.9184 13.2432H15.4258C15.2197 13.2432 15.0526 13.4102 15.0526 13.6163V14.3626H10.0151V13.6163C10.0151 13.4102 9.84799 13.2432 9.64191 13.2432H8.14929ZM9.45533 15.3141V21.0606H10.5061V16.1104H10.6539L11.639 21.0606H13.4287L14.4138 16.1104H14.5616V21.0606H15.6124V15.3141H13.6011L12.6077 20.3218H12.46L11.4666 15.3141H9.45533Z" fill="white"/>
<path d="M8.12063 8.85113H9.13859C9.37393 8.85113 9.56274 8.79366 9.70504 8.67873C9.85281 8.5638 9.92669 8.39961 9.92669 8.18617V8.10407C9.92669 7.89063 9.85555 7.72644 9.71325 7.61151C9.57095 7.49658 9.3794 7.43911 9.13859 7.43911H8.12063V8.85113Z" fill="white"/>
<path d="M8.12063 6.45399H9.12218C9.34656 6.45399 9.52991 6.39652 9.6722 6.28159C9.81997 6.16666 9.89386 6.00795 9.89386 5.80545V5.72336C9.89386 5.51539 9.82271 5.35667 9.68041 5.24721C9.53812 5.13228 9.35204 5.07482 9.12218 5.07482H8.12063V6.45399Z" fill="white"/>
<path fill-rule="evenodd" clip-rule="evenodd" d="M7.89975 2C7.69366 2 7.5266 2.16707 7.5266 2.37315V3.11946H5.38097C5.17488 3.11946 5.00781 3.28653 5.00781 3.49261V11.5154C5.00781 11.7215 5.17488 11.8886 5.38097 11.8886H7.27584V11.2011C7.27584 10.995 7.4429 10.8279 7.64899 10.8279H9.64312C9.84921 10.8279 10.0163 10.995 10.0163 11.2011V11.8886H11.9111C12.1172 11.8886 12.2843 11.7215 12.2843 11.5154V3.49261C12.2843 3.28653 12.1172 3.11946 11.9111 3.11946H9.76551V2.37315C9.76551 2.16707 9.59845 2 9.39236 2H7.89975ZM7.27433 3.52996H7.83406V4.08969H8.83937V3.52996H9.3991V4.09417C9.68187 4.11014 9.93162 4.16885 10.1483 4.2703C10.411 4.38523 10.6135 4.55215 10.7558 4.77107C10.9036 4.98451 10.9775 5.24174 10.9775 5.54275V5.62484C10.9775 5.88754 10.9282 6.10372 10.8297 6.27338C10.7312 6.43757 10.6135 6.56618 10.4767 6.65922C10.3454 6.74679 10.2195 6.80973 10.0991 6.84804V6.99581C10.2195 7.02865 10.3508 7.09158 10.4931 7.18462C10.6354 7.27219 10.7558 7.4008 10.8544 7.57046C10.9583 7.74012 11.0103 7.96178 11.0103 8.23542V8.31752C11.0103 8.63495 10.9364 8.90859 10.7887 9.13845C10.6409 9.36284 10.4357 9.53524 10.173 9.65564C9.94839 9.76077 9.69043 9.82 9.3991 9.83334V10.3959H8.83937V9.83625H7.83406V10.3959H7.27433V9.83625H6.28173V8.88396H7.037V5.04198H6.28173V4.08969H7.27433V3.52996Z" fill="white"/>
</svg>
