<svg width="24" height="24" viewBox="0 0 24 24" fill="none" xmlns="http://www.w3.org/2000/svg">
<path d="M12 5.52539C8.42988 5.52539 5.52539 8.42988 5.52539 12C5.52539 15.5701 8.42988 18.4746 12 18.4746C15.5701 18.4746 18.4746 15.5701 18.4746 12C18.4746 8.42988 15.5701 5.52539 12 5.52539ZM14.9214 12L12 14.9214L9.07863 12L12 9.07863L14.9214 12Z" fill="white"/>
<path d="M19.0711 4.92891C17.1823 3.0402 14.6711 2 12 2C9.32891 2 6.8177 3.0402 4.92891 4.92891C3.0402 6.8177 2 9.32891 2 12C2 14.6711 3.0402 17.1823 4.92891 19.0711C6.8177 20.9598 9.32891 22 12 22C14.6711 22 17.1823 20.9598 19.0711 19.0711C20.9598 17.1823 22 14.6711 22 12C22 9.32891 20.9598 6.8177 19.0711 4.92891ZM12 19.6465C7.78371 19.6465 4.35352 16.2163 4.35352 12C4.35352 7.78371 7.78371 4.35352 12 4.35352C16.2163 4.35352 19.6465 7.78371 19.6465 12C19.6465 16.2163 16.2163 19.6465 12 19.6465Z" fill="white"/>
</svg>
