<svg width="24" height="24" viewBox="0 0 24 24" fill="none" xmlns="http://www.w3.org/2000/svg">
<path fill-rule="evenodd" clip-rule="evenodd" d="M12 22C17.5228 22 22 17.5228 22 12C22 6.47715 17.5228 2 12 2C6.47715 2 2 6.47715 2 12C2 17.5228 6.47715 22 12 22ZM9.08269 14.654C8.48669 14.654 7.99869 14.514 7.61869 14.234C7.24269 13.95 7.05469 13.542 7.05469 13.018C7.05469 12.906 7.06669 12.774 7.09069 12.614C7.15469 12.254 7.24669 11.822 7.36669 11.314C7.70669 9.938 8.58669 9.25 10.0027 9.25C10.3867 9.25 10.7347 9.314 11.0387 9.446C11.3427 9.57 11.5827 9.762 11.7587 10.018C11.9347 10.27 12.0227 10.57 12.0227 10.918C12.0227 11.022 12.0107 11.154 11.9867 11.314C11.9107 11.758 11.8227 12.194 11.7147 12.614C11.5387 13.298 11.2387 13.814 10.8067 14.154C10.3787 14.49 9.80269 14.654 9.08269 14.654ZM9.19069 13.574C9.47069 13.574 9.70669 13.49 9.90269 13.326C10.1027 13.162 10.2467 12.91 10.3307 12.566C10.4467 12.094 10.5347 11.686 10.5947 11.334C10.6147 11.23 10.6267 11.122 10.6267 11.01C10.6267 10.554 10.3907 10.326 9.91469 10.326C9.63469 10.326 9.39469 10.41 9.19469 10.574C8.99869 10.738 8.85869 10.99 8.77469 11.334C8.68269 11.67 8.59469 12.078 8.50269 12.566C8.48269 12.666 8.47069 12.77 8.47069 12.882C8.46669 13.346 8.71069 13.574 9.19069 13.574ZM12.2438 14.5321C12.2758 14.5681 12.3158 14.5841 12.3718 14.5841H13.3918C13.4438 14.5841 13.4918 14.5681 13.5358 14.5321C13.5838 14.4961 13.6078 14.4521 13.6198 14.3961L13.9638 12.7521H14.9758C15.6318 12.7521 16.1478 12.6161 16.5238 12.3401C16.9078 12.0641 17.1598 11.6401 17.2838 11.0641C17.3118 10.9281 17.3278 10.7961 17.3278 10.6721C17.3278 10.2361 17.1558 9.90413 16.8158 9.67213C16.4798 9.44413 16.0358 9.32812 15.4798 9.32812H13.4838C13.4318 9.32812 13.3838 9.34413 13.3398 9.38013C13.2918 9.41613 13.2638 9.46012 13.2558 9.51612L12.2198 14.3961C12.2118 14.4481 12.2198 14.4921 12.2438 14.5321ZM15.5758 11.5441C15.4198 11.6601 15.2398 11.7161 15.0278 11.7161H14.1678L14.4518 10.3721H15.3518C15.5558 10.3721 15.7038 10.4121 15.7878 10.4921C15.8718 10.5681 15.9158 10.6801 15.9158 10.8241C15.9158 10.8881 15.9078 10.9641 15.8918 11.0481C15.8398 11.2641 15.7358 11.4281 15.5758 11.5441Z" fill="white"/>
</svg>
