<svg width="22" height="20" viewBox="0 0 22 20" fill="none" xmlns="http://www.w3.org/2000/svg">
<path d="M5.45155 3.80717L13.7575 1.53999L13.3177 0.650898C13.0299 0.0729893 12.328 -0.165661 11.7501 0.122123L4.31445 3.80717H5.45155Z" fill="white"/>
<path d="M16.3359 1.60547C16.2329 1.60547 16.13 1.61951 16.027 1.64758L14.0757 2.18104L8.11646 3.80714H14.8806H17.8286L17.4636 2.46882C17.3232 1.94707 16.8506 1.60547 16.3359 1.60547Z" fill="white"/>
<path d="M19.0475 4.62598H18.7808H18.4181H18.0555H15.2876H5.11688H3.78325H2.66018H2.45195H1.75472C1.38504 4.62598 1.05514 4.79678 0.839888 5.06584C0.74162 5.18985 0.666749 5.33257 0.624634 5.48933C0.598898 5.5876 0.58252 5.69055 0.58252 5.79583V5.93622V7.26985V18.8304C0.58252 19.4762 1.10662 20.0002 1.75238 20.0002H19.0452C19.691 20.0002 20.215 19.4762 20.215 18.8304V15.5665H13.2731C12.1758 15.5665 11.2844 14.675 11.2844 13.5777V12.5061V12.1435V11.7808V10.976C11.2844 10.4378 11.4996 9.94885 11.8482 9.59087C12.1571 9.27265 12.5712 9.05739 13.0345 9.00358C13.1117 8.99424 13.1912 8.98954 13.2708 8.98954H19.2417H19.6044H19.967H20.215V5.79583C20.2174 5.15007 19.6933 4.62598 19.0475 4.62598Z" fill="white"/>
<path d="M21.0363 10.1082C20.9193 10.0006 20.7813 9.91872 20.6268 9.86491C20.5075 9.82516 20.3812 9.80176 20.2478 9.80176H20.2174H20.194H19.8313H18.5234H13.2731C12.6273 9.80176 12.1033 10.3258 12.1033 10.9716V11.5542V11.9168V12.2795V13.5757C12.1033 14.2215 12.6273 14.7455 13.2731 14.7455H20.2174H20.2478C20.3812 14.7455 20.5075 14.7222 20.6268 14.6824C20.7813 14.6309 20.9193 14.5467 21.0363 14.439C21.2703 14.2261 21.4177 13.9173 21.4177 13.5757V10.9716C21.4177 10.63 21.2703 10.3211 21.0363 10.1082ZM15.7158 12.5064C15.7158 12.8293 15.4537 13.0914 15.1309 13.0914H14.7425C14.4196 13.0914 14.1575 12.8293 14.1575 12.5064V12.1181C14.1575 11.9309 14.2441 11.7647 14.3822 11.6594C14.4828 11.5822 14.6068 11.5331 14.7425 11.5331H14.8407H15.1309C15.4537 11.5331 15.7158 11.7951 15.7158 12.1181V12.5064Z" fill="white"/>
</svg>
