<svg width="24" height="24" viewBox="0 0 24 24" fill="none" xmlns="http://www.w3.org/2000/svg">
<path d="M20.8636 10.4092H18.1364C17.5088 10.4092 17 10.9179 17 11.5455V19.7274C17 20.355 17.5088 20.8637 18.1364 20.8637H20.8636C21.4912 20.8637 22 20.355 22 19.7274V11.5455C22 10.9179 21.4912 10.4092 20.8636 10.4092Z" fill="white"/>
<path d="M13.1363 6.77344H10.4091C9.78147 6.77344 9.27271 7.2822 9.27271 7.9098V19.728C9.27271 20.3556 9.78147 20.8643 10.4091 20.8643H13.1363C13.7639 20.8643 14.2727 20.3556 14.2727 19.728V7.9098C14.2727 7.2822 13.7639 6.77344 13.1363 6.77344Z" fill="white"/>
<path d="M5.86364 3.13672H3.13636C2.50877 3.13672 2 3.64549 2 4.27308V19.7276C2 20.3552 2.50877 20.864 3.13636 20.864H5.86364C6.49123 20.864 7 20.3552 7 19.7276V4.27308C7 3.64549 6.49123 3.13672 5.86364 3.13672Z" fill="white"/>
</svg>
