<svg width="24" height="24" viewBox="0 0 24 24" fill="none" xmlns="http://www.w3.org/2000/svg">
<path fill-rule="evenodd" clip-rule="evenodd" d="M21.0377 7.89456C21.2642 7.66804 21.2642 7.30076 21.0377 7.07424L16.9839 3.02048C16.7574 2.79395 16.3901 2.79395 16.1636 3.02048L13.9996 5.18448C12.8952 6.2888 11.1048 6.2888 10.0005 5.18448L7.83643 3.02048C7.60991 2.79395 7.24263 2.79395 7.01611 3.02048L2.96233 7.07424C2.7358 7.30076 2.7358 7.66804 2.96233 7.89456L5.12635 10.0586C6.23067 11.163 6.23067 12.9534 5.12635 14.0577L2.96233 16.2217C2.73581 16.4483 2.7358 16.8155 2.96233 17.0421L7.01609 21.0959C7.24263 21.3224 7.60991 21.3224 7.83644 21.0959L10.0005 18.9317C11.1048 17.8274 12.8952 17.8274 13.9996 18.9317L16.1636 21.0959C16.3901 21.3224 16.7574 21.3224 16.9839 21.0959L21.0377 17.0421C21.2642 16.8155 21.2642 16.4483 21.0377 16.2217L18.8737 14.0577C17.7693 12.9534 17.7693 11.163 18.8737 10.0586L21.0377 7.89456ZM12.0016 15.6617C14.0038 15.6617 15.6269 14.0385 15.6269 12.0363C15.6269 10.0341 14.0038 8.41092 12.0016 8.41092C9.99932 8.41092 8.37618 10.0341 8.37618 12.0363C8.37618 14.0385 9.99932 15.6617 12.0016 15.6617Z" fill="white"/>
</svg>
