<svg width="24" height="24" viewBox="0 0 24 24" fill="none" xmlns="http://www.w3.org/2000/svg">
<path d="M8.12024 14.1668C8.05768 14.3233 7.89913 14.5579 7.54174 14.4688C7.55435 14.4873 6.62422 14.2381 6.62422 14.2381L5.99756 15.6936L7.64026 16.1062C7.94587 16.1833 8.24538 16.264 8.54019 16.3401L8.01776 18.4529L9.27867 18.7698L9.79604 16.6794C10.1405 16.7736 10.4748 16.8605 10.802 16.9424L10.2864 19.023L11.5488 19.3398L12.0712 17.231C14.2238 17.6413 15.8424 17.4758 16.5237 15.5147C17.0727 13.9357 16.4964 13.0249 15.3638 12.431C16.1886 12.2394 16.8099 11.6929 16.9756 10.564C17.2046 9.02197 16.039 8.19299 14.4452 7.63996L14.9622 5.55102L13.6999 5.23413L13.1965 7.26801C12.8647 7.18471 12.5238 7.10612 12.1852 7.02825L12.6921 4.98095L11.4305 4.66406L10.9131 6.75226C10.6384 6.68925 10.3688 6.62693 10.107 6.5614L10.1084 6.55487L8.36755 6.11702L8.03172 7.47511C8.03172 7.47511 8.96833 7.69133 8.94855 7.70472C9.45982 7.83329 9.55222 8.17406 9.53678 8.44426L8.12024 14.1668ZM14.0914 14.638C13.7013 16.2169 11.062 15.3633 10.2063 15.1493L10.8995 12.3502C11.7551 12.5653 14.4991 12.9912 14.0914 14.638ZM14.4819 10.5412C14.1259 11.9776 11.9292 11.2478 11.2166 11.0689L11.845 8.53016C12.5576 8.70907 14.8526 9.04297 14.4819 10.5412Z" fill="white"/>
<rect x="2.75" y="2.75" width="18.5" height="18.5" rx="3.25" stroke="white" stroke-width="1.5"/>
</svg>
