<svg width="24" height="24" viewBox="0 0 24 24" fill="none" xmlns="http://www.w3.org/2000/svg">
<path d="M6.89374 14.9522C6.80849 15.1654 6.59242 15.4852 6.10537 15.3638C6.12255 15.389 4.85498 15.0494 4.85498 15.0494L4.00098 17.0329L6.23963 17.5951C6.65611 17.7002 7.06428 17.8103 7.46605 17.914L6.75409 20.7933L8.47244 21.2251L9.17751 18.3764C9.64693 18.5047 10.1026 18.6231 10.5484 18.7347L9.84581 21.5701L11.5661 22.002L12.2781 19.128C15.2116 19.6872 17.4174 19.4617 18.3459 16.7891C19.0941 14.6373 18.3087 13.396 16.7652 12.5866C17.8893 12.3255 18.7359 11.5808 18.9618 10.0424C19.2739 7.94086 17.6854 6.81113 15.5133 6.05748L16.2179 3.21069L14.4976 2.77884L13.8116 5.55058C13.3594 5.43707 12.8949 5.32996 12.4334 5.22384L13.1242 2.4338L11.4049 2.00195L10.6998 4.84773C10.3255 4.76186 9.95802 4.67693 9.60129 4.58762L9.60324 4.57872L7.23078 3.98203L6.77311 5.83283C6.77311 5.83283 8.04951 6.12748 8.02256 6.14573C8.71932 6.32094 8.84523 6.78534 8.82418 7.15357L6.89374 14.9522ZM15.0312 15.5943C14.4996 17.7461 10.9027 16.5828 9.73656 16.2911L10.6812 12.4766C11.8474 12.7697 15.5868 13.3501 15.0312 15.5943ZM15.5633 10.0113C15.0782 11.9687 12.0845 10.9742 11.1134 10.7304L11.9699 7.27063C12.941 7.51444 16.0685 7.96949 15.5633 10.0113Z" fill="white"/>
</svg>
