<svg width="24" height="24" viewBox="0 0 24 24" fill="none" xmlns="http://www.w3.org/2000/svg">
<path fill-rule="evenodd" clip-rule="evenodd" d="M6.99949 3C6.99949 3.55228 7.44721 4 7.99949 4V9.65663L3.49771 16.9687C2.19493 19.0848 3.60073 22 6.18291 22H17.8161C20.3983 22 21.8041 19.0848 20.5013 16.9687L15.9995 9.65663V4C16.5518 4 16.9995 3.55228 16.9995 3C16.9995 2.44772 16.5518 2 15.9995 2H7.99949C7.44721 2 6.99949 2.44772 6.99949 3ZM9.99949 4H13.9995V9.93978C13.9995 10.1249 14.0509 10.3064 14.1479 10.464L15.7092 13H8.28976L9.85105 10.464C9.9481 10.3064 9.99949 10.1249 9.99949 9.93978V4ZM7.05844 15L5.20082 18.0173C4.63839 18.9308 5.31585 20 6.18291 20H17.8161C18.6831 20 19.3606 18.9308 18.7982 18.0173L16.9405 15H7.05844Z" fill="white"/>
</svg>
