<svg width="24" height="24" viewBox="0 0 24 24" fill="none" xmlns="http://www.w3.org/2000/svg">
<path d="M2.32623 20.5905L5.88092 22.4362C5.95615 22.4752 6.04922 22.4997 6.13925 22.5H6.14062H6.142C6.2334 22.4997 6.3277 22.4745 6.40277 22.4351L9.9184 20.5894C10.1168 20.4851 10.2422 20.2722 10.2422 20.0391V17.5781H13.7578V20.0391C13.7578 20.2722 13.8832 20.4851 14.0818 20.5894L17.5974 22.4351C17.7658 22.5236 17.9615 22.5181 18.1191 22.4362L21.6738 20.5905C21.8735 20.4869 22 20.2731 22 20.0391V15.1172C22 14.8922 21.8813 14.6764 21.679 14.5688C21.6771 14.5678 21.6756 14.5667 21.6738 14.5657L18.1191 12.72C17.9546 12.6346 17.7616 12.6351 17.5974 12.7213L16.5726 13.2591L14.8453 9.96364L15.7776 9.47417C15.9761 9.36987 16.1016 9.15694 16.1016 8.92383V3.96094C16.1016 3.72894 15.9755 3.51457 15.7776 3.41059L12.262 1.56489C12.097 1.47837 11.903 1.47837 11.738 1.56489L8.22238 3.41059C8.02478 3.51441 7.89844 3.72878 7.89844 3.96094V8.92383C7.89844 9.15694 8.02386 9.36987 8.22238 9.47417L9.15469 9.96364L7.4274 13.2591L6.40262 12.7211C6.23859 12.6349 6.04541 12.6346 5.88092 12.72L2.32623 14.5657C2.1239 14.6708 2 14.8876 2 15.1172V20.0391C2 20.2731 2.12634 20.4869 2.32623 20.5905ZM3.17188 16.1078L5.55469 17.345V20.8941L3.17188 19.6569V16.1078ZM9.07031 19.6589L6.72656 20.8893V17.3431L9.07031 16.1126V19.6589ZM14.9297 16.1126L17.2734 17.3431V20.8893L14.9297 19.6589V16.1126ZM20.8281 19.6569L18.4453 20.8941V17.345L20.8281 16.1078V19.6569ZM17.8609 13.9587L20.0922 15.1172L17.8609 16.2759L15.654 15.1172L17.8609 13.9587ZM14.9297 8.54363L12.5859 9.7741V6.18684L14.9297 4.95637V8.54363ZM12 2.80305L14.2055 3.96094L12 5.11883L9.79465 3.96094L12 2.80305ZM9.07031 4.95637L11.4141 6.18684V9.7741L9.07031 8.54363V4.95637ZM10.2037 10.5143L11.738 11.3199C11.8131 11.3591 11.9074 11.3844 11.9986 11.3848H12H12.0014C12.094 11.3844 12.1872 11.3591 12.2621 11.3199L13.7963 10.5143L15.5237 13.81L14.0818 14.5668C13.8785 14.6735 13.7578 14.8906 13.7578 15.1172V16.3477H10.2422V15.1172C10.2422 14.8794 10.1108 14.6675 9.91824 14.5668L8.47644 13.81L10.2037 10.5143ZM6.13925 13.9587L8.34613 15.1172L6.13925 16.2759L3.90781 15.1172L6.13925 13.9587Z" fill="white"/>
</svg>
