<svg width="24" height="24" viewBox="0 0 24 24" fill="none" xmlns="http://www.w3.org/2000/svg">
<path d="M5.11011 16.2117C5.2333 16.0885 5.40269 16.0166 5.58234 16.0166H21.8745C22.1722 16.0166 22.3211 16.3759 22.1106 16.5864L18.8922 19.8048C18.769 19.9279 18.5996 19.9998 18.42 19.9998H2.12783C1.83012 19.9998 1.68126 19.6405 1.89171 19.43L5.11011 16.2117Z" fill="white"/>
<path d="M5.11011 4.19505C5.23843 4.07186 5.40782 4 5.58234 4H21.8745C22.1722 4 22.3211 4.35931 22.1106 4.56976L18.8922 7.78816C18.769 7.91135 18.5996 7.98321 18.42 7.98321H2.12783C1.83012 7.98321 1.68126 7.6239 1.89171 7.41345L5.11011 4.19505Z" fill="white"/>
<path d="M18.8922 10.1648C18.769 10.0416 18.5996 9.96973 18.42 9.96973H2.12783C1.83012 9.96973 1.68126 10.329 1.89171 10.5395L5.11011 13.7579C5.2333 13.8811 5.40269 13.9529 5.58234 13.9529H21.8745C22.1722 13.9529 22.3211 13.5936 22.1106 13.3832L18.8922 10.1648Z" fill="white"/>
</svg>
