<svg width="60" height="60" viewBox="0 0 60 60" fill="none" xmlns="http://www.w3.org/2000/svg">
<rect width="60" height="60" rx="9.00014" fill="url(#paint0_linear_35110_1510)"/>
<path d="M12 30C12 39.942 20.058 48 30 48C39.942 48 48 39.942 48 30C48 20.058 39.942 12 30 12C20.058 12 12 20.058 12 30Z" fill="url(#paint1_linear_35110_1510)"/>
<path d="M32 20V28H40C41.104 28 42 28.896 42 30C42 31.104 41.104 32 40 32H32V40C32 41.104 31.104 42 30 42C28.896 42 28 41.104 28 40V32H20C18.896 32 18 31.104 18 30C18 28.896 18.896 28 20 28H28V20C28 18.896 28.896 18 30 18C31.104 18 32 18.896 32 20Z" fill="url(#paint2_linear_35110_1510)"/>
<defs>
<linearGradient id="paint0_linear_35110_1510" x1="30" y1="0" x2="30" y2="60" gradientUnits="userSpaceOnUse">
<stop stop-color="#D8F3E0"/>
<stop offset="1" stop-color="#9EE0B1"/>
</linearGradient>
<linearGradient id="paint1_linear_35110_1510" x1="30" y1="12" x2="30" y2="48" gradientUnits="userSpaceOnUse">
<stop stop-color="#6AD084"/>
<stop offset="1" stop-color="#3CB34B"/>
</linearGradient>
<linearGradient id="paint2_linear_35110_1510" x1="30" y1="18" x2="30" y2="42" gradientUnits="userSpaceOnUse">
<stop stop-color="white"/>
<stop offset="1" stop-color="#D8F3E0"/>
</linearGradient>
</defs>
</svg>
