<svg width="11" height="13" viewBox="0 0 11 13" fill="none" xmlns="http://www.w3.org/2000/svg">
<path d="M7.23484 1.26204L7.79484 0.251702C7.802 0.238756 7.80654 0.224526 7.80821 0.209824C7.80987 0.195123 7.80862 0.180237 7.80453 0.166019C7.80044 0.1518 7.79359 0.138525 7.78437 0.126954C7.77515 0.115382 7.76374 0.10574 7.7508 0.0985773C7.73785 0.0914148 7.72362 0.0868724 7.70892 0.0852093C7.69422 0.0835463 7.67933 0.0847953 7.66511 0.088885C7.65089 0.0929746 7.63762 0.0998248 7.62605 0.109045C7.61448 0.118264 7.60484 0.129673 7.59767 0.142619L7.03184 1.16345C6.54881 0.951673 6.02713 0.842332 5.49971 0.842332C4.9723 0.842332 4.45061 0.951673 3.96759 1.16345L3.40176 0.142619C3.38729 0.116318 3.36297 0.0968413 3.33414 0.0884725C3.30532 0.0801036 3.27435 0.0835286 3.24805 0.097994C3.22175 0.112459 3.20227 0.13678 3.1939 0.165606C3.18553 0.194432 3.18896 0.225402 3.20342 0.251702L3.76342 1.26204C3.2306 1.52482 2.78043 1.92925 2.46227 2.43098C2.14411 2.93271 1.97025 3.51236 1.95976 4.10637H9.03967C9.02907 3.51224 8.85504 2.9325 8.53666 2.43076C8.21829 1.92902 7.76788 1.52466 7.23484 1.26204ZM3.86609 2.81079C3.80757 2.81079 3.75037 2.79343 3.70172 2.7609C3.65307 2.72838 3.61516 2.68215 3.5928 2.62808C3.57043 2.574 3.56461 2.51451 3.57606 2.45712C3.58752 2.39974 3.61575 2.34704 3.65717 2.3057C3.69859 2.26436 3.75134 2.23624 3.80875 2.2249C3.86616 2.21355 3.92564 2.21949 3.97967 2.24197C4.0337 2.26444 4.07985 2.30244 4.11228 2.35115C4.14471 2.39986 4.16195 2.4571 4.16184 2.51562C4.16168 2.59396 4.13046 2.66903 4.07501 2.72437C4.01956 2.77971 3.94443 2.81079 3.86609 2.81079ZM7.13392 2.81079C7.0754 2.81079 7.0182 2.79343 6.96955 2.7609C6.9209 2.72838 6.883 2.68215 6.86063 2.62808C6.83826 2.574 6.83244 2.51451 6.8439 2.45712C6.85536 2.39974 6.88358 2.34704 6.925 2.3057C6.96642 2.26436 7.01917 2.23624 7.07658 2.2249C7.13399 2.21355 7.19347 2.21949 7.24751 2.24197C7.30154 2.26444 7.34769 2.30244 7.38011 2.35115C7.41254 2.39986 7.42979 2.4571 7.42967 2.51562C7.42952 2.59396 7.39829 2.66903 7.34284 2.72437C7.2874 2.77971 7.21226 2.81079 7.13392 2.81079ZM1.95859 9.51737C1.95843 9.62999 1.98051 9.74154 2.02356 9.84561C2.06661 9.94969 2.12977 10.0442 2.20944 10.1238C2.2891 10.2035 2.3837 10.2666 2.4878 10.3095C2.5919 10.3525 2.70346 10.3745 2.81609 10.3743H3.38367V12.1243C3.38367 12.3348 3.46729 12.5366 3.61612 12.6855C3.76495 12.8343 3.96681 12.9179 4.1773 12.9179C4.38778 12.9179 4.58964 12.8343 4.73847 12.6855C4.88731 12.5366 4.97092 12.3348 4.97092 12.1243V10.3743H6.02909V12.1243C6.02909 12.3347 6.11267 12.5365 6.26145 12.6853C6.41023 12.834 6.61202 12.9176 6.82242 12.9176C7.03283 12.9176 7.23461 12.834 7.38339 12.6853C7.53217 12.5365 7.61576 12.3347 7.61576 12.1243V10.3743H8.18392C8.2964 10.3744 8.40779 10.3523 8.51172 10.3093C8.61565 10.2662 8.71008 10.2032 8.78961 10.1236C8.86915 10.0441 8.93222 9.94968 8.97523 9.84575C9.01824 9.74182 9.04033 9.63043 9.04026 9.51795V4.38637H1.95859V9.51737ZM0.869505 4.24987C0.659094 4.25018 0.457398 4.33394 0.308669 4.48278C0.15994 4.63162 0.0763261 4.83337 0.0761719 5.04379V8.3507C0.0761719 8.45488 0.096692 8.55805 0.136561 8.6543C0.176429 8.75055 0.234866 8.83801 0.308534 8.91167C0.382202 8.98534 0.469658 9.04378 0.56591 9.08365C0.662161 9.12352 0.765323 9.14404 0.869505 9.14404C0.973687 9.14404 1.07685 9.12352 1.1731 9.08365C1.26935 9.04378 1.35681 8.98534 1.43048 8.91167C1.50414 8.83801 1.56258 8.75055 1.60245 8.6543C1.64232 8.55805 1.66284 8.45488 1.66284 8.3507V5.04379C1.66253 4.83348 1.57885 4.63187 1.43014 4.48316C1.28142 4.33444 1.07982 4.25076 0.869505 4.25045V4.24987ZM10.1282 4.24987C9.91776 4.25018 9.71606 4.33394 9.56734 4.48278C9.41861 4.63162 9.33499 4.83337 9.33484 5.04379V8.3507C9.33484 8.45488 9.35536 8.55805 9.39523 8.6543C9.4351 8.75055 9.49353 8.83801 9.5672 8.91167C9.64087 8.98534 9.72833 9.04378 9.82458 9.08365C9.92083 9.12352 10.024 9.14404 10.1282 9.14404C10.2324 9.14404 10.3355 9.12352 10.4318 9.08365C10.528 9.04378 10.6155 8.98534 10.6891 8.91167C10.7628 8.83801 10.8212 8.75055 10.8611 8.6543C10.901 8.55805 10.9215 8.45488 10.9215 8.3507V5.04379C10.9212 4.83348 10.8375 4.63187 10.6888 4.48316C10.5401 4.33444 10.3385 4.25076 10.1282 4.25045V4.24987Z" fill="black"/>
</svg>
