<svg width="16" height="16" viewBox="0 0 16 16" fill="none" xmlns="http://www.w3.org/2000/svg">
<path d="M8 1C5.96456 1 4.30859 2.65596 4.30859 4.69141C4.30859 6.72685 5.96456 8.38281 8 8.38281C10.0354 8.38281 11.6914 6.72685 11.6914 4.69141C11.6914 2.65596 10.0354 1 8 1Z" fill="#555555"/>
<path d="M12.5928 10.7944C11.5822 9.76824 10.2424 9.20312 8.82031 9.20312H7.17969C5.75759 9.20312 4.4178 9.76824 3.40718 10.7944C2.4015 11.8155 1.84766 13.1634 1.84766 14.5898C1.84766 14.8164 2.0313 15 2.25781 15H13.7422C13.9687 15 14.1523 14.8164 14.1523 14.5898C14.1523 13.1634 13.5985 11.8155 12.5928 10.7944Z" fill="#555555"/>
</svg>
