<svg width="11" height="15" viewBox="0 0 11 15" fill="none" xmlns="http://www.w3.org/2000/svg">
<path fill-rule="evenodd" clip-rule="evenodd" d="M6.03006 1.93881C6.52881 1.35786 7.2287 0.993777 7.98478 0.921943C8.01154 0.92098 8.03768 0.930263 8.058 0.947955C8.07832 0.965647 8.09133 0.990449 8.09445 1.01743C8.15302 1.79697 7.90607 2.56848 7.40725 3.1644C7.18508 3.44874 6.90547 3.68151 6.58722 3.84705C6.26897 4.01259 5.91946 4.10704 5.56221 4.12409C5.51584 4.12409 5.4703 4.12211 5.42504 4.11902C5.40075 4.11704 5.37785 4.10668 5.36017 4.08967C5.34249 4.07265 5.33109 4.05001 5.32787 4.02551C5.30031 3.64764 5.34831 3.26801 5.46898 2.90942C5.58964 2.55084 5.78049 2.2207 6.03006 1.93881ZM1.51203 12.3934C0.299772 10.6174 -0.396875 7.68877 0.699043 5.75926C0.972992 5.26489 1.36826 4.85076 1.84649 4.55706C2.32471 4.26335 2.86964 4.10004 3.42842 4.08298H3.4623C3.92027 4.11101 4.36889 4.22666 4.78451 4.42382C5.0205 4.53966 5.27386 4.61486 5.53419 4.64634C5.78562 4.61198 6.03016 4.53774 6.25887 4.42634C6.73556 4.20383 7.2491 4.0738 7.77295 4.04297C7.84486 4.04297 7.91538 4.04607 7.98369 4.05311C8.4599 4.06947 8.92582 4.19812 9.34453 4.42884C9.76323 4.65956 10.1232 4.98601 10.396 5.38236C10.4039 5.39425 10.4095 5.40764 10.4123 5.42172C10.415 5.4358 10.415 5.45029 10.4123 5.46437C10.4095 5.47845 10.4039 5.49183 10.396 5.50372C10.388 5.51561 10.3779 5.52579 10.366 5.53364L10.3555 5.5401C9.95776 5.79066 9.6286 6.13873 9.39832 6.55222C9.16803 6.96572 9.04401 7.43135 9.03769 7.90623C9.03952 8.44252 9.19593 8.96654 9.48764 9.41378C9.77936 9.86103 10.1936 10.2119 10.6795 10.4233L10.687 10.4273C10.7109 10.4383 10.73 10.4579 10.7406 10.4823C10.7511 10.5068 10.7524 10.5343 10.7442 10.5597L10.7403 10.5712C10.5313 11.2296 10.2308 11.8543 9.84761 12.4264C9.33672 13.1844 8.75364 14.0449 7.8096 14.0627C7.45134 14.0623 7.09822 13.9762 6.77893 13.8114C6.4444 13.6421 6.07626 13.5523 5.70245 13.5489C5.31018 13.5522 4.92368 13.645 4.57154 13.8204C4.273 13.9691 3.94857 14.0569 3.61668 14.0787H3.56892C2.72956 14.0787 2.11705 13.2818 1.51203 12.3934Z" fill="black"/>
</svg>
