<svg width="20" height="20" viewBox="0 0 20 20" fill="none" xmlns="http://www.w3.org/2000/svg">
<path d="M18.0766 10.2392C18.0449 10.3159 17.9992 10.385 17.9417 10.4425L12.1084 16.2758C11.9867 16.3975 11.8267 16.4591 11.6667 16.4591C11.5067 16.4591 11.3466 16.3983 11.225 16.2758C10.9808 16.0317 10.9808 15.6358 11.225 15.3916L15.9916 10.625H2.5C2.155 10.625 1.875 10.345 1.875 9.99998C1.875 9.65498 2.155 9.37498 2.5 9.37498H15.9908L11.2242 4.60834C10.98 4.36417 10.98 3.96831 11.2242 3.72414C11.4683 3.47997 11.8642 3.47997 12.1084 3.72414L17.9417 9.55747C17.9992 9.61497 18.0449 9.68405 18.0766 9.76072C18.1399 9.91405 18.1399 10.0859 18.0766 10.2392Z" fill="#FA4E0E"/>
</svg>
