<svg width="46" height="37" viewBox="0 0 46 37" fill="none" xmlns="http://www.w3.org/2000/svg">
<path d="M16.2006 0.916992H8.62928C7.06122 0.916992 5.79004 2.18817 5.79004 3.75623V9.43471C5.79004 9.95739 6.2138 10.3812 6.73648 10.3812H18.0934C18.6161 10.3812 19.0399 9.95739 19.0399 9.43471V3.75623C19.0398 2.18817 17.7686 0.916992 16.2006 0.916992Z" fill="#E66E6D"/>
<path d="M36.9654 0.916992H29.3942C27.8261 0.916992 26.5549 2.18817 26.5549 3.75623V9.43471C26.5549 9.95739 26.9787 10.3812 27.5014 10.3812H38.8583C39.381 10.3812 39.8048 9.95739 39.8048 9.43471V3.75623C39.8047 2.18817 38.5335 0.916992 36.9654 0.916992Z" fill="#E66E6D"/>
<path fill-rule="evenodd" clip-rule="evenodd" d="M42.7011 7.79297H2.95179C1.38373 7.79297 0.112549 9.06415 0.112549 10.6322V35.6697C0.112549 36.1923 0.536305 36.6161 1.05899 36.6161H15.9782V34.6963C15.9782 33.1282 17.2494 31.857 18.8174 31.857H26.3887C27.9568 31.857 29.2279 33.1282 29.228 34.6963V36.6161H44.594C45.1167 36.6161 45.5405 36.1923 45.5405 35.6697V10.6322C45.5404 9.06415 44.2692 7.79297 42.7011 7.79297Z" fill="#F28D94"/>
<path d="M30.8821 19.8359C30.8821 23.9781 27.5242 27.3359 23.3821 27.3359C19.2399 27.3359 15.8821 23.9781 15.8821 19.8359C15.8821 15.6938 19.2399 12.3359 23.3821 12.3359C27.5242 12.3359 30.8821 15.6938 30.8821 19.8359Z" stroke="white"/>
<path d="M24.8757 22.7269C24.8368 22.6492 24.8038 22.5598 24.7766 22.4589C24.7494 22.3578 24.7261 22.251 24.7067 22.1383C24.6173 22.2355 24.5144 22.3268 24.3979 22.4122C24.2813 22.4977 24.1512 22.5735 24.0074 22.6395C23.8676 22.7016 23.7121 22.7503 23.5412 22.7852C23.3703 22.824 23.1858 22.8435 22.9876 22.8435C22.6652 22.8435 22.368 22.7968 22.0961 22.7036C21.828 22.6104 21.5968 22.4803 21.4026 22.3132C21.2083 22.1461 21.0568 21.948 20.948 21.7188C20.8393 21.4857 20.7849 21.2332 20.7849 20.9612C20.7849 20.2969 21.0316 19.7841 21.525 19.4228C22.0223 19.0576 22.7623 18.875 23.7452 18.875H24.6484V18.5021C24.6484 18.199 24.5494 17.9601 24.3512 17.7853C24.1531 17.6066 23.8676 17.5172 23.4946 17.5172C23.1644 17.5172 22.9235 17.5892 22.772 17.7329C22.6205 17.8727 22.5447 18.0612 22.5447 18.2981H20.9247C20.9247 18.0301 20.983 17.7756 21.0995 17.5348C21.22 17.2939 21.3929 17.0822 21.6182 16.8996C21.8474 16.717 22.1252 16.5733 22.4515 16.4683C22.7817 16.3596 23.1586 16.3052 23.582 16.3052C23.9627 16.3052 24.3162 16.3518 24.6426 16.445C24.9728 16.5383 25.2583 16.6762 25.4992 16.8588C25.7401 17.0414 25.9285 17.2725 26.0645 17.5522C26.2005 17.8281 26.2684 18.1486 26.2684 18.5137V21.2177C26.2684 21.5556 26.2898 21.8353 26.3325 22.0568C26.3753 22.2782 26.4374 22.4686 26.519 22.6278V22.7269H24.8757ZM23.3314 21.5906C23.4946 21.5906 23.6461 21.5712 23.786 21.5323C23.9258 21.4934 24.0521 21.443 24.1647 21.3808C24.2774 21.3186 24.3745 21.2487 24.4561 21.171C24.5377 21.0894 24.6018 21.0078 24.6484 20.9263V19.8424H23.8209C23.5684 19.8424 23.3528 19.8677 23.1741 19.9181C22.9954 19.9648 22.8497 20.0327 22.7371 20.1221C22.6244 20.2075 22.5409 20.3124 22.4865 20.4368C22.4321 20.5572 22.4049 20.6893 22.4049 20.833C22.4049 21.0506 22.4806 21.2312 22.6321 21.375C22.7876 21.5187 23.0206 21.5906 23.3314 21.5906Z" fill="white"/>
</svg>
