<svg width="24" height="25" viewBox="0 0 24 25" fill="none" xmlns="http://www.w3.org/2000/svg">
<path d="M20.9998 12.5003C20.9998 13.0523 20.5528 13.5003 19.9998 13.5003H6.41388L8.70685 15.7933C9.09785 16.1842 9.09785 16.8163 8.70685 17.2073C8.51185 17.4023 8.25582 17.5003 7.99982 17.5003C7.74382 17.5003 7.48779 17.4023 7.29279 17.2073L3.29377 13.2083C3.20077 13.1153 3.12773 13.0054 3.07673 12.8824C2.97573 12.6384 2.97573 12.3622 3.07673 12.1182C3.12773 11.9952 3.20077 11.8853 3.29377 11.7923L7.29279 7.79325C7.68379 7.40225 8.31585 7.40225 8.70685 7.79325C9.09785 8.18425 9.09785 8.81631 8.70685 9.20731L6.41388 11.5003H19.9998C20.5528 11.5003 20.9998 11.9483 20.9998 12.5003Z" fill="#FA4E0E"/>
</svg>
