<svg xmlns="http://www.w3.org/2000/svg" width="18" height="18" viewBox="0 0 18 18" fill="none">
  <path d="M2.75827 12.8873L2.1473 12.4523H2.1473L2.75827 12.8873ZM3.67798 10.1049L2.92798 10.0963V10.1049H3.67798ZM3.69729 8.4227L4.44729 8.4313V8.4227H3.69729ZM15.2495 12.9008L15.8689 12.4779L15.8689 12.4779L15.2495 12.9008ZM14.3644 10.1049L13.6144 10.0959V10.1049H14.3644ZM14.3837 8.50606L15.1337 8.51511V8.50606H14.3837ZM6.89253 15.4498C6.47832 15.4498 6.14253 15.7856 6.14253 16.1998C6.14253 16.614 6.47832 16.9498 6.89253 16.9498V15.4498ZM11.1103 16.9498C11.5245 16.9498 11.8603 16.614 11.8603 16.1998C11.8603 15.7856 11.5245 15.4498 11.1103 15.4498V16.9498ZM1.55385 4.22415C1.39973 4.60862 1.58647 5.04524 1.97094 5.19936C2.35541 5.35348 2.79203 5.16674 2.94615 4.78227L1.55385 4.22415ZM4.98181 2.46009C5.34647 2.26363 5.48284 1.80876 5.28638 1.4441C5.08993 1.07943 4.63506 0.943071 4.27039 1.13952L4.98181 2.46009ZM13.7199 1.15062C13.3573 0.950301 12.901 1.08182 12.7007 1.44438C12.5004 1.80694 12.6319 2.26323 12.9945 2.46355L13.7199 1.15062ZM15.0509 4.76743C15.2009 5.15353 15.6355 5.34492 16.0216 5.19492C16.4077 5.04491 16.5991 4.61032 16.4491 4.22422L15.0509 4.76743ZM3.36923 13.3223C3.90073 12.5758 4.42798 11.4626 4.42798 10.1049H2.92798C2.92798 11.0692 2.5518 11.8842 2.1473 12.4523L3.36923 13.3223ZM4.42793 10.1135L4.44724 8.4313L2.94734 8.41409L2.92803 10.0963L4.42793 10.1135ZM15.8689 12.4779C15.4812 11.9101 15.1144 11.0857 15.1144 10.1049H13.6144C13.6144 11.4621 14.1198 12.5763 14.6301 13.3237L15.8689 12.4779ZM15.1143 10.114L15.1336 8.51511L13.6337 8.497L13.6144 10.0959L15.1143 10.114ZM15.1337 8.50606C15.1337 4.96682 12.4332 2.01346 9.00141 2.01346V3.51346C11.5147 3.51346 13.6337 5.7022 13.6337 8.50606H15.1337ZM14.9274 14.4305C15.5123 14.4305 15.8527 13.9972 15.9812 13.6751C16.1125 13.3461 16.1407 12.876 15.8689 12.4779L14.6301 13.3237C14.589 13.2636 14.5798 13.2099 14.5783 13.1825C14.5769 13.1558 14.5813 13.1361 14.588 13.1192C14.5942 13.1037 14.6127 13.0652 14.6623 13.0236C14.7175 12.9774 14.8103 12.9305 14.9274 12.9305V14.4305ZM4.44729 8.4227C4.44729 5.66488 6.53128 3.51346 9.00141 3.51346V2.01346C5.61277 2.01346 2.94729 4.9295 2.94729 8.4227H4.44729ZM3.07623 12.9305C3.19586 12.9305 3.28971 12.9792 3.34439 13.0259C3.39337 13.0677 3.41065 13.1055 3.41604 13.1195C3.42199 13.1348 3.42609 13.1533 3.42439 13.1794C3.42265 13.2062 3.41283 13.2611 3.36923 13.3223L2.1473 12.4523C1.863 12.8516 1.889 13.3297 2.01712 13.6608C2.14222 13.9841 2.48173 14.4305 3.07623 14.4305V12.9305ZM14.9274 12.9305H3.07623V14.4305H14.9274V12.9305ZM6.89253 16.9498H11.1103V15.4498H6.89253V16.9498ZM2.94615 4.78227C3.34725 3.78167 4.06119 2.95604 4.98181 2.46009L4.27039 1.13952C3.02015 1.81306 2.07676 2.91969 1.55385 4.22415L2.94615 4.78227ZM12.9945 2.46355C13.9421 2.9871 14.6739 3.79702 15.0509 4.76743L16.4491 4.22422C15.9357 2.90279 14.9521 1.8314 13.7199 1.15062L12.9945 2.46355Z" fill="#FF7E21"/>
</svg>
