<svg xmlns="http://www.w3.org/2000/svg" width="28" height="28" viewBox="0 0 28 28" fill="none">
    <path d="M12.0378 13.1284L11.375 15.7856C12.1931 15.9919 14.7169 16.799 15.0875 15.3002C15.4807 13.7369 12.8573 13.3326 12.0378 13.1284Z" fill="white"/>
    <path d="M12.9427 9.50195L12.3418 11.9082C13.0231 12.078 15.1234 12.771 15.4637 11.4077C15.8185 9.9887 13.624 9.67177 12.9427 9.50195Z" fill="white"/>
    <path d="M13 2C10.8244 2 8.69767 2.64514 6.88873 3.85383C5.07979 5.06253 3.66989 6.78049 2.83733 8.79048C2.00477 10.8005 1.78693 13.0122 2.21137 15.146C2.6358 17.2798 3.68345 19.2398 5.22183 20.7782C6.76021 22.3165 8.72022 23.3642 10.854 23.7886C12.9878 24.2131 15.1995 23.9952 17.2095 23.1627C19.2195 22.3301 20.9375 20.9202 22.1462 19.1113C23.3549 17.3023 24 15.1756 24 13C24 10.0826 22.8411 7.28472 20.7782 5.22182C18.7153 3.15893 15.9174 2 13 2ZM17.8489 11.4325C17.8239 11.8569 17.6591 12.261 17.3803 12.5819C17.1015 12.9027 16.7243 13.1223 16.3076 13.2062C17.3904 13.77 17.9418 14.6349 17.4165 16.1336C16.7654 17.9954 15.2165 18.1521 13.1588 17.763L12.6597 19.765L11.4524 19.4625L11.9454 17.4873C11.6326 17.4096 11.3129 17.3271 10.9829 17.2377L10.4886 19.2226L9.28269 18.9214L9.7825 16.9187L7.3515 16.3L7.951 14.9181C7.951 14.9181 8.83994 15.1546 8.82825 15.1374C8.93921 15.1723 9.05948 15.1617 9.16262 15.108C9.26576 15.0542 9.34332 14.9617 9.37825 14.8507L10.7333 9.4195C10.7502 9.25208 10.7007 9.08472 10.5956 8.95335C10.4905 8.82198 10.338 8.73708 10.1709 8.71687C10.1895 8.7045 9.29369 8.49894 9.29369 8.49894L9.6175 7.21125L12.0519 7.81419L12.5463 5.83212L13.7528 6.13325L13.2716 8.07612C13.5954 8.15037 13.9213 8.22462 14.2389 8.30369L14.7201 6.37319L15.9267 6.67431L15.4324 8.65706C16.9531 9.18231 18.0676 9.96881 17.8489 11.4325Z" fill="white"/>
</svg>
