<svg width="12" height="14" viewBox="0 0 12 14" fill="none" xmlns="http://www.w3.org/2000/svg">
<g id="formkit:bitcoin">
<path id="Vector" fill-rule="evenodd" clip-rule="evenodd" d="M9.13256 6.53625C9.79756 6.195 10.2176 5.6 10.1213 4.6025C9.99006 3.2375 8.81756 2.7825 7.33006 2.65125V0.875H6.18381V2.625H5.26506V0.875H4.11881V2.625C3.86506 2.625 3.62881 2.63375 3.38381 2.63375H1.96631V3.885C1.96631 3.885 2.64006 3.8675 2.62256 3.885C3.08631 3.885 3.24381 4.15625 3.28756 4.3925V6.545V9.555C3.27006 9.70375 3.18256 9.94 2.85881 9.94C2.87631 9.94875 2.20256 9.94 2.20256 9.94L1.97506 11.3663H4.11006V13.1163H5.25631V11.3663H6.17506V13.1163H7.32131V11.3225C9.25506 11.2087 10.6026 10.7275 10.7776 8.9075C10.9176 7.44625 10.2263 6.79 9.13256 6.5275V6.53625ZM5.28256 3.96375H5.51881C6.32381 3.94625 7.96881 3.9025 7.96881 5.11875C7.96881 6.30875 6.25381 6.2825 5.46631 6.265H5.27381V3.9725L5.28256 3.96375ZM8.50256 8.68C8.50256 9.9925 6.44631 9.9575 5.50131 9.94875H5.27381V7.42H5.55381C6.51631 7.39375 8.49381 7.35 8.49381 8.68875L8.50256 8.68Z" fill="black"/>
</g>
</svg>
