<svg width="67" height="37" viewBox="0 0 67 37" fill="none" xmlns="http://www.w3.org/2000/svg">
<path d="M16.8008 0.652832H9.22959C7.66155 0.652832 6.39038 1.924 6.39038 3.49204V9.17046C6.39038 9.69314 6.81413 10.1169 7.33681 10.1169H18.6937C19.2163 10.1169 19.6401 9.69314 19.6401 9.17046V3.49204C19.64 1.924 18.3688 0.652832 16.8008 0.652832Z" fill="#121212"/>
<path d="M37.5667 0.652832H29.9955C28.4274 0.652832 27.1562 1.924 27.1562 3.49204V9.17046C27.1562 9.69314 27.58 10.1169 28.1027 10.1169H39.4595C39.9822 10.1169 40.406 9.69314 40.406 9.17046V3.49204C40.4059 1.924 39.1347 0.652832 37.5667 0.652832Z" fill="#121212"/>
<path d="M58.1494 0.652832H50.5782C49.0102 0.652832 47.739 1.924 47.739 3.49204V9.17046C47.739 9.69314 48.1628 10.1169 48.6854 10.1169H60.0423C60.565 10.1169 60.9887 9.69314 60.9887 9.17046V3.49204C60.9886 1.924 59.7175 0.652832 58.1494 0.652832Z" fill="#121212"/>
<path fill-rule="evenodd" clip-rule="evenodd" d="M3.55112 7.52832H63.9261C65.4941 7.52832 66.7653 8.79949 66.7654 10.3675V35.4047C66.7654 35.9274 66.3416 36.3512 65.8189 36.3512H54.0718V34.4307C54.0717 32.8627 52.8005 31.5915 51.2325 31.5915H43.6613C42.0932 31.5915 40.8221 32.8627 40.8221 34.4307V36.3512H26.0417V34.4305C26.0416 32.8625 24.7704 31.5913 23.2024 31.5913H15.6312C14.0632 31.5913 12.792 32.8625 12.792 34.4305V36.3512H1.65835C1.13567 36.3512 0.711914 35.9274 0.711914 35.4047V10.3675C0.711914 8.79949 1.98308 7.52832 3.55112 7.52832Z" fill="#464646"/>
<g clip-path="url(#clip0_32337_20832)">
<path d="M34.4233 22.3119H28.7091C28.5703 22.3119 28.5292 22.2756 28.5268 22.116C28.5206 21.6459 28.5176 21.176 28.5176 20.7062C28.5176 20.5098 28.5321 20.313 28.5277 20.1166C28.521 19.7781 28.8377 19.5503 29.1212 19.5508C32.6285 19.5579 36.1359 19.5588 39.6433 19.5537C39.8183 19.5537 39.9745 19.5871 40.1119 19.6988C40.1827 19.7508 40.2405 19.8185 40.2806 19.8966C40.3207 19.9748 40.3421 20.0612 40.3431 20.149C40.3479 20.8194 40.3503 21.4895 40.3503 22.1595C40.3503 22.2858 40.286 22.3322 40.138 22.3322C39.2491 22.3322 38.3603 22.3312 37.4717 22.3293H34.4248L34.4233 22.3119Z" fill="white"/>
<path d="M34.4341 19.2009C33.6876 19.2009 32.9412 19.2009 32.1948 19.2009C31.9892 19.2009 31.9559 19.168 31.9626 18.9649C31.9656 18.8382 31.9795 18.7119 32.0042 18.5876C32.0618 18.3129 32.2557 18.1441 32.5005 18.0493C32.6856 17.986 32.8772 17.943 33.0716 17.9212C33.1737 17.9062 33.2453 17.8728 33.2791 17.7761C33.3043 17.7079 33.3254 17.6383 33.3425 17.5676C33.4566 17.0356 33.5427 16.5036 33.5267 15.9557C33.5143 15.5848 33.3812 15.2282 33.1476 14.94C32.7979 14.4868 32.4676 14.0211 32.2093 13.5094C31.9133 12.9223 31.731 12.3075 31.746 11.6435C31.7561 11.0493 31.966 10.4759 32.3418 10.0156C33.0112 9.18081 33.8958 8.88434 34.9351 9.03959C35.7278 9.1576 36.3294 9.59578 36.7575 10.2574C37.1671 10.891 37.2658 11.5937 37.1212 12.3332C37.0375 12.7617 36.905 13.1713 36.668 13.5423C36.4039 13.9553 36.1447 14.3722 35.8632 14.7736C35.559 15.2089 35.3868 15.6713 35.3902 16.2086C35.3931 16.7155 35.4729 17.2088 35.5798 17.7001C35.6209 17.8888 35.6741 17.9212 35.8647 17.9347C36.1607 17.956 36.4368 18.0247 36.6617 18.2418C36.8108 18.379 36.9025 18.5675 36.9185 18.7695C36.9258 18.8527 36.9282 18.9363 36.9277 19.02C36.9277 19.1574 36.8672 19.2212 36.728 19.2246C36.5785 19.2289 36.4296 19.2246 36.2801 19.2246H34.4341V19.2009ZM34.4756 13.552C35.4468 13.5495 36.269 12.7288 36.2612 11.7567C36.2535 10.7846 35.4995 9.9498 34.4423 9.95367C33.475 9.95706 32.6673 10.7841 32.6702 11.7635C32.6731 12.7428 33.4953 13.5549 34.4756 13.552Z" fill="white"/>
<path d="M28.9219 24.6013C29.5923 24.6013 30.2626 24.5878 30.932 24.6096C31.1307 24.6158 31.3334 24.7063 31.522 24.7846C31.8455 24.9143 32.1274 25.13 32.3369 25.4085C32.7398 25.9642 32.9236 26.5741 32.7625 27.2604C32.7364 27.3739 32.7041 27.486 32.6658 27.596C32.6174 27.7358 32.5333 27.7711 32.3916 27.7319C32.1969 27.6798 32.0225 27.5698 31.8915 27.4166C31.8427 27.3623 31.8079 27.2969 31.7901 27.2261C31.7723 27.1553 31.7721 27.0813 31.7895 27.0103C31.8487 26.7438 31.8031 26.4646 31.6623 26.2307C31.4267 25.8438 31.0978 25.602 30.6234 25.602C29.4801 25.602 28.3367 25.602 27.1934 25.602C26.8065 25.602 26.497 25.7732 26.2639 26.0726C25.8474 26.6094 26.0056 27.3784 26.4994 27.7358C26.7119 27.8987 26.9716 27.988 27.2394 27.9902C28.2845 27.9926 29.3297 28.0008 30.3743 28.0052C30.4213 28.0053 30.4677 28.0164 30.5096 28.0375C30.5516 28.0587 30.5881 28.0894 30.6161 28.1271C30.7922 28.3297 30.9784 28.5241 31.1583 28.7239C31.1922 28.7621 31.2454 28.8274 31.2333 28.853C31.2182 28.8761 31.1986 28.8957 31.1755 28.9107C31.1524 28.9257 31.1265 28.9357 31.0993 28.9401C30.9558 28.9685 30.8102 28.9847 30.664 28.9884C29.4622 28.9884 28.2603 29.0097 27.0594 28.9754C26.1802 28.9507 25.5737 28.4574 25.1989 27.6812C24.9806 27.2245 24.939 26.7031 25.0823 26.2177C25.255 25.5928 25.6279 25.1053 26.2276 24.8175C26.5035 24.6758 26.8092 24.602 27.1194 24.6023C27.7201 24.611 28.3213 24.6047 28.9219 24.6047V24.6013Z" fill="white"/>
<path d="M39.7739 24.6066C40.3673 24.6066 40.9608 24.6129 41.5542 24.6066C42.0344 24.5999 42.4436 24.7749 42.8083 25.0675C43.5144 25.6339 43.7794 26.3772 43.5981 27.2526C43.4351 28.0395 42.9403 28.5725 42.1931 28.8704C41.9616 28.9583 41.7152 29.0002 41.4676 28.9937C40.3935 28.9889 39.3193 28.9962 38.2451 28.9937C37.9433 28.9937 37.6401 28.9908 37.3489 28.8883C36.7937 28.6919 36.3667 28.3447 36.0915 27.8195C35.7844 27.2352 35.7573 26.6307 35.9686 26.0116C36.0276 25.8394 36.1292 25.7993 36.3028 25.8597C36.5258 25.9376 36.7197 26.0571 36.8387 26.266C36.8777 26.3342 36.8929 26.4136 36.8817 26.4914C36.7526 27.11 37.0428 27.6686 37.6285 27.906C37.7665 27.963 37.9145 27.9918 38.0638 27.9907C39.196 27.9863 40.3286 27.9907 41.4609 27.9907C41.8879 27.9907 42.3672 27.6705 42.5273 27.2758C42.8141 26.5668 42.4847 25.8419 41.6944 25.6199C41.6483 25.6091 41.601 25.6044 41.5537 25.6058C40.4689 25.5942 39.3836 25.5812 38.2988 25.5744C38.1745 25.5744 38.1053 25.5188 38.028 25.4293C37.8577 25.232 37.6696 25.0501 37.4916 24.8596C37.4616 24.8277 37.4171 24.7778 37.4254 24.7493C37.4348 24.7272 37.449 24.7074 37.467 24.6915C37.485 24.6755 37.5063 24.6637 37.5293 24.6569C37.6272 24.6297 37.7281 24.6146 37.8297 24.612C38.4778 24.6081 39.1258 24.612 39.7744 24.612L39.7739 24.6066Z" fill="white"/>
<path d="M34.435 22.7524H39.461C39.5668 22.7524 39.6724 22.7553 39.7778 22.7611C39.9012 22.7674 39.9408 22.8056 39.9408 22.9304C39.9408 23.1016 39.9379 23.2728 39.9253 23.4436C39.9203 23.5337 39.8801 23.6183 39.8134 23.6791C39.7466 23.7399 39.6586 23.772 39.5684 23.7686C39.2806 23.7686 31.139 23.7526 29.4859 23.7454C29.4134 23.7454 29.3409 23.7396 29.2678 23.7333C29.084 23.7168 28.9573 23.607 28.9414 23.4262C28.9254 23.2453 28.9273 23.077 28.9278 22.9024C28.9278 22.795 29.0067 22.7766 29.0952 22.7757C29.4627 22.7728 29.8303 22.766 30.1983 22.7655C31.6109 22.7655 33.0236 22.7655 34.4365 22.7655L34.435 22.7524Z" fill="white"/>
<path d="M34.2377 24.5917C34.8567 24.5917 35.4763 24.5728 36.0944 24.5961C37.0075 24.6304 37.6599 25.0826 38.0449 25.9101C38.2954 26.4489 38.2867 27.0027 38.0976 27.5584C38.0362 27.7392 37.9549 27.7823 37.7716 27.7281C37.5599 27.666 37.3758 27.5334 37.2498 27.3523C37.2044 27.2718 37.1813 27.1807 37.183 27.0883C37.1729 26.8948 37.2106 26.697 37.1724 26.5127C37.0858 26.0982 36.8208 25.8163 36.4223 25.6736C36.2961 25.6298 36.1636 25.607 36.03 25.6059C34.9928 25.5946 33.9554 25.5882 32.9178 25.5866C32.8672 25.5875 32.817 25.577 32.7711 25.5557C32.7252 25.5344 32.6847 25.503 32.6528 25.4637C32.4656 25.2562 32.2717 25.055 32.0845 24.848C32.054 24.8137 32.0168 24.7513 32.0294 24.7208C32.0431 24.6991 32.0613 24.6804 32.0827 24.6661C32.1041 24.6518 32.1283 24.6421 32.1537 24.6376C32.2576 24.6194 32.363 24.6105 32.4685 24.611C33.0586 24.611 33.6481 24.611 34.2377 24.611V24.5917Z" fill="white"/>
<path d="M34.2822 28.9886C33.6559 28.9886 33.0291 29.0016 32.4033 28.9837C31.9545 28.9712 31.568 28.7647 31.229 28.4837C30.6153 27.9739 30.372 27.3045 30.4445 26.5206C30.462 26.3348 30.5268 26.1515 30.5853 25.9726C30.6303 25.8372 30.7076 25.8072 30.8435 25.8454C31.0236 25.895 31.188 25.9899 31.3209 26.1211C31.3838 26.1757 31.4309 26.2462 31.4573 26.3252C31.4837 26.4043 31.4884 26.4889 31.4708 26.5704C31.3606 27.188 31.702 27.7403 32.2974 27.9338C32.4006 27.9667 32.5082 27.984 32.6166 27.985C33.6619 27.9947 34.707 28.0013 35.752 28.0049C35.8027 28.0044 35.8528 28.0155 35.8985 28.0374C35.9442 28.0593 35.9842 28.0913 36.0156 28.1311C36.1941 28.3318 36.3841 28.5223 36.565 28.7216C36.6008 28.7608 36.6453 28.8266 36.6337 28.8667C36.6221 28.9068 36.5466 28.9417 36.4973 28.9451C36.1491 28.9678 35.8004 28.9895 35.4517 28.9973C35.0619 29.006 34.6721 28.9973 34.2822 28.9973V28.9886Z" fill="white"/>
<path d="M34.4612 10.0933C34.133 10.0939 33.8125 10.1919 33.54 10.3747C33.2675 10.5575 33.0554 10.817 32.9303 11.1204C32.8053 11.4238 32.7731 11.7574 32.8376 12.0791C32.9022 12.4009 33.0607 12.6962 33.2931 12.9279C33.5255 13.1595 33.8213 13.3171 34.1433 13.3806C34.4652 13.4441 34.7987 13.4108 35.1017 13.2848C35.4047 13.1588 35.6635 12.9458 35.8454 12.6728C36.0274 12.3997 36.1243 12.0788 36.1239 11.7507C36.1238 11.5326 36.0807 11.3167 35.997 11.1154C35.9133 10.914 35.7907 10.7311 35.6363 10.5771C35.4819 10.4232 35.2986 10.3012 35.0969 10.2182C34.8953 10.1351 34.6792 10.0927 34.4612 10.0933ZM34.9583 11.8218C34.9914 11.8401 35.0219 11.8625 35.0493 11.8885C35.0791 11.9173 35.1019 11.9527 35.1158 11.9918C35.1296 12.0309 35.1342 12.0727 35.1291 12.1139C35.1229 12.1781 35.1048 12.2406 35.0759 12.2982C35.0521 12.3496 35.0159 12.3943 34.9704 12.4281C34.925 12.4619 34.8718 12.4837 34.8157 12.4916C34.7374 12.5035 34.6579 12.5035 34.5797 12.4916C34.5531 12.4878 34.526 12.4839 34.4999 12.4786C34.4863 12.4757 34.482 12.4786 34.4786 12.4921C34.4578 12.5782 34.4355 12.6643 34.4147 12.7504C34.4113 12.7634 34.407 12.7664 34.3939 12.763C34.3456 12.7504 34.2972 12.7383 34.2488 12.7272C34.2368 12.7243 34.2334 12.7199 34.2368 12.7073C34.2585 12.6222 34.2793 12.5371 34.3011 12.452C34.3045 12.4389 34.3011 12.4346 34.289 12.4317C34.2522 12.423 34.2155 12.4133 34.1792 12.4031C34.1681 12.4002 34.1637 12.4031 34.1613 12.4143C34.1405 12.4999 34.1187 12.585 34.0975 12.6701C34.0931 12.688 34.0931 12.688 34.0757 12.6836C34.0273 12.672 33.979 12.6595 33.9306 12.6483C33.919 12.6454 33.9166 12.6406 33.9195 12.6295C33.9417 12.5429 33.9625 12.4554 33.9848 12.3688C33.9882 12.3562 33.9848 12.3519 33.9727 12.3485C33.8658 12.3224 33.7594 12.2953 33.6525 12.2682C33.6356 12.2638 33.6356 12.2638 33.6424 12.2474C33.667 12.1903 33.6907 12.1333 33.7164 12.0762C33.7207 12.066 33.7255 12.0636 33.7367 12.0665C33.7739 12.0767 33.8111 12.0868 33.8489 12.0946C33.858 12.0977 33.8677 12.0987 33.8773 12.0975C33.8869 12.0963 33.8961 12.093 33.9042 12.0878C33.9123 12.0826 33.9192 12.0757 33.9243 12.0675C33.9293 12.0592 33.9325 12.05 33.9335 12.0404C33.9553 11.9524 33.9775 11.8648 33.9993 11.7768C34.0406 11.6108 34.0818 11.445 34.1231 11.2796C34.1266 11.2686 34.1279 11.257 34.1269 11.2454C34.126 11.2338 34.1227 11.2226 34.1173 11.2123C34.112 11.202 34.1047 11.1929 34.0958 11.1854C34.0869 11.178 34.0766 11.1724 34.0655 11.1689C34.0303 11.1568 33.9943 11.1471 33.9577 11.1399C33.9491 11.1373 33.9404 11.1352 33.9316 11.1336C33.9205 11.1336 33.9185 11.1273 33.9209 11.1167C33.9325 11.0736 33.9427 11.0306 33.9533 10.9875C33.9564 10.9777 33.9589 10.9677 33.9606 10.9575C33.9606 10.9464 33.9674 10.9435 33.979 10.9464C34.0273 10.9585 34.0709 10.9696 34.1173 10.9812C34.1787 10.9962 34.2401 11.0112 34.3016 11.0296C34.3146 11.033 34.3195 11.0296 34.3224 11.017C34.3432 10.9319 34.3649 10.8468 34.3857 10.7612C34.3891 10.7476 34.3939 10.7457 34.4065 10.7491C34.4549 10.7617 34.5032 10.7738 34.5516 10.7849C34.5632 10.7878 34.5651 10.7921 34.5627 10.8033C34.5414 10.8869 34.5206 10.9701 34.4999 11.0538C34.4955 11.0712 34.4955 11.0712 34.5119 11.0751C34.5482 11.0833 34.585 11.0915 34.6208 11.1007C34.6329 11.1041 34.6372 11.1007 34.6401 11.0891C34.6599 11.0069 34.6807 10.9246 34.701 10.8424C34.7059 10.8236 34.7059 10.8236 34.7238 10.8279C34.7721 10.8395 34.8176 10.8516 34.8645 10.8627C34.8776 10.8661 34.881 10.8705 34.8776 10.8835C34.8558 10.9682 34.835 11.0533 34.8133 11.1379C34.8099 11.1515 34.8133 11.1573 34.8263 11.1621C34.902 11.1864 34.9734 11.2226 35.0377 11.2695C35.0988 11.3101 35.1418 11.3729 35.1576 11.4446C35.1692 11.4971 35.1679 11.5516 35.1538 11.6036C35.1396 11.6555 35.113 11.7031 35.0764 11.7425C35.0438 11.7733 35.0035 11.7949 34.9598 11.8049C34.955 11.8049 34.9492 11.8049 34.9453 11.8107C34.9487 11.8174 34.954 11.8189 34.9583 11.8218Z" fill="white"/>
<path d="M34.7698 11.3929C34.7443 11.3714 34.7158 11.3538 34.6851 11.3407C34.6137 11.312 34.5397 11.2905 34.4641 11.2764C34.4539 11.2764 34.4525 11.2798 34.4506 11.2875C34.4341 11.3542 34.4177 11.421 34.4022 11.4877C34.392 11.5288 34.3819 11.5704 34.3712 11.6115C34.3688 11.6207 34.3712 11.6256 34.3804 11.6275C34.3896 11.6294 34.3983 11.6323 34.4075 11.6347C34.4785 11.6557 34.5517 11.668 34.6256 11.6715C34.6501 11.6718 34.6746 11.6697 34.6987 11.6652C34.7272 11.6605 34.7538 11.6474 34.775 11.6278C34.7962 11.6081 34.8112 11.5826 34.8181 11.5545C34.8271 11.5258 34.8273 11.4951 34.8187 11.4663C34.8101 11.4375 34.793 11.4119 34.7698 11.3929Z" fill="white"/>
<path d="M34.6062 11.8845C34.5169 11.849 34.4242 11.8224 34.3296 11.8052C34.3209 11.8052 34.3189 11.8052 34.3175 11.8144C34.2875 11.9353 34.2572 12.0562 34.2266 12.1771C34.2266 12.1863 34.2266 12.1902 34.2358 12.1921L34.303 12.2095C34.3819 12.2313 34.463 12.2441 34.5448 12.2477C34.5762 12.2479 34.6076 12.2443 34.6381 12.2371C34.6677 12.2316 34.695 12.2179 34.7169 12.1974C34.7389 12.1769 34.7545 12.1506 34.762 12.1215C34.7707 12.0921 34.7708 12.0608 34.7623 12.0314C34.7537 12.002 34.7368 11.9756 34.7136 11.9556C34.6824 11.9256 34.646 11.9015 34.6062 11.8845Z" fill="white"/>
</g>
<defs>
<clipPath id="clip0_32337_20832">
<rect width="18.6531" height="20" fill="white" transform="translate(25 9)"/>
</clipPath>
</defs>
</svg>
