<svg width="68" height="68" viewBox="0 0 68 68" fill="none" xmlns="http://www.w3.org/2000/svg">
<rect width="68" height="68" rx="34" fill="#F7931A"/>
<path d="M13.712 33.9H15.62C15.956 33.9 16.232 33.82 16.448 33.66C16.664 33.5 16.772 33.24 16.772 32.88C16.772 32.68 16.736 32.516 16.664 32.388C16.592 32.26 16.496 32.16 16.376 32.088C16.256 32.016 16.116 31.968 15.956 31.944C15.804 31.912 15.644 31.896 15.476 31.896H13.712V33.9ZM11.828 30.432H15.86C16.268 30.432 16.64 30.468 16.976 30.54C17.312 30.612 17.6 30.732 17.84 30.9C18.08 31.06 18.264 31.276 18.392 31.548C18.528 31.82 18.596 32.156 18.596 32.556C18.596 32.988 18.496 33.348 18.296 33.636C18.104 33.924 17.816 34.16 17.432 34.344C17.96 34.496 18.352 34.764 18.608 35.148C18.872 35.524 19.004 35.98 19.004 36.516C19.004 36.948 18.92 37.324 18.752 37.644C18.584 37.956 18.356 38.212 18.068 38.412C17.788 38.612 17.464 38.76 17.096 38.856C16.736 38.952 16.364 39 15.98 39H11.828V30.432ZM13.712 37.536H15.728C15.912 37.536 16.088 37.52 16.256 37.488C16.424 37.448 16.572 37.388 16.7 37.308C16.828 37.22 16.928 37.104 17 36.96C17.08 36.816 17.12 36.632 17.12 36.408C17.12 35.968 16.996 35.656 16.748 35.472C16.5 35.28 16.172 35.184 15.764 35.184H13.712V37.536ZM22.2812 34.308H24.3452C24.7772 34.308 25.1012 34.212 25.3172 34.02C25.5332 33.828 25.6412 33.516 25.6412 33.084C25.6412 32.668 25.5332 32.368 25.3172 32.184C25.1012 31.992 24.7772 31.896 24.3452 31.896H22.2812V34.308ZM20.3972 30.432H25.0172C25.4012 30.432 25.7452 30.496 26.0492 30.624C26.3612 30.744 26.6252 30.912 26.8412 31.128C27.0652 31.344 27.2332 31.596 27.3452 31.884C27.4652 32.164 27.5252 32.468 27.5252 32.796C27.5252 33.3 27.4172 33.736 27.2012 34.104C26.9932 34.472 26.6492 34.752 26.1692 34.944V34.968C26.4012 35.032 26.5932 35.132 26.7452 35.268C26.8972 35.396 27.0212 35.552 27.1172 35.736C27.2132 35.912 27.2812 36.108 27.3212 36.324C27.3692 36.54 27.4012 36.756 27.4172 36.972C27.4252 37.108 27.4332 37.268 27.4412 37.452C27.4492 37.636 27.4612 37.824 27.4772 38.016C27.5012 38.208 27.5332 38.392 27.5732 38.568C27.6212 38.736 27.6892 38.88 27.7772 39H25.8932C25.7892 38.728 25.7252 38.404 25.7012 38.028C25.6772 37.652 25.6412 37.292 25.5932 36.948C25.5292 36.5 25.3932 36.172 25.1852 35.964C24.9772 35.756 24.6372 35.652 24.1652 35.652H22.2812V39H20.3972V30.432ZM34.8894 33.312C34.8574 33.096 34.7854 32.9 34.6734 32.724C34.5614 32.54 34.4214 32.38 34.2534 32.244C34.0854 32.108 33.8934 32.004 33.6774 31.932C33.4694 31.852 33.2494 31.812 33.0174 31.812C32.5934 31.812 32.2334 31.896 31.9374 32.064C31.6414 32.224 31.4014 32.444 31.2174 32.724C31.0334 32.996 30.8974 33.308 30.8094 33.66C30.7294 34.012 30.6894 34.376 30.6894 34.752C30.6894 35.112 30.7294 35.464 30.8094 35.808C30.8974 36.144 31.0334 36.448 31.2174 36.72C31.4014 36.992 31.6414 37.212 31.9374 37.38C32.2334 37.54 32.5934 37.62 33.0174 37.62C33.5934 37.62 34.0414 37.444 34.3614 37.092C34.6894 36.74 34.8894 36.276 34.9614 35.7H36.7854C36.7374 36.236 36.6134 36.72 36.4134 37.152C36.2134 37.584 35.9494 37.952 35.6214 38.256C35.2934 38.56 34.9094 38.792 34.4694 38.952C34.0294 39.112 33.5454 39.192 33.0174 39.192C32.3614 39.192 31.7694 39.08 31.2414 38.856C30.7214 38.624 30.2814 38.308 29.9214 37.908C29.5614 37.508 29.2854 37.04 29.0934 36.504C28.9014 35.96 28.8054 35.376 28.8054 34.752C28.8054 34.112 28.9014 33.52 29.0934 32.976C29.2854 32.424 29.5614 31.944 29.9214 31.536C30.2814 31.128 30.7214 30.808 31.2414 30.576C31.7694 30.344 32.3614 30.228 33.0174 30.228C33.4894 30.228 33.9334 30.296 34.3494 30.432C34.7734 30.568 35.1494 30.768 35.4774 31.032C35.8134 31.288 36.0894 31.608 36.3054 31.992C36.5214 32.376 36.6574 32.816 36.7134 33.312H34.8894ZM37.9999 34.992H41.6119V36.456H37.9999V34.992ZM42.8146 33.828C42.7986 33.348 42.8546 32.904 42.9826 32.496C43.1106 32.08 43.3026 31.72 43.5586 31.416C43.8146 31.104 44.1346 30.864 44.5186 30.696C44.9106 30.52 45.3586 30.432 45.8626 30.432C46.2466 30.432 46.6106 30.492 46.9546 30.612C47.3066 30.732 47.6146 30.904 47.8786 31.128C48.1426 31.352 48.3506 31.628 48.5026 31.956C48.6626 32.284 48.7426 32.652 48.7426 33.06C48.7426 33.484 48.6746 33.848 48.5386 34.152C48.4026 34.456 48.2226 34.728 47.9986 34.968C47.7746 35.2 47.5186 35.412 47.2306 35.604C46.9506 35.796 46.6666 35.988 46.3786 36.18C46.0906 36.364 45.8106 36.564 45.5386 36.78C45.2666 36.996 45.0266 37.248 44.8186 37.536H48.7906V39H42.6226C42.6226 38.512 42.6906 38.088 42.8266 37.728C42.9706 37.368 43.1626 37.048 43.4026 36.768C43.6426 36.48 43.9226 36.216 44.2426 35.976C44.5706 35.736 44.9146 35.492 45.2746 35.244C45.4586 35.116 45.6546 34.988 45.8626 34.86C46.0706 34.724 46.2586 34.576 46.4266 34.416C46.6026 34.256 46.7466 34.076 46.8586 33.876C46.9786 33.676 47.0386 33.448 47.0386 33.192C47.0386 32.784 46.9186 32.468 46.6786 32.244C46.4466 32.012 46.1466 31.896 45.7786 31.896C45.5306 31.896 45.3186 31.956 45.1426 32.076C44.9746 32.188 44.8386 32.34 44.7346 32.532C44.6306 32.716 44.5546 32.924 44.5066 33.156C44.4666 33.38 44.4466 33.604 44.4466 33.828H42.8146ZM51.1146 34.764C51.1146 35.004 51.1226 35.296 51.1386 35.64C51.1546 35.976 51.2026 36.304 51.2826 36.624C51.3706 36.936 51.5066 37.204 51.6906 37.428C51.8746 37.652 52.1386 37.764 52.4826 37.764C52.8346 37.764 53.1026 37.652 53.2866 37.428C53.4786 37.204 53.6146 36.936 53.6946 36.624C53.7826 36.304 53.8346 35.976 53.8506 35.64C53.8666 35.296 53.8746 35.004 53.8746 34.764C53.8746 34.62 53.8706 34.448 53.8626 34.248C53.8626 34.04 53.8466 33.828 53.8146 33.612C53.7906 33.396 53.7506 33.184 53.6946 32.976C53.6466 32.76 53.5706 32.568 53.4666 32.4C53.3626 32.232 53.2306 32.096 53.0706 31.992C52.9106 31.888 52.7146 31.836 52.4826 31.836C52.2506 31.836 52.0546 31.888 51.8946 31.992C51.7426 32.096 51.6146 32.232 51.5106 32.4C51.4146 32.568 51.3386 32.76 51.2826 32.976C51.2266 33.184 51.1866 33.396 51.1626 33.612C51.1386 33.828 51.1226 34.04 51.1146 34.248C51.1146 34.448 51.1146 34.62 51.1146 34.764ZM49.4106 34.764C49.4106 33.948 49.4906 33.264 49.6506 32.712C49.8186 32.152 50.0426 31.704 50.3226 31.368C50.6026 31.032 50.9266 30.792 51.2946 30.648C51.6706 30.504 52.0666 30.432 52.4826 30.432C52.9066 30.432 53.3026 30.504 53.6706 30.648C54.0466 30.792 54.3746 31.032 54.6546 31.368C54.9426 31.704 55.1666 32.152 55.3266 32.712C55.4946 33.264 55.5786 33.948 55.5786 34.764C55.5786 35.604 55.4946 36.308 55.3266 36.876C55.1666 37.436 54.9426 37.884 54.6546 38.22C54.3746 38.556 54.0466 38.796 53.6706 38.94C53.3026 39.084 52.9066 39.156 52.4826 39.156C52.0666 39.156 51.6706 39.084 51.2946 38.94C50.9266 38.796 50.6026 38.556 50.3226 38.22C50.0426 37.884 49.8186 37.436 49.6506 36.876C49.4906 36.308 49.4106 35.604 49.4106 34.764Z" fill="white"/>
</svg>
