
<svg width="72" height="73" viewBox="0 0 72 73" fill="none" xmlns="http://www.w3.org/2000/svg">
<path d="M70.9229 45.2086C66.1148 64.4945 46.5814 76.2315 27.2932 71.4222C8.01305 66.6142 -3.72397 47.0794 1.0862 27.7951C5.89215 8.50709 25.4256 -3.23082 44.7079 1.57724C63.9947 6.3853 75.731 25.9221 70.9224 45.2089L70.9227 45.2086H70.9229Z" fill="#F7931A"/>
<path fill-rule="evenodd" clip-rule="evenodd" d="M51.8785 31.3709C52.595 26.5801 48.9476 24.0048 43.9601 22.2869L45.5781 15.7973L41.6277 14.813L40.0526 21.1317C39.0141 20.8727 37.9475 20.6286 36.8875 20.3866L38.474 14.0262L34.5261 13.0419L32.9072 19.5293C32.0478 19.3337 31.2037 19.1403 30.3848 18.9365L30.3893 18.9161L24.9416 17.5557L23.8908 21.775C23.8908 21.775 26.8216 22.4468 26.7599 22.4882C28.3596 22.8874 28.6489 23.9464 28.6008 24.7858L26.7578 32.1789C26.8679 32.2069 27.0108 32.2474 27.1685 32.3107L27.0536 32.282C26.9562 32.2577 26.8549 32.2323 26.7509 32.2074L24.1676 42.5642C23.9721 43.0502 23.4759 43.7796 22.3574 43.5026C22.397 43.56 19.4862 42.7861 19.4862 42.7861L17.5249 47.308L22.6657 48.5896C23.2287 48.7307 23.7851 48.8758 24.3358 49.0193L24.3363 49.0195C24.7209 49.1197 25.1028 49.2193 25.4822 49.3163L23.8475 55.8803L27.7933 56.8647L29.4122 50.3703C30.4902 50.663 31.5363 50.9329 32.5604 51.1873L30.947 57.651L34.8975 58.6354L36.5321 52.0837C43.2684 53.3586 48.3335 52.8446 50.4655 46.7516C52.1834 41.8461 50.38 39.0166 46.836 37.1714C49.4173 36.5761 51.3615 34.8784 51.8799 31.3714L51.8787 31.3705L51.8785 31.3709ZM42.8527 44.0273C41.7327 48.528 34.6878 46.6673 31.4646 45.816L31.4645 45.816C31.1746 45.7394 30.9156 45.671 30.6946 45.6161L32.8639 36.9199C33.1333 36.9872 33.4624 37.061 33.8353 37.1447C37.1693 37.8929 44.0003 39.4259 42.8529 44.0273H42.8527ZM34.5041 33.1087C37.1913 33.8258 43.0535 35.3903 44.0745 31.2998H44.0748C45.1173 27.1162 39.4202 25.8548 36.6378 25.2388C36.3248 25.1695 36.0486 25.1084 35.8231 25.0522L33.8564 32.9391C34.0421 32.9854 34.26 33.0435 34.5041 33.1087Z" fill="white"/>
</svg>
