<svg width="204" height="48" viewBox="0 0 204 48" fill="none" xmlns="http://www.w3.org/2000/svg">
<path d="M49.9747 47.6925L46.103 32.4666H49.0612L52.2804 45.8436H52.5849L55.8041 32.4666H58.7622L54.8905 47.6925H49.9747Z" fill="url(#paint0_linear_27104_1800)"/>
<path d="M60.2449 47.6925V36.9039H62.9855V47.6925H60.2449ZM61.6152 35.6423C61.1222 35.6423 60.7017 35.4828 60.3536 35.1638C60.0201 34.8448 59.8534 34.4242 59.8534 33.9022C59.8534 33.3802 60.0201 32.9597 60.3536 32.6406C60.7017 32.3216 61.1222 32.1621 61.6152 32.1621C62.1227 32.1621 62.5433 32.3216 62.8768 32.6406C63.2103 32.9597 63.3771 33.3802 63.3771 33.9022C63.3771 34.4242 63.2103 34.8448 62.8768 35.1638C62.5433 35.4828 62.1227 35.6423 61.6152 35.6423Z" fill="url(#paint1_linear_27104_1800)"/>
<path d="M65.5875 47.6925V36.9039H68.2847V38.1219H68.6762C68.8357 37.6869 69.0967 37.3679 69.4593 37.1649C69.8363 36.9619 70.2713 36.8604 70.7643 36.8604H72.0694V39.2965H70.7208C70.0248 39.2965 69.452 39.485 69.0025 39.862C68.553 40.2246 68.3282 40.7901 68.3282 41.5586V47.6925H65.5875Z" fill="url(#paint2_linear_27104_1800)"/>
<path d="M77.9093 47.6925C77.1987 47.6925 76.6187 47.475 76.1692 47.0399C75.7341 46.5904 75.5166 45.9959 75.5166 45.2563V39.166H72.8195V36.9039H75.5166V33.5542H78.2573V36.9039H81.2154V39.166H78.2573V44.7778C78.2573 45.2128 78.4603 45.4304 78.8663 45.4304H80.9544V47.6925H77.9093Z" fill="url(#paint3_linear_27104_1800)"/>
<path d="M87.3722 47.8665C86.5312 47.8665 85.7916 47.678 85.1536 47.301C84.5301 46.9094 84.0443 46.3729 83.6963 45.6914C83.3483 45.0098 83.1742 44.2268 83.1742 43.3422V36.9039H85.9149V43.1247C85.9149 43.9368 86.1107 44.5458 86.5022 44.9518C86.9082 45.3579 87.481 45.5609 88.2205 45.5609C89.0616 45.5609 89.7141 45.2853 90.1781 44.7343C90.6422 44.1688 90.8742 43.3857 90.8742 42.3852V36.9039H93.6148V47.6925H90.9177V46.2787H90.5262C90.3522 46.6412 90.0259 46.9964 89.5474 47.3445C89.0688 47.6925 88.3438 47.8665 87.3722 47.8665Z" fill="url(#paint4_linear_27104_1800)"/>
<path d="M99.5793 47.997C98.8107 47.997 98.1219 47.8665 97.5129 47.6055C96.9039 47.33 96.4181 46.9384 96.0556 46.4309C95.7075 45.9089 95.5335 45.2781 95.5335 44.5386C95.5335 43.799 95.7075 43.1827 96.0556 42.6897C96.4181 42.1822 96.9111 41.8052 97.5346 41.5586C98.1727 41.2976 98.8977 41.1671 99.7098 41.1671H102.668V40.5581C102.668 40.0506 102.508 39.6373 102.189 39.3183C101.87 38.9847 101.363 38.818 100.667 38.818C99.9853 38.818 99.4777 38.9775 99.1442 39.2965C98.8107 39.601 98.5932 39.9998 98.4917 40.4928L95.9686 39.6445C96.1426 39.0935 96.4181 38.5932 96.7951 38.1437C97.1866 37.6797 97.7014 37.3099 98.3394 37.0344C98.992 36.7444 99.7823 36.5994 100.71 36.5994C102.131 36.5994 103.255 36.9546 104.082 37.6652C104.908 38.3757 105.322 39.4053 105.322 40.7538V44.7778C105.322 45.2128 105.525 45.4304 105.931 45.4304H106.801V47.6925H104.974C104.437 47.6925 103.995 47.562 103.647 47.301C103.299 47.0399 103.125 46.6919 103.125 46.2569V46.2352H102.711C102.653 46.4092 102.523 46.6412 102.32 46.9312C102.117 47.2067 101.798 47.4532 101.363 47.6707C100.928 47.8882 100.333 47.997 99.5793 47.997ZM100.058 45.7784C100.826 45.7784 101.45 45.5681 101.928 45.1476C102.421 44.7126 102.668 44.1398 102.668 43.4292V43.2117H99.9055C99.398 43.2117 98.9992 43.3205 98.7092 43.538C98.4192 43.7555 98.2742 44.06 98.2742 44.4516C98.2742 44.8431 98.4264 45.1621 98.731 45.4086C99.0355 45.6551 99.4777 45.7784 100.058 45.7784Z" fill="url(#paint5_linear_27104_1800)"/>
<path d="M108.369 47.6925V32.4666H111.11V47.6925H108.369Z" fill="url(#paint6_linear_27104_1800)"/>
<path d="M118.713 47.6925V32.4666H124.042L126.674 45.7349H127.065L129.697 32.4666H135.026V47.6925H132.242V34.5765H131.851L129.24 47.6925H124.499L121.889 34.5765H121.497V47.6925H118.713Z" fill="url(#paint7_linear_27104_1800)"/>
<path d="M140.896 47.997C140.127 47.997 139.438 47.8665 138.829 47.6055C138.22 47.33 137.734 46.9384 137.372 46.4309C137.024 45.9089 136.85 45.2781 136.85 44.5386C136.85 43.799 137.024 43.1827 137.372 42.6897C137.734 42.1822 138.227 41.8052 138.851 41.5586C139.489 41.2976 140.214 41.1671 141.026 41.1671H143.984V40.5581C143.984 40.0506 143.825 39.6373 143.506 39.3183C143.187 38.9847 142.679 38.818 141.983 38.818C141.302 38.818 140.794 38.9775 140.461 39.2965C140.127 39.601 139.909 39.9998 139.808 40.4928L137.285 39.6445C137.459 39.0935 137.734 38.5932 138.111 38.1437C138.503 37.6797 139.018 37.3099 139.656 37.0344C140.308 36.7444 141.099 36.5994 142.027 36.5994C143.448 36.5994 144.571 36.9546 145.398 37.6652C146.225 38.3757 146.638 39.4053 146.638 40.7538V44.7778C146.638 45.2128 146.841 45.4304 147.247 45.4304H148.117V47.6925H146.29C145.753 47.6925 145.311 47.562 144.963 47.301C144.615 47.0399 144.441 46.6919 144.441 46.2569V46.2352H144.028C143.97 46.4092 143.839 46.6412 143.636 46.9312C143.433 47.2067 143.114 47.4532 142.679 47.6707C142.244 47.8882 141.65 47.997 140.896 47.997ZM141.374 45.7784C142.143 45.7784 142.766 45.5681 143.245 45.1476C143.738 44.7126 143.984 44.1398 143.984 43.4292V43.2117H141.222C140.714 43.2117 140.315 43.3205 140.025 43.538C139.735 43.7555 139.59 44.06 139.59 44.4516C139.59 44.8431 139.743 45.1621 140.047 45.4086C140.352 45.6551 140.794 45.7784 141.374 45.7784Z" fill="url(#paint8_linear_27104_1800)"/>
<path d="M154.541 47.997C153.497 47.997 152.547 47.7795 151.692 47.3445C150.851 46.9094 150.184 46.2787 149.691 45.4521C149.198 44.6256 148.951 43.625 148.951 42.4504V42.1459C148.951 40.9714 149.198 39.9708 149.691 39.1443C150.184 38.3177 150.851 37.6869 151.692 37.2519C152.547 36.8169 153.497 36.5994 154.541 36.5994C155.571 36.5994 156.455 36.7806 157.195 37.1431C157.935 37.5057 158.529 38.0059 158.979 38.644C159.443 39.2675 159.747 39.978 159.892 40.7756L157.239 41.3411C157.181 40.9061 157.05 40.5146 156.847 40.1666C156.644 39.8185 156.354 39.543 155.977 39.34C155.614 39.137 155.158 39.0355 154.607 39.0355C154.056 39.0355 153.555 39.1588 153.106 39.4053C152.671 39.6373 152.323 39.9925 152.062 40.4711C151.815 40.9351 151.692 41.5079 151.692 42.1894V42.4069C151.692 43.0885 151.815 43.6685 152.062 44.147C152.323 44.6111 152.671 44.9663 153.106 45.2128C153.555 45.4449 154.056 45.5609 154.607 45.5609C155.433 45.5609 156.057 45.3506 156.477 44.9301C156.912 44.4951 157.188 43.9295 157.304 43.2335L159.957 43.8643C159.769 44.6328 159.443 45.3361 158.979 45.9741C158.529 46.5977 157.935 47.0907 157.195 47.4532C156.455 47.8157 155.571 47.997 154.541 47.997Z" fill="url(#paint9_linear_27104_1800)"/>
<path d="M161.783 47.6925V32.4666H164.524V38.2307H164.915C165.031 37.9987 165.213 37.7667 165.459 37.5347C165.706 37.3026 166.032 37.1141 166.438 36.9691C166.858 36.8096 167.388 36.7299 168.026 36.7299C168.867 36.7299 169.599 36.9256 170.223 37.3171C170.861 37.6942 171.354 38.2235 171.702 38.905C172.05 39.572 172.224 40.3551 172.224 41.2541V47.6925H169.483V41.4716C169.483 40.6596 169.28 40.0506 168.874 39.6445C168.483 39.2385 167.917 39.0355 167.177 39.0355C166.336 39.0355 165.684 39.3183 165.22 39.8838C164.756 40.4348 164.524 41.2106 164.524 42.2112V47.6925H161.783Z" fill="url(#paint10_linear_27104_1800)"/>
<path d="M174.751 47.6925V36.9039H177.492V47.6925H174.751ZM176.122 35.6423C175.629 35.6423 175.208 35.4828 174.86 35.1638C174.527 34.8448 174.36 34.4242 174.36 33.9022C174.36 33.3802 174.527 32.9597 174.86 32.6406C175.208 32.3216 175.629 32.1621 176.122 32.1621C176.629 32.1621 177.05 32.3216 177.383 32.6406C177.717 32.9597 177.884 33.3802 177.884 33.9022C177.884 34.4242 177.717 34.8448 177.383 35.1638C177.05 35.4828 176.629 35.6423 176.122 35.6423Z" fill="url(#paint11_linear_27104_1800)"/>
<path d="M180.094 47.6925V36.9039H182.791V38.3177H183.183C183.357 37.9407 183.683 37.5854 184.162 37.2519C184.64 36.9039 185.365 36.7299 186.337 36.7299C187.178 36.7299 187.91 36.9256 188.534 37.3171C189.172 37.6942 189.665 38.2235 190.013 38.905C190.361 39.572 190.535 40.3551 190.535 41.2541V47.6925H187.794V41.4716C187.794 40.6596 187.591 40.0506 187.185 39.6445C186.793 39.2385 186.228 39.0355 185.488 39.0355C184.647 39.0355 183.995 39.3183 183.531 39.8838C183.067 40.4348 182.835 41.2106 182.835 42.2112V47.6925H180.094Z" fill="url(#paint12_linear_27104_1800)"/>
<path d="M197.978 47.997C196.905 47.997 195.955 47.7722 195.129 47.3227C194.317 46.8587 193.679 46.2134 193.215 45.3869C192.765 44.5458 192.54 43.5598 192.54 42.4287V42.1677C192.54 41.0366 192.765 40.0578 193.215 39.2313C193.664 38.3902 194.295 37.7449 195.107 37.2954C195.919 36.8314 196.862 36.5994 197.935 36.5994C198.993 36.5994 199.914 36.8386 200.697 37.3171C201.48 37.7812 202.089 38.4337 202.524 39.2748C202.959 40.1013 203.177 41.0656 203.177 42.1677V43.103H195.325C195.354 43.8425 195.629 44.4443 196.151 44.9083C196.673 45.3724 197.311 45.6044 198.065 45.6044C198.834 45.6044 199.399 45.4376 199.762 45.1041C200.124 44.7706 200.4 44.4008 200.588 43.9948L202.829 45.1693C202.626 45.5464 202.328 45.9596 201.937 46.4092C201.56 46.8442 201.052 47.2212 200.414 47.5402C199.776 47.8447 198.964 47.997 197.978 47.997ZM195.346 41.0584H200.393C200.335 40.4348 200.081 39.9345 199.631 39.5575C199.196 39.1805 198.623 38.992 197.913 38.992C197.173 38.992 196.586 39.1805 196.151 39.5575C195.716 39.9345 195.448 40.4348 195.346 41.0584Z" fill="url(#paint13_linear_27104_1800)"/>
<path d="M46.103 26.2628V23.7397H48.1041V13.5601H46.103V11.0369H53.9335C54.8615 11.0369 55.6663 11.1964 56.3479 11.5155C57.0439 11.82 57.5804 12.2623 57.9574 12.8423C58.349 13.4078 58.5447 14.0894 58.5447 14.8869V15.1044C58.5447 15.8005 58.4142 16.3732 58.1532 16.8228C57.8922 17.2578 57.5804 17.5986 57.2179 17.8451C56.8699 18.0771 56.5364 18.2438 56.2173 18.3454V18.7369C56.5364 18.8239 56.8844 18.9906 57.2614 19.2372C57.6384 19.4692 57.9574 19.8099 58.2185 20.2595C58.494 20.709 58.6317 21.2963 58.6317 22.0213V22.2388C58.6317 23.0799 58.436 23.8049 58.0444 24.4139C57.6529 25.0085 57.1091 25.4653 56.4131 25.7843C55.7316 26.1033 54.934 26.2628 54.0205 26.2628H46.103ZM50.9753 23.6526H53.6725C54.296 23.6526 54.7963 23.5004 55.1733 23.1959C55.5648 22.8914 55.7606 22.4563 55.7606 21.8908V21.6733C55.7606 21.1078 55.5721 20.6727 55.195 20.3682C54.818 20.0637 54.3105 19.9114 53.6725 19.9114H50.9753V23.6526ZM50.9753 17.3013H53.629C54.2235 17.3013 54.7093 17.149 55.0863 16.8445C55.4778 16.54 55.6736 16.1195 55.6736 15.5829V15.3654C55.6736 14.8144 55.4851 14.3939 55.108 14.1039C54.731 13.7993 54.238 13.6471 53.629 13.6471H50.9753V17.3013Z" fill="white"/>
<path d="M60.6342 26.2628V15.4742H63.3749V26.2628H60.6342ZM62.0045 14.2126C61.5115 14.2126 61.091 14.0531 60.743 13.7341C60.4094 13.4151 60.2427 12.9945 60.2427 12.4725C60.2427 11.9505 60.4094 11.53 60.743 11.2109C61.091 10.8919 61.5115 10.7324 62.0045 10.7324C62.5121 10.7324 62.9326 10.8919 63.2661 11.2109C63.5996 11.53 63.7664 11.9505 63.7664 12.4725C63.7664 12.9945 63.5996 13.4151 63.2661 13.7341C62.9326 14.0531 62.5121 14.2126 62.0045 14.2126Z" fill="white"/>
<path d="M70.1096 26.2628C69.399 26.2628 68.819 26.0453 68.3695 25.6103C67.9345 25.1607 67.7169 24.5662 67.7169 23.8267V17.7363H65.0198V15.4742H67.7169V12.1245H70.4576V15.4742H73.4158V17.7363H70.4576V23.3481C70.4576 23.7832 70.6606 24.0007 71.0666 24.0007H73.1548V26.2628H70.1096Z" fill="white"/>
<path d="M80.1473 26.5673C79.1032 26.5673 78.1534 26.3498 77.2978 25.9148C76.4568 25.4798 75.7898 24.849 75.2967 24.0224C74.8037 23.1959 74.5572 22.1953 74.5572 21.0208V20.7162C74.5572 19.5417 74.8037 18.5411 75.2967 17.7146C75.7898 16.888 76.4568 16.2572 77.2978 15.8222C78.1534 15.3872 79.1032 15.1697 80.1473 15.1697C81.1768 15.1697 82.0614 15.3509 82.8009 15.7135C83.5404 16.076 84.135 16.5763 84.5845 17.2143C85.0485 17.8378 85.3531 18.5484 85.4981 19.3459L82.8444 19.9114C82.7864 19.4764 82.6559 19.0849 82.4529 18.7369C82.2499 18.3889 81.9599 18.1133 81.5828 17.9103C81.2203 17.7073 80.7635 17.6058 80.2125 17.6058C79.6615 17.6058 79.1612 17.7291 78.7117 17.9756C78.2767 18.2076 77.9286 18.5629 77.6676 19.0414C77.4211 19.5054 77.2978 20.0782 77.2978 20.7597V20.9772C77.2978 21.6588 77.4211 22.2388 77.6676 22.7173C77.9286 23.1814 78.2767 23.5366 78.7117 23.7832C79.1612 24.0152 79.6615 24.1312 80.2125 24.1312C81.0391 24.1312 81.6626 23.9209 82.0831 23.5004C82.5181 23.0654 82.7937 22.4998 82.9097 21.8038L85.5633 22.4346C85.3748 23.2031 85.0485 23.9064 84.5845 24.5444C84.135 25.168 83.5404 25.661 82.8009 26.0235C82.0614 26.3861 81.1768 26.5673 80.1473 26.5673Z" fill="white"/>
<path d="M92.5223 26.5673C91.4493 26.5673 90.485 26.3498 89.6294 25.9148C88.7739 25.4798 88.0996 24.849 87.6066 24.0224C87.1135 23.1959 86.867 22.2026 86.867 21.0425V20.6945C86.867 19.5344 87.1135 18.5411 87.6066 17.7146C88.0996 16.888 88.7739 16.2572 89.6294 15.8222C90.485 15.3872 91.4493 15.1697 92.5223 15.1697C93.5954 15.1697 94.5597 15.3872 95.4153 15.8222C96.2708 16.2572 96.9451 16.888 97.4381 17.7146C97.9311 18.5411 98.1777 19.5344 98.1777 20.6945V21.0425C98.1777 22.2026 97.9311 23.1959 97.4381 24.0224C96.9451 24.849 96.2708 25.4798 95.4153 25.9148C94.5597 26.3498 93.5954 26.5673 92.5223 26.5673ZM92.5223 24.1312C93.3634 24.1312 94.0594 23.8629 94.6105 23.3264C95.1615 22.7753 95.437 21.9923 95.437 20.9772V20.7597C95.437 19.7447 95.1615 18.9689 94.6105 18.4324C94.0739 17.8813 93.3779 17.6058 92.5223 17.6058C91.6813 17.6058 90.9853 17.8813 90.4342 18.4324C89.8832 18.9689 89.6077 19.7447 89.6077 20.7597V20.9772C89.6077 21.9923 89.8832 22.7753 90.4342 23.3264C90.9853 23.8629 91.6813 24.1312 92.5223 24.1312Z" fill="white"/>
<path d="M100.272 26.2628V15.4742H103.013V26.2628H100.272ZM101.643 14.2126C101.15 14.2126 100.729 14.0531 100.381 13.7341C100.048 13.4151 99.8809 12.9945 99.8809 12.4725C99.8809 11.9505 100.048 11.53 100.381 11.2109C100.729 10.8919 101.15 10.7324 101.643 10.7324C102.15 10.7324 102.571 10.8919 102.904 11.2109C103.238 11.53 103.405 11.9505 103.405 12.4725C103.405 12.9945 103.238 13.4151 102.904 13.7341C102.571 14.0531 102.15 14.2126 101.643 14.2126Z" fill="white"/>
<path d="M105.615 26.2628V15.4742H108.312V16.888H108.704C108.878 16.511 109.204 16.1557 109.683 15.8222C110.161 15.4742 110.886 15.3002 111.858 15.3002C112.699 15.3002 113.431 15.4959 114.055 15.8875C114.693 16.2645 115.186 16.7938 115.534 17.4753C115.882 18.1423 116.056 18.9254 116.056 19.8244V26.2628H113.315V20.0419C113.315 19.2299 113.112 18.6209 112.706 18.2148C112.314 17.8088 111.749 17.6058 111.009 17.6058C110.168 17.6058 109.516 17.8886 109.052 18.4541C108.588 19.0051 108.356 19.7809 108.356 20.7815V26.2628H105.615Z" fill="white"/>
<rect x="1.8623" y="3.375" width="14.0151" height="16.9062" fill="white"/>
<path fill-rule="evenodd" clip-rule="evenodd" d="M25.5846 5.0293C25.0902 5.0293 24.6894 5.43008 24.6894 5.92447V7.71481H19.5421C19.0478 7.71481 18.647 8.1156 18.647 8.60999V27.8562C18.647 28.3506 19.0478 28.7514 19.5421 28.7514H23.3466V27.8562C23.3466 26.8674 24.1482 26.0658 25.137 26.0658H28.7177C29.7064 26.0658 30.508 26.8674 30.508 27.8562V28.7514H35.2077C35.702 28.7514 36.1028 28.3506 36.1028 27.8562V8.60999C36.1028 8.1156 35.702 7.71481 35.2077 7.71481H30.0604V5.92447C30.0604 5.43008 29.6596 5.0293 29.1652 5.0293H25.5846ZM25.1495 23.828L21.644 10.0423H24.3224L27.2371 22.154H27.5128L30.4275 10.0423H33.1058L29.6003 23.828H25.1495Z" fill="white"/>
<path fill-rule="evenodd" clip-rule="evenodd" d="M7.68095 26.959C7.18656 26.959 6.78577 27.3598 6.78577 27.8542V29.6445H1.01822C0.523829 29.6445 0.123047 30.0453 0.123047 30.5397V47.1004C0.123047 47.5948 0.523828 47.9955 1.01822 47.9955H35.2075C35.7019 47.9955 36.1027 47.5948 36.1027 47.1004V30.5397C36.1027 30.0453 35.7019 29.6445 35.2075 29.6445H29.6127V27.8542C29.6127 27.3598 29.2119 26.959 28.7175 26.959H25.1368C24.6424 26.959 24.2416 27.3598 24.2416 27.8542V29.6445H12.1568V27.8542C12.1568 27.3598 11.756 26.959 11.2616 26.959H7.68095ZM10.814 31.927V45.7127H13.3349V33.8373H13.6893L16.0526 45.7127H20.3458L22.7091 33.8373H23.0636V45.7127H25.5844V31.927H20.7594L18.3765 43.9402H18.022L15.639 31.927H10.814Z" fill="white"/>
<path d="M7.60956 16.4355H10.0516C10.6162 16.4355 11.0691 16.2976 11.4105 16.0219C11.765 15.7462 11.9422 15.3523 11.9422 14.8403V14.6433C11.9422 14.1313 11.7715 13.7374 11.4302 13.4617C11.0888 13.186 10.6293 13.0481 10.0516 13.0481H7.60956V16.4355Z" fill="url(#paint14_linear_27104_1800)"/>
<path d="M7.60956 10.6849H10.0122C10.5505 10.6849 10.9903 10.547 11.3317 10.2713C11.6862 9.99558 11.8634 9.61483 11.8634 9.12905V8.93212C11.8634 8.43321 11.6927 8.05246 11.3514 7.78988C11.01 7.51416 10.5636 7.37631 10.0122 7.37631H7.60956V10.6849Z" fill="url(#paint15_linear_27104_1800)"/>
<path fill-rule="evenodd" clip-rule="evenodd" d="M7.07968 0C6.58529 0 6.1845 0.400782 6.1845 0.895172V2.68552H1.03726C0.542872 2.68552 0.14209 3.0863 0.14209 3.58069V22.8269C0.14209 23.3213 0.542872 23.7221 1.03726 23.7221H5.58295V22.0729C5.58295 21.5785 5.98373 21.1777 6.47812 21.1777H11.2619C11.7563 21.1777 12.1571 21.5785 12.1571 22.0729V23.7221H16.7028C17.1972 23.7221 17.598 23.3213 17.598 22.8269V3.58069C17.598 3.0863 17.1972 2.68552 16.7028 2.68552H11.5555V0.895172C11.5555 0.400782 11.1548 0 10.6604 0H7.07968ZM5.57934 3.67029H6.9221V5.01305H9.33378V3.67029H10.6765V5.02379C11.3549 5.06211 11.954 5.20295 12.4739 5.44632C13.1041 5.72203 13.5899 6.12247 13.9313 6.64764C14.2858 7.15968 14.463 7.77675 14.463 8.49885V8.69579C14.463 9.32599 14.3448 9.8446 14.1085 10.2516C13.8722 10.6455 13.5899 10.954 13.2617 11.1772C12.9466 11.3873 12.6446 11.5383 12.3558 11.6302V11.9847C12.6446 12.0634 12.9597 12.2144 13.3011 12.4376C13.6424 12.6477 13.9313 12.9562 14.1676 13.3632C14.4171 13.7702 14.5418 14.302 14.5418 14.9584V15.1554C14.5418 15.9168 14.3645 16.5733 14.01 17.1247C13.6556 17.663 13.1632 18.0766 12.533 18.3654C11.9943 18.6176 11.3754 18.7597 10.6765 18.7917V20.1414H9.33378V18.7987H6.9221V20.1414H5.57934V18.7987H3.19815V16.5142H5.00998V7.29753H3.19815V5.01305H5.57934V3.67029Z" fill="url(#paint16_linear_27104_1800)"/>
<defs>
<linearGradient id="paint0_linear_27104_1800" x1="124.64" y1="32.1621" x2="124.64" y2="47.997" gradientUnits="userSpaceOnUse">
<stop stop-color="#FF9776"/>
<stop offset="0.328125" stop-color="#FF8139"/>
<stop offset="1" stop-color="#E04300"/>
</linearGradient>
<linearGradient id="paint1_linear_27104_1800" x1="124.64" y1="32.1621" x2="124.64" y2="47.997" gradientUnits="userSpaceOnUse">
<stop stop-color="#FF9776"/>
<stop offset="0.328125" stop-color="#FF8139"/>
<stop offset="1" stop-color="#E04300"/>
</linearGradient>
<linearGradient id="paint2_linear_27104_1800" x1="124.64" y1="32.1621" x2="124.64" y2="47.997" gradientUnits="userSpaceOnUse">
<stop stop-color="#FF9776"/>
<stop offset="0.328125" stop-color="#FF8139"/>
<stop offset="1" stop-color="#E04300"/>
</linearGradient>
<linearGradient id="paint3_linear_27104_1800" x1="124.64" y1="32.1621" x2="124.64" y2="47.997" gradientUnits="userSpaceOnUse">
<stop stop-color="#FF9776"/>
<stop offset="0.328125" stop-color="#FF8139"/>
<stop offset="1" stop-color="#E04300"/>
</linearGradient>
<linearGradient id="paint4_linear_27104_1800" x1="124.64" y1="32.1621" x2="124.64" y2="47.997" gradientUnits="userSpaceOnUse">
<stop stop-color="#FF9776"/>
<stop offset="0.328125" stop-color="#FF8139"/>
<stop offset="1" stop-color="#E04300"/>
</linearGradient>
<linearGradient id="paint5_linear_27104_1800" x1="124.64" y1="32.1621" x2="124.64" y2="47.997" gradientUnits="userSpaceOnUse">
<stop stop-color="#FF9776"/>
<stop offset="0.328125" stop-color="#FF8139"/>
<stop offset="1" stop-color="#E04300"/>
</linearGradient>
<linearGradient id="paint6_linear_27104_1800" x1="124.64" y1="32.1621" x2="124.64" y2="47.997" gradientUnits="userSpaceOnUse">
<stop stop-color="#FF9776"/>
<stop offset="0.328125" stop-color="#FF8139"/>
<stop offset="1" stop-color="#E04300"/>
</linearGradient>
<linearGradient id="paint7_linear_27104_1800" x1="124.64" y1="32.1621" x2="124.64" y2="47.997" gradientUnits="userSpaceOnUse">
<stop stop-color="#FF9776"/>
<stop offset="0.328125" stop-color="#FF8139"/>
<stop offset="1" stop-color="#E04300"/>
</linearGradient>
<linearGradient id="paint8_linear_27104_1800" x1="124.64" y1="32.1621" x2="124.64" y2="47.997" gradientUnits="userSpaceOnUse">
<stop stop-color="#FF9776"/>
<stop offset="0.328125" stop-color="#FF8139"/>
<stop offset="1" stop-color="#E04300"/>
</linearGradient>
<linearGradient id="paint9_linear_27104_1800" x1="124.64" y1="32.1621" x2="124.64" y2="47.997" gradientUnits="userSpaceOnUse">
<stop stop-color="#FF9776"/>
<stop offset="0.328125" stop-color="#FF8139"/>
<stop offset="1" stop-color="#E04300"/>
</linearGradient>
<linearGradient id="paint10_linear_27104_1800" x1="124.64" y1="32.1621" x2="124.64" y2="47.997" gradientUnits="userSpaceOnUse">
<stop stop-color="#FF9776"/>
<stop offset="0.328125" stop-color="#FF8139"/>
<stop offset="1" stop-color="#E04300"/>
</linearGradient>
<linearGradient id="paint11_linear_27104_1800" x1="124.64" y1="32.1621" x2="124.64" y2="47.997" gradientUnits="userSpaceOnUse">
<stop stop-color="#FF9776"/>
<stop offset="0.328125" stop-color="#FF8139"/>
<stop offset="1" stop-color="#E04300"/>
</linearGradient>
<linearGradient id="paint12_linear_27104_1800" x1="124.64" y1="32.1621" x2="124.64" y2="47.997" gradientUnits="userSpaceOnUse">
<stop stop-color="#FF9776"/>
<stop offset="0.328125" stop-color="#FF8139"/>
<stop offset="1" stop-color="#E04300"/>
</linearGradient>
<linearGradient id="paint13_linear_27104_1800" x1="124.64" y1="32.1621" x2="124.64" y2="47.997" gradientUnits="userSpaceOnUse">
<stop stop-color="#FF9776"/>
<stop offset="0.328125" stop-color="#FF8139"/>
<stop offset="1" stop-color="#E04300"/>
</linearGradient>
<linearGradient id="paint14_linear_27104_1800" x1="8.87002" y1="0" x2="8.87002" y2="23.7221" gradientUnits="userSpaceOnUse">
<stop stop-color="#FF9776"/>
<stop offset="0.328125" stop-color="#FF8139"/>
<stop offset="1" stop-color="#E04300"/>
</linearGradient>
<linearGradient id="paint15_linear_27104_1800" x1="8.87002" y1="0" x2="8.87002" y2="23.7221" gradientUnits="userSpaceOnUse">
<stop stop-color="#FF9776"/>
<stop offset="0.328125" stop-color="#FF8139"/>
<stop offset="1" stop-color="#E04300"/>
</linearGradient>
<linearGradient id="paint16_linear_27104_1800" x1="8.87002" y1="0" x2="8.87002" y2="23.7221" gradientUnits="userSpaceOnUse">
<stop stop-color="#FF9776"/>
<stop offset="0.328125" stop-color="#FF8139"/>
<stop offset="1" stop-color="#E04300"/>
</linearGradient>
</defs>
</svg>
