<svg width="72" height="73" viewBox="0 0 72 73" fill="none" xmlns="http://www.w3.org/2000/svg">
<path fill-rule="evenodd" clip-rule="evenodd" d="M36 72.5C16.2 72.5 0 56.3003 0 36.3207C0.18 16.5212 16.2 0.321489 36.18 0.501486C55.98 0.681482 72 16.7012 72 36.8607C71.82 56.4803 55.8 72.5 36 72.5Z" fill="black"/>
<path d="M24.2222 54.5L29.4286 45.4841L34.6349 36.5L39.8095 27.4841L40.6667 26.0556L41.0476 27.4841L42.6349 33.4206L40.8571 36.5L35.6508 45.4841L30.4762 54.5H36.6984L41.9048 45.4841L44.6032 40.8175L45.873 45.4841L48.2857 54.5H53.873L51.4603 45.4841L49.0476 36.5L48.4127 34.1825L52.2857 27.4841H46.6349L46.4444 26.8175L44.4762 19.4524L44.2222 18.5H38.7937L38.6667 18.6905L33.5873 27.4841L28.381 36.5L23.2063 45.4841L18 54.5H24.2222Z" fill="white"/>
</svg>
