<svg width="20" height="18" viewBox="0 0 20 18" fill="none" xmlns="http://www.w3.org/2000/svg">
<path d="M18.3333 1.00537L10 8.50537L6.25 5.5887L5 6.8387L10 11.8387L19.5833 1.8387L18.3333 1.00537Z" fill="url(#paint0_linear_34577_370)"/>
<path d="M9.58334 17.6719C7.2627 17.6719 5.0371 16.7501 3.39616 15.1091C1.75522 13.4682 0.833344 11.2426 0.833344 8.92195C0.833344 6.6013 1.75522 4.37571 3.39616 2.73476C5.0371 1.09382 7.2627 0.171949 9.58334 0.171949C11.2096 0.165197 12.8043 0.621128 14.1813 1.48653C14.2746 1.54565 14.3407 1.63945 14.3649 1.74728C14.3892 1.85511 14.3695 1.96815 14.3104 2.06153C14.2513 2.15491 14.1575 2.22098 14.0497 2.2452C13.9418 2.26943 13.8288 2.24982 13.7354 2.1907C12.4918 1.40979 11.0518 0.998658 9.58334 1.00528C8.01758 1.00528 6.48697 1.46959 5.18508 2.33948C3.88319 3.20938 2.86849 4.44579 2.2693 5.89237C1.6701 7.33895 1.51333 8.93073 1.81879 10.4664C2.12426 12.0021 2.87825 13.4127 3.98541 14.5199C5.09258 15.627 6.5032 16.381 8.03888 16.6865C9.57456 16.992 11.1663 16.8352 12.6129 16.236C14.0595 15.6368 15.2959 14.6221 16.1658 13.3202C17.0357 12.0183 17.5 10.4877 17.5 8.92195C17.5109 8.21534 17.4184 7.51094 17.2254 6.83112C17.1978 6.72623 17.2121 6.61469 17.2654 6.52021C17.3187 6.42572 17.4067 6.35575 17.5108 6.32514C17.6148 6.29454 17.7267 6.30573 17.8227 6.35633C17.9186 6.40693 17.9911 6.49295 18.0246 6.59612C18.2408 7.35209 18.3449 8.13574 18.3333 8.92195C18.3307 11.2418 17.408 13.4658 15.7676 15.1062C14.1272 16.7466 11.9032 17.6693 9.58334 17.6719Z" fill="url(#paint1_linear_34577_370)"/>
<defs>
<linearGradient id="paint0_linear_34577_370" x1="5" y1="6.42204" x2="19.5833" y2="6.42204" gradientUnits="userSpaceOnUse">
<stop stop-color="#00C07D"/>
<stop offset="1" stop-color="#00A1B6"/>
</linearGradient>
<linearGradient id="paint1_linear_34577_370" x1="0.833344" y1="8.92191" x2="18.3342" y2="8.92191" gradientUnits="userSpaceOnUse">
<stop stop-color="#00C07D"/>
<stop offset="1" stop-color="#00A1B6"/>
</linearGradient>
</defs>
</svg>
