<svg width="21" height="20" viewBox="0 0 21 20" fill="none" xmlns="http://www.w3.org/2000/svg">
<path d="M15.8125 5.20833H8.52083C6.70667 5.20833 5.70833 6.20667 5.70833 8.02083V15.3125C5.70833 17.1267 6.70667 18.125 8.52083 18.125H15.8125C17.6267 18.125 18.625 17.1267 18.625 15.3125V8.02083C18.625 6.20667 17.6267 5.20833 15.8125 5.20833ZM17.375 15.3125C17.375 16.4225 16.9225 16.875 15.8125 16.875H8.52083C7.41083 16.875 6.95833 16.4225 6.95833 15.3125V8.02083C6.95833 6.91083 7.41083 6.45833 8.52083 6.45833H15.8125C16.9225 6.45833 17.375 6.91083 17.375 8.02083V15.3125ZM3.625 4.68333V11.9833C3.625 12.9817 4.02757 13.2275 4.16007 13.3092C4.45507 13.4892 4.54658 13.8742 4.36658 14.1683C4.24824 14.3608 4.04335 14.4667 3.83252 14.4667C3.72169 14.4667 3.60826 14.4367 3.50659 14.375C2.75576 13.915 2.375 13.1108 2.375 11.9833V4.68333C2.375 2.89833 3.39926 1.875 5.18343 1.875H12.4832C13.8874 1.875 14.5583 2.49081 14.875 3.00664C15.055 3.30081 14.9625 3.68581 14.6683 3.86581C14.3733 4.04665 13.99 3.95333 13.8091 3.65916C13.7283 3.52666 13.4816 3.12419 12.4832 3.12419H5.18343C4.07676 3.12502 3.625 3.57666 3.625 4.68333Z" fill="#FA4E0E"/>
</svg>
