<svg width="16" height="16" viewBox="0 0 16 16" fill="none" xmlns="http://www.w3.org/2000/svg">
<path d="M12 2.83398H4C2.388 2.83398 1.5 3.72198 1.5 5.33398V10.6673C1.5 12.2793 2.388 13.1673 4 13.1673H12C13.612 13.1673 14.5 12.2793 14.5 10.6673V5.33398C14.5 3.72198 13.612 2.83398 12 2.83398ZM13.5 10.6673C13.5 11.7187 13.0513 12.1673 12 12.1673H4C2.94867 12.1673 2.5 11.7187 2.5 10.6673V7.16732H13.5V10.6673ZM13.5 6.16732H2.5V5.33398C2.5 4.28265 2.94867 3.83398 4 3.83398H12C13.0513 3.83398 13.5 4.28265 13.5 5.33398V6.16732ZM4.16667 10.0007C4.16667 9.72465 4.39067 9.50065 4.66667 9.50065H6.66667C6.94267 9.50065 7.16667 9.72465 7.16667 10.0007C7.16667 10.2767 6.94267 10.5007 6.66667 10.5007H4.66667C4.39067 10.5007 4.16667 10.2767 4.16667 10.0007Z" fill="white" stroke="white" stroke-width="0.3"/>
</svg>
