<svg width="120" height="120" viewBox="0 0 120 120" fill="none" xmlns="http://www.w3.org/2000/svg">
<rect width="120" height="120" rx="18.0003" fill="url(#paint0_linear_35110_1848)"/>
<path d="M33 48.002C29.8174 48.002 26.7652 49.2662 24.5147 51.5167C22.2643 53.7671 21 56.8194 21 60.002V84.002C21 87.1846 22.2643 90.2368 24.5147 92.4872C26.7652 94.7377 29.8174 96.002 33 96.002H87C90.1826 96.002 93.2348 94.7377 95.4853 92.4872C97.7357 90.2368 99 87.1846 99 84.002V60.002C99 56.8194 97.7357 53.7671 95.4853 51.5167C93.2348 49.2662 90.1826 48.002 87 48.002H72C71.2044 48.002 70.4413 48.318 69.8787 48.8806C69.3161 49.4432 69 50.2063 69 51.002C69 53.3889 68.0518 55.6781 66.364 57.3659C64.6761 59.0537 62.387 60.002 60 60.002C57.6131 60.002 55.3239 59.0537 53.636 57.3659C51.9482 55.6781 51 53.3889 51 51.002C51 50.2063 50.6839 49.4432 50.1213 48.8806C49.5587 48.318 48.7957 48.002 48 48.002H33Z" fill="white"/>
<path d="M21.0928 46.5C24.3782 43.5942 28.6147 41.9932 33.0008 42H87.0008C91.5648 42 95.7328 43.7 98.9088 46.5C98.5434 43.5997 97.1319 40.9326 94.9393 38.9993C92.7468 37.066 89.9239 35.9995 87.0008 36H33.0008C30.0776 35.9995 27.2547 37.066 25.0622 38.9993C22.8696 40.9326 21.4582 43.5997 21.0928 46.5Z" fill="white" fill-opacity="0.6"/>
<path d="M21.0918 34.5C24.3772 31.5942 28.6137 29.9932 32.9998 30H86.9998C91.5638 30 95.7318 31.7 98.9078 34.5C98.5424 31.5997 97.1309 28.9326 94.9384 26.9993C92.7458 25.066 89.923 23.9995 86.9998 24H32.9998C30.0766 23.9995 27.2538 25.066 25.0612 26.9993C22.8687 28.9326 21.4572 31.5997 21.0918 34.5Z" fill="white" fill-opacity="0.2"/>
<defs>
<linearGradient id="paint0_linear_35110_1848" x1="120" y1="-7.15256e-06" x2="7.15256e-06" y2="120" gradientUnits="userSpaceOnUse">
<stop stop-color="#B9B8E1"/>
<stop offset="0.359375" stop-color="#ADA4F4"/>
<stop offset="0.703125" stop-color="#9394F6"/>

<stop offset="1" stop-color="#A9AAF8"/>
</linearGradient>
</defs>
</svg>
