<svg width="132" height="20" viewBox="0 0 132 20" fill="none" xmlns="http://www.w3.org/2000/svg">
  <path d="M13 11L7 7L7 15L13 11Z" fill="white"/>
  <path d="M29 11L23 7L23 15L29 11Z" fill="white"/>
  <path d="M45 11L39 7L39 15L45 11Z" fill="white"/>
  <path d="M61 11L55 7L55 15L61 11Z" fill="white"/>
  <path d="M77 11L71 7L71 15L77 11Z" fill="white"/>
  <path d="M93 11L87 7L87 15L93 11Z" fill="white"/>
  <path d="M109 11L103 7L103 15L109 11Z" fill="white"/>
  <path d="M125 11L119 7L119 15L125 11Z" fill="white"/>
</svg>
