<svg width="47" height="37" viewBox="0 0 47 37" fill="none" xmlns="http://www.w3.org/2000/svg">
<path d="M16.7999 0.916992H9.22864C7.66058 0.916992 6.3894 2.18817 6.3894 3.75623V9.43471C6.3894 9.95739 6.81316 10.3812 7.33585 10.3812H18.6928C19.2155 10.3812 19.6392 9.95739 19.6392 9.43471V3.75623C19.6392 2.18817 18.368 0.916992 16.7999 0.916992Z" fill="#0172C9"/>
<path d="M37.5653 0.916992H29.994C28.426 0.916992 27.1548 2.18817 27.1548 3.75623V9.43471C27.1548 9.95739 27.5785 10.3812 28.1012 10.3812H39.4582C39.9809 10.3812 40.4046 9.95739 40.4046 9.43471V3.75623C40.4045 2.18817 39.1334 0.916992 37.5653 0.916992Z" fill="#0172C9"/>
<path d="M3.55042 7.79248H43.2998C44.8678 7.79248 46.139 9.06366 46.1391 10.6317V35.6692C46.1391 36.1919 45.7153 36.6156 45.1927 36.6156C29.3606 36.6156 18.3185 36.6156 1.65762 36.6156C1.13494 36.6156 0.711182 36.1919 0.711182 35.6692V10.6317C0.711182 9.06366 1.98236 7.79248 3.55042 7.79248Z" fill="#0090FF"/>
<g clip-path="url(#clip0_32300_10841)">
<path fill-rule="evenodd" clip-rule="evenodd" d="M23.2388 34C16.6388 34 11.2388 28.6 11.2388 21.94C11.2988 15.34 16.6388 9.94001 23.2988 10C29.8988 10.06 35.2388 15.4 35.2388 22.12C35.1788 28.66 29.8388 34 23.2388 34Z" fill="#0090FF"/>
<path fill-rule="evenodd" clip-rule="evenodd" d="M24.3788 20.56L24.0188 22.48L27.4388 22.96L27.1988 23.86L23.8388 23.38C23.5988 24.16 23.4788 25 23.1788 25.72C22.8788 26.56 22.5788 27.4 22.2188 28.18C21.7388 29.2 20.8988 29.92 19.7588 30.1C19.0988 30.22 18.3788 30.16 17.8388 29.74C17.6588 29.62 17.4788 29.38 17.4788 29.2C17.4788 28.96 17.5988 28.66 17.7788 28.54C17.8988 28.48 18.1988 28.54 18.3788 28.6C18.5588 28.78 18.7388 29.02 18.8588 29.26C19.2188 29.74 19.6988 29.8 20.1788 29.44C20.7188 28.96 21.0188 28.3 21.1988 27.64C21.5588 26.2 21.9188 24.82 22.2188 23.38V23.14L19.0388 22.66L19.1588 21.76L22.4588 22.24L22.8788 20.38L19.4588 19.84L19.5788 18.88L23.1188 19.36C23.2388 19 23.2988 18.7 23.4188 18.4C23.7188 17.32 24.0188 16.24 24.7388 15.28C25.4588 14.32 26.2988 13.72 27.5588 13.78C28.0988 13.78 28.6388 13.96 28.9988 14.38C29.0588 14.44 29.1788 14.56 29.1788 14.68C29.1788 14.92 29.1788 15.22 28.9988 15.4C28.7588 15.58 28.4588 15.52 28.2188 15.28C28.0388 15.1 27.9188 14.92 27.7388 14.74C27.3788 14.26 26.8388 14.2 26.4188 14.62C26.1188 14.92 25.8188 15.34 25.6388 15.76C25.2188 17.02 24.9188 18.34 24.4988 19.66L27.7988 20.14L27.5588 21.04L24.3788 20.56Z" fill="white"/>
</g>
<defs>
<clipPath id="clip0_32300_10841">
<rect width="24" height="24" fill="white" transform="translate(11.2388 10)"/>
</clipPath>
</defs>
</svg>
