<svg width="24" height="24" viewBox="0 0 24 24" fill="none" xmlns="http://www.w3.org/2000/svg">
<path d="M2.3745 9.94087C1.99899 9.22924 2.27147 8.34793 2.98311 7.97243L9.06235 4.76459C9.77398 4.38909 10.6553 4.66157 11.0308 5.37321L15.5281 13.8961C15.9036 14.6077 15.6311 15.489 14.9195 15.8645L8.84021 19.0724C8.12858 19.4479 7.24727 19.1754 6.87177 18.4638L2.3745 9.94087Z" fill="#C6C7F8" fill-opacity="0.4"/>
<path d="M12.8065 5.68497C13.1262 4.93129 13.9962 4.57941 14.7499 4.89902L21.1883 7.62936C21.942 7.94897 22.2939 8.81905 21.9743 9.57272L18.1464 18.5991C17.8268 19.3528 16.9567 19.7047 16.2031 19.3851L9.76465 16.6547C9.01097 16.3351 8.65909 15.4651 8.97871 14.7114L12.8065 5.68497Z" fill="#C6C7F8" fill-opacity="0.4"/>
<path d="M14.694 4.32031H8.03459C7.40886 4.32031 6.90161 4.82761 6.90161 5.45329V18.3713C6.90161 18.9971 7.40891 19.5043 8.03459 19.5043H17.0386C17.6643 19.5043 18.1716 18.997 18.1716 18.3713V7.7979L14.694 4.32031Z" fill="#95A4FC"/>
<path d="M15.827 7.79784H18.1716L14.6941 4.32031V6.66492C14.694 7.2906 15.2013 7.79784 15.827 7.79784Z" fill="#C6C7F8"/>
<path d="M14.6705 10.5254L11.4876 13.7264L10.4026 12.6352" stroke="white" stroke-width="0.96" stroke-linecap="round" stroke-linejoin="round"/>
</svg>
