<svg width="21" height="20" viewBox="0 0 21 20" fill="none" xmlns="http://www.w3.org/2000/svg">
<path fill-rule="evenodd" clip-rule="evenodd" d="M10.332 0.520508C5.08325 0.520508 0.832001 4.70016 0.832001 9.86051C0.832001 13.9935 3.55138 17.4843 7.32763 18.7218C7.80263 18.8036 7.98075 18.5234 7.98075 18.2782C7.98075 18.0564 7.96888 17.3208 7.96888 16.5386C5.582 16.9706 4.9645 15.9665 4.7745 15.4412C4.66763 15.1726 4.2045 14.3437 3.80075 14.1219C3.46825 13.9468 2.99325 13.5148 3.78888 13.5031C4.537 13.4914 5.07138 14.1803 5.2495 14.4605C6.1045 15.8731 7.47013 15.4762 8.01638 15.231C8.0995 14.6239 8.34888 14.2153 8.622 13.9818C6.50825 13.7483 4.2995 12.9427 4.2995 9.37016C4.2995 8.35444 4.66763 7.51384 5.27325 6.86004C5.17825 6.62654 4.84575 5.66919 5.36825 4.38494C5.36825 4.38494 6.16388 4.13976 7.98075 5.34229C8.74075 5.13214 9.54825 5.02706 10.3558 5.02706C11.1633 5.02706 11.9708 5.13214 12.7308 5.34229C14.5476 4.12809 15.3433 4.38494 15.3433 4.38494C15.8658 5.66919 15.5333 6.62654 15.4383 6.86004C16.0439 7.51384 16.412 8.34276 16.412 9.37016C16.412 12.9544 14.1914 13.7483 12.0776 13.9818C12.422 14.2737 12.7189 14.8341 12.7189 15.7097C12.7189 16.9589 12.707 17.963 12.707 18.2782C12.707 18.5234 12.8851 18.8152 13.3601 18.7218C17.1126 17.4843 19.832 13.9818 19.832 9.86051C19.832 4.70016 15.5808 0.520508 10.332 0.520508Z" fill="black"/>
</svg>
