<svg width="24" height="24" viewBox="0 0 24 24" fill="none" xmlns="http://www.w3.org/2000/svg">
<g clip-path="url(#clip0_36948_5066)">
<g clip-path="url(#clip1_36948_5066)">
<mask id="mask0_36948_5066" style="mask-type:luminance" maskUnits="userSpaceOnUse" x="0" y="0" width="24" height="24">
<path d="M24 0H0V24H24V0Z" fill="white"/>
</mask>
<g mask="url(#mask0_36948_5066)">
<path fill-rule="evenodd" clip-rule="evenodd" d="M9.51476 8.09255C9.7843 8.17196 9.99044 8.32483 10.1424 8.46471C10.3177 8.62601 10.4968 8.84333 10.6643 9.04646L14.9259 14.212C14.9667 14.2615 15.0193 14.2943 15.0756 14.3102C15.0211 14.2938 14.9703 14.2615 14.9307 14.2134L10.6692 9.04789L10.6684 9.04692C10.5011 8.84407 10.3222 8.62718 10.1473 8.46614C9.99439 8.32543 9.78671 8.17154 9.51476 8.09255ZM23.5823 11.3602C22.3387 15.0858 18.5525 19.0174 15.6437 21.3894C14.0453 22.6928 13.2461 23.1167 11.9977 23.1167C10.7493 23.1167 9.95011 22.6928 8.35169 21.3894C5.44247 19.0171 1.65575 15.0847 0.41257 11.3588H0.416985C0.151642 10.5631 0.00231934 9.76385 0.00231934 8.9726C0.00231934 1.9436 6.49945 -1.27435 12.0025 2.66394C17.2992 -1.27435 24.0027 1.94337 24.0027 8.97255C24.0027 9.76429 23.8532 10.564 23.5877 11.3602H23.5823Z" fill="url(#paint0_radial_36948_5066)"/>
<path fill-rule="evenodd" clip-rule="evenodd" d="M9.75839 8.58348C10.0929 8.60767 10.333 8.77625 10.496 8.92635C10.638 9.05698 10.7831 9.23299 10.9187 9.39751L14.3703 13.5812C14.4156 13.6361 14.4784 13.6656 14.5429 13.6694C14.4796 13.6647 14.4181 13.6353 14.3737 13.5815L10.9222 9.39775C10.7867 9.23346 10.6411 9.057 10.4995 8.92659C10.3358 8.77599 10.0947 8.60676 9.75839 8.58348ZM21.3817 11.2706C20.3748 14.2883 17.3078 17.5452 14.9516 19.4665C13.6572 20.5223 13.0098 21.05 11.9987 21.05C10.9876 21.05 10.3403 20.5223 9.04569 19.4665C6.68944 17.5451 3.62247 14.2881 2.6156 11.2704H2.61893C2.40383 10.6256 2.28278 9.97793 2.28278 9.33678C2.28278 3.901 7.0829 1.28106 12.0021 5.10972C15.8299 1.28106 21.7214 3.90082 21.7214 9.64599C21.7214 10.264 21.6088 10.6008 21.4082 11.2017C21.4007 11.2243 21.393 11.2472 21.3852 11.2706H21.3817Z" fill="url(#paint1_radial_36948_5066)"/>
<path d="M5.03997 11.4588C4.8804 10.9805 4.79059 10.5001 4.79059 10.0245C4.79059 5.76319 8.75572 3.82619 11.9997 7.31263C15.2437 3.82619 19.2088 5.76305 19.2088 10.0244C19.2088 10.5001 19.119 10.9805 18.9595 11.4588H16.7838L16.703 11.4588C16.3096 11.4581 15.9602 11.4575 15.6423 11.5991C15.3243 11.7407 15.0909 12.0009 14.8281 12.2939L14.7741 12.354L14.0322 13.1784C13.958 13.2607 13.8294 13.2583 13.7588 13.1729L11.1987 10.0697C11.0981 9.94766 10.9904 9.8171 10.8852 9.7202C10.7626 9.60736 10.5813 9.48044 10.3279 9.46522C10.0745 9.44999 9.87933 9.55431 9.74408 9.65167C9.62796 9.73527 9.50547 9.85201 9.39099 9.96112L8.28825 11.0114C7.94815 11.3353 7.87718 11.3905 7.80295 11.4201C7.72872 11.4498 7.63927 11.4588 7.1696 11.4588H5.03997Z" fill="url(#paint2_linear_36948_5066)"/>
<path d="M18.9586 11.4592H16.7828L16.7021 11.4591C16.3087 11.4585 15.9593 11.4579 15.6413 11.5995C15.3234 11.7411 15.09 12.0012 14.8272 12.2943L14.7732 12.3543L14.0312 13.1788C13.9571 13.2611 13.8284 13.2587 13.7579 13.1733L11.1978 10.0701C11.0972 9.94804 10.9896 9.81749 10.8842 9.72059C10.7617 9.60774 10.5804 9.48082 10.327 9.4656C10.0736 9.45037 9.87842 9.5547 9.74317 9.65204C9.62705 9.73565 9.50456 9.85238 9.39008 9.96149L8.28734 11.0118C7.94724 11.3357 7.87627 11.3908 7.80204 11.4205C7.72781 11.4502 7.63836 11.4592 7.16869 11.4592H5.03906C5.78589 13.6976 8.06077 15.8883 9.80847 17.3134C10.7687 18.0965 11.2489 18.4881 11.9988 18.4881C12.7488 18.4881 13.2289 18.0965 14.1892 17.3134C15.9368 15.8883 18.2117 13.6976 18.9586 11.4592Z" fill="url(#paint3_linear_36948_5066)"/>
</g>
</g>
</g>
<defs>
<radialGradient id="paint0_radial_36948_5066" cx="0" cy="0" r="1" gradientUnits="userSpaceOnUse" gradientTransform="translate(12.0025 12.012) rotate(90) scale(11.1047 12.0293)">
<stop stop-color="#FF3B00"/>
<stop offset="1" stop-color="#FFE3E3"/>
</radialGradient>
<radialGradient id="paint1_radial_36948_5066" cx="0" cy="0" r="1" gradientUnits="userSpaceOnUse" gradientTransform="translate(12.0021 12.1728) rotate(89.995) scale(9.50198 10.4032)">
<stop stop-color="#FF1313"/>
<stop offset="1" stop-color="#FF9A81"/>
</radialGradient>
<linearGradient id="paint2_linear_36948_5066" x1="12.0554" y1="3.93273" x2="12.0554" y2="13.9587" gradientUnits="userSpaceOnUse">
<stop stop-color="#AB0000"/>
<stop offset="1" stop-color="#FF0000"/>
</linearGradient>
<linearGradient id="paint3_linear_36948_5066" x1="11.9988" y1="9.46411" x2="11.934" y2="19.2447" gradientUnits="userSpaceOnUse">
<stop stop-color="#FF6726"/>
<stop offset="1" stop-color="#DA0000"/>
</linearGradient>
<clipPath id="clip0_36948_5066">
<rect width="24" height="24" fill="white"/>
</clipPath>
<clipPath id="clip1_36948_5066">
<rect width="24" height="24" fill="white"/>
</clipPath>
</defs>
</svg>
