<svg width="128" height="129" viewBox="0 0 128 129" fill="none" xmlns="http://www.w3.org/2000/svg">
<g clip-path="url(#clip0_35375_20810)">
<path d="M0 0.799805H127.999V128.8H0V0.799805Z" fill="#FF5400"/>
<circle cx="64" cy="64.7998" r="64" fill="#FF5400"/>
<path fill-rule="evenodd" clip-rule="evenodd" d="M77.7472 27.9795C76.8364 27.9795 76.0981 28.7178 76.0981 29.6286V32.9267H66.6159C65.7051 32.9267 64.9668 33.6651 64.9668 34.5758V70.0312C64.9668 70.9419 65.7051 71.6803 66.6159 71.6803H73.6245V70.0312C73.6245 68.2096 75.1011 66.733 76.9227 66.733H83.519C85.3405 66.733 86.8172 68.2096 86.8172 70.0312V71.6803H95.4749C96.3856 71.6803 97.124 70.9419 97.124 70.0312V34.5758C97.124 33.6651 96.3856 32.9267 95.4749 32.9267H85.9926V29.6286C85.9926 28.7178 85.2543 27.9795 84.3436 27.9795H77.7472ZM76.9458 62.6104L70.488 37.2145H75.422L80.7915 59.5267H81.2994L86.6688 37.2145H91.6029L85.145 62.6104H76.9458Z" fill="white"/>
<path fill-rule="evenodd" clip-rule="evenodd" d="M44.7651 68.3799C43.8543 68.3799 43.116 69.1182 43.116 70.029V73.3271H32.8092C31.8985 73.3271 31.1602 74.0655 31.1602 74.9762V105.484C31.1602 106.395 31.8985 107.133 32.8092 107.133H95.4745C96.3853 107.133 97.1236 106.395 97.1236 105.484V74.9762C97.1236 74.0655 96.3853 73.3271 95.4745 73.3271H85.1677V70.029C85.1677 69.1182 84.4294 68.3799 83.5186 68.3799H76.9223C76.0115 68.3799 75.2732 69.1182 75.2732 70.029V73.3271H53.0105V70.029C53.0105 69.1182 52.2722 68.3799 51.3615 68.3799H44.7651ZM50.5369 77.532V102.928H55.1807V81.0511H55.8338L60.1874 102.928H68.0964L72.45 81.0511H73.103V102.928H77.7468V77.532H68.8582L64.4684 99.6627H63.8153L59.4255 77.532H50.5369Z" fill="white"/>
<path d="M44.6335 48.9922H49.1322C50.1723 48.9922 51.0067 48.7383 51.6355 48.2303C52.2886 47.7224 52.6151 46.9968 52.6151 46.0535V45.6907C52.6151 44.7475 52.3007 44.0219 51.6718 43.514C51.043 43.006 50.1964 42.7521 49.1322 42.7521H44.6335V48.9922Z" fill="white"/>
<path d="M44.6335 38.3985H49.0597C50.0513 38.3985 50.8616 38.1445 51.4904 37.6366C52.1435 37.1287 52.47 36.4273 52.47 35.5324V35.1696C52.47 34.2505 52.1556 33.5491 51.5267 33.0653C50.8979 32.5574 50.0755 32.3035 49.0597 32.3035H44.6335V38.3985Z" fill="white"/>
<path fill-rule="evenodd" clip-rule="evenodd" d="M43.6574 18.7148C42.7466 18.7148 42.0083 19.4532 42.0083 20.3639V23.6621H32.526C31.6153 23.6621 30.877 24.4004 30.877 25.3112V60.7665C30.877 61.6773 31.6153 62.4156 32.526 62.4156H40.9001V59.3775C40.9001 58.4668 41.6384 57.7284 42.5492 57.7284H51.3619C52.2727 57.7284 53.011 58.4668 53.011 59.3775V62.4156H61.385C62.2958 62.4156 63.0341 61.6773 63.0341 60.7665V25.3112C63.0341 24.4004 62.2958 23.6621 61.385 23.6621H51.9028V20.3639C51.9028 19.4532 51.1645 18.7148 50.2537 18.7148H43.6574ZM40.8935 25.4763H43.3671V27.9499H47.8099V25.4763H50.2835V27.9697C51.5332 28.0403 52.6369 28.2997 53.5947 28.748C54.7556 29.256 55.6505 29.9937 56.2794 30.9611C56.9324 31.9044 57.2589 33.0412 57.2589 34.3714V34.7342C57.2589 35.8952 57.0412 36.8505 56.6059 37.6003C56.1705 38.3259 55.6505 38.8943 55.0459 39.3055C54.4654 39.6925 53.9091 39.9706 53.377 40.1399V40.793C53.9091 40.9381 54.4896 41.2162 55.1184 41.6274C55.7473 42.0144 56.2794 42.5828 56.7147 43.3326C57.1743 44.0823 57.404 45.0619 57.404 46.2712V46.634C57.404 48.0368 57.0775 49.2462 56.4245 50.262C55.7715 51.2537 54.8645 52.0155 53.7035 52.5476C52.711 53.0122 51.571 53.274 50.2835 53.333V55.8193H47.8099V53.3458H43.3671V55.8193H40.8935V53.3458H36.5068V49.1373H39.8446V32.1584H36.5068V27.9499H40.8935V25.4763Z" fill="white"/>
</g>
<defs>
<clipPath id="clip0_35375_20810">
<rect y="0.799805" width="128" height="128" rx="12" fill="white"/>
</clipPath>
</defs>
</svg>
