<svg width="21" height="21" viewBox="0 0 21 21" fill="none" xmlns="http://www.w3.org/2000/svg">
<g clip-path="url(#clip0_35391_21125)">
<path fill-rule="evenodd" clip-rule="evenodd" d="M19.7487 8.5498C19.332 8.38314 17.4987 8.5498 16.9987 8.13314C16.6654 7.7998 16.582 7.21647 16.4987 6.38314C16.2487 5.0498 16.1654 4.7998 15.9154 4.21647C15.082 2.38314 12.9987 0.799805 11.082 0.799805H6.66536C3.2487 0.799805 0.332031 3.63314 0.332031 7.13314V14.4665C0.332031 17.9665 3.2487 20.7998 6.66536 20.7998H13.9154C17.4154 20.7998 20.2487 17.9665 20.2487 14.4665V9.38314C20.332 9.38314 20.332 8.71647 19.7487 8.5498ZM6.58203 5.7998H9.91536C10.582 5.7998 11.1654 6.38314 11.1654 7.0498C11.1654 7.71647 10.582 8.2998 9.91536 8.2998H6.58203C5.91536 8.2998 5.33203 7.71647 5.33203 7.0498C5.33203 6.38314 5.91536 5.7998 6.58203 5.7998ZM14.082 15.7998H6.58203C5.91536 15.7998 5.33203 15.2165 5.33203 14.5498C5.33203 13.8831 5.91536 13.2998 6.58203 13.2998H14.082C14.7487 13.2998 15.332 13.8831 15.332 14.5498C15.332 15.2165 14.7487 15.7998 14.082 15.7998Z" fill="#212121"/>
</g>
<defs>
<clipPath id="clip0_35391_21125">
<rect width="20" height="20" fill="white" transform="translate(0.332031 0.799805)"/>
</clipPath>
</defs>
</svg>
