<svg width="16" height="16" viewBox="0 0 16 16" fill="none" xmlns="http://www.w3.org/2000/svg">
<path d="M12.75 15H5.75C5.15326 15 4.58097 14.7629 4.15901 14.341C3.73705 13.919 3.5 13.3467 3.5 12.75V5.75C3.5 5.15326 3.73705 4.58097 4.15901 4.15901C4.58097 3.73705 5.15326 3.5 5.75 3.5H12.75C13.3467 3.5 13.919 3.73705 14.341 4.15901C14.7629 4.58097 15 5.15326 15 5.75V12.75C15 13.3467 14.7629 13.919 14.341 14.341C13.919 14.7629 13.3467 15 12.75 15Z" fill="#FA4E0E"/>
<path d="M5 2.5H12.3713C12.2157 2.06164 11.9283 1.68215 11.5485 1.41359C11.1687 1.14503 10.7151 1.00056 10.25 1H3.25C2.65326 1 2.08097 1.23705 1.65901 1.65901C1.23705 2.08097 1 2.65326 1 3.25V10.25C1.00056 10.7151 1.14503 11.1687 1.41359 11.5485C1.68215 11.9283 2.06164 12.2157 2.5 12.3713V5C2.5 4.33696 2.76339 3.70107 3.23223 3.23223C3.70107 2.76339 4.33696 2.5 5 2.5Z" fill="#FA4E0E"/>
</svg>
