<svg width="12" height="12" viewBox="0 0 12 12" fill="none" xmlns="http://www.w3.org/2000/svg">
<g clip-path="url(#clip0_34278_14078)">
<path d="M4.5 4.5V3.1C4.5 2.54 4.5 2.26 4.609 2.046C4.705 1.8575 4.8575 1.705 5.046 1.609C5.26 1.5 5.54 1.5 6.1 1.5H8.9C9.46 1.5 9.74 1.5 9.954 1.609C10.1422 1.70487 10.2951 1.85785 10.391 2.046C10.5 2.26 10.5 2.54 10.5 3.1V5.9C10.5 6.46 10.5 6.74 10.391 6.954C10.2951 7.14211 10.1421 7.29507 9.954 7.391C9.74 7.5 9.46 7.5 8.9015 7.5H7.5M4.5 4.5H3.1C2.54 4.5 2.26 4.5 2.046 4.609C1.85783 4.70484 1.70484 4.85783 1.609 5.046C1.5 5.26 1.5 5.54 1.5 6.1V8.9C1.5 9.46 1.5 9.74 1.609 9.954C1.70487 10.1422 1.85785 10.2951 2.046 10.391C2.2595 10.5 2.5395 10.5 3.0985 10.5H5.902C6.4605 10.5 6.74 10.5 6.954 10.391C7.14215 10.2951 7.29513 10.1422 7.391 9.954C7.5 9.74 7.5 9.4605 7.5 8.9015V7.5M4.5 4.5H5.9C6.46 4.5 6.74 4.5 6.954 4.609C7.14215 4.70487 7.29513 4.85785 7.391 5.046C7.5 5.2595 7.5 5.5395 7.5 6.0985V7.5" stroke="black" stroke-opacity="0.7" stroke-width="1.2" stroke-linecap="round" stroke-linejoin="round"/>
</g>
<defs>
<clipPath id="clip0_34278_14078">
<rect width="12" height="12" fill="white"/>
</clipPath>
</defs>
</svg>
