<svg width="28" height="28" viewBox="0 0 28 28" fill="none" xmlns="http://www.w3.org/2000/svg">
<path d="M18.3132 10.3936C18.5084 10.1983 18.5084 9.88172 18.3132 9.68645C18.1179 9.49119 17.8013 9.49119 17.606 9.68645L18.3132 10.3936ZM9.68645 17.606C9.49119 17.8013 9.49119 18.1179 9.68645 18.3132C9.88172 18.5084 10.1983 18.5084 10.3936 18.3132L9.68645 17.606ZM17.606 18.3132C17.8013 18.5084 18.1179 18.5084 18.3132 18.3132C18.5084 18.1179 18.5084 17.8013 18.3132 17.606L17.606 18.3132ZM10.3936 9.68645C10.1983 9.49119 9.88172 9.49119 9.68645 9.68645C9.49119 9.88172 9.49119 10.1983 9.68645 10.3936L10.3936 9.68645ZM24.6998 13.9998C24.6998 19.9093 19.9093 24.6998 13.9998 24.6998V25.6998C20.4615 25.6998 25.6998 20.4615 25.6998 13.9998H24.6998ZM13.9998 24.6998C8.09036 24.6998 3.2998 19.9093 3.2998 13.9998H2.2998C2.2998 20.4615 7.53807 25.6998 13.9998 25.6998V24.6998ZM3.2998 13.9998C3.2998 8.09036 8.09036 3.2998 13.9998 3.2998V2.2998C7.53807 2.2998 2.2998 7.53807 2.2998 13.9998H3.2998ZM13.9998 3.2998C19.9093 3.2998 24.6998 8.09036 24.6998 13.9998H25.6998C25.6998 7.53807 20.4615 2.2998 13.9998 2.2998V3.2998ZM17.606 9.68645L13.6463 13.6463L14.3534 14.3534L18.3132 10.3936L17.606 9.68645ZM13.6463 13.6463L9.68645 17.606L10.3936 18.3132L14.3534 14.3534L13.6463 13.6463ZM18.3132 17.606L14.3534 13.6463L13.6463 14.3534L17.606 18.3132L18.3132 17.606ZM14.3534 13.6463L10.3936 9.68645L9.68645 10.3936L13.6463 14.3534L14.3534 13.6463Z" fill="#5B5B5B"/>
</svg>
