<svg width="6" height="21" viewBox="0 0 6 21" fill="none" xmlns="http://www.w3.org/2000/svg">
<mask id="mask0_0_3" style="mask-type:luminance" maskUnits="userSpaceOnUse" x="0" y="0" width="6" height="21">
<path d="M6 0.5H0V20.5H6V0.5Z" fill="white"/>
</mask>
<g mask="url(#mask0_0_3)">
<path d="M2.99992 14.6667C3.44195 14.6667 3.86587 14.8423 4.17843 15.1548C4.49099 15.4674 4.66659 15.8913 4.66659 16.3333C4.66659 16.7754 4.49099 17.1993 4.17843 17.5118C3.86587 17.8244 3.44195 18 2.99992 18C2.55789 18 2.13397 17.8244 1.82141 17.5118C1.50885 17.1993 1.33325 16.7754 1.33325 16.3333C1.33325 15.8913 1.50885 15.4674 1.82141 15.1548C2.13397 14.8423 2.55789 14.6667 2.99992 14.6667ZM2.99992 8.83333C3.44195 8.83333 3.86587 9.00893 4.17843 9.32149C4.49099 9.63405 4.66659 10.058 4.66659 10.5C4.66659 10.942 4.49099 11.366 4.17843 11.6785C3.86587 11.9911 3.44195 12.1667 2.99992 12.1667C2.55789 12.1667 2.13397 11.9911 1.82141 11.6785C1.50885 11.366 1.33325 10.942 1.33325 10.5C1.33325 10.058 1.50885 9.63405 1.82141 9.32149C2.13397 9.00893 2.55789 8.83333 2.99992 8.83333ZM2.99992 3C3.44195 3 3.86587 3.17559 4.17843 3.48816C4.49099 3.80072 4.66659 4.22464 4.66659 4.66667C4.66659 5.10869 4.49099 5.53262 4.17843 5.84518C3.86587 6.15774 3.44195 6.33333 2.99992 6.33333C2.55789 6.33333 2.13397 6.15774 1.82141 5.84518C1.50885 5.53262 1.33325 5.10869 1.33325 4.66667C1.33325 4.22464 1.50885 3.80072 1.82141 3.48816C2.13397 3.17559 2.55789 3 2.99992 3Z" fill="black"/>
</g>
</svg>
