<svg width="21" height="21" viewBox="0 0 21 21" fill="none" xmlns="http://www.w3.org/2000/svg">
<g clip-path="url(#clip0_35391_21128)">
<path d="M20.293 2.90565C20.2768 2.8318 20.2414 2.76354 20.1903 2.70779C20.1392 2.65203 20.0744 2.61076 20.0022 2.58815C19.7394 2.53611 19.4675 2.55539 19.2147 2.64398C19.2147 2.64398 1.69054 8.94315 0.689708 9.64065C0.474708 9.79065 0.402208 9.87815 0.366375 9.98065C0.193041 10.4806 0.732208 10.6956 0.732208 10.6956L5.24887 12.1673C5.32525 12.181 5.40377 12.1764 5.47804 12.154C6.50471 11.5048 15.8114 5.62565 16.3522 5.42815C16.4355 5.40315 16.4997 5.42815 16.483 5.49065C16.268 6.24482 8.22554 13.389 8.18137 13.4323C8.15986 13.4499 8.1431 13.4727 8.13262 13.4984C8.12214 13.5242 8.11827 13.5522 8.12137 13.5798L7.69971 17.9898C7.69971 17.9898 7.52304 19.3623 8.89554 17.9898C9.86887 17.0156 10.803 16.209 11.2697 15.8165C12.823 16.889 14.4939 18.0748 15.2147 18.6956C15.336 18.813 15.4796 18.9047 15.6371 18.9653C15.7946 19.0259 15.9627 19.054 16.1314 19.0481C16.339 19.0228 16.5341 18.9349 16.6905 18.796C16.847 18.6571 16.9575 18.4739 17.0072 18.2706C17.0072 18.2706 20.1989 5.41815 20.3055 3.69648C20.3164 3.52982 20.3305 3.41982 20.3322 3.30398C20.3374 3.17004 20.3242 3.03602 20.293 2.90565Z" fill="#212121"/>
</g>
<defs>
<clipPath id="clip0_35391_21128">
<rect width="20" height="20" fill="white" transform="translate(0.332031 0.799805)"/>
</clipPath>
</defs>
</svg>
