<svg width="24" height="24" viewBox="0 0 24 24" fill="none" xmlns="http://www.w3.org/2000/svg">
    <path d="M12 1.5C6.19666 1.5 1.5 6.19613 1.5 12C1.5 17.8033 6.19613 22.5 12 22.5C17.8033 22.5 22.5 17.8039 22.5 12C22.5 6.19674 17.8039 1.5 12 1.5ZM12 21.0349C7.01816 21.0349 2.96512 16.9819 2.96512 12C2.96512 7.01812 7.01816 2.96512 12 2.96512C16.9818 2.96512 21.0349 7.01812 21.0349 12C21.0349 16.9819 16.9818 21.0349 12 21.0349Z" fill="#4185EC"/>
    <path d="M12.0014 10.0078C11.2906 10.0078 10.7852 10.308 10.7852 10.7503V16.7684C10.7852 17.1475 11.2906 17.5265 12.0014 17.5265C12.6806 17.5265 13.2334 17.1475 13.2334 16.7684V10.7502C13.2334 10.308 12.6806 10.0078 12.0014 10.0078Z" fill="#4185EC"/>
    <path d="M11.9983 6.29688C11.2717 6.29688 10.7031 6.81813 10.7031 7.41836C10.7031 8.01864 11.2718 8.55569 11.9983 8.55569C12.7091 8.55569 13.2778 8.01864 13.2778 7.41836C13.2778 6.81813 12.7091 6.29688 11.9983 6.29688Z" fill="#4185EC"/>
</svg>
