<svg width="21" height="20" viewBox="0 0 21 20" fill="none" xmlns="http://www.w3.org/2000/svg">
<g id="time-forward">
<path id="time-forward_2" d="M11.2151 6.98274V9.68756L12.5027 10.9751C12.7976 11.2701 12.7976 11.7468 12.5027 12.0418C12.3556 12.1888 12.1625 12.2627 11.9694 12.2627C11.7763 12.2627 11.5832 12.1888 11.4361 12.0418L9.92751 10.5332C9.78571 10.3914 9.70653 10.1998 9.70653 9.99988V6.98274C9.70653 6.56637 10.0437 6.22846 10.4608 6.22846C10.8779 6.22846 11.2151 6.56637 11.2151 6.98274ZM12.7237 6.22846C12.7237 6.64482 13.0608 6.98274 13.478 6.98274H16.4951C16.9122 6.98274 17.2494 6.64482 17.2494 6.22846V3.21132C17.2494 2.79495 16.9122 2.45703 16.4951 2.45703C16.078 2.45703 15.7408 2.79495 15.7408 3.21132V4.66703C14.3454 3.2701 12.4552 2.45703 10.4413 2.45703C6.29348 2.45703 2.91797 5.84075 2.91797 9.99988C2.91797 14.159 6.29348 17.5427 10.4413 17.5427C13.3249 17.5427 15.9044 15.9361 17.1724 13.3489C17.3557 12.9747 17.2018 12.523 16.8277 12.3397C16.4535 12.1564 16.0011 12.3111 15.8185 12.6852C14.8055 14.7512 12.7456 16.0342 10.4413 16.0342C7.12546 16.0342 4.42654 13.327 4.42654 9.99988C4.42654 6.67273 7.12471 3.9656 10.4413 3.9656C11.925 3.9656 13.3286 4.51397 14.4125 5.47417H13.478C13.0608 5.47417 12.7237 5.81209 12.7237 6.22846Z" fill="#FF7E21"/>
</g>
</svg>
