<svg width="16" height="16" viewBox="0 0 16 16" fill="none" xmlns="http://www.w3.org/2000/svg">
<path d="M8.00016 14.6668C4.31816 14.6668 1.3335 11.6822 1.3335 8.00016C1.3335 4.31816 4.31816 1.3335 8.00016 1.3335C11.6822 1.3335 14.6668 4.31816 14.6668 8.00016C14.6668 11.6822 11.6822 14.6668 8.00016 14.6668ZM8.00016 6.66683C7.82335 6.66683 7.65378 6.73707 7.52876 6.86209C7.40373 6.98712 7.3335 7.15668 7.3335 7.3335V10.6668C7.3335 10.8436 7.40373 11.0132 7.52876 11.1382C7.65378 11.2633 7.82335 11.3335 8.00016 11.3335C8.17697 11.3335 8.34654 11.2633 8.47157 11.1382C8.59659 11.0132 8.66683 10.8436 8.66683 10.6668V7.3335C8.66683 7.15668 8.59659 6.98712 8.47157 6.86209C8.34654 6.73707 8.17697 6.66683 8.00016 6.66683ZM8.00016 6.00016C8.17697 6.00016 8.34654 5.92992 8.47157 5.8049C8.59659 5.67988 8.66683 5.51031 8.66683 5.3335C8.66683 5.15668 8.59659 4.98712 8.47157 4.86209C8.34654 4.73707 8.17697 4.66683 8.00016 4.66683C7.82335 4.66683 7.65378 4.73707 7.52876 4.86209C7.40373 4.98712 7.3335 5.15668 7.3335 5.3335C7.3335 5.51031 7.40373 5.67988 7.52876 5.8049C7.65378 5.92992 7.82335 6.00016 8.00016 6.00016Z" fill="white" fill-opacity="0.6"/>
</svg>
