<svg width="80" height="80" viewBox="0 0 80 80" fill="none" xmlns="http://www.w3.org/2000/svg">
<path d="M17.6601 51.54H2.66012L4.12012 53V4L2.62012 5.5H77.3801L75.8801 4V53L77.3801 51.5H62.2501C61.8523 51.5 61.4708 51.658 61.1895 51.9393C60.9082 52.2206 60.7501 52.6022 60.7501 53C60.7501 53.3978 60.9082 53.7794 61.1895 54.0607C61.4708 54.342 61.8523 54.5 62.2501 54.5H77.3801C77.7763 54.4948 78.1549 54.3351 78.435 54.0549C78.7152 53.7747 78.8749 53.3962 78.8801 53V4C78.8749 3.60379 78.7152 3.22526 78.435 2.94507C78.1549 2.66488 77.7763 2.50518 77.3801 2.5H2.62012C2.2239 2.50518 1.84537 2.66488 1.56518 2.94507C1.285 3.22526 1.1253 3.60379 1.12012 4V53C1.1253 53.3962 1.285 53.7747 1.56518 54.0549C1.84537 54.3351 2.2239 54.4948 2.62012 54.5H17.6201C18.0179 54.5 18.3995 54.342 18.6808 54.0607C18.9621 53.7794 19.1201 53.3978 19.1201 53C19.1201 52.6022 18.9621 52.2206 18.6808 51.9393C18.3995 51.658 18.0179 51.5 17.6201 51.5L17.6601 51.54Z" fill="#FA4E0E"/>
<path d="M40 44.4897C41.5463 44.4897 42.7999 43.236 42.7999 41.6896C42.7999 40.1433 41.5463 38.8896 40 38.8896C38.4536 38.8896 37.2 40.1433 37.2 41.6896C37.2 43.236 38.4536 44.4897 40 44.4897Z" fill="#FA4E0E"/>
<path d="M47.5599 57.4297H32.4399C32.6832 59.1114 32.7536 60.8136 32.6499 62.5097H47.3499C47.2463 60.8136 47.3167 59.1114 47.5599 57.4297Z" fill="#FA4E0E"/>
<path d="M46.9201 29.6204C45.1934 26.729 42.8259 24.2726 40.0001 22.4404C37.1743 24.2726 34.8068 26.729 33.0801 29.6204H46.9201Z" fill="#FA4E0E"/>
<path d="M50.67 45.89C51.075 40.9542 50.1532 35.9999 48 31.54H32C29.8433 35.9989 28.9181 40.9533 29.32 45.89C29.32 45.89 20.58 52 21.46 60.41C21.46 60.41 26 52.53 30.73 53.93C30.73 53.93 31.37 54.13 31.92 55.51H48.08C48.63 54.13 49.27 53.93 49.27 53.93C54 52.53 58.54 60.41 58.54 60.41C59.42 52 50.67 45.89 50.67 45.89ZM40 47.11C38.9252 47.112 37.8739 46.795 36.9795 46.1991C36.085 45.6032 35.3874 44.7552 34.9752 43.7626C34.563 42.77 34.4546 41.6774 34.6638 40.6232C34.873 39.5689 35.3904 38.6005 36.1504 37.8405C36.9104 37.0805 37.8788 36.5631 38.9331 36.3539C39.9873 36.1447 41.0799 36.2531 42.0726 36.6653C43.0652 37.0775 43.9131 37.775 44.509 38.6695C45.1049 39.564 45.4219 40.6152 45.42 41.69C45.42 42.4018 45.2798 43.1066 45.0074 43.7642C44.735 44.4218 44.3358 45.0193 43.8325 45.5226C43.3292 46.0259 42.7317 46.4251 42.0741 46.6975C41.4165 46.9698 40.7117 47.11 40 47.11Z" fill="#FA4E0E"/>
<path d="M35.7101 65.6504H35.5501C35.0144 65.6504 34.5801 66.0847 34.5801 66.6204V73.2504C34.5801 73.7861 35.0144 74.2204 35.5501 74.2204H35.7101C36.2458 74.2204 36.6801 73.7861 36.6801 73.2504V66.6204C36.6801 66.0847 36.2458 65.6504 35.7101 65.6504Z" fill="#FA4E0E"/>
<path d="M44.4501 65.6504H44.2901C43.7544 65.6504 43.3201 66.0847 43.3201 66.6204V73.2504C43.3201 73.7861 43.7544 74.2204 44.2901 74.2204H44.4501C44.9858 74.2204 45.4201 73.7861 45.4201 73.2504V66.6204C45.4201 66.0847 44.9858 65.6504 44.4501 65.6504Z" fill="#FA4E0E"/>
<path d="M40.08 65.6504H39.9199C39.3842 65.6504 38.95 66.0847 38.95 66.6204V76.7504C38.95 77.2861 39.3842 77.7204 39.9199 77.7204H40.08C40.6157 77.7204 41.0499 77.2861 41.0499 76.7504V66.6204C41.0499 66.0847 40.6157 65.6504 40.08 65.6504Z" fill="#FA4E0E"/>
<path d="M2.62012 16.54H77.3801C77.7779 16.54 78.1595 16.382 78.4408 16.1007C78.7221 15.8194 78.8801 15.4379 78.8801 15.04C78.8801 14.6422 78.7221 14.2607 78.4408 13.9794C78.1595 13.6981 77.7779 13.54 77.3801 13.54H2.62012C2.22229 13.54 1.84076 13.6981 1.55946 13.9794C1.27815 14.2607 1.12012 14.6422 1.12012 15.04C1.12012 15.4379 1.27815 15.8194 1.55946 16.1007C1.84076 16.382 2.22229 16.54 2.62012 16.54Z" fill="#FA4E0E"/>
<path d="M37.3799 11.2402H43.9999C44.3977 11.2402 44.7792 11.0822 45.0605 10.8009C45.3418 10.5196 45.4999 10.1381 45.4999 9.74023C45.4999 9.34241 45.3418 8.96088 45.0605 8.67957C44.7792 8.39827 44.3977 8.24023 43.9999 8.24023H37.3799C36.9821 8.24023 36.6005 8.39827 36.3192 8.67957C36.0379 8.96088 35.8799 9.34241 35.8799 9.74023C35.8799 10.1381 36.0379 10.5196 36.3192 10.8009C36.6005 11.0822 36.9821 11.2402 37.3799 11.2402Z" fill="#FA4E0E"/>
<path d="M49.3501 11.2402H56.0001C56.3979 11.2402 56.7795 11.0822 57.0608 10.8009C57.3421 10.5196 57.5001 10.1381 57.5001 9.74023C57.5001 9.34241 57.3421 8.96088 57.0608 8.67957C56.7795 8.39827 56.3979 8.24023 56.0001 8.24023H49.3501C48.9523 8.24023 48.5707 8.39827 48.2894 8.67957C48.0081 8.96088 47.8501 9.34241 47.8501 9.74023C47.8501 10.1381 48.0081 10.5196 48.2894 10.8009C48.5707 11.0822 48.9523 11.2402 49.3501 11.2402Z" fill="#FA4E0E"/>
<path d="M62.6201 11.2402H69.2501C69.6479 11.2402 70.0295 11.0822 70.3108 10.8009C70.5921 10.5196 70.7501 10.1381 70.7501 9.74023C70.7501 9.34241 70.5921 8.96088 70.3108 8.67957C70.0295 8.39827 69.6479 8.24023 69.2501 8.24023H62.6201C62.2223 8.24023 61.8408 8.39827 61.5595 8.67957C61.2782 8.96088 61.1201 9.34241 61.1201 9.74023C61.1201 10.1381 61.2782 10.5196 61.5595 10.8009C61.8408 11.0822 62.2223 11.2402 62.6201 11.2402Z" fill="#FA4E0E"/>
</svg>
