<svg width="80" height="80" viewBox="0 0 80 80" fill="none" xmlns="http://www.w3.org/2000/svg">
<path d="M75.6701 42.1201H69.8501V58.4001H75.6701V42.1201Z" fill="#FA4E0E"/>
<path d="M75.6701 60.4404H69.8501V65.3804H75.6701V60.4404Z" fill="#FA4E0E"/>
<path d="M72.7601 67.4199H66.0701L72.7601 79.0499L79.4501 67.4199H72.7601Z" fill="#FA4E0E"/>
<path d="M60.6801 56.9295C52.6801 67.0395 39.6801 71.9295 27.0801 68.4595C20.7674 66.6756 15.1608 62.983 11.0289 57.888C6.89696 52.7929 4.44185 46.5446 4.00008 39.9995C3.6023 33.4588 5.25355 26.9568 8.72401 21.3985C12.1945 15.8402 17.3115 11.5021 23.3628 8.98809C29.4141 6.47404 36.0987 5.9091 42.4861 7.37191C48.8735 8.83473 54.646 12.2525 59.0001 17.1495C69.1401 28.4895 69.2801 45.1495 60.5201 57.2595C59.3801 58.8295 61.9901 60.3195 63.1101 58.7695C71.5301 47.1295 72.3601 31.2395 64.3001 19.1195C60.4049 13.2936 54.8451 8.77603 48.3452 6.15574C41.8453 3.53545 34.7068 2.93392 27.8601 4.42954C21.0379 6.00788 14.8505 9.6076 10.1067 14.7582C5.3628 19.9089 2.2831 26.3708 1.27008 33.2995C0.311107 40.476 1.61571 47.7729 5.00195 54.1725C8.3882 60.5722 13.6872 65.7554 20.1601 68.9995C27.3414 72.4502 35.4871 73.3399 43.244 71.5207C51.0008 69.7016 57.9017 65.2831 62.8001 58.9995C64.0001 57.5495 61.8801 55.4095 60.6801 56.9295Z" fill="#FA4E0E"/>
<path d="M54.7 20.3404C52.7212 18.2133 50.4196 16.4112 47.88 15.0004C46.78 14.3904 45.8 16.0704 46.88 16.6704C49.2691 17.9898 51.4357 19.6771 53.3 21.6704C54.16 22.5904 55.53 21.2104 54.68 20.3004L54.7 20.3404Z" fill="#FA4E0E"/>
<path d="M44.8201 13.6303C32.4801 9.23026 18.4801 14.0503 12.2501 25.8403C9.4801 31.1249 8.59612 37.1966 9.74426 43.0517C10.8924 48.9068 14.0039 54.195 18.5646 58.0422C23.1253 61.8894 28.8621 64.0654 34.827 64.2105C40.7919 64.3556 46.6278 62.4612 51.3701 58.8403C62.6001 50.2503 64.5301 34.5203 56.8201 23.0003C56.1301 22.0003 54.4501 22.9303 55.1501 24.0003C62.5501 35.1003 60.4901 50.3303 49.2201 58.1103C44.7521 61.2114 39.3718 62.7219 33.9426 62.3994C28.5133 62.0769 23.3498 59.9401 19.2802 56.3319C15.2107 52.7236 12.4711 47.853 11.5009 42.5014C10.5307 37.1498 11.3862 31.6275 13.9301 26.8203C19.6801 15.7103 32.8201 11.4103 44.3001 15.5003C45.4801 15.9203 45.9901 14.0503 44.8201 13.6303Z" fill="#FA4E0E"/>
<path d="M68.2501 27.7599C74.4301 27.7599 79.4401 22.7499 79.4401 16.5699C79.4401 10.3898 74.4301 5.37988 68.2501 5.37988C62.07 5.37988 57.0601 10.3898 57.0601 16.5699C57.0601 22.7499 62.07 27.7599 68.2501 27.7599Z" stroke="#FA4E0E" stroke-width="0.790096" stroke-miterlimit="10"/>
<path d="M60.49 12.2504C60.0142 13.1123 59.6768 14.0437 59.49 15.0104C59.42 15.4304 60.05 15.6004 60.13 15.1904C60.2956 14.2783 60.6026 13.3977 61.04 12.5804C61.25 12.2104 60.68 11.8704 60.48 12.2504H60.49Z" fill="#FA4E0E"/>
<path d="M59.3799 16.1497C59.3799 25.4497 72.2699 29.1497 76.3299 20.2597C80.7199 10.6497 67.5899 3.39968 61.1099 11.2597C60.8399 11.5897 61.2999 12.0597 61.5699 11.7297C67.2699 4.79968 79.0999 10.2197 76.0499 19.1997C72.9999 28.1797 60.0499 25.1997 60.0499 16.1297C60.0364 16.0533 59.9965 15.984 59.937 15.9341C59.8776 15.8842 59.8025 15.8569 59.7249 15.8569C59.6473 15.8569 59.5722 15.8842 59.5127 15.9341C59.4533 15.984 59.4133 16.0533 59.3999 16.1297L59.3799 16.1497Z" fill="#FA4E0E"/>
<path d="M12.3499 78.0104C16.8676 78.0104 20.5299 74.3481 20.5299 69.8304C20.5299 65.3127 16.8676 61.6504 12.3499 61.6504C7.83223 61.6504 4.16992 65.3127 4.16992 69.8304C4.16992 74.3481 7.83223 78.0104 12.3499 78.0104Z" stroke="#FA4E0E" stroke-width="0.577374" stroke-miterlimit="10"/>
<path d="M6.66995 66.6804C6.32954 67.3065 6.08674 67.9809 5.94995 68.6804C5.94995 68.9804 6.35995 69.1104 6.41995 68.8104C6.53572 68.1409 6.76215 67.4954 7.08995 66.9004C7.22995 66.6304 6.81995 66.3904 6.66995 66.6604V66.6804Z" fill="#FA4E0E"/>
<path d="M5.86011 69.5298C5.86011 76.3198 15.2801 79.0498 18.2501 72.5298C21.4601 65.5298 11.8601 60.2098 7.12011 65.9698C6.93011 66.2098 7.27011 66.5498 7.46011 66.3098C11.6301 61.2498 20.2801 65.2098 18.0401 71.7698C15.8001 78.3298 6.37011 76.1698 6.34011 69.5298C6.34011 69.4661 6.31482 69.4051 6.26981 69.3601C6.2248 69.3151 6.16376 69.2898 6.10011 69.2898C6.03646 69.2898 5.97541 69.3151 5.9304 69.3601C5.88539 69.4051 5.86011 69.4661 5.86011 69.5298Z" fill="#FA4E0E"/>
</svg>
