<svg width="80" height="80" viewBox="0 0 80 80" fill="none" xmlns="http://www.w3.org/2000/svg">
<path d="M61.47 77.05H76C76.3962 77.0448 76.7747 76.8851 77.0549 76.6049C77.3351 76.3247 77.4948 75.9462 77.5 75.55V4.45C77.4822 4.06256 77.3169 3.69659 77.038 3.42703C76.7592 3.15746 76.3878 3.00469 76 3H4C3.60379 3.00518 3.22526 3.16488 2.94507 3.44507C2.66488 3.72526 2.50518 4.10379 2.5 4.5V75.6C2.51783 75.9874 2.6831 76.3534 2.96196 76.623C3.24082 76.8925 3.61218 77.0453 4 77.05H49.13C49.5262 77.0448 49.9047 76.8851 50.1849 76.6049C50.4651 76.3247 50.6248 75.9462 50.63 75.55V50.22C50.63 49.8222 50.472 49.4406 50.1907 49.1593C49.9094 48.878 49.5278 48.72 49.13 48.72C48.7322 48.72 48.3506 48.878 48.0693 49.1593C47.788 49.4406 47.63 49.8222 47.63 50.22V75.55L49.13 74.05H4L5.5 75.55V4.45L4 6H76L74.5 4.5V75.6L76 74.1H61.47C61.0722 74.1 60.6906 74.258 60.4093 74.5393C60.128 74.8206 59.97 75.2022 59.97 75.6C59.97 75.9978 60.128 76.3794 60.4093 76.6607C60.6906 76.942 61.0722 77.1 61.47 77.1V77.05Z" fill="#FA4E0E"/>
<path d="M28.69 26.6104H4C3.60218 26.6104 3.22064 26.7684 2.93934 27.0497C2.65804 27.331 2.5 27.7125 2.5 28.1104C2.5 28.5082 2.65804 28.8897 2.93934 29.171C3.22064 29.4523 3.60218 29.6104 4 29.6104H28.69C29.0878 29.6104 29.4694 29.4523 29.7507 29.171C30.032 28.8897 30.19 28.5082 30.19 28.1104C30.19 27.7125 30.032 27.331 29.7507 27.0497C29.4694 26.7684 29.0878 26.6104 28.69 26.6104Z" fill="#FA4E0E"/>
<path d="M46.1699 20.48H60.3099L58.8099 19V33.64C58.8099 34.0378 58.968 34.4194 59.2493 34.7007C59.5306 34.982 59.9121 35.14 60.3099 35.14C60.7078 35.14 61.0893 34.982 61.3706 34.7007C61.6519 34.4194 61.8099 34.0378 61.8099 33.64V19C61.8047 18.6038 61.645 18.2253 61.3649 17.9451C61.0847 17.6649 60.7061 17.5052 60.3099 17.5H46.1699C45.7721 17.5 45.3906 17.658 45.1093 17.9393C44.828 18.2206 44.6699 18.6022 44.6699 19C44.6699 19.3978 44.828 19.7794 45.1093 20.0607C45.3906 20.342 45.7721 20.5 46.1699 20.5V20.48Z" fill="#FA4E0E"/>
<path d="M59.25 17.9202L42.93 34.0002C41.55 35.3602 43.67 37.4802 45.05 36.1202L61.37 20.0002C62.75 18.6402 60.63 16.5202 59.25 17.8802V17.9202Z" fill="#FA4E0E"/>
<path d="M32.5399 59.14H18.3999L19.8999 60.64V46C19.8999 45.6022 19.7419 45.2206 19.4606 44.9393C19.1793 44.658 18.7977 44.5 18.3999 44.5C18.0021 44.5 17.6205 44.658 17.3392 44.9393C17.0579 45.2206 16.8999 45.6022 16.8999 46V60.64C16.9051 61.0362 17.0648 61.4147 17.345 61.6949C17.6252 61.9751 18.0037 62.1348 18.3999 62.14H32.5399C32.9377 62.14 33.3193 61.982 33.6006 61.7007C33.8819 61.4194 34.0399 61.0378 34.0399 60.64C34.0399 60.2422 33.8819 59.8606 33.6006 59.5793C33.3193 59.298 32.9377 59.14 32.5399 59.14Z" fill="#FA4E0E"/>
<path d="M19.4599 61.6999L35.7899 45.6199C37.1699 44.2699 35.0499 42.1499 33.6699 43.4999L17.3399 59.5799C15.9599 60.9299 18.0799 63.0499 19.4599 61.6999Z" fill="#FA4E0E"/>
</svg>
