<svg width="80" height="80" viewBox="0 0 80 80" fill="none" xmlns="http://www.w3.org/2000/svg">
<path d="M34.26 0.829717L1.49002 18.9997C1.26873 19.1357 1.08597 19.3262 0.959202 19.5529C0.832431 19.7796 0.765869 20.035 0.765869 20.2947C0.765869 20.5545 0.832431 20.8099 0.959202 21.0366C1.08597 21.2633 1.26873 21.4537 1.49002 21.5897L35.27 41.4197C35.5002 41.5503 35.7604 41.619 36.025 41.619C36.2897 41.619 36.5498 41.5503 36.78 41.4197L68.41 23.4197C68.6313 23.2837 68.8141 23.0933 68.9408 22.8666C69.0676 22.6399 69.1342 22.3845 69.1342 22.1247C69.1342 21.865 69.0676 21.6096 68.9408 21.3829C68.8141 21.1562 68.6313 20.9657 68.41 20.8297L35.78 0.829717C34.13 -0.170283 32.62 2.40972 34.26 3.41972L66.89 23.4197V20.8497L50.65 30.0897L39.73 36.2897C38.5183 36.801 37.3706 37.452 36.31 38.2297C34.96 39.5997 35.59 37.7697 36.6 38.7197C35 37.1997 32.22 36.1497 30.33 34.9997L19 28.3897L3.00002 18.9997V21.5897L35.78 3.41972C37.47 2.47972 36 -0.110283 34.26 0.829717Z" fill="#FA4E0E"/>
<path d="M18.2 28.7902L1.49002 38.0002C1.26873 38.1362 1.08597 38.3266 0.959202 38.5533C0.832431 38.78 0.765869 39.0354 0.765869 39.2952C0.765869 39.5549 0.832431 39.8103 0.959202 40.037C1.08597 40.2637 1.26873 40.4542 1.49002 40.5902L35.27 60.5002C35.5002 60.6308 35.7604 60.6994 36.025 60.6994C36.2897 60.6994 36.5498 60.6308 36.78 60.5002L48.59 53.7902C48.9348 53.5899 49.1859 53.2609 49.2881 52.8755C49.3903 52.4902 49.3353 52.0799 49.135 51.7352C48.9348 51.3904 48.6058 51.1393 48.2204 51.0371C47.835 50.9349 47.4248 50.9899 47.08 51.1902C43.27 53.3602 38.81 55.1902 35.34 57.8602C36.41 57.0502 36.88 58.6002 36.21 57.5702C35.97 57.2002 34.8 56.7402 34.43 56.5702L28.15 52.8702L3.00002 38.0002V40.5902L19.71 31.3402C21.4 30.4102 19.89 27.8202 18.19 28.7502L18.2 28.7902Z" fill="#FA4E0E"/>
<path d="M17.67 47.9998L1.49002 56.9998C1.26873 57.1358 1.08597 57.3263 0.959202 57.553C0.832431 57.7797 0.765869 58.0351 0.765869 58.2948C0.765869 58.5546 0.832431 58.81 0.959202 59.0367C1.08597 59.2634 1.26873 59.4538 1.49002 59.5898L35.27 79.4198C35.5002 79.5504 35.7604 79.6191 36.025 79.6191C36.2897 79.6191 36.5498 79.5504 36.78 79.4198L49.2 72.3598C49.5435 72.1583 49.7928 71.8285 49.8931 71.4431C49.9935 71.0577 49.9366 70.6483 49.735 70.3048C49.5335 69.9614 49.2037 69.7121 48.8183 69.6117C48.4329 69.5114 48.0235 69.5683 47.68 69.7698C43.9 71.9198 38.77 73.7698 35.55 76.6598C35.55 76.6598 36.9 77.4398 36.34 76.5698C36.1 76.2098 35.03 75.7998 34.66 75.5698L28.53 71.9998L3.00002 56.9998V59.5898L19.19 50.5998C20.88 49.6598 19.36 47.0698 17.67 48.0098V47.9998Z" fill="#FA4E0E"/>
<path d="M77.25 71.9395H53.49L54.99 73.4395V54.5195L53.49 55.9995H77.25L75.75 54.4995V73.4395C75.75 73.8374 75.908 74.2189 76.1893 74.5002C76.4706 74.7815 76.8522 74.9395 77.25 74.9395C77.6478 74.9395 78.0293 74.7815 78.3106 74.5002C78.592 74.2189 78.75 73.8374 78.75 73.4395V54.5195C78.7448 54.1233 78.5851 53.7448 78.3049 53.4646C78.0247 53.1844 77.6462 53.0247 77.25 53.0195H53.49C53.0938 53.0247 52.7152 53.1844 52.4351 53.4646C52.1549 53.7448 51.9952 54.1233 51.99 54.5195V73.4395C51.9952 73.8357 52.1549 74.2143 52.4351 74.4945C52.7152 74.7747 53.0938 74.9344 53.49 74.9395H77.25C77.6478 74.9395 78.0293 74.7815 78.3106 74.5002C78.592 74.2189 78.75 73.8374 78.75 73.4395C78.75 73.0417 78.592 72.6602 78.3106 72.3789C78.0293 72.0976 77.6478 71.9395 77.25 71.9395Z" fill="#FA4E0E"/>
<path d="M77.25 53.0003H53.4901L54.9901 54.5003C54.9901 52.2503 54.8901 49.9803 54.9901 47.7403C55.2601 41.9703 59.55 37.0703 65.57 37.0703C75.78 37.0703 75.75 47.1303 75.75 54.5003C75.75 54.8981 75.9081 55.2797 76.1894 55.561C76.4707 55.8423 76.8522 56.0003 77.25 56.0003C77.6479 56.0003 78.0294 55.8423 78.3107 55.561C78.592 55.2797 78.75 54.8981 78.75 54.5003C78.75 50.6003 79.26 46.3103 77.88 42.5903C76.9217 40.0978 75.2346 37.9518 73.0389 36.4321C70.8431 34.9123 68.2404 34.0893 65.57 34.0703C62.9906 34.0908 60.469 34.8369 58.2938 36.2234C56.1186 37.6099 54.3776 39.5807 53.2701 41.9103C51.4701 45.8103 52 50.3503 52 54.5203C52.0052 54.9165 52.1649 55.2951 52.4451 55.5752C52.7253 55.8554 53.1038 56.0151 53.5 56.0203H77.25C77.6505 56.0203 78.0346 55.8612 78.3178 55.578C78.601 55.2949 78.7601 54.9108 78.7601 54.5103C78.7601 54.1098 78.601 53.7258 78.3178 53.4426C78.0346 53.1594 77.6505 53.0003 77.25 53.0003Z" fill="#FA4E0E"/>
<path d="M66.9999 63.5804C66.8699 65.9504 63.8399 65.9904 63.8399 63.5804C63.8399 61.1704 66.8399 61.2204 66.9999 63.5804C67.0999 65.5004 70.0999 65.5104 69.9999 63.5804C69.8699 61.0704 68.1299 58.6904 65.4199 58.6904C64.1869 58.7616 63.0262 59.2958 62.1701 60.1861C61.3141 61.0764 60.8258 62.2571 60.8031 63.492C60.7803 64.7269 61.2248 65.9248 62.0474 66.8461C62.8701 67.7673 64.0103 68.3439 65.2399 68.4604C68.0299 68.5704 69.8599 66.1704 69.9999 63.5804C70.0499 61.6504 67.0499 61.6604 66.9999 63.5804Z" fill="#FA4E0E"/>
</svg>
