<svg width="80" height="80" viewBox="0 0 80 80" fill="none" xmlns="http://www.w3.org/2000/svg">
<path d="M37.15 53.5702C36.07 49.9802 35.43 43.9102 30.51 43.8202C26 43.7402 24.19 48.3702 25 52.1402C26.77 60.9102 29.29 69.5902 31.43 78.2802C31.5221 78.5947 31.7126 78.8713 31.9737 79.0693C32.2347 79.2673 32.5524 79.3763 32.88 79.3802H65.88C66.2762 79.3751 66.6548 79.2154 66.9349 78.9352C67.2151 78.655 67.3748 78.2765 67.38 77.8802V53.7302C67.38 51.3702 68.01 47.9302 65.7 46.3902C62.52 44.2802 59.59 47.5302 59.59 50.6202L61.09 49.1202H59.61L61.11 50.6202C61.11 47.2502 62.37 40.1302 57.11 40.0302C51.61 39.9302 52.38 46.5402 52.38 50.1402L53.88 48.6402H52.44L53.94 50.1402C53.94 46.1402 55.43 37.7002 49.18 37.6402C42.93 37.5802 43.76 45.0002 43.76 49.1802L45.26 47.6802H43.83L45.33 49.1802V34.3102C45.33 30.6502 43.87 26.0602 39.1 27.8902C34.98 29.4802 36.1 35.3002 36.1 38.7302V54.0002L37.6 52.5002H35.7C35.3022 52.5002 34.9207 52.6583 34.6394 52.9396C34.3581 53.2209 34.2 53.6024 34.2 54.0002C34.2 54.3981 34.3581 54.7796 34.6394 55.0609C34.9207 55.3422 35.3022 55.5002 35.7 55.5002H37.61C38.0062 55.4951 38.3848 55.3354 38.665 55.0552C38.9451 54.775 39.1048 54.3965 39.11 54.0002V44.5602C39.11 41.1402 38.11 36.0202 39.11 32.7002C40.11 29.3802 41.8 30.8002 42.33 32.7902C42.81 34.5802 42.33 37.1702 42.33 39.0202V49.1802C42.3352 49.5765 42.4949 49.955 42.7751 50.2352C43.0553 50.5154 43.4338 50.6751 43.83 50.6802H45.26C45.6562 50.6751 46.0348 50.5154 46.315 50.2352C46.5951 49.955 46.7548 49.5765 46.76 49.1802V46.1202C46.6651 45.313 46.6651 44.4975 46.76 43.6902C47.32 42.3402 50.11 41.1102 50.94 42.7602C51.77 44.4102 50.94 48.2402 50.94 50.1402C50.9452 50.5365 51.1049 50.915 51.3851 51.1952C51.6653 51.4754 52.0438 51.6351 52.44 51.6402H53.87C54.2662 51.6351 54.6448 51.4754 54.925 51.1952C55.2051 50.915 55.3648 50.5365 55.37 50.1402V47.4502C55.3 46.9025 55.3 46.348 55.37 45.8002C55.57 45.1902 54.52 40.5902 58.11 44.2202C58.8 44.9202 58.11 49.5802 58.11 50.6202C58.1152 51.0165 58.2749 51.395 58.5551 51.6752C58.8353 51.9554 59.2138 52.1151 59.61 52.1202H61C61.3962 52.1151 61.7748 51.9554 62.055 51.6752C62.3351 51.395 62.4948 51.0165 62.5 50.6202C62.5 49.9902 64.04 49.4702 64.29 49.6202C64.54 49.7702 64.29 50.2002 64.29 50.3102C64.59 51.0202 64.29 52.5702 64.29 53.3102V77.8802L65.79 76.3802H32.79L34.24 77.4803L29.71 58.9202C29.1 56.4302 27.89 53.5202 27.71 50.9202C27.46 46.4802 31.12 46.3102 32.79 49.5702C33.4048 51.1155 33.8832 52.7116 34.22 54.3402C34.81 56.2102 37.7 55.4202 37.15 53.5702Z" fill="#FA4E0E"/>
<path d="M32.93 27.0003L21 15.0803C20.7157 14.8154 20.3396 14.6711 19.951 14.678C19.5624 14.6848 19.1916 14.8422 18.9168 15.1171C18.6419 15.3919 18.4845 15.7627 18.4777 16.1513C18.4708 16.5399 18.615 16.916 18.88 17.2003L30.88 29.2003C31.1717 29.4722 31.5595 29.617 31.958 29.6029C32.3565 29.5889 32.7332 29.4171 33.005 29.1253C33.2768 28.8336 33.4217 28.4458 33.4076 28.0473C33.3935 27.6488 33.2217 27.2722 32.93 27.0003Z" fill="#FA4E0E"/>
<path d="M37.69 23.0797L33.32 6.74969C33.188 6.396 32.9283 6.10458 32.5921 5.93285C32.256 5.76113 31.8676 5.72156 31.5037 5.82195C31.1398 5.92234 30.8267 6.15541 30.6261 6.47521C30.4255 6.79502 30.352 7.17836 30.42 7.54969L34.8 23.8797C34.9152 24.2524 35.171 24.5656 35.5133 24.7529C35.8556 24.9401 36.2573 24.9866 36.6333 24.8825C37.0093 24.7784 37.3299 24.5319 37.5272 24.1954C37.7245 23.8588 37.7829 23.4586 37.69 23.0797Z" fill="#FA4E0E"/>
<path d="M44 22.9998L46.78 6.31984C47.09 4.42984 44.2 3.61984 43.89 5.52984L41.1 22.1998C40.79 24.0898 43.68 24.8998 44 22.9998Z" fill="#FA4E0E"/>
<path d="M49.19 26.2904L61.19 14.2904C61.4658 14 61.615 13.6119 61.6047 13.2115C61.5944 12.8111 61.4254 12.4312 61.135 12.1554C60.8446 11.8796 60.4565 11.7304 60.0561 11.7407C59.6557 11.7511 59.2758 11.92 59 12.2104L47 24.2104C46.735 24.4948 46.5908 24.8709 46.5976 25.2595C46.6045 25.6481 46.7619 26.0188 47.0368 26.2937C47.3116 26.5685 47.6823 26.7259 48.071 26.7328C48.4596 26.7396 48.8356 26.5954 49.12 26.3304L49.19 26.2904Z" fill="#FA4E0E"/>
<path d="M28.92 35.0004C28.79 37.4304 25.14 37.4504 25.14 35.0004C25.14 32.5504 28.79 32.5804 28.92 35.0004C28.92 35.6404 29.92 35.6504 29.92 35.0004C29.8923 34.2376 29.5748 33.514 29.0323 32.9771C28.4898 32.4402 27.7631 32.1302 27 32.1104C26.4297 32.1163 25.874 32.2908 25.4027 32.6119C24.9314 32.9331 24.5656 33.3865 24.3515 33.915C24.1373 34.4436 24.0844 35.0237 24.1993 35.5823C24.3141 36.1409 24.5917 36.6531 24.9971 37.0543C25.4024 37.4554 25.9174 37.7277 26.4771 37.8368C27.0369 37.9459 27.6165 37.887 28.1428 37.6674C28.6691 37.4478 29.1187 37.0774 29.435 36.6028C29.7512 36.1282 29.92 35.5707 29.92 35.0004C30 34.3604 29 34.3604 28.92 35.0004Z" fill="#FA4E0E"/>
<path d="M18.2699 23.35C18.0699 27 12.5699 27.03 12.5699 23.35C12.5699 19.67 18.0699 19.7 18.2699 23.35C18.2699 23.99 19.2699 24 19.2699 23.35C19.2699 22.3289 18.8643 21.3497 18.1423 20.6276C17.4203 19.9056 16.441 19.5 15.4199 19.5C14.3989 19.5 13.4196 19.9056 12.6976 20.6276C11.9756 21.3497 11.5699 22.3289 11.5699 23.35C11.5699 24.3711 11.9756 25.3503 12.6976 26.0724C13.4196 26.7944 14.3989 27.2 15.4199 27.2C16.441 27.2 17.4203 26.7944 18.1423 26.0724C18.8643 25.3503 19.2699 24.3711 19.2699 23.35C19.2999 22.71 18.2999 22.71 18.2699 23.35Z" fill="#FA4E0E"/>
<path d="M66.45 17.0505C67.0154 17.5405 67.3704 18.2295 67.4411 18.9744C67.5119 19.7192 67.293 20.4628 66.83 21.0505C66.4717 21.4867 65.9921 21.8067 65.4518 21.9699C64.9114 22.1331 64.3348 22.1322 63.795 21.9674C63.2552 21.8025 62.7765 21.481 62.4196 21.0438C62.0627 20.6065 61.8437 20.0731 61.7903 19.5112C61.7369 18.9493 61.8516 18.3842 62.1198 17.8876C62.3879 17.3909 62.7976 16.9851 63.2967 16.7215C63.7958 16.4579 64.3619 16.3485 64.9233 16.4071C65.4847 16.4656 66.016 16.6896 66.45 17.0505C66.95 17.4505 67.66 16.7405 67.15 16.3505C66.5748 15.8505 65.8641 15.5325 65.1081 15.4368C64.352 15.341 63.5845 15.4718 62.9029 15.8125C62.2212 16.1533 61.656 16.6887 61.2788 17.3509C60.9017 18.0132 60.7295 18.7724 60.7842 19.5326C60.8389 20.2927 61.118 21.0195 61.5861 21.6209C62.0542 22.2223 62.6902 22.6713 63.4136 22.9109C64.1371 23.1506 64.9154 23.1701 65.6499 22.9671C66.3845 22.7641 67.0423 22.3476 67.54 21.7705C68.1927 20.9938 68.5171 19.9933 68.4443 18.9814C68.3715 17.9694 67.9072 17.0257 67.15 16.3505C66.68 15.9105 66 16.6205 66.45 17.0505Z" fill="#FA4E0E"/>
<path d="M55.21 25.5497C55.5474 25.8494 55.756 26.2679 55.7921 26.7178C55.8283 27.1677 55.6892 27.6142 55.404 27.964C55.1187 28.3138 54.7093 28.5398 54.2614 28.5949C53.8134 28.65 53.3615 28.5299 53 28.2597C52.7056 27.9497 52.5342 27.5432 52.5176 27.1161C52.501 26.6889 52.6405 26.2704 52.9099 25.9385C53.1793 25.6067 53.5602 25.3842 53.9816 25.3126C54.4031 25.2411 54.8361 25.3253 55.2 25.5497C55.7 25.9397 56.41 25.2397 55.91 24.8397C55.6368 24.6033 55.3198 24.423 54.977 24.3092C54.6341 24.1953 54.2723 24.1501 53.912 24.1761C53.5517 24.2021 53.2 24.2988 52.8771 24.4607C52.5542 24.6226 52.2663 24.8465 52.03 25.1197C51.7936 25.3928 51.6133 25.7098 51.4995 26.0527C51.3856 26.3955 51.3404 26.7574 51.3664 27.1176C51.3924 27.4779 51.4891 27.8296 51.651 28.1525C51.8129 28.4754 52.0368 28.7633 52.31 28.9997C52.8595 29.4544 53.5647 29.6769 54.2758 29.62C54.9868 29.563 55.6476 29.2309 56.1176 28.6944C56.5877 28.1579 56.8301 27.4593 56.7932 26.7469C56.7562 26.0346 56.443 25.3647 55.92 24.8797C55.44 24.3997 54.74 25.1097 55.21 25.5497Z" fill="#FA4E0E"/>
<path d="M59.35 5.94027C59.1 10.5103 52.22 10.5503 52.22 5.94027C52.22 1.33027 59.1 1.37027 59.35 5.94027C59.35 6.58027 60.35 6.59027 60.35 5.94027C60.295 4.76651 59.7901 3.65903 58.94 2.84781C58.0899 2.03659 56.96 1.58398 55.785 1.58398C54.6099 1.58398 53.48 2.03659 52.63 2.84781C51.7799 3.65903 51.2749 4.76651 51.22 5.94027C51.2749 7.11402 51.7799 8.22151 52.63 9.03273C53.48 9.84394 54.6099 10.2965 55.785 10.2965C56.96 10.2965 58.0899 9.84394 58.94 9.03273C59.7901 8.22151 60.295 7.11402 60.35 5.94027C60.38 5.30027 59.38 5.30027 59.35 5.94027Z" fill="#FA4E0E"/>
</svg>
