<svg width="80" height="80" viewBox="0 0 80 80" fill="none" xmlns="http://www.w3.org/2000/svg">
<path d="M21.5358 74.9005L21.0358 74.0345L21.5358 74.9005ZM18.4592 72.5871L17.4668 72.4636L18.4592 72.5871ZM16.0237 59.6464L15.1516 60.1358L15.1577 60.1464L16.0237 59.6464ZM12.347 53.095L13.2191 52.6055L13.213 52.595L12.347 53.095ZM70.2033 46.8023L70.7033 47.6683L70.2033 46.8023ZM69.7853 43.0235L70.193 42.1104L70.193 42.1104L69.7853 43.0235ZM59.908 34.3097L59.0356 34.7986L59.042 34.8097L59.908 34.3097ZM56.4174 28.0807L57.2898 27.5918L57.2834 27.5807L56.4174 28.0807ZM21.493 18.6336L21.993 19.4997L21.493 18.6336ZM44.5648 74.5952L45.0648 75.4612L44.5648 74.5952ZM19.4515 72.7105C19.9239 68.9131 19.6215 63.8779 16.8897 59.1464L15.1577 60.1464C17.6102 64.3943 17.9029 68.9577 17.4668 72.4636L19.4515 72.7105ZM16.8958 59.157L13.219 52.6055L11.4749 53.5844L15.1517 60.1358L16.8958 59.157ZM70.193 42.1104C67.0148 40.6915 63.2505 38.099 60.7741 33.8097L59.042 34.8097C61.7855 39.5617 65.9319 42.3983 69.3777 43.9367L70.193 42.1104ZM60.7804 33.8209L57.2898 27.5918L55.545 28.5696L59.0357 34.7986L60.7804 33.8209ZM57.2834 27.5807C49.9283 14.8412 33.6821 10.4416 20.993 17.7676L21.993 19.4997C33.7178 12.7304 48.744 16.79 55.5514 28.5807L57.2834 27.5807ZM70.7033 47.6683C71.8346 47.0152 72.157 45.7634 72.0302 44.737C71.9037 43.7123 71.3032 42.6061 70.193 42.1104L69.3777 43.9367C69.6977 44.0795 69.9824 44.4724 70.0453 44.9821C70.1081 45.4904 69.9243 45.8087 69.7033 45.9363L70.7033 47.6683ZM13.213 52.595C6.5084 40.9823 10.4455 26.1666 21.993 19.4997L20.993 17.7676C8.48114 24.9914 4.22855 41.0335 11.4809 53.595L13.213 52.595ZM21.0358 74.0345C20.8147 74.1621 20.44 74.1617 20.0216 73.8387C19.6027 73.5153 19.4081 73.06 19.4515 72.7105L17.4668 72.4636C17.3146 73.6878 17.9737 74.7845 18.7996 75.422C19.6262 76.06 20.8877 76.4294 22.0358 75.7665L21.0358 74.0345ZM69.7033 45.9363L21.0358 74.0345L22.0358 75.7665L70.7033 47.6683L69.7033 45.9363ZM48.4661 59.3523C51.2666 64.2031 49.3795 70.6607 44.0648 73.7291L45.0648 75.4612C51.2291 71.9022 53.6108 64.2632 50.1981 58.3523L48.4661 59.3523ZM44.0648 73.7291C38.7501 76.7976 32.2141 75.2031 29.4135 70.3523L27.6815 71.3523C31.0941 77.2632 38.9005 79.0202 45.0648 75.4612L44.0648 73.7291ZM23.5552 8.20544C25.4882 11.5535 24.3411 15.8346 20.993 17.7676L21.993 19.4997C26.2977 17.0144 27.7725 11.5101 25.2873 7.20544L23.5552 8.20544ZM20.993 17.7676C17.645 19.7006 13.3639 18.5535 11.4309 15.2054L9.6988 16.2054C12.1841 20.5101 17.6884 21.9849 21.993 19.4997L20.993 17.7676ZM11.4309 15.2054C9.49786 11.8574 10.645 7.57626 13.993 5.64326L12.993 3.91121C8.6884 6.39649 7.21352 11.9008 9.6988 16.2054L11.4309 15.2054ZM13.993 5.64326C17.3411 3.71026 21.6222 4.85739 23.5552 8.20544L25.2873 7.20544C22.802 2.9008 17.2977 1.42593 12.993 3.91121L13.993 5.64326Z" fill="black"/>
</svg>
