<svg width="18" height="4" viewBox="0 0 18 4" fill="none" xmlns="http://www.w3.org/2000/svg">
<path d="M15.5752 3.79102C14.5634 3.79102 13.7704 2.99805 13.7704 2C13.7704 0.988281 14.5634 0.208984 15.5752 0.208984C16.5733 0.208984 17.3663 0.988281 17.3663 2C17.3663 2.99805 16.5733 3.79102 15.5752 3.79102Z" fill="black"/>
<path d="M9.00897 3.79102C7.99718 3.79102 7.20416 2.99805 7.20416 2C7.20416 0.988281 7.99718 0.208984 9.00897 0.208984C10.0071 0.208984 10.8001 0.988281 10.8001 2C10.8001 2.99805 10.0071 3.79102 9.00897 3.79102Z" fill="black"/>
<path d="M2.43848 3.79102C1.42669 3.79102 0.633667 2.99805 0.633667 2C0.633667 0.988281 1.42669 0.208984 2.43848 0.208984C3.43659 0.208984 4.22961 0.988281 4.22961 2C4.22961 2.99805 3.43659 3.79102 2.43848 3.79102Z" fill="black"/>
</svg>
