<svg width="16" height="16" viewBox="0 0 16 16" fill="none" xmlns="http://www.w3.org/2000/svg">
<g clip-path="url(#clip0_36702_8412)">
<path d="M7.3335 2.66602H2.66683C2.31321 2.66602 1.97407 2.80649 1.72402 3.05654C1.47397 3.30659 1.3335 3.64573 1.3335 3.99935V13.3327C1.3335 13.6863 1.47397 14.0254 1.72402 14.2755C1.97407 14.5255 2.31321 14.666 2.66683 14.666H12.0002C12.3538 14.666 12.6929 14.5255 12.943 14.2755C13.193 14.0254 13.3335 13.6863 13.3335 13.3327V8.66602" stroke="#4185EC" stroke-width="1.33333" stroke-linecap="round" stroke-linejoin="round"/>
<path d="M12.3335 1.66617C12.5987 1.40095 12.9584 1.25195 13.3335 1.25195C13.7086 1.25195 14.0683 1.40095 14.3335 1.66617C14.5987 1.93138 14.7477 2.29109 14.7477 2.66617C14.7477 3.04124 14.5987 3.40095 14.3335 3.66617L8.00016 9.9995L5.3335 10.6662L6.00016 7.9995L12.3335 1.66617Z" stroke="#4185EC" stroke-width="1.33333" stroke-linecap="round" stroke-linejoin="round"/>
</g>
<defs>
<clipPath id="clip0_36702_8412">
<rect width="16" height="16" fill="white"/>
</clipPath>
</defs>
</svg>
