<svg width="20" height="20" viewBox="0 0 20 20" fill="none" xmlns="http://www.w3.org/2000/svg">
<path d="M17.8129 13.6717C17.7416 13.7124 17.6628 13.7386 17.5813 13.7489C17.4998 13.7591 17.417 13.7532 17.3378 13.7314C17.2585 13.7097 17.1844 13.6725 17.1195 13.622C17.0547 13.5715 17.0004 13.5088 16.9598 13.4373L15.4754 10.8436C14.6125 11.4271 13.6605 11.8666 12.6567 12.1451L13.1153 14.8967C13.1288 14.9777 13.1263 15.0606 13.1077 15.1406C13.0892 15.2206 13.0551 15.2962 13.0074 15.363C12.9596 15.4298 12.8992 15.4866 12.8295 15.53C12.7598 15.5735 12.6822 15.6028 12.6012 15.6162C12.5679 15.6217 12.5342 15.6245 12.5004 15.6248C12.3526 15.6246 12.2096 15.572 12.0969 15.4763C11.9842 15.3806 11.909 15.248 11.8848 15.1022L11.434 12.4006C10.4834 12.5329 9.51904 12.5329 8.56842 12.4006L8.11764 15.1022C8.09338 15.2483 8.01801 15.381 7.90498 15.4768C7.79194 15.5725 7.64857 15.625 7.50045 15.6248C7.4659 15.6247 7.43142 15.6218 7.39732 15.6162C7.31631 15.6028 7.23874 15.5735 7.16905 15.53C7.09936 15.4866 7.03891 15.4298 6.99117 15.363C6.94343 15.2962 6.90933 15.2206 6.89081 15.1406C6.8723 15.0606 6.86973 14.9777 6.88326 14.8967L7.3442 12.1451C6.34078 11.8657 5.38936 11.4254 4.52701 10.8412L3.04732 13.4373C3.00629 13.5088 2.95156 13.5715 2.88628 13.6219C2.82101 13.6723 2.74645 13.7093 2.66686 13.7308C2.58728 13.7524 2.50423 13.758 2.42246 13.7475C2.34069 13.7369 2.2618 13.7104 2.19029 13.6693C2.11878 13.6283 2.05606 13.5736 2.0057 13.5083C1.95534 13.443 1.91833 13.3685 1.89678 13.2889C1.87523 13.2093 1.86957 13.1263 1.88012 13.0445C1.89067 12.9627 1.91722 12.8838 1.95826 12.8123L3.52076 10.0779C2.97193 9.60378 2.46726 9.0808 2.01295 8.51544C1.95629 8.45218 1.91312 8.37803 1.88607 8.29754C1.85902 8.21704 1.84866 8.13187 1.85562 8.04723C1.86258 7.9626 1.88671 7.88027 1.92655 7.80527C1.96639 7.73027 2.02109 7.66418 2.08732 7.61102C2.15355 7.55787 2.22992 7.51877 2.31176 7.49611C2.3936 7.47345 2.4792 7.46771 2.56334 7.47924C2.64748 7.49076 2.72838 7.51932 2.80112 7.56315C2.87385 7.60698 2.93689 7.66518 2.98639 7.73419C4.28326 9.33887 6.55201 11.2498 10.0004 11.2498C13.4489 11.2498 15.7176 9.33653 17.0145 7.73419C17.0634 7.66377 17.1263 7.60417 17.1993 7.5591C17.2722 7.51403 17.3537 7.48446 17.4386 7.47222C17.5234 7.45998 17.6099 7.46534 17.6926 7.48795C17.7753 7.51057 17.8525 7.54997 17.9194 7.6037C17.9862 7.65742 18.0412 7.72432 18.0811 7.80024C18.121 7.87616 18.1448 7.95947 18.1511 8.04499C18.1574 8.13051 18.146 8.21641 18.1177 8.29734C18.0893 8.37828 18.0446 8.45251 17.9864 8.51544C17.5321 9.0808 17.0274 9.60378 16.4786 10.0779L18.0411 12.8123C18.083 12.8836 18.1104 12.9625 18.1216 13.0444C18.1329 13.1264 18.1277 13.2097 18.1065 13.2896C18.0853 13.3696 18.0484 13.4445 17.998 13.5101C17.9476 13.5757 17.8847 13.6306 17.8129 13.6717Z" fill="white"/>
</svg>
