<svg width="26" height="26" viewBox="0 0 26 26" fill="none" xmlns="http://www.w3.org/2000/svg">
<rect width="26" height="26" rx="13" fill="#EBEBEB" fill-opacity="0.952941"/>
<g opacity="0.8">
<path d="M19.25 15.9373C19.1929 15.9699 19.1299 15.9909 19.0647 15.9991C18.9994 16.0073 18.9332 16.0026 18.8698 15.9851C18.8064 15.9677 18.7471 15.938 18.6952 15.8976C18.6433 15.8572 18.5999 15.807 18.5675 15.7498L17.38 13.6748C16.6896 14.1416 15.928 14.4933 15.125 14.7161L15.4918 16.9173C15.5027 16.9822 15.5006 17.0485 15.4858 17.1125C15.471 17.1765 15.4437 17.2369 15.4055 17.2904C15.3673 17.3438 15.319 17.3893 15.2632 17.424C15.2075 17.4588 15.1454 17.4822 15.0806 17.493C15.0539 17.4973 15.027 17.4996 15 17.4998C14.8817 17.4997 14.7673 17.4576 14.6771 17.381C14.5869 17.3045 14.5268 17.1984 14.5075 17.0817L14.1468 14.9205C13.3863 15.0263 12.6148 15.0263 11.8543 14.9205L11.4937 17.0817C11.4743 17.1986 11.414 17.3048 11.3236 17.3814C11.2332 17.458 11.1185 17.5 11 17.4998C10.9723 17.4997 10.9447 17.4974 10.9175 17.493C10.8527 17.4822 10.7906 17.4588 10.7348 17.424C10.6791 17.3893 10.6307 17.3438 10.5925 17.2904C10.5544 17.2369 10.5271 17.1765 10.5123 17.1125C10.4974 17.0485 10.4954 16.9822 10.5062 16.9173L10.875 14.7161C10.0722 14.4926 9.31109 14.1403 8.62122 13.673L7.43747 15.7498C7.40464 15.8071 7.36086 15.8572 7.30864 15.8975C7.25641 15.9378 7.19677 15.9674 7.1331 15.9847C7.06943 16.0019 7.003 16.0064 6.93758 15.998C6.87216 15.9895 6.80905 15.9683 6.75184 15.9355C6.69464 15.9026 6.64446 15.8589 6.60417 15.8066C6.56388 15.7544 6.53427 15.6948 6.51703 15.6311C6.4998 15.5674 6.49527 15.501 6.50371 15.4356C6.51215 15.3702 6.53339 15.3071 6.56622 15.2498L7.81622 13.0623C7.37716 12.683 6.97342 12.2646 6.60997 11.8123C6.56464 11.7617 6.53011 11.7024 6.50847 11.638C6.48683 11.5736 6.47854 11.5055 6.4841 11.4378C6.48967 11.3701 6.50898 11.3042 6.54085 11.2442C6.57272 11.1842 6.61648 11.1313 6.66946 11.0888C6.72245 11.0463 6.78354 11.015 6.84902 10.9969C6.91449 10.9788 6.98297 10.9742 7.05028 10.9834C7.11759 10.9926 7.18232 11.0155 7.2405 11.0505C7.29869 11.0856 7.34912 11.1321 7.38872 11.1873C8.42622 12.4711 10.2412 13.9998 13 13.9998C15.7587 13.9998 17.5737 12.4692 18.6112 11.1873C18.6504 11.131 18.7007 11.0833 18.759 11.0473C18.8174 11.0112 18.8826 10.9876 18.9505 10.9778C19.0184 10.968 19.0875 10.9723 19.1537 10.9904C19.2199 11.0085 19.2816 11.04 19.3351 11.083C19.3886 11.1259 19.4326 11.1795 19.4645 11.2402C19.4964 11.3009 19.5155 11.3676 19.5205 11.436C19.5255 11.5044 19.5164 11.5731 19.4937 11.6379C19.4711 11.7026 19.4353 11.762 19.3887 11.8123C19.0253 12.2646 18.6215 12.683 18.1825 13.0623L19.4325 15.2498C19.466 15.3069 19.4879 15.37 19.4969 15.4355C19.5059 15.5011 19.5018 15.5678 19.4848 15.6317C19.4678 15.6957 19.4383 15.7556 19.398 15.8081C19.3577 15.8605 19.3074 15.9045 19.25 15.9373Z" fill="black"/>
</g>
</svg>
