<svg width="20" height="20" viewBox="0 0 20 20" fill="none" xmlns="http://www.w3.org/2000/svg">
<path d="M15 17.2923H5C2.985 17.2923 1.875 16.1823 1.875 14.1673V5.83398C1.875 3.81898 2.985 2.70898 5 2.70898H15C17.015 2.70898 18.125 3.81898 18.125 5.83398V14.1673C18.125 16.1823 17.015 17.2923 15 17.2923Z" fill="#FA4E0E" fill-opacity="0.3"/>
<path d="M16.8017 11.8022L13.0916 8.09203C12.7666 7.7662 12.2342 7.7662 11.9084 8.09203L7.79165 12.2086C7.63081 12.3686 7.36835 12.3686 7.20835 12.2086L6.42497 11.4254C6.09997 11.0995 5.56753 11.0995 5.2417 11.4254L3.19834 13.4688C3.15168 13.5155 3.125 13.5796 3.125 13.6454V14.1671C3.125 15.4837 3.68333 16.0421 5 16.0421H15C16.3167 16.0421 16.875 15.4837 16.875 14.1671V11.9788C16.875 11.9129 16.8483 11.8488 16.8017 11.8022Z" fill="#FA4E0E"/>
<path d="M6.66829 8.54232C6.09496 8.54232 5.625 8.07565 5.625 7.50065C5.625 6.92565 6.0867 6.45898 6.66087 6.45898H6.66921C7.24338 6.45898 7.70915 6.92565 7.70915 7.50065C7.70915 8.07565 7.24329 8.54232 6.66829 8.54232Z" fill="#FA4E0E"/>
</svg>
