<svg width="20" height="20" viewBox="0 0 20 20" fill="none" xmlns="http://www.w3.org/2000/svg">
<path d="M1.66992 7.5H17.5033C17.7243 7.5 17.9362 7.5878 18.0925 7.74408C18.2488 7.90036 18.3366 8.11232 18.3366 8.33333V16.6667C18.3366 16.8877 18.2488 17.0996 18.0925 17.2559C17.9362 17.4122 17.7243 17.5 17.5033 17.5H2.50326C2.28224 17.5 2.07028 17.4122 1.914 17.2559C1.75772 17.0996 1.66992 16.8877 1.66992 16.6667V7.5ZM2.50326 2.5H15.0033V5.83333H1.66992V3.33333C1.66992 3.11232 1.75772 2.90036 1.914 2.74408C2.07028 2.5878 2.28224 2.5 2.50326 2.5ZM12.5033 11.6667V13.3333H15.0033V11.6667H12.5033Z" fill="white"/>
</svg>
