<svg width="32" height="32" viewBox="0 0 32 32" fill="none" xmlns="http://www.w3.org/2000/svg">
<rect width="32" height="32" rx="16" fill="white"/>
<g clip-path="url(#clip0_36644_273)">
<path d="M16 11C16.1326 11 16.2598 11.0527 16.3536 11.1464C16.4473 11.2402 16.5 11.3674 16.5 11.5V13.5C16.5 13.6326 16.4473 13.7598 16.3536 13.8536C16.2598 13.9473 16.1326 14 16 14C15.8674 14 15.7402 13.9473 15.6464 13.8536C15.5527 13.7598 15.5 13.6326 15.5 13.5V11.5C15.5 11.3674 15.5527 11.2402 15.6464 11.1464C15.7402 11.0527 15.8674 11 16 11ZM20 19C20 20.0609 19.5786 21.0783 18.8284 21.8284C18.0783 22.5786 17.0609 23 16 23C14.9391 23 13.9217 22.5786 13.1716 21.8284C12.4214 21.0783 12 20.0609 12 19V13C12 11.9391 12.4214 10.9217 13.1716 10.1716C13.9217 9.42143 14.9391 9 16 9C17.0609 9 18.0783 9.42143 18.8284 10.1716C19.5786 10.9217 20 11.9391 20 13V19ZM16 8C14.6739 8 13.4021 8.52678 12.4645 9.46447C11.5268 10.4021 11 11.6739 11 13V19C11 20.3261 11.5268 21.5979 12.4645 22.5355C13.4021 23.4732 14.6739 24 16 24C17.3261 24 18.5979 23.4732 19.5355 22.5355C20.4732 21.5979 21 20.3261 21 19V13C21 11.6739 20.4732 10.4021 19.5355 9.46447C18.5979 8.52678 17.3261 8 16 8Z" fill="black"/>
</g>
<defs>
<clipPath id="clip0_36644_273">
<rect width="16" height="16" fill="white" transform="translate(8 8)"/>
</clipPath>
</defs>
</svg>
