<svg xmlns="http://www.w3.org/2000/svg" width="119" height="123" viewBox="0 0 119 123" fill="none">
  <g opacity="0.6">
    <path
      d="M104.36 45.3346C106.472 45.3346 108.184 43.6207 108.184 41.5066C108.184 39.3924 106.472 37.6786 104.36 37.6786C102.247 37.6786 100.535 39.3924 100.535 41.5066C100.535 43.6207 102.247 45.3346 104.36 45.3346Z"
      fill="#EAEEF9" />
    <path
      d="M2.76618 66.0357C4.15582 66.0357 5.28235 64.9082 5.28235 63.5173C5.28235 62.1264 4.15582 60.9989 2.76618 60.9989C1.37653 60.9989 0.25 62.1264 0.25 63.5173C0.25 64.9082 1.37653 66.0357 2.76618 66.0357Z"
      fill="#EAEEF9" />
    <path
      d="M14.3326 111.312C15.7222 111.312 16.8488 110.185 16.8488 108.794C16.8488 107.403 15.7222 106.275 14.3326 106.275C12.9429 106.275 11.8164 107.403 11.8164 108.794C11.8164 110.185 12.9429 111.312 14.3326 111.312Z"
      fill="#EAEEF9" />
    <path d="M27.7825 111.312L63.0915 100.249V54.8868L27.7825 65.8655V111.312Z" fill="#B7BFCD" />
    <path opacity="0.4" d="M98.4004 111.312L63.0914 100.249V54.8868L98.4004 65.8655V111.312Z"
      fill="#6D7C9A" />
    <g opacity="0.13">
      <path d="M27.7825 111.312L63.0915 100.249V54.8868L27.7825 65.8655V111.312Z"
        fill="url(#paint0_linear_25426_10260)" />
      <path d="M98.4004 111.312L63.0915 100.249V54.8868L98.4004 65.8655V111.312Z"
        fill="url(#paint1_linear_25426_10260)" />
    </g>
    <path d="M63.0915 122.461L27.7825 111.397V66.0357L63.0915 77.0996V122.461Z" fill="#EDF1F9" />
    <path d="M63.0914 122.461L98.4004 111.397V66.0357L63.0914 77.0996V122.461Z" fill="#DAE1ED" />
    <path opacity="0.09"
      d="M55.0915 114.461L27.7825 111.397V66.0357L63.0915 77.0996L55.0915 114.461Z"
      fill="url(#paint2_linear_25426_10260)" />
    <path opacity="0.2"
      d="M71.0914 106.461L98.4004 111.397V66.0357L63.0914 77.0996L71.0914 106.461Z"
      fill="url(#paint3_linear_25426_10260)" />
    <path d="M63.0914 54.8868L46.4903 42.4613L10.5914 54.5464L27.7824 65.8655L63.0914 54.8868Z"
      fill="#DAE1ED" />
    <path d="M63.0914 54.8868L79.6926 42.4613L115.591 54.5464L98.4004 65.8655L63.0914 54.8868Z"
      fill="#DAE1ED" />
    <path d="M27.7824 66.0357L63.0914 77.0996L45.4791 88.3336L10.5914 76.7591L27.7824 66.0357Z"
      fill="#EFF4FD" />
    <path d="M98.4004 66.0357L63.0914 77.0996L80.7038 88.3336L115.591 76.7591L98.4004 66.0357Z"
      fill="#EDF1F9" />
    <path
      d="M72.9429 11.338C77.8895 24.7625 79.3639 27.7453 79.8478 40.9732C79.6617 43.9927 79.5463 47.2761 78.1228 49.92C76.2217 53.9644 71.5716 56.7654 67.1783 56.8108C62.6524 56.8916 58.2153 54.1205 56.2181 49.8474C54.813 47.2541 54.8577 43.7068 56.7851 41.3523C58.8804 39.0941 62.5666 38.5311 65.2183 39.942C68.1352 41.282 69.8762 44.0682 70.5211 47.0065C71.166 49.9448 70.8826 53.1318 70.0955 56.0294C68.4492 63.0769 67.0857 63.4178 63.0484 75.3496"
      stroke="#ABB5CC" stroke-width="2" stroke-miterlimit="10" stroke-dasharray="4 4" />
    <path
      d="M78.9632 4.23248C78.9517 6.20646 77.1148 7.41515 74.7852 6.78486C72.3325 6.36675 70.5965 5.93583 70.4848 4.17403C70.541 2.36723 72.5123 1.66008 74.8197 0.862937C77.5863 -0.236384 78.8067 2.30351 78.9632 4.23248Z"
      fill="#DAE2EB" />
    <path
      d="M63.1142 10.2689C64.3572 11.5485 66.978 11.9216 68.2551 9.96701C69.6554 7.80023 70.854 6.22499 69.5662 4.77817C68.3232 3.49854 67.1135 4.36006 64.3469 5.45938C62.1291 6.59089 61.6584 8.86703 63.1142 10.2689Z"
      fill="#DAE2EB" />
    <path
      d="M68.8498 2.10352C69.9811 1.62136 71.3363 1.97509 71.941 2.88818C72.1985 3.17754 72.5008 3.63409 72.5904 3.96845C73.5533 6.21898 73.2506 8.45013 71.9513 8.97729C70.5288 9.71663 68.5689 8.4498 67.8188 6.32146C67.6397 5.65274 67.5502 5.31838 67.4158 4.81684C67.2704 3.60158 67.7186 2.58569 68.8498 2.10352C69.0179 2.05853 68.8498 2.10352 68.8498 2.10352Z"
      fill="#989FB0" />
    <path
      d="M16.8487 38.3315H14.6587V36.1414H12.7815V38.3315H10.5914V40.2712H12.7815V42.4613H14.6587V40.2712H16.8487V38.3315Z"
      fill="url(#paint4_linear_25426_10260)" />
    <path
      d="M21.6594 93.2786H19.4693V91.0886H17.5921V93.2786H15.4021V95.2184H17.5921V97.4084H19.4693V95.2184H21.6594V93.2786Z"
      fill="url(#paint5_linear_25426_10260)" />
    <path
      d="M117.397 93.4026L114.718 92.0498L116.07 89.3702L113.774 88.2106L112.421 90.8902L109.741 89.5373L108.543 91.9106L111.223 93.2635L109.87 95.943L112.166 97.1026L113.519 94.4231L116.199 95.776L117.397 93.4026Z"
      fill="url(#paint6_linear_25426_10260)" />
  </g>
  <defs>
    <linearGradient id="paint0_linear_25426_10260" x1="51.9452" y1="58.1721" x2="47.1292"
      y2="78.2219" gradientUnits="userSpaceOnUse">
      <stop offset="0.00289017" stop-color="#606673" stop-opacity="0" />
      <stop offset="1" stop-color="#373C47" />
    </linearGradient>
    <linearGradient id="paint1_linear_25426_10260" x1="51.9452" y1="58.1721" x2="47.1292"
      y2="78.2219" gradientUnits="userSpaceOnUse">
      <stop offset="0.00289017" stop-color="#606673" stop-opacity="0" />
      <stop offset="1" stop-color="#373C47" />
    </linearGradient>
    <linearGradient id="paint2_linear_25426_10260" x1="35.6985" y1="97.081" x2="44.1811"
      y2="73.1229" gradientUnits="userSpaceOnUse">
      <stop offset="0.00289017" stop-color="#6C80AA" stop-opacity="0" />
      <stop offset="1" stop-color="#5D6A86" />
    </linearGradient>
    <linearGradient id="paint3_linear_25426_10260" x1="82.1472" y1="103.625" x2="82.8143"
      y2="73.2229" gradientUnits="userSpaceOnUse">
      <stop offset="0.00289017" stop-color="#314F91" stop-opacity="0" />
      <stop offset="1" stop-color="#324264" />
    </linearGradient>
    <linearGradient id="paint4_linear_25426_10260" x1="13.7206" y1="36.361" x2="13.7206"
      y2="39.9083" gradientUnits="userSpaceOnUse">
      <stop stop-color="#B0BACC" />
      <stop offset="1" stop-color="#969EAE" />
    </linearGradient>
    <linearGradient id="paint5_linear_25426_10260" x1="18.5312" y1="91.3081" x2="18.5312"
      y2="94.8554" gradientUnits="userSpaceOnUse">
      <stop stop-color="#B0BACC" />
      <stop offset="1" stop-color="#969EAE" />
    </linearGradient>
    <linearGradient id="paint6_linear_25426_10260" x1="114.787" y1="89.0593" x2="112.596"
      y2="93.3995" gradientUnits="userSpaceOnUse">
      <stop stop-color="#B0BACC" />
      <stop offset="1" stop-color="#969EAE" />
    </linearGradient>
  </defs>
</svg>
