<svg width="20" height="20" viewBox="0 0 20 20" fill="none" xmlns="http://www.w3.org/2000/svg">
<path d="M5 17.7913H15C16.0969 17.7913 17.0218 17.4879 17.6717 16.838C18.3215 16.1882 18.625 15.2632 18.625 14.1663V5.83301C18.625 4.73613 18.3215 3.81116 17.6717 3.16133C17.0218 2.5115 16.0969 2.20801 15 2.20801H5C3.90313 2.20801 2.97815 2.5115 2.32832 3.16133C1.67849 3.81116 1.375 4.73613 1.375 5.83301V14.1663C1.375 15.2632 1.67849 16.1882 2.32832 16.838C2.97815 17.4879 3.90313 17.7913 5 17.7913Z" stroke="#555555"/>
<path d="M16.8017 11.8022L13.0916 8.09203C12.7666 7.7662 12.2342 7.7662 11.9084 8.09203L7.79165 12.2086C7.63081 12.3686 7.36835 12.3686 7.20835 12.2086L6.42497 11.4254C6.09997 11.0995 5.56753 11.0995 5.2417 11.4254L3.19834 13.4688C3.15168 13.5155 3.125 13.5796 3.125 13.6454V14.1671C3.125 15.4837 3.68333 16.0421 5 16.0421H15C16.3167 16.0421 16.875 15.4837 16.875 14.1671V11.9788C16.875 11.9129 16.8483 11.8488 16.8017 11.8022Z" fill="#555555"/>
<path d="M6.66829 8.54134C6.09496 8.54134 5.625 8.07467 5.625 7.49967C5.625 6.92467 6.0867 6.45801 6.66087 6.45801H6.66921C7.24338 6.45801 7.70915 6.92467 7.70915 7.49967C7.70915 8.07467 7.24329 8.54134 6.66829 8.54134Z" fill="#555555"/>
</svg>
