<svg width="24" height="24" viewBox="0 0 24 24" fill="none" xmlns="http://www.w3.org/2000/svg">
<path d="M12 22.75C6.072 22.75 1.25 17.928 1.25 12C1.25 6.072 6.072 1.25 12 1.25C17.928 1.25 22.75 6.072 22.75 12C22.75 17.928 17.928 22.75 12 22.75ZM12 2.75C6.899 2.75 2.75 6.899 2.75 12C2.75 17.101 6.899 21.25 12 21.25C17.101 21.25 21.25 17.101 21.25 12C21.25 6.899 17.101 2.75 12 2.75ZM12.75 16.5V11.929C12.75 11.515 12.414 11.179 12 11.179C11.586 11.179 11.25 11.515 11.25 11.929V16.5C11.25 16.914 11.586 17.25 12 17.25C12.414 17.25 12.75 16.914 12.75 16.5ZM13.02 8.5C13.02 7.948 12.573 7.5 12.02 7.5H12.01C11.458 7.5 11.0149 7.948 11.0149 8.5C11.0149 9.052 11.468 9.5 12.02 9.5C12.572 9.5 13.02 9.052 13.02 8.5Z" fill="white"/>
</svg>
