<svg width="16" height="16" viewBox="0 0 16 16" fill="none" xmlns="http://www.w3.org/2000/svg">
<path d="M9.94063 11.792H6.05903C5.76623 11.792 5.52783 12.0304 5.52783 12.3232C5.52783 12.616 5.76623 12.8544 6.05903 12.8544H9.93903C10.2318 12.8544 10.4702 12.616 10.4702 12.3232C10.4702 12.0304 10.2334 11.792 9.94063 11.792Z" fill="#A59D93"/>
<path d="M12.5934 5.23325C12.5934 2.69725 10.5374 0.639648 7.99985 0.639648C5.46225 0.639648 3.40625 2.69725 3.40625 5.23325C3.40625 6.46365 4.00625 7.48445 4.67825 8.40605C5.40465 9.40285 5.32305 10.2316 5.32305 10.2316C5.32305 10.67 5.67825 11.0252 6.11665 11.0252H9.88465C10.323 11.0252 10.6782 10.67 10.6782 10.2316C10.6782 10.2316 10.5982 9.40285 11.323 8.40605C11.9934 7.48445 12.5934 6.46365 12.5934 5.23325Z" fill="#FFCB7E"/>
<path d="M9.91202 13.6191H6.08802C5.85122 13.6191 5.67682 13.8479 5.74562 14.0751C5.99522 14.9055 6.91042 15.5199 8.00002 15.5199C9.08962 15.5199 10.0048 14.9055 10.2544 14.0751C10.3232 13.8495 10.1488 13.6191 9.91202 13.6191Z" fill="#A59D93"/>
</svg>
