<svg width="29" height="40" viewBox="0 0 29 40" fill="none" xmlns="http://www.w3.org/2000/svg">
<path fill-rule="evenodd" clip-rule="evenodd" d="M20.3118 7.05905C19.9328 7.05905 19.6255 7.36632 19.6255 7.74536V9.11799H15.6792C15.3002 9.11799 14.9929 9.42526 14.9929 9.8043V24.56C14.9929 24.939 15.3002 25.2463 15.6792 25.2463H18.5961V24.56C18.5961 23.8019 19.2106 23.1874 19.9687 23.1874H22.7139C23.472 23.1874 24.0865 23.8019 24.0865 24.56V25.2463H27.6897C28.0687 25.2463 28.376 24.939 28.376 24.56V9.8043C28.376 9.42526 28.0687 9.11799 27.6897 9.11799H23.7434V7.74536C23.7434 7.36632 23.4361 7.05905 23.0571 7.05905H20.3118ZM19.9783 21.4717L17.2907 10.9025H19.3441L21.5788 20.1883H21.7902L24.0248 10.9025H26.0782L23.3906 21.4717H19.9783Z" fill="white"/>
<path fill-rule="evenodd" clip-rule="evenodd" d="M6.58503 23.8717C6.20599 23.8717 5.89871 24.179 5.89871 24.558V25.9306H1.47684C1.0978 25.9306 0.790527 26.2379 0.790527 26.617V39.3137C0.790527 39.6928 1.0978 40 1.47684 40H27.6891C28.0682 40 28.3754 39.6928 28.3754 39.3137V26.617C28.3754 26.2379 28.0682 25.9306 27.6891 25.9306H23.3997V24.558C23.3997 24.179 23.0924 23.8717 22.7133 23.8717H19.9681C19.5891 23.8717 19.2818 24.179 19.2818 24.558V25.9306H10.0166V24.558C10.0166 24.179 9.70931 23.8717 9.33027 23.8717H6.58503ZM8.98712 27.6806V38.2498H10.9198V29.1452H11.1915L13.0034 38.2498H16.295L18.1068 29.1452H18.3786V38.2498H20.3113V27.6806H16.612L14.7851 36.8909H14.5133L12.6863 27.6806H8.98712Z" fill="white"/>
<path d="M6.53047 15.8038H8.40273C8.83556 15.8038 9.18284 15.6982 9.44455 15.4868C9.71633 15.2754 9.85222 14.9734 9.85222 14.5808V14.4298C9.85222 14.0373 9.72136 13.7353 9.45965 13.5239C9.19793 13.3125 8.84563 13.2068 8.40273 13.2068H6.53047V15.8038Z" fill="white"/>
<path d="M6.53047 11.395H8.37253C8.78523 11.395 9.12244 11.2893 9.38415 11.0779C9.65593 10.8665 9.79182 10.5746 9.79182 10.2022V10.0512C9.79182 9.66867 9.66097 9.37676 9.39925 9.17545C9.13754 8.96406 8.7953 8.85837 8.37253 8.85837H6.53047V11.395Z" fill="white"/>
<path fill-rule="evenodd" clip-rule="evenodd" d="M6.12421 3.20309C5.74517 3.20309 5.4379 3.51037 5.4379 3.88941V5.26203H1.49161C1.11257 5.26203 0.805298 5.5693 0.805298 5.94834V20.704C0.805298 21.0831 1.11257 21.3904 1.49161 21.3904H4.9767V20.126C4.9767 19.7469 5.28397 19.4397 5.66301 19.4397H9.33066C9.7097 19.4397 10.017 19.7469 10.017 20.126V21.3904H13.5021C13.8811 21.3904 14.1884 21.0831 14.1884 20.704V5.94834C14.1884 5.5693 13.8811 5.26203 13.5021 5.26203H9.55577V3.88941C9.55577 3.51037 9.2485 3.20309 8.86946 3.20309H6.12421ZM4.97394 6.01704H6.00341V7.04651H7.85239V6.01704H8.88186V7.05474C9.40194 7.08412 9.86128 7.1921 10.2599 7.37868C10.7431 7.59007 11.1155 7.89708 11.3772 8.29971C11.649 8.69228 11.7849 9.16538 11.7849 9.719V9.86999C11.7849 10.3532 11.6943 10.7508 11.5131 11.0628C11.3319 11.3648 11.1155 11.6013 10.8638 11.7724C10.6223 11.9335 10.3907 12.0493 10.1693 12.1197V12.3915C10.3907 12.4519 10.6323 12.5677 10.894 12.7388C11.1558 12.8998 11.3772 13.1364 11.5584 13.4484C11.7496 13.7605 11.8453 14.1681 11.8453 14.6714V14.8224C11.8453 15.4062 11.7094 15.9095 11.4376 16.3323C11.1658 16.745 10.7883 17.0621 10.3052 17.2835C9.89213 17.4769 9.41769 17.5858 8.88186 17.6104V18.6451H7.85239V17.6157H6.00341V18.6451H4.97394V17.6157H3.14833V15.8642H4.53742V8.79797H3.14833V7.04651H4.97394V6.01704Z" fill="white"/>
</svg>
