<svg width="29" height="40" viewBox="0 0 29 40" fill="none" xmlns="http://www.w3.org/2000/svg">
<path fill-rule="evenodd" clip-rule="evenodd" d="M20.3118 7.05905C19.9328 7.05905 19.6255 7.36632 19.6255 7.74536V9.11799H15.6792C15.3002 9.11799 14.9929 9.42526 14.9929 9.8043V24.56C14.9929 24.939 15.3002 25.2463 15.6792 25.2463H18.5961V24.56C18.5961 23.8019 19.2106 23.1874 19.9687 23.1874H22.7139C23.472 23.1874 24.0865 23.8019 24.0865 24.56V25.2463H27.6897C28.0687 25.2463 28.376 24.939 28.376 24.56V9.8043C28.376 9.42526 28.0687 9.11799 27.6897 9.11799H23.7434V7.74536C23.7434 7.36632 23.4361 7.05905 23.0571 7.05905H20.3118ZM19.9783 21.4717L17.2907 10.9025H19.3441L21.5788 20.1883H21.7902L24.0248 10.9025H26.0782L23.3906 21.4717H19.9783Z" fill="black"/>
<path fill-rule="evenodd" clip-rule="evenodd" d="M6.58503 23.8717C6.20599 23.8717 5.89871 24.179 5.89871 24.558V25.9306H1.47684C1.0978 25.9306 0.790527 26.2379 0.790527 26.617V39.3137C0.790527 39.6928 1.0978 40 1.47684 40H27.6891C28.0681 40 28.3754 39.6928 28.3754 39.3137V26.617C28.3754 26.2379 28.0681 25.9306 27.6891 25.9306H23.3997V24.558C23.3997 24.179 23.0924 23.8717 22.7133 23.8717H19.9681C19.5891 23.8717 19.2818 24.179 19.2818 24.558V25.9306H10.0166V24.558C10.0166 24.179 9.70931 23.8717 9.33027 23.8717H6.58503ZM8.98712 27.6806V38.2498H10.9198V29.1452H11.1915L13.0034 38.2498H16.295L18.1068 29.1452H18.3786V38.2498H20.3113V27.6806H16.612L14.7851 36.8909H14.5133L12.6863 27.6806H8.98712Z" fill="black"/>
<path d="M6.53059 15.8038H8.40285C8.83568 15.8038 9.18296 15.6982 9.44467 15.4868C9.71645 15.2754 9.85234 14.9734 9.85234 14.5808V14.4298C9.85234 14.0373 9.72148 13.7353 9.45977 13.5239C9.19806 13.3125 8.84575 13.2068 8.40285 13.2068H6.53059V15.8038Z" fill="black"/>
<path d="M6.53059 11.395H8.37265C8.78535 11.395 9.12256 11.2893 9.38428 11.0779C9.65606 10.8665 9.79195 10.5746 9.79195 10.2022V10.0512C9.79195 9.66867 9.66109 9.37676 9.39937 9.17545C9.13766 8.96406 8.79542 8.85837 8.37265 8.85837H6.53059V11.395Z" fill="black"/>
<path fill-rule="evenodd" clip-rule="evenodd" d="M6.12434 3.20309C5.7453 3.20309 5.43802 3.51037 5.43802 3.88941V5.26203H1.49173C1.11269 5.26203 0.80542 5.5693 0.80542 5.94834V20.704C0.80542 21.0831 1.11269 21.3904 1.49173 21.3904H4.97682V20.126C4.97682 19.7469 5.2841 19.4397 5.66314 19.4397H9.33078C9.70982 19.4397 10.0171 19.7469 10.0171 20.126V21.3904H13.5022C13.8812 21.3904 14.1885 21.0831 14.1885 20.704V5.94834C14.1885 5.5693 13.8812 5.26203 13.5022 5.26203H9.55589V3.88941C9.55589 3.51037 9.24862 3.20309 8.86958 3.20309H6.12434ZM4.97406 6.01704H6.00353V7.04651H7.85251V6.01704H8.88198V7.05474C9.40206 7.08412 9.86141 7.1921 10.26 7.37868C10.7432 7.59007 11.1156 7.89708 11.3773 8.29971C11.6491 8.69228 11.785 9.16538 11.785 9.719V9.86999C11.785 10.3532 11.6944 10.7508 11.5132 11.0628C11.332 11.3648 11.1156 11.6013 10.864 11.7724C10.6224 11.9335 10.3909 12.0493 10.1694 12.1197V12.3915C10.3909 12.4519 10.6324 12.5677 10.8942 12.7388C11.1559 12.8998 11.3773 13.1364 11.5585 13.4484C11.7498 13.7605 11.8454 14.1681 11.8454 14.6714V14.8224C11.8454 15.4062 11.7095 15.9095 11.4377 16.3323C11.1659 16.745 10.7885 17.0621 10.3053 17.2835C9.89225 17.4769 9.41781 17.5858 8.88198 17.6104V18.6451H7.85251V17.6157H6.00353V18.6451H4.97406V17.6157H3.14845V15.8642H4.53754V8.79797H3.14845V7.04651H4.97406V6.01704Z" fill="black"/>
</svg>
