<svg xmlns="http://www.w3.org/2000/svg" width="24" height="24" viewBox="0 0 24 24" fill="none">
  <g clip-path="url(#clip0_37263_6329)">
    <mask id="mask0_37263_6329" style="mask-type:luminance" maskUnits="userSpaceOnUse" x="0" y="0" width="24" height="24">
      <path d="M24 0H0V24H24V0Z" fill="white"/>
    </mask>
    <g mask="url(#mask0_37263_6329)">
      <path fill-rule="evenodd" clip-rule="evenodd" d="M9.51476 8.09255C9.7843 8.17196 9.99044 8.32483 10.1424 8.46471C10.3177 8.62601 10.4968 8.84333 10.6643 9.04646L14.9259 14.212C14.9667 14.2615 15.0193 14.2943 15.0756 14.3102C15.0211 14.2938 14.9703 14.2615 14.9307 14.2134L10.6692 9.04789L10.6684 9.04692C10.5011 8.84407 10.3222 8.62718 10.1473 8.46614C9.99439 8.32543 9.78671 8.17154 9.51476 8.09255ZM23.5823 11.3602C22.3387 15.0858 18.5525 19.0174 15.6437 21.3894C14.0453 22.6928 13.2461 23.1167 11.9977 23.1167C10.7493 23.1167 9.95011 22.6928 8.35169 21.3894C5.44247 19.0171 1.65575 15.0847 0.41257 11.3588H0.416985C0.151642 10.5631 0.00231934 9.76385 0.00231934 8.9726C0.00231934 1.9436 6.49945 -1.27435 12.0025 2.66394C17.2992 -1.27435 24.0027 1.94337 24.0027 8.97255C24.0027 9.76429 23.8532 10.564 23.5877 11.3602H23.5823Z" fill="url(#paint0_radial_37263_6329)"/>
      <path fill-rule="evenodd" clip-rule="evenodd" d="M9.75845 8.58299C10.0929 8.60719 10.333 8.77576 10.4961 8.92586C10.6381 9.05649 10.7832 9.23251 10.9188 9.39703L14.3704 13.5807C14.4156 13.6356 14.4785 13.6651 14.5429 13.6689C14.4797 13.6642 14.4181 13.6348 14.3737 13.581L10.9222 9.39726C10.7867 9.23297 10.6412 9.05651 10.4995 8.9261C10.3359 8.7755 10.0948 8.60627 9.75845 8.58299ZM21.3818 11.2701C20.3748 14.2878 17.3079 17.5447 14.9517 19.466C13.6572 20.5218 13.0098 21.0495 11.9988 21.0495C10.9877 21.0495 10.3404 20.5218 9.04575 19.466C6.6895 17.5446 3.62253 14.2876 2.61566 11.2699H2.61899C2.40389 10.6251 2.28284 9.97744 2.28284 9.33629C2.28284 3.90051 7.08296 1.28057 12.0022 5.10923C15.8299 1.28057 21.7215 3.90033 21.7215 9.6455C21.7215 10.2635 21.6089 10.6003 21.4083 11.2012C21.4007 11.2238 21.393 11.2467 21.3852 11.2701H21.3818Z" fill="url(#paint1_radial_37263_6329)"/>
      <path d="M5.04003 11.4593C4.88046 10.981 4.79065 10.5006 4.79065 10.0249C4.79065 5.76367 8.75579 3.82668 11.9998 7.31311C15.2437 3.82668 19.2089 5.76354 19.2089 10.0249C19.2089 10.5006 19.119 10.981 18.9595 11.4593H16.7838L16.7031 11.4592C16.3097 11.4586 15.9603 11.458 15.6424 11.5996C15.3244 11.7412 15.091 12.0013 14.8282 12.2944L14.7742 12.3545L14.0322 13.1789C13.9581 13.2612 13.8294 13.2588 13.7589 13.1734L11.1988 10.0702C11.0981 9.94815 10.9905 9.81759 10.8852 9.72069C10.7626 9.60785 10.5814 9.48093 10.328 9.46571C10.0745 9.45048 9.87939 9.5548 9.74414 9.65216C9.62802 9.73576 9.50553 9.85249 9.39105 9.96161L8.28831 11.0119C7.94821 11.3358 7.87724 11.391 7.80301 11.4206C7.72878 11.4503 7.63933 11.4593 7.16966 11.4593H5.04003Z" fill="url(#paint2_linear_37263_6329)"/>
      <path d="M18.9586 11.459H16.7828L16.7021 11.4588C16.3087 11.4583 15.9593 11.4577 15.6413 11.5993C15.3234 11.7409 15.09 12.001 14.8272 12.294L14.7732 12.354L14.0312 13.1786C13.9571 13.2609 13.8284 13.2585 13.7579 13.173L11.1978 10.0698C11.0972 9.94779 10.9896 9.81724 10.8842 9.72034C10.7617 9.6075 10.5804 9.48057 10.327 9.46536C10.0736 9.45013 9.87842 9.55446 9.74317 9.6518C9.62705 9.7354 9.50456 9.85214 9.39008 9.96124L8.28734 11.0115C7.94724 11.3354 7.87627 11.3906 7.80204 11.4203C7.72781 11.45 7.63836 11.459 7.16869 11.459H5.03906C5.78589 13.6973 8.06077 15.888 9.80847 17.3132C10.7687 18.0963 11.2489 18.4878 11.9988 18.4878C12.7488 18.4878 13.2289 18.0963 14.1892 17.3132C15.9368 15.888 18.2117 13.6973 18.9586 11.459Z" fill="url(#paint3_linear_37263_6329)"/>
    </g>
  </g>
  <defs>
    <radialGradient id="paint0_radial_37263_6329" cx="0" cy="0" r="1" gradientUnits="userSpaceOnUse" gradientTransform="translate(12.0025 12.012) rotate(90) scale(11.1047 12.0293)">
      <stop stop-color="#FF3B00"/>
      <stop offset="1" stop-color="#FFE3E3"/>
    </radialGradient>
    <radialGradient id="paint1_radial_37263_6329" cx="0" cy="0" r="1" gradientUnits="userSpaceOnUse" gradientTransform="translate(12.0022 12.1723) rotate(89.995) scale(9.50198 10.4032)">
      <stop stop-color="#FF1313"/>
      <stop offset="1" stop-color="#FF9A81"/>
    </radialGradient>
    <linearGradient id="paint2_linear_37263_6329" x1="12.0555" y1="3.93322" x2="12.0555" y2="13.9591" gradientUnits="userSpaceOnUse">
      <stop stop-color="#AB0000"/>
      <stop offset="1" stop-color="#FF0000"/>
    </linearGradient>
    <linearGradient id="paint3_linear_37263_6329" x1="11.9988" y1="9.46387" x2="11.934" y2="19.2444" gradientUnits="userSpaceOnUse">
      <stop stop-color="#FF6726"/>
      <stop offset="1" stop-color="#DA0000"/>
    </linearGradient>
    <clipPath id="clip0_37263_6329">
      <rect width="24" height="24" fill="white"/>
    </clipPath>
  </defs>
</svg>
