<svg width="48" height="49" viewBox="0 0 48 49" fill="none" xmlns="http://www.w3.org/2000/svg">
<rect y="0.5" width="48" height="48" rx="24" fill="#DCDCDC"/>
<g clip-path="url(#clip0_37614_11189)">
<mask id="mask0_37614_11189" style="mask-type:luminance" maskUnits="userSpaceOnUse" x="12" y="12" width="25" height="25">
<path d="M12.0005 12.4961H36.0005V36.4961H12.0005V12.4961Z" fill="white"/>
</mask>
<g mask="url(#mask0_37614_11189)">
<path d="M26.2599 15.7436C27.0887 15.9575 27.8716 16.2859 28.5904 16.711C28.5904 16.711 28.9368 16.3646 29.3258 15.9756C29.6083 15.6928 29.9916 15.5343 30.3911 15.5343C30.7902 15.5343 31.1736 15.6928 31.456 15.9756C31.7987 16.3183 32.1783 16.6978 32.521 17.0405C32.8038 17.323 32.9623 17.7063 32.9623 18.1054C32.9623 18.505 32.8038 18.8883 32.521 19.1707C32.1319 19.5597 31.7855 19.9061 31.7855 19.9061C32.2106 20.625 32.539 21.4079 32.7529 22.2367H33.7911C34.6229 22.2367 35.2974 22.9112 35.2974 23.743V25.2492C35.2974 26.081 34.6229 26.7555 33.7911 26.7555H32.7529C32.539 27.5843 32.2106 28.3672 31.7855 29.086C31.7855 29.086 32.1319 29.4325 32.521 29.8214C32.8038 30.1039 32.9623 30.4872 32.9623 30.8868C32.9623 31.2859 32.8038 31.6692 32.521 31.9517C32.1783 32.2943 31.7987 32.6739 31.456 33.0166C31.1736 33.2994 30.7902 33.4579 30.3911 33.4579C29.9916 33.4579 29.6083 33.2994 29.3258 33.0166C28.9368 32.6275 28.5904 32.2811 28.5904 32.2811C27.8716 32.7062 27.0887 33.0347 26.2599 33.2485V34.2867C26.2599 35.1185 25.5854 35.793 24.7536 35.793H23.2473C22.4155 35.793 21.7411 35.1185 21.7411 34.2867V33.2485C20.9123 33.0347 20.1294 32.7062 19.4105 32.2811C19.4105 32.2811 19.0641 32.6275 18.6751 33.0166C18.3927 33.2994 18.0093 33.4579 17.6098 33.4579C17.2107 33.4579 16.8273 33.2994 16.5449 33.0166C16.2023 32.6739 15.8227 32.2943 15.48 31.9517C15.1972 31.6692 15.0386 31.2859 15.0386 30.8868C15.0386 30.4872 15.1972 30.1039 15.48 29.8214C15.869 29.4325 16.2154 29.086 16.2154 29.086C15.7903 28.3672 15.462 27.5843 15.248 26.7555H14.2099C13.3781 26.7555 12.7036 26.081 12.7036 25.2492V23.743C12.7036 22.9112 13.3781 22.2367 14.2099 22.2367H15.248C15.462 21.4079 15.7903 20.625 16.2154 19.9061C16.2154 19.9061 15.869 19.5597 15.48 19.1707C15.1972 18.8883 15.0386 18.505 15.0386 18.1054C15.0386 17.7063 15.1972 17.323 15.48 17.0405C15.8227 16.6978 16.2023 16.3183 16.5449 15.9756C16.8273 15.6928 17.2107 15.5343 17.6098 15.5343C18.0093 15.5343 18.3927 15.6928 18.6751 15.9756C19.0641 16.3646 19.4105 16.711 19.4105 16.711C20.1294 16.2859 20.9123 15.9575 21.7411 15.7436V14.7055C21.7411 13.8736 22.4155 13.1992 23.2473 13.1992H24.7536C25.5854 13.1992 26.2599 13.8736 26.2599 14.7055V15.7436Z" stroke="#333333" stroke-width="1.40625" stroke-miterlimit="10" stroke-linecap="round" stroke-linejoin="round"/>
<path d="M24.0002 19.9781C26.4942 19.9781 28.5189 22.0029 28.5189 24.4969C28.5189 26.9908 26.4942 29.0156 24.0002 29.0156C21.5062 29.0156 19.4814 26.9908 19.4814 24.4969C19.4814 22.0029 21.5062 19.9781 24.0002 19.9781Z" stroke="#333333" stroke-width="1.40625" stroke-miterlimit="10" stroke-linecap="round" stroke-linejoin="round"/>
</g>
</g>
<defs>
<clipPath id="clip0_37614_11189">
<rect width="24" height="24" fill="white" transform="translate(12 12.5)"/>
</clipPath>
</defs>
</svg>
