<svg width="24" height="24" viewBox="0 0 24 24" fill="none" xmlns="http://www.w3.org/2000/svg">
<path d="M11.5379 8.86267C12.0162 8.58653 12.7917 8.58653 13.27 8.86267L16.067 10.4776C16.5453 10.7537 16.5453 11.2014 16.067 11.4776L13.27 13.0925C12.7917 13.3686 12.0162 13.3686 11.5379 13.0925L8.74083 11.4776C8.26253 11.2014 8.26253 10.7537 8.74083 10.4776L11.5379 8.86267Z" fill="#BDCBFD"/>
<rect width="3.13787" height="3.13787" transform="matrix(0.866025 0.5 0 1 8.78064 11.5005)" fill="#93AAFC"/>
<rect width="3.13787" height="3.13787" transform="matrix(0.866025 -0.5 0 1 13.3098 13.0695)" fill="#6580E1"/>
<path d="M8.40552 10.9775C8.40552 11.1818 8.5489 11.3667 8.78072 11.5005V14.6384C8.5489 14.5045 8.40552 14.3196 8.40552 14.1154V10.9775Z" fill="#93AAFC"/>
<path d="M11.4982 13.0695C11.9984 13.3583 12.8095 13.3583 13.3098 13.0695V16.2073C12.8095 16.4962 11.9984 16.4962 11.4982 16.2073V13.0695Z" fill="#6580E1"/>
<path d="M16.4025 10.9775C16.4025 11.1818 16.2592 11.3667 16.0273 11.5005V14.6384C16.2592 14.5045 16.4025 14.3196 16.4025 14.1154V10.9775Z" fill="#6580E1"/>
<path d="M5.3924 12.5001C5.87069 12.224 6.64616 12.224 7.12445 12.5001L9.92153 14.115C10.3998 14.3912 10.3998 14.8389 9.92153 15.115L7.12445 16.7299C6.64616 17.0061 5.87069 17.0061 5.3924 16.7299L2.59532 15.115C2.11703 14.8389 2.11703 14.3912 2.59532 14.115L5.3924 12.5001Z" fill="white"/>
<rect width="3.13787" height="3.13787" transform="matrix(0.866025 0.5 0 1 2.63513 15.1379)" fill="#93AAFC"/>
<rect width="3.13787" height="3.13787" transform="matrix(0.866025 -0.5 0 1 7.16431 16.7069)" fill="#6580E1"/>
<path d="M2.26001 14.615C2.26001 14.8192 2.40339 15.0041 2.63522 15.138V18.2758C2.40339 18.142 2.26001 17.9571 2.26001 17.7529V14.615Z" fill="#93AAFC"/>
<path d="M5.35266 16.7069C5.85293 16.9957 6.66404 16.9957 7.16431 16.7069V19.8448C6.66404 20.1336 5.85293 20.1336 5.35266 19.8448V16.7069Z" fill="#6580E1"/>
<path d="M10.257 14.615C10.257 14.8192 10.1137 15.0041 9.88184 15.138V18.2758C10.1137 18.142 10.257 17.9571 10.257 17.7529V14.615Z" fill="#6580E1"/>
<path d="M16.8753 12.5001C17.3536 12.224 18.1291 12.224 18.6074 12.5001L21.4044 14.115C21.8827 14.3912 21.8827 14.8389 21.4044 15.115L18.6074 16.7299C18.1291 17.0061 17.3536 17.0061 16.8753 16.7299L14.0782 15.115C13.5999 14.8389 13.5999 14.3912 14.0782 14.115L16.8753 12.5001Z" fill="white"/>
<rect width="3.13787" height="3.13787" transform="matrix(0.866025 0.5 0 1 14.1179 15.1379)" fill="#93AAFC"/>
<rect width="3.13787" height="3.13787" transform="matrix(0.866025 -0.5 0 1 18.6472 16.7069)" fill="#6580E1"/>
<path d="M13.7428 14.615C13.7428 14.8192 13.8862 15.0041 14.118 15.138V18.2758C13.8862 18.142 13.7428 17.9571 13.7428 17.7529V14.615Z" fill="#93AAFC"/>
<path d="M16.8356 16.7069C17.3358 16.9957 18.1469 16.9957 18.6472 16.7069V19.8448C18.1469 20.1336 17.3358 20.1336 16.8356 19.8448V16.7069Z" fill="#6580E1"/>
<path d="M21.7398 14.615C21.7398 14.8192 21.5964 15.0041 21.3646 15.138V18.2758C21.5964 18.142 21.7398 17.9571 21.7398 17.7529V14.615Z" fill="#6580E1"/>
<path d="M10.7298 16.1376C11.2081 15.8614 11.9836 15.8614 12.4619 16.1376L15.2589 17.7525C15.7372 18.0286 15.7372 18.4763 15.2589 18.7525L12.4619 20.3674C11.9836 20.6435 11.2081 20.6435 10.7298 20.3674L7.93272 18.7525C7.45443 18.4763 7.45443 18.0286 7.93272 17.7525L10.7298 16.1376Z" fill="white"/>
<rect width="3.13787" height="3.13787" transform="matrix(0.866025 0.5 0 1 7.97241 18.7755)" fill="#93AAFC"/>
<rect width="3.13787" height="3.13787" transform="matrix(0.866025 -0.5 0 1 12.5017 20.3445)" fill="#6580E1"/>
<path d="M7.59729 18.2526C7.59729 18.4568 7.74067 18.6417 7.9725 18.7755V21.9134C7.74067 21.7796 7.59729 21.5947 7.59729 21.3904V18.2526Z" fill="#93AAFC"/>
<path d="M10.6899 20.3445C11.1902 20.6333 12.0013 20.6333 12.5016 20.3445V23.4824C12.0013 23.7712 11.1902 23.7712 10.6899 23.4824V20.3445Z" fill="#6580E1"/>
<path d="M15.5943 18.2526C15.5943 18.4568 15.4509 18.6417 15.2191 18.7755V21.9134C15.4509 21.7796 15.5943 21.5947 15.5943 21.3904V18.2526Z" fill="#6580E1"/>
<path d="M11.5379 4.83179C12.0162 4.55565 12.7917 4.55564 13.27 4.83179L16.067 6.44668C16.5453 6.72282 16.5453 7.17054 16.067 7.44668L13.27 9.06157C12.7917 9.33772 12.0162 9.33772 11.5379 9.06158L8.74083 7.44668C8.26253 7.17054 8.26253 6.72282 8.74083 6.44668L11.5379 4.83179Z" fill="white"/>
<rect width="3.13787" height="3.13787" transform="matrix(0.866025 0.5 0 1 8.78064 7.4696)" fill="#93DEFC"/>
<rect width="3.13787" height="3.13787" transform="matrix(0.866025 -0.5 0 1 13.3098 9.03857)" fill="#65BEE1"/>
<path d="M8.40552 6.94666C8.40552 7.15089 8.5489 7.33579 8.78072 7.46963V10.6075C8.5489 10.4737 8.40552 10.2888 8.40552 10.0845V6.94666Z" fill="#93DEFC"/>
<path d="M11.4982 9.03857C11.9984 9.32741 12.8095 9.32741 13.3098 9.03857V12.1764C12.8095 12.4653 11.9984 12.4653 11.4982 12.1764V9.03857Z" fill="#65BEE1"/>
<path d="M16.4025 6.94666C16.4025 7.15089 16.2592 7.33579 16.0273 7.46963V10.6075C16.2592 10.4737 16.4025 10.2888 16.4025 10.0845V6.94666Z" fill="#65BEE1"/>
<path d="M5.3924 8.46924C5.87069 8.1931 6.64616 8.1931 7.12445 8.46924L9.92153 10.0841C10.3998 10.3603 10.3998 10.808 9.92153 11.0841L7.12445 12.699C6.64616 12.9752 5.87069 12.9752 5.3924 12.699L2.59532 11.0841C2.11703 10.808 2.11703 10.3603 2.59532 10.0841L5.3924 8.46924Z" fill="white"/>
<rect width="3.13787" height="3.13787" transform="matrix(0.866025 0.5 0 1 2.63513 11.1072)" fill="#93DEFC"/>
<rect width="3.13787" height="3.13787" transform="matrix(0.866025 -0.5 0 1 7.16431 12.676)" fill="#65BEE1"/>
<path d="M2.26001 10.5841C2.26001 10.7883 2.40339 10.9732 2.63522 11.1071V14.245C2.40339 14.1111 2.26001 13.9262 2.26001 13.722V10.5841Z" fill="#93DEFC"/>
<path d="M5.35266 12.676C5.85293 12.9649 6.66404 12.9649 7.16431 12.676V15.8139C6.66404 16.1027 5.85293 16.1027 5.35266 15.8139V12.676Z" fill="#65BEE1"/>
<path d="M10.257 10.5841C10.257 10.7883 10.1137 10.9732 9.88184 11.1071V14.245C10.1137 14.1111 10.257 13.9262 10.257 13.722V10.5841Z" fill="#65BEE1"/>
<path d="M16.8753 8.46912C17.3536 8.19297 18.1291 8.19297 18.6074 8.46912L21.4044 10.084C21.8827 10.3602 21.8827 10.8079 21.4044 11.084L18.6074 12.6989C18.1291 12.975 17.3536 12.975 16.8753 12.6989L14.0782 11.084C13.5999 10.8079 13.5999 10.3602 14.0782 10.084L16.8753 8.46912Z" fill="white"/>
<rect width="3.13787" height="3.13787" transform="matrix(0.866025 0.5 0 1 14.1179 11.1071)" fill="#93DEFC"/>
<rect width="3.13787" height="3.13787" transform="matrix(0.866025 -0.5 0 1 18.6472 12.6759)" fill="#65BEE1"/>
<path d="M13.7428 10.584C13.7428 10.7882 13.8862 10.9731 14.118 11.107V14.2448C13.8862 14.111 13.7428 13.9261 13.7428 13.7219V10.584Z" fill="#93DEFC"/>
<path d="M16.8356 12.6759C17.3358 12.9647 18.1469 12.9647 18.6472 12.6759V15.8138C18.1469 16.1026 17.3358 16.1026 16.8356 15.8138V12.6759Z" fill="#65BEE1"/>
<path d="M21.7398 10.584C21.7398 10.7882 21.5964 10.9731 21.3646 11.107V14.2448C21.5964 14.111 21.7398 13.9261 21.7398 13.7219V10.584Z" fill="#65BEE1"/>
<path d="M10.7298 12.1071C11.2081 11.8309 11.9836 11.8309 12.4619 12.1071L15.2589 13.7219C15.7372 13.9981 15.7372 14.4458 15.2589 14.7219L12.4619 16.3368C11.9836 16.613 11.2081 16.613 10.7298 16.3368L7.93272 14.722C7.45443 14.4458 7.45443 13.9981 7.93272 13.7219L10.7298 12.1071Z" fill="white"/>
<rect width="3.13787" height="3.13787" transform="matrix(0.866025 0.5 0 1 7.97241 14.7449)" fill="#93DEFC"/>
<rect width="3.13787" height="3.13787" transform="matrix(0.866025 -0.5 0 1 12.5017 16.3138)" fill="#65BEE1"/>
<path d="M7.59729 14.2219C7.59729 14.4262 7.74067 14.6111 7.9725 14.7449V17.8828C7.74067 17.7489 7.59729 17.564 7.59729 17.3598V14.2219Z" fill="#93DEFC"/>
<path d="M10.6899 16.3138C11.1902 16.6027 12.0013 16.6027 12.5016 16.3138V19.4517C12.0013 19.7405 11.1902 19.7405 10.6899 19.4517V16.3138Z" fill="#65BEE1"/>
<path d="M15.5943 14.2219C15.5943 14.4262 15.4509 14.6111 15.2191 14.7449V17.8828C15.4509 17.7489 15.5943 17.564 15.5943 17.3598V14.2219Z" fill="#65BEE1"/>
<path d="M11.5379 0.800904C12.0162 0.524761 12.7917 0.524761 13.27 0.800903L16.067 2.4158C16.5453 2.69194 16.5453 3.13966 16.067 3.4158L13.27 5.03069C12.7917 5.30683 12.0162 5.30683 11.5379 5.03069L8.74083 3.4158C8.26253 3.13966 8.26253 2.69194 8.74083 2.4158L11.5379 0.800904Z" fill="#BDFDCF"/>
<rect width="3.13787" height="3.13787" transform="matrix(0.866025 0.5 0 1 8.78064 3.43884)" fill="#93FCB1"/>
<rect width="3.13787" height="3.13787" transform="matrix(0.866025 -0.5 0 1 13.3098 5.00769)" fill="#65E188"/>
<path d="M8.40552 2.91577C8.40552 3.12001 8.5489 3.30491 8.78072 3.43875V6.57662C8.5489 6.44278 8.40552 6.25788 8.40552 6.05364V2.91577Z" fill="#93FCB1"/>
<path d="M11.4982 5.00769C11.9984 5.29652 12.8095 5.29652 13.3098 5.00769V8.14556C12.8095 8.4344 11.9984 8.4344 11.4982 8.14556V5.00769Z" fill="#65E188"/>
<path d="M16.4025 2.91577C16.4025 3.12001 16.2592 3.30491 16.0273 3.43875V6.57662C16.2592 6.44278 16.4025 6.25788 16.4025 6.05364V2.91577Z" fill="#65E188"/>
<path d="M5.3924 4.4386C5.87069 4.16246 6.64616 4.16246 7.12445 4.4386L9.92153 6.05349C10.3998 6.32963 10.3998 6.77735 9.92153 7.05349L7.12445 8.66839C6.64616 8.94453 5.87069 8.94453 5.3924 8.66839L2.59532 7.05349C2.11703 6.77735 2.11703 6.32964 2.59532 6.05349L5.3924 4.4386Z" fill="#BDFDCF"/>
<rect width="3.13787" height="3.13787" transform="matrix(0.866025 0.5 0 1 2.63513 7.07654)" fill="#93FCB1"/>
<rect width="3.13787" height="3.13787" transform="matrix(0.866025 -0.5 0 1 7.16431 8.64551)" fill="#65E188"/>
<path d="M2.26001 6.55359C2.26001 6.75782 2.40339 6.94273 2.63522 7.07657V10.2144C2.40339 10.0806 2.26001 9.8957 2.26001 9.69146V6.55359Z" fill="#93FCB1"/>
<path d="M5.35266 8.64551C5.85293 8.93434 6.66404 8.93434 7.16431 8.64551V11.7834C6.66404 12.0722 5.85293 12.0722 5.35266 11.7834V8.64551Z" fill="#65E188"/>
<path d="M10.257 6.55359C10.257 6.75782 10.1137 6.94273 9.88184 7.07657V10.2144C10.1137 10.0806 10.257 9.8957 10.257 9.69146V6.55359Z" fill="#65E188"/>
<path d="M16.8753 4.43848C17.3536 4.16233 18.1291 4.16233 18.6074 4.43848L21.4044 6.05337C21.8827 6.32951 21.8827 6.77723 21.4044 7.05337L18.6074 8.66826C18.1291 8.94441 17.3536 8.94441 16.8753 8.66826L14.0782 7.05337C13.5999 6.77723 13.5999 6.32951 14.0782 6.05337L16.8753 4.43848Z" fill="#BDFDCF"/>
<rect width="3.13787" height="3.13787" transform="matrix(0.866025 0.5 0 1 14.1179 7.07642)" fill="#93FCB1"/>
<rect width="3.13787" height="3.13787" transform="matrix(0.866025 -0.5 0 1 18.6472 8.64539)" fill="#65E188"/>
<path d="M13.7428 6.55347C13.7428 6.7577 13.8862 6.9426 14.118 7.07645V10.2143C13.8862 10.0805 13.7428 9.89558 13.7428 9.69134V6.55347Z" fill="#93FCB1"/>
<path d="M16.8356 8.64539C17.3358 8.93422 18.1469 8.93422 18.6472 8.64539V11.7833C18.1469 12.0721 17.3358 12.0721 16.8356 11.7833V8.64539Z" fill="#65E188"/>
<path d="M21.7398 6.55347C21.7398 6.7577 21.5964 6.9426 21.3646 7.07645V10.2143C21.5964 10.0805 21.7398 9.89558 21.7398 9.69134V6.55347Z" fill="#65E188"/>
<path d="M10.7299 8.07617C11.2082 7.80003 11.9837 7.80003 12.462 8.07617L15.2591 9.69107C15.7373 9.96721 15.7373 10.4149 15.2591 10.6911L12.462 12.306C11.9837 12.5821 11.2082 12.5821 10.7299 12.306L7.93284 10.6911C7.45455 10.4149 7.45455 9.96721 7.93284 9.69107L10.7299 8.07617Z" fill="#BDFDCF"/>
<path d="M10.7298 8.64575C11.2081 8.36961 11.9836 8.36961 12.4619 8.64575L12.5415 8.69171C13.0197 8.96785 13.0197 9.41557 12.5415 9.69171L12.4619 9.73767C11.9836 10.0138 11.2081 10.0138 10.7298 9.73767L10.6502 9.69171C10.1719 9.41557 10.1719 8.96785 10.6502 8.69171L10.7298 8.64575Z" fill="#BDFDCF"/>
<path d="M10.3147 9.19165C10.3147 9.39589 10.4581 9.58079 10.6899 9.71463V10.7606C10.4581 10.6267 10.3147 10.4418 10.3147 10.2376V9.19165Z" fill="#93FCB1"/>
<path d="M10.6898 9.7146C11.1901 10.0034 12.0012 10.0034 12.5015 9.7146V10.7606C12.0012 11.0494 11.1901 11.0494 10.6898 10.7606V9.7146Z" fill="#65E188"/>
<path d="M12.8768 9.19165C12.8768 9.39589 12.7334 9.58079 12.5016 9.71463V10.7606C12.7334 10.6267 12.8768 10.4418 12.8768 10.2376V9.19165Z" fill="#65E188"/>
<path d="M5.39252 5.01099C5.87081 4.73484 6.64628 4.73484 7.12457 5.01099L7.20417 5.05694C7.68246 5.33309 7.68246 5.7808 7.20417 6.05694L7.12457 6.1029C6.64628 6.37904 5.87081 6.37904 5.39252 6.1029L5.31292 6.05694C4.83463 5.7808 4.83463 5.33309 5.31292 5.05694L5.39252 5.01099Z" fill="#BDFDCF"/>
<path d="M4.97754 5.55701C4.97754 5.76124 5.12092 5.94614 5.35274 6.07999V7.12594C5.12092 6.9921 4.97754 6.8072 4.97754 6.60296V5.55701Z" fill="#93FCB1"/>
<path d="M5.35266 6.07996C5.85293 6.36879 6.66404 6.36879 7.16431 6.07996V7.12591C6.66404 7.41475 5.85293 7.41475 5.35266 7.12591V6.07996Z" fill="#65E188"/>
<path d="M7.53951 5.55701C7.53951 5.76124 7.39613 5.94614 7.16431 6.07999V7.12594C7.39613 6.9921 7.53951 6.8072 7.53951 6.60296V5.55701Z" fill="#65E188"/>
<path d="M11.5379 1.37891C12.0162 1.10276 12.7917 1.10276 13.27 1.37891L13.3496 1.42486C13.8278 1.70101 13.8278 2.14872 13.3496 2.42486L13.27 2.47082C12.7917 2.74696 12.0162 2.74696 11.5379 2.47082L11.4583 2.42486C10.98 2.14872 10.98 1.70101 11.4583 1.42486L11.5379 1.37891Z" fill="#BDFDCF"/>
<path d="M11.1229 1.92493C11.1229 2.12916 11.2663 2.31406 11.4981 2.44791V3.49386C11.2663 3.36002 11.1229 3.17512 11.1229 2.97088V1.92493Z" fill="#93FCB1"/>
<path d="M11.498 2.44788C11.9983 2.73671 12.8094 2.73671 13.3097 2.44788V3.49383C12.8094 3.78267 11.9983 3.78267 11.498 3.49383V2.44788Z" fill="#65E188"/>
<path d="M13.6849 1.92493C13.6849 2.12916 13.5415 2.31406 13.3097 2.44791V3.49386C13.5415 3.36002 13.6849 3.17512 13.6849 2.97088V1.92493Z" fill="#65E188"/>
<path d="M16.8753 5.01099C17.3536 4.73484 18.1291 4.73484 18.6074 5.01099L18.687 5.05694C19.1653 5.33309 19.1653 5.7808 18.687 6.05694L18.6074 6.1029C18.1291 6.37904 17.3536 6.37904 16.8753 6.1029L16.7957 6.05694C16.3174 5.7808 16.3174 5.33309 16.7957 5.05694L16.8753 5.01099Z" fill="#BDFDCF"/>
<path d="M16.4602 5.55701C16.4602 5.76124 16.6036 5.94614 16.8354 6.07999V7.12594C16.6036 6.9921 16.4602 6.8072 16.4602 6.60296V5.55701Z" fill="#93FCB1"/>
<path d="M16.8353 6.07996C17.3356 6.36879 18.1467 6.36879 18.647 6.07996V7.12591C18.1467 7.41475 17.3356 7.41475 16.8353 7.12591V6.07996Z" fill="#65E188"/>
<path d="M19.0223 5.55701C19.0223 5.76124 18.8789 5.94614 18.6471 6.07999V7.12594C18.8789 6.9921 19.0223 6.8072 19.0223 6.60296V5.55701Z" fill="#65E188"/>
<rect width="3.13787" height="3.13787" transform="matrix(0.866025 0.5 0 1 7.97253 10.714)" fill="#93FCB1"/>
<rect width="3.13787" height="3.13787" transform="matrix(0.866025 -0.5 0 1 12.5017 12.283)" fill="#65E188"/>
<path d="M7.59729 10.191C7.59729 10.3953 7.74067 10.5802 7.9725 10.714V13.8519C7.74067 13.7181 7.59729 13.5331 7.59729 13.3289V10.191Z" fill="#93FCB1"/>
<path d="M10.6899 12.283C11.1902 12.5718 12.0013 12.5718 12.5016 12.283V15.4208C12.0013 15.7097 11.1902 15.7097 10.6899 15.4208V12.283Z" fill="#65E188"/>
<path d="M15.5943 10.191C15.5943 10.3953 15.4509 10.5802 15.2191 10.714V13.8519C15.4509 13.7181 15.5943 13.5331 15.5943 13.3289V10.191Z" fill="#65E188"/>
</svg>
