<svg width="46" height="37" viewBox="0 0 46 37" fill="none" xmlns="http://www.w3.org/2000/svg">
<path d="M16.3229 0.916992H8.75159C7.18353 0.916992 5.91235 2.18817 5.91235 3.75623V9.43471C5.91235 9.95739 6.33611 10.3812 6.8588 10.3812H18.2158C18.7384 10.3812 19.1622 9.95739 19.1622 9.43471V3.75623C19.1621 2.18817 17.8909 0.916992 16.3229 0.916992Z" fill="#0040E2"/>
<path d="M37.0882 0.916992H29.517C27.9489 0.916992 26.6777 2.18817 26.6777 3.75623V9.43471C26.6777 9.95739 27.1015 10.3812 27.6242 10.3812H38.9811C39.5038 10.3812 39.9276 9.95739 39.9276 9.43471V3.75623C39.9275 2.18817 38.6563 0.916992 37.0882 0.916992Z" fill="#0040E2"/>
<path d="M3.07337 7.79248H42.8227C44.3908 7.79248 45.6619 9.06366 45.662 10.6317V35.6692C45.662 36.1919 45.2383 36.6156 44.7156 36.6156C28.8836 36.6156 17.8414 36.6156 1.18057 36.6156C0.657887 36.6156 0.234131 36.1919 0.234131 35.6692V10.6317C0.234131 9.06366 1.50531 7.79248 3.07337 7.79248Z" fill="#1F5EFF"/>
<path fill-rule="evenodd" clip-rule="evenodd" d="M28.7801 27.1961C28.3454 27.5687 27.8724 27.8941 27.369 28.1669C27.4649 28.0907 27.163 27.7747 27.2561 27.6928C29.5364 25.7173 30.0557 23.1575 29.1357 20.9195C29.0115 20.6147 29.274 20.4934 29.274 20.2168C31.3991 22.1952 31.1705 25.1274 28.7801 27.1961Z" fill="white"/>
<path fill-rule="evenodd" clip-rule="evenodd" d="M29.2963 20.2111C28.3686 19.3819 27.2511 18.7936 26.0423 18.498C26.5052 18.6194 26.539 19.1528 26.858 19.4209C27.5381 19.9853 27.7215 20.7361 27.7921 21.7097C27.8965 23.1603 27.8881 24.594 26.8297 25.8725C26.2715 26.5749 25.5561 27.1365 24.7413 27.5122L24.555 27.5912H24.5268C24.0972 27.7612 23.652 27.8888 23.1976 27.9722C21.4788 28.2967 19.2041 28.1613 16.4553 27.2864C17.4839 28.0865 18.6595 28.6771 19.9153 29.0249C21.1703 29.3658 22.4792 29.4616 23.7705 29.3071C23.9567 29.2873 24.1374 29.2591 24.318 29.2281C25.0218 29.1064 25.7106 28.9096 26.3725 28.641C26.7176 28.5001 27.054 28.339 27.3801 28.1584C27.476 28.0822 27.572 28.0032 27.6623 27.9242C30.2615 25.6805 30.8485 22.6297 29.2963 20.2111Z" fill="white"/>
<path fill-rule="evenodd" clip-rule="evenodd" d="M24.5466 27.5911C27.7611 26.2816 27.9333 22.9627 24.1995 21.1C21.4845 19.7426 22.684 17.5864 26.0339 18.5036C29.7875 19.4801 28.6812 25.9994 24.5466 27.5911Z" fill="white"/>
<path fill-rule="evenodd" clip-rule="evenodd" d="M29.5449 16.7029C26.0115 15.574 23.2711 15.6756 21.4734 16.4009H21.4452C18.7725 17.5016 18.2025 19.9795 20.2344 21.8534C19.6982 21.4104 19.0886 20.939 18.8233 20.3379C18.4883 19.5448 18.3827 18.6735 18.5185 17.8233C18.6203 17.2592 18.8517 16.7264 19.1945 16.267C19.5373 15.8076 19.9822 15.4342 20.4941 15.1761C21.0406 14.9248 21.622 14.7573 22.2184 14.6794C23.5127 14.519 24.8259 14.6151 26.083 14.9623C27.3401 15.3095 28.5164 15.901 29.5449 16.7029Z" fill="white"/>
<path fill-rule="evenodd" clip-rule="evenodd" d="M20.8327 25.6834C20.6013 25.61 20.3388 25.5733 20.1243 25.4858C17.3953 24.3936 15.939 22.3475 15.9898 20.3325C16.0293 18.9016 16.8675 17.4539 18.2476 16.2572C18.677 15.9198 19.135 15.6205 19.6163 15.3626C20.2781 15.0931 20.9669 14.8954 21.6709 14.7728C21.8543 14.7417 22.0406 14.7135 22.2353 14.6909C22.022 14.7229 21.8109 14.7682 21.6032 14.8264C18.0557 15.7775 17.8581 19.8781 20.2344 21.8537C20.7007 22.2751 21.2242 22.6285 21.7894 22.9035C24.2645 24.1396 23.4969 26.0277 20.8327 25.6834Z" fill="white"/>
<path fill-rule="evenodd" clip-rule="evenodd" d="M20.8327 25.6831C20.5372 25.6445 20.2449 25.5851 19.9578 25.5053C14.7254 24.0744 13.9578 19.6323 17.209 16.8044C17.9275 16.1958 18.7406 15.7086 19.6163 15.3623C19.1567 15.6325 18.7223 15.9432 18.3181 16.2908C14.8581 19.2936 15.5467 23.9728 20.8327 25.6831Z" fill="white"/>
</svg>
