<svg width="60" height="60" viewBox="0 0 60 60" fill="none" xmlns="http://www.w3.org/2000/svg">
<rect width="60" height="60" rx="30" fill="#34AADF"/>
<path d="M16.6921 28.9374C16.6921 28.9374 28.8989 23.7961 33.1324 21.9857C34.7554 21.2616 40.259 18.9443 40.259 18.9443C40.259 18.9443 42.7992 17.9306 42.5875 20.3926C42.5169 21.4064 41.9524 24.9546 41.388 28.7925C40.5412 34.2236 39.6239 40.1614 39.6239 40.1614C39.6239 40.1614 39.4828 41.827 38.2833 42.1166C37.0838 42.4063 35.1081 41.1029 34.7554 40.8132C34.4731 40.596 29.4634 37.3373 27.6288 35.7442C27.1349 35.3098 26.5705 34.4409 27.6993 33.427C30.2395 31.0374 33.2736 28.0685 35.1081 26.1857C35.9549 25.3167 36.8015 23.2891 33.2736 25.7512C28.2639 29.2995 23.3247 32.6305 23.3247 32.6305C23.3247 32.6305 22.1957 33.3546 20.079 32.7028C17.9621 32.0512 15.4925 31.1822 15.4925 31.1822C15.4925 31.1822 13.7992 30.096 16.6921 28.9374Z" fill="white"/>
</svg>
