<svg width="24" height="24" viewBox="0 0 24 24" fill="none" xmlns="http://www.w3.org/2000/svg">
<rect width="24" height="24" rx="12" fill="#34AADF"/>
<path d="M6.67684 11.575C6.67684 11.575 11.5596 9.51852 13.253 8.79437C13.9021 8.50473 16.1036 7.57782 16.1036 7.57782C16.1036 7.57782 17.1197 7.17232 17.035 8.15713C17.0067 8.56266 16.781 9.98194 16.5552 11.5171C16.2165 13.6895 15.8496 16.0647 15.8496 16.0647C15.8496 16.0647 15.7931 16.7309 15.3133 16.8468C14.8335 16.9626 14.0432 16.4413 13.9021 16.3254C13.7892 16.2385 11.7853 14.935 11.0515 14.2978C10.854 14.124 10.6282 13.7764 11.0797 13.3709C12.0958 12.415 13.3094 11.2275 14.0432 10.4744C14.3819 10.1268 14.7206 9.31576 13.3094 10.3006C11.3056 11.7199 9.32988 13.0523 9.32988 13.0523C9.32988 13.0523 8.87829 13.3419 8.03159 13.0812C7.18484 12.8206 6.19701 12.473 6.19701 12.473C6.19701 12.473 5.51968 12.0385 6.67684 11.575Z" fill="white"/>
</svg>
