<svg width="12" height="12" viewBox="0 0 12 12" fill="none" xmlns="http://www.w3.org/2000/svg">
<path d="M6 7.125C6.62132 7.125 7.125 6.62132 7.125 6C7.125 5.37868 6.62132 4.875 6 4.875C5.37868 4.875 4.875 5.37868 4.875 6C4.875 6.62132 5.37868 7.125 6 7.125Z" fill="#212121"/>
<path d="M1.5 7.125C2.12132 7.125 2.625 6.62132 2.625 6C2.625 5.37868 2.12132 4.875 1.5 4.875C0.87868 4.875 0.375 5.37868 0.375 6C0.375 6.62132 0.87868 7.125 1.5 7.125Z" fill="#212121"/>
<path d="M10.5 7.125C11.1213 7.125 11.625 6.62132 11.625 6C11.625 5.37868 11.1213 4.875 10.5 4.875C9.87868 4.875 9.375 5.37868 9.375 6C9.375 6.62132 9.87868 7.125 10.5 7.125Z" fill="#212121"/>
</svg>
