<svg width="30" height="30" viewBox="0 0 30 30" fill="none" xmlns="http://www.w3.org/2000/svg">
<path d="M13.1145 12.7962C13.0306 12.7992 12.947 12.7852 12.8686 12.7551C12.7902 12.7251 12.7187 12.6795 12.6583 12.6213C12.598 12.563 12.5499 12.4931 12.5171 12.4158C12.4843 12.3386 12.4674 12.2555 12.4674 12.1716C12.4674 12.0877 12.4843 12.0046 12.5171 11.9273C12.5499 11.8501 12.598 11.7802 12.6583 11.7219C12.7187 11.6636 12.7902 11.6181 12.8686 11.588C12.947 11.558 13.0306 11.544 13.1145 11.547L17.8285 11.547C17.9941 11.5471 18.153 11.6129 18.2701 11.73C18.3872 11.8471 18.453 12.006 18.4531 12.1716L18.4531 16.8856C18.4561 16.9695 18.4421 17.0531 18.4121 17.1315C18.382 17.2099 18.3365 17.2814 18.2782 17.3418C18.2199 17.4021 18.15 17.4502 18.0728 17.483C17.9955 17.5158 17.9125 17.5327 17.8285 17.5327C17.7446 17.5327 17.6615 17.5158 17.5843 17.483C17.507 17.4502 17.4371 17.4021 17.3788 17.3418C17.3206 17.2814 17.275 17.2099 17.245 17.1315C17.2149 17.0531 17.2009 16.9695 17.2039 16.8856L17.2039 13.6801L11.494 19.39C11.3768 19.5072 11.2178 19.573 11.0521 19.573C10.8863 19.573 10.7273 19.5072 10.6101 19.39C10.4929 19.2728 10.4271 19.1138 10.4271 18.948C10.4271 18.7823 10.4929 18.6233 10.6101 18.5061L16.32 12.7962L13.1145 12.7962Z" fill="white"/>
</svg>
