<svg width="72" height="73" viewBox="0 0 72 73" fill="none" xmlns="http://www.w3.org/2000/svg">
<g clip-path="url(#clip0_27023_5067)">
<circle cx="36" cy="36.5" r="36" fill="white"/>
<circle cx="36" cy="36.5" r="27" fill="white"/>
<path d="M52.7922 20.7848L51.3 22.2756C58.6799 30.3387 58.6799 42.6961 51.3 50.7592L52.7922 52.25C61.0027 43.3522 61.0027 29.6478 52.7922 20.75V20.7848Z" fill="#5A5564"/>
<path d="M21.7756 21.2C29.8387 13.8202 42.1961 13.8202 50.2592 21.2L51.75 19.7079C42.8522 11.4974 29.1478 11.4974 20.25 19.7079L21.7756 21.2Z" fill="#5A5564"/>
<path d="M20.7 50.7095C13.3293 42.6486 13.3293 30.3017 20.7 22.2408L19.2079 20.75C10.9974 29.6478 10.9974 43.3522 19.2079 52.25L20.7 50.7095Z" fill="#5A5564"/>
<path d="M50.2244 51.8C42.1613 59.1798 29.8039 59.1798 21.7408 51.8L20.25 53.2921C29.1478 61.5026 42.8522 61.5026 51.75 53.2921L50.2244 51.8Z" fill="#5A5564"/>
<path fill-rule="evenodd" clip-rule="evenodd" d="M45.2741 31.7193C44.9806 28.6215 42.3393 27.5823 38.9985 27.2656V23H36.4159V27.1864H34.3517V23H31.7887V27.2953H26.55V30.0912C26.55 30.0912 28.4577 30.0566 28.4283 30.0912C29.1432 30.0116 29.792 30.5192 29.8957 31.2393V42.9969C29.8809 43.2437 29.768 43.474 29.5827 43.6353C29.4008 43.7997 29.1606 43.8819 28.9175 43.8629C28.9517 43.8926 27.0392 43.8629 27.0392 43.8629L26.55 46.9854H31.7398V51.35H34.3224V47.0497H36.3865V51.3302H38.9741V47.0151C43.3371 46.7479 46.3796 45.6592 46.7611 41.5272C47.0692 38.2018 45.5236 36.7173 43.0534 36.1185C44.5551 35.3713 45.4844 33.9857 45.2741 31.7193ZM41.6546 41.0126C41.6546 43.9927 37.0211 43.9242 34.9067 43.8929L34.9064 43.8929C34.7177 43.8901 34.5491 43.8877 34.4056 43.8877V38.1276C34.5849 38.1281 34.8035 38.1232 35.0515 38.1177C37.2251 38.069 41.6546 37.97 41.6546 41.0126ZM34.8503 35.5105C36.6221 35.5424 40.4563 35.6112 40.4563 32.897C40.4563 30.1141 36.7416 30.2119 34.9353 30.2594C34.7341 30.2647 34.5567 30.2694 34.4106 30.2694V35.5049C34.5357 35.5049 34.6839 35.5075 34.8503 35.5105Z" fill="#F09242"/>
<path fill-rule="evenodd" clip-rule="evenodd" d="M9 36.4984C8.99909 51.4088 21.0847 63.4973 35.9951 63.5C43.1576 63.5013 50.0272 60.6566 55.0919 55.5919C60.1566 50.5272 63.0013 43.6576 63 36.4951C62.9973 21.5847 50.9088 9.49909 35.9984 9.5C21.088 9.50091 9.00091 21.588 9 36.4984ZM11.1352 36.495C11.1297 22.7582 22.2583 11.6163 35.9951 11.6054C42.5988 11.6002 48.9336 14.2205 53.604 18.889C58.2744 23.5576 60.8973 29.8914 60.8946 36.4951C60.8892 50.2319 49.7517 61.3649 36.0149 61.3649C22.2781 61.3649 11.1406 50.2319 11.1352 36.495Z" fill="#282138"/>
</g>
<defs>
<clipPath id="clip0_27023_5067">
<rect width="72" height="72" fill="white" transform="translate(0 0.5)"/>
</clipPath>
</defs>
</svg>
