<svg width="20" height="20" viewBox="0 0 20 20" fill="none" xmlns="http://www.w3.org/2000/svg">
<path d="M10.0002 1.24805C5.16413 1.24805 1.25024 5.16148 1.25024 9.99805C1.25024 14.8341 5.16368 18.748 10.0002 18.748C14.8364 18.748 18.7502 14.8346 18.7502 9.99805C18.7502 5.162 14.8368 1.24805 10.0002 1.24805ZM10.0002 17.5271C5.84871 17.5271 2.47118 14.1496 2.47118 9.99805C2.47118 5.84648 5.84871 2.46898 10.0002 2.46898C14.1518 2.46898 17.5293 5.84648 17.5293 9.99805C17.5293 14.1496 14.1518 17.5271 10.0002 17.5271Z" fill="white"/>
<path d="M10.0018 8.3418C9.40949 8.3418 8.98828 8.59195 8.98828 8.96051V13.9756C8.98828 14.2915 9.40949 14.6074 10.0018 14.6074C10.5679 14.6074 11.0285 14.2915 11.0285 13.9756V8.96043C11.0285 8.59191 10.5679 8.3418 10.0018 8.3418Z" fill="white"/>
<path d="M10.0001 5.24414C9.3946 5.24414 8.92078 5.67852 8.92078 6.17871C8.92078 6.67895 9.39464 7.12648 10.0001 7.12648C10.5925 7.12648 11.0664 6.67895 11.0664 6.17871C11.0664 5.67852 10.5924 5.24414 10.0001 5.24414Z" fill="white"/>
</svg>
