<svg width="16" height="16" viewBox="0 0 16 16" fill="none" xmlns="http://www.w3.org/2000/svg">
<path d="M1.75827 11.8876L1.1473 11.4526H1.1473L1.75827 11.8876ZM2.67798 9.10519L1.92798 9.09658V9.10519H2.67798ZM2.69729 7.42294L3.44729 7.43155V7.42294H2.69729ZM14.2495 11.9011L14.8689 11.4782L14.8689 11.4782L14.2495 11.9011ZM13.3644 9.10519L12.6144 9.09613V9.10519H13.3644ZM13.3837 7.5063L14.1337 7.51536V7.5063H13.3837ZM5.89253 14.45C5.47832 14.45 5.14253 14.7858 5.14253 15.2C5.14253 15.6143 5.47832 15.95 5.89253 15.95V14.45ZM10.1103 15.95C10.5245 15.95 10.8603 15.6143 10.8603 15.2C10.8603 14.7858 10.5245 14.45 10.1103 14.45V15.95ZM0.553849 3.22439C0.399729 3.60886 0.586467 4.04548 0.97094 4.1996C1.35541 4.35372 1.79203 4.16698 1.94615 3.78251L0.553849 3.22439ZM3.98181 1.46033C4.34647 1.26388 4.48284 0.809005 4.28638 0.444342C4.08993 0.0796779 3.63506 -0.0566849 3.27039 0.139767L3.98181 1.46033ZM12.7199 0.15086C12.3573 -0.049455 11.901 0.0820674 11.7007 0.444623C11.5004 0.807179 11.6319 1.26348 11.9945 1.46379L12.7199 0.15086ZM14.0509 3.76768C14.2009 4.15377 14.6355 4.34517 15.0216 4.19516C15.4077 4.04516 15.5991 3.61056 15.4491 3.22446L14.0509 3.76768ZM2.36923 12.3226C2.90073 11.576 3.42798 10.4629 3.42798 9.10519H1.92798C1.92798 10.0695 1.5518 10.8844 1.1473 11.4526L2.36923 12.3226ZM3.42793 9.11379L3.44724 7.43155L1.94734 7.41433L1.92803 9.09658L3.42793 9.11379ZM14.8689 11.4782C14.4812 10.9104 14.1144 10.086 14.1144 9.10519H12.6144C12.6144 10.4623 13.1198 11.5766 13.6301 12.324L14.8689 11.4782ZM14.1143 9.11424L14.1336 7.51536L12.6337 7.49725L12.6144 9.09613L14.1143 9.11424ZM14.1337 7.5063C14.1337 3.96706 11.4332 1.0137 8.00141 1.0137V2.5137C10.5147 2.5137 12.6337 4.70244 12.6337 7.5063H14.1337ZM13.9274 13.4307C14.5123 13.4307 14.8527 12.9974 14.9812 12.6753C15.1125 12.3464 15.1407 11.8763 14.8689 11.4782L13.6301 12.324C13.589 12.2638 13.5798 12.2102 13.5783 12.1827C13.5769 12.156 13.5813 12.1364 13.588 12.1195C13.5942 12.1039 13.6127 12.0654 13.6623 12.0238C13.7175 11.9776 13.8103 11.9307 13.9274 11.9307V13.4307ZM3.44729 7.42294C3.44729 4.66512 5.53128 2.5137 8.00141 2.5137V1.0137C4.61277 1.0137 1.94729 3.92974 1.94729 7.42294H3.44729ZM2.07623 11.9307C2.19586 11.9307 2.28971 11.9795 2.34439 12.0261C2.39337 12.0679 2.41065 12.1058 2.41604 12.1197C2.42199 12.1351 2.42609 12.1535 2.42439 12.1796C2.42265 12.2065 2.41283 12.2613 2.36923 12.3226L1.1473 11.4526C0.862996 11.8519 0.889 12.3299 1.01712 12.661C1.14222 12.9843 1.48173 13.4307 2.07623 13.4307V11.9307ZM13.9274 11.9307H2.07623V13.4307H13.9274V11.9307ZM5.89253 15.95H10.1103V14.45H5.89253V15.95ZM1.94615 3.78251C2.34725 2.78191 3.06119 1.95629 3.98181 1.46033L3.27039 0.139767C2.02015 0.813301 1.07676 1.91993 0.553849 3.22439L1.94615 3.78251ZM11.9945 1.46379C12.9421 1.98735 13.6739 2.79726 14.0509 3.76768L15.4491 3.22446C14.9357 1.90303 13.9521 0.831648 12.7199 0.15086L11.9945 1.46379Z" fill="#FF7E21"/>
</svg>
