<svg width="21" height="22" viewBox="0 0 21 22" fill="none" xmlns="http://www.w3.org/2000/svg">
<path d="M15.25 10C15.25 10.414 14.914 10.75 14.5 10.75H6.5C6.086 10.75 5.75 10.414 5.75 10C5.75 9.586 6.086 9.25 6.5 9.25H14.5C14.914 9.25 15.25 9.586 15.25 10ZM11.5 13.25H6.5C6.086 13.25 5.75 13.586 5.75 14C5.75 14.414 6.086 14.75 6.5 14.75H11.5C11.914 14.75 12.25 14.414 12.25 14C12.25 13.586 11.914 13.25 11.5 13.25ZM20.25 5.82599V17.674C20.25 20.302 18.8021 21.75 16.1721 21.75H4.82788C2.19788 21.75 0.75 20.302 0.75 17.674V5.82599C0.75 3.19799 2.19788 1.75 4.82788 1.75H5.30591V1C5.30591 0.586 5.64191 0.25 6.05591 0.25C6.46991 0.25 6.80591 0.586 6.80591 1V1.75H9.75V1C9.75 0.586 10.086 0.25 10.5 0.25C10.914 0.25 11.25 0.586 11.25 1V1.75H14.1941V1C14.1941 0.586 14.5301 0.25 14.9441 0.25C15.3581 0.25 15.6941 0.586 15.6941 1V1.75H16.1721C18.8021 1.75 20.25 3.19799 20.25 5.82599ZM18.75 5.82599C18.75 4.01999 17.9791 3.25 16.1721 3.25H15.6941V4C15.6941 4.414 15.3581 4.75 14.9441 4.75C14.5301 4.75 14.1941 4.414 14.1941 4V3.25H11.25V4C11.25 4.414 10.914 4.75 10.5 4.75C10.086 4.75 9.75 4.414 9.75 4V3.25H6.80591V4C6.80591 4.414 6.46991 4.75 6.05591 4.75C5.64191 4.75 5.30591 4.414 5.30591 4V3.25H4.82788C3.02088 3.25 2.25 4.02099 2.25 5.82599V17.674C2.25 19.48 3.02088 20.25 4.82788 20.25H16.1721C17.9791 20.25 18.75 19.479 18.75 17.674V5.82599Z" fill="black"/>
</svg>
