<svg width="48" height="48" viewBox="0 0 48 48" fill="none" xmlns="http://www.w3.org/2000/svg"><path d="M24 35H15V44H24V35Z" fill="#CECECE"></path><path d="M29 42H10V45H29V42Z" fill="#CECECE"></path><path d="M44 5H4C2.89549 5 2 5.8955 2 7V35C2 36.1045 2.89549 37 4 37H44C45.1045 37 46 36.1045 46 35V7C46 5.8955 45.1045 5 44 5Z" fill="#E6E6E6"></path><path d="M43 8H5V34H43V8Z" fill="#43A6DD"></path><path d="M44 1H20C18.3428 1 17 2.3433 17 4V44C17 45.6567 18.3428 47 20 47H44C45.6572 47 47 45.6567 47 44V4C47 2.3433 45.6572 1 44 1Z" fill="#444444"></path><path d="M32 35C33.1046 35 34 34.1046 34 33C34 31.8954 33.1046 31 32 31C30.8954 31 30 31.8954 30 33C30 34.1046 30.8954 35 32 35Z" fill="#72C472"></path><path d="M32 41C32.5523 41 33 40.5523 33 40C33 39.4477 32.5523 39 32 39C31.4477 39 31 39.4477 31 40C31 40.5523 31.4477 41 32 41Z" fill="white"></path><path d="M44 8H20V11H44V8Z" fill="#606060"></path><path d="M44 14H20V17H44V14Z" fill="#606060"></path></svg>