<svg width="97" height="98" viewBox="0 0 97 98" fill="none" xmlns="http://www.w3.org/2000/svg"><path d="M82.1333 56.5468C82.1333 64.5364 82.1333 76.5208 82.1333 92.5C82.1333 94.7091 80.3424 96.5 78.1333 96.5H6.1333C3.92416 96.5 2.1333 94.7091 2.1333 92.5V28C2.1333 25.7909 3.92416 24 6.1333 24H31.1333C33.3424 24 35.1333 25.7909 35.1333 28C35.1333 30.4853 37.148 32.5 39.6333 32.5H78.1333C80.3424 32.5 82.1333 34.2909 82.1333 36.5C82.1333 37.8781 82.1333 39.0599 82.1333 40.0453" stroke="white" stroke-opacity="0.6" stroke-width="2.5" stroke-linecap="round"></path><path fill-rule="evenodd" clip-rule="evenodd" d="M5.99561 31.6646C5.99561 29.6687 7.61355 28.0508 9.6094 28.0508H28.1956C30.1914 28.0508 31.8094 29.6687 31.8094 31.6646C31.8094 34.1579 33.8306 36.1791 36.3239 36.1791H74.6577C76.6535 36.1791 78.2715 37.7971 78.2715 39.7929V89.386C78.2715 91.3819 76.6535 92.9998 74.6577 92.9998H9.6094C7.61355 92.9998 5.99561 91.3819 5.99561 89.386V31.6646Z" fill="white" fill-opacity="0.1"></path><path fill-rule="evenodd" clip-rule="evenodd" d="M19.2064 44H90.9268C93.1359 44 94.9268 45.7909 94.9268 48C94.9268 48.348 94.8814 48.6944 94.7917 49.0306L82.9251 93.5306C82.4581 95.2817 80.8723 96.5 79.0601 96.5H6.03809C4.38123 96.5 3.03809 95.1569 3.03809 93.5C3.03809 93.239 3.07214 92.9792 3.13938 92.727L5.18468 85.0571L15.3414 46.9694C15.8084 45.2183 17.3942 44 19.2064 44Z" stroke="white" stroke-opacity="0.6" stroke-width="2.5" stroke-linecap="round"></path><path d="M42.1333 7.45508C43.7902 7.45508 45.1333 6.11193 45.1333 4.45508C45.1333 2.79822 43.7902 1.45508 42.1333 1.45508C40.4764 1.45508 39.1333 2.79822 39.1333 4.45508C39.1333 6.11193 40.4764 7.45508 42.1333 7.45508Z" stroke="white" stroke-opacity="0.6" stroke-width="2"></path><path d="M75.6333 20.4551C75.6333 21.8358 74.514 22.9551 73.1333 22.9551C71.7526 22.9551 70.6333 21.8358 70.6333 20.4551C70.6333 19.0744 71.7526 17.9551 73.1333 17.9551C74.514 17.9551 75.6333 19.0744 75.6333 20.4551Z" stroke="white" stroke-opacity="0.6"></path><path d="M49.8906 15.2129L58.2488 23.5711M58.3759 15.2129L50.0177 23.5711L58.3759 15.2129Z" stroke="white" stroke-opacity="0.6" stroke-width="2.5" stroke-linecap="round" stroke-linejoin="round"></path></svg>