a<svg width="18" height="24" viewBox="0 0 18 24" fill="none" xmlns="http://www.w3.org/2000/svg">
<path fill-rule="evenodd" clip-rule="evenodd" d="M12.7328 2.51559C12.4856 2.51559 12.2852 2.71601 12.2852 2.96323V3.85849H9.7113C9.46408 3.85849 9.26367 4.0589 9.26367 4.30612V13.9302C9.26367 14.1774 9.46408 14.3778 9.7113 14.3778H11.6137V13.9302C11.6137 13.4358 12.0146 13.035 12.509 13.035H14.2995C14.794 13.035 15.1948 13.4358 15.1948 13.9302V14.3778H17.5449C17.7921 14.3778 17.9925 14.1774 17.9925 13.9302V4.30612C17.9925 4.0589 17.7921 3.85849 17.5449 3.85849H14.971V2.96323C14.971 2.71601 14.7706 2.51559 14.5234 2.51559H12.7328ZM12.5153 11.9159L10.7624 5.02238H12.1017L13.5592 11.0788H13.697L15.1545 5.02238H16.4938L14.7409 11.9159H12.5153Z" fill="white"/>
<path fill-rule="evenodd" clip-rule="evenodd" d="M3.77934 13.4805C3.53212 13.4805 3.33171 13.6809 3.33171 13.9281V14.8234H0.447632C0.200412 14.8234 0 15.0238 0 15.271V23.5522C0 23.7994 0.200411 23.9999 0.447632 23.9999H17.544C17.7913 23.9999 17.9917 23.7994 17.9917 23.5522V15.271C17.9917 15.0238 17.7913 14.8234 17.544 14.8234H14.7463V13.9281C14.7463 13.6809 14.5459 13.4805 14.2987 13.4805H12.5082C12.2609 13.4805 12.0605 13.6809 12.0605 13.9281V14.8234H6.0175V13.9281C6.0175 13.6809 5.81709 13.4805 5.56987 13.4805H3.77934ZM5.34605 15.9648V22.8583H6.60658V16.92H6.78385L7.9656 22.8583H10.1124L11.2942 16.92H11.4715V22.8583H12.732V15.9648H10.3192L9.12765 21.972H8.95039L7.75879 15.9648H5.34605Z" fill="white"/>
<path d="M3.74493 8.21857H4.96607C5.24837 8.21857 5.47487 8.14964 5.64557 8.01177C5.82283 7.8739 5.91147 7.67694 5.91147 7.42089V7.32241C5.91147 7.06637 5.82612 6.86941 5.65542 6.73154C5.48472 6.59367 5.25494 6.52473 4.96607 6.52473H3.74493V8.21857Z" fill="white"/>
<path d="M3.74493 5.34298H4.94637C5.21555 5.34298 5.43548 5.27405 5.60618 5.13618C5.78344 4.99831 5.87207 4.80791 5.87207 4.565V4.46652C5.87207 4.21704 5.78673 4.02665 5.61603 3.89534C5.44533 3.75747 5.22211 3.68853 4.94637 3.68853H3.74493V5.34298Z" fill="white"/>
<path fill-rule="evenodd" clip-rule="evenodd" d="M3.47995 0C3.23273 0 3.03232 0.200412 3.03232 0.447632V1.3429H0.458436C0.211215 1.3429 0.0108032 1.54331 0.0108032 1.79053V11.4146C0.0108032 11.6618 0.211215 11.8623 0.458435 11.8623H2.73151V11.0376C2.73151 10.7904 2.93193 10.59 3.17915 10.59H5.57129C5.81851 10.59 6.01892 10.7904 6.01892 11.0376V11.8623H8.292C8.53922 11.8623 8.73963 11.6618 8.73963 11.4146V1.79053C8.73963 1.54331 8.53922 1.3429 8.292 1.3429H5.71811V0.447632C5.71811 0.200412 5.5177 0 5.27048 0H3.47995ZM2.72971 1.83534H3.40116V2.50678H4.60712V1.83534H5.27857V2.51216C5.61778 2.53132 5.91738 2.60174 6.17736 2.72344C6.49249 2.86131 6.73541 3.06155 6.90611 3.32416C7.08337 3.58021 7.172 3.88877 7.172 4.24986V4.34834C7.172 4.66348 7.11291 4.9228 6.99474 5.12633C6.87656 5.32329 6.73541 5.47757 6.57128 5.58918C6.41371 5.69422 6.26271 5.76972 6.11827 5.81568V5.99294C6.26271 6.03234 6.42027 6.10784 6.59097 6.21945C6.76167 6.32449 6.9061 6.47877 7.02428 6.6823C7.14902 6.88582 7.21139 7.15171 7.21139 7.47998V7.57846C7.21139 7.95924 7.12276 8.28751 6.9455 8.56325C6.76823 8.83242 6.52204 9.03923 6.2069 9.18367C5.9375 9.30977 5.62805 9.38083 5.27857 9.39683V10.0717H4.60712V9.40032H3.40116V10.0717H2.72971V9.40032H1.53899V8.25796H2.445V3.64914H1.53899V2.50678H2.72971V1.83534Z" fill="white"/>
</svg>
