<svg width="164" height="32" viewBox="0 0 164 32" fill="none" xmlns="http://www.w3.org/2000/svg">
<g clip-path="url(#clip0_31750_11251)">
<path d="M27.691 31.7418L41.3633 8.19385H33.6536L19.9814 31.7418H27.691Z" fill="white"/>
<path d="M8.2975 31.6934L26.7697 0H19.06L0.587891 31.6934H8.2975Z" fill="white"/>
<path d="M23.57 8.67871L19.9336 14.9333L24.2487 21.4302L27.9336 15.4666L23.57 8.67871Z" fill="white"/>
<path d="M33.5885 24.0969L29.9521 30.2545L31.0673 31.9515H38.5516L33.5885 24.0969Z" fill="white"/>
</g>
<path d="M54.6121 23V9H63.3921V11.44H57.0521V14.28H62.0821V16.72H57.0521V20.56H63.3921V23H54.6121ZM76.1887 9V11.44H71.9087V23H69.4687V11.44H65.1887V9H76.1887ZM78.1863 23V9H86.9663V11.44H80.6263V14.28H85.6563V16.72H80.6263V20.56H86.9663V23H78.1863ZM89.2215 23V9H94.5915C95.3515 9 96.0382 9.19 96.6515 9.57C97.2648 9.95 97.7515 10.46 98.1115 11.1C98.4715 11.7333 98.6515 12.4367 98.6515 13.21C98.6515 13.8433 98.5348 14.4267 98.3015 14.96C98.0748 15.4867 97.7548 15.9433 97.3415 16.33C96.9348 16.7167 96.4648 17.01 95.9315 17.21L99.2815 23H96.4715L93.2315 17.43H91.6615V23H89.2215ZM91.6615 14.99H94.3115C94.6582 14.99 94.9748 14.9033 95.2615 14.73C95.5482 14.5567 95.7782 14.3233 95.9515 14.03C96.1248 13.7367 96.2115 13.41 96.2115 13.05C96.2115 12.6833 96.1248 12.3533 95.9515 12.06C95.7782 11.7667 95.5482 11.5333 95.2615 11.36C94.9748 11.1867 94.6582 11.1 94.3115 11.1H91.6615V14.99ZM101.194 23V9H103.834L109.744 18.59V9H112.184V23H109.554L103.634 13.41V23H101.194ZM119.273 9H122.083L127.173 23H124.583L123.683 20.52H117.683L116.783 23H114.193L119.273 9ZM118.573 18.08H122.783L120.673 12.31L118.573 18.08ZM128.85 23V9H131.29V20.56H137.12V23H128.85ZM148.804 9H151.614L156.704 23H154.114L153.214 20.52H147.214L146.314 23H143.724L148.804 9ZM148.104 18.08H152.314L150.204 12.31L148.104 18.08ZM158.682 23V9H161.122V23H158.682Z" fill="white"/>
<defs>
<clipPath id="clip0_31750_11251">
<rect width="40.8242" height="32" fill="white" transform="translate(0.587891)"/>
</clipPath>
</defs>
</svg>
