<svg width="22" height="24" viewBox="0 0 22 24" fill="none" xmlns="http://www.w3.org/2000/svg">
<path d="M17.9053 1.94884C16.3248 0.644499 14.1611 0 11.3989 0H4.52428V0.966748H11.2762C13.624 0.966748 15.7416 1.44245 17.046 2.578C18.3503 3.71354 19.3171 5.37083 19.3171 7.42709C19.3171 9.42197 18.4578 10.8798 17.1227 12C15.7877 13.1202 13.3631 13.6112 10.9539 13.6112H3.20459V14.578H11.0153C13.9156 14.578 16.1867 13.9488 17.8286 12.6905C19.4552 11.4322 20.2838 9.65215 20.2838 7.36571C20.2838 5.03324 19.4859 3.23784 17.9053 1.94884Z" fill="#1C1E1D"/>
<path d="M17.3223 3.33085C16.3402 2.57893 15.22 1.98047 12.0282 1.98047H6.71875V2.91653C6.71875 2.91653 9.09726 2.88584 11.9054 2.91653C14.6215 2.94722 15.619 3.25412 16.5397 3.92931C17.7059 4.78865 18.4425 5.86281 18.4425 7.3513C18.4425 8.79375 17.7059 9.80654 16.5244 10.6812C15.3274 11.5712 13.486 11.5712 12.7341 11.6019C12.4579 11.6019 8.79036 11.6019 8.79036 11.6019V12.538C8.79036 12.538 10.6011 12.5687 11.7366 12.538C14.3146 12.4766 15.8492 12.3232 17.2763 11.2643C18.6113 10.2669 19.3172 8.96255 19.3172 7.30526C19.3172 5.12624 18.2123 4.03673 17.3223 3.33085Z" fill="#1C1E1D"/>
<path d="M16.8467 4.57293C16.1101 4.11257 15.4656 3.80566 12.4119 3.80566H8.59097V4.41947H12.3045C15.0053 4.41947 16.0181 4.89518 16.3403 5.09466C16.9541 5.46295 17.7521 6.07676 17.7521 7.30438C17.7521 8.08698 17.2917 9.08442 16.6012 9.46806C15.972 9.821 14.8211 10.1432 12.8109 10.1432H0.350586V10.7571H12.8416C15.2815 10.7571 16.1101 10.4808 16.9695 10.0051C17.8288 9.52944 18.4119 8.54734 18.4119 7.30438C18.4119 5.89262 17.6293 5.06397 16.8467 4.57293Z" fill="#1C1E1D"/>
<path d="M19.271 11.3707C17.6905 10.0664 15.5268 9.42188 12.7647 9.42188H8.1611V10.3886H12.6266C14.9744 10.3886 17.092 10.8797 18.3964 11.9999C19.7007 13.1201 20.6828 14.7927 20.6828 16.849C20.6828 18.8438 19.8388 20.3016 18.4884 21.4218C17.1381 22.542 14.7289 23.0331 12.3197 23.0331H4.57031V23.9998H12.381C15.2813 23.9998 17.5524 23.3707 19.1943 22.1124C20.8363 20.8541 21.6496 19.074 21.6496 16.7876C21.6342 14.4705 20.8516 12.6751 19.271 11.3707Z" fill="#1C1E1D"/>
<path d="M18.688 12.7518C17.7059 12.0152 16.5857 11.4014 13.3939 11.4014H6.18164V12.3374C6.18164 12.3374 10.463 12.3067 13.2711 12.3374C15.9872 12.3681 16.9847 12.675 17.9054 13.3502C19.0716 14.2095 19.8082 15.2837 19.8082 16.7722C19.8082 18.2146 19.0716 19.2274 17.8901 20.1021C16.6931 20.9921 14.8517 20.9921 14.0998 21.0228C13.8236 21.0228 10.1561 21.0228 10.1561 21.0228V21.9589C10.1561 21.9589 11.9821 21.9896 13.1023 21.9589C15.6803 21.8975 17.2149 21.7441 18.642 20.6852C19.977 19.6878 20.6829 18.3834 20.6829 16.7262C20.6829 14.5625 19.5934 13.4576 18.688 12.7518Z" fill="#1C1E1D"/>
<path d="M7.71631 15.9436H14.4836V15.4219H7.71631V15.9436Z" fill="#1C1E1D"/>
<path d="M10.5088 17.7702H14.4372V17.3252H10.5088V17.7702Z" fill="#1C1E1D"/>
<path d="M4.57031 15.9436H6.56519V15.4219H4.57031V15.9436Z" fill="#1C1E1D"/>
<path d="M3.31201 17.801H9.40407V17.2793H3.31201V17.801Z" fill="#1C1E1D"/>
<path d="M4.81592 4.37303H7.19443V3.94336H4.81592V4.37303Z" fill="#1C1E1D"/>
<path d="M3.17432 7.87288H8.59118V7.38184H3.17432V7.87288Z" fill="#1C1E1D"/>
<path d="M3.31201 21.897H9.03578V21.2832H3.31201V21.897Z" fill="#1C1E1D"/>
<path d="M1.90039 23.9386H3.3275V23.0332H1.90039V23.9386Z" fill="#1C1E1D"/>
<path d="M5.46045 6.33773H14.4528V5.84668H5.46045V6.33773Z" fill="#1C1E1D"/>
<path d="M9.95654 7.87288H14.2839V7.38184H9.95654V7.87288Z" fill="#1C1E1D"/>
<path d="M18.2124 14.0869C17.4759 13.6419 16.8314 13.335 13.7777 13.335H8.92857V13.9334H13.6856C16.3863 13.9334 17.4145 14.3938 17.7214 14.5779C18.3198 14.9309 19.1331 15.514 19.1331 16.7109C19.1331 17.4782 18.6728 18.4296 17.9823 18.7979C17.3531 19.1355 16.2022 19.4424 14.192 19.4424H1.71631V20.0408H14.2073C16.6472 20.0408 17.4759 19.78 18.3352 19.3196C19.1945 18.8592 19.7623 17.9232 19.7623 16.7109C19.7776 15.3759 18.995 14.5779 18.2124 14.0869Z" fill="#1C1E1D"/>
</svg>
