<svg xmlns="http://www.w3.org/2000/svg" width="24" height="24" viewBox="0 0 24 24" fill="none">
  <g clip-path="url(#clip0_35581_2716)">
    <path d="M0 0H23.9999V24H0V0Z" fill="#FF5400"/>
    <circle cx="12" cy="12" r="12" fill="#FF5400"/>
    <path fill-rule="evenodd" clip-rule="evenodd" d="M14.578 5.09619C14.4072 5.09619 14.2688 5.23463 14.2688 5.40539V6.0238H12.4908C12.3201 6.0238 12.1816 6.16224 12.1816 6.33301V12.9809C12.1816 13.1517 12.3201 13.2901 12.4908 13.2901H13.805V12.9809C13.805 12.6393 14.0818 12.3625 14.4234 12.3625H15.6602C16.0017 12.3625 16.2786 12.6393 16.2786 12.9809V13.2901H17.9019C18.0727 13.2901 18.2111 13.1517 18.2111 12.9809V6.33301C18.2111 6.16224 18.0727 6.0238 17.9019 6.0238H16.124V5.40539C16.124 5.23463 15.9856 5.09619 15.8148 5.09619H14.578ZM14.4277 11.5895L13.2169 6.82776H14.142L15.1488 11.0113H15.244L16.2508 6.82776H17.1759L15.9651 11.5895H14.4277Z" fill="white"/>
    <path fill-rule="evenodd" clip-rule="evenodd" d="M8.3937 12.6709C8.22293 12.6709 8.0845 12.8093 8.0845 12.9801V13.5985H6.15198C5.98121 13.5985 5.84277 13.7369 5.84277 13.9077V19.628C5.84277 19.7987 5.98121 19.9372 6.15198 19.9372H17.9017C18.0725 19.9372 18.2109 19.7987 18.2109 19.628V13.9077C18.2109 13.7369 18.0725 13.5985 17.9017 13.5985H15.9692V12.9801C15.9692 12.8093 15.8308 12.6709 15.66 12.6709H14.4232C14.2524 12.6709 14.114 12.8093 14.114 12.9801V13.5985H9.93972V12.9801C9.93972 12.8093 9.80129 12.6709 9.63052 12.6709H8.3937ZM9.47591 14.3869V19.1487H10.3466V15.0468H10.4691L11.2854 19.1487H12.7683L13.5846 15.0468H13.7071V19.1487H14.5778V14.3869H12.9112L12.0881 18.5364H11.9656L11.1425 14.3869H9.47591Z" fill="white"/>
    <path d="M8.36891 9.03589H9.21242C9.40742 9.03589 9.56388 8.98828 9.68179 8.89304C9.80423 8.79781 9.86545 8.66176 9.86545 8.48489V8.41687C9.86545 8.24 9.8065 8.10395 9.68859 8.00872C9.57068 7.91349 9.41196 7.86587 9.21242 7.86587H8.36891V9.03589Z" fill="white"/>
    <path d="M8.36891 7.04957H9.19881C9.38475 7.04957 9.53667 7.00195 9.65458 6.90672C9.77702 6.81148 9.83824 6.67997 9.83824 6.51217V6.44415C9.83824 6.27182 9.77929 6.14031 9.66138 6.04961C9.54347 5.95437 9.38928 5.90675 9.19881 5.90675H8.36891V7.04957Z" fill="white"/>
    <path fill-rule="evenodd" clip-rule="evenodd" d="M8.18588 3.35889C8.01511 3.35889 7.87667 3.49732 7.87667 3.66809V4.2865H6.09875C5.92799 4.2865 5.78955 4.42493 5.78955 4.5957V11.2436C5.78955 11.4143 5.92799 11.5528 6.09875 11.5528H7.66889V10.9831C7.66889 10.8124 7.80733 10.6739 7.97809 10.6739H9.63048C9.80125 10.6739 9.93968 10.8124 9.93968 10.9831V11.5528H11.5098C11.6806 11.5528 11.819 11.4143 11.819 11.2436V4.5957C11.819 4.42493 11.6806 4.2865 11.5098 4.2865H9.7319V3.66809C9.7319 3.49732 9.59346 3.35889 9.42269 3.35889H8.18588ZM7.66765 4.62665H8.13145V5.09046H8.96447V4.62665H9.42828V5.09417C9.66259 5.1074 9.86954 5.15605 10.0491 5.24011C10.2668 5.33535 10.4346 5.47366 10.5525 5.65506C10.6749 5.83193 10.7362 6.04507 10.7362 6.2945V6.36252C10.7362 6.5802 10.6954 6.75933 10.6137 6.89992C10.5321 7.03597 10.4346 7.14254 10.3212 7.21963C10.2124 7.29219 10.1081 7.34434 10.0083 7.37609V7.49853C10.1081 7.52574 10.2169 7.5779 10.3348 7.65499C10.4527 7.72755 10.5525 7.83412 10.6341 7.97471C10.7203 8.11529 10.7634 8.29896 10.7634 8.52571V8.59373C10.7634 8.85676 10.7022 9.08351 10.5797 9.27398C10.4573 9.45992 10.2872 9.60277 10.0695 9.70254C9.88343 9.78964 9.66968 9.83873 9.42828 9.84978V10.316H8.96447V9.85219H8.13145V10.316H7.66765V9.85219H6.84515V9.0631H7.47098V5.87954H6.84515V5.09046H7.66765V4.62665Z" fill="white"/>
  </g>
  <defs>
    <clipPath id="clip0_35581_2716">
      <rect width="24" height="24" rx="2.25" fill="white"/>
    </clipPath>
  </defs>
</svg>