<svg xmlns="http://www.w3.org/2000/svg" width="150" height="89" viewBox="0 0 150 89" fill="none">
<path d="M137.562 62.5907L107.376 10.1815C100.788 -0.732962 84.5633 -0.83129 78.1719 10.6732L46.5101 65.1472C40.6104 75.1768 47.8867 87.6645 59.7844 87.6645H123.403C135.301 87.7628 144.249 74.7835 137.562 62.5907Z" fill="#003087"/>
<path d="M94.0028 66.7205L92.1346 63.4756C90.3647 60.4275 86.5298 53.9378 86.5298 53.9378L60.9644 9.49327C54.3764 -0.339597 38.6438 -1.22457 32.0558 11.2632L2.26221 62.7873C-3.9325 73.6035 3.44217 87.6645 16.8149 87.7628H80.0402H106.982H123.01C106.687 87.8612 101.476 79.3065 94.0028 66.7205Z" fill="#1877F2"/>
<path d="M94.0028 66.5238L92.1346 63.2789C90.3647 60.2308 86.5299 53.7411 86.5299 53.7411L70.0107 24.6358L46.3134 65.1472C40.4137 75.1767 47.69 87.6645 59.5878 87.6645H79.9418H106.884H123.01C106.589 87.5662 101.476 79.2082 94.0028 66.5238Z" fill="url(#paint0_linear_10907_331)"/>
<defs>
<linearGradient id="paint0_linear_10907_331" x1="37.8559" y1="46.7869" x2="111.314" y2="73.9321" gradientUnits="userSpaceOnUse">
<stop stop-color="#003087" stop-opacity="0"/>
<stop offset="1" stop-color="#003087"/>
</linearGradient>
</defs>
</svg>