<svg width="43" height="13" viewBox="0 0 43 13" fill="none" xmlns="http://www.w3.org/2000/svg">
<g clip-path="url(#clip0_214_1248)">
<path d="M12.6621 0.702637H0.408027C0.332445 0.702637 0.25996 0.730731 0.206515 0.780739C0.153071 0.830746 0.123047 0.898572 0.123047 0.969294V12.4355C0.123047 12.5062 0.153071 12.5741 0.206515 12.6242C0.25996 12.6741 0.332445 12.7022 0.408027 12.7022H12.6621C12.7378 12.7022 12.8102 12.6741 12.8637 12.6242C12.9171 12.5741 12.9472 12.5062 12.9472 12.4355V0.969294C12.9472 0.898572 12.9171 0.830746 12.8637 0.780739C12.8102 0.730731 12.7378 0.702637 12.6621 0.702637ZM8.67243 8.4357C8.67243 8.50642 8.6424 8.57424 8.58896 8.62425C8.53552 8.67425 8.46303 8.70235 8.38745 8.70235H4.68271C4.60713 8.70235 4.53465 8.67425 4.48121 8.62425C4.42776 8.57424 4.39774 8.50642 4.39774 8.4357V4.96915C4.39774 4.89843 4.42776 4.8306 4.48121 4.7806C4.53465 4.73059 4.60713 4.70249 4.68271 4.70249H8.38745C8.46303 4.70249 8.53552 4.73059 8.58896 4.7806C8.6424 4.8306 8.67243 4.89843 8.67243 4.96915V8.4357Z" fill="black"/>
<path d="M38.3159 4.70312H34.6111C34.4538 4.70312 34.3262 4.82251 34.3262 4.96978V8.43632C34.3262 8.58359 34.4538 8.70298 34.6111 8.70298H38.3159C38.4733 8.70298 38.6009 8.58359 38.6009 8.43632V4.96978C38.6009 4.82251 38.4733 4.70312 38.3159 4.70312Z" fill="black"/>
<path d="M34.0424 0.702637H30.3377C30.1803 0.702637 30.0527 0.822024 30.0527 0.969294V4.43584C30.0527 4.58311 30.1803 4.7025 30.3377 4.7025H34.0424C34.1998 4.7025 34.3275 4.58311 34.3275 4.43584V0.969294C34.3275 0.822024 34.1998 0.702637 34.0424 0.702637Z" fill="black"/>
<path d="M42.5933 0.702637H38.8885C38.7312 0.702637 38.6035 0.822024 38.6035 0.969294V4.43584C38.6035 4.58311 38.7312 4.7025 38.8885 4.7025H42.5933C42.7507 4.7025 42.8782 4.58311 42.8782 4.43584V0.969294C42.8782 0.822024 42.7507 0.702637 42.5933 0.702637Z" fill="black"/>
<path d="M34.0424 8.70264H30.3377C30.1803 8.70264 30.0527 8.82202 30.0527 8.96929V12.4359C30.0527 12.5831 30.1803 12.7025 30.3377 12.7025H34.0424C34.1998 12.7025 34.3275 12.5831 34.3275 12.4359V8.96929C34.3275 8.82202 34.1998 8.70264 34.0424 8.70264Z" fill="black"/>
<path d="M42.5933 8.70264H38.8885C38.7312 8.70264 38.6035 8.82202 38.6035 8.96929V12.4359C38.6035 12.5831 38.7312 12.7025 38.8885 12.7025H42.5933C42.7507 12.7025 42.8782 12.5831 42.8782 12.4359V8.96929C42.8782 8.82202 42.7507 8.70264 42.5933 8.70264Z" fill="black"/>
<path d="M27.6245 0.702637H23.9198C23.7624 0.702637 23.6348 0.822024 23.6348 0.969294V4.43584C23.6348 4.58311 23.7624 4.7025 23.9198 4.7025H27.6245C27.7819 4.7025 27.9095 4.58311 27.9095 4.43584V0.969294C27.9095 0.822024 27.7819 0.702637 27.6245 0.702637Z" fill="black"/>
<path d="M27.6245 8.70264H23.9198C23.7624 8.70264 23.6348 8.82202 23.6348 8.96929V12.4359C23.6348 12.5831 23.7624 12.7025 23.9198 12.7025H27.6245C27.7819 12.7025 27.9095 12.5831 27.9095 12.4359V8.96929C27.9095 8.82202 27.7819 8.70264 27.6245 8.70264Z" fill="black"/>
<path d="M23.6334 4.96615C23.6334 4.89543 23.6034 4.8276 23.55 4.7776C23.4965 4.72759 23.424 4.69949 23.3485 4.69949H19.3587V0.969294C19.3587 0.898572 19.3286 0.830746 19.2752 0.780739C19.2218 0.730731 19.1493 0.702637 19.0737 0.702637H15.3691C15.2934 0.702637 15.221 0.730731 15.1675 0.780739C15.1141 0.830746 15.084 0.898572 15.084 0.969294V12.4295C15.084 12.5003 15.1141 12.5681 15.1675 12.6181C15.221 12.6681 15.2934 12.6962 15.3691 12.6962H19.0737C19.1493 12.6962 19.2218 12.6681 19.2752 12.6181C19.3286 12.5681 19.3587 12.5003 19.3587 12.4295V8.69935H23.3485C23.424 8.69935 23.4965 8.67126 23.55 8.62125C23.6034 8.57124 23.6334 8.50341 23.6334 8.43269V4.96615Z" fill="black"/>
</g>
<defs>
<clipPath id="clip0_214_1248">
<rect width="42.7545" height="12" fill="white" transform="translate(0.123047 0.702637)"/>
</clipPath>
</defs>
</svg>
