<svg width="22" height="24" viewBox="0 0 22 24" fill="none" xmlns="http://www.w3.org/2000/svg">
<path d="M21.389 6.02128V12.0142L16.1979 9.01776L11.0068 6.00721L16.212 3.0248L21.4031 0.0283203L21.389 6.02128Z" fill="#072B38"/>
<path d="M10.993 11.9998V17.9928L5.80192 14.9963L0.61084 11.9857L5.80192 9.00331L10.993 6.00684V11.9998Z" fill="#144556"/>
<path d="M0.61084 5.99296V0L5.80192 2.99648L10.993 5.99296L5.80192 9.00351L0.61084 11.9859V5.99296Z" fill="#41D9BF"/>
<path d="M0.59668 17.9793L0.610749 11.9863L5.80183 14.9969L10.9929 17.9934L5.80183 20.9898L0.59668 23.9722V17.9793Z" fill="#072B38"/>
<path d="M16.1979 9.01738L11.0068 6.00684V11.9998V17.9928L16.1839 21.0033L21.3749 23.9998V18.0068L21.389 12.0139L16.1979 9.01738Z" fill="#41D9BF"/>
</svg>
