<svg width="20" height="24" viewBox="0 0 20 24" fill="none" xmlns="http://www.w3.org/2000/svg">
<mask id="mask0_32714_10695" style="mask-type:luminance" maskUnits="userSpaceOnUse" x="0" y="0" width="20" height="24">
<path d="M19.5625 0H0.4375V24H19.5625V0Z" fill="white"/>
</mask>
<g mask="url(#mask0_32714_10695)">
<path d="M13.9274 2.16012L18.9346 7.03812C19.3608 7.45246 19.5706 7.87171 19.564 8.29419C19.5574 8.71666 19.374 9.10175 19.0155 9.4511C18.6405 9.81672 18.2358 10.002 17.803 10.0101C17.3701 10.0166 16.9406 9.81185 16.5144 9.39751L11.3933 4.409C10.8118 3.84192 10.2501 3.44055 9.70991 3.20494C9.16969 2.96933 8.60141 2.93196 8.0067 3.09445C7.41034 3.25531 6.77104 3.66967 6.08546 4.33587C5.14054 5.25721 4.68952 6.12166 4.7358 6.92926C4.78204 7.73682 5.2512 8.57528 6.14164 9.44139L11.3041 14.4721C11.7352 14.8913 11.9467 15.3105 11.9401 15.7265C11.9335 16.1441 11.7484 16.5293 11.3833 16.8851C11.0199 17.2393 10.6185 17.4246 10.1824 17.4392C9.74625 17.4538 9.31177 17.2507 8.88225 16.8315L3.8751 11.9535C3.06067 11.1605 2.47256 10.4098 2.11078 9.70134C1.749 8.99289 1.61354 8.19181 1.7077 7.29811C1.79195 6.53277 2.0414 5.79181 2.4577 5.07361C2.87234 4.35537 3.46706 3.62092 4.23855 2.86858C5.15704 1.97326 6.03424 1.28754 6.87015 0.809815C7.70441 0.332091 8.5122 0.0672298 9.29194 0.0119828C10.0733 -0.0432643 10.8432 0.109478 11.6047 0.470208C12.3663 0.830939 13.1394 1.39316 13.9258 2.16012H13.9274Z" fill="url(#paint0_linear_32714_10695)"/>
<path d="M6.07206 21.8427L1.06657 16.9647C0.640357 16.5487 0.430555 16.1311 0.437163 15.7086C0.443771 15.2861 0.627141 14.901 0.98562 14.5516C1.36062 14.1861 1.76536 14.0008 2.19818 13.9927C2.631 13.9862 3.06051 14.1893 3.48672 14.6053L8.6062 19.5938C9.18936 20.1609 9.74939 20.5622 10.2896 20.7978C10.8298 21.0334 11.3981 21.0692 11.9944 20.9083C12.5908 20.7475 13.2301 20.3331 13.9157 19.6653C14.8606 18.7439 15.3116 17.8795 15.2654 17.0719C15.2191 16.2643 14.7499 15.4258 13.8595 14.5582L11.109 11.9014C10.6778 11.4822 10.4663 11.0629 10.4729 10.647C10.4795 10.2294 10.6646 9.84427 11.0297 9.48843C11.3931 9.13417 11.7946 8.94896 12.2306 8.93433C12.6668 8.91971 13.1012 9.12281 13.5308 9.54206L16.1244 12.046C16.9388 12.839 17.5269 13.5897 17.8887 14.2982C18.2505 15.0066 18.3859 15.8077 18.2918 16.7014C18.2075 17.4667 17.9581 18.2077 17.5418 18.9259C17.1271 19.6441 16.5324 20.3786 15.7609 21.1309C14.8424 22.0263 13.9652 22.712 13.1293 23.1897C12.2934 23.6674 11.4856 23.9339 10.7042 23.9892C9.92286 24.0444 9.15302 23.8917 8.39147 23.5309C7.62989 23.1702 6.85675 22.608 6.07041 21.841L6.07206 21.8427Z" fill="url(#paint1_linear_32714_10695)"/>
<path d="M9.19413 9.25573C10.2096 9.25573 11.0328 8.44603 11.0328 7.44718C11.0328 6.44837 10.2096 5.63867 9.19413 5.63867C8.17867 5.63867 7.35547 6.44837 7.35547 7.44718C7.35547 8.44603 8.17867 9.25573 9.19413 9.25573Z" fill="url(#paint2_radial_32714_10695)"/>
</g>
<defs>
<linearGradient id="paint0_linear_32714_10695" x1="18.111" y1="5.00206" x2="2.67915" y2="11.9743" gradientUnits="userSpaceOnUse">
<stop stop-color="#201C1B"/>
<stop offset="0.36" stop-color="#77390D"/>
<stop offset="0.67" stop-color="#EA8101"/>
<stop offset="1" stop-color="#F4B852"/>
</linearGradient>
<linearGradient id="paint1_linear_32714_10695" x1="2.31732" y1="19.2017" x2="20.2502" y2="13.7756" gradientUnits="userSpaceOnUse">
<stop stop-color="#1F1D1C"/>
<stop offset="0.37" stop-color="#77390D"/>
<stop offset="0.67" stop-color="#EA8101"/>
<stop offset="1" stop-color="#F4FB52"/>
</linearGradient>
<radialGradient id="paint2_radial_32714_10695" cx="0" cy="0" r="1" gradientUnits="userSpaceOnUse" gradientTransform="translate(9.19413 7.44883) scale(1.83866 1.80853)">
<stop stop-color="#F4B852"/>
<stop offset="0.33" stop-color="#EA8101"/>
<stop offset="0.64" stop-color="#77390D"/>
<stop offset="1" stop-color="#211C1D"/>
</radialGradient>
</defs>
</svg>
