<svg width="21" height="24" viewBox="0 0 21 24" fill="none" xmlns="http://www.w3.org/2000/svg">
<g clip-path="url(#clip0_32714_10685)">
<path d="M8.25256 5.46112C7.9925 5.42397 7.98012 5.41158 8.10396 5.3992C8.33925 5.36205 8.88414 5.41158 9.26804 5.49827C10.1597 5.7088 10.9646 6.25369 11.8191 7.20725L12.042 7.46731L12.364 7.41778C13.7386 7.19486 15.1504 7.36824 16.3269 7.91313C16.6488 8.06174 17.1566 8.35895 17.2185 8.43325C17.2433 8.45802 17.2804 8.61901 17.3052 8.78C17.3919 9.36205 17.3547 9.79548 17.169 10.1298C17.0699 10.3156 17.0699 10.3651 17.1318 10.5261C17.1814 10.65 17.33 10.7367 17.4662 10.7367C17.7634 10.7367 18.073 10.2661 18.2216 9.60973L18.2835 9.34966L18.395 9.4735C19.0266 10.1794 19.5219 11.1577 19.5962 11.8512L19.621 12.037L19.5095 11.876C19.3238 11.5911 19.1504 11.4054 18.9151 11.2444C18.494 10.9596 18.0482 10.8729 16.8718 10.811C15.8067 10.749 15.1999 10.6624 14.6055 10.4642C13.59 10.1298 13.0699 9.69641 11.8687 8.09889C11.3362 7.39301 11.0018 7.00911 10.6674 6.68712C9.93677 5.98124 9.20612 5.60973 8.25256 5.46112Z" fill="#FF007A"/>
<path d="M17.4787 7.03433C17.5035 6.56374 17.5654 6.25415 17.7016 5.96932C17.7511 5.85786 17.8007 5.75879 17.8131 5.75879C17.8254 5.75879 17.8007 5.84548 17.7635 5.94455C17.6645 6.21699 17.6521 6.60089 17.714 7.03433C17.8007 7.59161 17.8378 7.66591 18.4323 8.27272C18.7047 8.55755 19.0267 8.91668 19.1505 9.06529L19.3611 9.33774L19.1505 9.13959C18.8905 8.89192 18.296 8.42133 18.1598 8.35941C18.0731 8.30987 18.0607 8.30987 17.9988 8.37179C17.9493 8.42133 17.9369 8.49563 17.9369 8.85476C17.9245 9.41204 17.8502 9.75879 17.6645 10.1179C17.5654 10.3037 17.553 10.2665 17.6397 10.056C17.7016 9.89501 17.714 9.82071 17.714 9.2882C17.714 8.2108 17.5902 7.95074 16.8347 7.5173C16.649 7.40585 16.327 7.24486 16.1412 7.15817C15.9431 7.07148 15.7945 6.99718 15.8069 6.99718C15.8316 6.97241 16.5623 7.18294 16.8471 7.30678C17.2806 7.48015 17.3549 7.49254 17.4044 7.48015C17.4415 7.443 17.4663 7.34393 17.4787 7.03433Z" fill="#FF007A"/>
<path d="M8.76022 8.87963C8.24009 8.16137 7.90573 7.04681 7.98003 6.21709L8.0048 5.95703L8.12864 5.9818C8.35155 6.01895 8.73545 6.16756 8.92121 6.27901C9.41657 6.57623 9.63948 6.98489 9.85 8.00037C9.91192 8.29759 9.99861 8.64434 10.0358 8.75579C10.0977 8.94155 10.333 9.37499 10.5311 9.64743C10.6673 9.84558 10.5807 9.94465 10.2711 9.91988C9.80047 9.87034 9.16889 9.43691 8.76022 8.87963Z" fill="#FF007A"/>
<path d="M16.8467 14.2659C14.3947 13.2752 13.5278 12.4207 13.5278 10.9718C13.5278 10.7613 13.5402 10.5879 13.5402 10.5879C13.5526 10.5879 13.6393 10.6622 13.7507 10.7489C14.2461 11.1452 14.8034 11.3185 16.3514 11.5415C17.2554 11.6777 17.7755 11.7767 18.2461 11.9377C19.7446 12.4331 20.6733 13.4486 20.8963 14.8232C20.9582 15.2195 20.921 15.9749 20.8219 16.3712C20.7353 16.6808 20.4876 17.2504 20.4257 17.2628C20.4133 17.2628 20.3885 17.2009 20.3885 17.1018C20.3637 16.5817 20.1037 16.0863 19.6702 15.7024C19.1501 15.2566 18.4814 14.9223 16.8467 14.2659Z" fill="#FF007A"/>
<path d="M15.1129 14.6746C15.0882 14.4889 15.0262 14.2536 14.9891 14.1545L14.9272 13.9688L15.0386 14.105C15.1996 14.2907 15.3235 14.5136 15.4349 14.8232C15.5216 15.0585 15.5216 15.1328 15.5216 15.5167C15.5216 15.8883 15.5092 15.9749 15.4349 16.1855C15.3111 16.5198 15.1625 16.7551 14.9148 17.0152C14.469 17.4734 13.8869 17.7211 13.0572 17.8325C12.9086 17.8449 12.4875 17.8821 12.116 17.9068C11.1872 17.9564 10.568 18.0554 10.0108 18.2536C9.93646 18.2783 9.86216 18.3031 9.84977 18.2907C9.825 18.266 10.2089 18.0431 10.5185 17.8944C10.9519 17.6839 11.3978 17.5725 12.3761 17.3991C12.8591 17.3248 13.3544 17.2257 13.4783 17.1762C14.7043 16.7923 15.3111 15.8387 15.1129 14.6746Z" fill="#FF007A"/>
<path d="M16.2402 16.6691C15.9182 15.9632 15.8439 15.2945 16.0173 14.6629C16.0421 14.601 16.0668 14.5391 16.0916 14.5391C16.1164 14.5391 16.1907 14.5762 16.265 14.6257C16.4136 14.7248 16.7232 14.8982 17.5157 15.3316C18.5188 15.8765 19.0885 16.2976 19.4848 16.7805C19.8315 17.2016 20.0421 17.6846 20.1411 18.279C20.2031 18.6134 20.1659 19.4183 20.0792 19.7527C19.8068 20.8053 19.1876 21.6474 18.2835 22.1304C18.1473 22.2047 18.0359 22.2542 18.0235 22.2542C18.0111 22.2542 18.0606 22.1304 18.1349 21.9818C18.4322 21.3502 18.4693 20.7434 18.2464 20.0623C18.1102 19.6412 17.8253 19.1335 17.2557 18.279C16.5746 17.2883 16.4136 17.0282 16.2402 16.6691Z" fill="#FF007A"/>
<path d="M7.01397 20.4582C7.93038 19.6904 9.05731 19.1455 10.0976 18.9722C10.5434 18.8979 11.2864 18.9226 11.6951 19.0341C12.3514 19.2075 12.9459 19.579 13.2555 20.0372C13.5527 20.483 13.6889 20.8669 13.8251 21.7214C13.8746 22.0558 13.9366 22.4025 13.949 22.4768C14.048 22.9226 14.2462 23.2694 14.4938 23.4551C14.8777 23.74 15.5465 23.7523 16.2028 23.5047C16.3143 23.4675 16.4133 23.4304 16.4133 23.4427C16.4381 23.4675 16.1038 23.6904 15.8808 23.8019C15.5712 23.9629 15.3236 24.0124 14.9892 24.0124C14.3948 24.0124 13.887 23.7028 13.4784 23.0836C13.3917 22.9598 13.2183 22.6006 13.0697 22.2663C12.6363 21.2632 12.4133 20.966 11.9056 20.6316C11.4598 20.3468 10.8901 20.2849 10.4567 20.4954C9.88703 20.7678 9.73843 21.4985 10.1347 21.9443C10.2957 22.1301 10.5929 22.2787 10.8406 22.3158C11.2988 22.3777 11.6951 22.0186 11.6951 21.5604C11.6951 21.2632 11.5836 21.0898 11.2864 20.9536C10.8901 20.7802 10.4567 20.9784 10.4691 21.3623C10.4691 21.5232 10.5434 21.6223 10.7044 21.6966C10.8034 21.7462 10.8034 21.7462 10.7291 21.7338C10.37 21.6595 10.2833 21.2136 10.5681 20.9288C10.9149 20.5821 11.6455 20.7307 11.8932 21.2136C11.9923 21.4118 12.0047 21.8081 11.918 22.0558C11.7075 22.6006 11.113 22.8855 10.5062 22.7245C10.0976 22.613 9.92418 22.5016 9.42883 21.9938C8.56196 21.1022 8.22759 20.9288 6.9892 20.7431L6.75391 20.7059L7.01397 20.4582Z" fill="#FF007A"/>
<path fill-rule="evenodd" clip-rule="evenodd" d="M0.500217 0.532508C3.38567 4.03715 7.83149 9.48607 8.0544 9.78328C8.24016 10.031 8.16585 10.2663 7.85625 10.4396C7.68288 10.5387 7.32375 10.6378 7.15037 10.6378C6.95223 10.6378 6.71693 10.5387 6.55594 10.3777C6.44449 10.2663 5.96152 9.56037 4.87173 7.86378C4.04201 6.56347 3.33613 5.48607 3.32375 5.47368C3.27421 5.44892 3.27421 5.44892 4.78505 8.14861C5.73861 9.8452 6.0482 10.452 6.0482 10.5263C6.0482 10.6873 5.99867 10.774 5.80053 10.9969C5.46616 11.3684 5.31755 11.7895 5.2061 12.6687C5.08226 13.6471 4.74789 14.3406 3.79433 15.517C3.23706 16.2105 3.15037 16.3344 3.01415 16.6192C2.84077 16.9659 2.79124 17.1641 2.76647 17.6099C2.7417 18.0805 2.79124 18.3777 2.92746 18.8235C3.0513 19.2198 3.18752 19.4799 3.52189 19.9876C3.80672 20.4334 3.98009 20.7678 3.98009 20.8916C3.98009 20.9907 4.00486 20.9907 4.45068 20.8916C5.5157 20.644 6.39495 20.2229 6.87793 19.7028C7.17514 19.3808 7.24944 19.2074 7.24944 18.7616C7.24944 18.4768 7.23706 18.4149 7.16276 18.2415C7.03892 17.969 6.80362 17.7461 6.29588 17.3994C5.62715 16.9412 5.34232 16.5697 5.26802 16.0743C5.2061 15.6533 5.2804 15.3684 5.65192 14.5882C6.03582 13.7833 6.13489 13.4489 6.19681 12.6316C6.23396 12.1115 6.29588 11.9009 6.44449 11.7399C6.60548 11.5666 6.7417 11.5046 7.1256 11.4551C7.75718 11.3684 8.16585 11.2074 8.48783 10.8978C8.77266 10.6378 8.8965 10.3777 8.90889 9.99381L8.92127 9.70898L8.76028 9.5356C8.17824 8.86687 0.116316 0 0.0791641 0C0.0667802 0 0.264923 0.235294 0.500217 0.532508ZM4.30207 18.1424C4.4383 17.9071 4.36399 17.6099 4.14108 17.4613C3.93056 17.3251 3.60858 17.387 3.60858 17.5728C3.60858 17.6223 3.63334 17.6718 3.70765 17.6966C3.8191 17.7585 3.83149 17.8204 3.7448 17.9567C3.65811 18.0929 3.65811 18.2167 3.76957 18.3034C3.94294 18.4396 4.17824 18.3653 4.30207 18.1424Z" fill="#FF007A"/>
<path fill-rule="evenodd" clip-rule="evenodd" d="M9.31751 11.6289C9.0203 11.7156 8.73547 12.0376 8.64878 12.3596C8.59925 12.5577 8.62401 12.9168 8.7107 13.0283C8.84692 13.2017 8.97076 13.2512 9.31751 13.2512C9.99863 13.2512 10.5807 12.954 10.6426 12.5948C10.7045 12.2976 10.4444 11.889 10.0853 11.7032C9.89956 11.6041 9.51566 11.567 9.31751 11.6289ZM10.1101 12.2481C10.2092 12.0995 10.172 11.9385 9.98624 11.827C9.65188 11.6165 9.14414 11.7899 9.14414 12.1119C9.14414 12.2729 9.4042 12.4462 9.65188 12.4462C9.81287 12.4462 10.0358 12.3472 10.1101 12.2481Z" fill="#FF007A"/>
</g>
<defs>
<clipPath id="clip0_32714_10685">
<rect width="20.8421" height="24" fill="white" transform="translate(0.0791016)"/>
</clipPath>
</defs>
</svg>
