<svg width="73" height="72" viewBox="0 0 73 72" fill="none" xmlns="http://www.w3.org/2000/svg">
<g opacity="0.7">
<path d="M65.9143 36.0004C65.9143 52.2456 52.745 65.4148 36.4999 65.4148C20.2548 65.4148 7.08547 52.2456 7.08547 36.0004C7.08547 19.7553 20.2548 6.58596 36.4999 6.58596C52.745 6.58596 65.9143 19.7553 65.9143 36.0004Z" stroke="#6C6F93" stroke-width="3.92192"/>
<path d="M43.2219 49.011C43.0471 48.6615 42.8985 48.2593 42.7763 47.8049C42.6538 47.3502 42.5489 46.8695 42.4615 46.3625C42.0594 46.7995 41.5961 47.2105 41.0717 47.595C40.5471 47.9797 39.9616 48.3207 39.3147 48.6178C38.6854 48.8974 37.986 49.1161 37.2168 49.2732C36.4477 49.448 35.6174 49.5357 34.7257 49.5357C33.2748 49.5357 31.9373 49.3258 30.7137 48.9062C29.5073 48.4867 28.4671 47.9011 27.5931 47.1494C26.7188 46.3977 26.0371 45.506 25.5475 44.4746C25.058 43.4256 24.8135 42.2894 24.8135 41.0655C24.8135 38.076 25.9234 35.7685 28.1437 34.1426C30.3815 32.4994 33.7118 31.6777 38.1348 31.6777H42.1993V29.9994C42.1993 28.6357 41.7535 27.5606 40.8618 26.774C39.9704 25.9697 38.6854 25.5676 37.0072 25.5676C35.5211 25.5676 34.4372 25.8912 33.7555 26.5378C33.0737 27.1673 32.7327 28.0153 32.7327 29.0815H25.4427C25.4427 27.8753 25.7049 26.7303 26.2293 25.6464C26.7714 24.5625 27.5494 23.6097 28.5633 22.788C29.5947 21.9663 30.8448 21.3196 32.3131 20.8475C33.7992 20.358 35.4949 20.1133 37.4005 20.1133C39.1136 20.1133 40.7045 20.3231 42.1731 20.7426C43.6591 21.1622 44.9438 21.7829 46.0277 22.6044C47.1116 23.4261 47.9596 24.4663 48.5714 25.725C49.1835 26.9662 49.4893 28.4086 49.4893 30.0517V42.2194C49.4893 43.7403 49.5853 44.999 49.7778 45.9955C49.97 46.992 50.2497 47.8486 50.6169 48.5652V49.011H43.2219ZM36.2729 43.8977C37.0072 43.8977 37.6889 43.8103 38.3182 43.6355C38.9476 43.4604 39.5157 43.2334 40.0227 42.9535C40.5297 42.6738 40.9667 42.3591 41.3339 42.0095C41.701 41.6425 41.9894 41.2752 42.1993 40.9082V36.0307H38.4755C37.3393 36.0307 36.3691 36.1444 35.5648 36.3715C34.7606 36.5814 34.1051 36.8873 33.5981 37.2894C33.0911 37.6739 32.7153 38.146 32.4705 38.7055C32.2257 39.2473 32.1035 39.8417 32.1035 40.4886C32.1035 41.4677 32.4442 42.2805 33.126 42.9275C33.8254 43.5741 34.8742 43.8977 36.2729 43.8977Z" fill="#6C6F93"/>
</g>
</svg>
