<svg width="73" height="72" viewBox="0 0 73 72" fill="none" xmlns="http://www.w3.org/2000/svg">
<path opacity="0.7" fill-rule="evenodd" clip-rule="evenodd" d="M58.5118 30.26C59.4324 24.1045 54.7461 20.7957 48.3378 18.5884L50.4167 10.2503L45.341 8.98554L43.3173 17.1041C41.9829 16.7713 40.6126 16.4578 39.2506 16.1469L41.2891 7.9747L36.2165 6.70996L34.1365 15.0454C33.0323 14.794 31.9478 14.5455 30.8955 14.2837L30.9014 14.2575L23.902 12.5096L22.5518 17.9307C22.5518 17.9307 26.3175 18.7939 26.2381 18.8471C28.2935 19.3601 28.6652 20.7207 28.6035 21.7991L26.2354 31.2982C26.3769 31.3342 26.5605 31.3862 26.7631 31.4675L26.6156 31.4307L26.6151 31.4306C26.49 31.3993 26.36 31.3668 26.2266 31.3348L22.9074 44.6417C22.6562 45.2662 22.0186 46.2033 20.5816 45.8474C20.6325 45.9211 16.8925 44.9268 16.8925 44.9268L14.3726 50.7368L20.9777 52.3834C21.701 52.5648 22.4158 52.7511 23.1233 52.9356C23.6178 53.0645 24.1087 53.1925 24.5965 53.3172L22.4961 61.751L27.5659 63.0157L29.646 54.6714C31.031 55.0474 32.3751 55.3942 33.6909 55.7212L31.6179 64.0261L36.6938 65.2908L38.7939 56.8729C47.4491 58.5109 53.957 57.8505 56.6963 50.0219C58.9036 43.719 56.5864 40.0835 52.033 37.7128C55.3495 36.9479 57.8475 34.7666 58.5136 30.2607L58.512 30.2596L58.5118 30.26ZM46.9168 46.5216C45.4777 52.3043 36.4262 49.9136 32.2848 48.8198L32.2847 48.8197C31.9122 48.7213 31.5794 48.6334 31.2955 48.5629L34.0827 37.3896C34.4287 37.476 34.8516 37.5709 35.3307 37.6785L35.3308 37.6785C39.6145 38.6398 48.3913 40.6095 46.917 46.5216H46.9168ZM36.1882 32.495C39.6409 33.4164 47.173 35.4266 48.4847 30.1708H48.4852C49.8247 24.7955 42.5048 23.1749 38.9297 22.3834C38.5275 22.2943 38.1727 22.2158 37.883 22.1436L35.356 32.2771C35.5946 32.3365 35.8746 32.4113 36.1882 32.495Z" fill="#6C6F93"/>
</svg>
