<svg width="73" height="72" viewBox="0 0 73 72" fill="none" xmlns="http://www.w3.org/2000/svg">
<g opacity="0.7">
<path fill-rule="evenodd" clip-rule="evenodd" d="M36.5 66.9709C19.4662 66.9709 5.52942 53.0341 5.52942 35.8454C5.68427 18.8115 19.4662 4.87475 36.6549 5.0296C53.6888 5.18445 67.4707 18.9664 67.4707 36.31C67.3158 53.189 53.5339 66.9709 36.5 66.9709Z" fill="#6C6F93"/>
<path fill-rule="evenodd" clip-rule="evenodd" d="M39.442 32.2825L38.5129 37.2378L47.3395 38.4766L46.7201 40.7994L38.0483 39.5606C37.4289 41.5737 37.1192 43.7416 36.345 45.5999C35.5707 47.7678 34.7964 49.9357 33.8673 51.9488C32.6285 54.5813 30.4605 56.4396 27.5183 56.9041C25.8149 57.2139 23.9567 57.059 22.563 55.975C22.0985 55.6653 21.6339 55.0459 21.6339 54.5813C21.6339 53.9619 21.9436 53.1877 22.4082 52.878C22.7179 52.7231 23.4921 52.878 23.9567 53.0328C24.4213 53.4974 24.8858 54.1168 25.1955 54.7362C26.1247 55.975 27.3635 56.1299 28.6023 55.2008C29.996 53.9619 30.7702 52.2585 31.2348 50.5552C32.1639 46.8387 33.093 43.2771 33.8673 39.5606V38.9412L25.6601 37.7023L25.9698 35.3795L34.4867 36.6184L35.5707 31.8179L26.7441 30.4242L27.0538 27.9466L36.1901 29.1854C36.4998 28.2563 36.6547 27.482 36.9644 26.7078C37.7386 23.9204 38.5129 21.1331 40.3711 18.6554C42.2294 16.1777 44.3973 14.6292 47.6492 14.7841C49.0429 14.7841 50.4366 15.2486 51.3657 16.3326C51.5206 16.4875 51.8303 16.7972 51.8303 17.1069C51.8303 17.7263 51.8303 18.5005 51.3657 18.9651C50.7463 19.4297 49.972 19.2748 49.3526 18.6554C48.8881 18.1908 48.5784 17.7263 48.1138 17.2617C47.1847 16.0229 45.791 15.868 44.707 16.952C43.9328 17.7263 43.1585 18.8103 42.6939 19.8942C41.61 23.1461 40.8357 26.5529 39.7517 29.9597L48.2687 31.1985L47.6492 33.5213L39.442 32.2825Z" fill="white"/>
</g>
</svg>
