<svg width="73" height="72" viewBox="0 0 73 72" fill="none" xmlns="http://www.w3.org/2000/svg">
<path opacity="0.7" d="M63.0801 12.1562C60.5782 12.1562 58.2551 13.0719 56.9445 14.5773L42.8234 29.3766C42.3633 29.8644 42.55 30.5219 43.2411 30.8467C43.8011 31.1102 44.542 31.0776 45.0522 30.7678L58.9519 22.2575C59.1829 22.1108 59.5388 22.1257 59.7467 22.2887C59.8411 22.3635 59.8911 22.4599 59.8911 22.5591V49.2042C59.8911 49.4242 59.639 49.6008 59.3271 49.6008C59.1596 49.6008 59.002 49.5492 58.896 49.4582L16.8793 13.9551C15.5109 12.8152 13.5016 12.1576 11.3864 12.1562H9.9179C5.94351 12.1562 2.72168 14.4306 2.72168 17.2361V54.7635C2.72168 57.5691 5.94351 59.8434 9.9179 59.8434C12.4199 59.8434 14.743 58.9277 16.0536 57.4224L30.1748 42.6231C30.6347 42.1352 30.448 41.4778 29.7569 41.153C29.1969 40.8895 28.456 40.9221 27.9461 41.2318L14.0462 49.7422C13.8153 49.8889 13.4592 49.8738 13.2514 49.7108C13.1571 49.6361 13.107 49.5397 13.1089 49.4405V22.7887C13.1089 22.5686 13.3611 22.392 13.6728 22.392C13.8384 22.392 13.9981 22.4436 14.104 22.5347L56.1151 58.0445C57.4833 59.1845 59.4927 59.8421 61.6079 59.8434H63.0763C67.0507 59.8448 70.2746 57.5718 70.2784 54.7663V17.2361C70.2784 14.4306 67.0545 12.1562 63.0801 12.1562Z" fill="#6C6F93"/>
</svg>
