<svg width="73" height="72" viewBox="0 0 73 72" fill="none" xmlns="http://www.w3.org/2000/svg">
<g clip-path="url(#clip0_33579_13150)">
<path d="M23.8794 27.5H6.51944C6.41237 27.5 6.30968 27.5398 6.23397 27.6106C6.15826 27.6815 6.11572 27.7776 6.11572 27.8778V44.1216C6.11572 44.2218 6.15826 44.318 6.23397 44.3888C6.30968 44.4595 6.41237 44.4993 6.51944 44.4993H23.8794C23.9866 44.4993 24.0891 44.4595 24.165 44.3888C24.2406 44.318 24.2832 44.2218 24.2832 44.1216V27.8778C24.2832 27.7776 24.2406 27.6815 24.165 27.6106C24.0891 27.5398 23.9866 27.5 23.8794 27.5ZM18.2274 38.4552C18.2274 38.5554 18.1848 38.6514 18.1091 38.7223C18.0334 38.7931 17.9307 38.8329 17.8236 38.8329H12.5753C12.4682 38.8329 12.3655 38.7931 12.2898 38.7223C12.2141 38.6514 12.1715 38.5554 12.1715 38.4552V33.5442C12.1715 33.444 12.2141 33.348 12.2898 33.2771C12.3655 33.2063 12.4682 33.1665 12.5753 33.1665H17.8236C17.9307 33.1665 18.0334 33.2063 18.1091 33.2771C18.1848 33.348 18.2274 33.444 18.2274 33.5442V38.4552Z" fill="#989AB3"/>
<path d="M60.2215 33.167H54.973C54.7502 33.167 54.5693 33.3361 54.5693 33.5448V38.4557C54.5693 38.6643 54.7502 38.8335 54.973 38.8335H60.2215C60.4445 38.8335 60.6252 38.6643 60.6252 38.4557V33.5448C60.6252 33.3361 60.4445 33.167 60.2215 33.167Z" fill="#989AB3"/>
<path d="M54.1674 27.5H48.9191C48.6961 27.5 48.5154 27.6691 48.5154 27.8778V32.7887C48.5154 32.9973 48.6961 33.1665 48.9191 33.1665H54.1674C54.3904 33.1665 54.5712 32.9973 54.5712 32.7887V27.8778C54.5712 27.6691 54.3904 27.5 54.1674 27.5Z" fill="#989AB3"/>
<path d="M66.2808 27.5H61.0324C60.8095 27.5 60.6287 27.6691 60.6287 27.8778V32.7887C60.6287 32.9973 60.8095 33.1665 61.0324 33.1665H66.2808C66.5038 33.1665 66.6845 32.9973 66.6845 32.7887V27.8778C66.6845 27.6691 66.5038 27.5 66.2808 27.5Z" fill="#989AB3"/>
<path d="M54.1674 38.833H48.9191C48.6961 38.833 48.5154 39.0021 48.5154 39.2108V44.1218C48.5154 44.3303 48.6961 44.4995 48.9191 44.4995H54.1674C54.3904 44.4995 54.5712 44.3303 54.5712 44.1218V39.2108C54.5712 39.0021 54.3904 38.833 54.1674 38.833Z" fill="#989AB3"/>
<path d="M66.2808 38.833H61.0324C60.8095 38.833 60.6287 39.0021 60.6287 39.2108V44.1218C60.6287 44.3303 60.8095 44.4995 61.0324 44.4995H66.2808C66.5038 44.4995 66.6845 44.3303 66.6845 44.1218V39.2108C66.6845 39.0021 66.5038 38.833 66.2808 38.833Z" fill="#989AB3"/>
<path d="M45.0765 27.5H39.8282C39.6052 27.5 39.4243 27.6691 39.4243 27.8778V32.7887C39.4243 32.9973 39.6052 33.1665 39.8282 33.1665H45.0765C45.2995 33.1665 45.4802 32.9973 45.4802 32.7887V27.8778C45.4802 27.6691 45.2995 27.5 45.0765 27.5Z" fill="#989AB3"/>
<path d="M45.0765 38.833H39.8282C39.6052 38.833 39.4243 39.0021 39.4243 39.2108V44.1218C39.4243 44.3303 39.6052 44.4995 39.8282 44.4995H45.0765C45.2995 44.4995 45.4802 44.3303 45.4802 44.1218V39.2108C45.4802 39.0021 45.2995 38.833 45.0765 38.833Z" fill="#989AB3"/>
<path d="M39.4225 33.54C39.4225 33.4398 39.3799 33.3437 39.3043 33.2729C39.2286 33.202 39.1259 33.1622 39.0188 33.1622H33.3667V27.8778C33.3667 27.7776 33.3241 27.6815 33.2484 27.6106C33.1727 27.5398 33.07 27.5 32.963 27.5H27.7146C27.6075 27.5 27.5049 27.5398 27.4291 27.6106C27.3534 27.6815 27.3108 27.7776 27.3108 27.8778V44.1131C27.3108 44.2133 27.3534 44.3094 27.4291 44.3802C27.5049 44.4511 27.6075 44.4909 27.7146 44.4909H32.963C33.07 44.4909 33.1727 44.4511 33.2484 44.3802C33.3241 44.3094 33.3667 44.2133 33.3667 44.1131V38.8287H39.0188C39.1259 38.8287 39.2286 38.7889 39.3043 38.718C39.3799 38.6472 39.4225 38.5511 39.4225 38.4509V33.54Z" fill="#989AB3"/>
</g>
<defs>
<clipPath id="clip0_33579_13150">
<rect width="60.5689" height="17" fill="white" transform="translate(6.11572 27.5)"/>
</clipPath>
</defs>
</svg>
