<svg width="73" height="72" viewBox="0 0 73 72" fill="none" xmlns="http://www.w3.org/2000/svg">
<g opacity="0.7">
<path d="M14.6416 54.9385C10.4641 54.9385 7.04361 53.9572 4.38009 51.9946C1.74462 50.004 0.42688 47.1442 0.42688 43.4714C0.42688 42.6863 0.510991 41.7611 0.679213 40.6396C1.1278 38.1163 1.77265 35.0883 2.61376 31.5276C4.99691 21.8829 11.165 17.0605 21.0901 17.0605C23.7817 17.0605 26.2209 17.5091 28.3517 18.4344C30.4825 19.3035 32.1647 20.6493 33.3984 22.4436C34.632 24.21 35.2488 26.3128 35.2488 28.752C35.2488 29.4809 35.1647 30.4061 34.9965 31.5276C34.4638 34.6397 33.847 37.6958 33.09 40.6396C31.8563 45.434 29.7536 49.0507 26.7256 51.4339C23.7256 53.789 19.6883 54.9385 14.6416 54.9385ZM15.3986 47.3685C17.3612 47.3685 19.0154 46.7798 20.3892 45.6302C21.7911 44.4807 22.8004 42.7144 23.3892 40.3032C24.2022 36.9948 24.819 34.1351 25.2396 31.6678C25.3798 30.9389 25.4639 30.1819 25.4639 29.3968C25.4639 26.2006 23.8097 24.6025 20.4733 24.6025C18.5107 24.6025 16.8285 25.1913 15.4267 26.3408C14.0528 27.4903 13.0716 29.2566 12.4828 31.6678C11.8379 34.0229 11.2211 36.8827 10.5763 40.3032C10.4361 41.0041 10.352 41.7331 10.352 42.5181C10.3239 45.7704 12.0342 47.3685 15.3986 47.3685Z" fill="#6C6F93"/>
<path d="M37.8352 54.4207C37.4427 54.4207 37.1623 54.3085 36.938 54.0562C36.7698 53.7758 36.7137 53.4674 36.7698 53.1029L44.0314 18.8978C44.0875 18.5053 44.2837 18.1969 44.6202 17.9446C44.9286 17.6922 45.265 17.5801 45.6295 17.5801H59.6199C63.5171 17.5801 66.6292 18.3932 68.9843 19.9913C71.3674 21.6174 72.573 23.9445 72.573 27.0005C72.573 27.8697 72.4609 28.7949 72.2646 29.7481C71.3955 33.7855 69.6291 36.7574 66.9376 38.6919C64.3021 40.6265 60.6853 41.5797 56.0873 41.5797H48.9939L46.5827 53.1029C46.4986 53.4955 46.3304 53.8039 45.994 54.0562C45.6856 54.3085 45.3491 54.4207 44.9846 54.4207H37.8352ZM56.4518 34.3182C57.9377 34.3182 59.1994 33.9256 60.2928 33.1126C61.4143 32.2995 62.1433 31.15 62.5077 29.636C62.6199 29.0472 62.676 28.5145 62.676 28.0659C62.676 27.0566 62.3676 26.2715 61.7788 25.7388C61.19 25.1781 60.1526 24.8977 58.7228 24.8977H52.4144L50.4238 34.3182H56.4518Z" fill="#6C6F93"/>
</g>
</svg>
