<svg width="73" height="72" viewBox="0 0 73 72" fill="none" xmlns="http://www.w3.org/2000/svg">
<path opacity="0.7" d="M50.7674 46.8173L64.7249 38.6281C65.4648 38.1931 65.9221 37.3863 65.9221 36.5205V20.142C65.9221 19.2762 65.4648 18.4695 64.7249 18.0345L50.7674 9.84518C50.0275 9.41017 49.1089 9.4144 48.3732 9.84518L34.4155 18.0345C33.6758 18.4695 33.2185 19.2762 33.2185 20.142V49.4105L23.4299 55.1502L13.6413 49.4105V37.9271L23.4299 32.1874L29.8851 35.9757V28.2721L24.6269 25.1848C24.2652 24.9736 23.8498 24.8596 23.4299 24.8596C23.01 24.8596 22.5945 24.9736 22.2329 25.1848L8.27522 33.3741C7.53535 33.8091 7.07812 34.6159 7.07812 35.4817V51.8603C7.07812 52.726 7.53535 53.5326 8.27522 53.9676L22.2329 62.1571C22.9726 62.5878 23.8872 62.5878 24.6269 62.1571L38.5846 53.9676C39.3245 53.5326 39.7816 52.726 39.7816 51.8603V22.5874L39.9562 22.486L49.5662 16.8477L59.3548 22.5874V34.071L49.5662 39.8107L43.1192 36.0306V43.7344L48.369 46.8132C49.1089 47.244 50.0275 47.244 50.7632 46.8132L50.7674 46.8173Z" fill="#6C6F93"/>
</svg>
