<svg width="73" height="72" viewBox="0 0 73 72" fill="none" xmlns="http://www.w3.org/2000/svg">
<g opacity="0.7" clip-path="url(#clip0_33317_16147)">
<path d="M36.7885 45.8739H19.7576C19.3439 45.8739 19.2214 45.7657 19.2142 45.2901C19.1959 43.889 19.1868 42.4883 19.1868 41.0882C19.1868 40.503 19.23 39.9163 19.217 39.331C19.1969 38.322 20.141 37.6431 20.9857 37.6445C31.4392 37.6657 41.8927 37.6686 52.3462 37.6532C52.868 37.6532 53.3336 37.7526 53.743 38.0856C53.954 38.2406 54.1262 38.4425 54.2457 38.6754C54.3653 38.9083 54.4291 39.1658 54.432 39.4276C54.4464 41.4255 54.4536 43.4229 54.4536 45.4198C54.4536 45.796 54.2619 45.9344 53.8208 45.9344C51.1714 45.9344 48.5225 45.9315 45.874 45.9257H36.7928L36.7885 45.8739Z" fill="#6C6F93"/>
<path d="M36.8206 36.6014C34.596 36.6014 32.3713 36.6014 30.1466 36.6014C29.534 36.6014 29.4346 36.5034 29.4547 35.898C29.4635 35.5203 29.5049 35.1441 29.5787 34.7736C29.7502 33.9549 30.3283 33.4518 31.0576 33.1693C31.6095 32.9805 32.1804 32.8524 32.76 32.7873C33.0642 32.7426 33.2775 32.6431 33.3784 32.3548C33.4533 32.1516 33.5164 31.9441 33.5672 31.7336C33.9074 30.148 34.164 28.5624 34.1164 26.9292C34.0794 25.824 33.6826 24.7611 32.9863 23.9021C31.9441 22.5514 30.9596 21.1633 30.1899 19.6382C29.3077 17.8883 28.7643 16.0562 28.809 14.0771C28.8392 12.3062 29.4647 10.5971 30.5848 9.22511C32.5798 6.73714 35.2163 5.85352 38.314 6.31623C40.6765 6.66795 42.4697 7.97392 43.7454 9.94584C44.9663 11.8342 45.2604 13.9286 44.8294 16.1326C44.58 17.4097 44.1851 18.6307 43.4787 19.7363C42.6917 20.9673 41.9191 22.2098 41.0801 23.4062C40.1735 24.7036 39.6603 26.0816 39.6704 27.6831C39.679 29.1937 39.9169 30.664 40.2354 32.1285C40.358 32.6907 40.5165 32.7873 41.0845 32.8276C41.9666 32.8911 42.7897 33.0958 43.46 33.743C43.9043 34.1519 44.1777 34.7136 44.2254 35.3156C44.247 35.5635 44.2542 35.8129 44.2528 36.0623C44.2528 36.4717 44.0726 36.6619 43.6575 36.672C43.2121 36.685 42.7681 36.672 42.3227 36.672H36.8206V36.6014ZM36.9446 19.7651C39.839 19.7579 42.2895 17.3117 42.2665 14.4144C42.2434 11.517 39.9962 9.02907 36.8451 9.0406C33.9622 9.05069 31.5549 11.5156 31.5636 14.4346C31.5722 17.3535 34.0227 19.7737 36.9446 19.7651Z" fill="#6C6F93"/>
<path d="M20.392 52.696C22.3899 52.696 24.3877 52.6556 26.3827 52.7205C26.9752 52.7392 27.5791 53.0088 28.1413 53.2423C29.1055 53.6287 29.9455 54.2718 30.5702 55.1018C31.7709 56.758 32.3187 58.5757 31.8387 60.6212C31.7606 60.9596 31.6644 61.2935 31.5504 61.6216C31.4062 62.0381 31.1554 62.1434 30.7331 62.0266C30.1527 61.8711 29.6331 61.5434 29.2426 61.0868C29.0971 60.925 28.9934 60.7301 28.9404 60.5191C28.8874 60.308 28.8867 60.0873 28.9384 59.8759C29.1149 59.0814 28.9792 58.2495 28.5593 57.5523C27.8573 56.3991 26.8771 55.6784 25.4631 55.6784C22.0554 55.6784 18.6478 55.6784 15.2402 55.6784C14.087 55.6784 13.1645 56.1887 12.4697 57.0809C11.2286 58.681 11.7 60.9729 13.1717 62.0381C13.805 62.5237 14.5792 62.7898 15.3771 62.7963C18.4921 62.8035 21.6071 62.8281 24.7207 62.841C24.8608 62.8414 24.9989 62.8744 25.124 62.9374C25.2491 63.0005 25.3578 63.0919 25.4414 63.2043C25.9661 63.8083 26.5211 64.3877 27.0573 64.983C27.1582 65.0969 27.3168 65.2915 27.2807 65.3679C27.236 65.4366 27.1773 65.4952 27.1085 65.5399C27.0398 65.5846 26.9624 65.6144 26.8815 65.6274C26.4539 65.7122 26.0199 65.7605 25.5841 65.7715C22.0021 65.7715 18.4201 65.8349 14.8409 65.7326C12.2203 65.6591 10.4127 64.1888 9.2956 61.8752C8.64493 60.5141 8.52118 58.9603 8.94821 57.5134C9.46281 55.651 10.5742 54.198 12.3616 53.3403C13.1839 52.9179 14.0952 52.6979 15.0197 52.6989C16.81 52.7248 18.6017 52.7061 20.392 52.7061V52.696Z" fill="#6C6F93"/>
<path d="M52.7354 52.7135C54.504 52.7135 56.2727 52.7322 58.0414 52.7135C59.4728 52.6933 60.6922 53.2151 61.7791 54.0872C63.8836 55.7751 64.6736 57.9907 64.133 60.5997C63.6472 62.945 62.1726 64.5335 59.9456 65.4214C59.2556 65.6834 58.5211 65.8082 57.7834 65.789C54.5819 65.7746 51.3804 65.7962 48.1789 65.789C47.2794 65.789 46.3756 65.7803 45.5079 65.4747C43.8531 64.8895 42.5802 63.8545 41.76 62.2891C40.8447 60.5478 40.764 58.746 41.3939 56.9009C41.5698 56.3877 41.8725 56.2681 42.39 56.4483C43.0545 56.6804 43.6325 57.0364 43.9871 57.6591C44.1035 57.8625 44.1486 58.0989 44.1154 58.3308C43.7305 60.1745 44.5954 61.8394 46.341 62.5471C46.7523 62.7169 47.1934 62.8026 47.6383 62.7994C51.0128 62.7864 54.3887 62.7994 57.7632 62.7994C59.036 62.7994 60.4645 61.8451 60.9416 60.6689C61.7964 58.5557 60.8148 56.395 58.4594 55.7333C58.322 55.7013 58.181 55.6873 58.0399 55.6915C54.8067 55.6569 51.5721 55.618 48.3389 55.5978C47.9684 55.5978 47.7623 55.4321 47.5317 55.1654C47.0243 54.5773 46.4635 54.0353 45.9331 53.4673C45.8437 53.3722 45.7111 53.2237 45.7356 53.1387C45.7638 53.0728 45.8061 53.0139 45.8597 52.9663C45.9133 52.9187 45.9768 52.8836 46.0455 52.8634C46.3373 52.7823 46.6379 52.7372 46.9407 52.7293C48.8722 52.7178 50.8038 52.7293 52.7368 52.7293L52.7354 52.7135Z" fill="#6C6F93"/>
<path d="M36.8234 47.1875H51.8031C52.1183 47.1875 52.433 47.1961 52.7472 47.2134C53.1148 47.2322 53.233 47.3461 53.233 47.718C53.233 48.2282 53.2244 48.7385 53.1869 49.2474C53.172 49.516 53.0521 49.7681 52.8531 49.9493C52.6542 50.1305 52.392 50.2263 52.1231 50.216C51.2654 50.216 26.9998 50.1684 22.0729 50.1468C21.8567 50.1468 21.6404 50.1295 21.4228 50.1108C20.875 50.0618 20.4974 49.7346 20.4498 49.1955C20.4022 48.6564 20.408 48.1547 20.4094 47.6344C20.4094 47.3143 20.6444 47.2596 20.9082 47.2567C22.0037 47.248 23.0992 47.2279 24.1962 47.2264C28.4062 47.2264 32.6167 47.2264 36.8277 47.2264L36.8234 47.1875Z" fill="#6C6F93"/>
<path d="M36.2352 52.67C38.0803 52.67 39.9268 52.6138 41.769 52.683C44.4905 52.7853 46.435 54.1331 47.5824 56.5994C48.3291 58.2052 48.3031 59.8557 47.7395 61.5119C47.5565 62.051 47.3143 62.1793 46.768 62.0179C46.137 61.8328 45.5882 61.4377 45.2126 60.8979C45.0773 60.658 45.0086 60.3862 45.0137 60.1108C44.9834 59.5342 45.0959 58.9447 44.982 58.3955C44.724 57.1601 43.9341 56.3198 42.7463 55.8945C42.3702 55.7641 41.9753 55.6959 41.5773 55.6927C38.4858 55.6591 35.3939 55.6399 32.3014 55.6351C32.1506 55.638 32.0011 55.6066 31.8642 55.5432C31.7274 55.4797 31.6067 55.386 31.5115 55.2689C30.9537 54.6506 30.3756 54.0509 29.8178 53.434C29.727 53.3316 29.616 53.1457 29.6535 53.0548C29.6945 52.99 29.7487 52.9344 29.8125 52.8917C29.8763 52.849 29.9483 52.8201 30.0239 52.8069C30.3337 52.7525 30.6478 52.7259 30.9623 52.7276C32.7209 52.7276 34.4781 52.7276 36.2352 52.7276V52.67Z" fill="#6C6F93"/>
<path d="M36.3681 65.7741C34.5014 65.7741 32.6333 65.813 30.768 65.7597C29.4303 65.7222 28.2786 65.1067 27.2681 64.2692C25.4389 62.7499 24.7139 60.7549 24.9301 58.4183C24.982 57.8648 25.1751 57.3185 25.3495 56.7851C25.4836 56.3815 25.7142 56.2921 26.1193 56.406C26.656 56.5538 27.1458 56.8367 27.542 57.2276C27.7296 57.3904 27.87 57.6005 27.9486 57.8361C28.0272 58.0716 28.0411 58.324 27.9889 58.5668C27.6602 60.4075 28.6779 62.0537 30.4523 62.6302C30.76 62.7285 31.0807 62.78 31.4037 62.783C34.5192 62.8119 37.6342 62.8316 40.7487 62.8421C40.8997 62.8407 41.049 62.8739 41.1852 62.9391C41.3213 63.0043 41.4408 63.0998 41.5343 63.2184C42.0662 63.8166 42.6327 64.3845 43.1718 64.9784C43.2785 65.0952 43.4111 65.2912 43.3765 65.4108C43.3419 65.5305 43.117 65.6343 42.97 65.6444C41.9321 65.7121 40.8928 65.777 39.8536 65.8C38.6917 65.826 37.5299 65.8 36.3681 65.8V65.7741Z" fill="#6C6F93"/>
<path d="M36.9014 9.45607C35.9234 9.45807 34.968 9.74997 34.1559 10.2949C33.3438 10.8398 32.7115 11.6132 32.3388 12.5174C31.9662 13.4216 31.8701 14.416 32.0625 15.3749C32.2549 16.3337 32.7273 17.214 33.42 17.9044C34.1126 18.5949 34.9944 19.0644 35.9539 19.2538C36.9133 19.4432 37.9074 19.3438 38.8104 18.9683C39.7134 18.5928 40.4849 17.958 41.0271 17.1441C41.5694 16.3303 41.8583 15.3739 41.8571 14.396C41.8568 13.746 41.7282 13.1025 41.4788 12.5023C41.2295 11.9021 40.8642 11.357 40.4038 10.8982C39.9435 10.4393 39.3972 10.0758 38.7962 9.82831C38.1952 9.58086 37.5513 9.45437 36.9014 9.45607ZM38.3832 14.6079C38.4817 14.6623 38.5728 14.7291 38.6542 14.8068C38.7432 14.8926 38.8111 14.998 38.8524 15.1146C38.8937 15.2312 38.9072 15.3558 38.8921 15.4785C38.8736 15.6698 38.8199 15.856 38.7335 16.0277C38.6628 16.181 38.5547 16.3141 38.4193 16.4149C38.2838 16.5156 38.1252 16.5807 37.958 16.6043C37.7248 16.6396 37.4877 16.6396 37.2546 16.6043C37.1753 16.5928 37.0945 16.5812 37.0167 16.5654C36.9763 16.5567 36.9634 16.5654 36.9533 16.6057C36.8913 16.8623 36.825 17.1189 36.763 17.3755C36.7529 17.4144 36.7399 17.423 36.701 17.413C36.5569 17.3755 36.4127 17.3394 36.2686 17.3063C36.2326 17.2976 36.2225 17.2847 36.2326 17.2472C36.2974 16.9935 36.3594 16.7398 36.4243 16.4861C36.4344 16.4472 36.4243 16.4342 36.3882 16.4256C36.2787 16.3996 36.1691 16.3708 36.061 16.3405C36.0279 16.3319 36.0149 16.3405 36.0077 16.3737C35.9457 16.6288 35.8808 16.8825 35.8174 17.1362C35.8044 17.1895 35.8044 17.1895 35.7525 17.1766C35.6084 17.142 35.4643 17.1045 35.3201 17.0713C35.2855 17.0627 35.2783 17.0483 35.287 17.0151C35.3533 16.7571 35.4152 16.4962 35.4816 16.2382C35.4916 16.2007 35.4816 16.1877 35.4455 16.1776C35.127 16.0998 34.8098 16.0191 34.4913 15.9383C34.4408 15.9254 34.4408 15.9254 34.461 15.8764C34.5345 15.7063 34.6051 15.5362 34.6815 15.3661C34.6945 15.3358 34.7089 15.3286 34.7421 15.3372C34.8531 15.3675 34.9641 15.3978 35.0765 15.4209C35.1037 15.4301 35.1327 15.4331 35.1613 15.4296C35.1898 15.4261 35.2172 15.4163 35.2414 15.4008C35.2657 15.3853 35.2861 15.3645 35.3012 15.34C35.3163 15.3156 35.3257 15.288 35.3288 15.2594C35.3936 14.9971 35.4599 14.7362 35.5248 14.4738C35.6478 13.9789 35.7708 13.485 35.8938 12.992C35.9043 12.959 35.9082 12.9244 35.9053 12.8899C35.9023 12.8555 35.8926 12.822 35.8767 12.7913C35.8607 12.7606 35.8389 12.7334 35.8124 12.7112C35.7859 12.689 35.7553 12.6722 35.7223 12.6619C35.6172 12.6258 35.5098 12.5969 35.4008 12.5754C35.3752 12.5678 35.3492 12.5615 35.323 12.5567C35.2898 12.5567 35.2841 12.5379 35.2913 12.5062C35.3259 12.3779 35.3561 12.2496 35.3879 12.1213C35.3971 12.0921 35.4043 12.0622 35.4095 12.032C35.4095 11.9988 35.4297 11.9902 35.4643 11.9988C35.6084 12.0349 35.7381 12.068 35.8765 12.1026C36.0596 12.1473 36.2426 12.192 36.4257 12.2467C36.4646 12.2568 36.479 12.2467 36.4877 12.2093C36.5497 11.9556 36.6145 11.7019 36.6765 11.4467C36.6866 11.4064 36.701 11.4006 36.7385 11.4107C36.8827 11.4482 37.0268 11.4842 37.1709 11.5174C37.2055 11.526 37.2113 11.539 37.2041 11.5721C37.1407 11.8215 37.0787 12.0694 37.0167 12.3188C37.0037 12.3707 37.0037 12.3707 37.0527 12.3822C37.1609 12.4067 37.2704 12.4313 37.3771 12.4586C37.4131 12.4687 37.4261 12.4586 37.4347 12.424C37.4938 12.179 37.5558 11.9339 37.6164 11.6889C37.6308 11.6327 37.6308 11.6327 37.6841 11.6457C37.8283 11.6803 37.9638 11.7163 38.1036 11.7494C38.1425 11.7595 38.1526 11.7725 38.1425 11.8114C38.0776 12.0637 38.0156 12.3174 37.9508 12.5696C37.9407 12.61 37.9508 12.6273 37.9897 12.6417C38.2154 12.7141 38.4281 12.8221 38.6196 12.9617C38.8018 13.0829 38.9299 13.2699 38.9771 13.4835C39.0117 13.6401 39.0078 13.8027 38.9656 13.9574C38.9234 14.1121 38.8443 14.2542 38.7349 14.3715C38.6378 14.4634 38.5179 14.5276 38.3875 14.5574C38.3731 14.5574 38.3558 14.5574 38.3443 14.5747C38.3544 14.5949 38.3702 14.5992 38.3832 14.6079Z" fill="#6C6F93"/>
<path d="M37.8208 13.3298C37.7449 13.2656 37.6599 13.2131 37.5685 13.1741C37.3558 13.0887 37.1351 13.0245 36.9098 12.9824C36.8795 12.9824 36.8752 12.9925 36.8694 13.0156C36.8204 13.2145 36.7714 13.4134 36.7252 13.6123C36.695 13.7349 36.6647 13.8588 36.633 13.9814C36.6258 14.0087 36.633 14.0232 36.6604 14.0289C36.6878 14.0347 36.7137 14.0433 36.7411 14.0505C36.9527 14.1129 37.1709 14.1497 37.3912 14.1601C37.4642 14.1611 37.5371 14.1548 37.6089 14.1414C37.694 14.1272 37.7731 14.0884 37.8364 14.0297C37.8997 13.971 37.9444 13.8951 37.9649 13.8113C37.9917 13.7258 37.9923 13.6343 37.9666 13.5484C37.9409 13.4626 37.8901 13.3865 37.8208 13.3298Z" fill="#6C6F93"/>
<path d="M37.3339 14.796C37.0676 14.69 36.7914 14.6109 36.5094 14.5596C36.4835 14.5596 36.4777 14.5596 36.4734 14.587C36.384 14.9473 36.2937 15.3077 36.2024 15.6681C36.2024 15.6954 36.2024 15.707 36.2298 15.7127L36.4301 15.7646C36.6653 15.8296 36.9071 15.8678 37.1509 15.8785C37.2445 15.879 37.3379 15.8684 37.4291 15.8468C37.5171 15.8306 37.5986 15.7896 37.664 15.7285C37.7294 15.6675 37.7759 15.589 37.7981 15.5023C37.8242 15.4147 37.8246 15.3215 37.799 15.2338C37.7734 15.1461 37.723 15.0676 37.6539 15.0079C37.5609 14.9186 37.4525 14.8468 37.3339 14.796Z" fill="#6C6F93"/>
</g>
<defs>
<clipPath id="clip0_33317_16147">
<rect width="55.5944" height="59.6089" fill="white" transform="translate(8.70288 6.19531)"/>
</clipPath>
</defs>
</svg>
