<svg width="73" height="72" viewBox="0 0 73 72" fill="none" xmlns="http://www.w3.org/2000/svg">
<path d="M57.1169 18.3617C56.2578 16.1516 54.8163 14.2145 53.2067 12.5904C51.5092 10.9935 49.5335 9.72093 47.3776 8.83578C45.9818 8.2721 44.5173 7.89684 43.0225 7.71987C37.678 6.93856 32.0479 8.59523 27.9641 12.7261C23.249 17.4863 21.5924 24.4548 23.6723 30.9423V31.0056C22.3659 31.8288 21.1693 32.8145 20.1111 33.9391C18.4707 35.6754 17.1414 37.6938 16.2805 39.9039C15.437 42.1213 15.0138 44.4765 15.0326 46.8489C15.0326 49.2598 15.5336 51.5513 16.4722 53.6818C17.3331 55.8919 18.7746 57.8289 20.3824 59.453C22.0799 61.05 24.0556 62.3225 26.2115 63.2077C28.3222 64.0758 30.5992 64.4683 32.9015 64.4683C32.576 64.4683 32.2559 64.452 31.9376 64.4375C34.4187 64.5724 36.9001 64.1784 39.2174 63.2817C41.5348 62.3849 43.635 61.0059 45.3791 59.236C47.6951 56.9151 49.3252 53.9996 50.0895 50.8111C50.8538 47.6226 50.7227 44.285 49.7107 41.1663C51.1035 40.3238 52.3736 39.2935 53.4852 38.1043C55.1256 36.3681 56.4567 34.3497 57.3158 32.1396C58.1604 29.9223 58.5848 27.5672 58.5674 25.1945C58.5696 22.8412 58.0786 20.5135 57.1259 18.3617M41.6678 19.6476C41.543 19.0805 41.4842 18.5009 41.4924 17.9204C42.138 18.0325 42.7512 18.2242 43.3643 18.481C44.2252 18.8428 44.9739 19.4305 45.5545 20.1052C46.1115 20.8051 46.6053 21.5611 46.8838 22.4292C47.1877 23.2973 47.2745 24.1655 47.2745 25.0336C47.178 26.6824 46.4842 28.2396 45.323 29.414L41.6696 19.6566L41.6678 19.6476ZM45.8421 30.7976C45.9524 30.6927 46.0645 30.5878 46.1604 30.4666C46.9073 29.6799 47.3776 28.8443 47.7682 27.8622C48.1589 26.882 48.2384 25.8203 48.2384 24.8654C48.2384 23.8037 47.9599 22.847 47.5693 21.9789C47.1786 21.1107 46.5185 20.3222 45.8493 19.6566C45.1801 19.0688 44.3192 18.481 43.4601 18.2007C42.8398 17.9764 42.1616 17.8788 41.4779 17.8317C41.5048 16.7023 41.7907 15.5941 42.3135 14.5925C43.093 14.7445 43.8417 14.9778 44.567 15.316C45.8963 15.902 46.9543 16.7701 47.8948 17.7268C48.7557 18.7885 49.5352 19.937 50.0055 21.1994C50.4757 22.4618 50.6746 23.7802 50.6746 25.1457C50.6746 26.513 50.3961 27.8622 49.8156 29.0125C49.3387 30.2225 48.5892 31.3062 47.6253 32.1794C47.314 32.461 46.9841 32.7214 46.6378 32.9589L45.833 30.8048L45.8421 30.7976ZM47.1388 34.2611C47.6363 33.8893 48.1076 33.4838 48.5495 33.0475C49.5207 31.9858 50.3798 30.6366 50.8501 29.2928C51.4306 27.8387 51.6296 26.3846 51.6296 24.9522C51.6296 23.5234 51.2715 22.0675 50.6837 20.7255C50.1075 19.411 49.2672 18.229 48.2149 17.253C47.1623 16.3035 46.0247 15.5167 44.6936 15.0411C43.9427 14.78 43.167 14.5969 42.3786 14.4949C42.7114 13.8763 43.1183 13.3048 43.6193 12.7912C44.0099 12.3969 44.4404 12.0605 44.8853 11.7711C45.2434 11.8977 45.5943 12.0424 45.9361 12.2052C47.5984 12.9122 49.0933 13.961 50.3238 15.2834C51.5753 16.5458 52.514 18.1935 53.1832 19.8158C53.8523 21.552 54.1309 23.3697 54.1309 25.1059C54.0549 26.895 53.6694 28.6573 52.9914 30.3147C52.3223 31.8574 51.2733 33.2808 50.0217 34.5432C49.3791 35.1928 48.6664 35.769 47.8966 36.2614L47.1388 34.2448V34.2611ZM28.4976 60.209C28.2166 60.1025 27.9403 59.9843 27.6693 59.8545C26.007 59.1476 24.512 58.0988 23.2816 56.7763C22.0301 55.5139 21.0914 53.8663 20.4222 52.2349C19.787 50.5441 19.4682 48.7509 19.4817 46.9448C19.5539 45.1552 19.9396 43.3922 20.6212 41.736C21.2903 40.1933 22.3411 38.7699 23.5927 37.5093C24.1855 36.9072 24.8389 36.3678 25.5424 35.8996L26.3146 37.9253C25.8742 38.2618 25.4566 38.6273 25.0649 39.0195C24.0937 40.0811 23.2328 41.4321 22.7643 42.7741C22.182 44.2282 21.983 45.6842 21.983 47.1148C21.983 48.5436 22.3411 49.9995 22.9307 51.3433C23.507 52.6577 24.3473 53.8397 25.3995 54.8158C26.4503 55.7635 27.5879 56.552 28.9262 57.0259C29.6045 57.2664 30.3134 57.4346 31.0224 57.5395C30.6949 58.1339 30.2872 58.6804 29.8106 59.1636C29.4182 59.5599 28.9798 59.9078 28.5048 60.2M29.0384 56.7365C27.7091 56.1487 26.651 55.2806 25.7105 54.3238C24.8497 53.264 24.0774 52.1137 23.5999 50.8513C23.1417 49.5867 22.915 48.2499 22.9307 46.905C22.9307 45.5395 23.2093 44.1884 23.7916 43.0382C24.2619 41.8083 25.0396 40.7413 25.98 39.8731C26.2441 39.6308 26.5226 39.4138 26.8084 39.204L27.6367 41.3924C27.5734 41.4557 27.5101 41.5117 27.4468 41.5841C26.698 42.3636 26.2278 43.2082 25.8372 44.1885C25.4465 45.1687 25.3669 46.2304 25.3669 47.1871C25.3669 48.2542 25.6454 49.2037 26.0361 50.0718C26.4268 50.9399 27.0869 51.7285 27.7561 52.3959C28.4253 52.9819 29.2861 53.5697 30.1452 53.85C30.7186 54.0507 31.3317 54.1574 31.9611 54.2045C31.9107 55.329 31.6084 56.428 31.0767 57.4202C30.3739 57.2688 29.6903 57.0395 29.0384 56.7365ZM31.8182 52.3705C31.9376 52.9493 31.9773 53.5281 31.9611 54.0996C31.3765 53.9817 30.8056 53.8041 30.2574 53.5696C29.3965 53.2079 28.6477 52.6201 28.0672 51.9455C27.5101 51.2456 27.0164 50.4896 26.7378 49.6215C26.434 48.7534 26.3472 47.8852 26.3472 47.0171C26.4403 45.4332 27.0853 43.9319 28.1702 42.7741L31.8182 52.3705ZM20.8219 59.1474C19.1797 57.4925 18.0493 55.5862 17.1884 53.4648C16.4415 51.4464 16.049 49.1241 16.049 46.914C16.1611 44.7021 16.6314 42.492 17.4923 40.4754C18.3514 38.4317 19.6807 36.6086 21.2108 35.0731C22.1411 34.1429 23.1843 33.333 24.3161 32.6623L24.9057 34.205C24.005 34.8 23.1695 35.4674 22.437 36.2794C21.1019 37.692 20.0648 39.3589 19.3877 41.1808C18.7185 42.9984 18.4472 44.9354 18.4472 46.8652C18.5594 48.7696 18.9175 50.6994 19.697 52.4357C20.472 54.1718 21.5756 55.7416 22.947 57.0584C24.2953 58.3446 25.8765 59.3617 27.606 60.0553C27.8519 60.153 28.0997 60.2325 28.3475 60.3211C27.2158 60.9916 25.9329 61.3649 24.6182 61.4063C24.1498 61.415 23.6821 61.3665 23.2255 61.2616C22.3636 60.6379 21.5613 59.9356 20.8291 59.1636M56.1384 31.5934C55.2775 33.6335 53.9482 35.4583 52.4181 36.9938C51.4371 37.9785 50.3289 38.8277 49.1229 39.5187L48.5495 37.9813C49.5258 37.3703 50.4173 36.6333 51.2009 35.7893C52.5303 34.3569 53.5883 32.7093 54.2502 30.8844C54.9194 29.0686 55.1907 27.1316 55.1907 25.2018C55.0786 23.2973 54.7205 21.3676 53.9392 19.6313C52.3947 16.1597 49.5583 13.4265 46.032 12.0117C45.7086 11.8852 45.379 11.7753 45.0445 11.6825C46.656 10.7149 48.578 10.4041 50.4124 10.8144C51.2805 11.4402 52.0835 12.1473 52.7997 12.9124C54.4419 14.5672 55.5723 16.4644 56.4314 18.595C57.1802 20.6116 57.5708 22.9356 57.5708 25.1457C57.4605 27.3558 56.9903 29.575 56.1294 31.5843" fill="#989AB3"/>
</svg>
