<svg width="73" height="72" viewBox="0 0 73 72" fill="none" xmlns="http://www.w3.org/2000/svg">
<path fill-rule="evenodd" clip-rule="evenodd" d="M58.8106 56.0818C57.1333 57.5195 55.3082 58.7752 53.3659 59.8277C53.7361 59.5337 52.571 58.3141 52.9303 57.9983C61.7289 50.3758 63.7326 40.4991 60.1826 31.8638C59.7035 30.6877 60.7162 30.2195 60.7162 29.1523C68.9159 36.7858 68.0339 48.0999 58.8106 56.0818Z" fill="#6C6F93"/>
<path fill-rule="evenodd" clip-rule="evenodd" d="M60.8023 29.1313C57.2226 25.9317 52.9108 23.6617 48.2468 22.5215C50.0327 22.9897 50.1634 25.0478 51.3939 26.0823C54.0182 28.2602 54.726 31.1568 54.9983 34.9136C55.4012 40.5108 55.3685 46.0426 51.285 50.9755C49.1309 53.6857 46.3708 55.8527 43.2268 57.3022L42.5081 57.6071H42.3992C40.7416 58.2631 39.0238 58.7554 37.2703 59.0772C30.6387 60.3294 21.8619 59.8067 11.2556 56.431C15.2245 59.5182 19.7602 61.7971 24.606 63.1389C29.4482 64.4545 34.4987 64.8242 39.4809 64.2278C40.1996 64.1516 40.8965 64.0427 41.5934 63.9229C44.3093 63.4535 46.967 62.6942 49.5209 61.6579C50.8522 61.1143 52.1503 60.4925 53.4084 59.7958C53.7786 59.5018 54.1489 59.1969 54.4973 58.892C64.5265 50.235 66.7915 38.4635 60.8023 29.1313Z" fill="#6C6F93"/>
<path fill-rule="evenodd" clip-rule="evenodd" d="M42.4759 57.6057C54.8789 52.553 55.5432 39.7471 41.1365 32.5601C30.661 27.3223 35.2889 19.0028 48.2146 22.5419C62.6975 26.3096 58.4289 51.4641 42.4759 57.6057Z" fill="#6C6F93"/>
<path fill-rule="evenodd" clip-rule="evenodd" d="M61.7595 15.5937C48.126 11.238 37.5524 11.63 30.6159 14.4286H30.507C20.1947 18.6754 17.9951 28.2363 25.8354 35.4669C23.7665 33.7572 21.4144 31.9387 20.3908 29.6193C19.0979 26.5591 18.6905 23.1973 19.2147 19.9168C19.6072 17.7402 20.5001 15.6844 21.8229 13.9119C23.1457 12.1393 24.8623 10.6983 26.8373 9.70258C28.9461 8.73274 31.1891 8.08662 33.4907 7.78605C38.4845 7.16707 43.5514 7.538 48.4018 8.87767C53.2523 10.2173 57.7913 12.4995 61.7595 15.5937Z" fill="#6C6F93"/>
<path fill-rule="evenodd" clip-rule="evenodd" d="M28.1457 50.2481C27.2528 49.965 26.2401 49.8235 25.4125 49.4859C14.8825 45.2717 9.26354 37.3769 9.45955 29.6019C9.612 24.0809 12.8461 18.4947 18.1711 13.8776C19.8279 12.5758 21.5951 11.4208 23.4524 10.4257C26.0059 9.38579 28.6636 8.6228 31.3799 8.14978C32.0877 8.02999 32.8064 7.9211 33.5577 7.83398C32.7346 7.95746 31.92 8.13203 31.1185 8.35667C17.4306 12.0264 16.6683 27.8487 25.8372 35.4712C27.6365 37.0973 29.6565 38.4611 31.8372 39.5221C41.3872 44.2916 38.4253 51.5766 28.1457 50.2481Z" fill="#6C6F93"/>
<path fill-rule="evenodd" clip-rule="evenodd" d="M28.1437 50.2463C27.0038 50.0973 25.8757 49.868 24.768 49.5603C4.5791 44.0394 1.61719 26.8995 14.1618 15.9883C16.9341 13.6398 20.0717 11.7602 23.4504 10.4238C21.6772 11.4663 20.0008 12.6652 18.4413 14.0064C5.0909 25.5927 7.74791 43.6473 28.1437 50.2463Z" fill="#6C6F93"/>
</svg>
