<svg width="80" height="81" viewBox="0 0 80 81" fill="none" xmlns="http://www.w3.org/2000/svg">
  <g clip-path="url(#clip0_35375_20670)">
    <path d="M80 0.799805H0V80.7998H80V0.799805Z" fill="url(#paint0_linear_35375_20670)"/>
    <path d="M37.2594 67.9846C52.2734 67.9846 64.4446 55.8134 64.4446 40.7994C64.4446 25.7855 52.2734 13.6143 37.2594 13.6143C22.2454 13.6143 10.0742 25.7855 10.0742 40.7994C10.0742 55.8134 22.2454 67.9846 37.2594 67.9846Z" fill="white"/>
    <path d="M66.4073 22.874H50.7777C49.489 22.874 48.4443 23.9187 48.4443 25.2074C48.4443 26.496 49.489 27.5407 50.7777 27.5407H66.4073C67.696 27.5407 68.7406 26.496 68.7406 25.2074C68.7406 23.9187 67.696 22.874 66.4073 22.874Z" fill="white"/>
    <path d="M62.1106 58.7256H51.0736C49.7849 58.7256 48.7402 59.7703 48.7402 61.0589C48.7402 62.3476 49.7849 63.3923 51.0736 63.3923H62.1106C63.3993 63.3923 64.4439 62.3476 64.4439 61.0589C64.4439 59.7703 63.3993 58.7256 62.1106 58.7256Z" fill="white"/>
    <path d="M74.7037 33.541H61.8148C60.5261 33.541 59.4814 34.5857 59.4814 35.8743C59.4814 37.163 60.5261 38.2077 61.8148 38.2077H74.7037C75.9923 38.2077 77.037 37.163 77.037 35.8743C77.037 34.5857 75.9923 33.541 74.7037 33.541Z" fill="white"/>
    <path d="M69.7404 46.5039H67.1478C65.8591 46.5039 64.8145 47.5486 64.8145 48.8372C64.8145 50.1259 65.8591 51.1706 67.1478 51.1706H69.7404C71.029 51.1706 72.0737 50.1259 72.0737 48.8372C72.0737 47.5486 71.029 46.5039 69.7404 46.5039Z" fill="white"/>
    <path d="M74.3333 23.1699H73.8148C72.5261 23.1699 71.4814 24.2146 71.4814 25.5033C71.4814 26.7919 72.5261 27.8366 73.8148 27.8366H74.3333C75.622 27.8366 76.6666 26.7919 76.6666 25.5033C76.6666 24.2146 75.622 23.1699 74.3333 23.1699Z" fill="white"/>
    <path d="M37.2589 63.2444C49.6546 63.2444 59.7033 53.1956 59.7033 40.7999C59.7033 28.4042 49.6546 18.3555 37.2589 18.3555C24.8632 18.3555 14.8145 28.4042 14.8145 40.7999C14.8145 53.1956 24.8632 63.2444 37.2589 63.2444Z" fill="url(#paint1_linear_35375_20670)"/>
    <path d="M36.7405 44.726C39.4405 44.726 41.6293 42.5372 41.6293 39.8371C41.6293 37.1371 39.4405 34.9482 36.7405 34.9482C34.0404 34.9482 31.8516 37.1371 31.8516 39.8371C31.8516 42.5372 34.0404 44.726 36.7405 44.726Z" fill="white"/>
    <path d="M39.1104 48.6144V46.0218C39.1104 44.7331 38.0657 43.6885 36.777 43.6885C35.4884 43.6885 34.4437 44.7331 34.4437 46.0218V48.6144C34.4437 49.9031 35.4884 50.9477 36.777 50.9477C38.0657 50.9477 39.1104 49.9031 39.1104 48.6144Z" fill="white"/>
  </g>
  <defs>
    <linearGradient id="paint0_linear_35375_20670" x1="40" y1="80.7998" x2="40" y2="0.799805" gradientUnits="userSpaceOnUse">
      <stop stop-color="#0071BC"/>
      <stop offset="0.4" stop-color="#1797D5"/>
      <stop offset="1" stop-color="#61FFF7"/>
    </linearGradient>
    <linearGradient id="paint1_linear_35375_20670" x1="14.8145" y1="40.7999" x2="59.7033" y2="40.7999" gradientUnits="userSpaceOnUse">
      <stop stop-color="#0071BC"/>
      <stop offset="0.4" stop-color="#1797D5"/>
      <stop offset="1" stop-color="#61FFF7"/>
    </linearGradient>
    <clipPath id="clip0_35375_20670">
      <rect y="0.799805" width="80" height="80" rx="8" fill="white"/>
    </clipPath>
  </defs>
</svg>
