<svg width="80" height="81" viewBox="0 0 80 81" fill="none" xmlns="http://www.w3.org/2000/svg">
  <rect y="0.799805" width="80" height="80" rx="12" fill="white"/>
  <path d="M61.9951 19.4456H62.0325L61.9951 19.4082V19.4456Z" fill="#39B54A"/>
  <path d="M65.0609 22.9289H61.9951V27.1869C61.9936 27.7169 61.7824 28.2247 61.4076 28.5994C61.0329 28.9742 60.5251 29.1854 59.9951 29.1869C59.4652 29.1854 58.9573 28.9742 58.5826 28.5994C58.2079 28.2247 57.9967 27.7169 57.9951 27.1869V22.9289H53.7371C53.2755 22.9275 52.8332 22.7435 52.5068 22.4172C52.1805 22.0908 51.9965 21.6485 51.9951 21.1869C51.9965 20.7254 52.1805 20.2831 52.5068 19.9567C52.8332 19.6303 53.2755 19.4464 53.7371 19.445H57.9951V16.1005C52.9904 12.6396 47.0477 10.7902 40.9629 10.7998C24.3945 10.7998 10.9629 24.2314 10.9629 40.7998C10.959 44.3801 11.5972 47.932 12.8474 51.2869C12.5777 48.5901 12.939 45.674 14.0087 42.7101C17.7313 32.3689 28.9945 24.4418 39.8093 24.5811C51.2048 24.7269 58.5577 33.7108 55.5287 45.1618C52.3326 57.2404 39.2326 66.3682 27.0919 65.0159C24.9016 64.7721 22.9281 64.2024 21.1958 63.3656C26.6604 68.167 33.6886 70.8103 40.9629 70.7998C57.5312 70.7998 70.9629 57.3682 70.9629 40.7998C70.9729 34.3625 68.9028 28.0941 65.0609 22.9289Z" fill="#39B54A"/>
  <path d="M38.9171 27.1987C29.912 27.0839 20.5301 33.6845 17.4333 42.2955C14.1804 51.3278 18.7823 59.8065 28.3294 60.8697C38.4391 61.9955 49.3481 54.3949 52.0068 44.3381C54.5294 34.8 48.4062 27.32 38.9171 27.1987ZM49.7558 44.4994C49.0152 47.2994 47.5391 49.8794 45.5868 52.0626C46.7391 50.3922 47.5985 48.5377 48.1281 46.5787C50.3249 38.2787 44.9978 31.7678 36.7429 31.6645C31.2423 31.5942 25.5817 34.4045 21.7636 38.6774C25.4597 33.2633 32.0217 29.5065 38.3707 29.5878C46.6255 29.6936 51.9526 36.202 49.7584 44.4994H49.7558Z" fill="#39B54A"/>
</svg>
