<svg width="24" height="25" viewBox="0 0 24 25" fill="none" xmlns="http://www.w3.org/2000/svg">
  <path d="M21.0008 12.5003C21.0008 13.0523 20.5538 13.5003 20.0008 13.5003H6.41486L8.70783 15.7933C9.09883 16.1842 9.09883 16.8163 8.70783 17.2073C8.51283 17.4023 8.2568 17.5003 8.0008 17.5003C7.7448 17.5003 7.48877 17.4023 7.29377 17.2073L3.29474 13.2083C3.20174 13.1153 3.1287 13.0054 3.0777 12.8824C2.9767 12.6384 2.9767 12.3622 3.0777 12.1182C3.1287 11.9952 3.20174 11.8853 3.29474 11.7923L7.29377 7.79325C7.68477 7.40225 8.31683 7.40225 8.70783 7.79325C9.09883 8.18425 9.09883 8.81631 8.70783 9.20731L6.41486 11.5003H20.0008C20.5538 11.5003 21.0008 11.9483 21.0008 12.5003Z" fill="#FA4E0E"/>
</svg>
