<svg width="91" height="90" viewBox="0 0 91 90" fill="none" xmlns="http://www.w3.org/2000/svg">
  <path d="M76.9941 12.9682H77.0503L76.9941 12.9121V12.9682Z" fill="#39B54A"/>
  <path d="M81.5924 18.1936H76.9937V24.5807C76.9914 25.3756 76.6746 26.1373 76.1124 26.6995C75.5503 27.2616 74.7886 27.5784 73.9937 27.5807C73.1987 27.5784 72.437 27.2616 71.8749 26.6995C71.3128 26.1373 70.996 25.3756 70.9937 24.5807V18.1936H64.6066C63.9142 18.1915 63.2508 17.9156 62.7612 17.426C62.2717 16.9365 61.9957 16.273 61.9937 15.5807C61.9957 14.8883 62.2717 14.2249 62.7612 13.7353C63.2508 13.2458 63.9142 12.9698 64.6066 12.9678H70.9937V7.95102C63.4865 2.75964 54.5726 -0.014479 45.4453 5.68324e-05C20.5927 5.68324e-05 0.44534 20.1475 0.44534 45C0.439432 50.3704 1.39685 55.6983 3.27211 60.7306C2.8676 56.6855 3.40953 52.3113 5.01405 47.8655C10.5979 32.3536 27.4927 20.4629 43.715 20.672C60.8082 20.8907 71.8375 34.3665 67.294 51.5429C62.4998 69.661 42.8498 83.3526 24.6389 81.3242C21.3534 80.9584 18.3931 80.1039 15.7947 78.8487C23.9915 86.0508 34.5339 90.0157 45.4453 90C70.2979 90 90.4453 69.8526 90.4453 45C90.4603 35.344 87.3551 25.9415 81.5924 18.1936Z" fill="#39B54A"/>
  <path d="M42.3762 24.5989C28.8685 24.4266 14.7956 34.3276 10.1504 47.244C5.27107 60.7924 12.174 73.5105 26.4946 75.1053C41.6591 76.794 58.0226 65.3931 62.0107 50.3079C65.7946 36.0008 56.6097 24.7808 42.3762 24.5989ZM58.6343 50.5498C57.5233 54.7498 55.3091 58.6198 52.3807 61.8947C54.1092 59.3891 55.3982 56.6073 56.1926 53.6689C59.4878 41.2189 51.4972 31.4524 39.1149 31.2976C30.8639 31.1921 22.373 35.4076 16.6459 41.8169C22.1901 33.6957 32.033 28.0605 41.5565 28.1824C53.9388 28.3411 61.9294 38.1037 58.6381 50.5498H58.6343Z" fill="#39B54A"/>
</svg>
