<svg width="300" height="300" viewBox="0 0 300 300" fill="none" xmlns="http://www.w3.org/2000/svg">
  <path d="M244.167 58.0556H244.328L244.167 57.8945V58.0556Z" fill="#39B54A"/>
  <path d="M257.367 73.0554H244.167V91.3887C244.16 93.6705 243.251 95.8569 241.637 97.4704C240.024 99.0839 237.837 99.9932 235.556 99.9998C233.274 99.9932 231.087 99.0839 229.474 97.4704C227.86 95.8569 226.951 93.6705 226.944 91.3887V73.0554H208.611C206.624 73.0495 204.72 72.2575 203.314 70.8522C201.909 69.447 201.117 67.5427 201.111 65.5554C201.117 63.5681 201.909 61.6638 203.314 60.2586C204.72 58.8533 206.624 58.0613 208.611 58.0554H226.944V43.6554C205.396 28.7542 179.81 20.7914 153.611 20.8332C82.275 20.8332 24.4444 78.6637 24.4444 150C24.4275 165.415 27.1756 180.708 32.5583 195.153C31.3972 183.542 32.9527 170.986 37.5583 158.225C53.5861 113.7 102.081 79.5693 148.644 80.1693C197.708 80.7971 229.367 119.478 216.325 168.78C202.564 220.786 146.161 260.086 93.8889 254.264C84.4583 253.214 75.9611 250.761 68.5027 247.158C92.0307 267.831 122.291 279.212 153.611 279.167C224.947 279.167 282.778 221.336 282.778 150C282.821 122.283 273.908 95.2948 257.367 73.0554Z" fill="#39B54A"/>
  <path d="M144.8 91.439C106.028 90.9445 65.6336 119.364 52.3003 156.439C38.2947 195.328 58.1086 231.833 99.2141 236.411C142.742 241.258 189.711 208.533 201.159 165.233C212.02 124.167 185.656 91.9612 144.8 91.439ZM191.467 165.928C188.278 177.983 181.922 189.092 173.517 198.492C178.478 191.3 182.178 183.315 184.459 174.881C193.917 139.145 170.981 111.111 135.439 110.667C111.756 110.364 87.3836 122.464 70.9447 140.861C86.8586 117.55 115.111 101.375 142.447 101.725C177.989 102.181 200.925 130.203 191.478 165.928H191.467Z" fill="#39B54A"/>
</svg>
