<svg width="20" height="20" viewBox="0 0 20 20" fill="none" xmlns="http://www.w3.org/2000/svg">
  <path d="M18.3333 2.08301L10 9.58301L6.25 6.66634L5 7.91634L10 12.9163L19.5833 2.91634L18.3333 2.08301Z" fill="url(#paint0_linear_35191_14201)"/>
  <path d="M9.58398 18.7501C7.26334 18.7501 5.03774 17.8282 3.3968 16.1873C1.75586 14.5463 0.833984 12.3207 0.833984 10.0001C0.833984 7.67943 1.75586 5.45383 3.3968 3.81289C5.03774 2.17195 7.26334 1.25007 9.58398 1.25007C11.2103 1.24332 12.805 1.69925 14.1819 2.56466C14.2753 2.62378 14.3413 2.71757 14.3656 2.82541C14.3898 2.93324 14.3702 3.04628 14.3111 3.13966C14.2519 3.23304 14.1582 3.2991 14.0503 3.32333C13.9425 3.34755 13.8294 3.32794 13.7361 3.26882C12.4925 2.48791 11.0524 2.07678 9.58398 2.08341C8.01822 2.08341 6.48761 2.54771 5.18572 3.41761C3.88383 4.2875 2.86913 5.52392 2.26994 6.9705C1.67074 8.41708 1.51397 10.0089 1.81943 11.5445C2.1249 13.0802 2.87889 14.4908 3.98606 15.598C5.09322 16.7052 6.50384 17.4592 8.03952 17.7646C9.5752 18.0701 11.167 17.9133 12.6136 17.3141C14.0601 16.7149 15.2966 15.7002 16.1665 14.3983C17.0363 13.0964 17.5007 11.5658 17.5007 10.0001C17.5116 9.29347 17.4191 8.58907 17.2261 7.90924C17.1984 7.80435 17.2128 7.69281 17.266 7.59833C17.3193 7.50385 17.4074 7.43387 17.5114 7.40327C17.6155 7.37267 17.7274 7.38386 17.8233 7.43446C17.9193 7.48506 17.9917 7.57108 18.0252 7.67424C18.2415 8.43022 18.3455 9.21386 18.334 10.0001C18.3313 12.3199 17.4086 14.544 15.7682 16.1843C14.1279 17.8247 11.9038 18.7474 9.58398 18.7501Z" fill="url(#paint1_linear_35191_14201)"/>
  <defs>
    <linearGradient id="paint0_linear_35191_14201" x1="5" y1="7.49967" x2="19.5833" y2="7.49967" gradientUnits="userSpaceOnUse">
      <stop stop-color="#00C07D"/>
      <stop offset="1" stop-color="#00A1B6"/>
    </linearGradient>
    <linearGradient id="paint1_linear_35191_14201" x1="0.833984" y1="10" x2="18.3348" y2="10" gradientUnits="userSpaceOnUse">
      <stop stop-color="#00C07D"/>
      <stop offset="1" stop-color="#00A1B6"/>
    </linearGradient>
  </defs>
</svg>
