<svg width="32" height="33" viewBox="0 0 32 33" fill="none" xmlns="http://www.w3.org/2000/svg">
  <path d="M29.3333 3.83301L16 15.833L10 11.1663L8 13.1663L16 21.1663L31.3333 5.16634L29.3333 3.83301Z" fill="url(#paint0_linear_35391_21663)"/>
  <path d="M15.334 30.5001C11.621 30.5001 8.06 29.0251 5.43449 26.3996C2.80898 23.7741 1.33398 20.2131 1.33398 16.5001C1.33398 12.7871 2.80898 9.22613 5.43449 6.60062C8.06 3.97511 11.621 2.50012 15.334 2.50012C17.9361 2.48931 20.4875 3.21881 22.6907 4.60345C22.8401 4.69805 22.9458 4.84812 22.9845 5.02065C23.0233 5.19318 22.9919 5.37405 22.8973 5.52345C22.8027 5.67286 22.6527 5.77857 22.4801 5.81732C22.3076 5.85608 22.1267 5.82471 21.9773 5.73012C19.9876 4.48066 17.6835 3.82285 15.334 3.83345C12.8288 3.83345 10.3798 4.57634 8.29676 5.96817C6.21374 7.36 4.59022 9.33826 3.63151 11.6528C2.6728 13.9673 2.42196 16.5142 2.9107 18.9713C3.39945 21.4284 4.60583 23.6853 6.3773 25.4568C8.14876 27.2283 10.4057 28.4347 12.8628 28.9234C15.3199 29.4121 17.8668 29.1613 20.1813 28.2026C22.4958 27.2439 24.4741 25.6204 25.8659 23.5373C27.2578 21.4543 28.0007 19.0053 28.0007 16.5001C28.0181 15.3695 27.8701 14.2425 27.5613 13.1548C27.5171 12.987 27.54 12.8085 27.6253 12.6573C27.7105 12.5062 27.8514 12.3942 28.0179 12.3452C28.1844 12.2963 28.3634 12.3142 28.5169 12.3951C28.6705 12.4761 28.7863 12.6137 28.84 12.7788C29.186 13.9883 29.3524 15.2422 29.334 16.5001C29.3298 20.2118 27.8534 23.7703 25.2288 26.3949C22.6042 29.0195 19.0457 30.4959 15.334 30.5001Z" fill="url(#paint1_linear_35391_21663)"/>
  <defs>
    <linearGradient id="paint0_linear_35391_21663" x1="8" y1="12.4997" x2="31.3333" y2="12.4997" gradientUnits="userSpaceOnUse">
      <stop stop-color="#00C07D"/>
      <stop offset="1" stop-color="#00A1B6"/>
    </linearGradient>
    <linearGradient id="paint1_linear_35391_21663" x1="1.33398" y1="16.5001" x2="29.3354" y2="16.5001" gradientUnits="userSpaceOnUse">
      <stop stop-color="#00C07D"/>
      <stop offset="1" stop-color="#00A1B6"/>
    </linearGradient>
  </defs>
</svg>
