<svg width="300" height="300" viewBox="0 0 300 300" fill="none" xmlns="http://www.w3.org/2000/svg">
  <path d="M139.723 251.945C196.025 251.945 241.667 206.302 241.667 150C241.667 93.6977 196.025 48.0557 139.723 48.0557C83.4204 48.0557 37.7783 93.6977 37.7783 150C37.7783 206.302 83.4204 251.945 139.723 251.945Z" fill="white"/>
  <path d="M249.028 82.7773H190.417C185.585 82.7773 181.667 86.6949 181.667 91.5273C181.667 96.3598 185.585 100.277 190.417 100.277H249.028C253.861 100.277 257.778 96.3598 257.778 91.5273C257.778 86.6949 253.861 82.7773 249.028 82.7773Z" fill="white"/>
  <path d="M232.916 217.223H191.527C186.695 217.223 182.777 221.14 182.777 225.973C182.777 230.805 186.695 234.723 191.527 234.723H232.916C237.749 234.723 241.666 230.805 241.666 225.973C241.666 221.14 237.749 217.223 232.916 217.223Z" fill="white"/>
  <path d="M280.14 122.778H231.807C226.974 122.778 223.057 126.696 223.057 131.528C223.057 136.361 226.974 140.278 231.807 140.278H280.14C284.972 140.278 288.89 136.361 288.89 131.528C288.89 126.696 284.972 122.778 280.14 122.778Z" fill="white"/>
  <path d="M261.528 171.389H251.806C246.973 171.389 243.056 175.306 243.056 180.139C243.056 184.971 246.973 188.889 251.806 188.889H261.528C266.36 188.889 270.278 184.971 270.278 180.139C270.278 175.306 266.36 171.389 261.528 171.389Z" fill="white"/>
  <path d="M278.751 83.8887H276.807C271.974 83.8887 268.057 87.8062 268.057 92.6387C268.057 97.4712 271.974 101.389 276.807 101.389H278.751C283.584 101.389 287.501 97.4712 287.501 92.6387C287.501 87.8062 283.584 83.8887 278.751 83.8887Z" fill="white"/>
  <path d="M139.722 234.166C186.206 234.166 223.889 196.484 223.889 150C223.889 103.516 186.206 65.833 139.722 65.833C93.2384 65.833 55.5557 103.516 55.5557 150C55.5557 196.484 93.2384 234.166 139.722 234.166Z" fill="url(#paint0_linear_35202_1714)"/>
  <path d="M137.779 164.722C147.904 164.722 156.112 156.514 156.112 146.389C156.112 136.264 147.904 128.056 137.779 128.056C127.653 128.056 119.445 136.264 119.445 146.389C119.445 156.514 127.653 164.722 137.779 164.722Z" fill="white"/>
  <path d="M146.666 179.305V169.583C146.666 164.751 142.749 160.833 137.916 160.833C133.084 160.833 129.166 164.751 129.166 169.583V179.305C129.166 184.138 133.084 188.055 137.916 188.055C142.749 188.055 146.666 184.138 146.666 179.305Z" fill="white"/>
  <defs>
    <linearGradient id="paint0_linear_35202_1714" x1="55.5557" y1="150" x2="223.889" y2="150" gradientUnits="userSpaceOnUse">
      <stop stop-color="#0071BC"/>
      <stop offset="0.4" stop-color="#1797D5"/>
      <stop offset="1" stop-color="#61FFF7"/>
    </linearGradient>
  </defs>
</svg>
