<svg xmlns="http://www.w3.org/2000/svg" width="14" height="14" viewBox="0 0 14 14" fill="none">
<path d="M4.54242 11.5186L4.54225 11.5184L4.53853 11.5234C4.38689 11.7278 4.40366 12.0177 4.58899 12.203C4.79279 12.4068 5.12322 12.4068 5.32703 12.203L9.41036 8.11967L9.41052 8.11983L9.41457 8.11515L9.45693 8.06608L9.4571 8.06623L9.46082 8.06122C9.61246 7.85685 9.59569 7.56696 9.41036 7.38163L5.32703 3.2983L5.32719 3.29814L5.3225 3.29409L5.27343 3.25173L5.27359 3.25156L5.26857 3.24784C5.06421 3.0962 4.77432 3.11297 4.58899 3.2983L4.58883 3.29814L4.58478 3.30282L4.54242 3.35189L4.54225 3.35174L4.53853 3.35675C4.38689 3.56112 4.40366 3.85101 4.58898 4.03634L8.3031 7.75065L4.58898 11.465L4.58882 11.4648L4.58478 11.4695L4.54242 11.5186Z" fill="#585B7F" stroke="#585B7F" stroke-width="0.16875"/>
</svg>