<svg xmlns="http://www.w3.org/2000/svg" width="51" height="37" viewBox="0 0 51 37" fill="none">
<path d="M45.5659 0.500427C43.6771 0.500427 41.9234 1.19171 40.934 2.32812L30.2737 13.5004C29.9264 13.8687 30.0673 14.365 30.589 14.6102C31.0118 14.8092 31.5711 14.7846 31.9563 14.5507L42.4495 8.12608C42.6238 8.01532 42.8925 8.0266 43.0495 8.14967C43.1207 8.20608 43.1585 8.27891 43.1585 8.35378V28.4687C43.1585 28.6348 42.9681 28.7682 42.7327 28.7682C42.6062 28.7682 42.4873 28.7292 42.4073 28.6605L10.6879 1.85838C9.65487 0.997867 8.13798 0.501454 6.54118 0.500427H5.43259C2.43223 0.500427 0 2.21736 0 4.33531V32.6656C0 34.7836 2.43223 36.5005 5.43259 36.5005C7.32142 36.5005 9.07513 35.8093 10.0646 34.6728L20.725 23.5005C21.0721 23.1322 20.9312 22.6359 20.4095 22.3907C19.9867 22.1918 19.4274 22.2164 19.0424 22.4502L8.54916 28.8749C8.37481 28.9856 8.10602 28.9743 7.9491 28.8512C7.8779 28.7948 7.84012 28.722 7.84158 28.6471V8.52712C7.84158 8.36096 8.0319 8.22762 8.26728 8.22762C8.39224 8.22762 8.51283 8.2666 8.59275 8.33532L40.3079 35.1425C41.3408 36.0031 42.8577 36.4995 44.4545 36.5005H45.5631C48.5634 36.5016 50.9972 34.7856 51 32.6677V4.33531C51 2.21736 48.5663 0.500427 45.5659 0.500427Z" fill="#00EC97"/>
</svg>