<svg xmlns="http://www.w3.org/2000/svg" width="14" height="20" viewBox="0 0 14 20" fill="none">
<path d="M4.02578 4.96104L2.98682 4.48052L9.48032 0L7.9089 2.28572L4.02578 4.96104Z" fill="#8B35D6"/>
<path d="M9.48047 0L10.3116 0.766233L14 6.81818L13.1688 6.05195L9.48047 0Z" fill="#9D43FF"/>
<path d="M2.18159 11.8831L0.662109 13.1688L2.98678 4.48047L4.02575 4.96099L2.18159 11.8831Z" fill="#6D2AA8"/>
<path d="M7.90918 2.28572L9.48061 0L13.1689 6.05195L10.104 5.8961L7.90918 2.28572Z" fill="#ED97FF"/>
<path d="M13.1684 6.05176L13.9996 6.81799L11.6879 15.5193L10.8438 14.7401L13.1684 6.05176Z" fill="#863ADB"/>
<path d="M10.8441 14.7402L11.6883 15.5195L5.18176 20L4.35059 19.2337L10.8441 14.7402Z" fill="#6D2AA8"/>
<path d="M4.3764 15.5067L4.35042 19.234L0.662109 13.169L2.18159 11.8833L4.3764 15.5067Z" fill="#7B35C9"/>
<path d="M10.1034 5.896L13.1684 6.05184L10.8437 14.7402L8.25928 12.8311L10.1034 5.896Z" fill="#9D43FF"/>
<path d="M7.90892 2.28564L10.1037 5.89603L8.25956 12.8311L4.37645 15.5064L2.18164 11.883L4.0258 4.96097L7.90892 2.28564Z" fill="#BD59FF"/>
<path d="M8.25968 12.8311L10.8441 14.7401L4.35059 19.2337L4.37656 15.5064L8.25968 12.8311Z" fill="#863ADB"/>
<g opacity="0.3">
<path d="M9.10315 4.24619L7.90834 2.28516L4.02522 4.96048L3.33691 7.5449L9.10315 4.24619Z" fill="#ED97FF"/>
<path d="M8.25931 12.8306L9.35022 8.70068L2.58398 12.5578L4.37619 15.5059L8.25931 12.8306Z" fill="#ED97FF"/>
</g>
</svg>