<svg xmlns="http://www.w3.org/2000/svg" width="16" height="16" viewBox="0 0 16 16" fill="none">
<path d="M10.36 12.3607C9.85331 12.8673 9.18466 13.148 8.47332 13.162V14C8.47332 14.276 8.24932 14.5 7.97332 14.5C7.69732 14.5 7.47332 14.276 7.47332 14V13.1567C6.12199 13.104 5.00265 12.0793 4.84999 10.7227C4.81932 10.448 5.01665 10.2007 5.29065 10.17C5.56732 10.1353 5.81265 10.3367 5.84332 10.6107C5.94332 11.498 6.68998 12.1667 7.57998 12.1667H8.41999C8.88399 12.1667 9.32199 11.9847 9.65265 11.6527C9.98465 11.3213 10.1667 10.884 10.1667 10.4194C10.1667 9.61869 9.62266 8.92137 8.84399 8.72404L6.91331 8.24463C6.31731 8.0933 5.78532 7.74603 5.41265 7.26603C5.04065 6.7947 4.83398 6.19535 4.83398 5.57935C4.83398 4.10135 6.00998 2.90068 7.47398 2.84334V2C7.47398 1.724 7.69798 1.5 7.97398 1.5C8.24998 1.5 8.47398 1.724 8.47398 2V2.83797C9.84932 2.86531 10.996 3.90201 11.1507 5.27734C11.1813 5.55201 10.984 5.79933 10.71 5.83C10.4293 5.86266 10.188 5.66332 10.1573 5.38932C10.0573 4.50199 9.31065 3.83333 8.42065 3.83333H7.58065C6.61732 3.83333 5.83399 4.61666 5.83399 5.58C5.83399 5.97133 5.96398 6.35132 6.19932 6.64998C6.43865 6.95865 6.77799 7.17931 7.15665 7.27531L9.08799 7.75464C10.3133 8.06531 11.1673 9.16134 11.1673 10.42C11.1667 11.1513 10.88 11.8407 10.36 12.3607Z" fill="white" fill-opacity="0.7"/>
<path d="M10.7213 5.92935C11.0502 5.89242 11.2868 5.59556 11.25 5.26625L11.25 5.26617C11.0934 3.87355 9.95534 2.81596 8.57398 2.7416V2C8.57398 1.66877 8.30521 1.4 7.97398 1.4C7.64276 1.4 7.37398 1.66877 7.37398 2V2.74879C5.90199 2.85572 4.73398 4.07939 4.73398 5.57935C4.73398 6.21724 4.94786 6.83839 5.33391 7.32768C5.72037 7.82529 6.27148 8.18483 6.8887 8.34155L6.88922 8.34168L8.81942 8.82098C8.81949 8.82099 8.81955 8.82101 8.81961 8.82102C9.55401 9.00723 10.0667 9.66472 10.0667 10.4194C10.0667 10.8572 9.89537 11.2692 9.58201 11.5819L9.5818 11.5821C9.26979 11.8954 8.85725 12.0667 8.41999 12.0667H7.57998C6.74109 12.0667 6.03701 11.4365 5.94269 10.5995C5.90602 10.2723 5.61246 10.0293 5.27887 10.0707C4.95018 10.1078 4.71385 10.4046 4.7506 10.7338L4.75061 10.7338C4.90523 12.1078 6.01644 13.153 7.37332 13.2512V14C7.37332 14.3312 7.64209 14.6 7.97332 14.6C8.30455 14.6 8.57332 14.3312 8.57332 14V13.2584C9.27351 13.2212 9.9289 12.9332 10.4307 12.4314C10.9693 11.8928 11.2666 11.1781 11.2673 10.4201V10.42C11.2673 9.11539 10.3821 7.97957 9.11256 7.6577L9.11208 7.65758L7.18123 7.17838C7.18112 7.17835 7.18102 7.17832 7.18091 7.1783C6.82376 7.08768 6.5038 6.87948 6.27834 6.58871L6.27786 6.58809C6.05682 6.30756 5.93399 5.94952 5.93399 5.58C5.93399 4.67189 6.67255 3.93333 7.58065 3.93333H8.42065C9.25951 3.93333 9.96357 4.56351 10.0579 5.40045M10.7213 5.92935C10.3845 5.96844 10.0946 5.72817 10.0579 5.40045M10.7213 5.92935C10.7214 5.92934 10.7215 5.92934 10.7215 5.92933L10.71 5.83M10.7213 5.92935C10.7213 5.92936 10.7212 5.92937 10.7211 5.92938L10.71 5.83M10.0579 5.40045L10.1573 5.38932M10.0579 5.40045C10.0579 5.40047 10.0579 5.4005 10.0579 5.40052L10.1573 5.38932M10.1573 5.38932C10.188 5.66332 10.4293 5.86266 10.71 5.83M10.1573 5.38932C10.0573 4.50199 9.31065 3.83333 8.42065 3.83333H7.58065C6.61732 3.83333 5.83399 4.61666 5.83399 5.58C5.83399 5.97133 5.96398 6.35132 6.19932 6.64998L10.71 5.83" stroke="white" stroke-opacity="0.7" stroke-width="0.2"/>
</svg>