<svg xmlns="http://www.w3.org/2000/svg" width="49" height="49" viewBox="0 0 49 49" fill="none">
<path fill-rule="evenodd" clip-rule="evenodd" d="M24.5 49.0001C11.025 49.0001 0 37.9751 0 24.3775C0.1225 10.9025 11.025 -0.122466 24.6225 3.45007e-05C38.0975 0.122535 49 11.025 49 24.745C48.8775 38.0975 37.975 49.0001 24.5 49.0001Z" fill="#0090FF"/>
<path fill-rule="evenodd" clip-rule="evenodd" d="M26.8272 21.5589L26.0922 25.4789L33.0747 26.4589L32.5847 28.2964L25.7247 27.3164C25.2347 28.9089 24.9897 30.6239 24.3772 32.0939C23.7647 33.8089 23.1522 35.5239 22.4172 37.1164C21.4372 39.1989 19.7222 40.6689 17.3947 41.0364C16.0472 41.2814 14.5772 41.1589 13.4747 40.3014C13.1072 40.0564 12.7397 39.5664 12.7397 39.1989C12.7397 38.7089 12.9847 38.0964 13.3522 37.8514C13.5972 37.7289 14.2097 37.8514 14.5772 37.9739C14.9447 38.3414 15.3122 38.8314 15.5572 39.3214C16.2922 40.3014 17.2722 40.4239 18.2522 39.6889C19.3547 38.7089 19.9672 37.3614 20.3347 36.0139C21.0697 33.0739 21.8047 30.2564 22.4172 27.3164V26.8264L15.9247 25.8464L16.1697 24.0089L22.9072 24.9889L23.7647 21.1914L16.7822 20.0889L17.0272 18.1289L24.2547 19.1089C24.4997 18.3739 24.6222 17.7614 24.8672 17.1489C25.4797 14.9439 26.0922 12.7389 27.5622 10.7789C29.0322 8.81892 30.7472 7.59392 33.3197 7.71642C34.4222 7.71642 35.5247 8.08392 36.2597 8.94142C36.3822 9.06392 36.6272 9.30892 36.6272 9.55392C36.6272 10.0439 36.6272 10.6564 36.2597 11.0239C35.7697 11.3914 35.1572 11.2689 34.6672 10.7789C34.2997 10.4114 34.0547 10.0439 33.6872 9.67642C32.9522 8.69642 31.8497 8.57392 30.9922 9.43142C30.3797 10.0439 29.7672 10.9014 29.3997 11.7589C28.5422 14.3314 27.9297 17.0264 27.0722 19.7214L33.8097 20.7014L33.3197 22.5389L26.8272 21.5589Z" fill="white"/>
</svg>