<svg width="24" height="32" viewBox="0 0 24 32" fill="none" xmlns="http://www.w3.org/2000/svg">
<path fill-rule="evenodd" clip-rule="evenodd" d="M16.982 3.35352C16.6523 3.35352 16.3851 3.62073 16.3851 3.95036V5.14404H12.9533C12.6237 5.14404 12.3564 5.41126 12.3564 5.74089V18.573C12.3564 18.9026 12.6237 19.1698 12.9533 19.1698H15.4899V18.573C15.4899 17.9137 16.0243 17.3793 16.6836 17.3793H19.0709C19.7302 17.3793 20.2646 17.9137 20.2646 18.573V19.1698H23.398C23.7277 19.1698 23.9949 18.9026 23.9949 18.573V5.74089C23.9949 5.41126 23.7277 5.14404 23.398 5.14404H19.9662V3.95036C19.9662 3.62073 19.699 3.35352 19.3693 3.35352H16.982ZM16.6919 15.8873L14.3547 6.69589H16.1404L18.0838 14.7712H18.2676L20.2109 6.69589H21.9967L19.6594 15.8873H16.6919Z" fill="black"/>
<path fill-rule="evenodd" clip-rule="evenodd" d="M5.04449 17.9741C4.71486 17.9741 4.44764 18.2413 4.44764 18.571V19.7646H0.602214C0.272587 19.7646 0.00537109 20.0319 0.00537109 20.3615V31.4031C0.00537109 31.7327 0.272586 31.9999 0.602213 31.9999H23.3974C23.727 31.9999 23.9942 31.7327 23.9942 31.4031V20.3615C23.9942 20.0319 23.727 19.7646 23.3974 19.7646H19.6671V18.571C19.6671 18.2413 19.3999 17.9741 19.0703 17.9741H16.6829C16.3533 17.9741 16.0861 18.2413 16.0861 18.571V19.7646H8.0287V18.571C8.0287 18.2413 7.76148 17.9741 7.43186 17.9741H5.04449ZM7.13343 21.2865V30.4779H8.81414V22.5601H9.05049L10.6262 30.4779H13.4886L15.0643 22.5601H15.3006V30.4779H16.9813V21.2865H13.7644L12.1756 29.2961H11.9392L10.3504 21.2865H7.13343Z" fill="black"/>
<path d="M4.99689 10.9581H6.62508C7.00149 10.9581 7.30349 10.8662 7.53109 10.6823C7.76744 10.4985 7.88561 10.2359 7.88561 9.89451V9.76321C7.88561 9.42181 7.77181 9.1592 7.54422 8.97538C7.31662 8.79155 7.01024 8.69964 6.62508 8.69964H4.99689V10.9581Z" fill="black"/>
<path d="M4.99689 7.12397H6.59882C6.95772 7.12397 7.25097 7.03206 7.47856 6.84823C7.71491 6.6644 7.83309 6.41054 7.83309 6.08666V5.95535C7.83309 5.62271 7.71929 5.36886 7.49169 5.19378C7.2641 5.00995 6.96647 4.91804 6.59882 4.91804H4.99689V7.12397Z" fill="black"/>
<path fill-rule="evenodd" clip-rule="evenodd" d="M4.6436 0C4.31397 0 4.04675 0.267216 4.04675 0.596843V1.79053H0.614909C0.285282 1.79053 0.0180664 2.05774 0.0180664 2.38737V15.2195C0.0180664 15.5491 0.285282 15.8163 0.614909 15.8163H3.64568V14.7168C3.64568 14.3871 3.91289 14.1199 4.24252 14.1199H7.43204C7.76167 14.1199 8.02889 14.3871 8.02889 14.7168V15.8163H11.0597C11.3893 15.8163 11.6565 15.5491 11.6565 15.2195V2.38737C11.6565 2.05774 11.3893 1.79053 11.0597 1.79053H7.62781V0.596842C7.62781 0.267215 7.3606 0 7.03097 0H4.6436ZM3.64327 2.44711H4.53854V3.34238H6.14649V2.44711H7.04175V3.34954C7.49403 3.37509 7.89349 3.46899 8.24014 3.63125C8.66031 3.81508 8.9842 4.08206 9.2118 4.43221C9.44815 4.77361 9.56632 5.18503 9.56632 5.66648V5.79779C9.56632 6.21796 9.48754 6.56374 9.32997 6.8351C9.1724 7.09771 8.9842 7.30342 8.76536 7.45223C8.55527 7.59229 8.35393 7.69296 8.16135 7.75424V7.99059C8.35393 8.04311 8.56402 8.14378 8.79162 8.29259C9.01921 8.43265 9.2118 8.63836 9.36936 8.90972C9.53568 9.18109 9.61884 9.53561 9.61884 9.9733V10.1046C9.61884 10.6123 9.50067 11.05 9.26432 11.4177C9.02797 11.7766 8.69971 12.0523 8.27953 12.2449C7.92032 12.413 7.50773 12.5078 7.04175 12.5291V13.429H6.14649V12.5338H4.53854V13.429H3.64327V12.5338H2.05565V11.0106H3.26366V4.86552H2.05565V3.34238H3.64327V2.44711Z" fill="black"/>
</svg>
