<svg xmlns="http://www.w3.org/2000/svg" width="50" height="27" viewBox="0 0 50 27" fill="none">
<g clip-path="url(#clip0_13_423)">
<path d="M10.4278 26.1264C7.64279 26.1264 5.36244 25.4722 3.58677 24.1639C1.82979 22.8368 0.951294 20.9303 0.951294 18.4817C0.951294 17.9583 1.00737 17.3415 1.11952 16.5939C1.41858 14.9116 1.84848 12.893 2.40922 10.5192C3.99798 4.08941 8.11007 0.874512 14.7268 0.874512C16.5212 0.874512 18.1473 1.17357 19.5678 1.79038C20.9884 2.36981 22.1099 3.267 22.9323 4.46324C23.7547 5.64079 24.1659 7.04264 24.1659 8.66879C24.1659 9.15476 24.1098 9.77158 23.9977 10.5192C23.6426 12.5939 23.2313 14.6313 22.7267 16.5939C21.9043 19.7901 20.5024 22.2013 18.4838 23.79C16.4838 25.3601 13.7922 26.1264 10.4278 26.1264ZM10.9325 21.0798C12.2409 21.0798 13.3436 20.6873 14.2595 19.9209C15.1941 19.1546 15.867 17.977 16.2595 16.3696C16.8015 14.164 17.2127 12.2575 17.4931 10.6126C17.5866 10.1267 17.6426 9.62205 17.6426 9.09869C17.6426 6.96788 16.5399 5.90247 14.3156 5.90247C13.0072 5.90247 11.8857 6.29499 10.9511 7.06133C10.0353 7.82768 9.38108 9.00523 8.98856 10.6126C8.55866 12.1827 8.14745 14.0892 7.71755 16.3696C7.6241 16.8369 7.56802 17.3228 7.56802 17.8462C7.54933 20.0144 8.6895 21.0798 10.9325 21.0798Z" fill="#FF0420"/>
<path d="M25.8902 25.7806C25.6285 25.7806 25.4416 25.7059 25.2921 25.5376C25.1799 25.3507 25.1425 25.1451 25.1799 24.9021L30.021 2.09877C30.0583 1.83709 30.1892 1.63149 30.4135 1.46327C30.6191 1.29505 30.8434 1.22028 31.0864 1.22028H40.4133C43.0114 1.22028 45.0862 1.76233 46.6562 2.82774C48.245 3.91183 49.0487 5.46321 49.0487 7.50057C49.0487 8.08 48.974 8.69681 48.8431 9.33232C48.2637 12.0238 47.0861 14.0051 45.2918 15.2948C43.5348 16.5845 41.1236 17.22 38.0582 17.22H33.3293L31.7219 24.9021C31.6658 25.1638 31.5536 25.3694 31.3294 25.5376C31.1237 25.7059 30.8995 25.7806 30.6565 25.7806H25.8902ZM38.3012 12.379C39.2919 12.379 40.133 12.1173 40.8619 11.5752C41.6096 11.0332 42.0956 10.2668 42.3385 9.25755C42.4133 8.86503 42.4507 8.5099 42.4507 8.21084C42.4507 7.53795 42.2451 7.01459 41.8526 6.65946C41.4601 6.28563 40.7685 6.09872 39.8152 6.09872H35.6097L34.2826 12.379H38.3012Z" fill="#FF0420"/>
</g>
<defs>
<clipPath id="clip0_13_423">
<rect width="49" height="27" fill="white" transform="translate(0.5 0.000244141)"/>
</clipPath>
</defs>
</svg>