<svg xmlns="http://www.w3.org/2000/svg" width="45" height="41" viewBox="0 0 45 41" fill="none">
<path d="M33.4107 28.7722L44.0845 22.5096C44.6503 22.1769 45 21.56 45 20.8979V8.37264C45 7.71052 44.6503 7.09364 44.0845 6.76095L33.4107 0.498319C32.8448 0.165654 32.1424 0.168886 31.5798 0.498319L20.9058 6.76095C20.3402 7.09364 19.9905 7.71052 19.9905 8.37264V30.7553L12.5048 35.1447L5.01907 30.7553V21.9735L12.5048 17.5842L17.4413 20.4812V14.59L13.4201 12.2291C13.1436 12.0676 12.8259 11.9804 12.5048 11.9804C12.1836 11.9804 11.8659 12.0676 11.5894 12.2291L0.915457 18.4917C0.349657 18.8243 0 19.4413 0 20.1034V32.6287C0 33.2908 0.349657 33.9076 0.915457 34.2403L11.5894 40.503C12.1551 40.8324 12.8545 40.8324 13.4201 40.503L24.0941 34.2403C24.6599 33.9076 25.0094 33.2908 25.0094 32.6287V10.2427L25.143 10.1652L32.4921 5.85338L39.9778 10.2427V19.0247L32.4921 23.414L27.5619 20.5232V26.4145L31.5765 28.7691C32.1424 29.0985 32.8448 29.0985 33.4075 28.7691L33.4107 28.7722Z" fill="#4F43E2"/>
</svg>