<svg width="20" height="20" viewBox="0 0 20 20" fill="none" xmlns="http://www.w3.org/2000/svg">
<g clip-path="url(#clip0_37438_4451)">
<path d="M9.98565 1.23747e-05C5.67737 0.00774675 2.18726 3.50263 2.18726 7.81275V18.6979C2.18726 19.2779 2.88854 19.5684 3.2987 19.1583L4.79151 17.622L6.93538 19.8093C7.18968 20.0636 7.6019 20.0636 7.85616 19.8093L9.99999 17.622L12.1439 19.8093C12.3981 20.0636 12.8103 20.0636 13.0646 19.8093L15.2085 17.622L16.7013 19.1583C17.1114 19.5684 17.8128 19.2779 17.8128 18.6979V7.87966C17.8127 3.5747 14.2906 -0.00768294 9.98565 1.23747e-05Z" fill="#333333"/>
<path d="M4.375 10L8.125 6.25" stroke="white" stroke-width="1.875"/>
<path d="M8.125 10L4.375 6.25" stroke="white" stroke-width="1.875"/>
<path d="M11.875 10L15.625 6.25" stroke="white" stroke-width="1.875"/>
<path d="M15.625 10L11.875 6.25" stroke="white" stroke-width="1.875"/>
</g>
<defs>
<clipPath id="clip0_37438_4451">
<rect width="20" height="20" fill="white"/>
</clipPath>
</defs>
</svg>
