<svg width="20" height="20" viewBox="0 0 20 20" fill="none" xmlns="http://www.w3.org/2000/svg">
<g clip-path="url(#clip0_37438_5944)">
<path d="M9.81955 10.9014L16.0992 9.17643C16.5313 9.05807 16.6762 8.5151 16.3582 8.19713L14.4953 6.33424L12.7879 8.04127C12.5603 8.26963 12.1881 8.27037 11.9594 8.04088C11.7305 7.81237 11.7309 7.44127 11.9598 7.21237L13.6664 5.50533L11.8035 3.64244C11.4856 3.32447 10.9426 3.4694 10.8242 3.90143L9.09924 10.1811C8.97853 10.6206 9.38361 11.0213 9.81955 10.9014Z" fill="#E59700"/>
<path d="M16.0715 4.7575L16.3431 5.02902C16.5124 5.1984 16.7871 5.1984 16.9564 5.02902L19.8731 2.11234C20.0425 1.94297 20.0425 1.66836 19.8731 1.49898L18.5012 0.127031C18.3318 -0.0423438 18.0572 -0.0423438 17.8878 0.127031L14.9711 3.04371C14.8017 3.21309 14.8017 3.4877 14.9711 3.65707L15.2426 3.92855L13.6665 5.50469L14.4954 6.33359L16.0715 4.7575Z" fill="#E59700"/>
<path d="M0.41 11.6566H6.87242C7.09887 11.6566 7.28242 11.4731 7.28242 11.2466V9.06625C7.28242 8.8398 7.09887 8.65625 6.87242 8.65625H0.41C0.183555 8.65625 0 8.8398 0 9.06625V11.2466C0 11.4731 0.183555 11.6566 0.41 11.6566Z" fill="#E59700"/>
<path d="M6.87242 17H0.41C0.183555 17 0 17.1836 0 17.41V19.5904C0 19.8168 0.183555 20.0004 0.41 20.0004H6.87242C7.09887 20.0004 7.28242 19.8168 7.28242 19.5904V17.41C7.28242 17.1836 7.09887 17 6.87242 17Z" fill="#E59700"/>
<path d="M4.6373 12.8281C4.41085 12.8281 4.22729 13.0117 4.22729 13.2381V15.4181C4.22729 15.6446 4.41085 15.8281 4.6373 15.8281H11.0998C11.3262 15.8281 11.5098 15.6446 11.5098 15.4181V13.2381C11.5098 13.0117 11.3262 12.8281 11.0998 12.8281H4.6373Z" fill="#E59700"/>
<path d="M15.3268 17H8.86435C8.6379 17 8.45435 17.1836 8.45435 17.41V19.5904C8.45435 19.8168 8.6379 20.0004 8.86435 20.0004H15.3268C15.5532 20.0004 15.7368 19.8168 15.7368 19.5904V17.41C15.7368 17.1836 15.5532 17 15.3268 17Z" fill="#E59700"/>
<path d="M19.5537 12.8281H13.0916C12.8652 12.8281 12.6816 13.0117 12.6816 13.2381V15.4181C12.6816 15.6446 12.8652 15.8281 13.0916 15.8281H19.5537C19.7801 15.8281 19.9637 15.6446 19.9637 15.4181V13.2381C19.9637 13.0117 19.7801 12.8281 19.5537 12.8281Z" fill="#E59700"/>
</g>
<defs>
<clipPath id="clip0_37438_5944">
<rect width="20" height="20" fill="white"/>
</clipPath>
</defs>
</svg>
