<svg width="20" height="21" viewBox="0 0 20 21" fill="none" xmlns="http://www.w3.org/2000/svg">
<g clip-path="url(#clip0_38281_2941)">
<path d="M16.4116 6.80748L17.1847 6.056C17.4851 5.76398 17.4851 5.29049 17.1847 4.99861C16.8843 4.70659 16.3973 4.70659 16.0969 4.99861L15.3238 5.75009C14.0267 4.69957 12.4506 4.06493 10.7693 3.91636V2.41151H11.5129C11.9378 2.41151 12.2821 2.07664 12.2821 1.66369C12.2821 1.25074 11.9378 0.916016 11.5129 0.916016H8.48722C8.06239 0.916016 7.71804 1.25074 7.71804 1.66369C7.71804 2.07664 8.06239 2.41151 8.48722 2.41151H9.23083V3.91636C5.02223 4.28837 1.66675 7.72507 1.66675 11.9823C1.66675 16.4592 5.3938 20.0827 10.0002 20.0827C14.6058 20.0827 18.3334 16.4598 18.3334 11.9823C18.3334 10.0699 17.6559 8.25881 16.4116 6.80748ZM10 18.5872C6.25339 18.5872 3.20511 15.6243 3.20511 11.9823C3.20511 8.34041 6.25339 5.37749 10 5.37749C13.7468 5.37749 16.7949 8.34041 16.7949 11.9823C16.7949 15.6243 13.7468 18.5872 10 18.5872ZM13.5649 8.5172C13.8653 8.80922 13.8653 9.28271 13.5649 9.57459L10.544 12.511C10.2436 12.8031 9.75645 12.8031 9.45618 12.511C9.15576 12.219 9.15576 11.7455 9.45618 11.4536L12.4769 8.5172C12.7774 8.22518 13.2645 8.22518 13.5649 8.5172Z" fill="#333333"/>
</g>
<defs>
<clipPath id="clip0_38281_2941">
<rect width="20" height="20" fill="white" transform="translate(0 0.5)"/>
</clipPath>
</defs>
</svg>
