<svg width="20" height="20" viewBox="0 0 20 20" fill="none" xmlns="http://www.w3.org/2000/svg">
<g clip-path="url(#clip0_37438_5033)">
<path d="M9.99998 4C10.4675 4 10.75 3.745 10.75 3.43333V1.56667C10.75 1.255 10.4675 1 9.99998 1C9.53248 1 9.25 1.255 9.25 1.56667V3.43333C9.25 3.745 9.53248 4 9.99998 4Z" fill="#FF4747"/>
<path d="M2.55 10.0664H0.85C0.3825 10.0664 0 10.3214 0 10.6331C0 10.9447 0.3825 11.1997 0.85 11.1997H2.55C3.0175 11.1997 3.4 10.9447 3.4 10.6331C3.4 10.3214 3.0175 10.0664 2.55 10.0664Z" fill="#FF4747"/>
<path d="M19.15 10.0664H17.45C16.9825 10.0664 16.6 10.3214 16.6 10.6331C16.6 10.9447 16.9825 11.1997 17.45 11.1997H19.15C19.6175 11.1997 20 10.9447 20 10.6331C20 10.3214 19.6175 10.0664 19.15 10.0664Z" fill="#FF4747"/>
<path d="M4.32669 5.34105C4.45983 5.47429 4.62625 5.53424 4.79933 5.53424C4.97241 5.53424 5.13883 5.46763 5.27197 5.34105C5.53158 5.08124 5.53158 4.66155 5.27197 4.40174L4.33335 3.46243C4.07373 3.20263 3.65434 3.20263 3.39473 3.46243C3.13511 3.72224 3.13511 4.14194 3.39473 4.40174L4.33335 5.34105H4.32669Z" fill="#FF4747"/>
<path d="M15.194 5.53424C15.3671 5.53424 15.5335 5.46763 15.6667 5.34105L16.6053 4.40174C16.8649 4.14194 16.8649 3.72224 16.6053 3.46243C16.3457 3.20263 15.9263 3.20263 15.6667 3.46243L14.728 4.40174C14.4684 4.66155 14.4684 5.08124 14.728 5.34105C14.8612 5.47429 15.0276 5.53424 15.2007 5.53424H15.194Z" fill="#FF4747"/>
<path d="M15.44 14.5996H4.56001C3.8089 14.5996 3.20001 15.2085 3.20001 15.9596V16.6396C3.20001 17.3907 3.8089 17.9996 4.56001 17.9996H15.44C16.1911 17.9996 16.8 17.3907 16.8 16.6396V15.9596C16.8 15.2085 16.1911 14.5996 15.44 14.5996Z" fill="#FF4747"/>
<path d="M4.33331 13.4665H15.6666V10.8217C15.6666 7.78672 12.9112 5.34023 9.6104 5.54521C6.59998 5.73035 4.33331 8.19667 4.33331 11.0068V13.4665ZM9.29165 8.17684C9.68123 8.17684 9.99998 8.47438 9.99998 8.83805C9.99998 9.20171 9.68123 9.49926 9.29165 9.49926C8.90206 9.49926 8.58331 9.79681 8.58331 10.1605C8.58331 10.5241 8.26456 10.8217 7.87498 10.8217C7.4854 10.8217 7.16665 10.5241 7.16665 10.1605C7.16665 9.06947 8.1229 8.17684 9.29165 8.17684Z" fill="#FF4747"/>
</g>
<defs>
<clipPath id="clip0_37438_5033">
<rect width="20" height="20" fill="white"/>
</clipPath>
</defs>
</svg>
