<svg width="20" height="20" viewBox="0 0 20 20" fill="none" xmlns="http://www.w3.org/2000/svg">
<g clip-path="url(#clip0_37438_5972)">
<path d="M3.6106 13.1431L2.53657 14.3969C2.23772 14.7459 2.11901 15.2041 2.21083 15.6541L2.89871 19.0267C2.96833 19.368 3.20386 19.6467 3.52873 19.7724C3.85364 19.8979 4.21541 19.8501 4.49649 19.6444L5.72729 18.7437C4.65357 17.1714 3.9306 15.2548 3.6106 13.1431Z" fill="#4185EC"/>
<path d="M14.272 18.742L15.5028 19.6427C15.7839 19.8483 16.1457 19.8962 16.4706 19.7706C16.6057 19.7183 16.7254 19.6396 16.8241 19.5409C16.9627 19.4023 17.06 19.2243 17.1006 19.0249L17.7886 15.6523C17.8804 15.2022 17.7616 14.744 17.4628 14.3952L16.3887 13.1413C16.0687 15.2531 15.3458 17.1697 14.272 18.742Z" fill="#4185EC"/>
<path d="M13.1339 18.9087C13.1709 18.8717 13.205 18.8315 13.236 18.7882C13.6976 18.1412 14.0757 17.4508 14.381 16.7368L5.62048 16.7368C5.92574 17.4508 6.30386 18.1412 6.7655 18.7882C6.94747 19.0432 7.24336 19.1925 7.55664 19.1925L12.4448 19.1925C12.7049 19.1925 12.953 19.0896 13.1339 18.9087Z" fill="#4185EC"/>
<path d="M14.8854 7.02706C13.885 3.8829 11.7348 1.6533 10.6517 0.682288C10.2806 0.349564 9.7195 0.349564 9.34839 0.682314C9.17203 0.840411 8.96725 1.03202 8.74387 1.2554C7.59545 2.40382 5.95224 4.39492 5.11474 7.02709C4.44916 9.11892 4.21153 12.497 5.20849 15.6272C5.23093 15.6244 5.25368 15.6226 5.27687 15.6226L14.7233 15.6226C14.7465 15.6226 14.7692 15.6244 14.7916 15.6272C15.7886 12.497 15.5509 9.11889 14.8854 7.02706ZM7.21688 8.46284C7.21688 6.92827 8.46533 5.67966 10 5.67968C10.7434 5.67966 11.4424 5.96919 11.968 6.49486C12.4937 7.02053 12.7832 7.71946 12.7832 8.46286C12.7832 9.23007 12.471 9.92599 11.9671 10.4299C11.4631 10.934 10.7675 11.246 10.0001 11.246C9.25665 11.246 8.5577 10.9565 8.03203 10.4309C7.50636 9.9052 7.21685 9.20625 7.21688 8.46284Z" fill="#4185EC"/>
<path d="M10.0006 10.1322C10.9213 10.1322 11.6705 9.38311 11.6705 8.46231C11.6705 8.01625 11.4968 7.59691 11.1814 7.2815C10.866 6.96609 10.4466 6.79241 10.0006 6.79241C9.54022 6.79238 9.12273 6.97968 8.82034 7.28208C8.51797 7.58444 8.33067 8.00193 8.3307 8.46231C8.3307 8.90835 8.50435 9.32772 8.81976 9.64313C9.13517 9.95853 9.55454 10.1322 10.0006 10.1322Z" fill="#4185EC"/>
</g>
<defs>
<clipPath id="clip0_37438_5972">
<rect width="20" height="20" fill="white"/>
</clipPath>
</defs>
</svg>
