<svg width="20" height="20" viewBox="0 0 20 20" fill="none" xmlns="http://www.w3.org/2000/svg">
<g clip-path="url(#clip0_37438_5926)">
<path d="M5.33306 5.63086L3.68697 5.75803C3.22894 5.79343 2.821 6.03349 2.56769 6.41664L0.669301 9.28785C0.477187 9.57841 0.446646 9.94204 0.58755 10.2606C0.72849 10.5791 1.01813 10.8011 1.36231 10.8544L2.8695 11.0879C3.22207 9.21682 4.06608 7.35038 5.33306 5.63086Z" fill="#00AA6C"/>
<path d="M8.91199 17.1296L9.14544 18.6368C9.19877 18.9809 9.42075 19.2706 9.73926 19.4115C9.87178 19.4701 10.012 19.4991 10.1516 19.4991C10.3477 19.4991 10.5423 19.442 10.712 19.3297L13.5833 17.4314C13.9665 17.178 14.2065 16.7701 14.2419 16.3121L14.369 14.666C12.6495 15.933 10.7831 16.777 8.91199 17.1296Z" fill="#00AA6C"/>
<path d="M8.34512 16.0868C8.39744 16.0868 8.45007 16.0825 8.50257 16.0738C9.28647 15.9427 10.042 15.7219 10.7627 15.4329L4.56812 9.23828C4.27912 9.95898 4.05832 10.7145 3.92725 11.4984C3.87559 11.8075 3.97924 12.1223 4.20074 12.3438L7.65723 15.8003C7.84114 15.9842 8.08937 16.0868 8.34512 16.0868Z" fill="#00AA6C"/>
<path d="M17.9849 8.92387C19.5008 5.99322 19.557 2.89624 19.4777 1.4438C19.4506 0.946125 19.0538 0.549355 18.5561 0.522228C18.3196 0.509314 18.0394 0.5 17.7234 0.5C16.0993 0.5 13.5295 0.745996 11.0761 2.01502C9.12627 3.02353 6.56957 5.24417 5.06116 8.1625C5.07897 8.17642 5.09637 8.19119 5.11278 8.20759L11.7924 14.8872C11.8088 14.9036 11.8235 14.921 11.8375 14.9388C14.7558 13.4304 16.9764 10.8737 17.9849 8.92387ZM11.5473 4.51669C12.6324 3.43158 14.3981 3.43147 15.4832 4.51669C16.0089 5.04234 16.2984 5.74129 16.2984 6.48469C16.2984 7.2281 16.0089 7.92705 15.4832 8.4527C14.9407 8.99519 14.2279 9.2665 13.5153 9.26657C12.8024 9.26661 12.0899 8.99534 11.5473 8.4527C11.0216 7.92705 10.7321 7.2281 10.7321 6.48469C10.7321 5.74129 11.0216 5.04234 11.5473 4.51669Z" fill="#00AA6C"/>
<path d="M12.3344 7.66633C12.9855 8.31741 14.045 8.31745 14.6961 7.66633C15.0115 7.3509 15.1852 6.93157 15.1852 6.48551C15.1852 6.03946 15.0115 5.62012 14.6961 5.30473C14.3706 4.97917 13.9429 4.81641 13.5153 4.81641C13.0876 4.81641 12.66 4.97917 12.3345 5.30473C12.0191 5.62012 11.8453 6.03946 11.8453 6.48551C11.8453 6.93157 12.019 7.35094 12.3344 7.66633Z" fill="#00AA6C"/>
<path d="M1.06789 16.1572C1.21035 16.1572 1.35282 16.1029 1.46147 15.9942L3.27883 14.1768C3.49622 13.9594 3.49622 13.607 3.27883 13.3896C3.06148 13.1722 2.70901 13.1722 2.49163 13.3896L0.67427 15.207C0.456884 15.4243 0.456884 15.7768 0.67427 15.9942C0.782964 16.1029 0.925427 16.1572 1.06789 16.1572Z" fill="#00AA6C"/>
<path d="M4.9444 15.0556C4.72705 14.8382 4.37458 14.8382 4.15719 15.0556L0.663162 18.5497C0.445775 18.767 0.445775 19.1195 0.663162 19.3369C0.771855 19.4455 0.914318 19.4999 1.05678 19.4999C1.19924 19.4999 1.34171 19.4455 1.45036 19.3368L4.94436 15.8428C5.16178 15.6254 5.16178 15.273 4.9444 15.0556Z" fill="#00AA6C"/>
<path d="M5.82265 16.7197L4.00533 18.537C3.78794 18.7544 3.78794 19.1069 4.00533 19.3242C4.11402 19.4329 4.25648 19.4873 4.39891 19.4873C4.54133 19.4873 4.68383 19.433 4.79249 19.3242L6.60985 17.5069C6.82723 17.2895 6.82723 16.9371 6.60985 16.7197C6.3925 16.5023 6.04003 16.5023 5.82265 16.7197Z" fill="#00AA6C"/>
</g>
<defs>
<clipPath id="clip0_37438_5926">
<rect width="20" height="20" fill="white"/>
</clipPath>
</defs>
</svg>
