<svg width="20" height="20" viewBox="0 0 20 20" fill="none" xmlns="http://www.w3.org/2000/svg">
<g clip-path="url(#clip0_37780_3424)">
<path d="M19.7527 1.08243C19.5878 0.917696 19.3925 0.835057 19.1667 0.835057C18.941 0.835057 18.7459 0.917696 18.5808 1.08243L16.8882 2.76236C15.9594 1.88552 14.8959 1.20612 13.6981 0.72446C12.5003 0.242758 11.2673 0.00195312 9.99992 0.00195312C7.61266 0.00195312 5.52942 0.724505 3.74984 2.16993C1.97021 3.61517 0.798381 5.50084 0.234131 7.82739V7.91846C0.234131 8.0313 0.275314 8.12903 0.357817 8.2114C0.44032 8.2939 0.537919 8.33508 0.650751 8.33508H3.24187C3.43292 8.33508 3.56303 8.23521 3.63254 8.03568C3.99707 7.16768 4.22703 6.65989 4.32262 6.51226C4.93019 5.52268 5.73748 4.74572 6.74449 4.18147C7.75158 3.61727 8.83662 3.33505 9.99973 3.33505C11.7447 3.33505 13.2594 3.92972 14.5442 5.11897L12.7471 6.91575C12.5826 7.08071 12.4998 7.27614 12.4998 7.50184C12.4998 7.72751 12.5825 7.92284 12.7471 8.08776C12.9122 8.25272 13.1076 8.33513 13.3333 8.33513H19.1667C19.3924 8.33513 19.5878 8.25272 19.7527 8.08776C19.9174 7.92284 19.9998 7.72755 19.9998 7.50184V1.66839C19.9998 1.44268 19.9179 1.24744 19.7527 1.08243Z" fill="#E59700"/>
<path d="M19.2576 11.6685H16.7576C16.5666 11.6685 16.4364 11.7683 16.3671 11.968C16.0027 12.8361 15.7725 13.3436 15.6771 13.4912C15.0693 14.4806 14.262 15.2578 13.2553 15.822C12.2481 16.3864 11.1631 16.6683 9.99995 16.6683C9.158 16.6683 8.34628 16.5122 7.56512 16.1998C6.78388 15.887 6.08499 15.4442 5.46875 14.8713L7.25267 13.0875C7.41754 12.9227 7.50004 12.7271 7.50004 12.5016C7.50004 12.2759 7.41754 12.0803 7.25267 11.9157C7.08771 11.7506 6.89247 11.668 6.66676 11.668H0.833301C0.607455 11.668 0.41212 11.7506 0.247205 11.9157C0.0822898 12.0804 -0.00012207 12.276 -0.00012207 12.5016V18.3351C-0.00012207 18.5606 0.0822898 18.7561 0.24725 18.921C0.412302 19.0856 0.607637 19.1685 0.833346 19.1685C1.05901 19.1685 1.25425 19.0857 1.41926 18.921L3.09892 17.2411C4.0278 18.1264 5.08474 18.808 6.26966 19.2854C7.45457 19.763 8.68072 20.0015 9.948 20.0015C12.3266 20.0015 14.4012 19.2788 16.172 17.8336C17.9429 16.3884 19.1061 14.5024 19.6619 12.176C19.6706 12.1587 19.6747 12.1283 19.6747 12.085C19.6747 11.972 19.6333 11.8747 19.5509 11.7919C19.4683 11.7099 19.3706 11.6685 19.2576 11.6685Z" fill="#E59700"/>
</g>
<defs>
<clipPath id="clip0_37780_3424">
<rect width="20" height="20" fill="white"/>
</clipPath>
</defs>
</svg>
