<svg xmlns="http://www.w3.org/2000/svg" width="14" height="15" viewBox="0 0 14 15" fill="none">
  <g clip-path="url(#clip0_37587_3883)">
    <path d="M7.14575 3.5625V6.47917" stroke="#212121" stroke-linecap="round" stroke-linejoin="round"/>
    <path d="M7.14575 8.8125V11.7292" stroke="#212121" stroke-linecap="round" stroke-linejoin="round"/>
    <path d="M3.49536 4.44846L6.12911 2.9668" stroke="#212121" stroke-linecap="round" stroke-linejoin="round"/>
    <path d="M10.7963 4.44846L8.1626 2.9668" stroke="#212121" stroke-linecap="round" stroke-linejoin="round"/>
    <path d="M3.49536 10.8418L6.12911 12.3235" stroke="#212121" stroke-linecap="round" stroke-linejoin="round"/>
    <path d="M10.7963 10.8418L8.1626 12.3235" stroke="#212121" stroke-linecap="round" stroke-linejoin="round"/>
    <path d="M2.47925 6.1875V9.10417" stroke="#212121" stroke-linecap="round" stroke-linejoin="round"/>
    <path d="M11.8125 6.1875V9.10417" stroke="#212121" stroke-linecap="round" stroke-linejoin="round"/>
    <path d="M6.12955 7.07405L3.49463 5.5918" stroke="#212121" stroke-linecap="round" stroke-linejoin="round"/>
    <path d="M8.1626 7.07288L10.7958 5.5918" stroke="#212121" stroke-linecap="round" stroke-linejoin="round"/>
    <path d="M6.12955 8.2168L3.49463 9.69905" stroke="#212121" stroke-linecap="round" stroke-linejoin="round"/>
    <path d="M8.1626 8.2168L10.7958 9.69788" stroke="#212121" stroke-linecap="round" stroke-linejoin="round"/>
    <path d="M2.47917 11.4368C3.1235 11.4368 3.64583 10.9145 3.64583 10.2702C3.64583 9.62585 3.1235 9.10352 2.47917 9.10352C1.83483 9.10352 1.3125 9.62585 1.3125 10.2702C1.3125 10.9145 1.83483 11.4368 2.47917 11.4368Z" stroke="#212121" stroke-linecap="round" stroke-linejoin="round"/>
    <path d="M2.47917 6.18685C3.1235 6.18685 3.64583 5.66451 3.64583 5.02018C3.64583 4.37585 3.1235 3.85352 2.47917 3.85352C1.83483 3.85352 1.3125 4.37585 1.3125 5.02018C1.3125 5.66451 1.83483 6.18685 2.47917 6.18685Z" stroke="#212121" stroke-linecap="round" stroke-linejoin="round"/>
    <path d="M11.8124 11.4368C12.4568 11.4368 12.9791 10.9145 12.9791 10.2702C12.9791 9.62585 12.4568 9.10352 11.8124 9.10352C11.1681 9.10352 10.6458 9.62585 10.6458 10.2702C10.6458 10.9145 11.1681 11.4368 11.8124 11.4368Z" stroke="#212121" stroke-linecap="round" stroke-linejoin="round"/>
    <path d="M11.8124 6.18685C12.4568 6.18685 12.9791 5.66451 12.9791 5.02018C12.9791 4.37585 12.4568 3.85352 11.8124 3.85352C11.1681 3.85352 10.6458 4.37585 10.6458 5.02018C10.6458 5.66451 11.1681 6.18685 11.8124 6.18685Z" stroke="#212121" stroke-linecap="round" stroke-linejoin="round"/>
    <path d="M7.14591 8.81185C7.79025 8.81185 8.31258 8.28951 8.31258 7.64518C8.31258 7.00085 7.79025 6.47852 7.14591 6.47852C6.50158 6.47852 5.97925 7.00085 5.97925 7.64518C5.97925 8.28951 6.50158 8.81185 7.14591 8.81185Z" stroke="#212121" stroke-linecap="round" stroke-linejoin="round"/>
    <path d="M7.14591 3.56185C7.79025 3.56185 8.31258 3.03951 8.31258 2.39518C8.31258 1.75085 7.79025 1.22852 7.14591 1.22852C6.50158 1.22852 5.97925 1.75085 5.97925 2.39518C5.97925 3.03951 6.50158 3.56185 7.14591 3.56185Z" stroke="#212121" stroke-linecap="round" stroke-linejoin="round"/>
    <path d="M7.14591 14.0618C7.79025 14.0618 8.31258 13.5395 8.31258 12.8952C8.31258 12.2509 7.79025 11.7285 7.14591 11.7285C6.50158 11.7285 5.97925 12.2509 5.97925 12.8952C5.97925 13.5395 6.50158 14.0618 7.14591 14.0618Z" stroke="#212121" stroke-linecap="round" stroke-linejoin="round"/>
  </g>
  <defs>
    <clipPath id="clip0_37587_3883">
      <rect width="14" height="14" fill="white" transform="translate(0 0.5)"/>
    </clipPath>
  </defs>
</svg>