<svg xmlns="http://www.w3.org/2000/svg" width="14" height="15" viewBox="0 0 14 15" fill="none">
  <g clip-path="url(#clip0_38295_17113)">
    <path d="M7.14551 3.5625V6.47917" stroke="white" stroke-linecap="round" stroke-linejoin="round"/>
    <path d="M7.14551 8.8125V11.7292" stroke="white" stroke-linecap="round" stroke-linejoin="round"/>
    <path d="M3.49512 4.44846L6.12887 2.9668" stroke="white" stroke-linecap="round" stroke-linejoin="round"/>
    <path d="M10.7959 4.44846L8.16211 2.9668" stroke="white" stroke-linecap="round" stroke-linejoin="round"/>
    <path d="M3.49512 10.8418L6.12887 12.3235" stroke="white" stroke-linecap="round" stroke-linejoin="round"/>
    <path d="M10.7959 10.8418L8.16211 12.3235" stroke="white" stroke-linecap="round" stroke-linejoin="round"/>
    <path d="M2.47949 6.1875V9.10417" stroke="white" stroke-linecap="round" stroke-linejoin="round"/>
    <path d="M11.8125 6.1875V9.10417" stroke="white" stroke-linecap="round" stroke-linejoin="round"/>
    <path d="M6.13003 7.07405L3.49512 5.5918" stroke="white" stroke-linecap="round" stroke-linejoin="round"/>
    <path d="M8.16211 7.07288L10.7953 5.5918" stroke="white" stroke-linecap="round" stroke-linejoin="round"/>
    <path d="M6.13003 8.2168L3.49512 9.69905" stroke="white" stroke-linecap="round" stroke-linejoin="round"/>
    <path d="M8.16211 8.2168L10.7953 9.69788" stroke="white" stroke-linecap="round" stroke-linejoin="round"/>
    <path d="M2.47917 11.4368C3.1235 11.4368 3.64583 10.9145 3.64583 10.2702C3.64583 9.62585 3.1235 9.10352 2.47917 9.10352C1.83483 9.10352 1.3125 9.62585 1.3125 10.2702C1.3125 10.9145 1.83483 11.4368 2.47917 11.4368Z" stroke="white" stroke-linecap="round" stroke-linejoin="round"/>
    <path d="M2.47917 6.18685C3.1235 6.18685 3.64583 5.66451 3.64583 5.02018C3.64583 4.37585 3.1235 3.85352 2.47917 3.85352C1.83483 3.85352 1.3125 4.37585 1.3125 5.02018C1.3125 5.66451 1.83483 6.18685 2.47917 6.18685Z" stroke="white" stroke-linecap="round" stroke-linejoin="round"/>
    <path d="M11.8122 11.4368C12.4565 11.4368 12.9788 10.9145 12.9788 10.2702C12.9788 9.62585 12.4565 9.10352 11.8122 9.10352C11.1678 9.10352 10.6455 9.62585 10.6455 10.2702C10.6455 10.9145 11.1678 11.4368 11.8122 11.4368Z" stroke="white" stroke-linecap="round" stroke-linejoin="round"/>
    <path d="M11.8122 6.18685C12.4565 6.18685 12.9788 5.66451 12.9788 5.02018C12.9788 4.37585 12.4565 3.85352 11.8122 3.85352C11.1678 3.85352 10.6455 4.37585 10.6455 5.02018C10.6455 5.66451 11.1678 6.18685 11.8122 6.18685Z" stroke="white" stroke-linecap="round" stroke-linejoin="round"/>
    <path d="M7.14616 8.81185C7.79049 8.81185 8.31283 8.28951 8.31283 7.64518C8.31283 7.00085 7.79049 6.47852 7.14616 6.47852C6.50183 6.47852 5.97949 7.00085 5.97949 7.64518C5.97949 8.28951 6.50183 8.81185 7.14616 8.81185Z" stroke="white" stroke-linecap="round" stroke-linejoin="round"/>
    <path d="M7.14616 3.56185C7.79049 3.56185 8.31283 3.03951 8.31283 2.39518C8.31283 1.75085 7.79049 1.22852 7.14616 1.22852C6.50183 1.22852 5.97949 1.75085 5.97949 2.39518C5.97949 3.03951 6.50183 3.56185 7.14616 3.56185Z" stroke="white" stroke-linecap="round" stroke-linejoin="round"/>
    <path d="M7.14616 14.0618C7.79049 14.0618 8.31283 13.5395 8.31283 12.8952C8.31283 12.2509 7.79049 11.7285 7.14616 11.7285C6.50183 11.7285 5.97949 12.2509 5.97949 12.8952C5.97949 13.5395 6.50183 14.0618 7.14616 14.0618Z" stroke="white" stroke-linecap="round" stroke-linejoin="round"/>
  </g>
  <defs>
    <clipPath id="clip0_38295_17113">
      <rect width="14" height="14" fill="white" transform="translate(0 0.5)"/>
    </clipPath>
  </defs>
</svg>