<svg width="250" height="38" viewBox="0 0 250 38" fill="black" xmlns="http://www.w3.org/2000/svg" class="dynamicSVG logo" data-v-7cfd635e=""><path d="M35.721 6.59423L19.2128 0.142322C18.5961 -0.0474405 18.4064 -0.0474405 17.7897 0.142322L1.28144 6.59423C0.617318 6.87888 0.475006 7.11608 0.475006 7.78025V29.8875C0.475006 30.5991 0.617318 30.7415 1.28144 31.0735L17.7897 37.8101C18.1217 37.9524 18.3115 37.9999 18.5487 37.9999C18.7384 37.9999 18.9756 37.9524 19.2602 37.8101L35.7684 31.0735C36.4326 30.8363 36.5749 30.5991 36.5749 29.8875V7.78025C36.5274 7.11608 36.3851 6.87888 35.721 6.59423ZM32.353 29.9824L18.5012 35.533L4.6495 29.9824L18.5012 25.0012L32.353 29.9824ZM4.69694 7.68537L18.5012 2.41947L32.3055 7.68537L18.5012 12.7141L4.69694 7.68537ZM23.7668 22.9612C24.0514 22.8663 24.2412 22.5817 24.2412 22.297V15.4182C24.2412 15.1335 24.0514 14.8489 23.7668 14.754L21.9167 13.995L34.1556 9.4881V28.2271L21.9167 23.7203L23.7668 22.9612ZM21.8218 16.6042V21.111L18.5012 22.4394L15.228 21.111V16.6042L18.5012 15.2758L21.8218 16.6042ZM13.2831 14.754C12.9985 14.8489 12.8087 15.1335 12.8087 15.4656V22.297C12.8087 22.5817 12.9985 22.8663 13.2831 22.9612L15.1332 23.7203L2.89431 28.2271V9.4881L15.1332 14.0424L13.2831 14.754Z" class="st0"></path> <path d="M54.8003 30.8452H60.5546V11.7313H68.8665V7.15479H46.4548V11.7313H54.8003V30.8452Z" class="st0"></path> <path d="M70.626 30.8452H76.3803V20.6489H87.2834V30.8452H93.0378V7.15479H87.2834V16.0387H76.3803V7.15479H70.626V30.8452Z" class="st0"></path> <path d="M116.272 16.2406H103.048V11.765H116.979V7.15479H97.2934V30.8452H116.979V26.235H103.048V20.8508H116.272V16.2406Z" class="st0"></path> <path d="M127.591 30.8452H140.48C146.301 30.8452 149.701 28.254 149.701 23.7784C149.701 20.7835 147.58 19 145.292 18.2933C147.143 17.6203 148.825 16.005 148.825 13.2457C148.825 9.91418 146.369 7.15479 140.715 7.15479H127.591V30.8452ZM133.245 16.4088V11.4621H139.538C141.523 11.4621 142.903 12.1688 142.903 13.9523C142.903 15.3993 142.061 16.4088 139.504 16.4088H133.245ZM133.245 20.7162H139.841C142.364 20.7162 143.643 21.6921 143.643 23.5765C143.643 25.9321 141.961 26.5715 139.74 26.5715H133.245V20.7162Z" class="st0"></path> <path d="M152.353 30.8452H170.592V26.235H158.107V7.15479H152.353V30.8452Z" class="st0"></path> <path d="M184.152 6.64996C176.109 6.64996 171.264 12.4043 171.264 18.9326C171.264 25.8647 175.84 31.3499 183.883 31.3499C192.497 31.3499 196.872 25.4946 196.872 18.899C196.872 12.438 192.43 6.64996 184.152 6.64996ZM183.984 11.1255C188.762 11.1255 190.815 14.7935 190.815 18.9663C190.815 22.8362 188.964 26.8743 184.219 26.8743C179.576 26.8743 177.321 23.3409 177.321 18.8653C177.321 14.8608 179.373 11.1255 183.984 11.1255Z" class="st0"></path> <path d="M217.033 23.3073C216.091 25.5956 214.61 26.9079 211.245 26.9079C206.568 26.9079 204.481 23.1726 204.481 18.798C204.481 14.4907 206.769 11.0919 211.211 11.0919C215.25 11.0919 216.528 13.2792 217.033 14.6253H222.855C222.148 10.6881 218.548 6.64996 211.279 6.64996C202.9 6.64996 198.424 12.5389 198.424 19.0336C198.424 25.4946 202.496 31.3499 210.976 31.3499C218.413 31.3499 221.711 27.48 222.788 23.3073H217.033Z" class="st0"></path> <path d="M224.895 30.8452H230.65V23.0044L233.645 20.5143L242.36 30.8452H249.494L237.75 17.3511L248.889 7.15479H241.856C237.346 11.3612 234.048 14.3561 230.65 17.5193V7.15479H224.895V30.8452Z" class="st0"></path></svg>
