<svg width="28" height="28" viewBox="0 0 28 28" fill="none" xmlns="http://www.w3.org/2000/svg">
<rect width="28" height="28" rx="14" fill="white"/>
<path d="M13.9999 2.3335C12.4678 2.3335 10.9507 2.63526 9.53528 3.22157C8.11981 3.80787 6.83369 4.66723 5.75034 5.75058C3.56242 7.93851 2.33325 10.906 2.33325 14.0002C2.33325 19.1568 5.68159 23.5318 10.3133 25.0835C10.8966 25.1768 11.0833 24.8152 11.0833 24.5002V22.5285C7.85158 23.2285 7.16325 20.9652 7.16325 20.9652C6.62659 19.6118 5.86825 19.2502 5.86825 19.2502C4.80659 18.5268 5.94992 18.5502 5.94992 18.5502C7.11658 18.6318 7.73492 19.7518 7.73492 19.7518C8.74992 21.5252 10.4649 21.0002 11.1299 20.7202C11.2349 19.9618 11.5383 19.4485 11.8649 19.1568C9.27492 18.8652 6.55658 17.8618 6.55658 13.4168C6.55658 12.1218 6.99992 11.0835 7.75825 10.2552C7.64159 9.9635 7.23325 8.75016 7.87492 7.17516C7.87492 7.17516 8.85492 6.86016 11.0833 8.36516C12.0049 8.1085 13.0083 7.98016 13.9999 7.98016C14.9916 7.98016 15.9949 8.1085 16.9166 8.36516C19.1449 6.86016 20.1249 7.17516 20.1249 7.17516C20.7666 8.75016 20.3583 9.9635 20.2416 10.2552C20.9999 11.0835 21.4433 12.1218 21.4433 13.4168C21.4433 17.8735 18.7133 18.8535 16.1116 19.1452C16.5316 19.5068 16.9166 20.2185 16.9166 21.3035V24.5002C16.9166 24.8152 17.1033 25.1885 17.6983 25.0835C22.3299 23.5202 25.6666 19.1568 25.6666 14.0002C25.6666 12.4681 25.3648 10.951 24.7785 9.53552C24.1922 8.12006 23.3328 6.83393 22.2495 5.75058C21.1661 4.66723 19.88 3.80787 18.4646 3.22157C17.0491 2.63526 15.532 2.3335 13.9999 2.3335Z" fill="black"/>
</svg>
