<svg width="228" height="48" viewBox="0 0 228 48" fill="none" xmlns="http://www.w3.org/2000/svg">
<g clip-path="url(#clip0_31720_10677)">
<path d="M18.7998 34.1989L36.0462 44.1561L40.0462 37.2279L18.7998 24.9613V34.1989Z" fill="url(#paint0_linear_31720_10677)"/>
<path d="M36 4L44 9V44H36V4Z" fill="url(#paint1_linear_31720_10677)"/>
<path d="M12 3.99992L8 10.9281L29.2 23.168V13.9303L12 3.99992Z" fill="url(#paint2_linear_31720_10677)"/>
<path d="M4 4H12V44L4 39.4V4Z" fill="url(#paint3_linear_31720_10677)"/>
</g>
<path d="M66.3412 13H70.0012L79.3612 27.25H79.4212V13H83.3512V34H79.6912L70.3312 19.78H70.2712V34H66.3412V13ZM92.5392 13H96.2592L103.939 34H99.7992L98.0892 29.35H90.7092L88.9992 34H84.8592L92.5392 13ZM97.1892 25.99L94.3992 18.01H94.3392L91.6392 25.99H97.1892ZM105.454 13H109.534V21.79H112.714L117.784 13H122.374L116.224 23.47L122.884 34H118.204L112.684 25.27H109.534V34H105.454V13ZM130.275 13H133.995L141.675 34H137.535L135.825 29.35H128.445L126.735 34H122.595L130.275 13ZM134.925 25.99L132.135 18.01H132.075L129.375 25.99H134.925ZM142.45 30.55V16.45L145.9 13H156.16L159.55 16.39V19.6H155.47V17.89L154.06 16.48H148.06L146.53 18.01V28.99L148.06 30.52H154.06L155.47 29.11V27.4H159.55V30.61L156.16 34H145.9L142.45 30.55ZM161.808 13H165.888V21.79H174.768V13H178.848V34H174.768V25.27H165.888V34H161.808V13ZM188.035 13H191.755L199.435 34H195.295L193.585 29.35H186.205L184.495 34H180.355L188.035 13ZM192.685 25.99L189.895 18.01H189.835L187.135 25.99H192.685ZM201.1 13H205.18V34H201.1V13ZM208.641 13H212.301L221.661 27.25H221.721V13H225.651V34H221.991L212.631 19.78H212.571V34H208.641V13Z" fill="white"/>
<defs>
<linearGradient id="paint0_linear_31720_10677" x1="18.7998" y1="29.5807" x2="43.9574" y2="44.1561" gradientUnits="userSpaceOnUse">
<stop stop-color="#AAFFD6"/>
<stop offset="1" stop-color="#6A31C8"/>
</linearGradient>
<linearGradient id="paint1_linear_31720_10677" x1="40" y1="44" x2="25.2814" y2="37.5411" gradientUnits="userSpaceOnUse">
<stop stop-color="#FFB3FC"/>
<stop offset="1" stop-color="#AC83EF"/>
</linearGradient>
<linearGradient id="paint2_linear_31720_10677" x1="29.2" y1="17.1054" x2="5.76601" y2="3.99992" gradientUnits="userSpaceOnUse">
<stop stop-color="#FFBAFC"/>
<stop offset="1" stop-color="#A65BE1"/>
</linearGradient>
<linearGradient id="paint3_linear_31720_10677" x1="8" y1="4" x2="8" y2="44" gradientUnits="userSpaceOnUse">
<stop stop-color="#82FFCA"/>
<stop offset="1" stop-color="#AF7EFF"/>
</linearGradient>
<clipPath id="clip0_31720_10677">
<rect width="40" height="40" fill="white" transform="translate(4 4)"/>
</clipPath>
</defs>
</svg>
