<svg width="24" height="24" viewBox="0 0 24 24" fill="none" xmlns="http://www.w3.org/2000/svg">
<path d="M11.7221 0H12.2751C12.2938 0.00468623 12.3126 0.00937245 12.3313 0.0140587C12.4391 0.0187449 12.5469 0.0187449 12.6546 0.0281174C12.9311 0.0515485 13.2076 0.0656072 13.4841 0.103097C13.8309 0.149959 14.1824 0.206194 14.5291 0.276487C15.2883 0.435819 16.0287 0.67013 16.741 0.979421C20.1432 2.44621 22.6785 5.39853 23.611 8.98349C23.7235 9.40994 23.8079 9.84576 23.8735 10.2816C23.911 10.5393 23.9391 10.8018 23.9578 11.0595C23.9766 11.261 23.9766 11.4672 23.9859 11.6687C23.9906 11.6874 23.9953 11.7015 24 11.7203V12.2732C23.9953 12.2826 23.9906 12.292 23.9859 12.306C23.9813 12.4232 23.9813 12.5403 23.9719 12.6575C23.9531 12.8965 23.9438 13.1355 23.911 13.3745C23.8594 13.7588 23.8032 14.1383 23.7282 14.5179C23.5361 15.4317 23.2361 16.3174 22.8331 17.1563C22.0224 18.8574 20.8274 20.3382 19.3372 21.4863C18.0672 22.4751 16.6145 23.1921 15.0587 23.5951C14.3886 23.7732 13.709 23.8904 13.0155 23.9419C12.7203 23.9654 12.425 23.9747 12.1298 23.9888C11.9798 23.9935 11.8252 23.9888 11.6752 23.9794C11.4034 23.9654 11.1269 23.956 10.8551 23.9279C10.5786 23.8998 10.3022 23.8623 10.0257 23.8201C9.4399 23.7264 8.86349 23.5905 8.30114 23.403C4.46313 22.1658 1.51549 19.0823 0.437657 15.2021C0.23615 14.4851 0.104935 13.7541 0.0487007 13.009C0.0299558 12.7325 0.0112109 12.4513 0.00183843 12.1748C-0.0028478 12.0108 0.00183843 11.8421 0.0112109 11.6781C0.0299558 11.3594 0.0440145 11.0454 0.0721318 10.7315C0.100249 10.4362 0.142425 10.1363 0.193974 9.84576C0.320502 9.12877 0.517323 8.42583 0.779752 7.74633C2.16219 4.11451 5.21761 1.37306 8.98065 0.393643C9.40709 0.281174 9.84291 0.196821 10.2787 0.131214C10.5365 0.0937245 10.7989 0.0656072 11.0566 0.0468623C11.2628 0.0281174 11.469 0.0281174 11.6705 0.0187449C11.694 0.00937245 11.708 0.00468623 11.7221 0ZM11.9939 20.8256C16.8676 20.849 20.7993 16.8657 20.8321 12.0998C20.8649 7.14181 16.8957 3.22881 12.1064 3.17726C7.08741 3.12571 3.22596 7.13712 3.17441 11.8936C3.11818 16.8985 7.18114 20.8443 11.9939 20.8256Z" fill="#7B2BF9"/>
<path d="M11.9941 20.8256C7.18133 20.849 3.11837 16.9032 3.16992 11.8936C3.22147 7.1418 7.08292 3.1257 12.1019 3.17725C16.8912 3.2288 20.8604 7.1418 20.8276 12.0998C20.8042 16.8657 16.8724 20.8443 11.9941 20.8256ZM16.7365 9.33495C16.7084 9.31152 16.6897 9.29277 16.6709 9.27871C16.5725 9.20373 16.4788 9.12407 16.3804 9.04909C14.9511 7.94314 13.3203 7.11836 11.5817 6.62162C10.8038 6.392 10.0024 6.2561 9.19641 6.21392C8.89649 6.19986 8.59657 6.21392 8.29665 6.2233C8.00142 6.23267 7.70619 6.27016 7.41564 6.33108C6.91421 6.43418 6.43622 6.59819 6.0004 6.86999C5.58801 7.12305 5.2506 7.48389 5.03035 7.91971C4.79604 8.38365 4.74918 8.88507 4.80073 9.39587C4.8429 9.76608 4.94131 10.1316 5.0819 10.4737C5.32558 11.0876 5.67236 11.6406 6.07538 12.1654C6.50183 12.7137 6.97982 13.2151 7.50468 13.665C7.64995 13.7962 7.8702 13.8056 8.02016 13.6791C8.81214 13.0558 9.6416 12.4888 10.5085 11.978C10.7054 11.8702 10.8272 11.6687 10.8319 11.4484C10.8506 11.1532 10.8694 10.8533 10.8928 10.5581C10.9116 10.3284 10.935 10.0988 10.9678 9.86918C11.024 9.49897 11.085 9.12407 11.1599 8.75854C11.263 8.229 11.4036 7.70414 11.5817 7.19334C11.6098 7.07619 11.7317 7.0059 11.8488 7.03401C11.8582 7.0387 11.8676 7.0387 11.8769 7.04339C11.9613 7.0715 12.0503 7.09962 12.1347 7.12774C12.294 7.17929 12.3502 7.28707 12.294 7.4464C12.0269 8.25712 11.8348 9.09127 11.727 9.93479C11.6754 10.3331 11.6379 10.7314 11.6051 11.1298C11.5817 11.4672 11.577 11.8093 11.5676 12.1467C11.5629 12.3388 11.5723 12.5356 11.577 12.7278C11.577 12.8356 11.5817 12.9387 11.5864 13.0464C11.6098 13.3979 11.6286 13.7494 11.6614 14.0962C11.6848 14.3633 11.7176 14.6304 11.7598 14.8975C11.8207 15.2677 11.9004 15.6379 11.9753 16.0081C12.0175 16.205 11.9378 16.3643 11.7504 16.444C11.6145 16.5002 11.4786 16.5517 11.3427 16.608C11.1506 16.6876 10.9303 16.683 10.7475 16.5892C10.0587 16.2706 9.39323 15.9144 8.74653 15.5161C7.54217 14.7522 6.45496 13.8525 5.55989 12.7325C5.10533 12.1607 4.71637 11.5468 4.4352 10.872C4.36491 10.6986 4.30399 10.5206 4.24306 10.3425C4.22901 10.3003 4.20557 10.2628 4.15871 10.2769C4.1306 10.2863 4.10248 10.3097 4.09311 10.3378C3.99469 10.7596 3.93846 11.186 3.9244 11.6171C3.91503 11.9733 3.9244 12.3341 3.94783 12.6903C3.96658 12.9761 4.00407 13.2573 4.0603 13.5385C4.17277 14.1524 4.36022 14.7522 4.61796 15.3193C4.79604 15.7082 5.00223 16.0831 5.23654 16.4393C5.26935 16.5096 5.34433 16.5471 5.41931 16.5377C5.4896 16.5283 5.55052 16.4768 5.56927 16.4065C5.59738 16.3455 5.6255 16.2846 5.6583 16.2237C5.95354 15.6895 6.34249 15.2255 6.77363 14.7944C6.87672 14.696 7.04074 14.6866 7.15321 14.7757C7.20007 14.8085 7.24225 14.846 7.28442 14.8788C7.41095 14.9725 7.43907 15.1506 7.34535 15.2771C7.33597 15.2911 7.32191 15.3052 7.30786 15.3193C7.01262 15.6098 6.74551 15.9285 6.5112 16.2659C6.34249 16.5189 6.18785 16.7814 6.12224 17.0813C6.05195 17.3906 6.14567 17.5874 6.43153 17.7186C6.6471 17.8123 6.87672 17.8639 7.11103 17.8686C7.32191 17.8779 7.5328 17.8779 7.73899 17.8592C8.07171 17.8264 8.40912 17.7889 8.73715 17.7233C9.51975 17.564 10.293 17.3437 11.0381 17.0578C12.1019 16.6595 13.1375 16.1909 14.1404 15.652C15.3307 15.0193 16.4601 14.2883 17.5191 13.4588C17.5754 13.4213 17.6082 13.3557 17.6082 13.2901C17.6222 13.0183 17.6457 12.7465 17.655 12.4794C17.6644 12.2451 17.6644 12.0108 17.6691 11.7765C17.6691 11.6734 17.6644 11.5703 17.6597 11.4672C17.6504 11.2376 17.6504 11.0079 17.6363 10.7783C17.6176 10.4971 17.5941 10.216 17.5613 9.93947C17.5238 9.62081 17.4817 9.29746 17.4301 8.9788C17.3176 8.28523 17.1396 7.60573 16.9006 6.94497C16.7131 6.4248 16.4788 5.92806 16.1601 5.47819C15.9539 5.18295 15.7149 4.91115 15.4057 4.71902C15.0542 4.49876 14.684 4.43784 14.2856 4.5878C14.056 4.68153 13.8451 4.81743 13.6671 4.99082C13.3578 5.28136 13.1188 5.62814 12.9079 5.99836C12.8329 6.13426 12.8704 6.24204 13.0157 6.29827C14.3466 6.81376 15.6025 7.51201 16.7412 8.37427C16.9193 8.50549 17.0411 8.69762 17.0833 8.91319C17.1208 9.10064 17.1536 9.2834 17.177 9.47085C17.2145 9.77545 17.0552 10.0191 16.7787 10.0894C15.9258 10.305 15.0917 10.5815 14.281 10.9142C13.5452 11.2141 12.8235 11.5515 12.1206 11.9217C11.98 11.992 11.8769 11.9264 11.8769 11.7718C11.8816 11.6499 11.891 11.5328 11.891 11.4109C11.891 11.2469 11.9613 11.1438 12.1159 11.0735C12.5658 10.8673 13.0063 10.6471 13.4562 10.4503C14.3606 10.0473 15.2932 9.71453 16.2492 9.4521C16.4132 9.41461 16.5678 9.37712 16.7365 9.33495ZM11.9894 20.0852C12.3315 20.0805 12.6736 20.057 13.0157 20.0102C13.0719 20.0102 13.1188 19.9727 13.1375 19.9211C13.1516 19.8696 13.1281 19.8134 13.086 19.7852C12.7251 19.4806 12.4486 19.1104 12.2096 18.7074C12.0363 18.4075 11.8816 18.0982 11.7504 17.7795C11.7035 17.6671 11.6239 17.6343 11.5114 17.6764C10.6444 18.0092 9.75407 18.2763 8.84494 18.4637C8.47473 18.5387 8.10452 18.5902 7.72493 18.6137C7.66401 18.6184 7.61715 18.6324 7.5984 18.6933C7.57966 18.7543 7.61715 18.7918 7.6687 18.8199C7.82334 18.9136 7.9733 19.0073 8.13263 19.0964C9.0605 19.6072 10.0821 19.9258 11.1318 20.0336C11.4177 20.0617 11.7035 20.0664 11.9894 20.0852ZM11.8676 5.89995C12.0456 5.89995 12.1534 5.83434 12.2237 5.70781C12.3924 5.39383 12.5939 5.0986 12.8142 4.82211C12.9829 4.61123 13.1703 4.42378 13.3812 4.25508C13.4234 4.22696 13.4421 4.17541 13.4281 4.12387C13.4187 4.077 13.3765 4.03951 13.3297 4.03014C13.3015 4.02546 13.2734 4.02077 13.2453 4.01608C12.922 3.98328 12.6033 3.94579 12.2799 3.92704C12.0503 3.91767 11.8207 3.91767 11.5911 3.93642C11.2818 3.95985 10.9772 3.98797 10.6726 4.03014C9.96026 4.14261 9.26201 4.35349 8.60594 4.6581C8.15606 4.86429 7.72962 5.11266 7.3266 5.39852C7.28911 5.42664 7.25631 5.45475 7.27505 5.5063C7.2938 5.55316 7.33597 5.55785 7.37815 5.54848C7.7343 5.48287 8.09046 5.44538 8.4513 5.43601C8.7559 5.43132 9.0605 5.4407 9.36511 5.45475C9.65097 5.4735 9.93683 5.50162 10.2227 5.53911C10.7007 5.60471 11.174 5.70312 11.6379 5.83434C11.7317 5.87183 11.8113 5.89057 11.8676 5.89995ZM14.5059 19.6118C14.5996 19.5978 14.698 19.5884 14.7871 19.565C15.087 19.49 15.3307 19.326 15.5509 19.1198C15.9352 18.759 16.2117 18.3231 16.446 17.8545C16.4788 17.7936 16.4554 17.7139 16.3944 17.6811C16.371 17.6717 16.3476 17.6624 16.3242 17.6671C16.1695 17.6717 16.0149 17.6858 15.8602 17.6858C15.6118 17.6858 15.3635 17.6811 15.1198 17.6624C14.8667 17.6483 14.609 17.6296 14.3606 17.5874C13.9857 17.5312 13.6155 17.4609 13.2453 17.3859C13.0579 17.3484 12.8704 17.2922 12.683 17.2453C12.6127 17.2219 12.533 17.2406 12.4814 17.2968C12.4346 17.3531 12.4252 17.4327 12.4627 17.4937C12.6033 17.7702 12.7298 18.056 12.8798 18.3278C13.0766 18.698 13.3484 19.0214 13.6811 19.2838C13.9201 19.4806 14.1872 19.6025 14.5059 19.6118ZM10.8132 12.6762C10.4945 12.8028 8.5169 14.1805 8.39037 14.3633C9.26201 14.9912 10.1993 15.5161 11.1881 15.9378C10.9537 14.8647 10.8319 13.7728 10.8132 12.6762ZM15.654 16.9454C15.818 16.9407 15.9821 16.936 16.1461 16.9266C16.3101 16.9173 16.4694 16.8891 16.6334 16.8798C16.8162 16.8704 16.9146 16.7767 16.9709 16.608C17.177 15.9706 17.3364 15.3193 17.4442 14.6585C17.4535 14.6116 17.4535 14.5695 17.4114 14.5413C17.3692 14.5179 17.3317 14.5367 17.2942 14.5648C17.1583 14.6632 17.0224 14.7616 16.8818 14.8553C15.9352 15.502 14.9464 16.0878 13.9248 16.608C13.8826 16.6267 13.8498 16.6548 13.8545 16.7017C13.8592 16.7532 13.9014 16.772 13.9482 16.7814C14.5106 16.8845 15.0823 16.9407 15.654 16.9454ZM19.6561 14.1055C19.6467 13.9696 19.642 13.829 19.6186 13.6931C19.5811 13.4776 19.5389 13.2667 19.4827 13.0558C19.4452 12.9152 19.2859 12.8824 19.1781 12.9808C18.9484 13.1964 18.7141 13.412 18.4845 13.6275C18.4002 13.6978 18.3439 13.7916 18.3158 13.8993C18.2924 14.0024 18.2783 14.1102 18.2643 14.218C18.2127 14.532 18.1752 14.846 18.1096 15.1552C18.0346 15.5348 17.9362 15.9097 17.8472 16.2846C17.8191 16.369 17.8659 16.4627 17.9503 16.4908C17.9925 16.5049 18.0393 16.5002 18.0815 16.4768C18.119 16.458 18.1518 16.4393 18.1893 16.4252C18.5735 16.2237 18.911 15.966 19.1687 15.6145C19.492 15.1787 19.6654 14.6491 19.6561 14.1055ZM19.3515 9.13813C19.4592 9.14281 19.5155 9.06783 19.4827 8.96474C19.478 8.94599 19.4686 8.92725 19.4592 8.9085C19.1218 8.09779 18.6532 7.34799 18.0721 6.68723C17.9081 6.49978 17.73 6.32639 17.5566 6.153C17.5332 6.13426 17.5004 6.12957 17.4676 6.13894C17.4348 6.153 17.416 6.19049 17.4301 6.2233C17.4301 6.22798 17.4301 6.22798 17.4348 6.23267C17.4488 6.26079 17.4582 6.29359 17.4676 6.32171C17.7816 7.09962 18.0112 7.91034 18.1565 8.7398C18.1846 8.94599 18.3627 9.10064 18.5735 9.09127C18.7094 9.09127 18.85 9.09595 18.9859 9.10532C19.1078 9.11001 19.2296 9.12407 19.3515 9.13813ZM18.761 9.83169C18.7329 9.83169 18.7094 9.83169 18.6813 9.83169C18.6204 9.82232 18.5642 9.85512 18.5407 9.91136C18.5126 9.97228 18.5407 10.0191 18.5782 10.0613C18.672 10.1738 18.7704 10.2816 18.8547 10.3987C19.0422 10.6518 19.2249 10.9095 19.4077 11.1673C19.4827 11.2704 19.6186 11.2704 19.6842 11.1626C19.7826 10.9986 19.8529 10.8158 19.8951 10.633C19.9654 10.3144 19.8623 10.1129 19.5717 9.98633C19.567 9.98165 19.5623 9.98165 19.553 9.98165C19.2999 9.86918 19.0328 9.84106 18.761 9.83169ZM18.4189 12.47H18.4095C18.4095 12.4747 18.4095 12.4841 18.4095 12.4888C18.4095 12.531 18.4048 12.5731 18.4517 12.5919C18.4986 12.6106 18.5314 12.5872 18.5595 12.5544C18.686 12.4232 18.8125 12.2966 18.9344 12.1654C19.0281 12.067 19.0375 11.9967 18.9672 11.8843C18.8407 11.6781 18.7094 11.4812 18.5782 11.2797C18.5501 11.2376 18.5173 11.2141 18.4704 11.2282C18.4236 11.2422 18.4142 11.2844 18.4142 11.3313C18.4189 11.7109 18.4189 12.0905 18.4189 12.47ZM17.3364 18.042C17.3551 18.0326 17.3692 18.0232 17.3832 18.0138C17.4254 17.9763 17.4723 17.9389 17.5098 17.8967C17.6363 17.7748 17.7628 17.653 17.8847 17.5265C17.9034 17.503 17.9128 17.4702 17.9034 17.4374C17.894 17.3953 17.8566 17.3859 17.8144 17.3906C17.805 17.3906 17.8003 17.3906 17.7909 17.3953C17.6878 17.4234 17.5848 17.4562 17.4817 17.489C17.4582 17.4984 17.4348 17.5124 17.4207 17.5358C17.3598 17.6717 17.2989 17.803 17.2427 17.9435C17.2286 17.9904 17.2661 18.042 17.3364 18.042ZM20.0825 12.1279C20.0778 12.1045 20.0778 12.0811 20.0778 12.0576C20.0778 12.0436 20.0685 12.0248 20.0591 12.0202C20.045 12.0202 20.031 12.0248 20.0169 12.0342C19.9513 12.0858 19.9419 12.1795 19.9935 12.2451C19.9935 12.2498 19.9982 12.2498 19.9982 12.2545C20.0216 12.2826 20.0544 12.2779 20.0638 12.2404C20.0731 12.2029 20.0778 12.1701 20.0825 12.1279Z" fill="white"/>
<path d="M16.7363 9.33505C16.5676 9.37722 16.4083 9.41471 16.2537 9.45689C15.2977 9.71932 14.3651 10.052 13.4607 10.4551C13.0108 10.6566 12.5703 10.8768 12.1204 11.0783C11.9704 11.1486 11.8955 11.2517 11.8955 11.4157C11.8955 11.5376 11.8861 11.6547 11.8814 11.7766C11.8767 11.9312 11.9845 12.0015 12.1251 11.9265C12.828 11.5563 13.5497 11.2189 14.2854 10.919C15.0962 10.5816 15.9303 10.3098 16.7832 10.0942C17.0597 10.0239 17.219 9.78024 17.1815 9.47564C17.1581 9.28819 17.1253 9.10074 17.0878 8.91797C17.0456 8.70241 16.9238 8.51027 16.7457 8.37906C15.607 7.51679 14.351 6.81855 13.0202 6.30306C12.8749 6.24683 12.8374 6.13436 12.9124 6.00314C13.1233 5.63293 13.3623 5.29084 13.6715 4.9956C13.8496 4.82221 14.0605 4.68631 14.2901 4.59259C14.6838 4.43794 15.0587 4.49886 15.4101 4.7238C15.7194 4.92062 15.9584 5.18774 16.1646 5.48297C16.4833 5.93754 16.7129 6.43428 16.905 6.94976C17.144 7.61052 17.3221 8.29002 17.4346 8.98358C17.4861 9.30225 17.5283 9.62091 17.5658 9.94426C17.5986 10.2254 17.622 10.5019 17.6408 10.7831C17.6548 11.0127 17.6595 11.2423 17.6642 11.472C17.6689 11.5751 17.6736 11.6782 17.6736 11.7813C17.6736 12.0156 17.6689 12.2499 17.6595 12.4842C17.6502 12.756 17.6267 13.0278 17.6127 13.2949C17.6127 13.3605 17.5799 13.4261 17.5236 13.4636C16.4645 14.2931 15.3305 15.0241 14.1449 15.6568C13.1467 16.1957 12.1063 16.6643 11.0426 17.0626C10.2928 17.3485 9.52424 17.5687 8.74164 17.7281C8.4136 17.7937 8.07619 17.8312 7.74347 17.864C7.53259 17.8827 7.3264 17.8874 7.11552 17.8734C6.88121 17.8687 6.65158 17.8171 6.43602 17.7234C6.15016 17.5875 6.05643 17.3907 6.12672 17.0861C6.19702 16.7861 6.34698 16.5237 6.51568 16.2707C6.75468 15.9333 7.02179 15.6146 7.31234 15.324C7.42949 15.2163 7.43887 15.0382 7.33108 14.921C7.31702 14.907 7.30297 14.8929 7.28891 14.8835C7.24673 14.8461 7.20456 14.8132 7.15769 14.7804C7.04522 14.6914 6.88121 14.7008 6.77811 14.7992C6.35166 15.2303 5.95802 15.6896 5.66279 16.2285C5.62998 16.2894 5.59718 16.3503 5.57375 16.4113C5.55032 16.4815 5.49408 16.5284 5.42379 16.5425C5.34881 16.5518 5.27383 16.5143 5.24103 16.4441C5.00672 16.0879 4.80052 15.713 4.62245 15.324C4.3647 14.757 4.17725 14.1572 4.06478 13.5433C4.01324 13.2621 3.97575 12.9809 3.95232 12.6951C3.92888 12.3389 3.91951 11.9781 3.92888 11.6219C3.94294 11.1908 3.99918 10.7643 4.09759 10.3426C4.10696 10.3145 4.13508 10.291 4.1632 10.2817C4.21006 10.2676 4.23349 10.3051 4.24755 10.3473C4.31315 10.5254 4.36939 10.7034 4.43968 10.8768C4.72086 11.5516 5.10981 12.1655 5.56438 12.7372C6.45945 13.8573 7.54196 14.757 8.75101 15.5209C9.39302 15.9192 10.0632 16.28 10.752 16.594C10.9395 16.6877 11.155 16.6924 11.3472 16.6128C11.4831 16.5565 11.619 16.505 11.7549 16.4487C11.9423 16.3691 12.022 16.2097 11.9798 16.0129C11.9048 15.6427 11.8299 15.2772 11.7643 14.9023C11.7174 14.6352 11.6893 14.3681 11.6658 14.1009C11.633 13.7495 11.6143 13.4027 11.5909 13.0512C11.5862 12.9434 11.5815 12.8403 11.5815 12.7326C11.5768 12.5404 11.5674 12.3436 11.5721 12.1515C11.5815 11.8141 11.5862 11.472 11.6096 11.1346C11.6377 10.7362 11.6752 10.3379 11.7315 9.93957C11.8392 9.09137 12.0314 8.25722 12.2985 7.45119C12.3547 7.29185 12.2985 7.18407 12.1392 7.13252C12.0548 7.10441 11.9704 7.07629 11.8814 7.04817C11.7689 7.00131 11.6424 7.05754 11.5955 7.17001C11.5909 7.17939 11.5909 7.18876 11.5862 7.19813C11.4128 7.70893 11.2722 8.23379 11.1644 8.76333C11.0941 9.13354 11.0285 9.50375 10.9723 9.87396C10.9395 10.1036 10.916 10.3332 10.8973 10.5628C10.8739 10.8581 10.8551 11.1533 10.8364 11.4532C10.8317 11.6735 10.7052 11.8797 10.513 11.9828C9.64608 12.4936 8.81662 13.0606 8.02465 13.6839C7.87 13.8057 7.64975 13.801 7.50916 13.6698C6.9843 13.2199 6.50631 12.7185 6.07986 12.1702C5.67685 11.65 5.33475 11.0924 5.08638 10.4785C4.9458 10.1317 4.84738 9.77087 4.80521 9.40066C4.74897 8.88986 4.80052 8.38843 5.03483 7.9245C5.25509 7.49336 5.58781 7.12784 6.00488 6.87478C6.4407 6.60298 6.9187 6.43896 7.42012 6.33586C7.71067 6.27494 8.0059 6.23745 8.30113 6.22808C8.60105 6.21871 8.90097 6.20465 9.20089 6.21871C10.0116 6.26088 10.8129 6.39679 11.5862 6.62641C13.3248 7.12315 14.9556 7.94793 16.3849 9.05387C16.4833 9.12885 16.577 9.20852 16.6754 9.2835C16.6942 9.29287 16.7082 9.30693 16.7363 9.33505Z" fill="#7B2BF9"/>
<path d="M11.9892 20.0856C11.7033 20.0668 11.4174 20.0622 11.1363 20.034C10.0819 19.9263 9.06495 19.6076 8.13708 19.0968C7.97774 19.0124 7.82779 18.914 7.67314 18.8203C7.62628 18.7922 7.58879 18.7547 7.60285 18.6938C7.62159 18.6329 7.66845 18.6188 7.72937 18.6141C8.10427 18.5907 8.47917 18.5391 8.84938 18.4642C9.75851 18.2767 10.6489 18.0143 11.5158 17.6769C11.6283 17.6347 11.708 17.6675 11.7548 17.78C11.8861 18.0986 12.0407 18.4079 12.2141 18.7078C12.4531 19.1109 12.7296 19.4811 13.0904 19.7857C13.1373 19.8138 13.156 19.87 13.142 19.9216C13.1232 19.9731 13.0764 20.0106 13.0201 20.0106C12.6733 20.0528 12.3312 20.0809 11.9892 20.0856Z" fill="#7B2BF9"/>
<path d="M11.8674 5.90006C11.8158 5.886 11.7315 5.87194 11.6471 5.84851C11.1832 5.72198 10.7099 5.62357 10.2319 5.55328C9.94602 5.51579 9.66016 5.48298 9.3743 5.46892C9.0697 5.45018 8.76509 5.44081 8.46049 5.45018C8.09965 5.45955 7.73881 5.49704 7.38734 5.56265C7.34048 5.57202 7.30299 5.56734 7.28424 5.52047C7.2655 5.46892 7.2983 5.44081 7.33579 5.41269C7.73881 5.12683 8.16526 4.87846 8.61513 4.67227C9.2712 4.36766 9.96477 4.1521 10.6818 4.04431C10.9864 3.99745 11.2957 3.96933 11.6003 3.95059C11.8299 3.93184 12.0595 3.93184 12.2891 3.94121C12.6125 3.95996 12.9311 3.99745 13.2545 4.03025C13.2826 4.03494 13.3107 4.03963 13.3388 4.04431C13.3904 4.049 13.4279 4.08649 13.4373 4.13804C13.4513 4.18959 13.4326 4.24113 13.3904 4.26925C13.1795 4.43795 12.9921 4.6254 12.8234 4.83628C12.5984 5.11277 12.4016 5.41269 12.2329 5.72198C12.1532 5.83914 12.0454 5.90006 11.8674 5.90006Z" fill="#7B2BF9"/>
<path d="M14.5058 19.6121C14.1872 19.6027 13.92 19.4762 13.6764 19.2887C13.3483 19.0263 13.0765 18.7029 12.875 18.3327C12.7204 18.0609 12.5938 17.7751 12.4579 17.4986C12.4205 17.4376 12.4251 17.358 12.4767 17.3017C12.5282 17.2455 12.6079 17.2221 12.6782 17.2502C12.8656 17.2971 13.0531 17.3533 13.2405 17.3908C13.6108 17.4658 13.9857 17.5361 14.3559 17.5923C14.6089 17.6298 14.862 17.6485 15.115 17.6673C15.3634 17.6813 15.6118 17.686 15.8555 17.6907C16.0101 17.6907 16.1648 17.6766 16.3194 17.672C16.3897 17.6673 16.4506 17.7188 16.46 17.7891C16.46 17.8125 16.4553 17.836 16.4459 17.8594C16.2116 18.328 15.9304 18.7638 15.5509 19.1247C15.3306 19.3309 15.0869 19.4996 14.787 19.5699C14.698 19.5886 14.5996 19.598 14.5058 19.6121Z" fill="#7B2BF9"/>
<path d="M10.8132 12.6763C10.8272 13.7728 10.9537 14.8694 11.1881 15.9426C10.1993 15.5208 9.26202 14.9913 8.39038 14.368C8.51691 14.1805 10.4945 12.8028 10.8132 12.6763Z" fill="#7B2BF9"/>
<path d="M15.654 16.9455C15.0822 16.9408 14.5105 16.8846 13.9482 16.7815C13.9013 16.7721 13.8591 16.7533 13.8545 16.7018C13.8498 16.6549 13.8826 16.6315 13.9247 16.6081C14.9463 16.0879 15.9351 15.5021 16.8818 14.8554C17.0177 14.7617 17.1582 14.6633 17.2941 14.5649C17.3316 14.5414 17.3644 14.518 17.4113 14.5414C17.4582 14.5696 17.4535 14.6071 17.4441 14.6586C17.3363 15.3194 17.177 15.9707 16.9708 16.6081C16.9146 16.7768 16.8161 16.8705 16.6334 16.8799C16.4694 16.8892 16.31 16.9127 16.146 16.9267C15.982 16.9361 15.818 16.9408 15.654 16.9455Z" fill="#7B2BF9"/>
<path d="M19.6559 14.1052C19.6606 14.6488 19.4919 15.1783 19.1685 15.6141C18.9108 15.9656 18.5734 16.2234 18.1891 16.4249C18.1516 16.4436 18.1188 16.4624 18.0813 16.4764C18.0017 16.5186 17.9033 16.4905 17.8611 16.4155C17.8376 16.3733 17.833 16.3265 17.847 16.2843C17.9361 15.9094 18.0298 15.5345 18.1094 15.1549C18.1704 14.8456 18.2125 14.5316 18.2641 14.2176C18.2828 14.1099 18.2922 14.0021 18.3156 13.899C18.3438 13.7959 18.4047 13.6975 18.4843 13.6272C18.714 13.4116 18.9483 13.1961 19.1779 12.9805C19.281 12.8821 19.445 12.9149 19.4825 13.0555C19.5387 13.2663 19.5809 13.4772 19.6184 13.6928C19.6465 13.8287 19.6465 13.9693 19.6559 14.1052Z" fill="#7B2BF9"/>
<path d="M19.3511 9.13815C19.2293 9.12878 19.1075 9.11003 18.9809 9.10534C18.845 9.09597 18.7044 9.09597 18.5685 9.09129C18.3577 9.10066 18.1796 8.94601 18.1515 8.73982C18.0062 7.91036 17.7766 7.10433 17.4626 6.32173C17.4485 6.29361 17.4392 6.26081 17.4298 6.23269C17.411 6.19988 17.4251 6.15771 17.4579 6.14365C17.4626 6.14365 17.4626 6.13896 17.4673 6.13896C17.5001 6.12959 17.5329 6.13428 17.5563 6.15302C17.7297 6.32641 17.9078 6.4998 18.0718 6.68725C18.6529 7.34332 19.1262 8.09312 19.4589 8.90852C19.4683 8.92727 19.473 8.94601 19.4824 8.96476C19.5198 9.06785 19.4589 9.14283 19.3511 9.13815Z" fill="#7B2BF9"/>
<path d="M18.7608 9.83214C19.0326 9.84151 19.2997 9.86963 19.5574 9.97273C19.5621 9.97273 19.5668 9.97741 19.5762 9.97741C19.8667 10.1039 19.9698 10.3055 19.8995 10.6241C19.8574 10.8116 19.7871 10.9896 19.6886 11.1537C19.623 11.2661 19.4871 11.2661 19.4122 11.1583C19.2294 10.9006 19.0466 10.6429 18.8592 10.3898C18.7748 10.2726 18.6764 10.1649 18.5827 10.0524C18.5452 10.0055 18.5124 9.96336 18.5452 9.90244C18.5686 9.8462 18.6296 9.81808 18.6858 9.82277C18.7092 9.83214 18.7327 9.83214 18.7608 9.83214Z" fill="#7B2BF9"/>
<path d="M18.4189 12.4704C18.4189 12.0908 18.4189 11.7113 18.4189 11.3317C18.4189 11.2848 18.4236 11.2473 18.4751 11.2286C18.5267 11.2098 18.5595 11.2379 18.5829 11.2801C18.7141 11.4816 18.8453 11.6831 18.9719 11.8846C19.0421 11.9971 19.0281 12.0674 18.9391 12.1658C18.8172 12.297 18.6907 12.4236 18.5642 12.5548C18.5313 12.5876 18.4985 12.611 18.4564 12.5923C18.4095 12.5735 18.4142 12.5313 18.4142 12.4892C18.4142 12.4845 18.4142 12.4751 18.4142 12.4704H18.4189Z" fill="#7B2BF9"/>
<path d="M17.336 18.0417C17.2657 18.0417 17.2282 17.9902 17.2516 17.934C17.3078 17.7981 17.3688 17.6622 17.4297 17.5263C17.4437 17.5028 17.4625 17.4888 17.4906 17.4794C17.5937 17.4466 17.6968 17.4185 17.7999 17.3857C17.8093 17.3857 17.8139 17.381 17.8233 17.381C17.8608 17.3763 17.903 17.3857 17.9124 17.4278C17.917 17.4606 17.9124 17.4934 17.8936 17.5169C17.7718 17.6434 17.6452 17.7653 17.5187 17.8871C17.4765 17.9293 17.4344 17.9668 17.3922 18.0042C17.3688 18.023 17.35 18.0324 17.336 18.0417Z" fill="#7B2BF9"/>
<path d="M20.0822 12.1275C20.0775 12.165 20.0728 12.2025 20.0681 12.24C20.0588 12.2775 20.026 12.2822 20.0025 12.254C19.9463 12.1931 19.951 12.0994 20.0119 12.0432C20.0166 12.0385 20.0166 12.0385 20.0213 12.0385C20.0307 12.0291 20.0494 12.0244 20.0635 12.0244C20.0728 12.0291 20.0822 12.0478 20.0822 12.0619C20.0775 12.0806 20.0775 12.1041 20.0822 12.1275Z" fill="#7B2BF9"/>
</svg>
