<svg width="24" height="24" viewBox="0 0 24 24" fill="none" xmlns="http://www.w3.org/2000/svg">
<g clip-path="url(#clip0_34608_917)">
<path d="M18.0266 3.02109L13.8535 9.21421C13.5649 9.63596 14.1199 10.1465 14.5194 9.79134L18.626 6.21754C18.737 6.12875 18.8923 6.19534 18.8923 6.35072V17.5161C18.8923 17.6715 18.6926 17.7381 18.6038 17.6271L6.17314 2.75472C5.77358 2.26637 5.19645 2 4.55272 2H4.10877C2.9545 2 2 2.9545 2 4.13097V19.8468C2 21.0233 2.9545 21.9778 4.13097 21.9778C4.86349 21.9778 5.55161 21.6004 5.95117 20.9567L10.1243 14.7636C10.4129 14.3418 9.85793 13.8313 9.45838 14.1865L5.35183 17.7381C5.24084 17.8269 5.08546 17.7603 5.08546 17.6049V6.46171C5.08546 6.30633 5.28524 6.23973 5.37403 6.35072L17.8047 21.2231C18.2042 21.7114 18.8036 21.9778 19.4251 21.9778H19.869C21.0455 21.9778 22 21.0233 22 19.8468V4.13097C22 2.9545 21.0455 2 19.869 2C19.1143 2 18.4262 2.37736 18.0266 3.02109Z" fill="black"/>
</g>
<defs>
<clipPath id="clip0_34608_917">
<rect width="20" height="19.9778" fill="white" transform="translate(2 2)"/>
</clipPath>
</defs>
</svg>
