<svg width="24" height="24" viewBox="0 0 24 24" fill="none" xmlns="http://www.w3.org/2000/svg">
<path d="M16.9445 15.7155L21.3993 13.1431C21.6355 13.0065 21.7815 12.7531 21.7815 12.4811V7.33637C21.7815 7.0644 21.6355 6.81101 21.3993 6.67436L16.9445 4.10198C16.7083 3.96534 16.4151 3.96667 16.1803 4.10198L11.7254 6.67436C11.4893 6.81101 11.3433 7.0644 11.3433 7.33637V16.5301L8.21906 18.333L5.09479 16.5301V12.9229L8.21906 11.12L10.2794 12.31V9.89016L8.6011 8.92039C8.48568 8.85406 8.35308 8.81824 8.21906 8.81824C8.08503 8.81824 7.95243 8.85406 7.837 8.92039L3.38208 11.4928C3.14593 11.6294 3 11.8828 3 12.1548V17.2996C3 17.5715 3.14593 17.8249 3.38208 17.9615L7.837 20.5339C8.0731 20.6692 8.365 20.6692 8.6011 20.5339L13.056 17.9615C13.2922 17.8249 13.4381 17.5715 13.4381 17.2996V8.1045L13.4938 8.07266L16.5611 6.30158L19.6854 8.1045V11.7117L16.5611 13.5146L14.5034 12.3272V14.7471L16.179 15.7142C16.4151 15.8495 16.7083 15.8495 16.9431 15.7142L16.9445 15.7155Z" fill="url(#paint0_linear_34608_876)"/>
<defs>
<linearGradient id="paint0_linear_34608_876" x1="2.93897" y1="17.8036" x2="20.9748" y2="7.33504" gradientUnits="userSpaceOnUse">
<stop stop-color="#A726C1"/>
<stop offset="0.88" stop-color="#803BDF"/>
<stop offset="1" stop-color="#7B3FE4"/>
</linearGradient>
</defs>
</svg>
