<svg width="34" height="34" viewBox="0 0 34 34" fill="none" xmlns="http://www.w3.org/2000/svg">
<path d="M14.7334 14.3512C14.6326 14.3548 14.5321 14.338 14.4379 14.3019C14.3437 14.2657 14.2577 14.211 14.1852 14.1409C14.1126 14.0709 14.0548 13.9869 14.0154 13.894C13.976 13.8012 13.9557 13.7013 13.9557 13.6004C13.9557 13.4995 13.976 13.3997 14.0154 13.3068C14.0548 13.2139 14.1126 13.13 14.1852 13.0599C14.2577 12.9898 14.3437 12.9351 14.4379 12.899C14.5321 12.8628 14.6326 12.846 14.7334 12.8496L20.4 12.8496C20.599 12.8497 20.7899 12.9289 20.9307 13.0696C21.0715 13.2104 21.1506 13.4013 21.1508 13.6004L21.1508 19.2669C21.1543 19.3678 21.1375 19.4683 21.1014 19.5625C21.0653 19.6567 21.0106 19.7426 20.9405 19.8152C20.8704 19.8878 20.7864 19.9455 20.6936 19.985C20.6007 20.0244 20.5008 20.0447 20.4 20.0447C20.2991 20.0447 20.1992 20.0244 20.1063 19.985C20.0135 19.9455 19.9295 19.8878 19.8594 19.8152C19.7894 19.7426 19.7346 19.6567 19.6985 19.5625C19.6624 19.4683 19.6456 19.3678 19.6491 19.2669L19.6491 15.4137L12.7856 22.2773C12.6447 22.4182 12.4536 22.4973 12.2543 22.4973C12.0551 22.4973 11.864 22.4182 11.7231 22.2773C11.5822 22.1364 11.5031 21.9453 11.5031 21.746C11.5031 21.5468 11.5822 21.3557 11.7231 21.2148L18.5867 14.3512L14.7334 14.3512Z" fill="white"/>
</svg>
