<svg width="60" height="60" viewBox="0 0 60 60" fill="none" xmlns="http://www.w3.org/2000/svg">
<rect width="60" height="60" rx="8" transform="matrix(1 8.74228e-08 8.74228e-08 -1 0 60)" fill="url(#paint0_angular_31629_8947)" fill-opacity="0.07"/>
<rect x="0.5" y="-0.5" width="59" height="59" rx="7.5" transform="matrix(1 8.74228e-08 8.74228e-08 -1 4.37114e-08 59)" stroke="url(#paint1_linear_31629_8947)" stroke-opacity="0.4"/>
<g clip-path="url(#clip0_31629_8947)">
<path d="M34.2178 19.2733L41.7265 26.782M20.2732 33.218L27.7819 40.7267M27.7819 19.2733L20.2732 26.782M41.7265 33.218L34.2178 40.7267" stroke="white" stroke-width="2" stroke-linecap="round"/>
<path d="M30.9999 20.346C33.3696 20.346 35.2906 18.425 35.2906 16.0553C35.2906 13.6857 33.3696 11.7647 30.9999 11.7647C28.6302 11.7647 26.7092 13.6857 26.7092 16.0553C26.7092 18.425 28.6302 20.346 30.9999 20.346Z" stroke="white" stroke-width="2"/>
<path d="M30.9999 48.2353C33.3696 48.2353 35.2906 46.3143 35.2906 43.9447C35.2906 41.575 33.3696 39.654 30.9999 39.654C28.6302 39.654 26.7092 41.575 26.7092 43.9447C26.7092 46.3143 28.6302 48.2353 30.9999 48.2353Z" stroke="white" stroke-width="2"/>
<path d="M17.0553 34.2906C19.425 34.2906 21.346 32.3697 21.346 30C21.346 27.6303 19.425 25.7093 17.0553 25.7093C14.6856 25.7093 12.7646 27.6303 12.7646 30C12.7646 32.3697 14.6856 34.2906 17.0553 34.2906Z" stroke="#FA4E0E" stroke-width="2"/>
<path d="M44.9447 34.2906C47.3144 34.2906 49.2354 32.3697 49.2354 30C49.2354 27.6303 47.3144 25.7093 44.9447 25.7093C42.575 25.7093 40.6541 27.6303 40.6541 30C40.6541 32.3697 42.575 34.2906 44.9447 34.2906Z" stroke="white" stroke-width="2"/>
<path d="M17.0555 31.8299C18.0661 31.8299 18.8853 31.0106 18.8853 30C18.8853 28.9894 18.0661 28.1701 17.0555 28.1701C16.0448 28.1701 15.2256 28.9894 15.2256 30C15.2256 31.0106 16.0448 31.8299 17.0555 31.8299Z" fill="white"/>
</g>
<defs>
<radialGradient id="paint0_angular_31629_8947" cx="0" cy="0" r="1" gradientUnits="userSpaceOnUse" gradientTransform="translate(30 30) rotate(-45.7589) scale(35.5941 35.5941)">
<stop stop-color="white"/>
<stop offset="1" stop-color="white" stop-opacity="0"/>
</radialGradient>
<linearGradient id="paint1_linear_31629_8947" x1="60.3333" y1="6.80486e-06" x2="3.33325" y2="60" gradientUnits="userSpaceOnUse">
<stop stop-color="white" stop-opacity="0.2"/>
<stop offset="0.525" stop-color="white"/>
<stop offset="1" stop-color="white" stop-opacity="0.2"/>
</linearGradient>
<clipPath id="clip0_31629_8947">
<rect width="40" height="40" fill="white" transform="translate(11 10)"/>
</clipPath>
</defs>
</svg>
