<svg width="72" height="72" viewBox="0 0 72 72" fill="none" xmlns="http://www.w3.org/2000/svg">
<g clip-path="url(#clip0_31369_9370)">
<path d="M41.7924 16.692L55.308 30.2076M16.692 41.7924L30.2076 55.308M30.2076 16.692L16.692 30.2076M55.308 41.7924L41.7924 55.308" stroke="white" stroke-width="5" stroke-linecap="round"/>
<path d="M35.9999 18.6228C40.2653 18.6228 43.7231 15.165 43.7231 10.8996C43.7231 6.63421 40.2653 3.17642 35.9999 3.17642C31.7345 3.17642 28.2767 6.63421 28.2767 10.8996C28.2767 15.165 31.7345 18.6228 35.9999 18.6228Z" stroke="white" stroke-width="5"/>
<path d="M35.9999 68.8236C40.2653 68.8236 43.7231 65.3658 43.7231 61.1004C43.7231 56.835 40.2653 53.3772 35.9999 53.3772C31.7345 53.3772 28.2767 56.835 28.2767 61.1004C28.2767 65.3658 31.7345 68.8236 35.9999 68.8236Z" stroke="white" stroke-width="5"/>
<path d="M10.8996 43.7232C15.165 43.7232 18.6228 40.2654 18.6228 36C18.6228 31.7346 15.165 28.2768 10.8996 28.2768C6.63418 28.2768 3.17639 31.7346 3.17639 36C3.17639 40.2654 6.63418 43.7232 10.8996 43.7232Z" stroke="#FA4E0E" stroke-width="5"/>
<path d="M61.1004 43.7232C65.3658 43.7232 68.8236 40.2654 68.8236 36C68.8236 31.7346 65.3658 28.2768 61.1004 28.2768C56.835 28.2768 53.3772 31.7346 53.3772 36C53.3772 40.2654 56.835 43.7232 61.1004 43.7232Z" stroke="white" stroke-width="5"/>
<path d="M10.8997 39.2938C12.7188 39.2938 14.1935 37.8191 14.1935 36C14.1935 34.1809 12.7188 32.7062 10.8997 32.7062C9.08063 32.7062 7.60596 34.1809 7.60596 36C7.60596 37.8191 9.08063 39.2938 10.8997 39.2938Z" fill="white"/>
</g>
<defs>
<clipPath id="clip0_31369_9370">
<rect width="72" height="72" fill="white"/>
</clipPath>
</defs>
</svg>
