<svg width="60" height="60" viewBox="0 0 60 60" fill="none" xmlns="http://www.w3.org/2000/svg">
<rect width="60" height="60" rx="8" transform="matrix(1 8.74228e-08 8.74228e-08 -1 0 60)" fill="url(#paint0_angular_31646_9205)" fill-opacity="0.07"/>
<rect x="0.5" y="-0.5" width="59" height="59" rx="7.5" transform="matrix(1 8.74228e-08 8.74228e-08 -1 4.37114e-08 59)" stroke="url(#paint1_linear_31646_9205)" stroke-opacity="0.4"/>
<path d="M30.6667 12.0833C20.7867 12.0833 12.75 20.12 12.75 30C12.75 39.88 20.7867 47.9167 30.6667 47.9167C40.5467 47.9167 48.5833 39.88 48.5833 30C48.5833 20.12 40.5467 12.0833 30.6667 12.0833ZM30.6667 45.4167C22.165 45.4167 15.25 38.5017 15.25 30C15.25 21.4983 22.165 14.5833 30.6667 14.5833C39.1683 14.5833 46.0833 21.4983 46.0833 30C46.0833 38.5017 39.1683 45.4167 30.6667 45.4167ZM32.31 29.1201L29.63 28.455C29.2167 28.3517 28.865 28.1199 28.6 27.7816C28.35 27.4649 28.2117 27.0584 28.2117 26.64C28.2117 25.6084 29.05 24.7701 30.0816 24.7701H31.2483C32.2017 24.7701 33 25.4868 33.1083 26.4368C33.185 27.1234 33.7967 27.6201 34.49 27.5401C35.1767 27.4634 35.67 26.8449 35.5933 26.1583C35.3683 24.1549 33.8183 22.61 31.8783 22.3283V21.6667C31.8783 20.9767 31.3183 20.4167 30.6283 20.4167C29.9383 20.4167 29.3783 20.9767 29.3783 21.6667V22.3401C27.3033 22.6801 25.7117 24.4701 25.7117 26.6384C25.7117 27.6167 26.04 28.5734 26.6317 29.3201C27.225 30.0851 28.0717 30.6383 29.0217 30.8783L31.7017 31.5434C32.5367 31.7551 33.12 32.5017 33.12 33.3584C33.12 33.855 32.925 34.3234 32.57 34.6784C32.215 35.0334 31.7467 35.2283 31.25 35.2283H30.0833C29.13 35.2283 28.3317 34.5116 28.2233 33.5616C28.1467 32.8749 27.52 32.375 26.8416 32.4583C26.155 32.535 25.6617 33.1533 25.7383 33.8399C25.96 35.8183 27.4733 37.3534 29.3783 37.6618V38.3333C29.3783 39.0233 29.9383 39.5833 30.6283 39.5833C31.3183 39.5833 31.8783 39.0233 31.8783 38.3333V37.6701C32.8033 37.5351 33.6617 37.125 34.3367 36.45C35.1633 35.6233 35.62 34.5266 35.62 33.3616C35.62 31.3566 34.2617 29.6151 32.31 29.1201Z" fill="white"/>
<path d="M30.6667 12.0833C20.7867 12.0833 12.75 20.12 12.75 30C12.75 39.88 20.7867 47.9167 30.6667 47.9167C40.5467 47.9167 48.5833 39.88 48.5833 30C48.5833 20.12 40.5467 12.0833 30.6667 12.0833ZM30.6667 45.4167C22.165 45.4167 15.25 38.5017 15.25 30C15.25 21.4983 22.165 14.5833 30.6667 14.5833C39.1683 14.5833 46.0833 21.4983 46.0833 30C46.0833 38.5017 39.1683 45.4167 30.6667 45.4167ZM32.31 29.1201L29.63 28.455C29.2167 28.3517 28.865 28.1199 28.6 27.7816C28.35 27.4649 28.2117 27.0584 28.2117 26.64C28.2117 25.6084 29.05 24.7701 30.0816 24.7701H31.2483C32.2017 24.7701 33 25.4868 33.1083 26.4368C33.185 27.1234 33.7967 27.6201 34.49 27.5401C35.1767 27.4634 35.67 26.8449 35.5933 26.1583C35.3683 24.1549 33.8183 22.61 31.8783 22.3283V21.6667C31.8783 20.9767 31.3183 20.4167 30.6283 20.4167C29.9383 20.4167 29.3783 20.9767 29.3783 21.6667V22.3401C27.3033 22.6801 25.7117 24.4701 25.7117 26.6384C25.7117 27.6167 26.04 28.5734 26.6317 29.3201C27.225 30.0851 28.0717 30.6383 29.0217 30.8783L31.7017 31.5434C32.5367 31.7551 33.12 32.5017 33.12 33.3584C33.12 33.855 32.925 34.3234 32.57 34.6784C32.215 35.0334 31.7467 35.2283 31.25 35.2283H30.0833C29.13 35.2283 28.3317 34.5116 28.2233 33.5616C28.1467 32.875 27.52 32.375 26.8416 32.4583C26.155 32.535 25.6617 33.1533 25.7383 33.8399C25.96 35.8183 27.4733 37.3534 29.3783 37.6618V38.3333C29.3783 39.0233 29.9383 39.5833 30.6283 39.5833C31.3183 39.5833 31.8783 39.0233 31.8783 38.3333V37.6701C32.8033 37.5351 33.6617 37.125 34.3367 36.45C35.1633 35.6233 35.62 34.5266 35.62 33.3616C35.62 31.3566 34.2617 29.6151 32.31 29.1201Z" fill="white"/>
<path d="M32.3097 29.1201L29.6297 28.455C29.2164 28.3517 28.8648 28.1199 28.5998 27.7816C28.3498 27.4649 28.2114 27.0584 28.2114 26.64C28.2114 25.6084 29.0497 24.7701 30.0814 24.7701H31.2481C32.2014 24.7701 32.9997 25.4868 33.1081 26.4368C33.1847 27.1235 33.7964 27.6201 34.4898 27.5401C35.1764 27.4634 35.6697 26.8449 35.5931 26.1583C35.3681 24.1549 33.8181 22.61 31.8781 22.3283V21.6667C31.8781 20.9767 31.3181 20.4167 30.6281 20.4167C29.9381 20.4167 29.3781 20.9767 29.3781 21.6667V22.3401C27.3031 22.6801 25.7114 24.4701 25.7114 26.6384C25.7114 27.6167 26.0398 28.5734 26.6314 29.3201C27.2248 30.0851 28.0714 30.6383 29.0214 30.8783L31.7014 31.5434C32.5364 31.7551 33.1197 32.5017 33.1197 33.3584C33.1197 33.855 32.9247 34.3234 32.5697 34.6784C32.2147 35.0334 31.7464 35.2283 31.2498 35.2283H30.0831C29.1297 35.2283 28.3314 34.5116 28.2231 33.5616C28.1464 32.875 27.5197 32.375 26.8414 32.4583C26.1547 32.535 25.6614 33.1533 25.7381 33.8399C25.9597 35.8183 27.4731 37.3534 29.3781 37.6618V38.3334C29.3781 39.0234 29.9381 39.5834 30.6281 39.5834C31.3181 39.5834 31.8781 39.0234 31.8781 38.3334V37.6701C32.8031 37.5351 33.6614 37.125 34.3364 36.45C35.1631 35.6233 35.6197 34.5266 35.6197 33.3616C35.6197 31.3566 34.2614 29.6151 32.3097 29.1201Z" fill="#FA4E0E"/>
<defs>
<radialGradient id="paint0_angular_31646_9205" cx="0" cy="0" r="1" gradientUnits="userSpaceOnUse" gradientTransform="translate(30 30) rotate(-45.7589) scale(35.5941 35.5941)">
<stop stop-color="white"/>
<stop offset="1" stop-color="white" stop-opacity="0"/>
</radialGradient>
<linearGradient id="paint1_linear_31646_9205" x1="60.3333" y1="6.80486e-06" x2="3.33325" y2="60" gradientUnits="userSpaceOnUse">
<stop stop-color="white" stop-opacity="0.2"/>
<stop offset="0.525" stop-color="white"/>
<stop offset="1" stop-color="white" stop-opacity="0.2"/>
</linearGradient>
</defs>
</svg>
