<svg width="73" height="72" viewBox="0 0 73 72" fill="none" xmlns="http://www.w3.org/2000/svg">
<path d="M3.24854 69.4215L3.24854 58.8389L47.8984 21.9548L40.4569 21.8803L52.0697 12.8966L41.9499 12.8412L53.2143 8.2388L50.7669 6.10975C55.6704 3.80715 60.6931 3.00544 69.8423 2.91503L69.8435 2.9153C69.7993 9.22824 68.2146 15.7518 65.8123 20.7311L64.0545 17.1083L57.9162 31.8704L56.7486 21.6532L49.1897 31.5225L50.0054 23.706L12.7407 69.4215L3.24854 69.4215ZM24.1645 69.4215L47.9593 33.8583L33.4154 69.4215L24.1645 69.4215ZM41.5092 69.4215L48.6464 43.5609L48.9934 69.4215L41.5094 69.4215L41.5092 69.4215ZM3.24896 49.4896L3.24896 37.8229L37.2595 23.8628L3.24854 49.4897L3.24896 49.4896ZM3.24896 29.6207L3.24896 21.5494L31.5922 22.2237L3.24924 29.6206L3.24896 29.6207ZM53.4737 18.7628C59.2939 17.7091 64.9309 13.2005 66.5713 6.21226C62.247 6.98739 59.1319 8.54551 57.0285 10.6757C54.9582 12.772 53.7959 15.4612 53.4737 18.7628Z" fill="white"/>
<path d="M3.24854 69.4215L3.24854 58.8389L47.8984 21.9548L40.4569 21.8803L52.0697 12.8966L41.9499 12.8412L53.2143 8.2388L50.7669 6.10975C55.6704 3.80715 60.6931 3.00544 69.8423 2.91503L69.8435 2.9153C69.7993 9.22824 68.2146 15.7518 65.8123 20.7311L64.0545 17.1083L57.9162 31.8704L56.7486 21.6532L49.1897 31.5225L50.0054 23.706L12.7407 69.4215L3.24854 69.4215ZM53.4737 18.7628C59.2939 17.7091 64.9309 13.2005 66.5713 6.21226C62.247 6.98739 59.1319 8.54551 57.0285 10.6757C54.9582 12.772 53.7959 15.4612 53.4737 18.7628Z" fill="#FA4E0E"/>
</svg>
