<svg width="71" height="72" viewBox="0 0 71 72" fill="none" xmlns="http://www.w3.org/2000/svg">
<rect width="71" height="71" transform="translate(0 0.299072)" fill="#6747ED"/>
<g filter="url(#filter0_i_31373_10567)">
<rect width="54.3139" height="54.3139" transform="translate(8.34314 8.64209)" fill="white" fill-opacity="0.1"/>
<path d="M25.2284 53.8608C24.0286 53.9234 22.8288 53.7385 21.7035 53.3175C20.5783 52.8965 19.5517 52.2485 18.6877 51.4138C16.9951 49.588 15.9465 47.2584 15.7021 44.7808C15.3168 41.7492 15.4837 38.6729 16.1945 35.7008C16.8381 32.4337 18.0575 29.307 19.7958 26.4669C21.2778 24.0267 23.2606 21.9286 25.6131 20.311C27.669 18.8305 30.1285 18.0143 32.6616 17.9717C34.3475 17.908 36.0075 18.4001 37.3863 19.3722C38.6743 20.3525 39.6912 21.6449 40.3412 23.1273C41.1305 24.8696 41.7141 26.6979 42.0802 28.5753C42.5009 30.6273 42.824 32.7818 43.0498 35.039L44.0193 42.3492C44.2275 44.28 44.7094 46.1714 45.4506 47.9665C45.6487 48.546 46.0151 49.0533 46.5031 49.4234C46.9911 49.7935 47.5785 50.0096 48.19 50.0441C49.1339 50.0088 50.041 49.6686 50.7754 49.0745C51.684 48.387 52.5429 47.6362 53.3455 46.8276L54.8845 48.6898C53.7363 50.002 52.4282 51.1653 50.9909 52.1525C49.6564 53.1465 48.038 53.686 46.374 53.6915C45.7127 53.7194 45.0539 53.5951 44.4482 53.3283C43.8425 53.0615 43.3062 52.6592 42.8805 52.1525C41.9156 50.9374 41.1945 49.5474 40.7567 48.0588C40.1977 46.2256 39.8063 44.3455 39.5871 42.4415C39.3254 40.3947 39.0946 38.3786 38.8637 36.4087C38.5252 33.4846 38.1096 30.8838 37.6325 28.7138C37.2964 26.8268 36.596 25.0234 35.5703 23.4043C35.1581 22.7793 34.5918 22.271 33.9259 21.9287C33.2601 21.5863 32.5172 21.4214 31.769 21.4498C30.0453 21.4849 28.3976 22.1659 27.1521 23.3581C25.5921 24.82 24.3232 26.5642 23.4124 28.4983C22.2505 30.8673 21.4169 33.3836 20.9346 35.9778C20.3885 38.3684 20.2171 40.8293 20.4267 43.2726C20.5342 45.1029 21.1943 46.8576 22.3197 48.305C22.8431 48.9167 23.4991 49.401 24.2378 49.721C24.9765 50.041 25.7784 50.1884 26.5827 50.1518C28.3169 50.1401 30.007 49.6036 31.4305 48.6128C33.2643 47.3519 34.9161 45.845 36.3398 44.1344C38.1758 41.9652 39.8379 39.6547 41.3107 37.2244C42.9728 34.485 44.6913 31.4737 46.4663 28.1905C48.2413 24.9074 50.0265 21.419 51.822 17.7255L55.5001 19.0798C53.3558 23.0196 51.3038 26.7336 49.3442 30.222C47.3846 33.7104 45.4403 36.9012 43.5115 39.7945C41.7825 42.432 39.853 44.9325 37.7403 47.2739C36.0087 49.1973 33.9828 50.8335 31.7382 52.1217C29.752 53.2469 27.5111 53.8455 25.2284 53.8608Z" fill="white"/>
</g>
<defs>
<filter id="filter0_i_31373_10567" x="8.34314" y="8.64209" width="54.314" height="54.3139" filterUnits="userSpaceOnUse" color-interpolation-filters="sRGB">
<feFlood flood-opacity="0" result="BackgroundImageFix"/>
<feBlend mode="normal" in="SourceGraphic" in2="BackgroundImageFix" result="shape"/>
<feColorMatrix in="SourceAlpha" type="matrix" values="0 0 0 0 0 0 0 0 0 0 0 0 0 0 0 0 0 0 127 0" result="hardAlpha"/>
<feOffset/>
<feGaussianBlur stdDeviation="3.7718"/>
<feComposite in2="hardAlpha" operator="arithmetic" k2="-1" k3="1"/>
<feColorMatrix type="matrix" values="0 0 0 0 1 0 0 0 0 1 0 0 0 0 1 0 0 0 0.2 0"/>
<feBlend mode="normal" in2="shape" result="effect1_innerShadow_31373_10567"/>
</filter>
</defs>
</svg>
