<svg width="48" height="48" viewBox="0 0 48 48" fill="none" xmlns="http://www.w3.org/2000/svg">
  <rect width="48" height="48" rx="24" fill="url(#paint0_linear_32150_8369)"/>
  <path fill-rule="evenodd" clip-rule="evenodd" d="M28.2867 14.9414C28.0214 14.9414 27.8063 15.1565 27.8063 15.4218V16.3826H25.0439C24.7786 16.3826 24.5635 16.5977 24.5635 16.8631V27.1919C24.5635 27.4573 24.7786 27.6724 25.0439 27.6724H27.0856V27.1919C27.0856 26.6613 27.5158 26.2311 28.0465 26.2311H29.9681C30.4988 26.2311 30.929 26.6613 30.929 27.1919V27.6724H33.4511C33.7165 27.6724 33.9315 27.4573 33.9315 27.1919V16.8631C33.9315 16.5977 33.7165 16.3826 33.4511 16.3826H30.6887V15.4218C30.6887 15.1565 30.4737 14.9414 30.2083 14.9414H28.2867ZM28.0532 25.0301L26.1719 17.6318H27.6093L29.1735 24.1318H29.3215L30.8857 17.6318H32.3231L30.4418 25.0301H28.0532Z" fill="white"/>
  <path fill-rule="evenodd" clip-rule="evenodd" d="M18.6779 26.71C18.4126 26.71 18.1975 26.925 18.1975 27.1904V28.1512H15.1022C14.8369 28.1512 14.6218 28.3663 14.6218 28.6316V37.5193C14.6218 37.7846 14.8369 37.9997 15.1022 37.9997H33.4506C33.716 37.9997 33.9311 37.7846 33.9311 37.5193V28.6316C33.9311 28.3663 33.716 28.1512 33.4506 28.1512H30.4481V27.1904C30.4481 26.925 30.233 26.71 29.9676 26.71H28.046C27.7807 26.71 27.5656 26.925 27.5656 27.1904V28.1512H21.08V27.1904C21.08 26.925 20.8649 26.71 20.5996 26.71H18.6779ZM20.3594 29.3762V36.7745H21.7122V30.4014H21.9025L23.1708 36.7745H25.4748L26.7431 30.4014H26.9334V36.7745H28.2862V29.3762H25.6968L24.4179 35.8233H24.2277L22.9488 29.3762H20.3594Z" fill="white"/>
  <path d="M18.6399 21.0626H19.9505C20.2535 21.0626 20.4965 20.9886 20.6797 20.8407C20.87 20.6927 20.9651 20.4813 20.9651 20.2065V20.1008C20.9651 19.826 20.8735 19.6147 20.6903 19.4667C20.5071 19.3187 20.2605 19.2447 19.9505 19.2447H18.6399V21.0626Z" fill="white"/>
  <path d="M18.6399 17.9764H19.9293C20.2182 17.9764 20.4543 17.9025 20.6375 17.7545C20.8277 17.6065 20.9228 17.4022 20.9228 17.1415V17.0358C20.9228 16.768 20.8312 16.5637 20.648 16.4228C20.4648 16.2748 20.2253 16.2008 19.9293 16.2008H18.6399V17.9764Z" fill="white"/>
  <path fill-rule="evenodd" clip-rule="evenodd" d="M18.3555 12.2422C18.0902 12.2422 17.8751 12.4573 17.8751 12.7226V13.6834H15.1127C14.8474 13.6834 14.6323 13.8985 14.6323 14.1638V24.4927C14.6323 24.7581 14.8474 24.9731 15.1127 24.9731H17.5523V24.0881C17.5523 23.8228 17.7674 23.6077 18.0327 23.6077H20.6C20.8653 23.6077 21.0804 23.8228 21.0804 24.0881V24.9731H23.52C23.7853 24.9731 24.0004 24.7581 24.0004 24.4927V14.1638C24.0004 13.8985 23.7853 13.6834 23.52 13.6834H20.7576V12.7226C20.7576 12.4573 20.5425 12.2422 20.2772 12.2422H18.3555ZM17.5503 14.2119H18.271V14.9325H19.5652V14.2119H20.2859V14.9383C20.6499 14.9589 20.9715 15.0345 21.2505 15.1651C21.5887 15.313 21.8494 15.5279 22.0326 15.8098C22.2228 16.0846 22.318 16.4157 22.318 16.8033V16.909C22.318 17.2472 22.2545 17.5255 22.1277 17.7439C22.0009 17.9553 21.8494 18.1209 21.6732 18.2407C21.5041 18.3534 21.3421 18.4344 21.1871 18.4838V18.674C21.3421 18.7163 21.5112 18.7973 21.6944 18.9171C21.8776 19.0298 22.0326 19.1954 22.1594 19.4138C22.2933 19.6323 22.3602 19.9176 22.3602 20.2699V20.3756C22.3602 20.7843 22.2651 21.1366 22.0749 21.4325C21.8846 21.7214 21.6204 21.9434 21.2822 22.0984C20.993 22.2337 20.6609 22.31 20.2859 22.3272V23.0515H19.5652V22.3309H18.271V23.0515H17.5503V22.3309H16.2724V21.1049H17.2448V16.1586H16.2724V14.9325H17.5503V14.2119Z" fill="white"/>
  <defs>
    <linearGradient id="paint0_linear_32150_8369" x1="0" y1="24" x2="48" y2="24" gradientUnits="userSpaceOnUse">
      <stop stop-color="#FFE259"/>
      <stop offset="1" stop-color="#FFA751"/>
    </linearGradient>
  </defs>
</svg>
