<svg width="48" height="48" viewBox="0 0 48 48" fill="none" xmlns="http://www.w3.org/2000/svg">
  <rect width="48" height="48" rx="24" fill="url(#paint0_linear_32150_8382)"/>
  <path d="M29.5472 36.0316C29.5472 36.0316 29.4741 36.4377 27.6468 36.4377C25.8195 36.4377 25.6733 36.0316 25.6733 36.0316V31.4756H29.5472V36.0316Z" fill="#046353"/>
  <path d="M14.8801 24.9463H12.0783C12.0783 24.9463 10.1083 29.977 15.8564 31.1649C21.6045 32.3529 14.8801 24.9463 14.8801 24.9463Z" fill="#046353"/>
  <path d="M14.6731 24.9463H13.9066C13.9066 24.9463 11.9715 29.8907 17.5404 31.133C19.3948 30.1477 14.6731 24.9463 14.6731 24.9463Z" fill="#2AAF99"/>
  <path d="M22.4329 36.0316C22.4329 36.0316 22.3598 36.4377 20.5325 36.4377C18.7053 36.4377 18.5591 36.0316 18.5591 36.0316V31.4756H22.4329V36.0316Z" fill="#046353"/>
  <path d="M22.4329 35.4789C22.4329 35.4789 22.3598 35.8849 20.5325 35.8849C18.7053 35.8849 18.5591 35.4789 18.5591 35.4789V30.9229H22.4329V35.4789Z" fill="#2AAF99"/>
  <path d="M29.5472 35.4789C29.5472 35.4789 29.4741 35.8849 27.6468 35.8849C25.8195 35.8849 25.6733 35.4789 25.6733 35.4789V30.9229H29.5472V35.4789Z" fill="#2AAF99"/>
  <path d="M32.3326 25.2062C33.096 25.0925 34.9802 25.3686 35.8573 23.5332C36.3963 24.7839 36.8318 25.6447 33.8919 27.6913C30.952 29.7378 32.3326 25.2062 32.3326 25.2062Z" fill="#046353"/>
  <path d="M24.2438 34.9835C29.7158 34.9835 34.1518 31.3257 34.1518 26.8135C34.1518 22.3014 29.7158 18.6436 24.2438 18.6436C18.7719 18.6436 14.3359 22.3014 14.3359 26.8135C14.3359 31.3257 18.7719 34.9835 24.2438 34.9835Z" fill="#76DEC9"/>
  <path d="M17.7144 21.2425L18.1935 18.4082C18.1935 18.4082 20.9547 18.7168 20.2238 22.079C18.5846 22.0853 17.7144 21.2425 17.7144 21.2425Z" fill="#2AAF99"/>
  <path d="M18.1937 24.8976C18.5704 24.8976 18.8758 24.5921 18.8758 24.2154C18.8758 23.8386 18.5704 23.5332 18.1937 23.5332C17.8169 23.5332 17.5115 23.8386 17.5115 24.2154C17.5115 24.5921 17.8169 24.8976 18.1937 24.8976Z" fill="#003025"/>
  <path d="M27.2405 20.942C27.1949 20.942 27.1496 20.9355 27.1058 20.9226C27.0963 20.9199 26.0565 20.6242 24.3654 20.6242C22.625 20.6242 21.6403 20.9179 21.6306 20.9209C21.5098 20.9578 21.3792 20.9453 21.2676 20.8862C21.156 20.827 21.0724 20.726 21.0351 20.6053C20.9979 20.4846 21.01 20.354 21.0689 20.2423C21.1277 20.1305 21.2285 20.0466 21.3491 20.009C21.3939 19.9952 22.4654 19.6699 24.3654 19.6699C26.2057 19.6699 27.3279 19.9933 27.3748 20.007C27.4849 20.0393 27.5797 20.1103 27.6417 20.2068C27.7038 20.3034 27.7289 20.4191 27.7126 20.5327C27.6963 20.6463 27.6396 20.7502 27.5529 20.8254C27.4662 20.9006 27.3553 20.942 27.2405 20.942Z" fill="#003025"/>
  <path d="M24.244 18.6436C24.1379 18.6436 24.0325 18.6454 23.9272 18.6481C29.2526 18.7861 33.5184 22.3888 33.5184 26.8135C33.5184 31.2382 29.2526 34.8409 23.9272 34.9789C24.0325 34.9816 24.1379 34.9835 24.244 34.9835C29.7159 34.9835 34.1519 31.3257 34.1519 26.8135C34.1519 22.3014 29.7159 18.6436 24.244 18.6436Z" fill="#C2FFE6"/>
  <path d="M18.1929 18.4082L18.1836 18.4635C18.8567 18.6431 20.5327 19.3678 19.9486 22.0713C20.0378 22.0763 20.1289 22.0794 20.2232 22.079C20.9542 18.7168 18.1929 18.4082 18.1929 18.4082Z" fill="#046353"/>
  <mask id="mask0_32150_8382" style="mask-type:luminance" maskUnits="userSpaceOnUse" x="22" y="17" width="6" height="4">
    <path d="M22.8362 20.7063C23.5277 20.6468 24.2219 20.6231 24.9158 20.6352C25.5967 20.6715 26.2695 20.7232 27.0107 20.8984C28.0993 21.1409 27.949 19.1377 27.949 19.1377L26.0243 17.8965L22.8164 19.6703L22.8362 20.7063Z" fill="white"/>
  </mask>
  <g mask="url(#mask0_32150_8382)">
    <path d="M24.9739 23.4839C26.1385 23.4839 27.0825 22.5398 27.0825 21.3752C27.0825 20.2107 26.1385 19.2666 24.9739 19.2666C23.8093 19.2666 22.8652 20.2107 22.8652 21.3752C22.8652 22.5398 23.8093 23.4839 24.9739 23.4839Z" fill="#997600"/>
    <path d="M24.9738 23.311C26.0427 23.311 26.9091 22.4445 26.9091 21.3757C26.9091 20.3069 26.0427 19.4404 24.9738 19.4404C23.905 19.4404 23.0386 20.3069 23.0386 21.3757C23.0386 22.4445 23.905 23.311 24.9738 23.311Z" fill="#FFCC21"/>
    <path d="M24.9738 19.528C25.4794 19.528 25.965 19.7259 26.3265 20.0793C26.6881 20.4327 26.897 20.9136 26.9085 21.419C26.9089 21.4043 26.9091 21.3896 26.9091 21.3748C26.9092 21.1206 26.8593 20.8688 26.7621 20.6339C26.6649 20.399 26.5224 20.1855 26.3427 20.0057C26.1629 19.8259 25.9496 19.6832 25.7147 19.5859C25.4798 19.4886 25.2281 19.4385 24.9738 19.4385C24.7196 19.4385 24.4679 19.4886 24.233 19.5859C23.9981 19.6832 23.7847 19.8259 23.605 20.0057C23.4253 20.1855 23.2828 20.399 23.1856 20.6339C23.0884 20.8688 23.0384 21.1206 23.0386 21.3748C23.0386 21.3896 23.0388 21.4043 23.0391 21.419C23.0507 20.9136 23.2596 20.4327 23.6211 20.0793C23.9827 19.7259 24.4682 19.528 24.9738 19.528Z" fill="#FCDF81"/>
    <path d="M23.7042 21.0943C23.6918 21.0943 23.6797 21.0914 23.6686 21.0859C23.6575 21.0804 23.6479 21.0724 23.6405 21.0626C23.633 21.0527 23.6279 21.0413 23.6257 21.0292C23.6234 21.017 23.6239 21.0045 23.6273 20.9926C23.7105 20.6999 23.8869 20.4422 24.1297 20.2587C24.3724 20.0752 24.6684 19.9758 24.9728 19.9756C25.2771 19.9754 25.5732 20.0743 25.8163 20.2575C26.0593 20.4407 26.2361 20.6981 26.3197 20.9907C26.3226 21.0008 26.3235 21.0114 26.3223 21.0218C26.3211 21.0322 26.3178 21.0423 26.3127 21.0515C26.3076 21.0606 26.3007 21.0687 26.2925 21.0752C26.2843 21.0817 26.2749 21.0866 26.2648 21.0894C26.2547 21.0923 26.2441 21.0932 26.2337 21.092C26.2233 21.0908 26.2132 21.0875 26.204 21.0824C26.1949 21.0773 26.1868 21.0705 26.1803 21.0622C26.1738 21.054 26.1689 21.0446 26.1661 21.0345C26.0919 20.7753 25.9354 20.5473 25.7201 20.3851C25.5048 20.2228 25.2425 20.1352 24.9729 20.1354C24.7033 20.1356 24.4411 20.2236 24.2261 20.3861C24.011 20.5487 23.8548 20.7769 23.781 21.0362C23.7763 21.0529 23.7662 21.0676 23.7523 21.0781C23.7385 21.0886 23.7216 21.0943 23.7042 21.0943Z" fill="#997600"/>
  </g>
  <path d="M22.3086 18.1636C23.4732 18.1636 24.4172 17.2195 24.4172 16.0549C24.4172 14.8904 23.4732 13.9463 22.3086 13.9463C21.144 13.9463 20.2 14.8904 20.2 16.0549C20.2 17.2195 21.144 18.1636 22.3086 18.1636Z" fill="#997600"/>
  <path d="M22.3086 18.077C21.7569 18.077 21.2271 17.8608 20.833 17.4746C20.4389 17.0885 20.2118 16.5633 20.2005 16.0117C20.2002 16.0261 20.2 16.0406 20.2 16.0551C20.2 16.6143 20.4221 17.1507 20.8176 17.5461C21.213 17.9416 21.7494 18.1637 22.3086 18.1637C22.8678 18.1637 23.4042 17.9416 23.7996 17.5461C24.1951 17.1507 24.4172 16.6143 24.4172 16.0551C24.4172 16.0406 24.417 16.0261 24.4167 16.0117C24.4054 16.5633 24.1783 17.0885 23.7842 17.4746C23.3901 17.8607 22.8603 18.077 22.3086 18.077Z" fill="#FFCC21"/>
  <path d="M22.3086 17.9906C23.3774 17.9906 24.2438 17.1242 24.2438 16.0554C24.2438 14.9866 23.3774 14.1201 22.3086 14.1201C21.2397 14.1201 20.3733 14.9866 20.3733 16.0554C20.3733 17.1242 21.2397 17.9906 22.3086 17.9906Z" fill="#FFCC21"/>
  <path d="M22.3086 14.2086C22.8142 14.2086 23.2997 14.4065 23.6613 14.7599C24.0228 15.1133 24.2317 15.5942 24.2433 16.0997C24.2436 16.085 24.2438 16.0703 24.2438 16.0555C24.244 15.8013 24.194 15.5495 24.0968 15.3146C23.9996 15.0796 23.8571 14.8662 23.6774 14.6864C23.4977 14.5065 23.2843 14.3639 23.0494 14.2666C22.8145 14.1692 22.5628 14.1191 22.3086 14.1191C22.0543 14.1191 21.8026 14.1692 21.5677 14.2666C21.3328 14.3639 21.1194 14.5065 20.9397 14.6864C20.76 14.8662 20.6175 15.0796 20.5203 15.3146C20.4231 15.5495 20.3731 15.8013 20.3733 16.0555C20.3733 16.0703 20.3735 16.085 20.3739 16.0997C20.3854 15.5942 20.5943 15.1133 20.9559 14.7599C21.3174 14.4065 21.803 14.2086 22.3086 14.2086Z" fill="#FCDF81"/>
  <path d="M22.3087 17.4548C22.0044 17.4541 21.7085 17.3545 21.4657 17.1711C21.2229 16.9876 21.0462 16.7303 20.9622 16.4378C20.9565 16.4174 20.9591 16.3956 20.9694 16.3771C20.9797 16.3587 20.997 16.3451 21.0173 16.3393C21.0377 16.3335 21.0595 16.3361 21.078 16.3464C21.0965 16.3567 21.1101 16.3739 21.1159 16.3942C21.1905 16.6565 21.3495 16.8869 21.5682 17.0497C21.7869 17.2125 22.0532 17.2987 22.3259 17.2949C22.5985 17.2912 22.8623 17.1976 23.0765 17.0288C23.2906 16.86 23.4431 16.6253 23.5104 16.361C23.513 16.3509 23.5175 16.3413 23.5238 16.3329C23.5301 16.3245 23.5379 16.3174 23.5469 16.312C23.556 16.3067 23.5659 16.3031 23.5763 16.3016C23.5867 16.3001 23.5973 16.3007 23.6075 16.3032C23.6176 16.3058 23.6272 16.3104 23.6356 16.3166C23.644 16.3229 23.6511 16.3308 23.6565 16.3398C23.6618 16.3488 23.6654 16.3588 23.6669 16.3692C23.6684 16.3796 23.6678 16.3901 23.6653 16.4003C23.5889 16.702 23.4139 16.9696 23.1682 17.1606C22.9224 17.3517 22.62 17.4552 22.3087 17.4548Z" fill="#997600"/>
  <path d="M21.0391 15.774C21.0268 15.774 21.0146 15.7711 21.0036 15.7656C20.9925 15.7601 20.9829 15.7521 20.9754 15.7423C20.968 15.7324 20.9629 15.721 20.9606 15.7088C20.9583 15.6967 20.9589 15.6842 20.9622 15.6723C21.0455 15.3796 21.2218 15.1219 21.4646 14.9384C21.7074 14.7549 22.0034 14.6555 22.3077 14.6553C22.6121 14.6551 22.9082 14.754 23.1513 14.9372C23.3943 15.1204 23.571 15.3778 23.6547 15.6704C23.6604 15.6908 23.6579 15.7126 23.6476 15.731C23.6372 15.7495 23.62 15.7631 23.5997 15.7689C23.5793 15.7747 23.5575 15.7722 23.539 15.762C23.5205 15.7517 23.5069 15.7345 23.501 15.7142C23.4269 15.455 23.2703 15.227 23.055 15.0648C22.8397 14.9025 22.5774 14.8149 22.3079 14.8151C22.0383 14.8153 21.7761 14.9033 21.561 15.0658C21.346 15.2284 21.1897 15.4566 21.116 15.7159C21.1112 15.7326 21.1012 15.7473 21.0873 15.7578C21.0734 15.7683 21.0565 15.774 21.0391 15.774Z" fill="#997600"/>
  <path d="M26.4744 14.6011C27.6389 14.6011 28.583 13.657 28.583 12.4924C28.583 11.3279 27.6389 10.3838 26.4744 10.3838C25.3098 10.3838 24.3657 11.3279 24.3657 12.4924C24.3657 13.657 25.3098 14.6011 26.4744 14.6011Z" fill="#997600"/>
  <path d="M26.4744 14.5135C25.9226 14.5135 25.3929 14.2973 24.9988 13.9112C24.6047 13.5251 24.3776 12.9999 24.3663 12.4482C24.366 12.4627 24.3657 12.4771 24.3657 12.4916C24.3657 13.0508 24.5879 13.5872 24.9833 13.9826C25.3788 14.3781 25.9151 14.6002 26.4744 14.6002C27.0336 14.6002 27.57 14.3781 27.9654 13.9826C28.3609 13.5872 28.583 13.0508 28.583 12.4916C28.583 12.4771 28.5828 12.4627 28.5825 12.4482C28.5711 12.9999 28.3441 13.5251 27.95 13.9112C27.5558 14.2973 27.0261 14.5135 26.4744 14.5135Z" fill="#FFCC21"/>
  <path d="M26.4743 14.4272C27.5431 14.4272 28.4096 13.5607 28.4096 12.4919C28.4096 11.4231 27.5431 10.5566 26.4743 10.5566C25.4055 10.5566 24.5391 11.4231 24.5391 12.4919C24.5391 13.5607 25.4055 14.4272 26.4743 14.4272Z" fill="#FFCC21"/>
  <path d="M26.4743 10.645C26.9799 10.645 27.4655 10.8429 27.827 11.1963C28.1886 11.5497 28.3975 12.0306 28.409 12.5361C28.4094 12.5214 28.4096 12.5067 28.4096 12.4919C28.4096 11.9786 28.2057 11.4864 27.8428 11.1235C27.4798 10.7605 26.9876 10.5566 26.4743 10.5566C25.9611 10.5566 25.4688 10.7605 25.1059 11.1235C24.743 11.4864 24.5391 11.9786 24.5391 12.4919C24.5391 12.5067 24.5393 12.5214 24.5396 12.5361C24.5512 12.0306 24.7601 11.5497 25.1216 11.1963C25.4832 10.8429 25.9687 10.645 26.4743 10.645Z" fill="#FCDF81"/>
  <path d="M26.4743 13.8912C26.17 13.8904 25.8741 13.7908 25.6313 13.6074C25.3884 13.424 25.2117 13.1666 25.1278 12.8741C25.122 12.8537 25.1246 12.8319 25.1349 12.8134C25.1452 12.7949 25.1625 12.7812 25.1829 12.7755C25.2033 12.7697 25.2251 12.7722 25.2436 12.7826C25.2621 12.7929 25.2757 12.8102 25.2815 12.8305C25.3561 13.0928 25.5151 13.3232 25.7338 13.486C25.9525 13.6489 26.2188 13.735 26.4914 13.7313C26.7641 13.7275 27.0279 13.634 27.242 13.4651C27.4562 13.2963 27.6087 13.0616 27.676 12.7974C27.6812 12.7769 27.6944 12.7593 27.7126 12.7485C27.7307 12.7377 27.7525 12.7346 27.773 12.7398C27.7935 12.745 27.8111 12.7581 27.8219 12.7762C27.8328 12.7944 27.836 12.8161 27.8308 12.8366C27.7544 13.1384 27.5795 13.4059 27.3337 13.597C27.088 13.788 26.7855 13.8915 26.4743 13.8912Z" fill="#997600"/>
  <path d="M25.2047 12.2115C25.1923 12.2115 25.1801 12.2086 25.1691 12.2031C25.158 12.1976 25.1484 12.1896 25.1409 12.1798C25.1335 12.1699 25.1284 12.1585 25.1261 12.1463C25.1239 12.1342 25.1244 12.1217 25.1278 12.1098C25.211 11.8171 25.3874 11.5594 25.6301 11.3759C25.8729 11.1924 26.1689 11.093 26.4733 11.0928C26.7776 11.0926 27.0737 11.1915 27.3168 11.3747C27.5598 11.5579 27.7366 11.8153 27.8202 12.1079C27.826 12.1283 27.8235 12.1501 27.8131 12.1686C27.8028 12.1871 27.7856 12.2007 27.7652 12.2065C27.7449 12.2123 27.7231 12.2098 27.7045 12.1995C27.686 12.1893 27.6724 12.172 27.6665 12.1517C27.5924 11.8925 27.4359 11.6645 27.2206 11.5023C27.0053 11.34 26.743 11.2524 26.4734 11.2526C26.2038 11.2528 25.9416 11.3408 25.7266 11.5033C25.5115 11.6659 25.3552 11.8941 25.2815 12.1534C25.2768 12.1701 25.2667 12.1848 25.2528 12.1953C25.239 12.2058 25.2221 12.2115 25.2047 12.2115Z" fill="#997600"/>
  <defs>
    <linearGradient id="paint0_linear_32150_8382" x1="0" y1="24" x2="48" y2="24" gradientUnits="userSpaceOnUse">
      <stop stop-color="#00583A"/>
      <stop offset="1" stop-color="#00AFC6"/>
    </linearGradient>
  </defs>
</svg>
