<svg width="73" height="73" viewBox="0 0 73 73" fill="none" xmlns="http://www.w3.org/2000/svg">
<path d="M12.625 66.5625V48.7876C12.625 47.7875 12.863 46.8375 13.339 45.9375C13.815 45.0375 14.477 44.3125 15.325 43.7625L18.625 41.5876C18.975 45.7876 19.525 49.3625 20.275 52.3125C21.025 55.2625 22.2 58.5375 23.8 62.1375L12.625 66.5625ZM28.3 60.5625C26.55 57.2625 25.25 53.7625 24.4 50.0625C23.55 46.3625 23.125 42.5376 23.125 38.5876C23.125 32.3376 24.363 26.4506 26.839 20.9265C29.315 15.4025 32.577 11.2145 36.625 8.36255C40.675 11.2125 43.938 15.4005 46.414 20.9265C48.89 26.4525 50.127 32.3396 50.125 38.5876C50.125 42.4876 49.7 46.2755 48.85 49.9515C48 53.6275 46.7 57.1645 44.95 60.5625H28.3ZM36.625 39.5625C38.275 39.5625 39.688 38.9755 40.864 37.8015C42.04 36.6275 42.627 35.2145 42.625 33.5625C42.625 31.9125 42.038 30.5005 40.864 29.3265C39.69 28.1525 38.277 27.5645 36.625 27.5625C34.975 27.5625 33.563 28.1506 32.389 29.3265C31.215 30.5026 30.627 31.9145 30.625 33.5625C30.625 35.2125 31.213 36.6255 32.389 37.8015C33.565 38.9775 34.977 39.5645 36.625 39.5625ZM60.625 66.5625L49.45 62.1375C51.05 58.5375 52.225 55.2625 52.975 52.3125C53.725 49.3625 54.275 45.7876 54.625 41.5876L57.925 43.7625C58.775 44.3125 59.438 45.0375 59.914 45.9375C60.39 46.8375 60.627 47.7875 60.625 48.7876V66.5625Z" fill="white"/>
<path d="M28.3 60.5625C26.55 57.2625 25.25 53.7625 24.4 50.0625C23.55 46.3625 23.125 42.5376 23.125 38.5876C23.125 32.3376 24.363 26.4506 26.839 20.9265C29.315 15.4025 32.577 11.2145 36.625 8.36255C40.675 11.2125 43.938 15.4005 46.414 20.9265C48.89 26.4525 50.127 32.3396 50.125 38.5876C50.125 42.4876 49.7 46.2755 48.85 49.9515C48 53.6275 46.7 57.1645 44.95 60.5625H28.3ZM36.625 39.5625C38.275 39.5625 39.688 38.9755 40.864 37.8015C42.04 36.6275 42.627 35.2145 42.625 33.5625C42.625 31.9125 42.038 30.5005 40.864 29.3265C39.69 28.1525 38.277 27.5646 36.625 27.5625C34.975 27.5625 33.563 28.1505 32.389 29.3265C31.215 30.5026 30.627 31.9145 30.625 33.5625C30.625 35.2125 31.213 36.6255 32.389 37.8015C33.565 38.9775 34.977 39.5645 36.625 39.5625Z" fill="#FA4E0E"/>
</svg>
