<svg width="48" height="48" viewBox="0 0 48 48" fill="none" xmlns="http://www.w3.org/2000/svg">
  <rect width="48" height="48" rx="24" fill="url(#paint0_linear_32153_8408)"/>
  <path d="M22.8561 38.5002C19.4571 37.2356 8.33891 34.644 9.87083 30.463C10.9417 33.4593 12.1208 24.7102 12.791 25.125C13.4613 25.5397 15.807 26.8819 15.5676 22.3819C15.5144 21.3819 15.7757 20.4528 16.209 19.571C16.3173 19.3506 16.4364 19.1331 16.5644 18.9183C16.6414 18.743 16.772 18.5966 16.9375 18.5002C19.0625 17.7502 20.125 16.2502 20.1431 14.0792C20.2489 13.8721 20.3591 13.673 20.46 13.4747C20.8637 12.6815 21.0836 11.8766 20.9772 11.0362C21.1481 11.3454 21.4094 11.5952 21.726 11.752C22.0269 11.8865 22.356 11.9459 22.6849 11.9251C24.5 11.9377 26.25 10.0627 27.75 11.1877C29.1875 12.2815 29.25 13.7346 28.8828 15.2815C28.8303 15.5025 28.7691 15.7254 28.7019 15.9494C28.5 17.5002 26.8125 19.4377 27.875 20.6252C28.375 21.2502 30.125 21.1877 30.625 20.1877C31.0625 19.2502 31.0625 18.1252 31.8098 17.3786C31.9554 17.2366 32.1116 17.1059 32.2771 16.9877C32.7663 16.6262 33.3043 16.3358 33.875 16.1252C33.4375 16.8752 33.875 17.7502 34.5625 18.1877C36.3125 19.2502 40.4375 19.8127 38.6875 22.5002C37.8958 23.7502 36.743 24.6947 35.9299 25.8391C35.7248 26.1235 35.546 26.426 35.3958 26.7429C35 27.5002 35.0625 28.2502 35.125 29.0627C35.3125 30.5627 36.0625 32.1877 35.4375 33.5627C34.4375 35.6252 31.75 35.9377 29.8514 37.016C29.4103 37.2133 28.9778 37.4035 28.5464 37.5802C26.3909 38.4637 24.2276 39.0105 22.8561 38.5002Z" fill="#FFDA00"/>
  <path d="M22.4414 38.5001C20.2784 37.6954 14.9895 36.3532 11.8238 34.4061C11.5976 34.267 11.3823 34.1245 11.1798 33.9783C9.93755 33.1252 8.87505 31.6252 9.50005 30.0002C9.62505 30.1877 9.81255 30.7502 10.0625 30.4377C11.375 28.6252 10.75 26.5627 11.0625 24.5002C11.125 24.1877 11.4375 23.8127 11.8125 23.9377C12.6875 24.4377 13.375 25.9377 14.554 25.3315C14.715 25.1729 14.8382 24.98 14.9144 24.7672C15.1111 24.2667 15.2128 23.5068 15.153 22.3818C15.1201 21.6518 15.2396 20.9229 15.5038 20.2415C15.5884 20.0148 15.686 19.7914 15.7943 19.5709C16.375 18.1252 18.125 18.4377 19.3125 17.6877C19.3992 17.6257 19.4641 17.538 19.4978 17.4369C19.5314 17.3358 19.5322 17.2267 19.5 17.1252C19.4375 16.1252 19.0625 15.0002 19.7106 14.0676C19.832 13.8704 19.9444 13.6729 20.0453 13.4746C20.4491 12.6815 20.6689 11.8765 20.5625 11.0361C22.5829 14.466 29.261 6.22872 27.5614 15.4274C27.5293 15.601 27.4943 15.7808 27.4562 15.9669C27.25 17.1252 26.9375 18.3127 26.9233 19.5187C26.9198 19.6896 26.9235 19.8622 26.9357 20.0362C26.948 20.2127 26.9694 20.3884 27 20.5627C27.0625 20.7189 27.2032 20.7658 27.3531 20.7499C28.375 20.2502 29.5625 21.0002 30.375 20.3127C31.4375 19.4377 30.8125 17.5002 32.1957 16.6783C32.3853 16.552 32.584 16.44 32.7903 16.3431C32.9848 16.2506 33.1861 16.1729 33.3923 16.1105C31.885 19.7574 40.4589 18.7283 37.117 23.0303C36.9932 23.1896 36.8555 23.3563 36.7135 23.5306C36.125 24.3127 36.5 25.2502 37.125 25.9377C37.1875 26.0627 37.3125 26.2502 37.25 26.4377C36.375 27.8127 34.4375 28.5002 34.5871 30.2899C34.6035 30.508 34.6236 30.7206 34.6437 30.9278C34.8045 32.5852 34.9668 33.8974 33.7753 34.6405C31.0945 36.3127 25.1845 39.5207 22.4414 38.5001Z" fill="#DD3A14"/>
  <path d="M19.0519 36.743C15.7282 34.4049 11.0732 30.7919 12.5094 28.7812C13.9455 26.7706 12.2736 23.6749 12.2417 21.0259C14.2843 23.1323 17.2647 18.0578 20.8391 25.3344C19.9455 20.9621 17.903 18.8557 21.6689 16.7812C21.1583 18.5685 24.0726 18.7247 24.8923 20.9302C25.7121 23.1357 23.0094 30.1217 31.7221 22.3983C29.2008 27.5797 32.3801 27.9662 31.4014 31.5837C30.4227 35.2012 25.9136 38.2919 25.9136 38.2919L19.0519 36.743Z" fill="#CC5C09"/>
  <path d="M19.903 36.743C16.5793 34.4049 11.9243 30.7919 13.3604 28.7812C14.7966 26.7706 13.1247 23.6749 13.0928 21.0259C15.1353 23.1323 18.1158 18.0578 21.6902 25.3344C20.7966 20.9621 18.7541 18.8557 22.52 16.7812C22.0094 18.5685 24.9236 18.7247 25.7434 20.9302C26.5632 23.1357 23.8604 30.1217 32.5732 22.3983C30.0519 27.5797 33.2312 27.9662 32.2525 31.5837C31.2738 35.2012 26.7647 38.2919 26.7647 38.2919L19.903 36.743Z" fill="#FFDA00"/>
  <path d="M24.0001 38.9938C28.7114 38.9938 32.5307 35.1745 32.5307 30.4632C32.5307 25.7519 28.7114 21.9326 24.0001 21.9326C19.2888 21.9326 15.4695 25.7519 15.4695 30.4632C15.4695 35.1745 19.2888 38.9938 24.0001 38.9938Z" fill="#997600"/>
  <path d="M24.0001 38.6423C21.768 38.6423 19.6249 37.7674 18.0306 36.2054C16.4362 34.6434 15.5175 32.5187 15.4717 30.2871C15.4705 30.3455 15.4695 30.4038 15.4695 30.4625C15.4695 31.5827 15.6901 32.692 16.1188 33.727C16.5475 34.762 17.1759 35.7024 17.968 36.4945C18.7602 37.2866 19.7006 37.915 20.7356 38.3437C21.7705 38.7724 22.8798 38.9931 24.0001 38.9931C25.1203 38.9931 26.2296 38.7724 27.2646 38.3437C28.2996 37.915 29.24 37.2866 30.0321 36.4945C30.8242 35.7024 31.4526 34.762 31.8813 33.727C32.31 32.692 32.5307 31.5827 32.5307 30.4625C32.5307 30.4038 32.5296 30.3455 32.5284 30.2871C32.4826 32.5187 31.564 34.6434 29.9696 36.2054C28.3752 37.7674 26.2321 38.6423 24.0001 38.6423Z" fill="#FFCC21"/>
  <path d="M24.0001 38.2921C28.324 38.2921 31.8292 34.7869 31.8292 30.4629C31.8292 26.139 28.324 22.6338 24.0001 22.6338C19.6761 22.6338 16.1709 26.139 16.1709 30.4629C16.1709 34.7869 19.6761 38.2921 24.0001 38.2921Z" fill="#FFCC21"/>
  <path d="M24.0001 22.9914C26.0455 22.9914 28.0097 23.7919 29.4724 25.2217C30.9352 26.6514 31.7803 28.5968 31.827 30.6417C31.8283 30.5823 31.8292 30.5227 31.8292 30.4629C31.8292 28.3865 31.0044 26.3951 29.5361 24.9269C28.0679 23.4586 26.0765 22.6338 24.0001 22.6338C21.9236 22.6338 19.9323 23.4586 18.464 24.9269C16.9958 26.3951 16.1709 28.3865 16.1709 30.4629C16.1709 30.5227 16.1718 30.5823 16.1732 30.6417C16.2198 28.5968 17.065 26.6514 18.5277 25.2217C19.9904 23.7919 21.9546 22.9914 24.0001 22.9914Z" fill="#FCDF81"/>
  <path d="M29.1748 31.7783C28.8851 32.9163 28.2284 33.927 27.3063 34.654C26.3842 35.3811 25.2482 35.7839 24.074 35.8002C22.8999 35.8165 21.7532 35.4453 20.8113 34.744C19.8694 34.0428 19.1849 33.0507 18.8638 31.9212" stroke="#997600" stroke-miterlimit="10" stroke-linecap="round"/>
  <path d="M18.8638 29.0044C19.1813 27.8877 19.8541 26.905 20.7802 26.205C21.7063 25.505 22.8354 25.1258 23.9963 25.125C25.1572 25.1242 26.2868 25.5017 27.2139 26.2004C28.141 26.8991 28.8152 27.8809 29.1343 28.9971" stroke="#997600" stroke-miterlimit="10" stroke-linecap="round"/>
  <path d="M30.2647 14.9352C30.4116 14.9352 30.5307 14.8162 30.5307 14.6693C30.5307 14.5224 30.4116 14.4033 30.2647 14.4033C30.1179 14.4033 29.9988 14.5224 29.9988 14.6693C29.9988 14.8162 30.1179 14.9352 30.2647 14.9352Z" fill="#FFDA00"/>
  <path d="M16.4369 10.488C16.5837 10.488 16.7028 10.3689 16.7028 10.222C16.7028 10.0751 16.5837 9.95605 16.4369 9.95605C16.29 9.95605 16.1709 10.0751 16.1709 10.222C16.1709 10.3689 16.29 10.488 16.4369 10.488Z" fill="#FFDA00"/>
  <path d="M12.8267 37.5202C12.9736 37.5202 13.0927 37.4011 13.0927 37.2542C13.0927 37.1074 12.9736 36.9883 12.8267 36.9883C12.6799 36.9883 12.5608 37.1074 12.5608 37.2542C12.5608 37.4011 12.6799 37.5202 12.8267 37.5202Z" fill="#FFDA00"/>
  <path d="M13.4864 16.2863C13.7038 16.2863 13.88 16.11 13.88 15.8926C13.88 15.6753 13.7038 15.499 13.4864 15.499C13.269 15.499 13.0928 15.6753 13.0928 15.8926C13.0928 16.11 13.269 16.2863 13.4864 16.2863Z" fill="#DD3A14"/>
  <path d="M37.2957 30.8566C37.5131 30.8566 37.6893 30.6803 37.6893 30.463C37.6893 30.2456 37.5131 30.0693 37.2957 30.0693C37.0783 30.0693 36.9021 30.2456 36.9021 30.463C36.9021 30.6803 37.0783 30.8566 37.2957 30.8566Z" fill="#DD3A14"/>
  <path d="M35.5943 14.797C35.8117 14.797 35.9879 14.6208 35.9879 14.4034C35.9879 14.186 35.8117 14.0098 35.5943 14.0098C35.3769 14.0098 35.2007 14.186 35.2007 14.4034C35.2007 14.6208 35.3769 14.797 35.5943 14.797Z" fill="#DD3A14"/>
  <defs>
    <linearGradient id="paint0_linear_32153_8408" x1="24" y1="0" x2="24" y2="48" gradientUnits="userSpaceOnUse">
      <stop stop-color="#FF9776"/>
      <stop offset="0.328125" stop-color="#FF8139"/>
      <stop offset="1" stop-color="#E04300"/>
    </linearGradient>
  </defs>
</svg>
