<svg width="48" height="48" viewBox="0 0 48 48" fill="none" xmlns="http://www.w3.org/2000/svg">
<rect width="48" height="48" rx="24" fill="#FB0000"/>
<path d="M24.8201 35.0864C24.9121 35.2064 24.8975 35.345 24.8882 35.397C24.8682 35.5143 24.8201 35.593 24.6961 35.657C24.2601 35.8863 24.0001 35.9997 24.0001 35.9997C24.0001 35.9997 13.7867 31.3597 12.2254 23.293C11.2654 18.333 13.3589 13.3597 18.6922 13.333C22.6655 13.3197 23.9988 17.3197 23.9988 17.3197C23.9988 17.3197 25.3321 13.3197 29.3055 13.333C34.6521 13.3597 36.7321 18.333 35.7721 23.293C35.6921 23.693 35.5988 24.0797 35.4788 24.4531C35.3975 24.6597 35.2562 24.7264 35.0962 24.7264C34.9895 24.7264 34.8802 24.6743 34.8122 24.6263C33.6388 23.813 32.2122 23.333 30.6655 23.333C26.6255 23.333 23.3322 26.6264 23.3322 30.6664C23.3335 32.329 23.8855 33.8597 24.8201 35.0864ZM36.0001 30.6664C36.0001 33.613 33.6135 35.9997 30.6668 35.9997C27.7201 35.9997 25.3335 33.613 25.3335 30.6664C25.3335 27.7197 27.7201 25.333 30.6668 25.333C33.6135 25.333 36.0001 27.7197 36.0001 30.6664ZM33.0001 30.6664C33.0001 30.293 32.7068 29.9997 32.3335 29.9997H31.3335V28.9997C31.3335 28.6264 31.0401 28.333 30.6668 28.333C30.2935 28.333 30.0001 28.6264 30.0001 28.9997V29.9997H29.0001C28.6268 29.9997 28.3335 30.293 28.3335 30.6664C28.3335 31.0397 28.6268 31.333 29.0001 31.333H30.0001V32.333C30.0001 32.7064 30.2935 32.9997 30.6668 32.9997C31.0401 32.9997 31.3335 32.7064 31.3335 32.333V31.333H32.3335C32.7068 31.333 33.0001 31.0397 33.0001 30.6664Z" fill="white"/>
</svg>
