<svg width="73" height="73" viewBox="0 0 73 73" fill="none" xmlns="http://www.w3.org/2000/svg">
<path d="M28.625 6.5625C29.2217 6.5625 29.794 6.79955 30.216 7.22151C30.6379 7.64347 30.875 8.21576 30.875 8.8125V16.3125C30.875 16.9092 30.6379 17.4815 30.216 17.9035C29.794 18.3254 29.2217 18.5625 28.625 18.5625C28.0283 18.5625 27.456 18.3254 27.034 17.9035C26.6121 17.4815 26.375 16.9092 26.375 16.3125V8.8125C26.375 8.21576 26.6121 7.64347 27.034 7.22151C27.456 6.79955 28.0283 6.5625 28.625 6.5625ZM14.285 12.4725C14.7069 12.0511 15.2787 11.8145 15.875 11.8145C16.4713 11.8145 17.0431 12.0511 17.465 12.4725L22.715 17.7225C22.9361 17.9285 23.1134 18.1769 23.2363 18.4529C23.3593 18.7289 23.4254 19.0268 23.4308 19.3289C23.4361 19.631 23.3805 19.9311 23.2674 20.2113C23.1542 20.4915 22.9858 20.746 22.7721 20.9596C22.5585 21.1733 22.304 21.3417 22.0238 21.4549C21.7436 21.568 21.4435 21.6236 21.1414 21.6183C20.8393 21.6129 20.5414 21.5468 20.2654 21.4238C19.9894 21.3009 19.741 21.1236 19.535 20.9025L14.285 15.6525C13.8636 15.2306 13.627 14.6588 13.627 14.0625C13.627 13.4662 13.8636 12.8944 14.285 12.4725ZM42.965 12.4725C43.3863 12.8944 43.623 13.4662 43.623 14.0625C43.623 14.6588 43.3863 15.2306 42.965 15.6525L37.715 20.9025C37.509 21.1236 37.2606 21.3009 36.9846 21.4238C36.7086 21.5468 36.4107 21.6129 36.1086 21.6183C35.8065 21.6236 35.5064 21.568 35.2262 21.4549C34.946 21.3417 34.6915 21.1733 34.4779 20.9596C34.2642 20.746 34.0958 20.4915 33.9826 20.2113C33.8695 19.9311 33.8139 19.631 33.8192 19.3289C33.8246 19.0268 33.8907 18.7289 34.0137 18.4529C34.1366 18.1769 34.3139 17.9285 34.535 17.7225L39.785 12.4725C40.2069 12.0511 40.7787 11.8145 41.375 11.8145C41.9713 11.8145 42.5431 12.0511 42.965 12.4725ZM8.375 26.8125C8.375 26.2158 8.61205 25.6435 9.03401 25.2215C9.45597 24.7996 10.0283 24.5625 10.625 24.5625H18.125C18.7217 24.5625 19.294 24.7996 19.716 25.2215C20.1379 25.6435 20.375 26.2158 20.375 26.8125C20.375 27.4092 20.1379 27.9815 19.716 28.4035C19.294 28.8254 18.7217 29.0625 18.125 29.0625H10.625C10.0283 29.0625 9.45597 28.8254 9.03401 28.4035C8.61205 27.9815 8.375 27.4092 8.375 26.8125ZM26.375 29.0235C26.375 25.6425 30.341 23.8185 32.906 26.0205L58.289 47.7765C61.019 50.1165 59.465 54.5895 55.874 54.7365L44.354 55.1955C43.115 55.2435 41.951 55.7955 41.123 56.7165L33.281 65.4825C30.86 68.1915 26.375 66.4755 26.375 62.8425V29.0235Z" fill="white"/>
<path d="M28.625 6.5625C29.2217 6.5625 29.794 6.79955 30.216 7.22151C30.6379 7.64347 30.875 8.21576 30.875 8.8125V16.3125C30.875 16.9092 30.6379 17.4815 30.216 17.9035C29.794 18.3254 29.2217 18.5625 28.625 18.5625C28.0283 18.5625 27.456 18.3254 27.034 17.9035C26.6121 17.4815 26.375 16.9092 26.375 16.3125V8.8125C26.375 8.21576 26.6121 7.64347 27.034 7.22151C27.456 6.79955 28.0283 6.5625 28.625 6.5625ZM14.285 12.4725C14.7069 12.0511 15.2787 11.8145 15.875 11.8145C16.4713 11.8145 17.0431 12.0511 17.465 12.4725L22.715 17.7225C22.9361 17.9285 23.1134 18.1769 23.2363 18.4529C23.3593 18.7289 23.4254 19.0268 23.4308 19.3289C23.4361 19.631 23.3805 19.9311 23.2674 20.2113C23.1542 20.4915 22.9858 20.746 22.7721 20.9596C22.5585 21.1733 22.304 21.3417 22.0238 21.4549C21.7436 21.568 21.4435 21.6236 21.1414 21.6183C20.8393 21.6129 20.5414 21.5468 20.2654 21.4238C19.9894 21.3009 19.741 21.1236 19.535 20.9025L14.285 15.6525C13.8636 15.2306 13.627 14.6588 13.627 14.0625C13.627 13.4662 13.8636 12.8944 14.285 12.4725ZM42.965 12.4725C43.3864 12.8944 43.623 13.4662 43.623 14.0625C43.623 14.6588 43.3864 15.2306 42.965 15.6525L37.715 20.9025C37.509 21.1236 37.2606 21.3009 36.9846 21.4238C36.7086 21.5468 36.4107 21.6129 36.1086 21.6183C35.8065 21.6236 35.5064 21.568 35.2262 21.4549C34.946 21.3417 34.6915 21.1733 34.4779 20.9596C34.2642 20.746 34.0958 20.4915 33.9826 20.2113C33.8695 19.9311 33.8139 19.631 33.8192 19.3289C33.8246 19.0268 33.8907 18.7289 34.0137 18.4529C34.1366 18.1769 34.3139 17.9285 34.535 17.7225L39.785 12.4725C40.2069 12.0511 40.7787 11.8145 41.375 11.8145C41.9713 11.8145 42.5431 12.0511 42.965 12.4725ZM8.375 26.8125C8.375 26.2158 8.61205 25.6435 9.03401 25.2215C9.45597 24.7996 10.0283 24.5625 10.625 24.5625H18.125C18.7217 24.5625 19.294 24.7996 19.716 25.2215C20.1379 25.6435 20.375 26.2158 20.375 26.8125C20.375 27.4092 20.1379 27.9815 19.716 28.4035C19.294 28.8254 18.7217 29.0625 18.125 29.0625H10.625C10.0283 29.0625 9.45597 28.8254 9.03401 28.4035C8.61205 27.9815 8.375 27.4092 8.375 26.8125Z" fill="#FA4E0E"/>
</svg>
