<svg xmlns="http://www.w3.org/2000/svg" width="21" height="21" viewBox="0 0 21 21" fill="none">
<g clip-path="url(#clip0_31373_11911)">
<rect width="20" height="20" transform="translate(0.5 0.0625)" fill="#FA4E0E"/>
<path d="M8.61452 7.85848C8.53062 7.86148 8.44702 7.84748 8.36862 7.81738C8.29022 7.78738 8.21872 7.74178 8.15832 7.68358C8.09802 7.62528 8.04992 7.55538 8.01712 7.47808C7.98432 7.40088 7.96742 7.31778 7.96742 7.23388C7.96742 7.14998 7.98432 7.06688 8.01712 6.98958C8.04992 6.91238 8.09802 6.84248 8.15832 6.78418C8.21872 6.72588 8.29022 6.68038 8.36862 6.65028C8.44702 6.62028 8.53062 6.60628 8.61452 6.60928H13.3285C13.4941 6.60938 13.653 6.67518 13.7701 6.79228C13.8872 6.90938 13.953 7.06828 13.9531 7.23388V11.9479C13.9561 12.0318 13.9421 12.1154 13.9121 12.1938C13.882 12.2722 13.8365 12.3437 13.7782 12.4041C13.7199 12.4644 13.65 12.5125 13.5728 12.5453C13.4955 12.5781 13.4125 12.595 13.3285 12.595C13.2446 12.595 13.1615 12.5781 13.0843 12.5453C13.007 12.5125 12.9371 12.4644 12.8788 12.4041C12.8206 12.3437 12.775 12.2722 12.745 12.1938C12.7149 12.1154 12.7009 12.0318 12.7039 11.9479V8.74238L6.99402 14.4523C6.87682 14.5695 6.71782 14.6353 6.55212 14.6353C6.38632 14.6353 6.22732 14.5695 6.11012 14.4523C5.99292 14.3351 5.92712 14.1761 5.92712 14.0103C5.92712 13.8446 5.99292 13.6856 6.11012 13.5684L11.82 7.85848H8.61452Z" fill="white"/>
</g>
<defs>
<clipPath id="clip0_31373_11911">
<rect width="20" height="20" fill="white" transform="translate(0.5 0.0625)"/>
</clipPath>
</defs>
</svg>