<svg width="73" height="72" viewBox="0 0 73 72" fill="none" xmlns="http://www.w3.org/2000/svg">
<g clip-path="url(#clip0_31369_9381)">
<path d="M28.5963 9.951C28.9056 10.6838 28.9112 11.5095 28.6119 12.2464C28.3126 12.9834 27.7329 13.5714 27.0003 13.881C22.6509 15.717 18.9394 18.7945 16.3298 22.7287C13.7202 26.6628 12.3284 31.279 12.3284 36C12.3284 40.721 13.7202 45.3372 16.3298 49.2713C18.9394 53.2055 22.6509 56.283 27.0003 58.119C27.3712 58.2666 27.709 58.4868 27.9937 58.7666C28.2785 59.0464 28.5046 59.3803 28.6587 59.7486C28.8127 60.1169 28.8918 60.5123 28.8911 60.9116C28.8904 61.3108 28.81 61.7059 28.6547 62.0737C28.4994 62.4415 28.2722 62.7746 27.9864 63.0534C27.7007 63.3323 27.3622 63.5513 26.9907 63.6976C26.6193 63.844 26.2223 63.9147 25.8232 63.9057C25.424 63.8966 25.0307 63.808 24.6663 63.645C19.2313 61.3495 14.5935 57.5028 11.3328 52.5858C8.07212 47.6689 6.33313 41.8999 6.33325 36C6.33325 23.565 13.8993 12.9 24.6632 8.355C25.0263 8.20138 25.416 8.1208 25.8102 8.11787C26.2044 8.11495 26.5952 8.18973 26.9605 8.33795C27.3258 8.48617 27.6582 8.70492 27.9389 8.9817C28.2196 9.25848 28.4429 9.58785 28.5963 9.951ZM48.0003 8.355C53.4355 10.6502 58.0734 14.4968 61.3342 19.4138C64.5949 24.3309 66.3338 30.1 66.3333 36C66.3333 48.435 58.7673 59.097 48.0033 63.645C47.2705 63.9553 46.4444 63.9618 45.7068 63.6631C44.9692 63.3643 44.3806 62.7848 44.0703 62.052C43.7599 61.3192 43.7535 60.4932 44.0522 59.7556C44.3509 59.018 44.9305 58.4293 45.6632 58.119C50.0126 56.283 53.7241 53.2055 56.3337 49.2713C58.9433 45.3372 60.3351 40.721 60.3351 36C60.3351 31.279 58.9433 26.6628 56.3337 22.7287C53.7241 18.7945 50.0126 15.717 45.6632 13.881C44.9305 13.5707 44.3509 12.982 44.0522 12.2444C43.7535 11.5068 43.7599 10.6808 44.0703 9.948C44.3806 9.21521 44.9692 8.6357 45.7068 8.33695C46.4444 8.03821 47.2705 8.0447 48.0033 8.355H48.0003ZM36.3333 18C37.1289 18 37.892 18.3161 38.4546 18.8787C39.0172 19.4413 39.3333 20.2044 39.3333 21V24H45.3333C46.1289 24 46.892 24.3161 47.4546 24.8787C48.0172 25.4413 48.3333 26.2044 48.3333 27C48.3333 27.7957 48.0172 28.5587 47.4546 29.1213C46.892 29.6839 46.1289 30 45.3333 30H39.3333V33H42.3332C44.3224 33 46.23 33.7902 47.6366 35.1967C49.0431 36.6032 49.8333 38.5109 49.8333 40.5C49.8333 42.4891 49.0431 44.3968 47.6366 45.8033C46.23 47.2098 44.3224 48 42.3332 48H39.3333V51C39.3333 51.7957 39.0172 52.5587 38.4546 53.1213C37.892 53.6839 37.1289 54 36.3333 54C35.5376 54 34.7745 53.6839 34.2119 53.1213C33.6493 52.5587 33.3333 51.7957 33.3333 51V48H27.3333C26.5376 48 25.7745 47.6839 25.2119 47.1213C24.6493 46.5587 24.3333 45.7957 24.3333 45C24.3333 44.2044 24.6493 43.4413 25.2119 42.8787C25.7745 42.3161 26.5376 42 27.3333 42H33.3333V39H30.3333C28.3441 39 26.4365 38.2098 25.03 36.8033C23.6234 35.3968 22.8333 33.4891 22.8333 31.5C22.8333 29.5109 23.6234 27.6032 25.03 26.1967C26.4365 24.7902 28.3441 24 30.3333 24H33.3333V21C33.3333 20.2044 33.6493 19.4413 34.2119 18.8787C34.7745 18.3161 35.5376 18 36.3333 18ZM42.3332 39H39.3333V42H42.3332C42.7311 42 43.1126 41.842 43.3939 41.5607C43.6752 41.2794 43.8333 40.8978 43.8333 40.5C43.8333 40.1022 43.6752 39.7206 43.3939 39.4393C43.1126 39.158 42.7311 39 42.3332 39ZM33.3333 30H30.3333C29.9354 30 29.5539 30.158 29.2726 30.4393C28.9913 30.7206 28.8333 31.1022 28.8333 31.5C28.8333 31.8978 28.9913 32.2794 29.2726 32.5607C29.5539 32.842 29.9354 33 30.3333 33H33.3333V30Z" fill="white"/>
<path d="M36.3333 18C37.1289 18 37.892 18.3161 38.4546 18.8787C39.0172 19.4413 39.3333 20.2044 39.3333 21V24H45.3333C46.1289 24 46.892 24.3161 47.4546 24.8787C48.0172 25.4413 48.3333 26.2044 48.3333 27C48.3333 27.7956 48.0172 28.5587 47.4546 29.1213C46.892 29.6839 46.1289 30 45.3333 30H39.3333V33H42.3333C44.3224 33 46.23 33.7902 47.6366 35.1967C49.0431 36.6032 49.8333 38.5109 49.8333 40.5C49.8333 42.4891 49.0431 44.3968 47.6366 45.8033C46.23 47.2098 44.3224 48 42.3333 48H39.3333V51C39.3333 51.7957 39.0172 52.5587 38.4546 53.1213C37.892 53.6839 37.1289 54 36.3333 54C35.5376 54 34.7745 53.6839 34.2119 53.1213C33.6493 52.5587 33.3333 51.7957 33.3333 51V48H27.3333C26.5376 48 25.7745 47.6839 25.2119 47.1213C24.6493 46.5587 24.3333 45.7957 24.3333 45C24.3333 44.2044 24.6493 43.4413 25.2119 42.8787C25.7745 42.3161 26.5376 42 27.3333 42H33.3333V39H30.3333C28.3441 39 26.4365 38.2098 25.03 36.8033C23.6234 35.3968 22.8333 33.4891 22.8333 31.5C22.8333 29.5109 23.6234 27.6032 25.03 26.1967C26.4365 24.7902 28.3441 24 30.3333 24H33.3333V21C33.3333 20.2044 33.6493 19.4413 34.2119 18.8787C34.7745 18.3161 35.5376 18 36.3333 18ZM42.3333 39H39.3333V42H42.3333C42.7311 42 43.1126 41.842 43.3939 41.5607C43.6752 41.2794 43.8333 40.8978 43.8333 40.5C43.8333 40.1022 43.6752 39.7206 43.3939 39.4393C43.1126 39.158 42.7311 39 42.3333 39ZM33.3333 30H30.3333C29.9354 30 29.5539 30.158 29.2726 30.4393C28.9913 30.7206 28.8333 31.1022 28.8333 31.5C28.8333 31.8978 28.9913 32.2794 29.2726 32.5607C29.5539 32.842 29.9354 33 30.3333 33H33.3333V30Z" fill="#FA4E0E"/>
</g>
<defs>
<clipPath id="clip0_31369_9381">
<rect width="72" height="72" fill="white" transform="translate(0.333252)"/>
</clipPath>
</defs>
</svg>
