<svg width="61" height="60" viewBox="0 0 61 60" fill="none" xmlns="http://www.w3.org/2000/svg">
<rect width="60" height="60" rx="8" transform="matrix(1 8.74228e-08 8.74228e-08 -1 0.333252 60)" fill="url(#paint0_angular_31629_8940)" fill-opacity="0.07"/>
<rect x="0.5" y="-0.5" width="59" height="59" rx="7.5" transform="matrix(1 8.74228e-08 8.74228e-08 -1 0.333252 59)" stroke="url(#paint1_linear_31629_8940)" stroke-opacity="0.4"/>
<path d="M30.9999 12.0833C21.1199 12.0833 13.0833 20.12 13.0833 30C13.0833 39.88 21.1199 47.9167 30.9999 47.9167C40.8799 47.9167 48.9166 39.88 48.9166 30C48.9166 20.12 40.8799 12.0833 30.9999 12.0833ZM30.9999 45.4167C22.4983 45.4167 15.5833 38.5017 15.5833 30C15.5833 21.4983 22.4983 14.5833 30.9999 14.5833C39.5016 14.5833 46.4166 21.4983 46.4166 30C46.4166 38.5017 39.5016 45.4167 30.9999 45.4167ZM32.6432 29.1201L29.9632 28.455C29.5499 28.3517 29.1983 28.1199 28.9333 27.7816C28.6833 27.4649 28.5449 27.0584 28.5449 26.64C28.5449 25.6084 29.3832 24.7701 30.4149 24.7701H31.5816C32.5349 24.7701 33.3332 25.4868 33.4416 26.4368C33.5182 27.1234 34.1299 27.6201 34.8233 27.5401C35.5099 27.4634 36.0032 26.8449 35.9266 26.1583C35.7016 24.1549 34.1516 22.61 32.2116 22.3283V21.6667C32.2116 20.9767 31.6516 20.4167 30.9616 20.4167C30.2716 20.4167 29.7116 20.9767 29.7116 21.6667V22.3401C27.6366 22.6801 26.0449 24.4701 26.0449 26.6384C26.0449 27.6167 26.3733 28.5734 26.9649 29.3201C27.5583 30.0851 28.4049 30.6383 29.3549 30.8783L32.0349 31.5434C32.8699 31.7551 33.4532 32.5017 33.4532 33.3584C33.4532 33.855 33.2582 34.3234 32.9032 34.6784C32.5483 35.0334 32.0799 35.2283 31.5833 35.2283H30.4166C29.4632 35.2283 28.6649 34.5116 28.5566 33.5616C28.4799 32.8749 27.8532 32.375 27.1749 32.4583C26.4882 32.535 25.9949 33.1533 26.0716 33.8399C26.2933 35.8183 27.8066 37.3534 29.7116 37.6618V38.3333C29.7116 39.0233 30.2716 39.5833 30.9616 39.5833C31.6516 39.5833 32.2116 39.0233 32.2116 38.3333V37.6701C33.1366 37.5351 33.9949 37.125 34.6699 36.45C35.4966 35.6233 35.9532 34.5266 35.9532 33.3616C35.9532 31.3566 34.5949 29.6151 32.6432 29.1201Z" fill="white"/>
<path d="M30.9999 12.0833C21.1199 12.0833 13.0833 20.12 13.0833 30C13.0833 39.88 21.1199 47.9167 30.9999 47.9167C40.8799 47.9167 48.9166 39.88 48.9166 30C48.9166 20.12 40.8799 12.0833 30.9999 12.0833ZM30.9999 45.4167C22.4983 45.4167 15.5833 38.5017 15.5833 30C15.5833 21.4983 22.4983 14.5833 30.9999 14.5833C39.5016 14.5833 46.4166 21.4983 46.4166 30C46.4166 38.5017 39.5016 45.4167 30.9999 45.4167ZM32.6432 29.1201L29.9632 28.455C29.5499 28.3517 29.1983 28.1199 28.9333 27.7816C28.6833 27.4649 28.5449 27.0584 28.5449 26.64C28.5449 25.6084 29.3832 24.7701 30.4149 24.7701H31.5816C32.5349 24.7701 33.3332 25.4868 33.4416 26.4368C33.5182 27.1234 34.1299 27.6201 34.8233 27.5401C35.5099 27.4634 36.0032 26.8449 35.9266 26.1583C35.7016 24.1549 34.1516 22.61 32.2116 22.3283V21.6667C32.2116 20.9767 31.6516 20.4167 30.9616 20.4167C30.2716 20.4167 29.7116 20.9767 29.7116 21.6667V22.3401C27.6366 22.6801 26.0449 24.4701 26.0449 26.6384C26.0449 27.6167 26.3733 28.5734 26.9649 29.3201C27.5583 30.0851 28.4049 30.6383 29.3549 30.8783L32.0349 31.5434C32.8699 31.7551 33.4532 32.5017 33.4532 33.3584C33.4532 33.855 33.2582 34.3234 32.9032 34.6784C32.5483 35.0334 32.0799 35.2283 31.5833 35.2283H30.4166C29.4632 35.2283 28.6649 34.5116 28.5566 33.5616C28.4799 32.875 27.8532 32.375 27.1749 32.4583C26.4882 32.535 25.9949 33.1533 26.0716 33.8399C26.2933 35.8183 27.8066 37.3534 29.7116 37.6618V38.3333C29.7116 39.0233 30.2716 39.5833 30.9616 39.5833C31.6516 39.5833 32.2116 39.0233 32.2116 38.3333V37.6701C33.1366 37.5351 33.9949 37.125 34.6699 36.45C35.4966 35.6233 35.9532 34.5266 35.9532 33.3616C35.9532 31.3566 34.5949 29.6151 32.6432 29.1201Z" fill="white"/>
<path d="M32.6432 29.1201L29.9632 28.455C29.5499 28.3517 29.1983 28.1199 28.9333 27.7816C28.6833 27.4649 28.5449 27.0584 28.5449 26.64C28.5449 25.6084 29.3832 24.7701 30.4149 24.7701H31.5816C32.5349 24.7701 33.3332 25.4868 33.4416 26.4368C33.5182 27.1235 34.1299 27.6201 34.8233 27.5401C35.5099 27.4634 36.0032 26.8449 35.9266 26.1583C35.7016 24.1549 34.1516 22.61 32.2116 22.3283V21.6667C32.2116 20.9767 31.6516 20.4167 30.9616 20.4167C30.2716 20.4167 29.7116 20.9767 29.7116 21.6667V22.3401C27.6366 22.6801 26.0449 24.4701 26.0449 26.6384C26.0449 27.6167 26.3733 28.5734 26.9649 29.3201C27.5583 30.0851 28.4049 30.6383 29.3549 30.8783L32.0349 31.5434C32.8699 31.7551 33.4532 32.5017 33.4532 33.3584C33.4532 33.855 33.2582 34.3234 32.9032 34.6784C32.5482 35.0334 32.0799 35.2283 31.5833 35.2283H30.4166C29.4632 35.2283 28.6649 34.5116 28.5566 33.5616C28.4799 32.875 27.8532 32.375 27.1749 32.4583C26.4882 32.535 25.9949 33.1533 26.0716 33.8399C26.2932 35.8183 27.8066 37.3534 29.7116 37.6618V38.3334C29.7116 39.0234 30.2716 39.5834 30.9616 39.5834C31.6516 39.5834 32.2116 39.0234 32.2116 38.3334V37.6701C33.1366 37.5351 33.9949 37.125 34.6699 36.45C35.4966 35.6233 35.9532 34.5266 35.9532 33.3616C35.9532 31.3566 34.5949 29.6151 32.6432 29.1201Z" fill="#FA4E0E"/>
<defs>
<radialGradient id="paint0_angular_31629_8940" cx="0" cy="0" r="1" gradientUnits="userSpaceOnUse" gradientTransform="translate(30 30) rotate(-45.7589) scale(35.5941 35.5941)">
<stop stop-color="white"/>
<stop offset="1" stop-color="white" stop-opacity="0"/>
</radialGradient>
<linearGradient id="paint1_linear_31629_8940" x1="60.3333" y1="6.80486e-06" x2="3.33325" y2="60" gradientUnits="userSpaceOnUse">
<stop stop-color="white" stop-opacity="0.2"/>
<stop offset="0.525" stop-color="white"/>
<stop offset="1" stop-color="white" stop-opacity="0.2"/>
</linearGradient>
</defs>
</svg>
