<svg width="20" height="20" viewBox="0 0 20 20" fill="none" xmlns="http://www.w3.org/2000/svg">
<g clip-path="url(#clip0_31629_8926)">
<path fill-rule="evenodd" clip-rule="evenodd" d="M15.1846 4.95331C15.3493 4.88397 15.5297 4.86006 15.7068 4.88405C15.8839 4.90805 16.0514 4.97909 16.1917 5.08977C16.3321 5.20044 16.4402 5.34672 16.5048 5.51337C16.5695 5.68001 16.5883 5.86094 16.5593 6.03731L15.0473 15.2086C14.9006 16.0933 13.9299 16.6006 13.1186 16.16C12.4399 15.7913 11.4319 15.2233 10.5253 14.6306C10.0719 14.334 8.68327 13.384 8.85393 12.708C9.0006 12.13 11.3339 9.95798 12.6673 8.66664C13.1906 8.15931 12.9519 7.86664 12.3339 8.33331C10.7993 9.49198 8.33526 11.254 7.5206 11.75C6.80193 12.1873 6.42726 12.262 5.97926 12.1873C5.16193 12.0513 4.40393 11.8406 3.78527 11.584C2.94927 11.2373 2.98993 10.088 3.7846 9.75331L15.1846 4.95331Z" fill="white"/>
</g>
<defs>
<clipPath id="clip0_31629_8926">
<rect width="16" height="16" fill="white" transform="translate(2 2)"/>
</clipPath>
</defs>
</svg>
