<svg xmlns="http://www.w3.org/2000/svg" width="20" height="20" viewBox="0 0 20 20" fill="none">
<g clip-path="url(#clip0_169_1136)">
<path d="M2.70768 19.375C3.62816 19.375 4.37435 18.6288 4.37435 17.7083C4.37435 16.7878 3.62816 16.0417 2.70768 16.0417C1.78721 16.0417 1.04102 16.7878 1.04102 17.7083C1.04102 18.6288 1.78721 19.375 2.70768 19.375Z" stroke="black" stroke-width="1.5" stroke-linecap="round" stroke-linejoin="round"/>
<path d="M10.2077 19.375C11.1282 19.375 11.8743 18.6288 11.8743 17.7083C11.8743 16.7878 11.1282 16.0417 10.2077 16.0417C9.28721 16.0417 8.54102 16.7878 8.54102 17.7083C8.54102 18.6288 9.28721 19.375 10.2077 19.375Z" stroke="black" stroke-width="1.5" stroke-linecap="round" stroke-linejoin="round"/>
<path d="M17.7077 19.375C18.6282 19.375 19.3743 18.6288 19.3743 17.7083C19.3743 16.7878 18.6282 16.0417 17.7077 16.0417C16.7872 16.0417 16.041 16.7878 16.041 17.7083C16.041 18.6288 16.7872 19.375 17.7077 19.375Z" stroke="black" stroke-width="1.5" stroke-linecap="round" stroke-linejoin="round"/>
<path d="M10.207 16.0417V11.875" stroke="black" stroke-width="1.5" stroke-linecap="round" stroke-linejoin="round"/>
<path d="M16.53 16.53L14.375 14.375V11.875" stroke="black" stroke-width="1.5" stroke-linecap="round" stroke-linejoin="round"/>
<path d="M3.88672 16.53L6.04172 14.375V11.875" stroke="black" stroke-width="1.5" stroke-linecap="round" stroke-linejoin="round"/>
<path d="M15.6243 4.37499C15.3944 4.37675 15.165 4.3999 14.9393 4.44416C14.6063 3.45302 13.9704 2.5915 13.1214 1.98116C12.2725 1.37082 11.2533 1.04248 10.2077 1.04248C9.16209 1.04248 8.14289 1.37082 7.29392 1.98116C6.44495 2.5915 5.80907 3.45302 5.47602 4.44416C5.25032 4.3999 5.021 4.37675 4.79102 4.37499C3.79645 4.37499 2.84263 4.77008 2.13937 5.47334C1.4361 6.1766 1.04102 7.13043 1.04102 8.12499C1.04102 9.11955 1.4361 10.0734 2.13937 10.7766C2.84263 11.4799 3.79645 11.875 4.79102 11.875H15.6243C16.6189 11.875 17.5727 11.4799 18.276 10.7766C18.9793 10.0734 19.3743 9.11955 19.3743 8.12499C19.3743 7.13043 18.9793 6.1766 18.276 5.47334C17.5727 4.77008 16.6189 4.37499 15.6243 4.37499Z" stroke="black" stroke-width="1.5" stroke-linecap="round" stroke-linejoin="round"/>
<path d="M12.8579 5.88043C12.9829 5.0471 12.3491 4.60168 11.4829 4.30335L11.7641 3.17835L11.0783 3.00751L10.8045 4.10418C10.6245 4.05918 10.4391 4.0171 10.2554 3.97501L10.5308 2.87085L9.84537 2.70001L9.56412 3.82501L8.1812 3.4821L7.9987 4.2146C7.9987 4.2146 8.50745 4.33085 8.4987 4.3396C8.59365 4.3508 8.68038 4.3989 8.74017 4.4735C8.79996 4.54811 8.82802 4.64323 8.81828 4.73835L8.0487 7.8246C8.03879 7.85594 8.02281 7.88502 8.00165 7.91018C7.98049 7.93534 7.95458 7.95608 7.9254 7.97121C7.89622 7.98634 7.86434 7.99557 7.83159 7.99837C7.79884 8.00117 7.76586 7.99748 7.73453 7.98751C7.7412 7.99751 7.23453 7.86251 7.23453 7.86251L6.89453 8.64585L8.27578 8.9946L7.99203 10.1342L8.67703 10.305L8.95787 9.17751C9.14537 9.22835 9.32661 9.27501 9.50453 9.31918L9.22453 10.4417L9.91037 10.6125L10.1941 9.47501C11.3637 9.69626 12.2429 9.6071 12.6133 8.54918C12.6888 8.39991 12.7323 8.23654 12.7411 8.06949C12.7499 7.90245 12.7238 7.7354 12.6644 7.57903C12.605 7.42266 12.5136 7.28039 12.3961 7.16132C12.2786 7.04225 12.1376 6.949 11.982 6.88751C12.2187 6.83978 12.4329 6.71512 12.5913 6.53297C12.7497 6.35082 12.8434 6.1214 12.8579 5.88043ZM11.2908 8.07751C11.0791 8.92918 9.64495 8.46876 9.17995 8.35335L9.55495 6.84376C10.0216 6.9596 11.5124 7.1896 11.2908 8.07751ZM11.5029 5.86918C11.3095 6.64418 10.1162 6.25043 9.72912 6.15376L10.0704 4.7846C10.4574 4.88001 11.7045 5.06001 11.5029 5.86793V5.86918Z" fill="black"/>
</g>
<defs>
<clipPath id="clip0_169_1136">
<rect width="20" height="20" fill="white"/>
</clipPath>
</defs>
</svg>