<svg width="80" height="80" viewBox="0 0 80 80" fill="none" xmlns="http://www.w3.org/2000/svg">
<rect width="80" height="80" rx="40" fill="white"/>
<path fill-rule="evenodd" clip-rule="evenodd" d="M47.4735 21.03C46.979 21.03 46.5782 21.4309 46.5782 21.9253V23.7158H41.4304C40.936 23.7158 40.5352 24.1167 40.5352 24.6111V43.8594C40.5352 44.3538 40.936 44.7546 41.4304 44.7546H45.2353V43.8594C45.2353 42.8705 46.037 42.0688 47.0258 42.0688H50.6069C51.5958 42.0688 52.3975 42.8705 52.3975 43.8594V44.7546H57.0976C57.592 44.7546 57.9929 44.3538 57.9929 43.8594V24.6111C57.9929 24.1167 57.592 23.7158 57.0976 23.7158H51.9498V21.9253C51.9498 21.4309 51.549 21.03 51.0546 21.03H47.4735ZM47.0384 39.8307L43.5325 26.0436H46.2112L49.1262 38.1566H49.4019L52.3169 26.0436H54.9955L51.4897 39.8307H47.0384Z" fill="#ED632C"/>
<path fill-rule="evenodd" clip-rule="evenodd" d="M29.5665 42.9612C29.0721 42.9612 28.6712 43.362 28.6712 43.8564V45.647H22.9031C22.4086 45.647 22.0078 46.0478 22.0078 46.5423V63.1047C22.0078 63.5991 22.4086 64 22.9031 64H57.096C57.5904 64 57.9913 63.5991 57.9913 63.1047V46.5423C57.9913 46.0478 57.5904 45.647 57.096 45.647H51.5006V43.8564C51.5006 43.362 51.0997 42.9612 50.6053 42.9612H47.0242C46.5298 42.9612 46.129 43.362 46.129 43.8564V45.647H34.0429V43.8564C34.0429 43.362 33.642 42.9612 33.1476 42.9612H29.5665ZM32.7 47.9297V61.7169H35.221V49.8402H35.5756L37.9391 61.7169H42.2328L44.5963 49.8402H44.9508V61.7169H47.4719V47.9297H42.6464L40.2632 59.9442H39.9086L37.5254 47.9297H32.7Z" fill="#ED632C"/>
<path d="M29.4956 32.4372H31.9379C32.5025 32.4372 32.9555 32.2993 33.2969 32.0236C33.6514 31.7478 33.8287 31.3539 33.8287 30.8418V30.6449C33.8287 30.1328 33.658 29.7389 33.3166 29.4631C32.9752 29.1874 32.5157 29.0495 31.9379 29.0495H29.4956V32.4372Z" fill="#ED632C"/>
<path d="M29.4956 26.686H31.8985C32.4369 26.686 32.8767 26.5481 33.2181 26.2724C33.5727 25.9966 33.7499 25.6159 33.7499 25.13V24.9331C33.7499 24.4341 33.5792 24.0533 33.2378 23.7907C32.8964 23.515 32.45 23.3771 31.8985 23.3771H29.4956V26.686Z" fill="#ED632C"/>
<path fill-rule="evenodd" clip-rule="evenodd" d="M28.9657 16C28.4712 16 28.0704 16.4008 28.0704 16.8953V18.6858H22.9226C22.4282 18.6858 22.0273 19.0866 22.0273 19.5811V38.8293C22.0273 39.3238 22.4282 39.7246 22.9226 39.7246H27.4688V38.0753C27.4688 37.5808 27.8696 37.18 28.3641 37.18H33.1484C33.6428 37.18 34.0436 37.5808 34.0436 38.0753V39.7246H38.5898C39.0842 39.7246 39.4851 39.3238 39.4851 38.8293V19.5811C39.4851 19.0866 39.0842 18.6858 38.5898 18.6858H33.442V16.8953C33.442 16.4008 33.0412 16 32.5467 16H28.9657ZM27.4652 19.6707H28.8081V21.0136H31.22V19.6707H32.5629V21.0243C33.2413 21.0627 33.8405 21.2035 34.3605 21.4469C34.9908 21.7226 35.4766 22.1231 35.818 22.6483C36.1725 23.1604 36.3498 23.7776 36.3498 24.4998V24.6967C36.3498 25.327 36.2316 25.8456 35.9953 26.2527C35.7589 26.6466 35.4766 26.9552 35.1483 27.1784C34.8332 27.3885 34.5312 27.5395 34.2423 27.6314V27.9859C34.5312 28.0647 34.8463 28.2157 35.1877 28.4389C35.5291 28.649 35.818 28.9576 36.0543 29.3646C36.3038 29.7717 36.4286 30.3035 36.4286 30.96V31.157C36.4286 31.9185 36.2513 32.5751 35.8968 33.1266C35.5423 33.6649 35.0499 34.0785 34.4196 34.3674C33.8808 34.6196 33.2619 34.7617 32.5629 34.7937V36.1435H31.22V34.8007H28.8081V36.1435H27.4652V34.8007H25.0837V32.516H26.8958V23.2983H25.0837V21.0136H27.4652V19.6707Z" fill="#ED632C"/>
</svg>
