<svg width="156" height="156" viewBox="0 0 156 156" fill="none" xmlns="http://www.w3.org/2000/svg">
<g filter="url(#filter0_d_248_1706)">
<rect x="18" y="18" width="120" height="120" rx="60" fill="white" shape-rendering="crispEdges"/>
<path fill-rule="evenodd" clip-rule="evenodd" d="M87.9699 52.6948C87.3104 52.6948 86.7757 53.2295 86.7757 53.889V56.2774H79.909C79.2495 56.2774 78.7148 56.8121 78.7148 57.4716V83.147C78.7148 83.8065 79.2495 84.3412 79.909 84.3412H84.9844V83.147C84.9844 81.8279 86.0537 80.7586 87.3728 80.7586H92.1496C93.4687 80.7586 94.538 81.8279 94.538 83.147V84.3412H100.808C101.467 84.3412 102.002 83.8065 102.002 83.147V57.4716C102.002 56.8121 101.467 56.2774 100.808 56.2774H93.9409V53.889C93.9409 53.2295 93.4063 52.6948 92.7467 52.6948H87.9699ZM87.3896 77.7732L82.7131 59.3825H86.2861L90.1744 75.54H90.5423L94.4306 59.3825H98.0036L93.3271 77.7732H87.3896Z" fill="black"/>
<path fill-rule="evenodd" clip-rule="evenodd" d="M64.0826 81.9502C63.4231 81.9502 62.8884 82.4849 62.8884 83.1444V85.5328H55.1942C54.5347 85.5328 54 86.0675 54 86.727V108.82C54 109.479 54.5347 110.014 55.1942 110.014H100.804C101.464 110.014 101.999 109.479 101.999 108.82V86.727C101.999 86.0675 101.464 85.5328 100.804 85.5328H93.3406V83.1444C93.3406 82.4849 92.8059 81.9502 92.1464 81.9502H87.3696C86.71 81.9502 86.1754 82.4849 86.1754 83.1444V85.5328H70.0536V83.1444C70.0536 82.4849 69.519 81.9502 68.8594 81.9502H64.0826ZM68.2623 88.5778V106.969H71.6252V91.1262H72.0981L75.2508 106.969H80.9782L84.1309 91.1262H84.6038V106.969H87.9667V88.5778H81.5299L78.3509 104.604H77.878L74.6991 88.5778H68.2623Z" fill="black"/>
<path d="M63.9854 67.9115H67.2432C67.9963 67.9115 68.6006 67.7276 69.056 67.3598C69.5289 66.992 69.7653 66.4665 69.7653 65.7835V65.5207C69.7653 64.8376 69.5377 64.3122 69.0823 63.9444C68.6269 63.5766 68.0139 63.3927 67.2432 63.3927H63.9854V67.9115Z" fill="black"/>
<path d="M63.9854 60.24H67.1906C67.9088 60.24 68.4955 60.0561 68.9509 59.6882C69.4238 59.3204 69.6603 58.8125 69.6603 58.1644V57.9017C69.6603 57.2361 69.4326 56.7282 68.9772 56.3779C68.5218 56.0101 67.9263 55.8262 67.1906 55.8262H63.9854V60.24Z" fill="black"/>
<path fill-rule="evenodd" clip-rule="evenodd" d="M63.2785 45.9858C62.619 45.9858 62.0843 46.5205 62.0843 47.18V49.5684H55.2176C54.5581 49.5684 54.0234 50.1031 54.0234 50.7627V76.438C54.0234 77.0975 54.5581 77.6322 55.2176 77.6322H61.2818V75.4322C61.2818 74.7726 61.8165 74.2379 62.476 74.2379H68.8578C69.5174 74.2379 70.052 74.7726 70.052 75.4322V77.6322H76.1162C76.7757 77.6322 77.3104 77.0975 77.3104 76.438V50.7627C77.3104 50.1031 76.7757 49.5684 76.1162 49.5684H69.2495V47.18C69.2495 46.5205 68.7149 45.9858 68.0553 45.9858H63.2785ZM61.277 50.8822H63.0683V52.6735H66.2856V50.8822H68.0769V52.6878C68.9819 52.7389 69.7811 52.9268 70.4747 53.2515C71.3154 53.6193 71.9635 54.1535 72.4189 54.8541C72.8918 55.5372 73.1282 56.3604 73.1282 57.3237V57.5864C73.1282 58.4272 72.9706 59.119 72.6553 59.662C72.34 60.1874 71.9635 60.599 71.5256 60.8968C71.1052 61.177 70.7024 61.3784 70.3171 61.501V61.9739C70.7024 62.079 71.1228 62.2805 71.5781 62.5782C72.0335 62.8584 72.4189 63.2701 72.7341 63.813C73.0669 64.356 73.2333 65.0653 73.2333 65.9411V66.2038C73.2333 67.2197 72.9969 68.0954 72.524 68.8311C72.0511 69.5492 71.3942 70.1009 70.5535 70.4862C69.8348 70.8226 69.0092 71.0122 68.0769 71.0549V72.8554H66.2856V71.0642H63.0683V72.8554H61.277V71.0642H58.1004V68.0166H60.5174V55.7211H58.1004V52.6735H61.277V50.8822Z" fill="black"/>
</g>
<defs>
<filter id="filter0_d_248_1706" x="0" y="0" width="156" height="156" filterUnits="userSpaceOnUse" color-interpolation-filters="sRGB">
<feFlood flood-opacity="0" result="BackgroundImageFix"/>
<feColorMatrix in="SourceAlpha" type="matrix" values="0 0 0 0 0 0 0 0 0 0 0 0 0 0 0 0 0 0 127 0" result="hardAlpha"/>
<feMorphology radius="6" operator="erode" in="SourceAlpha" result="effect1_dropShadow_248_1706"/>
<feOffset/>
<feGaussianBlur stdDeviation="12"/>
<feComposite in2="hardAlpha" operator="out"/>
<feColorMatrix type="matrix" values="0 0 0 0 0 0 0 0 0 0 0 0 0 0 0 0 0 0 0.08 0"/>
<feBlend mode="multiply" in2="BackgroundImageFix" result="effect1_dropShadow_248_1706"/>
<feBlend mode="normal" in="SourceGraphic" in2="effect1_dropShadow_248_1706" result="shape"/>
</filter>
</defs>
</svg>
