<svg xmlns="http://www.w3.org/2000/svg" width="43" height="50" viewBox="0 0 43 50" fill="none">
<g clip-path="url(#clip0_40204_4119)">
<path d="M37.8284 44.1716L34.1716 47.8284C33.4214 48.5786 32.404 49 31.3431 49H20.6569C19.596 49 18.5786 48.5786 17.8284 47.8284L14.1716 44.1716C13.4214 43.4214 12.404 43 11.3431 43H5C2.79086 43 1 41.2091 1 39V5C1 2.79086 2.79086 1 5 1H11.3431C12.404 1 13.4214 1.42143 14.1716 2.17157L17.8284 5.82843C18.5786 6.57857 19.596 7 20.6569 7H31.3431C32.404 7 33.4214 6.57857 34.1716 5.82843L37.8284 2.17157C38.5786 1.42143 39.596 1 40.6569 1H43.0127V43H40.6569C39.596 43 38.5786 43.4214 37.8284 44.1716Z" fill="#FF7A41"/>
<path d="M43.0127 1H40.6569C39.596 1 38.5786 1.42143 37.8284 2.17157L34.1716 5.82843C33.4214 6.57857 32.404 7 31.3431 7H20.6569C19.596 7 18.5786 6.57857 17.8284 5.82843L14.1716 2.17157C13.4214 1.42143 12.404 1 11.3431 1H5C2.79086 1 1 2.79086 1 5V39C1 41.2091 2.79086 43 5 43H11.3431C12.404 43 13.4214 43.4214 14.1716 44.1716L17.8284 47.8284C18.5786 48.5786 19.596 49 20.6569 49H31.3431C32.404 49 33.4214 48.5786 34.1716 47.8284L37.8284 44.1716C38.5786 43.4214 39.596 43 40.6569 43H43.0127" stroke="#CC6234"/>
</g>
<defs>
<clipPath id="clip0_40204_4119">
<rect width="43" height="50" fill="white"/>
</clipPath>
</defs>
</svg>