<svg xmlns="http://www.w3.org/2000/svg" width="802" height="90" viewBox="0 0 802 90" fill="none">
<g filter="url(#filter0_d_32271_8141)">
<mask id="path-1-outside-1_32271_8141" maskUnits="userSpaceOnUse" x="-2" y="0" width="801" height="85" fill="black">
<rect fill="white" x="-2" width="801" height="85"/>
<path d="M26.2891 79.24V71H14.1291C11.9957 71 10.0757 70.4933 8.36906 69.48C6.71573 68.4667 5.40906 67.1333 4.44906 65.48C3.48906 63.7733 3.00906 61.9067 3.00906 59.88V55.72H13.4891V59.56C13.4891 59.8267 13.5691 60.0667 13.7291 60.28C13.9424 60.44 14.1824 60.52 14.4491 60.52H26.2891V47.64H14.1291C12.0491 47.64 10.1557 47.16 8.44906 46.2C6.79573 45.1867 5.4624 43.8267 4.44906 42.12C3.48906 40.4133 3.00906 38.4933 3.00906 36.36V24.52C3.00906 22.44 3.48906 20.5733 4.44906 18.92C5.40906 17.2133 6.71573 15.88 8.36906 14.92C10.0757 13.9067 11.9957 13.4 14.1291 13.4H26.2891V5.16H36.7691V13.4H48.8491C50.9824 13.4 52.8757 13.9067 54.5291 14.92C56.2357 15.88 57.5691 17.2133 58.5291 18.92C59.5424 20.5733 60.0491 22.44 60.0491 24.52L59.9691 28.76H49.5691V24.84C49.5691 24.5733 49.4624 24.36 49.2491 24.2C49.0357 23.9867 48.7957 23.88 48.5291 23.88H36.7691V37.16H48.8491C50.9824 37.16 52.8757 37.6667 54.5291 38.68C56.2357 39.64 57.5691 40.9467 58.5291 42.6C59.5424 44.2533 60.0491 46.0667 60.0491 48.04V59.88C60.0491 61.9067 59.5424 63.7733 58.5291 65.48C57.5691 67.1333 56.2357 68.4667 54.5291 69.48C52.8757 70.4933 51.0091 71 48.9291 71H36.7691V79.24H26.2891ZM14.4491 37.16H26.2891V23.88H14.4491C14.1824 23.88 13.9424 23.9867 13.7291 24.2C13.5691 24.36 13.4891 24.5733 13.4891 24.84V36.2C13.4891 36.4667 13.5691 36.7067 13.7291 36.92C13.9424 37.08 14.1824 37.16 14.4491 37.16ZM36.7691 60.52H48.6091C48.8224 60.52 49.0357 60.44 49.2491 60.28C49.4624 60.0667 49.5691 59.8267 49.5691 59.56V48.6C49.5691 48.3333 49.4624 48.12 49.2491 47.96C49.0357 47.7467 48.7957 47.64 48.5291 47.64H36.7691V60.52ZM68.0559 71V13.4H112.216C114.243 13.4 116.083 13.9067 117.736 14.92C119.443 15.9333 120.803 17.2933 121.816 19C122.829 20.6533 123.336 22.4933 123.336 24.52V35.8C123.336 36.4933 123.283 37.16 123.176 37.8C123.069 38.44 122.883 39.0533 122.616 39.64C123.523 40.8667 124.243 42.1467 124.776 43.48C125.363 44.8133 125.656 46.1467 125.656 47.48V59.88C125.656 61.9067 125.149 63.7733 124.136 65.48C123.123 67.1333 121.763 68.4667 120.056 69.48C118.349 70.4933 116.483 71 114.456 71H68.0559ZM79.5759 60.36H113.976C114.243 60.36 114.483 60.28 114.696 60.12C114.909 59.9067 115.016 59.6667 115.016 59.4V47.96C115.016 47.6933 114.909 47.48 114.696 47.32C114.483 47.1067 114.243 47 113.976 47H79.5759C79.3093 47 79.0693 47.1067 78.8559 47.32C78.6959 47.48 78.6159 47.6933 78.6159 47.96V59.4C78.6159 59.6667 78.6959 59.9067 78.8559 60.12C79.0693 60.28 79.3093 60.36 79.5759 60.36ZM79.5759 36.36H111.736C112.003 36.36 112.216 36.28 112.376 36.12C112.536 35.9067 112.616 35.6667 112.616 35.4V25C112.616 24.7333 112.536 24.52 112.376 24.36C112.216 24.1467 112.003 24.04 111.736 24.04H79.5759C79.3093 24.04 79.0693 24.1467 78.8559 24.36C78.6959 24.52 78.6159 24.7333 78.6159 25V35.4C78.6159 35.6667 78.6959 35.9067 78.8559 36.12C79.0693 36.28 79.3093 36.36 79.5759 36.36ZM161.605 71L128.245 13.4H140.565L166.325 58.2L192.165 13.4H204.405L171.045 71H161.605ZM210.16 71V13.4H221.76L242.64 38.28L263.44 13.4H275.12V71H264.48V28.76L242.64 54.76L220.72 28.84V71H210.16ZM329.472 71V24.04H305.952V13.4H363.552V24.04H340.112V71H329.472ZM380.655 71C378.628 71 376.761 70.4933 375.055 69.48C373.401 68.4667 372.068 67.1333 371.055 65.48C370.041 63.7733 369.535 61.9067 369.535 59.88V24.52C369.535 22.4933 370.041 20.6533 371.055 19C372.068 17.2933 373.401 15.9333 375.055 14.92C376.761 13.9067 378.628 13.4 380.655 13.4H415.935C417.961 13.4 419.828 13.9067 421.535 14.92C423.241 15.9333 424.601 17.2933 425.615 19C426.628 20.6533 427.135 22.4933 427.135 24.52V29H416.495V25C416.495 24.7333 416.388 24.52 416.175 24.36C415.961 24.1467 415.721 24.04 415.455 24.04H381.055C380.788 24.04 380.548 24.1467 380.335 24.36C380.175 24.52 380.095 24.7333 380.095 25V59.4C380.095 59.6667 380.175 59.9067 380.335 60.12C380.548 60.28 380.788 60.36 381.055 60.36H415.455C415.721 60.36 415.961 60.28 416.175 60.12C416.388 59.9067 416.495 59.6667 416.495 59.4V49H403.455V38.36H427.135V59.88C427.135 61.9067 426.628 63.7733 425.615 65.48C424.601 67.1333 423.241 68.4667 421.535 69.48C419.828 70.4933 417.961 71 415.935 71H380.655ZM436.101 71V13.4H489.141V24.04H446.741V36.84H480.821V47.56H446.741V60.36H489.141V71H436.101ZM540.924 71L519.964 13.4H531.164L545.084 51.4L559.004 13.4H569.324L583.244 51.4L597.084 13.4H608.364L587.404 71H579.084L564.124 30.2L549.244 71H540.924ZM616.101 71V13.4H669.141V24.04H626.741V36.84H660.821V47.56H626.741V60.36H669.141V71H616.101ZM677.351 71V13.4H730.391V24.04H687.991V36.84H722.071V47.56H687.991V60.36H730.391V71H677.351ZM738.521 71V13.4H749.161V36.84H762.681L782.361 13.4H793.881V16.44L772.281 42.2L793.961 67.96V71H782.361L762.681 47.56H749.161V71H738.521Z"/>
</mask>
<path d="M26.2891 79.24V71H14.1291C11.9957 71 10.0757 70.4933 8.36906 69.48C6.71573 68.4667 5.40906 67.1333 4.44906 65.48C3.48906 63.7733 3.00906 61.9067 3.00906 59.88V55.72H13.4891V59.56C13.4891 59.8267 13.5691 60.0667 13.7291 60.28C13.9424 60.44 14.1824 60.52 14.4491 60.52H26.2891V47.64H14.1291C12.0491 47.64 10.1557 47.16 8.44906 46.2C6.79573 45.1867 5.4624 43.8267 4.44906 42.12C3.48906 40.4133 3.00906 38.4933 3.00906 36.36V24.52C3.00906 22.44 3.48906 20.5733 4.44906 18.92C5.40906 17.2133 6.71573 15.88 8.36906 14.92C10.0757 13.9067 11.9957 13.4 14.1291 13.4H26.2891V5.16H36.7691V13.4H48.8491C50.9824 13.4 52.8757 13.9067 54.5291 14.92C56.2357 15.88 57.5691 17.2133 58.5291 18.92C59.5424 20.5733 60.0491 22.44 60.0491 24.52L59.9691 28.76H49.5691V24.84C49.5691 24.5733 49.4624 24.36 49.2491 24.2C49.0357 23.9867 48.7957 23.88 48.5291 23.88H36.7691V37.16H48.8491C50.9824 37.16 52.8757 37.6667 54.5291 38.68C56.2357 39.64 57.5691 40.9467 58.5291 42.6C59.5424 44.2533 60.0491 46.0667 60.0491 48.04V59.88C60.0491 61.9067 59.5424 63.7733 58.5291 65.48C57.5691 67.1333 56.2357 68.4667 54.5291 69.48C52.8757 70.4933 51.0091 71 48.9291 71H36.7691V79.24H26.2891ZM14.4491 37.16H26.2891V23.88H14.4491C14.1824 23.88 13.9424 23.9867 13.7291 24.2C13.5691 24.36 13.4891 24.5733 13.4891 24.84V36.2C13.4891 36.4667 13.5691 36.7067 13.7291 36.92C13.9424 37.08 14.1824 37.16 14.4491 37.16ZM36.7691 60.52H48.6091C48.8224 60.52 49.0357 60.44 49.2491 60.28C49.4624 60.0667 49.5691 59.8267 49.5691 59.56V48.6C49.5691 48.3333 49.4624 48.12 49.2491 47.96C49.0357 47.7467 48.7957 47.64 48.5291 47.64H36.7691V60.52ZM68.0559 71V13.4H112.216C114.243 13.4 116.083 13.9067 117.736 14.92C119.443 15.9333 120.803 17.2933 121.816 19C122.829 20.6533 123.336 22.4933 123.336 24.52V35.8C123.336 36.4933 123.283 37.16 123.176 37.8C123.069 38.44 122.883 39.0533 122.616 39.64C123.523 40.8667 124.243 42.1467 124.776 43.48C125.363 44.8133 125.656 46.1467 125.656 47.48V59.88C125.656 61.9067 125.149 63.7733 124.136 65.48C123.123 67.1333 121.763 68.4667 120.056 69.48C118.349 70.4933 116.483 71 114.456 71H68.0559ZM79.5759 60.36H113.976C114.243 60.36 114.483 60.28 114.696 60.12C114.909 59.9067 115.016 59.6667 115.016 59.4V47.96C115.016 47.6933 114.909 47.48 114.696 47.32C114.483 47.1067 114.243 47 113.976 47H79.5759C79.3093 47 79.0693 47.1067 78.8559 47.32C78.6959 47.48 78.6159 47.6933 78.6159 47.96V59.4C78.6159 59.6667 78.6959 59.9067 78.8559 60.12C79.0693 60.28 79.3093 60.36 79.5759 60.36ZM79.5759 36.36H111.736C112.003 36.36 112.216 36.28 112.376 36.12C112.536 35.9067 112.616 35.6667 112.616 35.4V25C112.616 24.7333 112.536 24.52 112.376 24.36C112.216 24.1467 112.003 24.04 111.736 24.04H79.5759C79.3093 24.04 79.0693 24.1467 78.8559 24.36C78.6959 24.52 78.6159 24.7333 78.6159 25V35.4C78.6159 35.6667 78.6959 35.9067 78.8559 36.12C79.0693 36.28 79.3093 36.36 79.5759 36.36ZM161.605 71L128.245 13.4H140.565L166.325 58.2L192.165 13.4H204.405L171.045 71H161.605ZM210.16 71V13.4H221.76L242.64 38.28L263.44 13.4H275.12V71H264.48V28.76L242.64 54.76L220.72 28.84V71H210.16ZM329.472 71V24.04H305.952V13.4H363.552V24.04H340.112V71H329.472ZM380.655 71C378.628 71 376.761 70.4933 375.055 69.48C373.401 68.4667 372.068 67.1333 371.055 65.48C370.041 63.7733 369.535 61.9067 369.535 59.88V24.52C369.535 22.4933 370.041 20.6533 371.055 19C372.068 17.2933 373.401 15.9333 375.055 14.92C376.761 13.9067 378.628 13.4 380.655 13.4H415.935C417.961 13.4 419.828 13.9067 421.535 14.92C423.241 15.9333 424.601 17.2933 425.615 19C426.628 20.6533 427.135 22.4933 427.135 24.52V29H416.495V25C416.495 24.7333 416.388 24.52 416.175 24.36C415.961 24.1467 415.721 24.04 415.455 24.04H381.055C380.788 24.04 380.548 24.1467 380.335 24.36C380.175 24.52 380.095 24.7333 380.095 25V59.4C380.095 59.6667 380.175 59.9067 380.335 60.12C380.548 60.28 380.788 60.36 381.055 60.36H415.455C415.721 60.36 415.961 60.28 416.175 60.12C416.388 59.9067 416.495 59.6667 416.495 59.4V49H403.455V38.36H427.135V59.88C427.135 61.9067 426.628 63.7733 425.615 65.48C424.601 67.1333 423.241 68.4667 421.535 69.48C419.828 70.4933 417.961 71 415.935 71H380.655ZM436.101 71V13.4H489.141V24.04H446.741V36.84H480.821V47.56H446.741V60.36H489.141V71H436.101ZM540.924 71L519.964 13.4H531.164L545.084 51.4L559.004 13.4H569.324L583.244 51.4L597.084 13.4H608.364L587.404 71H579.084L564.124 30.2L549.244 71H540.924ZM616.101 71V13.4H669.141V24.04H626.741V36.84H660.821V47.56H626.741V60.36H669.141V71H616.101ZM677.351 71V13.4H730.391V24.04H687.991V36.84H722.071V47.56H687.991V60.36H730.391V71H677.351ZM738.521 71V13.4H749.161V36.84H762.681L782.361 13.4H793.881V16.44L772.281 42.2L793.961 67.96V71H782.361L762.681 47.56H749.161V71H738.521Z" fill="#FA4E0E"/>
<path d="M26.2891 79.24H21.2891V84.24H26.2891V79.24ZM26.2891 71H31.2891V66H26.2891V71ZM8.36906 69.48L5.75625 73.743L5.78618 73.7614L5.81637 73.7793L8.36906 69.48ZM4.44906 65.48L0.0911849 67.9313L0.107948 67.9611L0.125118 67.9907L4.44906 65.48ZM3.00906 55.72V50.72H-1.99094V55.72H3.00906ZM13.4891 55.72H18.4891V50.72H13.4891V55.72ZM13.7291 60.28L9.72906 63.28L10.1576 63.8514L10.7291 64.28L13.7291 60.28ZM26.2891 60.52V65.52H31.2891V60.52H26.2891ZM26.2891 47.64H31.2891V42.64H26.2891V47.64ZM8.44906 46.2L5.83625 50.463L5.91612 50.512L5.99776 50.5579L8.44906 46.2ZM4.44906 42.12L0.0911857 44.5713L0.119894 44.6223L0.149789 44.6727L4.44906 42.12ZM4.44906 18.92L8.77301 21.4307L8.79018 21.4011L8.80694 21.3713L4.44906 18.92ZM8.36906 14.92L10.8797 19.2439L10.9008 19.2317L10.9218 19.2193L8.36906 14.92ZM26.2891 13.4V18.4H31.2891V13.4H26.2891ZM26.2891 5.16V0.159999H21.2891V5.16H26.2891ZM36.7691 5.16H41.7691V0.159999H36.7691V5.16ZM36.7691 13.4H31.7691V18.4H36.7691V13.4ZM54.5291 14.92L51.9163 19.183L51.9961 19.232L52.0778 19.2779L54.5291 14.92ZM58.5291 18.92L54.1712 21.3713L54.2171 21.4529L54.2661 21.5328L58.5291 18.92ZM60.0491 24.52L65.0482 24.6143L65.0491 24.5672V24.52H60.0491ZM59.9691 28.76V33.76H64.8756L64.9682 28.8543L59.9691 28.76ZM49.5691 28.76H44.5691V33.76H49.5691V28.76ZM49.2491 24.2L45.7135 27.7355L45.9648 27.9868L46.2491 28.2L49.2491 24.2ZM36.7691 23.88V18.88H31.7691V23.88H36.7691ZM36.7691 37.16H31.7691V42.16H36.7691V37.16ZM54.5291 38.68L51.9163 42.943L51.9961 42.992L52.0778 43.0379L54.5291 38.68ZM58.5291 42.6L54.2051 45.1107L54.235 45.1621L54.2661 45.2128L58.5291 42.6ZM58.5291 65.48L54.2298 62.9273L54.2174 62.9483L54.2051 62.9693L58.5291 65.48ZM54.5291 69.48L51.9764 65.1807L51.9462 65.1986L51.9163 65.217L54.5291 69.48ZM36.7691 71V66H31.7691V71H36.7691ZM36.7691 79.24V84.24H41.7691V79.24H36.7691ZM26.2891 37.16V42.16H31.2891V37.16H26.2891ZM26.2891 23.88H31.2891V18.88H26.2891V23.88ZM13.7291 24.2L10.1935 20.6645L10.1935 20.6645L13.7291 24.2ZM13.7291 36.92L9.72907 39.92L10.1576 40.4914L10.729 40.92L13.7291 36.92ZM36.7691 60.52H31.7691V65.52H36.7691V60.52ZM49.2491 60.28L52.2491 64.28L52.5333 64.0668L52.7846 63.8155L49.2491 60.28ZM49.2491 47.96L45.7135 51.4955L45.9648 51.7468L46.2491 51.96L49.2491 47.96ZM36.7691 47.64V42.64H31.7691V47.64H36.7691ZM31.2891 79.24V71H21.2891V79.24H31.2891ZM26.2891 66H14.1291V76H26.2891V66ZM14.1291 66C12.8245 66 11.7982 65.7011 10.9218 65.1807L5.81637 73.7793C8.35331 75.2856 11.167 76 14.1291 76V66ZM10.9819 65.217C10.0248 64.6304 9.31055 63.8951 8.77301 62.9693L0.125118 67.9907C1.50757 70.3716 3.40664 72.3029 5.75625 73.743L10.9819 65.217ZM8.80694 63.0287C8.28301 62.0973 8.00906 61.0793 8.00906 59.88H-1.99094C-1.99094 62.734 -1.30488 65.4494 0.0911849 67.9313L8.80694 63.0287ZM8.00906 59.88V55.72H-1.99094V59.88H8.00906ZM3.00906 60.72H13.4891V50.72H3.00906V60.72ZM8.48906 55.72V59.56H18.4891V55.72H8.48906ZM8.48906 59.56C8.48906 60.9085 8.91995 62.2012 9.72906 63.28L17.7291 57.28C18.2182 57.9321 18.4891 58.7448 18.4891 59.56H8.48906ZM10.7291 64.28C11.8079 65.0891 13.1005 65.52 14.4491 65.52V55.52C15.2642 55.52 16.0769 55.7909 16.7291 56.28L10.7291 64.28ZM14.4491 65.52H26.2891V55.52H14.4491V65.52ZM31.2891 60.52V47.64H21.2891V60.52H31.2891ZM26.2891 42.64H14.1291V52.64H26.2891V42.64ZM14.1291 42.64C12.8524 42.64 11.8119 42.3548 10.9004 41.8421L5.99776 50.5579C8.4996 51.9652 11.2457 52.64 14.1291 52.64V42.64ZM11.0619 41.937C10.1181 41.3585 9.35699 40.5924 8.74834 39.5673L0.149789 44.6727C1.5678 47.0609 3.47338 49.0148 5.83625 50.463L11.0619 41.937ZM8.80694 39.6687C8.305 38.7764 8.00906 37.7136 8.00906 36.36H-1.99094C-1.99094 39.2731 -1.32688 42.0503 0.0911857 44.5713L8.80694 39.6687ZM8.00906 36.36V24.52H-1.99094V36.36H8.00906ZM8.00906 24.52C8.00906 23.2419 8.29432 22.2551 8.77301 21.4307L0.125117 16.4093C-1.31619 18.8916 -1.99094 21.6381 -1.99094 24.52H8.00906ZM8.80694 21.3713C9.3405 20.4228 10.0176 19.7445 10.8797 19.2439L5.85838 10.5961C3.41384 12.0155 1.47763 14.0039 0.0911847 16.4687L8.80694 21.3713ZM10.9218 19.2193C11.7982 18.6989 12.8245 18.4 14.1291 18.4V8.4C11.167 8.4 8.35331 9.11442 5.81637 10.6207L10.9218 19.2193ZM14.1291 18.4H26.2891V8.4H14.1291V18.4ZM31.2891 13.4V5.16H21.2891V13.4H31.2891ZM26.2891 10.16H36.7691V0.159999H26.2891V10.16ZM31.7691 5.16V13.4H41.7691V5.16H31.7691ZM36.7691 18.4H48.8491V8.4H36.7691V18.4ZM48.8491 18.4C50.1555 18.4 51.1267 18.6991 51.9163 19.183L57.1419 10.657C54.6247 9.11422 51.8093 8.4 48.8491 8.4V18.4ZM52.0778 19.2779C52.9863 19.7889 53.6601 20.4628 54.1712 21.3713L62.8869 16.4687C61.478 13.9639 59.4852 11.9711 56.9804 10.5621L52.0778 19.2779ZM54.2661 21.5328C54.7623 22.3425 55.0491 23.2926 55.0491 24.52H65.0491C65.0491 21.5874 64.3225 18.8042 62.7921 16.3072L54.2661 21.5328ZM55.05 24.4257L54.97 28.6657L64.9682 28.8543L65.0482 24.6143L55.05 24.4257ZM59.9691 23.76H49.5691V33.76H59.9691V23.76ZM54.5691 28.76V24.84H44.5691V28.76H54.5691ZM54.5691 24.84C54.5691 22.9995 53.7214 21.3043 52.2491 20.2L46.2491 28.2C45.8088 27.8698 45.3499 27.382 45.0169 26.7161C44.684 26.0501 44.5691 25.3903 44.5691 24.84H54.5691ZM52.7846 20.6645C51.7678 19.6477 50.3003 18.88 48.5291 18.88V28.88C47.9739 28.88 47.4077 28.7643 46.8784 28.5291C46.3607 28.299 45.9771 27.9991 45.7135 27.7355L52.7846 20.6645ZM48.5291 18.88H36.7691V28.88H48.5291V18.88ZM31.7691 23.88V37.16H41.7691V23.88H31.7691ZM36.7691 42.16H48.8491V32.16H36.7691V42.16ZM48.8491 42.16C50.1555 42.16 51.1267 42.4591 51.9163 42.943L57.1419 34.417C54.6247 32.8742 51.8093 32.16 48.8491 32.16V42.16ZM52.0778 43.0379C53.0263 43.5714 53.7045 44.2486 54.2051 45.1107L62.853 40.0893C61.4336 37.6448 59.4452 35.7086 56.9804 34.3221L52.0778 43.0379ZM54.2661 45.2128C54.7886 46.0654 55.0491 46.9718 55.0491 48.04H65.0491C65.0491 45.1616 64.2962 42.4413 62.7921 39.9872L54.2661 45.2128ZM55.0491 48.04V59.88H65.0491V48.04H55.0491ZM55.0491 59.88C55.0491 61.0282 54.7744 62.0101 54.2298 62.9273L62.8283 68.0327C64.3104 65.5366 65.0491 62.7852 65.0491 59.88H55.0491ZM54.2051 62.9693C53.69 63.8564 52.9789 64.5855 51.9764 65.1807L57.0818 73.7793C59.4926 72.3478 61.4481 70.4103 62.853 67.9907L54.2051 62.9693ZM51.9163 65.217C51.1066 65.7132 50.1565 66 48.9291 66V76C51.8616 76 54.6449 75.2734 57.1419 73.743L51.9163 65.217ZM48.9291 66H36.7691V76H48.9291V66ZM31.7691 71V79.24H41.7691V71H31.7691ZM36.7691 74.24H26.2891V84.24H36.7691V74.24ZM14.4491 42.16H26.2891V32.16H14.4491V42.16ZM31.2891 37.16V23.88H21.2891V37.16H31.2891ZM26.2891 18.88H14.4491V28.88H26.2891V18.88ZM14.4491 18.88C12.6778 18.88 11.2103 19.6477 10.1935 20.6645L17.2646 27.7355C17.0011 27.999 16.6174 28.299 16.0998 28.5291C15.5704 28.7643 15.0043 28.88 14.4491 28.88V18.88ZM10.1935 20.6645C8.92986 21.9281 8.48906 23.502 8.48906 24.84H18.4891C18.4891 25.206 18.4338 25.6941 18.2307 26.2356C18.0219 26.7925 17.6929 27.3072 17.2646 27.7355L10.1935 20.6645ZM8.48906 24.84V36.2H18.4891V24.84H8.48906ZM8.48906 36.2C8.48906 37.5485 8.91995 38.8412 9.72907 39.92L17.7291 33.92C18.2182 34.5721 18.4891 35.3848 18.4891 36.2H8.48906ZM10.729 40.92C11.8079 41.7291 13.1005 42.16 14.4491 42.16V32.16C15.2643 32.16 16.0769 32.4309 16.7291 32.92L10.729 40.92ZM36.7691 65.52H48.6091V55.52H36.7691V65.52ZM48.6091 65.52C50.1499 65.52 51.3899 64.9244 52.2491 64.28L46.2491 56.28C46.6816 55.9556 47.4949 55.52 48.6091 55.52V65.52ZM52.7846 63.8155C53.8014 62.7988 54.5691 61.3312 54.5691 59.56H44.5691C44.5691 59.0048 44.6848 58.4386 44.92 57.9093C45.1501 57.3916 45.45 57.008 45.7135 56.7445L52.7846 63.8155ZM54.5691 59.56V48.6H44.5691V59.56H54.5691ZM54.5691 48.6C54.5691 46.7595 53.7214 45.0643 52.2491 43.96L46.2491 51.96C45.8089 51.6298 45.3499 51.142 45.0169 50.4761C44.684 49.8101 44.5691 49.1503 44.5691 48.6H54.5691ZM52.7846 44.4245C51.7678 43.4077 50.3003 42.64 48.5291 42.64V52.64C47.9739 52.64 47.4077 52.5243 46.8784 52.2891C46.3607 52.059 45.9771 51.7591 45.7135 51.4955L52.7846 44.4245ZM48.5291 42.64H36.7691V52.64H48.5291V42.64ZM31.7691 47.64V60.52H41.7691V47.64H31.7691ZM68.0559 71H63.0559V76H68.0559V71ZM68.0559 13.4V8.4H63.0559V13.4H68.0559ZM117.736 14.92L115.123 19.183L115.153 19.2013L115.183 19.2193L117.736 14.92ZM121.816 19L117.517 21.5527L117.535 21.5829L117.553 21.6128L121.816 19ZM123.176 37.8L118.244 36.978L118.244 36.978L123.176 37.8ZM122.616 39.64L118.064 37.571L116.847 40.2476L118.595 42.6119L122.616 39.64ZM124.776 43.48L120.134 45.337L120.165 45.4159L120.199 45.4937L124.776 43.48ZM124.136 65.48L128.399 68.0928L128.417 68.0629L128.435 68.0327L124.136 65.48ZM120.056 69.48L117.503 65.1807L120.056 69.48ZM114.696 60.12L117.696 64.12L117.98 63.9068L118.231 63.6555L114.696 60.12ZM114.696 47.32L111.16 50.8555L111.412 51.1068L111.696 51.32L114.696 47.32ZM78.8559 47.32L82.3915 50.8555L78.8559 47.32ZM78.8559 60.12L74.8559 63.12L75.2845 63.6914L75.8559 64.12L78.8559 60.12ZM112.376 36.12L115.911 39.6555L116.163 39.4043L116.376 39.12L112.376 36.12ZM112.376 24.36L108.376 27.36L108.589 27.6443L108.84 27.8956L112.376 24.36ZM78.8559 24.36L82.3915 27.8956L82.3915 27.8955L78.8559 24.36ZM78.8559 36.12L74.8559 39.12L75.2845 39.6914L75.8559 40.12L78.8559 36.12ZM73.0559 71V13.4H63.0559V71H73.0559ZM68.0559 18.4H112.216V8.4H68.0559V18.4ZM112.216 18.4C113.364 18.4 114.292 18.6739 115.123 19.183L120.349 10.657C117.873 9.13945 115.121 8.4 112.216 8.4V18.4ZM115.183 19.2193C116.171 19.8056 116.93 20.5651 117.517 21.5527L126.115 16.4473C124.675 14.0215 122.714 12.061 120.289 10.6207L115.183 19.2193ZM117.553 21.6128C118.062 22.4435 118.336 23.372 118.336 24.52H128.336C128.336 21.6147 127.596 18.8632 126.079 16.3872L117.553 21.6128ZM118.336 24.52V35.8H128.336V24.52H118.336ZM118.336 35.8C118.336 36.2366 118.302 36.6275 118.244 36.978L128.108 38.622C128.263 37.6925 128.336 36.7501 128.336 35.8H118.336ZM118.244 36.978C118.209 37.1905 118.149 37.3844 118.064 37.571L127.168 41.709C127.616 40.7223 127.93 39.6895 128.108 38.622L118.244 36.978ZM118.595 42.6119C119.264 43.5163 119.768 44.4242 120.134 45.337L129.418 41.623C128.717 39.8692 127.782 38.217 126.637 36.668L118.595 42.6119ZM120.199 45.4937C120.533 46.2517 120.656 46.9019 120.656 47.48H130.656C130.656 45.3914 130.192 43.375 129.353 41.4663L120.199 45.4937ZM120.656 47.48V59.88H130.656V47.48H120.656ZM120.656 59.88C120.656 61.0282 120.381 62.0101 119.837 62.9273L128.435 68.0327C129.917 65.5366 130.656 62.7852 130.656 59.88H120.656ZM119.873 62.8672C119.294 63.811 118.528 64.5721 117.503 65.1807L122.609 73.7793C124.997 72.3613 126.951 70.4557 128.399 68.0928L119.873 62.8672ZM117.503 65.1807C116.586 65.7253 115.604 66 114.456 66V76C117.361 76 120.113 75.2613 122.609 73.7793L117.503 65.1807ZM114.456 66H68.0559V76H114.456V66ZM79.5759 65.36H113.976V55.36H79.5759V65.36ZM113.976 65.36C115.324 65.36 116.617 64.9291 117.696 64.12L111.696 56.12C112.348 55.6309 113.161 55.36 113.976 55.36V65.36ZM118.231 63.6555C119.248 62.6388 120.016 61.1712 120.016 59.4H110.016C110.016 58.8448 110.132 58.2786 110.367 57.7493C110.597 57.2316 110.897 56.848 111.16 56.5845L118.231 63.6555ZM120.016 59.4V47.96H110.016V59.4H120.016ZM120.016 47.96C120.016 46.1195 119.168 44.4243 117.696 43.32L111.696 51.32C111.256 50.9898 110.797 50.502 110.464 49.8361C110.131 49.1701 110.016 48.5103 110.016 47.96H120.016ZM118.231 43.7845C117.215 42.7677 115.747 42 113.976 42V52C113.421 52 112.855 51.8843 112.325 51.6491C111.808 51.419 111.424 51.1191 111.16 50.8555L118.231 43.7845ZM113.976 42H79.5759V52H113.976V42ZM79.5759 42C77.8047 42 76.3372 42.7677 75.3204 43.7845L82.3915 50.8555C82.128 51.1191 81.7443 51.419 81.2266 51.6491C80.6973 51.8843 80.1311 52 79.5759 52V42ZM75.3204 43.7845C74.0567 45.0481 73.6159 46.6221 73.6159 47.96H83.6159C83.6159 48.326 83.5606 48.8141 83.3576 49.3556C83.1488 49.9125 82.8198 50.4272 82.3915 50.8555L75.3204 43.7845ZM73.6159 47.96V59.4H83.6159V47.96H73.6159ZM73.6159 59.4C73.6159 60.7485 74.0468 62.0412 74.8559 63.12L82.8559 57.12C83.3451 57.7722 83.6159 58.5848 83.6159 59.4H73.6159ZM75.8559 64.12C76.9348 64.9291 78.2274 65.36 79.5759 65.36V55.36C80.3911 55.36 81.2038 55.6309 81.8559 56.12L75.8559 64.12ZM79.5759 41.36H111.736V31.36H79.5759V41.36ZM111.736 41.36C113.074 41.36 114.648 40.9192 115.911 39.6555L108.84 32.5844C109.269 32.1562 109.783 31.8272 110.34 31.6183C110.882 31.4153 111.37 31.36 111.736 31.36V41.36ZM116.376 39.12C117.185 38.0412 117.616 36.7485 117.616 35.4H107.616C107.616 34.5848 107.887 33.7721 108.376 33.12L116.376 39.12ZM117.616 35.4V25H107.616V35.4H117.616ZM117.616 25C117.616 23.662 117.175 22.0881 115.911 20.8244L108.84 27.8956C108.412 27.4673 108.083 26.9525 107.874 26.3956C107.671 25.8541 107.616 25.366 107.616 25H117.616ZM116.376 21.36C115.272 19.8876 113.576 19.04 111.736 19.04V29.04C111.186 29.04 110.526 28.9251 109.86 28.5921C109.194 28.2592 108.706 27.8002 108.376 27.36L116.376 21.36ZM111.736 19.04H79.5759V29.04H111.736V19.04ZM79.5759 19.04C77.8047 19.04 76.3372 19.8077 75.3204 20.8245L82.3915 27.8955C82.128 28.1591 81.7443 28.459 81.2266 28.6891C80.6973 28.9243 80.1311 29.04 79.5759 29.04V19.04ZM75.3204 20.8244C74.0567 22.0881 73.6159 23.6621 73.6159 25H83.6159C83.6159 25.366 83.5606 25.8541 83.3576 26.3956C83.1488 26.9525 82.8198 27.4672 82.3915 27.8956L75.3204 20.8244ZM73.6159 25V35.4H83.6159V25H73.6159ZM73.6159 35.4C73.6159 36.7485 74.0468 38.0412 74.8559 39.12L82.8559 33.12C83.3451 33.7722 83.6159 34.5848 83.6159 35.4H73.6159ZM75.8559 40.12C76.9348 40.9291 78.2274 41.36 79.5759 41.36V31.36C80.3911 31.36 81.2038 31.6309 81.8559 32.12L75.8559 40.12ZM161.605 71L157.279 73.5059L158.723 76H161.605V71ZM128.245 13.4V8.4H119.571L123.919 15.9059L128.245 13.4ZM140.565 13.4L144.9 10.9076L143.458 8.4H140.565V13.4ZM166.325 58.2L161.991 60.6924L166.319 68.219L170.656 60.6982L166.325 58.2ZM192.165 13.4V8.4H189.277L187.834 10.9018L192.165 13.4ZM204.405 13.4L208.732 15.9059L213.079 8.4H204.405V13.4ZM171.045 71V76H173.928L175.372 73.5059L171.045 71ZM165.932 68.4941L132.572 10.8941L123.919 15.9059L157.279 73.5059L165.932 68.4941ZM128.245 18.4H140.565V8.4H128.245V18.4ZM136.231 15.8924L161.991 60.6924L170.66 55.7076L144.9 10.9076L136.231 15.8924ZM170.656 60.6982L196.497 15.8982L187.834 10.9018L161.994 55.7018L170.656 60.6982ZM192.165 18.4H204.405V8.4H192.165V18.4ZM200.079 10.8941L166.719 68.4941L175.372 73.5059L208.732 15.9059L200.079 10.8941ZM171.045 66H161.605V76H171.045V66ZM210.16 71H205.16V76H210.16V71ZM210.16 13.4V8.4H205.16V13.4H210.16ZM221.76 13.4L225.59 10.1858L224.091 8.4H221.76V13.4ZM242.64 38.28L238.81 41.4942L242.647 46.0667L246.476 41.487L242.64 38.28ZM263.44 13.4V8.4H261.103L259.604 10.193L263.44 13.4ZM275.12 13.4H280.12V8.4H275.12V13.4ZM275.12 71V76H280.12V71H275.12ZM264.48 71H259.48V76H264.48V71ZM264.48 28.76H269.48V15.0339L260.651 25.544L264.48 28.76ZM242.64 54.76L238.822 57.9887L242.653 62.5184L246.468 57.976L242.64 54.76ZM220.72 28.84L224.538 25.6113L215.72 15.1844V28.84H220.72ZM220.72 71V76H225.72V71H220.72ZM215.16 71V13.4H205.16V71H215.16ZM210.16 18.4H221.76V8.4H210.16V18.4ZM217.93 16.6142L238.81 41.4942L246.47 35.0658L225.59 10.1858L217.93 16.6142ZM246.476 41.487L267.276 16.607L259.604 10.193L238.804 35.073L246.476 41.487ZM263.44 18.4H275.12V8.4H263.44V18.4ZM270.12 13.4V71H280.12V13.4H270.12ZM275.12 66H264.48V76H275.12V66ZM269.48 71V28.76H259.48V71H269.48ZM260.651 25.544L238.811 51.544L246.468 57.976L268.308 31.976L260.651 25.544ZM246.458 51.5313L224.538 25.6113L216.902 32.0687L238.822 57.9887L246.458 51.5313ZM215.72 28.84V71H225.72V28.84H215.72ZM220.72 66H210.16V76H220.72V66ZM329.472 71H324.472V76H329.472V71ZM329.472 24.04H334.472V19.04H329.472V24.04ZM305.952 24.04H300.952V29.04H305.952V24.04ZM305.952 13.4V8.4H300.952V13.4H305.952ZM363.552 13.4H368.552V8.4H363.552V13.4ZM363.552 24.04V29.04H368.552V24.04H363.552ZM340.112 24.04V19.04H335.112V24.04H340.112ZM340.112 71V76H345.112V71H340.112ZM334.472 71V24.04H324.472V71H334.472ZM329.472 19.04H305.952V29.04H329.472V19.04ZM310.952 24.04V13.4H300.952V24.04H310.952ZM305.952 18.4H363.552V8.4H305.952V18.4ZM358.552 13.4V24.04H368.552V13.4H358.552ZM363.552 19.04H340.112V29.04H363.552V19.04ZM335.112 24.04V71H345.112V24.04H335.112ZM340.112 66H329.472V76H340.112V66ZM375.055 69.48L372.442 73.743L372.472 73.7614L372.502 73.7793L375.055 69.48ZM371.055 65.48L366.755 68.0327L366.773 68.0629L366.792 68.0928L371.055 65.48ZM371.055 19L375.318 21.6128L375.336 21.5829L375.354 21.5527L371.055 19ZM375.055 14.92L372.502 10.6207L372.472 10.6386L372.442 10.657L375.055 14.92ZM425.615 19L421.315 21.5527L421.333 21.5829L421.352 21.6128L425.615 19ZM427.135 29V34H432.135V29H427.135ZM416.495 29H411.495V34H416.495V29ZM416.175 24.36L412.639 27.8955L412.89 28.1468L413.175 28.36L416.175 24.36ZM380.335 24.36L383.87 27.8956L383.87 27.8955L380.335 24.36ZM380.335 60.12L376.335 63.12L376.763 63.6914L377.335 64.12L380.335 60.12ZM416.175 60.12L419.175 64.12L419.459 63.9068L419.71 63.6555L416.175 60.12ZM416.495 49H421.495V44H416.495V49ZM403.455 49H398.455V54H403.455V49ZM403.455 38.36V33.36H398.455V38.36H403.455ZM427.135 38.36H432.135V33.36H427.135V38.36ZM425.615 65.48L429.878 68.0928L429.896 68.0629L429.914 68.0327L425.615 65.48ZM421.535 69.48L418.982 65.1807L421.535 69.48ZM380.655 66C379.507 66 378.525 65.7253 377.607 65.1807L372.502 73.7793C374.998 75.2613 377.75 76 380.655 76V66ZM377.668 65.217C376.687 64.6159 375.919 63.848 375.318 62.8672L366.792 68.0928C368.217 70.4187 370.116 72.3175 372.442 73.743L377.668 65.217ZM375.354 62.9273C374.809 62.0101 374.535 61.0282 374.535 59.88H364.535C364.535 62.7852 365.273 65.5366 366.755 68.0327L375.354 62.9273ZM374.535 59.88V24.52H364.535V59.88H374.535ZM374.535 24.52C374.535 23.372 374.809 22.4435 375.318 21.6128L366.792 16.3872C365.274 18.8632 364.535 21.6147 364.535 24.52H374.535ZM375.354 21.5527C375.963 20.5276 376.724 19.7615 377.668 19.183L372.442 10.657C370.079 12.1052 368.173 14.0591 366.755 16.4473L375.354 21.5527ZM377.607 19.2193C378.525 18.6747 379.507 18.4 380.655 18.4V8.4C377.75 8.4 374.998 9.13867 372.502 10.6207L377.607 19.2193ZM380.655 18.4H415.935V8.4H380.655V18.4ZM415.935 18.4C417.083 18.4 418.065 18.6747 418.982 19.2193L424.087 10.6207C421.591 9.13867 418.84 8.4 415.935 8.4V18.4ZM418.982 19.2193C419.97 19.8056 420.729 20.5651 421.315 21.5527L429.914 16.4473C428.474 14.0215 426.513 12.061 424.087 10.6207L418.982 19.2193ZM421.352 21.6128C421.861 22.4435 422.135 23.372 422.135 24.52H432.135C432.135 21.6147 431.395 18.8632 429.878 16.3872L421.352 21.6128ZM422.135 24.52V29H432.135V24.52H422.135ZM427.135 24H416.495V34H427.135V24ZM421.495 29V25H411.495V29H421.495ZM421.495 25C421.495 23.1596 420.647 21.4643 419.175 20.36L413.175 28.36C412.734 28.0298 412.276 27.542 411.943 26.8761C411.61 26.2101 411.495 25.5503 411.495 25H421.495ZM419.71 20.8245C418.693 19.8077 417.226 19.04 415.455 19.04V29.04C414.899 29.04 414.333 28.9243 413.804 28.6891C413.286 28.459 412.903 28.1591 412.639 27.8955L419.71 20.8245ZM415.455 19.04H381.055V29.04H415.455V19.04ZM381.055 19.04C379.283 19.04 377.816 19.8077 376.799 20.8245L383.87 27.8955C383.607 28.159 383.223 28.459 382.705 28.6891C382.176 28.9243 381.61 29.04 381.055 29.04V19.04ZM376.799 20.8244C375.535 22.0881 375.095 23.662 375.095 25H385.095C385.095 25.366 385.039 25.8541 384.836 26.3956C384.628 26.9525 384.298 27.4673 383.87 27.8956L376.799 20.8244ZM375.095 25V59.4H385.095V25H375.095ZM375.095 59.4C375.095 60.7485 375.526 62.0412 376.335 63.12L384.335 57.12C384.824 57.7721 385.095 58.5848 385.095 59.4H375.095ZM377.335 64.12C378.413 64.9291 379.706 65.36 381.055 65.36V55.36C381.87 55.36 382.683 55.6309 383.335 56.12L377.335 64.12ZM381.055 65.36H415.455V55.36H381.055V65.36ZM415.455 65.36C416.803 65.36 418.096 64.9291 419.175 64.12L413.175 56.12C413.827 55.6309 414.639 55.36 415.455 55.36V65.36ZM419.71 63.6555C420.727 62.6387 421.495 61.1712 421.495 59.4H411.495C411.495 58.8448 411.61 58.2786 411.846 57.7493C412.076 57.2317 412.376 56.848 412.639 56.5845L419.71 63.6555ZM421.495 59.4V49H411.495V59.4H421.495ZM416.495 44H403.455V54H416.495V44ZM408.455 49V38.36H398.455V49H408.455ZM403.455 43.36H427.135V33.36H403.455V43.36ZM422.135 38.36V59.88H432.135V38.36H422.135ZM422.135 59.88C422.135 61.0282 421.86 62.0101 421.315 62.9273L429.914 68.0327C431.396 65.5366 432.135 62.7852 432.135 59.88H422.135ZM421.352 62.8672C420.773 63.811 420.007 64.5721 418.982 65.1807L424.087 73.7793C426.476 72.3613 428.429 70.4557 429.878 68.0928L421.352 62.8672ZM418.982 65.1807C418.065 65.7253 417.083 66 415.935 66V76C418.84 76 421.591 75.2613 424.087 73.7793L418.982 65.1807ZM415.935 66H380.655V76H415.935V66ZM436.101 71H431.101V76H436.101V71ZM436.101 13.4V8.4H431.101V13.4H436.101ZM489.141 13.4H494.141V8.4H489.141V13.4ZM489.141 24.04V29.04H494.141V24.04H489.141ZM446.741 24.04V19.04H441.741V24.04H446.741ZM446.741 36.84H441.741V41.84H446.741V36.84ZM480.821 36.84H485.821V31.84H480.821V36.84ZM480.821 47.56V52.56H485.821V47.56H480.821ZM446.741 47.56V42.56H441.741V47.56H446.741ZM446.741 60.36H441.741V65.36H446.741V60.36ZM489.141 60.36H494.141V55.36H489.141V60.36ZM489.141 71V76H494.141V71H489.141ZM441.101 71V13.4H431.101V71H441.101ZM436.101 18.4H489.141V8.4H436.101V18.4ZM484.141 13.4V24.04H494.141V13.4H484.141ZM489.141 19.04H446.741V29.04H489.141V19.04ZM441.741 24.04V36.84H451.741V24.04H441.741ZM446.741 41.84H480.821V31.84H446.741V41.84ZM475.821 36.84V47.56H485.821V36.84H475.821ZM480.821 42.56H446.741V52.56H480.821V42.56ZM441.741 47.56V60.36H451.741V47.56H441.741ZM446.741 65.36H489.141V55.36H446.741V65.36ZM484.141 60.36V71H494.141V60.36H484.141ZM489.141 66H436.101V76H489.141V66ZM540.924 71L536.225 72.7098L537.423 76H540.924V71ZM519.964 13.4V8.4H512.824L515.266 15.1098L519.964 13.4ZM531.164 13.4L535.859 11.6802L534.657 8.4H531.164V13.4ZM545.084 51.4L540.389 53.1198L545.084 65.9364L549.779 53.1198L545.084 51.4ZM559.004 13.4V8.4H555.511L554.309 11.6802L559.004 13.4ZM569.324 13.4L574.019 11.6802L572.817 8.4H569.324V13.4ZM583.244 51.4L578.549 53.1198L583.258 65.9733L587.942 53.1111L583.244 51.4ZM597.084 13.4V8.4H593.584L592.386 11.6889L597.084 13.4ZM608.364 13.4L613.063 15.1098L615.504 8.4H608.364V13.4ZM587.404 71V76H590.905L592.103 72.7098L587.404 71ZM579.084 71L574.39 72.7213L575.592 76H579.084V71ZM564.124 30.2L568.818 28.4787L564.111 15.6415L559.427 28.4868L564.124 30.2ZM549.244 71V76H552.743L553.941 72.7132L549.244 71ZM545.623 69.2902L524.663 11.6902L515.266 15.1098L536.225 72.7098L545.623 69.2902ZM519.964 18.4H531.164V8.4H519.964V18.4ZM526.469 15.1198L540.389 53.1198L549.779 49.6802L535.859 11.6802L526.469 15.1198ZM549.779 53.1198L563.699 15.1198L554.309 11.6802L540.389 49.6802L549.779 53.1198ZM559.004 18.4H569.324V8.4H559.004V18.4ZM564.629 15.1198L578.549 53.1198L587.939 49.6802L574.019 11.6802L564.629 15.1198ZM587.942 53.1111L601.782 15.1111L592.386 11.6889L578.546 49.6889L587.942 53.1111ZM597.084 18.4H608.364V8.4H597.084V18.4ZM603.665 11.6902L582.706 69.2902L592.103 72.7098L613.063 15.1098L603.665 11.6902ZM587.404 66H579.084V76H587.404V66ZM583.778 69.2787L568.818 28.4787L559.43 31.9213L574.39 72.7213L583.778 69.2787ZM559.427 28.4868L544.547 69.2868L553.941 72.7132L568.821 31.9131L559.427 28.4868ZM549.244 66H540.924V76H549.244V66ZM616.101 71H611.101V76H616.101V71ZM616.101 13.4V8.4H611.101V13.4H616.101ZM669.141 13.4H674.141V8.4H669.141V13.4ZM669.141 24.04V29.04H674.141V24.04H669.141ZM626.741 24.04V19.04H621.741V24.04H626.741ZM626.741 36.84H621.741V41.84H626.741V36.84ZM660.821 36.84H665.821V31.84H660.821V36.84ZM660.821 47.56V52.56H665.821V47.56H660.821ZM626.741 47.56V42.56H621.741V47.56H626.741ZM626.741 60.36H621.741V65.36H626.741V60.36ZM669.141 60.36H674.141V55.36H669.141V60.36ZM669.141 71V76H674.141V71H669.141ZM621.101 71V13.4H611.101V71H621.101ZM616.101 18.4H669.141V8.4H616.101V18.4ZM664.141 13.4V24.04H674.141V13.4H664.141ZM669.141 19.04H626.741V29.04H669.141V19.04ZM621.741 24.04V36.84H631.741V24.04H621.741ZM626.741 41.84H660.821V31.84H626.741V41.84ZM655.821 36.84V47.56H665.821V36.84H655.821ZM660.821 42.56H626.741V52.56H660.821V42.56ZM621.741 47.56V60.36H631.741V47.56H621.741ZM626.741 65.36H669.141V55.36H626.741V65.36ZM664.141 60.36V71H674.141V60.36H664.141ZM669.141 66H616.101V76H669.141V66ZM677.351 71H672.351V76H677.351V71ZM677.351 13.4V8.4H672.351V13.4H677.351ZM730.391 13.4H735.391V8.4H730.391V13.4ZM730.391 24.04V29.04H735.391V24.04H730.391ZM687.991 24.04V19.04H682.991V24.04H687.991ZM687.991 36.84H682.991V41.84H687.991V36.84ZM722.071 36.84H727.071V31.84H722.071V36.84ZM722.071 47.56V52.56H727.071V47.56H722.071ZM687.991 47.56V42.56H682.991V47.56H687.991ZM687.991 60.36H682.991V65.36H687.991V60.36ZM730.391 60.36H735.391V55.36H730.391V60.36ZM730.391 71V76H735.391V71H730.391ZM682.351 71V13.4H672.351V71H682.351ZM677.351 18.4H730.391V8.4H677.351V18.4ZM725.391 13.4V24.04H735.391V13.4H725.391ZM730.391 19.04H687.991V29.04H730.391V19.04ZM682.991 24.04V36.84H692.991V24.04H682.991ZM687.991 41.84H722.071V31.84H687.991V41.84ZM717.071 36.84V47.56H727.071V36.84H717.071ZM722.071 42.56H687.991V52.56H722.071V42.56ZM682.991 47.56V60.36H692.991V47.56H682.991ZM687.991 65.36H730.391V55.36H687.991V65.36ZM725.391 60.36V71H735.391V60.36H725.391ZM730.391 66H677.351V76H730.391V66ZM738.521 71H733.521V76H738.521V71ZM738.521 13.4V8.4H733.521V13.4H738.521ZM749.161 13.4H754.161V8.4H749.161V13.4ZM749.161 36.84H744.161V41.84H749.161V36.84ZM762.681 36.84V41.84H765.012L766.51 40.055L762.681 36.84ZM782.361 13.4V8.4H780.03L778.532 10.185L782.361 13.4ZM793.881 13.4H798.881V8.4H793.881V13.4ZM793.881 16.44L797.712 19.6526L798.881 18.2589V16.44H793.881ZM772.281 42.2L768.45 38.9874L765.751 42.2059L768.455 45.4196L772.281 42.2ZM793.961 67.96H798.961V66.136L797.786 64.7404L793.961 67.96ZM793.961 71V76H798.961V71H793.961ZM782.361 71L778.532 74.215L780.03 76H782.361V71ZM762.681 47.56L766.51 44.345L765.012 42.56H762.681V47.56ZM749.161 47.56V42.56H744.161V47.56H749.161ZM749.161 71V76H754.161V71H749.161ZM743.521 71V13.4H733.521V71H743.521ZM738.521 18.4H749.161V8.4H738.521V18.4ZM744.161 13.4V36.84H754.161V13.4H744.161ZM749.161 41.84H762.681V31.84H749.161V41.84ZM766.51 40.055L786.19 16.615L778.532 10.185L758.852 33.625L766.51 40.055ZM782.361 18.4H793.881V8.4H782.361V18.4ZM788.881 13.4V16.44H798.881V13.4H788.881ZM790.05 13.2274L768.45 38.9874L776.112 45.4126L797.712 19.6526L790.05 13.2274ZM768.455 45.4196L790.135 71.1796L797.786 64.7404L776.106 38.9804L768.455 45.4196ZM788.961 67.96V71H798.961V67.96H788.961ZM793.961 66H782.361V76H793.961V66ZM786.19 67.785L766.51 44.345L758.852 50.775L778.532 74.215L786.19 67.785ZM762.681 42.56H749.161V52.56H762.681V42.56ZM744.161 47.56V71H754.161V47.56H744.161ZM749.161 66H738.521V76H749.161V66Z" fill="#A9350A" mask="url(#path-1-outside-1_32271_8141)"/>
</g>
<defs>
<filter id="filter0_d_32271_8141" x="3.00928" y="5.16016" width="798.952" height="84.0801" filterUnits="userSpaceOnUse" color-interpolation-filters="sRGB">
<feFlood flood-opacity="0" result="BackgroundImageFix"/>
<feColorMatrix in="SourceAlpha" type="matrix" values="0 0 0 0 0 0 0 0 0 0 0 0 0 0 0 0 0 0 127 0" result="hardAlpha"/>
<feOffset dx="4" dy="6"/>
<feGaussianBlur stdDeviation="2"/>
<feComposite in2="hardAlpha" operator="out"/>
<feColorMatrix type="matrix" values="0 0 0 0 0.980392 0 0 0 0 0.305882 0 0 0 0 0.054902 0 0 0 0.3 0"/>
<feBlend mode="normal" in2="BackgroundImageFix" result="effect1_dropShadow_32271_8141"/>
<feBlend mode="normal" in="SourceGraphic" in2="effect1_dropShadow_32271_8141" result="shape"/>
</filter>
</defs>
</svg>