<svg xmlns="http://www.w3.org/2000/svg" width="24" height="24" viewBox="0 0 24 24" fill="none">
<g clip-path="url(#clip0_36819_4347)">
<path d="M18.21 11.1289C18.6262 10.7858 21.03 9.29889 22.3462 8.04639C23.3737 7.06764 23.7712 4.51202 22.1906 3.26889C20.1356 1.65452 18.1631 3.34952 18.1631 3.34952C18.1631 3.34952 17.9906 2.39139 16.7906 1.82889C15.2794 1.12014 13.365 0.855767 11.6044 0.878267C9.8981 0.898892 8.32685 1.10514 6.93185 1.78952C5.6831 2.40264 5.6081 3.27639 5.6081 3.27639C5.6081 3.27639 3.96935 1.71077 1.96123 2.98202C-0.0450209 4.25514 0.530604 6.80514 1.49623 7.87577C2.75435 9.27077 4.2656 9.98139 4.95185 10.4951C5.63623 11.0089 6.29248 11.4983 6.29248 11.9389C6.29248 12.3795 6.09748 12.477 6.02248 12.4526C5.94935 12.4283 5.81998 11.9989 5.48435 12.1826C5.02685 12.4358 5.1656 13.4558 6.11998 13.5533C7.04435 13.6489 7.2206 12.672 7.2206 12.672L7.36685 11.7176L8.88373 12.7695L10.5469 14.1401L10.4981 15.3139C10.4981 15.3139 10.425 16.2195 9.98435 17.0033C9.54373 17.787 8.83498 18.5689 8.83498 18.5689L8.81248 19.2776L14.9794 19.1314L14.7844 18.447C14.7844 18.447 13.9894 17.5733 13.5112 16.6358C13.17 15.9645 13.1156 15.2876 13.1156 15.2876L13.1006 13.6039L16.3012 11.6426C16.3012 11.6426 16.6444 11.9126 16.5956 12.0101C16.5469 12.1076 16.5356 13.107 17.3044 13.4783C18.0637 13.8458 18.675 13.3808 18.6019 12.7433C18.5287 12.1076 18.1369 12.327 18.015 12.4245C17.8931 12.522 17.6231 12.5464 17.55 12.1789C17.475 11.8151 17.7937 11.472 18.21 11.1289ZM2.45435 7.66764L1.72123 5.43639L2.6081 4.27577L3.60185 3.98514C3.60185 3.98514 4.87123 4.93202 4.91623 5.00889C4.96123 5.08577 5.72623 6.65889 5.72623 6.65889L6.73498 10.3114L2.45435 7.66764ZM16.8656 10.602C16.8806 10.5251 17.8125 6.68889 17.8125 6.68889C17.8125 6.64389 18.4687 6.33827 18.4687 6.27639C18.4687 6.21452 19.6612 4.27389 19.6612 4.27389L21.6487 4.35077L22.0612 6.32139L21.0675 7.95639C21.0694 7.95827 16.8506 10.677 16.8656 10.602Z" fill="#FEC417"/>
<path d="M22.4849 5.74488C22.3387 3.99738 20.6099 3.57926 19.8993 3.83238C19.1887 4.08551 18.7274 4.55988 18.5699 5.23488C18.4424 5.78051 18.3149 6.14426 18.1687 6.20051C18.0074 6.26051 17.8593 6.23613 17.8593 6.23613C17.8593 6.23613 17.8331 5.05488 17.8406 4.57863C17.8593 3.59613 18.1593 3.34488 18.1593 3.34488C18.1593 3.34488 18.0956 3.01301 17.9681 2.82926C17.8406 2.64738 17.6043 2.41113 17.6043 2.41113C17.6043 2.41113 17.6587 2.88363 17.4224 2.99426C17.1862 3.10488 16.9312 2.93988 16.9312 2.93988L17.1674 3.92238C17.1674 3.92238 16.7849 8.81988 16.7493 8.92863C16.7137 9.03738 15.2756 11.5311 15.2756 11.5311C15.2756 11.5311 14.4374 12.3149 14.0381 12.4968C13.6368 12.6786 13.2918 13.153 11.7449 13.1699C10.1981 13.1886 8.8687 11.968 8.8687 11.968L7.53932 10.693L6.55682 7.79801L6.41057 4.84863L6.47245 3.77613L6.51557 3.32801L6.4462 3.10113C6.4462 3.10113 6.3187 3.22863 6.08245 3.17426C5.8462 3.11988 5.75432 2.81051 5.75432 2.81051C5.75432 2.81051 5.66245 2.95676 5.64557 3.02988C5.62682 3.10301 5.60807 3.27176 5.60807 3.27176C5.60807 3.27176 5.86307 3.53988 5.91745 3.92238C5.97182 4.30488 5.8987 5.88926 5.62682 5.85176C5.35307 5.81613 5.44307 4.48676 4.4062 3.97676C3.50807 3.53426 2.16745 3.66738 1.61995 4.77738C1.07432 5.88738 1.4737 7.19801 3.18557 8.41863C4.89745 9.63926 6.71995 10.6649 7.0087 11.6436C7.3537 12.808 6.57182 13.4999 6.57182 13.4999C6.57182 13.4999 7.13995 13.4211 7.41932 12.8118C7.50932 12.6149 7.54307 12.328 7.5562 12.1574C8.20307 13.0011 9.0637 13.7155 10.2037 14.0605C10.6349 14.2086 11.1206 14.2836 11.7956 14.2836C11.8931 14.2836 11.9887 14.2799 12.0843 14.2761C12.8737 14.248 13.5487 14.0999 14.2031 13.7755C15.0862 13.3668 15.7706 12.7424 16.2993 12.0336C16.2843 12.2024 16.3874 12.6224 16.5843 12.9543C16.9293 13.5374 17.5124 13.573 17.5124 13.573C17.5124 13.573 16.7118 13.1005 16.8749 11.9718C17.0381 10.843 17.7843 10.4418 18.9131 9.71426C20.0456 8.98488 22.6293 7.49238 22.4849 5.74488ZM3.98807 8.22176C3.47995 7.86363 2.58932 7.38551 2.22182 6.65613C1.73245 5.68301 2.12995 4.50738 3.05995 4.36301C4.9912 4.05926 5.02682 6.45738 5.15432 6.74801C5.28182 7.03863 5.64557 7.05738 5.64557 7.05738C5.64557 7.05738 5.6587 7.21863 5.7112 7.52988C5.71307 7.53926 5.71495 7.54676 5.71495 7.55613L5.72057 7.58426C5.7562 7.79613 5.80682 8.06051 5.87807 8.36238L5.8837 8.38488C5.92307 8.55551 5.96432 8.71676 6.00745 8.86488C6.0937 9.17613 6.1987 9.51176 6.32807 9.85676C6.14057 9.72926 5.0662 8.98488 3.98807 8.22176ZM21.4837 6.87363C21.0806 7.52613 20.2649 8.01176 19.6631 8.42051C18.8868 8.94738 17.7318 9.73863 17.4056 9.95988C17.4806 9.76113 17.5462 9.56426 17.6062 9.37113C17.7037 9.11613 17.8068 8.80488 17.8781 8.46926C18.0656 7.58801 18.0974 6.81738 18.0974 6.81738C18.0974 6.81738 18.4799 6.92613 18.7162 6.67113C18.9524 6.41613 19.0406 5.62488 19.2618 5.25176C19.6068 4.66863 20.2987 4.06863 21.3374 4.79613C21.9374 5.21801 21.9599 6.10113 21.4837 6.87363ZM11.3474 14.8705L12.4068 14.8574C12.4068 14.8574 12.4349 16.0143 12.6018 16.8768C12.7687 17.7411 12.9918 18.7011 12.9918 18.7011C12.9918 18.7011 10.8337 19.4249 10.8468 18.6449C10.8599 17.8649 11.1806 16.3461 11.1806 16.3461C11.1806 16.3461 11.3756 14.5368 11.3474 14.8705Z" fill="#FFA828"/>
<path d="M9.56998 2.8482C9.56998 2.8482 10.7494 2.71507 11.8462 2.73195C12.9431 2.74882 14.0719 2.96445 14.0719 2.96445C14.0719 2.96445 14.0062 6.6357 13.8056 8.69632C13.6069 10.7569 12.8269 12.3001 12.6187 12.7369C12.4181 13.1607 12.2719 13.3876 12.2719 13.3876L11.2144 13.2638L9.38623 9.59257L9.56998 2.8482Z" fill="#FFA828"/>
<path d="M8.15812 3.39738C8.15812 3.39738 8.48999 3.23051 8.97187 3.04863C9.40874 2.88363 9.80249 2.83301 9.80249 2.83301C9.80249 2.83301 9.81374 5.26676 9.85312 7.00301C9.88687 8.48238 10.4344 10.9068 10.7006 11.5555C10.9669 12.2043 11.4469 13.1943 11.4469 13.1943C11.4469 13.1943 10.4812 13.0555 9.88687 12.3018C9.57374 11.9043 8.10937 8.82926 8.05874 6.80238C8.00812 4.77551 8.20687 3.34676 8.15812 3.39738Z" fill="#FFEFAB"/>
<path d="M7.60873 3.67859C7.57498 3.77797 7.3106 5.87234 7.72498 7.81484C8.13935 9.75734 8.75248 11.0867 9.15748 11.6136C9.51748 12.0805 9.75185 12.3017 9.88498 12.3017C10.0181 12.3017 9.33748 10.6911 9.0206 9.42734C8.7056 8.16547 8.53873 6.65234 8.50498 5.90609C8.47123 5.15797 8.43935 3.23047 8.43935 3.23047C8.43935 3.23047 8.07373 3.39734 7.99123 3.44609C7.90873 3.49672 7.60873 3.67859 7.60873 3.67859Z" fill="#FFFCFD"/>
<path d="M10.0012 18.5644C10.0012 18.5644 10.7156 17.4019 10.8656 16.5206C11.0156 15.6394 11.0981 14.8594 11.0981 14.8594L11.5406 14.8781C11.5406 14.8781 11.4975 16.155 11.4468 17.0194C11.3962 17.8837 11.2481 18.7313 11.2481 18.7313L10.0012 18.5644Z" fill="#FFEFAB"/>
<path d="M10.5506 14.1394C10.5506 14.1394 10.8824 13.815 11.7956 13.815C12.7087 13.815 13.1006 14.1656 13.1006 14.1656L13.1249 15.2925C13.1249 15.2925 12.5174 15.1031 11.7787 15.0937C11.1637 15.0862 10.5018 15.315 10.5018 15.315L10.5506 14.1394ZM6.56243 2.94749C6.71618 2.80499 8.18993 1.69874 11.6793 1.66874C15.4331 1.63499 16.8412 2.72249 16.9293 2.78249C17.0287 2.84811 17.1449 3.14811 17.0962 3.28124C17.0456 3.41436 16.9462 3.46311 16.6649 3.34686C16.3818 3.23061 14.9868 2.21249 11.6306 2.31749C8.40743 2.41686 7.04056 3.39749 6.89618 3.47999C6.77993 3.54561 6.56431 3.56249 6.46493 3.42936C6.36368 3.29811 6.46306 3.04124 6.56243 2.94749ZM17.0962 3.72936C16.6649 3.76311 16.9631 7.23561 16.0499 9.41061C15.0712 11.7375 13.8224 12.4012 13.8731 12.5344C13.9237 12.6675 15.1462 12.2981 15.9168 11.205C16.6312 10.1925 17.0624 9.29436 17.2631 8.09811C17.4599 6.90186 17.5762 3.69186 17.0962 3.72936ZM6.47056 4.12686C6.36181 4.12124 6.47243 5.85374 6.29618 6.61499C6.22868 6.90749 6.06368 6.96749 6.04681 7.03311C6.02993 7.09874 6.40868 9.32811 7.04431 10.3069C7.65931 11.2537 8.87243 12.4331 9.07118 12.2344C9.26993 12.0356 8.18993 11.37 7.46056 9.92436C7.04056 9.09561 6.61306 7.84686 6.59618 6.41811C6.58493 5.47311 6.70306 4.13999 6.47056 4.12686Z" fill="#D1701C"/>
<path d="M16.2694 21.1335L16.2675 18.4541H7.66691C7.69316 18.4541 7.67254 20.6329 7.66879 21.1429H6.44629V23.0835H17.3682V21.1429L16.2694 21.1335Z" fill="#865C50"/>
<path d="M10.4231 19.8625C10.2112 19.8531 9.96748 19.8962 9.95811 20.1587C9.94873 20.4212 9.94873 21.1806 9.94873 21.325C9.94873 21.4694 10.0669 21.595 10.3631 21.6044C10.6594 21.6137 13.44 21.6044 13.635 21.6044C13.83 21.6044 13.9312 21.4356 13.9387 21.2669C13.9481 21.0981 13.9294 20.3875 13.9294 20.1944C13.9294 19.8737 13.6425 19.8737 13.4475 19.8737C13.2375 19.87 10.4231 19.8625 10.4231 19.8625Z" fill="#FCC219"/>
</g>
<defs>
<clipPath id="clip0_36819_4347">
<rect width="24" height="24" fill="white"/>
</clipPath>
</defs>
</svg>