<svg xmlns="http://www.w3.org/2000/svg" width="21" height="20" viewBox="0 0 21 20" fill="none">
  <rect x="6.40039" y="6" width="9" height="8" fill="white"/>
  <path d="M5.16661 15.2716C4.45029 14.5798 3.87892 13.7522 3.48585 12.8371C3.09279 11.9221 2.88589 10.938 2.87724 9.94212C2.86858 8.94628 3.05835 7.95868 3.43545 7.03696C3.81256 6.11524 4.36946 5.27785 5.07365 4.57365C5.77785 3.86946 6.61524 3.31256 7.53696 2.93545C8.45868 2.55835 9.44628 2.36858 10.4421 2.37724C11.438 2.38589 12.4221 2.59279 13.3371 2.98585C14.2522 3.37892 15.0798 3.95029 15.7716 4.66661C17.1378 6.08113 17.8938 7.97565 17.8767 9.94212C17.8596 11.9086 17.0708 13.7897 15.6803 15.1803C14.2897 16.5708 12.4086 17.3596 10.4421 17.3767C8.47565 17.3938 6.58113 16.6378 5.16661 15.2716ZM11.5191 9.96911L13.6416 7.84661L12.5841 6.78911L10.4691 8.91161L8.34661 6.78911L7.28911 7.84661L9.41161 9.96911L7.28911 12.0916L8.34661 13.1491L10.4691 11.0266L12.5916 13.1491L13.6491 12.0916L11.5266 9.96911H11.5191Z" fill="#D81200"/>
</svg>