<svg xmlns="http://www.w3.org/2000/svg" width="17" height="17" viewBox="0 0 17 17" fill="none">
  <path d="M8.861 1.36133C7.98552 1.36133 7.11862 1.53377 6.30978 1.8688C5.50094 2.20383 4.76601 2.69489 4.14696 3.31395C2.89671 4.56419 2.19434 6.25988 2.19434 8.028C2.19434 10.9747 4.10767 13.4747 6.75434 14.3613C7.08767 14.4147 7.19434 14.208 7.19434 14.028V12.9013C5.34767 13.3013 4.95434 12.008 4.95434 12.008C4.64767 11.2347 4.21434 11.028 4.21434 11.028C3.60767 10.6147 4.261 10.628 4.261 10.628C4.92767 10.6747 5.281 11.3147 5.281 11.3147C5.861 12.328 6.841 12.028 7.221 11.868C7.281 11.4347 7.45434 11.1413 7.641 10.9747C6.161 10.808 4.60767 10.2347 4.60767 7.69466C4.60767 6.95466 4.861 6.36133 5.29434 5.88799C5.22767 5.72133 4.99434 5.02799 5.361 4.128C5.361 4.128 5.921 3.94799 7.19434 4.80799C7.721 4.66133 8.29434 4.588 8.861 4.588C9.42767 4.588 10.001 4.66133 10.5277 4.80799C11.801 3.94799 12.361 4.128 12.361 4.128C12.7277 5.02799 12.4943 5.72133 12.4277 5.88799C12.861 6.36133 13.1143 6.95466 13.1143 7.69466C13.1143 10.2413 11.5543 10.8013 10.0677 10.968C10.3077 11.1747 10.5277 11.5813 10.5277 12.2013V14.028C10.5277 14.208 10.6343 14.4213 10.9743 14.3613C13.621 13.468 15.5277 10.9747 15.5277 8.028C15.5277 7.15252 15.3552 6.28561 15.0202 5.47677C14.6852 4.66793 14.1941 3.93301 13.575 3.31395C12.956 2.69489 12.2211 2.20383 11.4122 1.8688C10.6034 1.53377 9.73648 1.36133 8.861 1.36133Z" fill="white"/>
</svg>