<svg width="20" height="20" viewBox="0 0 20 20" fill="none" xmlns="http://www.w3.org/2000/svg">
<rect width="20" height="20" rx="10" fill="#10B953"/>
<path d="M10 4C8.4087 4 6.88258 4.63214 5.75736 5.75736C4.63214 6.88258 4 8.4087 4 10H2L4.66667 12.6667L7.33333 10H5.33333C5.33333 7.42 7.42 5.33333 10 5.33333C12.58 5.33333 14.6667 7.42 14.6667 10C14.6676 10.8572 14.4322 11.6981 13.9864 12.4302C13.5406 13.1623 12.9016 13.7575 12.1397 14.1501C11.3777 14.5428 10.5223 14.7179 9.66729 14.6561C8.81232 14.5944 7.99093 14.2981 7.29333 13.8L6.34667 14.76C7.1031 15.3405 7.98697 15.7323 8.92505 15.903C9.86312 16.0738 10.8284 16.0185 11.7408 15.7417C12.6533 15.465 13.4866 14.9748 14.1718 14.3117C14.857 13.6487 15.3743 12.8319 15.6808 11.929C15.9874 11.0262 16.0744 10.0632 15.9345 9.12007C15.7947 8.17689 15.4321 7.28063 14.8768 6.50554C14.3214 5.73046 13.5894 5.09889 12.7413 4.66316C11.8932 4.22743 10.9535 4.0001 10 4Z" fill="white"/>
</svg>
