<svg xmlns="http://www.w3.org/2000/svg" width="80" height="81" viewBox="0 0 80 81" fill="none">
<rect x="80" y="80.5" width="80" height="80" rx="11" transform="rotate(-180 80 80.5)" fill="url(#paint0_linear_41353_26801)" fill-opacity="0.3"/>
<path d="M55.5254 38.3213C56.566 37.4634 62.5754 33.7463 65.866 30.615C68.4347 28.1681 69.4285 21.7791 65.4769 18.6713C60.3394 14.6353 55.4082 18.8728 55.4082 18.8728C55.4082 18.8728 54.9769 16.4775 51.9769 15.0713C48.1988 13.2994 43.4129 12.6384 39.0113 12.6947C34.7457 12.7463 30.8176 13.2619 27.3301 14.9728C24.2082 16.5056 24.0207 18.69 24.0207 18.69C24.0207 18.69 19.9238 14.7759 14.9035 17.9541C9.88787 21.1369 11.3269 27.5119 13.741 30.1884C16.8863 33.6759 20.6644 35.4525 22.3801 36.7369C24.091 38.0213 25.7316 39.2447 25.7316 40.3463C25.7316 41.4478 25.2441 41.6916 25.0566 41.6306C24.8738 41.5697 24.5504 40.4963 23.7113 40.9556C22.5676 41.5884 22.9144 44.1384 25.3004 44.3822C27.6113 44.6213 28.0519 42.1791 28.0519 42.1791L28.4176 39.7931L32.2098 42.4228L36.3676 45.8494L36.2457 48.7838C36.2457 48.7838 36.0629 51.0478 34.9613 53.0072C33.8598 54.9666 32.0879 56.9213 32.0879 56.9213L32.0316 58.6931L47.4488 58.3275L46.9613 56.6166C46.9613 56.6166 44.9738 54.4322 43.7785 52.0884C42.9254 50.4103 42.7894 48.7181 42.7894 48.7181L42.7519 44.5088L50.7535 39.6056C50.7535 39.6056 51.6113 40.2806 51.4894 40.5244C51.3676 40.7681 51.3394 43.2666 53.2613 44.1947C55.1598 45.1134 56.6879 43.9509 56.5051 42.3572C56.3223 40.7681 55.3426 41.3166 55.0379 41.5603C54.7332 41.8041 54.0582 41.865 53.8754 40.9463C53.6879 40.0369 54.4848 39.1791 55.5254 38.3213ZM16.1363 29.6681L14.3035 24.09L16.5207 21.1884L19.0051 20.4619C19.0051 20.4619 22.1785 22.8291 22.291 23.0213C22.4035 23.2134 24.316 27.1463 24.316 27.1463L26.8379 36.2775L16.1363 29.6681ZM52.1644 37.0041C52.2019 36.8119 54.5316 27.2213 54.5316 27.2213C54.5316 27.1088 56.1722 26.3447 56.1722 26.19C56.1722 26.0353 59.1535 21.1838 59.1535 21.1838L64.1222 21.3759L65.1535 26.3025L62.6691 30.39C62.6738 30.3947 52.1269 37.1916 52.1644 37.0041Z" fill="#FEC417"/>
<path d="M66.2122 24.8617C65.8466 20.493 61.5247 19.4477 59.7482 20.0805C57.9716 20.7133 56.8185 21.8992 56.4248 23.5867C56.106 24.9508 55.7873 25.8602 55.4216 26.0008C55.0185 26.1508 54.6482 26.0898 54.6482 26.0898C54.6482 26.0898 54.5826 23.1367 54.6013 21.9461C54.6482 19.4898 55.3982 18.8617 55.3982 18.8617C55.3982 18.8617 55.2388 18.032 54.9201 17.5727C54.6013 17.118 54.0107 16.5273 54.0107 16.5273C54.0107 16.5273 54.1466 17.7086 53.556 17.9852C52.9654 18.2617 52.3279 17.8492 52.3279 17.8492L52.9185 20.3055C52.9185 20.3055 51.9623 32.5492 51.8732 32.8211C51.7841 33.093 48.1888 39.3273 48.1888 39.3273C48.1888 39.3273 46.0935 41.2867 45.0951 41.7414C44.0919 42.1961 43.2294 43.382 39.3623 43.4242C35.4951 43.4711 32.1716 40.4195 32.1716 40.4195L28.8482 37.232L26.3919 29.9945L26.0263 22.6211L26.181 19.9398L26.2888 18.8195L26.1154 18.2523C26.1154 18.2523 25.7966 18.5711 25.206 18.4352C24.6154 18.2992 24.3857 17.5258 24.3857 17.5258C24.3857 17.5258 24.156 17.8914 24.1138 18.0742C24.0669 18.257 24.0201 18.6789 24.0201 18.6789C24.0201 18.6789 24.6576 19.3492 24.7935 20.3055C24.9294 21.2617 24.7466 25.2227 24.0669 25.1289C23.3826 25.0398 23.6076 21.7164 21.0154 20.4414C18.7701 19.3352 15.4185 19.668 14.0498 22.443C12.6857 25.218 13.6841 28.4945 17.9638 31.5461C22.2435 34.5977 26.7998 37.1617 27.5216 39.6086C28.3841 42.5195 26.4294 44.2492 26.4294 44.2492C26.4294 44.2492 27.8498 44.0523 28.5482 42.5289C28.7732 42.0367 28.8576 41.3195 28.8904 40.893C30.5076 43.0023 32.6591 44.7883 35.5091 45.6508C36.5872 46.0211 37.8013 46.2086 39.4888 46.2086C39.7326 46.2086 39.9716 46.1992 40.2107 46.1898C42.1841 46.1195 43.8716 45.7492 45.5076 44.9383C47.7154 43.9164 49.4263 42.3555 50.7482 40.5836C50.7107 41.0055 50.9685 42.0555 51.4607 42.8852C52.3232 44.343 53.781 44.432 53.781 44.432C53.781 44.432 51.7794 43.2508 52.1873 40.4289C52.5951 37.607 54.4607 36.6039 57.2826 34.7852C60.1138 32.9617 66.5732 29.2305 66.2122 24.8617ZM19.9701 31.0539C18.6998 30.1586 16.4732 28.9633 15.5544 27.1398C14.331 24.707 15.3248 21.768 17.6498 21.407C22.4779 20.6477 22.5669 26.643 22.8857 27.3695C23.2044 28.0961 24.1138 28.143 24.1138 28.143C24.1138 28.143 24.1466 28.5461 24.2779 29.3242C24.2826 29.3477 24.2873 29.3664 24.2873 29.3898L24.3013 29.4602C24.3904 29.9898 24.5169 30.6508 24.6951 31.4055L24.7091 31.4617C24.8076 31.8883 24.9107 32.2914 25.0185 32.6617C25.2341 33.4398 25.4966 34.2789 25.8201 35.1414C25.3513 34.8227 22.6654 32.9617 19.9701 31.0539ZM63.7091 27.6836C62.7013 29.3148 60.6623 30.5289 59.1576 31.5508C57.2169 32.868 54.3294 34.8461 53.5138 35.3992C53.7013 34.9023 53.8654 34.4102 54.0154 33.9273C54.2591 33.2898 54.5169 32.5117 54.6951 31.6727C55.1638 29.4695 55.2435 27.543 55.2435 27.543C55.2435 27.543 56.1998 27.8148 56.7904 27.1773C57.381 26.5398 57.6013 24.5617 58.1544 23.6289C59.0169 22.1711 60.7466 20.6711 63.3435 22.4898C64.8435 23.5445 64.8998 25.7523 63.7091 27.6836ZM38.3685 47.6758L41.0169 47.643C41.0169 47.643 41.0873 50.5352 41.5044 52.6914C41.9216 54.8523 42.4794 57.2523 42.4794 57.2523C42.4794 57.2523 37.0841 59.0617 37.1169 57.1117C37.1498 55.1617 37.9513 51.3648 37.9513 51.3648C37.9513 51.3648 38.4388 46.8414 38.3685 47.6758Z" fill="#FFA828"/>
<path d="M33.9252 17.6205C33.9252 17.6205 36.8736 17.2877 39.6158 17.3299C42.358 17.3721 45.1799 17.9111 45.1799 17.9111C45.1799 17.9111 45.0158 27.0892 44.5143 32.2408C44.0174 37.3924 42.0674 41.2502 41.5471 42.3424C41.0455 43.4017 40.6799 43.9689 40.6799 43.9689L38.0361 43.6596L33.4658 34.4814L33.9252 17.6205Z" fill="#FFA828"/>
<path d="M30.3952 18.993C30.3952 18.993 31.2249 18.5758 32.4296 18.1211C33.5218 17.7086 34.5062 17.582 34.5062 17.582C34.5062 17.582 34.5343 23.6664 34.6327 28.007C34.7171 31.7055 36.0859 37.7664 36.7515 39.3883C37.4171 41.0102 38.6171 43.4852 38.6171 43.4852C38.6171 43.4852 36.203 43.1383 34.7171 41.2539C33.9343 40.2602 30.2734 32.5727 30.1468 27.5055C30.0202 22.4383 30.5171 18.8664 30.3952 18.993Z" fill="#FFEFAB"/>
<path d="M29.0216 19.6965C28.9372 19.9449 28.2763 25.1809 29.3122 30.0371C30.3481 34.8934 31.8809 38.2168 32.8934 39.534C33.7934 40.7012 34.3794 41.2543 34.7122 41.2543C35.045 41.2543 33.3434 37.2277 32.5513 34.0684C31.7638 30.9137 31.3466 27.1309 31.2622 25.2652C31.1778 23.3949 31.0981 18.5762 31.0981 18.5762C31.0981 18.5762 30.1841 18.9934 29.9778 19.1152C29.7716 19.2418 29.0216 19.6965 29.0216 19.6965Z" fill="#FFFCFD"/>
<path d="M35.0029 56.9109C35.0029 56.9109 36.7889 54.0047 37.1639 51.8016C37.5389 49.5984 37.7451 47.6484 37.7451 47.6484L38.8514 47.6953C38.8514 47.6953 38.7436 50.8875 38.617 53.0484C38.4904 55.2094 38.1201 57.3281 38.1201 57.3281L35.0029 56.9109Z" fill="#FFEFAB"/>
<path d="M36.3769 45.8484C36.3769 45.8484 37.2066 45.0375 39.4894 45.0375C41.7723 45.0375 42.7519 45.914 42.7519 45.914L42.8129 48.7312C42.8129 48.7312 41.2941 48.2578 39.4473 48.2343C37.9098 48.2156 36.2551 48.7875 36.2551 48.7875L36.3769 45.8484ZM26.4066 17.8687C26.791 17.5125 30.4754 14.7468 39.1988 14.6718C48.5832 14.5875 52.1035 17.3062 52.3238 17.4562C52.5723 17.6203 52.8629 18.3703 52.741 18.7031C52.6144 19.0359 52.366 19.1578 51.6629 18.8672C50.9551 18.5765 47.4676 16.0312 39.0769 16.2937C31.0191 16.5422 27.6019 18.9937 27.241 19.2C26.9504 19.364 26.4113 19.4062 26.1629 19.0734C25.9098 18.7453 26.1582 18.1031 26.4066 17.8687ZM52.741 19.8234C51.6629 19.9078 52.4082 28.589 50.1254 34.0265C47.6785 39.8437 44.5566 41.5031 44.6832 41.8359C44.8098 42.1687 47.866 41.2453 49.7926 38.5125C51.5785 35.9812 52.6566 33.7359 53.1582 30.7453C53.6504 27.7547 53.941 19.7297 52.741 19.8234ZM26.1769 20.8172C25.9051 20.8031 26.1816 25.1343 25.741 27.0375C25.5723 27.7687 25.1598 27.9187 25.1176 28.0828C25.0754 28.2468 26.0223 33.8203 27.6113 36.2672C29.1488 38.6343 32.1816 41.5828 32.6785 41.0859C33.1754 40.589 30.4754 38.925 28.6519 35.3109C27.6019 33.239 26.5332 30.1172 26.491 26.5453C26.4629 24.1828 26.7582 20.85 26.1769 20.8172Z" fill="#D1701C"/>
<path d="M50.673 63.3332L50.6684 56.6348H29.1668C29.2324 56.6348 29.1809 62.0816 29.1715 63.3566H26.1152V68.2082H53.4199V63.3566L50.673 63.3332Z" fill="#865C50"/>
<path d="M36.058 60.1552C35.5283 60.1318 34.9189 60.2396 34.8955 60.8959C34.8721 61.5521 34.8721 63.4505 34.8721 63.8115C34.8721 64.1724 35.1674 64.4865 35.908 64.5099C36.6486 64.5334 43.6002 64.5099 44.0877 64.5099C44.5752 64.5099 44.8283 64.088 44.8471 63.6662C44.8705 63.2443 44.8236 61.4677 44.8236 60.9849C44.8236 60.1834 44.1064 60.1834 43.6189 60.1834C43.0939 60.174 36.058 60.1552 36.058 60.1552Z" fill="#FCC219"/>
<defs>
<linearGradient id="paint0_linear_41353_26801" x1="146.5" y1="70" x2="146.5" y2="179" gradientUnits="userSpaceOnUse">
<stop stop-color="#BE5C00"/>
<stop offset="1" stop-color="#AF8004"/>
</linearGradient>
</defs>
</svg>