<svg xmlns="http://www.w3.org/2000/svg" width="80" height="80" viewBox="0 0 80 80" fill="none">
<rect x="80" y="80" width="80" height="80" rx="11" transform="rotate(-180 80 80)" fill="url(#paint0_linear_41065_24008)" fill-opacity="0.3"/>
<g clip-path="url(#clip0_41065_24008)">
<path d="M39.1898 68.9987C54.8379 68.9987 67.5231 56.3134 67.5231 40.6654C67.5231 25.0173 54.8379 12.332 39.1898 12.332C23.5417 12.332 10.8564 25.0173 10.8564 40.6654C10.8564 56.3134 23.5417 68.9987 39.1898 68.9987Z" fill="#F4900C"/>
<path d="M39.1898 65.6686C54.8379 65.6686 67.5231 52.9834 67.5231 37.3353C67.5231 21.6872 54.8379 9.00195 39.1898 9.00195C23.5417 9.00195 10.8564 21.6872 10.8564 37.3353C10.8564 52.9834 23.5417 65.6686 39.1898 65.6686Z" fill="#FFCC4D"/>
<path d="M39.1927 62.3366C52.0794 62.3366 62.526 51.8899 62.526 39.0033C62.526 26.1166 52.0794 15.6699 39.1927 15.6699C26.3061 15.6699 15.8594 26.1166 15.8594 39.0033C15.8594 51.8899 26.3061 62.3366 39.1927 62.3366Z" fill="#FFE8B6"/>
<path d="M39.1927 60.6686C52.0794 60.6686 62.526 50.2219 62.526 37.3353C62.526 24.4486 52.0794 14.002 39.1927 14.002C26.3061 14.002 15.8594 24.4486 15.8594 37.3353C15.8594 50.2219 26.3061 60.6686 39.1927 60.6686Z" fill="#FFAC33"/>
<path d="M39.1894 22.9082C39.1894 22.9082 30.0978 27.1932 29.1911 27.5799C28.2828 27.9649 28.5861 28.5982 29.1928 28.5982H49.1428C50.0794 28.5982 49.8578 27.8832 49.1144 27.4965C48.3711 27.1115 39.1894 22.9082 39.1894 22.9082Z" fill="#FFAC33"/>
<g filter="url(#filter0_d_41065_24008)">
<path d="M38.4087 44.2168C35.3218 44.2168 34.108 42.8381 33.9432 41.0699H30.6465C30.8263 44.3516 33.2838 46.1948 36.161 46.8092V50.0609H40.6565V46.8391C43.5786 46.2847 45.9012 44.5914 45.9012 41.5195C45.9012 37.2637 42.2599 35.8102 38.8583 34.9261C35.4567 34.0419 34.3628 33.1279 34.3628 31.7043C34.3628 30.0709 35.8763 28.932 38.4087 28.932C41.0761 28.932 42.0651 30.2058 42.155 32.0789H45.4667C45.3618 29.5015 43.7883 27.1338 40.6565 26.3696V23.0879H36.161V26.3247C33.2539 26.954 30.9162 28.8421 30.9162 31.7342C30.9162 35.1958 33.7784 36.9191 37.9592 37.9231C41.7054 38.8222 42.4547 40.1408 42.4547 41.5344C42.4547 42.5684 41.7204 44.2168 38.4087 44.2168Z" fill="url(#paint1_linear_41065_24008)"/>
<path d="M38.4087 44.2168C35.3218 44.2168 34.108 42.8381 33.9432 41.0699H30.6465C30.8263 44.3516 33.2838 46.1948 36.161 46.8092V50.0609H40.6565V46.8391C43.5786 46.2847 45.9012 44.5914 45.9012 41.5195C45.9012 37.2637 42.2599 35.8102 38.8583 34.9261C35.4567 34.0419 34.3628 33.1279 34.3628 31.7043C34.3628 30.0709 35.8763 28.932 38.4087 28.932C41.0761 28.932 42.0651 30.2058 42.155 32.0789H45.4667C45.3618 29.5015 43.7883 27.1338 40.6565 26.3696V23.0879H36.161V26.3247C33.2539 26.954 30.9162 28.8421 30.9162 31.7342C30.9162 35.1958 33.7784 36.9191 37.9592 37.9231C41.7054 38.8222 42.4547 40.1408 42.4547 41.5344C42.4547 42.5684 41.7204 44.2168 38.4087 44.2168Z" stroke="#FFE8B6" stroke-width="0.833333"/>
</g>
</g>
<defs>
<filter id="filter0_d_41065_24008" x="30.2061" y="22.6719" width="17.6108" height="29.3051" filterUnits="userSpaceOnUse" color-interpolation-filters="sRGB">
<feFlood flood-opacity="0" result="BackgroundImageFix"/>
<feColorMatrix in="SourceAlpha" type="matrix" values="0 0 0 0 0 0 0 0 0 0 0 0 0 0 0 0 0 0 127 0" result="hardAlpha"/>
<feOffset dx="1.4985" dy="1.4985"/>
<feComposite in2="hardAlpha" operator="out"/>
<feColorMatrix type="matrix" values="0 0 0 0 0.956863 0 0 0 0 0.564706 0 0 0 0 0.0470588 0 0 0 1 0"/>
<feBlend mode="normal" in2="BackgroundImageFix" result="effect1_dropShadow_41065_24008"/>
<feBlend mode="normal" in="SourceGraphic" in2="effect1_dropShadow_41065_24008" result="shape"/>
</filter>
<linearGradient id="paint0_linear_41065_24008" x1="146.5" y1="69.5" x2="146.5" y2="178.5" gradientUnits="userSpaceOnUse">
<stop stop-color="#BE5C00"/>
<stop offset="1" stop-color="#AF8004"/>
</linearGradient>
<linearGradient id="paint1_linear_41065_24008" x1="46.0597" y1="39.6636" x2="29.7658" y2="35.6904" gradientUnits="userSpaceOnUse">
<stop stop-color="#FFE176"/>
<stop offset="0.328125" stop-color="#FFEB39"/>
<stop offset="1" stop-color="#FFD983"/>
</linearGradient>
<clipPath id="clip0_41065_24008">
<rect width="60" height="60" fill="white" transform="translate(9.18945 9.00195)"/>
</clipPath>
</defs>
</svg>