<svg width="20" height="20" viewBox="0 0 20 20" fill="none" xmlns="http://www.w3.org/2000/svg">
<path fill-rule="evenodd" clip-rule="evenodd" d="M7.63146 1.83573C5.98838 2.31367 4.52764 3.27604 3.44005 4.59713C2.35246 5.91822 1.68859 7.53661 1.53516 9.2409H5.42047C5.64571 6.64752 6.39763 4.12734 7.63024 1.83452L7.63146 1.83573ZM5.42047 10.7586H1.53516C1.68827 12.4629 2.35185 14.0815 3.43923 15.4028C4.5266 16.7241 5.98721 17.6868 7.63024 18.165C6.39763 15.8722 5.64571 13.352 5.42047 10.7586ZM9.57776 18.4892C8.10473 16.1549 7.20213 13.5066 6.94303 10.7586H13.0563C12.7972 13.5066 11.8946 16.1549 10.4216 18.4892C10.1405 18.5028 9.85887 18.5028 9.57776 18.4892ZM12.3703 18.1638C14.0132 17.6856 15.4737 16.7232 16.561 15.4021C17.6484 14.081 18.3121 12.4627 18.4654 10.7586H14.5801C14.3549 13.352 13.6029 15.8722 12.3703 18.165V18.1638ZM14.5801 9.2409H18.4654C18.3123 7.53655 17.6487 5.918 16.5613 4.59669C15.474 3.27538 14.0134 2.31273 12.3703 1.83452C13.603 4.12733 14.3549 6.64751 14.5801 9.2409ZM9.57776 1.51034C9.85927 1.49655 10.1413 1.49655 10.4228 1.51034C11.8954 3.84469 12.7976 6.49302 13.0563 9.2409H6.94424C7.20772 6.47626 8.11227 3.82574 9.57776 1.51034Z" fill="black"/>
</svg>
