<svg width="132" height="71" viewBox="0 0 132 71" fill="none" xmlns="http://www.w3.org/2000/svg">
<circle cx="66" cy="24" r="24" fill="url(#paint0_linear_31720_10501)"/>
<g filter="url(#filter0_d_31720_10501)">
<path d="M77.1253 22.856L76.2466 21.9633C75.612 21.3179 74.5763 21.3101 73.9309 21.9447L73.0382 22.8234C72.3928 23.4579 72.385 24.4936 73.0195 25.1391L77.0739 29.2603C77.7085 29.9058 78.7442 29.9135 79.3896 29.279L83.5109 25.2246C84.1563 24.5901 84.1641 23.5543 83.5296 22.9089L82.6509 22.0162C82.0164 21.3708 80.9806 21.363 80.3352 21.9975L79.4425 22.8762C78.7971 23.5108 77.7613 23.5014 77.1268 22.8576L77.1253 22.856Z" fill="#FFF1CD"/>
<path d="M74.6775 31.0582L74.6884 29.8047C74.6961 28.9011 73.9683 28.1608 73.0647 28.1531L71.8112 28.1422C70.9077 28.1344 70.1674 28.8622 70.1596 29.7658L70.1114 35.5465C70.1036 36.4501 70.8314 37.1903 71.735 37.1981L77.5157 37.2463C78.4193 37.2541 79.1596 36.5263 79.1673 35.6227L79.1782 34.3692C79.186 33.4656 78.4582 32.7254 77.5546 32.7176L76.3011 32.7067C75.3975 32.6989 74.6697 31.9602 74.6775 31.0551V31.0582Z" fill="#FFF1CD"/>
<path d="M67.1437 35.1251L68.0364 34.2464C68.6818 33.6119 68.6896 32.5761 68.055 31.9307L67.1763 31.038C66.5418 30.3926 65.5061 30.3848 64.8606 31.0194L60.7394 35.0738C60.0939 35.7083 60.0862 36.7441 60.7207 37.3895L64.7751 41.5108C65.4096 42.1562 66.4454 42.164 67.0908 41.5294L67.9835 40.6507C68.6289 40.0162 68.6367 38.9805 68.0022 38.335L67.1235 37.4424C66.4889 36.7969 66.4983 35.7612 67.1421 35.1267L67.1437 35.1251Z" fill="#FFF1CD"/>
<path d="M58.9421 32.6769L60.1956 32.6878C61.0992 32.6956 61.8395 31.9678 61.8472 31.0642L61.8581 29.8107C61.8659 28.9071 61.1381 28.1669 60.2345 28.1591L54.4538 28.1109C53.5502 28.1031 52.81 28.8309 52.8022 29.7345L52.754 35.5152C52.7462 36.4188 53.474 37.159 54.3776 37.1668L55.6311 37.1777C56.5347 37.1855 57.2749 36.4576 57.2827 35.5541L57.2936 34.3006C57.3014 33.397 58.0401 32.6692 58.9452 32.6769H58.9421Z" fill="#FFF1CD"/>
<path d="M54.875 25.1437L55.7537 26.0364C56.3882 26.6818 57.424 26.6896 58.0694 26.0551L58.9621 25.1764C59.6075 24.5419 59.6153 23.5061 58.9808 22.8607L54.9263 18.7394C54.2918 18.094 53.2561 18.0862 52.6106 18.7207L48.4894 22.7752C47.8439 23.4097 47.8362 24.4454 48.4707 25.0908L49.3494 25.9835C49.9839 26.6289 51.0197 26.6367 51.6651 26.0022L52.5578 25.1235C53.2032 24.489 54.2389 24.4983 54.8735 25.1422L54.875 25.1437Z" fill="#FFF1CD"/>
<path d="M57.325 16.9417L57.3142 18.1952C57.3064 19.0988 58.0342 19.8391 58.9378 19.8469L60.1913 19.8578C61.0948 19.8655 61.8351 19.1377 61.8429 18.2341L61.8911 12.4534C61.8989 11.5499 61.1711 10.8096 60.2675 10.8018L54.4868 10.7536C53.5832 10.7458 52.8429 11.4737 52.8352 12.3772L52.8243 13.6307C52.8165 14.5343 53.5443 15.2746 54.4479 15.2823L55.7014 15.2932C56.605 15.301 57.3328 16.0397 57.325 16.9449V16.9417Z" fill="#FFF1CD"/>
<path d="M64.8567 12.8748L63.964 13.7535C63.3186 14.388 63.3108 15.4238 63.9453 16.0692L64.824 16.9619C65.4585 17.6073 66.4943 17.615 67.1397 16.9805L71.261 12.9261C71.9064 12.2916 71.9142 11.2558 71.2796 10.6104L67.2252 6.48911C66.5907 5.8437 65.5549 5.83593 64.9095 6.47045L64.0168 7.34914C63.3714 7.98366 63.3637 9.01943 63.9982 9.66484L64.8769 10.5575C65.5114 11.2029 65.5021 12.2387 64.8582 12.8732L64.8567 12.8748Z" fill="#FFF1CD"/>
<path d="M73.0586 15.3241L71.8052 15.3132C70.9016 15.3055 70.1613 16.0333 70.1535 16.9369L70.1426 18.1904C70.1349 19.0939 70.8627 19.8342 71.7663 19.842L77.547 19.8902C78.4505 19.898 79.1908 19.1701 79.1986 18.2666L79.2468 12.4859C79.2546 11.5823 78.5267 10.842 77.6232 10.8342L76.3697 10.8234C75.4661 10.8156 74.7258 11.5434 74.718 12.447L74.7072 13.7005C74.6994 14.6041 73.9607 15.3319 73.0555 15.3241H73.0586Z" fill="#FFF1CD"/>
</g>
<path d="M2.21973 69.0841L6.04471 59.0359H14.1681C14.5664 59.0359 14.8943 59.1289 15.152 59.315C15.4196 59.5011 15.5928 59.7523 15.6715 60.0686C15.7637 60.3756 15.7372 60.7199 15.592 61.1013L14.8748 62.9854C14.8287 63.1063 14.7745 63.2226 14.7121 63.3343C14.6632 63.4366 14.6011 63.5343 14.5259 63.6273C14.6079 63.8041 14.6544 64.0088 14.6654 64.2414C14.6764 64.474 14.6377 64.7066 14.5491 64.9392L13.7576 67.0186C13.6159 67.3908 13.3803 67.735 13.0509 68.0514C12.7313 68.3677 12.3669 68.6189 11.9576 68.805C11.5583 68.991 11.1545 69.0841 10.7463 69.0841H2.21973ZM5.36305 66.907H11.4556L12.1569 65.0648H6.0643L5.36305 66.907ZM6.89305 62.8877H12.5675L13.205 61.213H7.53055L6.89305 62.8877Z" fill="url(#paint1_linear_31720_10501)"/>
<path d="M14.6891 69.0841L17.7703 60.9897H20.055L16.9738 69.0841H14.6891ZM17.9616 60.4873L18.7797 58.3381H21.0644L20.2463 60.4873H17.9616Z" fill="url(#paint2_linear_31720_10501)"/>
<path d="M20.7375 69.0841C20.3393 69.0841 20.0114 68.991 19.7537 68.805C19.496 68.6189 19.3261 68.3723 19.2438 68.0653C19.1616 67.7583 19.1895 67.4233 19.3277 67.0605L22.5523 58.5893H24.8371L23.9233 60.9897H27.1339L26.3211 63.1249H23.1105L21.6549 66.9488H24.8654L24.0526 69.0841H20.7375Z" fill="url(#paint3_linear_31720_10501)"/>
<path d="M27.5793 69.0841C27.1911 69.0841 26.8681 68.991 26.6104 68.805C26.3527 68.6189 26.1828 68.3723 26.1005 68.0653C26.0183 67.7583 26.0463 67.4233 26.1844 67.0605L27.725 63.0133C27.8631 62.6504 28.0902 62.3155 28.4062 62.0085C28.7221 61.7014 29.0798 61.4549 29.4792 61.2688C29.8785 61.0827 30.2723 60.9897 30.6606 60.9897H37.2609L36.448 63.1249H29.9672L28.5116 66.9488H35.0074L34.1945 69.0841H27.5793Z" fill="url(#paint4_linear_31720_10501)"/>
<path d="M37.9658 69.0841C37.5775 69.0841 37.2546 68.991 36.9969 68.805C36.7392 68.6189 36.5692 68.3723 36.487 68.0653C36.4048 67.7583 36.4327 67.4233 36.5708 67.0605L38.1115 63.0133C38.2496 62.6504 38.4766 62.3155 38.7926 62.0085C39.1086 61.7014 39.4663 61.4549 39.8656 61.2688C40.265 61.0827 40.6588 60.9897 41.047 60.9897H45.497C45.8952 60.9897 46.2231 61.0827 46.4808 61.2688C46.7385 61.4549 46.9035 61.7014 46.9758 62.0085C47.058 62.3155 47.0301 62.6504 46.8919 63.0133L45.3513 67.0605C45.2132 67.4233 44.9861 67.7583 44.6702 68.0653C44.3641 68.3723 44.0114 68.6189 43.6121 68.805C43.2127 68.991 42.814 69.0841 42.4157 69.0841H37.9658ZM38.898 66.9488H43.1091L44.5647 63.1249H40.3537L38.898 66.9488Z" fill="url(#paint5_linear_31720_10501)"/>
<path d="M46.304 69.0841L49.3852 60.9897H51.6699L48.5887 69.0841H46.304ZM49.5765 60.4873L50.3946 58.3381H52.6793L51.8612 60.4873H49.5765Z" fill="url(#paint6_linear_31720_10501)"/>
<path d="M50.4934 69.0841L53.5747 60.9897H60.1899C60.5881 60.9897 60.9161 61.0827 61.1738 61.2688C61.4314 61.4549 61.5964 61.7014 61.6687 62.0085C61.7509 62.3155 61.723 62.6504 61.5849 63.0133L59.2739 69.0841H56.9892L59.2576 63.1249H55.0466L52.7782 69.0841H50.4934Z" fill="url(#paint7_linear_31720_10501)"/>
<path d="M65.8738 69.0841L68.9125 61.1013C69.0577 60.7199 69.2883 60.3756 69.6043 60.0686C69.9238 59.7523 70.2882 59.5011 70.6976 59.315C71.1069 59.1289 71.5106 59.0359 71.9088 59.0359H78.2254C78.6336 59.0359 78.9665 59.1289 79.2242 59.315C79.4918 59.5011 79.665 59.7523 79.7437 60.0686C79.8359 60.3756 79.8093 60.7199 79.6641 61.1013L76.6254 69.0841H74.281L75.5134 65.8463H69.4209L68.1884 69.0841H65.8738ZM70.2496 63.6692H76.3422L77.2772 61.213H71.1846L70.2496 63.6692Z" fill="url(#paint8_linear_31720_10501)"/>
<path d="M78.4164 69.0841L80.7273 63.0133C80.8654 62.6504 81.0925 62.3155 81.4085 62.0085C81.7245 61.7014 82.0821 61.4549 82.4815 61.2688C82.8808 61.0827 83.2796 60.9897 83.6778 60.9897H88.4563L87.6435 63.1249H82.9695L80.7011 69.0841H78.4164Z" fill="url(#paint9_linear_31720_10501)"/>
<path d="M88.5762 69.0841C88.1879 69.0841 87.865 68.991 87.6073 68.805C87.3496 68.6189 87.1796 68.3723 87.0974 68.0653C87.0152 67.7583 87.0431 67.4233 87.1812 67.0605L88.7218 63.0133C88.86 62.6504 89.087 62.3155 89.403 62.0085C89.719 61.7014 90.0766 61.4549 90.476 61.2688C90.8754 61.0827 91.2692 60.9897 91.6574 60.9897H98.2577L97.4449 63.1249H90.9641L89.5084 66.9488H96.0042L95.1914 69.0841H88.5762Z" fill="url(#paint10_linear_31720_10501)"/>
<path d="M98.9776 69.0841C98.5793 69.0841 98.2514 68.991 97.9937 68.805C97.736 68.6189 97.5661 68.3723 97.4838 68.0653C97.4116 67.7583 97.4445 67.4233 97.5826 67.0605L98.762 63.9623H105.258L105.576 63.1249H99.0807L99.8935 60.9897H106.509C106.907 60.9897 107.235 61.0827 107.493 61.2688C107.75 61.4549 107.915 61.7014 107.988 62.0085C108.07 62.3155 108.042 62.6504 107.904 63.0133L105.593 69.0841H98.9776ZM99.9098 66.9488H104.121L104.546 65.8324H100.335L99.9098 66.9488Z" fill="url(#paint11_linear_31720_10501)"/>
<path d="M109.062 69.0841C108.664 69.0841 108.336 68.991 108.078 68.805C107.821 68.6189 107.651 68.3723 107.568 68.0653C107.496 67.7583 107.529 67.4233 107.667 67.0605L109.208 63.0133C109.346 62.6504 109.568 62.3155 109.874 62.0085C110.19 61.7014 110.548 61.4549 110.947 61.2688C111.346 61.0827 111.745 60.9897 112.143 60.9897H116.489L117.498 58.3381H119.783L115.692 69.0841H109.062ZM110.009 66.9488H114.22L115.676 63.1249H111.465L110.009 66.9488Z" fill="url(#paint12_linear_31720_10501)"/>
<path d="M119.254 69.0841C118.866 69.0841 118.543 68.991 118.285 68.805C118.028 68.6189 117.858 68.3723 117.776 68.0653C117.693 67.7583 117.721 67.4233 117.859 67.0605L119.4 63.0133C119.538 62.6504 119.765 62.3155 120.081 62.0085C120.397 61.7014 120.755 61.4549 121.154 61.2688C121.553 61.0827 121.947 60.9897 122.336 60.9897H126.785C127.184 60.9897 127.512 61.0827 127.769 61.2688C128.027 61.4549 128.192 61.7014 128.264 62.0085C128.347 62.3155 128.319 62.6504 128.18 63.0133L127.001 66.1115H120.505L120.187 66.9488H126.682L125.87 69.0841H119.254ZM121.217 64.2414H125.428L125.853 63.1249H121.642L121.217 64.2414Z" fill="url(#paint13_linear_31720_10501)"/>
<defs>
<filter id="filter0_d_31720_10501" x="46.8461" y="5.42283" width="38.3077" height="38.3081" filterUnits="userSpaceOnUse" color-interpolation-filters="sRGB">
<feFlood flood-opacity="0" result="BackgroundImageFix"/>
<feColorMatrix in="SourceAlpha" type="matrix" values="0 0 0 0 0 0 0 0 0 0 0 0 0 0 0 0 0 0 127 0" result="hardAlpha"/>
<feOffset dy="0.576929"/>
<feGaussianBlur stdDeviation="0.576929"/>
<feComposite in2="hardAlpha" operator="out"/>
<feColorMatrix type="matrix" values="0 0 0 0 0 0 0 0 0 0 0 0 0 0 0 0 0 0 0.15 0"/>
<feBlend mode="normal" in2="BackgroundImageFix" result="effect1_dropShadow_31720_10501"/>
<feBlend mode="normal" in="SourceGraphic" in2="effect1_dropShadow_31720_10501" result="shape"/>
</filter>
<linearGradient id="paint0_linear_31720_10501" x1="49.9177" y1="41.2427" x2="82.9829" y2="7.32779" gradientUnits="userSpaceOnUse">
<stop stop-color="#D55711"/>
<stop offset="0.255" stop-color="#E77C13"/>
<stop offset="0.725" stop-color="#FAC02C"/>
<stop offset="1" stop-color="#FFE879"/>
</linearGradient>
<linearGradient id="paint1_linear_31720_10501" x1="100.531" y1="56.7525" x2="100.531" y2="70.9532" gradientUnits="userSpaceOnUse">
<stop offset="0.266086" stop-color="white"/>
<stop offset="1" stop-color="#B0B0B0"/>
</linearGradient>
<linearGradient id="paint2_linear_31720_10501" x1="100.531" y1="56.7525" x2="100.531" y2="70.9532" gradientUnits="userSpaceOnUse">
<stop offset="0.266086" stop-color="white"/>
<stop offset="1" stop-color="#B0B0B0"/>
</linearGradient>
<linearGradient id="paint3_linear_31720_10501" x1="100.531" y1="56.7525" x2="100.531" y2="70.9532" gradientUnits="userSpaceOnUse">
<stop offset="0.266086" stop-color="white"/>
<stop offset="1" stop-color="#B0B0B0"/>
</linearGradient>
<linearGradient id="paint4_linear_31720_10501" x1="100.531" y1="56.7525" x2="100.531" y2="70.9532" gradientUnits="userSpaceOnUse">
<stop offset="0.266086" stop-color="white"/>
<stop offset="1" stop-color="#B0B0B0"/>
</linearGradient>
<linearGradient id="paint5_linear_31720_10501" x1="100.531" y1="56.7525" x2="100.531" y2="70.9532" gradientUnits="userSpaceOnUse">
<stop offset="0.266086" stop-color="white"/>
<stop offset="1" stop-color="#B0B0B0"/>
</linearGradient>
<linearGradient id="paint6_linear_31720_10501" x1="100.531" y1="56.7525" x2="100.531" y2="70.9532" gradientUnits="userSpaceOnUse">
<stop offset="0.266086" stop-color="white"/>
<stop offset="1" stop-color="#B0B0B0"/>
</linearGradient>
<linearGradient id="paint7_linear_31720_10501" x1="100.531" y1="56.7525" x2="100.531" y2="70.9532" gradientUnits="userSpaceOnUse">
<stop offset="0.266086" stop-color="white"/>
<stop offset="1" stop-color="#B0B0B0"/>
</linearGradient>
<linearGradient id="paint8_linear_31720_10501" x1="100.531" y1="56.7525" x2="100.531" y2="70.9532" gradientUnits="userSpaceOnUse">
<stop offset="0.266086" stop-color="white"/>
<stop offset="1" stop-color="#B0B0B0"/>
</linearGradient>
<linearGradient id="paint9_linear_31720_10501" x1="100.531" y1="56.7525" x2="100.531" y2="70.9532" gradientUnits="userSpaceOnUse">
<stop offset="0.266086" stop-color="white"/>
<stop offset="1" stop-color="#B0B0B0"/>
</linearGradient>
<linearGradient id="paint10_linear_31720_10501" x1="100.531" y1="56.7525" x2="100.531" y2="70.9532" gradientUnits="userSpaceOnUse">
<stop offset="0.266086" stop-color="white"/>
<stop offset="1" stop-color="#B0B0B0"/>
</linearGradient>
<linearGradient id="paint11_linear_31720_10501" x1="100.531" y1="56.7525" x2="100.531" y2="70.9532" gradientUnits="userSpaceOnUse">
<stop offset="0.266086" stop-color="white"/>
<stop offset="1" stop-color="#B0B0B0"/>
</linearGradient>
<linearGradient id="paint12_linear_31720_10501" x1="100.531" y1="56.7525" x2="100.531" y2="70.9532" gradientUnits="userSpaceOnUse">
<stop offset="0.266086" stop-color="white"/>
<stop offset="1" stop-color="#B0B0B0"/>
</linearGradient>
<linearGradient id="paint13_linear_31720_10501" x1="100.531" y1="56.7525" x2="100.531" y2="70.9532" gradientUnits="userSpaceOnUse">
<stop offset="0.266086" stop-color="white"/>
<stop offset="1" stop-color="#B0B0B0"/>
</linearGradient>
</defs>
</svg>
