<svg xmlns="http://www.w3.org/2000/svg" width="21" height="20" viewBox="0 0 21 20" fill="none">
<path d="M8.35184 6.67304C8.23951 6.67692 8.12758 6.65831 8.02261 6.61801C7.91765 6.57785 7.82192 6.51679 7.74105 6.43874C7.66032 6.36068 7.59592 6.26723 7.55201 6.16374C7.50809 6.06038 7.48546 5.94912 7.48546 5.83679C7.48546 5.72432 7.50809 5.6132 7.55201 5.5097C7.59592 5.40621 7.66032 5.31276 7.74105 5.2347C7.82192 5.15664 7.91765 5.09573 8.02261 5.05543C8.12758 5.01526 8.23951 4.99652 8.35184 5.00053H14.6632C14.885 5.00067 15.0977 5.08876 15.2545 5.24554C15.4113 5.40233 15.4994 5.61494 15.4995 5.83679V12.1482C15.5035 12.2605 15.4848 12.3724 15.4446 12.4774C15.4043 12.5822 15.3434 12.678 15.2653 12.7588C15.1873 12.8397 15.0937 12.904 14.9903 12.9479C14.8868 12.9919 14.7757 13.0146 14.6632 13.0146C14.5509 13.0146 14.4396 12.9919 14.3363 12.9479C14.2328 12.904 14.1392 12.8397 14.0611 12.7588C13.9832 12.678 13.9222 12.5822 13.882 12.4774C13.8417 12.3724 13.823 12.2605 13.827 12.1482V7.85646L6.18222 15.5011C6.0253 15.6581 5.81242 15.7462 5.59057 15.7462C5.36859 15.7462 5.15571 15.6581 4.9988 15.5011C4.84188 15.3442 4.75378 15.1314 4.75378 14.9095C4.75378 14.6875 4.84188 14.4747 4.9988 14.3178L12.6436 6.67304H8.35184Z" fill="#FA4E0E"/>
</svg>