<svg width="24" height="25" viewBox="0 0 24 25" fill="none" xmlns="http://www.w3.org/2000/svg">
<path d="M21.0001 12.5C21.0001 13.052 20.5531 13.5 20.0001 13.5H6.41413L8.7071 15.793C9.0981 16.184 9.0981 16.8161 8.7071 17.2071C8.5121 17.4021 8.25607 17.5 8.00007 17.5C7.74407 17.5 7.48804 17.4021 7.29304 17.2071L3.29401 13.208C3.20101 13.115 3.12797 13.0051 3.07697 12.8821C2.97597 12.6381 2.97597 12.362 3.07697 12.118C3.12797 11.995 3.20101 11.885 3.29401 11.792L7.29304 7.79301C7.68403 7.40201 8.3161 7.40201 8.7071 7.79301C9.0981 8.18401 9.0981 8.81607 8.7071 9.20707L6.41413 11.5H20.0001C20.5531 11.5 21.0001 11.948 21.0001 12.5Z" fill="#FA4E0E"/>
</svg>
