<svg width="24" height="24" viewBox="0 0 24 24" fill="none" xmlns="http://www.w3.org/2000/svg">
<path d="M3.73913 3H2.86957C2.38932 3 2 3.38932 2 3.86957V19.5217C2 20.002 2.38932 20.3913 2.86957 20.3913H3.73913C4.21938 20.3913 4.6087 20.002 4.6087 19.5217V3.86957C4.6087 3.38932 4.21938 3 3.73913 3Z" fill="#212121"/>
<path d="M8.08697 7.3479H7.2174C6.73716 7.3479 6.34784 7.73722 6.34784 8.21747V19.5218C6.34784 20.0021 6.73716 20.3914 7.2174 20.3914H8.08697C8.56722 20.3914 8.95654 20.0021 8.95654 19.5218V8.21747C8.95654 7.73722 8.56722 7.3479 8.08697 7.3479Z" fill="#212121"/>
<path d="M16.7826 7.3479H15.913C15.4328 7.3479 15.0435 7.73722 15.0435 8.21747V19.5218C15.0435 20.0021 15.4328 20.3914 15.913 20.3914H16.7826C17.2628 20.3914 17.6522 20.0021 17.6522 19.5218V8.21747C17.6522 7.73722 17.2628 7.3479 16.7826 7.3479Z" fill="#212121"/>
<path d="M12.4348 11.6956H11.5652C11.085 11.6956 10.6957 12.0849 10.6957 12.5651V19.5216C10.6957 20.0019 11.085 20.3912 11.5652 20.3912H12.4348C12.9151 20.3912 13.3044 20.0019 13.3044 19.5216V12.5651C13.3044 12.0849 12.9151 11.6956 12.4348 11.6956Z" fill="#212121"/>
<path d="M21.1304 11.6956H20.2609C19.7806 11.6956 19.3913 12.0849 19.3913 12.5651V19.5216C19.3913 20.0019 19.7806 20.3912 20.2609 20.3912H21.1304C21.6107 20.3912 22 20.0019 22 19.5216V12.5651C22 12.0849 21.6107 11.6956 21.1304 11.6956Z" fill="#212121"/>
</svg>
