<svg width="20" height="20" viewBox="0 0 20 20" fill="none" xmlns="http://www.w3.org/2000/svg">
<path d="M9.99997 4.16676C10.2133 4.16676 10.4267 4.2484 10.5892 4.4109L13.9225 7.74423C14.2483 8.07007 14.2483 8.59678 13.9225 8.92262C13.5967 9.24845 13.0699 9.24845 12.7441 8.92262L9.99997 6.17848L7.25583 8.92262C6.93 9.24845 6.40328 9.24845 6.07744 8.92262C5.75161 8.59678 5.75161 8.07007 6.07744 7.74423L9.41078 4.4109C9.57328 4.2484 9.78664 4.16676 9.99997 4.16676Z" fill="#E1E2E2"/>
<path d="M6.66664 10.8333C6.87997 10.8333 7.09333 10.9149 7.25583 11.0774L9.99997 13.8215L12.7441 11.0774C13.0699 10.7516 13.5967 10.7516 13.9225 11.0774C14.2483 11.4032 14.2483 11.93 13.9225 12.2558L10.5892 15.5891C10.2633 15.915 9.73661 15.915 9.41078 15.5891L6.07744 12.2558C5.75161 11.93 5.75161 11.4032 6.07744 11.0774C6.23994 10.9149 6.4533 10.8333 6.66664 10.8333Z" fill="#B2B165"/>
</svg>
