<svg width="20" height="20" viewBox="0 0 20 20" fill="none" xmlns="http://www.w3.org/2000/svg">
<path d="M13.9226 11.0775C14.2484 11.4034 14.2484 11.9301 13.9226 12.2559L10.5892 15.5893C10.4267 15.7518 10.2134 15.8334 10 15.8334C9.7867 15.8334 9.57334 15.7518 9.41084 15.5893L6.0775 12.2559C5.75167 11.9301 5.75167 11.4034 6.0775 11.0775C6.40334 10.7517 6.93006 10.7517 7.25589 11.0775L10 13.8217L12.7442 11.0775C13.07 10.7517 13.5967 10.7517 13.9226 11.0775ZM7.25589 8.9226L10 6.17846L12.7442 8.9226C12.9067 9.0851 13.12 9.16674 13.3334 9.16674C13.5467 9.16674 13.7601 9.0851 13.9226 8.9226C14.2484 8.59676 14.2484 8.07005 13.9226 7.74421L10.5892 4.41088C10.2634 4.08505 9.73667 4.08505 9.41084 4.41088L6.0775 7.74421C5.75167 8.07005 5.75167 8.59676 6.0775 8.9226C6.40334 9.24843 6.93006 9.24843 7.25589 8.9226Z" fill="#B2B165"/>
</svg>
