<svg width="20" height="20" viewBox="0 0 20 20" fill="none" xmlns="http://www.w3.org/2000/svg">
<path d="M10 15.8332C9.7867 15.8332 9.57334 15.7516 9.41084 15.5891L6.0775 12.2558C5.75167 11.9299 5.75167 11.4032 6.0775 11.0774C6.40334 10.7515 6.93006 10.7515 7.25589 11.0774L10 13.8215L12.7442 11.0774C13.07 10.7515 13.5967 10.7515 13.9226 11.0774C14.2484 11.4032 14.2484 11.9299 13.9226 12.2558L10.5892 15.5891C10.4267 15.7516 10.2134 15.8332 10 15.8332Z" fill="#E1E2E2"/>
<path d="M13.3334 9.16674C13.12 9.16674 12.9067 9.0851 12.7442 8.9226L10 6.17846L7.25589 8.9226C6.93006 9.24843 6.40334 9.24843 6.0775 8.9226C5.75167 8.59676 5.75167 8.07005 6.0775 7.74421L9.41084 4.41088C9.73667 4.08505 10.2634 4.08505 10.5892 4.41088L13.9226 7.74421C14.2484 8.07005 14.2484 8.59676 13.9226 8.9226C13.7601 9.0851 13.5467 9.16674 13.3334 9.16674Z" fill="#B2B165"/>
</svg>
