<svg xmlns="http://www.w3.org/2000/svg" width="40" height="40" viewBox="0 0 40 40" fill="none">
<g clip-path="url(#clip0_7973_64633)">
<path d="M20 40C31.0457 40 40 31.0457 40 20C40 8.9543 31.0457 0 20 0C8.9543 0 0 8.9543 0 20C0 31.0457 8.9543 40 20 40Z" fill="white"/>
<path d="M20 17.5C23.625 17.5 27.5 16.375 27.5 13.75C27.5 11.125 23.625 10 20 10C16.375 10 12.5 11.125 12.5 13.75C12.5 16.375 16.375 17.5 20 17.5Z" fill="#B6B6B6"/>
<path d="M12.5 18.125V20C12.5 22.625 16.375 23.75 20 23.75C23.625 23.75 27.5 22.625 27.5 20V18.125C25.75 19.25 23.125 20 20 20C16.875 20 14.25 19.25 12.5 18.125Z" fill="#B6B6B6"/>
<path d="M12.5 24.375V26.25C12.5 28.875 16.375 30 20 30C23.625 30 27.5 28.875 27.5 26.25V24.375C25.75 25.625 23.125 26.25 20 26.25C16.875 26.25 14.25 25.5 12.5 24.375Z" fill="#B6B6B6"/>
</g>
<defs>
<clipPath id="clip0_7973_64633">
<rect width="40" height="40" fill="white"/>
</clipPath>
</defs>
</svg>