<svg width="24" height="24" viewBox="0 0 24 24" fill="none" xmlns="http://www.w3.org/2000/svg">
<path d="M11.1667 20.3334V12.6667H7C7.25 16.1667 9.08333 18.9167 11.1667 20.3334Z" fill="black"/>
<path d="M17 12.6667H12.8333V20.3334C14.9166 18.9167 16.75 16.1667 17 12.6667Z" fill="black"/>
<path d="M11.1667 11.0002V3.3335C8.83333 5.00016 7.25 7.91683 7 11.0002H11.1667Z" fill="black"/>
<path d="M18.6666 11H22C21.6666 6.5 18.25 2.83333 13.9166 2C16.5833 4 18.4166 7.41667 18.6666 11Z" fill="black"/>
<path d="M12.8333 3.3335V11.0002H17C16.75 7.91683 15.1666 4.91683 12.8333 3.3335Z" fill="black"/>
<path d="M18.6666 12.6667C18.4166 16.3334 16.6666 19.6667 13.9166 21.6667C18.25 20.8334 21.5833 17.1667 22 12.6667H18.6666Z" fill="black"/>
<path d="M5.33333 12.6667H2C2.33333 17.1667 5.66667 20.8334 10.0833 21.6667C7.41667 19.6667 5.58333 16.3334 5.33333 12.6667Z" fill="black"/>
<path d="M5.33331 11C5.58331 7.41667 7.41665 4 10.0833 2C5.74998 2.83333 2.41665 6.5 2.08331 11H5.33331Z" fill="black"/>
</svg>
