<svg width="48" height="48" viewBox="0 0 48 48" fill="none" xmlns="http://www.w3.org/2000/svg">
<g clip-path="url(#clip0_28657_24042)">
<path d="M4.33936 14.5919V33.4079C4.33936 34.6175 4.97296 35.7119 6.02896 36.3263L22.3298 45.7343C23.3666 46.3295 24.653 46.3295 25.6898 45.7343L41.9906 36.3263C43.0274 35.7311 43.6802 34.6175 43.6802 33.4079V14.5919C43.6802 13.3823 43.0466 12.2879 41.9906 11.6735L25.6898 2.26549C24.653 1.67029 23.3666 1.67029 22.3298 2.26549L6.02896 11.6735C4.99216 12.2687 4.35856 13.3823 4.35856 14.5919H4.33936Z" fill="#213147"/>
<path d="M27.5519 27.6481L25.2287 34.0225C25.1711 34.1953 25.1711 34.3873 25.2287 34.5793L29.2223 45.5425L33.8495 42.8737L28.3007 27.6481C28.1663 27.3025 27.6863 27.3025 27.5519 27.6481Z" fill="#12AAFF"/>
<path d="M32.2177 16.9345C32.0833 16.5889 31.6033 16.5889 31.4689 16.9345L29.1457 23.3089C29.0881 23.4817 29.0881 23.6737 29.1457 23.8657L35.6929 41.8177L40.3201 39.1489L32.2177 16.9537V16.9345Z" fill="#12AAFF"/>
<path d="M24.0002 2.976C24.1154 2.976 24.2306 3.0144 24.3266 3.072L41.9522 13.248C42.1634 13.3632 42.2786 13.5936 42.2786 13.824V34.176C42.2786 34.4064 42.1442 34.6368 41.9522 34.752L24.3266 44.928C24.2306 44.9856 24.1154 45.024 24.0002 45.024C23.885 45.024 23.7698 44.9856 23.6738 44.928L6.04816 34.752C5.83696 34.6368 5.72176 34.4064 5.72176 34.176V13.8048C5.72176 13.5744 5.85616 13.344 6.04816 13.2288L23.6738 3.0528C23.7698 2.9952 23.885 2.9568 24.0002 2.9568V2.976ZM24.0002 0C23.3666 0 22.7522 0.1536 22.1762 0.48L4.55056 10.656C3.41776 11.3088 2.72656 12.4992 2.72656 13.8048V34.1568C2.72656 35.4624 3.41776 36.6528 4.55056 37.3056L22.1762 47.4816C22.733 47.808 23.3666 47.9616 24.0002 47.9616C24.6338 47.9616 25.2482 47.808 25.8242 47.4816L43.4498 37.3056C44.5826 36.6528 45.2738 35.4624 45.2738 34.1568V13.8048C45.2738 12.4992 44.5826 11.3088 43.4498 10.656L25.805 0.48C25.2482 0.1536 24.6146 0 23.981 0H24.0002Z" fill="#9DCCED"/>
<path d="M12.3262 41.8367L13.9582 37.3823L17.2222 40.0895L14.1694 42.8927L12.3262 41.8367Z" fill="#213147"/>
<path d="M22.5024 12.3649H18.0288C17.7024 12.3649 17.3952 12.5761 17.28 12.8833L7.69922 39.1489L12.3264 41.8177L22.8864 12.8833C22.9824 12.6145 22.7904 12.3457 22.5216 12.3457L22.5024 12.3649Z" fill="white"/>
<path d="M30.3358 12.3649H25.8622C25.5358 12.3649 25.2286 12.5761 25.1134 12.8833L14.1694 42.8737L18.7966 45.5425L30.7006 12.8833C30.7966 12.6145 30.6046 12.3457 30.3358 12.3457V12.3649Z" fill="white"/>
</g>
<defs>
<clipPath id="clip0_28657_24042">
<rect width="48" height="48" fill="white"/>
</clipPath>
</defs>
</svg>
