<svg width="32" height="32" viewBox="0 0 32 32" fill="none" xmlns="http://www.w3.org/2000/svg">
<rect width="32" height="32" fill="#F6F6F6"/>
<path d="M13.4794 12.5801C13.3803 12.5836 13.2815 12.5671 13.1889 12.5315C13.0963 12.496 13.0118 12.4422 12.9405 12.3733C12.8691 12.3045 12.8123 12.2219 12.7736 12.1306C12.7348 12.0393 12.7149 11.9412 12.7149 11.842C12.7149 11.7428 12.7348 11.6447 12.7736 11.5534C12.8123 11.4621 12.8691 11.3796 12.9405 11.3107C13.0118 11.2418 13.0963 11.188 13.1889 11.1525C13.2815 11.117 13.3803 11.1005 13.4794 11.104L19.0495 11.104C19.2452 11.1041 19.4329 11.1819 19.5713 11.3203C19.7096 11.4587 19.7874 11.6463 19.7876 11.842L19.7876 17.4121C19.7911 17.5112 19.7746 17.61 19.739 17.7026C19.7035 17.7952 19.6497 17.8797 19.5808 17.9511C19.512 18.0224 19.4294 18.0792 19.3381 18.1179C19.2468 18.1567 19.1487 18.1767 19.0495 18.1767C18.9503 18.1767 18.8522 18.1567 18.7609 18.1179C18.6696 18.0792 18.5871 18.0224 18.5182 17.9511C18.4493 17.8797 18.3955 17.7952 18.36 17.7026C18.3245 17.61 18.308 17.5112 18.3115 17.4121L18.3115 13.6245L11.5647 20.3712C11.4262 20.5097 11.2383 20.5875 11.0425 20.5875C10.8466 20.5875 10.6588 20.5097 10.5203 20.3712C10.3818 20.2327 10.304 20.0449 10.304 19.849C10.304 19.6532 10.3818 19.4653 10.5203 19.3268L17.2671 12.5801L13.4794 12.5801Z" fill="black"/>
</svg>
