<svg xmlns="http://www.w3.org/2000/svg" width="204" height="32" viewBox="0 0 204 32" fill="none">
  <g clip-path="url(#clip0_38126_8838)">
    <path d="M11.6051 0C17.7034 0 21.1533 3.58058 21.1533 8.44025C21.1533 11.665 19.2076 14.2728 16.5999 15.16C19.649 15.9122 22.1262 18.6956 22.1262 22.5869C22.1262 27.6673 18.3249 31.3379 12.4473 31.3379H0.336426V0H11.6051ZM10.6773 12.9486C13.4607 12.9486 15.1406 11.4038 15.1406 9.01675C15.1406 6.6297 13.5958 5.1254 10.6323 5.1254H6.34909V12.9486H10.6818H10.6773ZM11.2943 26.2531C14.2534 26.2531 16.0234 24.7082 16.0234 22.1861C16.0234 19.6639 14.4335 17.9885 11.3844 17.9885H6.34909V26.2531H11.2988H11.2943Z" fill="black"/>
    <path d="M23.626 31.3379V0H29.5035V31.3379H23.626Z" fill="black"/>
    <path d="M53.4145 20.4661C53.4145 27.1408 48.5098 32.0005 42.0107 32.0005C35.5116 32.0005 30.6069 27.1408 30.6069 20.4661C30.6069 13.7913 35.5116 8.93164 42.0107 8.93164C48.5098 8.93164 53.4145 13.7508 53.4145 20.4661ZM47.537 20.4661C47.537 16.354 44.8842 14.2777 42.0107 14.2777C39.1373 14.2777 36.4845 16.354 36.4845 20.4661C36.4845 24.5781 39.1373 26.6544 42.0107 26.6544C44.8842 26.6544 47.537 24.5781 47.537 20.4661Z" fill="black"/>
    <path d="M59.7921 20.4655C59.7921 24.3973 62.3548 26.6087 65.3589 26.6087C68.363 26.6087 69.8673 24.618 70.3537 22.9426L75.5241 24.6676C74.5513 28.2932 71.1509 32.0044 65.3589 32.0044C58.9499 32.0044 53.9146 27.1447 53.9146 20.47C53.9146 13.7952 58.8643 8.93555 65.1832 8.93555C71.1058 8.93555 74.4657 12.6017 75.3935 16.2724L70.133 18.0379C69.6015 16.2273 68.2324 14.3717 65.3138 14.3717C62.3953 14.3717 59.7876 16.5381 59.7876 20.47L59.7921 20.4655Z" fill="black"/>
    <path d="M88.6979 18.7406L97.5796 31.3379H90.3779L84.6309 23.0283L82.1988 25.591V31.3379H76.3213V0H82.1988V17.6822L89.7113 9.59324H97.3994L88.6934 18.7406H88.6979Z" fill="black"/>
    <path d="M115.1 9.59375L119.784 23.6053L123.806 9.59375H129.638L122.833 31.3384H116.955L111.875 16.4892L106.88 31.3384H100.912L93.9719 9.59375H100.16L104.182 23.5603L108.911 9.59375H115.1Z" fill="black"/>
    <path d="M151.198 20.4661C151.198 27.1408 146.294 32.0005 139.794 32.0005C133.295 32.0005 128.391 27.1408 128.391 20.4661C128.391 13.7913 133.295 8.93164 139.794 8.93164C146.294 8.93164 151.198 13.7508 151.198 20.4661ZM145.321 20.4661C145.321 16.354 142.668 14.2777 139.794 14.2777C136.921 14.2777 134.268 16.354 134.268 20.4661C134.268 24.5781 136.921 26.6544 139.794 26.6544C142.668 26.6544 145.321 24.5781 145.321 20.4661Z" fill="black"/>
    <path d="M165.561 15.4267C164.899 15.2961 164.322 15.2511 163.796 15.2511C160.791 15.2511 158.184 16.7103 158.184 21.3944V31.3389H152.306V9.59422H158.008V12.819C159.332 9.94552 162.341 9.41406 164.196 9.41406C164.683 9.41406 165.124 9.4591 165.566 9.50414V15.4267H165.561Z" fill="black"/>
    <path d="M178.87 18.7406L187.751 31.3379H180.55L174.803 23.0283L172.371 25.591V31.3379H166.493V0H172.371V17.6822L179.883 9.59324H187.571L178.865 18.7406H178.87Z" fill="black"/>
    <path d="M191.197 24.1772C191.328 25.9022 192.611 27.4921 195.174 27.4921C197.12 27.4921 198.047 26.4742 198.047 25.3257C198.047 24.3529 197.385 23.5557 195.705 23.2044L192.832 22.5423C188.634 21.6145 186.734 19.0969 186.734 16.0478C186.734 12.1564 190.179 8.93164 194.868 8.93164C201.056 8.93164 203.132 12.8635 203.398 15.2055L198.493 16.309C198.318 15.0254 197.39 13.3905 194.913 13.3905C193.368 13.3905 192.129 14.3183 192.129 15.5568C192.129 16.6152 192.927 17.2818 194.12 17.5025L197.214 18.1646C201.502 19.0473 203.668 21.6551 203.668 24.8393C203.668 28.3749 200.93 32.0005 195.228 32.0005C188.688 32.0005 186.432 27.7578 186.166 25.2807L191.206 24.1772H191.197Z" fill="black"/>
  </g>
  <defs>
    <clipPath id="clip0_38126_8838">
      <rect width="204" height="32" fill="white"/>
    </clipPath>
  </defs>
</svg>