<svg xmlns="http://www.w3.org/2000/svg" width="82" height="33" viewBox="0 0 82 33" fill="none">
<g clip-path="url(#clip0_37944_14564)">
<path d="M2 25.9481V5.5215C2 3.02856 4.24633 1.11649 6.67565 1.67609C15.9881 3.82124 22.5368 7.54781 22.6654 14.8852C22.7966 22.3761 16.8619 27.5407 6.49086 29.7578C4.12462 30.2636 2 28.3678 2 25.9481Z" fill="#40F8FF"/>
<g filter="url(#filter0_d_37944_14564)">
<path d="M2 25.8962V5.65651C2 3.1267 4.31152 1.19881 6.74941 1.87456C14.5826 4.0458 20.0353 7.76678 20.1452 14.91C20.2579 22.2354 15.2772 27.3361 6.5412 29.6313C4.17498 30.2529 2 28.3428 2 25.8962Z" fill="#279EFF"/>
</g>
<g filter="url(#filter1_d_37944_14564)">
<path d="M2 26.1189V5.55751C2 2.89844 4.56205 0.921273 6.95835 2.07383C11.7848 4.39524 15.0329 8.18326 15.1049 14.8836C15.1801 21.8868 12.1101 26.9234 6.65878 29.5185C4.36434 30.6108 2 28.6601 2 26.1189Z" fill="#0C356A"/>
</g>
<path d="M28.46 23V9.8H34.88C36.5067 9.81333 37.7067 10.1267 38.48 10.74C39.2533 11.34 39.64 12.2133 39.64 13.36C39.64 14.1067 39.42 14.7533 38.98 15.3C38.54 15.8333 37.8667 16.1733 36.96 16.32V16.34C37.9733 16.4733 38.7267 16.8267 39.22 17.4C39.7267 17.96 39.98 18.64 39.98 19.44C39.98 20.5733 39.58 21.4533 38.78 22.08C37.98 22.6933 36.78 23 35.18 23H28.46ZM31.78 20.58H34.6C35.2267 20.58 35.6933 20.4533 36 20.2C36.3067 19.9467 36.46 19.58 36.46 19.1C36.46 18.6333 36.3067 18.28 36 18.04C35.6933 17.7867 35.2267 17.66 34.6 17.66H31.78V20.58ZM31.78 15.2H34.28C35.5067 15.2 36.12 14.72 36.12 13.76C36.12 12.8 35.5067 12.32 34.28 12.32H31.78V15.2ZM47.2919 9.6C48.5185 9.6 49.5985 9.79333 50.5319 10.18C51.4785 10.5533 52.2985 11.1067 52.9919 11.84L51.3319 14.06C50.7585 13.46 50.1385 13.0133 49.4719 12.72C48.8185 12.4133 48.0719 12.26 47.2319 12.26C46.7385 12.26 46.3385 12.3133 46.0319 12.42C45.7252 12.5267 45.5052 12.6733 45.3719 12.86C45.2385 13.0467 45.1719 13.26 45.1719 13.5C45.1719 13.78 45.2985 14.02 45.5519 14.22C45.8185 14.4067 46.2452 14.5667 46.8319 14.7L49.0519 15.2C50.3719 15.5067 51.3385 15.9533 51.9519 16.54C52.5652 17.1267 52.8719 17.9067 52.8719 18.88C52.8719 19.8133 52.6319 20.6067 52.1519 21.26C51.6719 21.9 51.0119 22.3867 50.1719 22.72C49.3319 23.04 48.3719 23.2 47.2919 23.2C46.4119 23.2 45.5719 23.1067 44.7719 22.92C43.9719 22.72 43.2519 22.44 42.6119 22.08C41.9719 21.72 41.4319 21.3067 40.9919 20.84L42.6519 18.54C42.9852 18.9267 43.3919 19.2733 43.8719 19.58C44.3652 19.8733 44.8985 20.1067 45.4719 20.28C46.0585 20.4533 46.6519 20.54 47.2519 20.54C47.7185 20.54 48.1052 20.4933 48.4119 20.4C48.7319 20.3067 48.9652 20.1667 49.1119 19.98C49.2585 19.7933 49.3319 19.5733 49.3319 19.32C49.3319 19.04 49.2319 18.8067 49.0319 18.62C48.8319 18.42 48.4519 18.2533 47.8919 18.12L45.4519 17.58C44.7052 17.4067 44.0385 17.18 43.4519 16.9C42.8785 16.6067 42.4252 16.22 42.0919 15.74C41.7585 15.2467 41.5919 14.6333 41.5919 13.9C41.5919 13.0733 41.8185 12.34 42.2719 11.7C42.7252 11.0467 43.3785 10.5333 44.2319 10.16C45.0852 9.78667 46.1052 9.6 47.2919 9.6ZM66.7225 19.22C66.4692 20.14 66.0625 20.9 65.5025 21.5C64.9425 22.0867 64.2758 22.52 63.5025 22.8C62.7292 23.0667 61.8758 23.2 60.9425 23.2C59.6092 23.2 58.4558 22.9333 57.4825 22.4C56.5092 21.8533 55.7625 21.0733 55.2425 20.06C54.7225 19.0467 54.4625 17.8267 54.4625 16.4C54.4625 14.9733 54.7225 13.7533 55.2425 12.74C55.7625 11.7267 56.5092 10.9533 57.4825 10.42C58.4558 9.87333 59.6025 9.6 60.9225 9.6C61.8425 9.6 62.6892 9.73333 63.4625 10C64.2358 10.2533 64.8892 10.6467 65.4225 11.18C65.9558 11.7133 66.3358 12.4 66.5625 13.24L63.5425 14.46C63.3558 13.6333 63.0492 13.0667 62.6225 12.76C62.2092 12.4533 61.6825 12.3 61.0425 12.3C60.4158 12.3 59.8692 12.4533 59.4025 12.76C58.9492 13.0667 58.5958 13.5267 58.3425 14.14C58.1025 14.74 57.9825 15.4933 57.9825 16.4C57.9825 17.2933 58.0958 18.0467 58.3225 18.66C58.5492 19.2733 58.8892 19.7333 59.3425 20.04C59.8092 20.3467 60.3825 20.5 61.0625 20.5C61.7025 20.5 62.2425 20.3267 62.6825 19.98C63.1358 19.62 63.4425 19.0733 63.6025 18.34L66.7225 19.22ZM80.5358 9.8V23H76.7158L72.6158 15.86L71.6158 13.9H71.5958L71.6758 16.34V23H68.6358V9.8H72.4558L76.5558 16.94L77.5558 18.9H77.5758L77.4958 16.46V9.8H80.5358Z" fill="white"/>
</g>
<defs>
<filter id="filter0_d_37944_14564" x="0.727783" y="0.334041" width="21.9636" height="31.8284" filterUnits="userSpaceOnUse" color-interpolation-filters="sRGB">
<feFlood flood-opacity="0" result="BackgroundImageFix"/>
<feColorMatrix in="SourceAlpha" type="matrix" values="0 0 0 0 0 0 0 0 0 0 0 0 0 0 0 0 0 0 127 0" result="hardAlpha"/>
<feOffset dx="0.636109" dy="0.504086"/>
<feGaussianBlur stdDeviation="0.954163"/>
<feComposite in2="hardAlpha" operator="out"/>
<feColorMatrix type="matrix" values="0 0 0 0 0.00392157 0 0 0 0 0.00392157 0 0 0 0 0.00392157 0 0 0 0.37 0"/>
<feBlend mode="normal" in2="BackgroundImageFix" result="effect1_dropShadow_37944_14564"/>
<feBlend mode="normal" in="SourceGraphic" in2="effect1_dropShadow_37944_14564" result="shape"/>
</filter>
<filter id="filter1_d_37944_14564" x="2" y="0.652095" width="16.4154" height="31.2704" filterUnits="userSpaceOnUse" color-interpolation-filters="sRGB">
<feFlood flood-opacity="0" result="BackgroundImageFix"/>
<feColorMatrix in="SourceAlpha" type="matrix" values="0 0 0 0 0 0 0 0 0 0 0 0 0 0 0 0 0 0 127 0" result="hardAlpha"/>
<feOffset dx="1.71867" dy="0.504086"/>
<feGaussianBlur stdDeviation="0.795136"/>
<feColorMatrix type="matrix" values="0 0 0 0 0.00392157 0 0 0 0 0.00392157 0 0 0 0 0.00392157 0 0 0 0.31 0"/>
<feBlend mode="normal" in2="BackgroundImageFix" result="effect1_dropShadow_37944_14564"/>
<feBlend mode="normal" in="SourceGraphic" in2="effect1_dropShadow_37944_14564" result="shape"/>
</filter>
<clipPath id="clip0_37944_14564">
<rect width="82" height="33" fill="white"/>
</clipPath>
</defs>
</svg>