<svg xmlns="http://www.w3.org/2000/svg" width="601" height="105" viewBox="0 0 601 105" fill="none">
  <path d="M88.5999 62.6004C86.7999 63.7004 84.6999 63.9004 83.0999 63.0004C81.0999 61.8004 79.8999 59.1004 79.8999 55.4004V44.1004C79.8999 38.7004 77.7999 34.8004 74.2 33.8004C68.1 32.0004 63.5 39.5004 61.8 42.3004L51 59.6004V38.3004C50.9 33.4004 49.3 30.5004 46.3 29.6004C44.3 29.0004 41.3 29.3004 38.4 33.7004L14.2999 72.3004C11.0999 66.2004 9.39995 59.4004 9.39995 52.5004C9.39995 29.2004 28.1 10.3004 51 10.3004C73.8999 10.3004 92.5999 29.2004 92.5999 52.5004V52.6004V52.7004C92.7999 57.2004 91.3999 60.8004 88.5999 62.6004ZM101.8 52.5004V52.4004V52.3004C101.7 24.0004 78.8999 0.900391 51 0.900391C23 0.900391 0.199951 24.0004 0.199951 52.5004C0.199951 80.9004 23 104.1 51 104.1C63.8999 104.1 76.1 99.2004 85.5 90.3004C87.4 88.5004 87.5 85.6004 85.7 83.7004C84 81.8004 81.1 81.7004 79.2 83.4004C79.2 83.4004 79.1999 83.4004 79.0999 83.5004C71.4999 90.7004 61.3 94.8004 50.8 94.8004C38.5 94.8004 27.5 89.4004 19.9 80.8004L41.5999 46.0004V62.1004C41.5999 69.8004 44.5999 72.3004 47.0999 73.0004C49.5999 73.7004 53.4 73.2004 57.5 66.7004L69.3999 47.4004C69.7999 46.8004 70.1 46.2004 70.5 45.8004V55.6004C70.5 62.8004 73.3999 68.6004 78.3999 71.4004C82.8999 74.0004 88.6 73.7004 93.3 70.8004C99.1 67.0004 102.2 60.4004 101.8 52.5004ZM172.6 34.9004C173.8 35.6004 174.9 37.3004 174.9 38.8004C174.9 41.2004 172.9 43.2004 170.6 43.2004C170 43.2004 169.5 43.0004 169 42.9004C166.3 40.9004 162.9 39.6004 159.3 39.6004C150.8 39.6004 145 46.5004 145 55.1004C145 63.7004 150.9 70.5004 159.3 70.5004C163.5 70.5004 167.3 68.8004 170.1 66.1004C170.8 65.6004 171.7 65.3004 172.6 65.3004C174.9 65.3004 176.7 67.1004 176.7 69.4004C176.7 70.9004 175.8 72.2004 174.7 72.9004C170.6 76.4004 165.1 78.7004 159.4 78.7004C146.4 78.7004 135.8 68.0004 135.8 54.8004C135.8 41.6004 146.4 30.9004 159.4 30.9004C164.2 30.8004 168.8 32.3004 172.6 34.9004ZM196.4 44.9004C205.3 44.9004 212.7 52.4004 212.7 61.7004C212.7 70.9004 205.2 78.8004 196.4 78.8004C187.1 78.8004 179.4 71.0004 179.4 61.7004C179.4 52.4004 187.1 44.9004 196.4 44.9004ZM196.3 70.5004C200.2 70.5004 203.5 66.8004 203.5 61.8004C203.5 56.8004 200.2 53.6004 196.3 53.6004C192.1 53.6004 188.6 56.7004 188.6 61.8004C188.6 66.7004 192.1 70.5004 196.3 70.5004ZM218.3 73.6004V50.0004C218.3 47.4004 220.3 45.3004 222.9 45.3004C225.4 45.3004 227.5 47.4004 227.5 50.0004V73.6004C227.5 76.2004 225.4 78.3004 222.9 78.3004C220.4 78.3004 218.3 76.1004 218.3 73.6004ZM217.6 36.4004C217.6 33.3004 220 30.9004 222.9 30.9004C225.9 30.9004 228.3 33.4004 228.3 36.4004C228.3 39.4004 225.9 41.8004 222.9 41.8004C219.9 41.7004 217.6 39.3004 217.6 36.4004ZM245.1 60.8004V73.6004C245.1 76.2004 243 78.3004 240.5 78.3004C238 78.3004 235.9 76.2004 235.9 73.6004V48.9004C235.9 46.9004 237.5 45.3004 239.5 45.3004C241.5 45.3004 243 47.0004 243 48.9004C246.7 45.4004 250 44.9004 253.1 44.9004C262.3 44.9004 266.4 51.8004 266.4 59.7004V73.6004C266.4 76.2004 264.3 78.3004 261.8 78.3004C259.3 78.3004 257.2 76.2004 257.2 73.6004V60.8004C257.2 56.8004 256.7 53.4004 250.9 53.4004C246.8 53.4004 245.1 56.8004 245.1 60.8004ZM296.2 65.7004C295.1 65.7004 294.4 65.2004 293.8 64.5004L283.1 52.9004V73.6004C283.1 76.2004 281 78.3004 278.5 78.3004C276 78.3004 273.9 76.2004 273.9 73.6004V32.6004C274.2 31.9004 274.9 31.4004 275.6 31.4004C276.4 31.4004 277.1 32.1004 277.6 32.6004L294.7 51.8004C295.2 52.4004 295.8 52.7004 296.2 52.7004C296.5 52.7004 297.2 52.4004 297.7 51.8004L314.8 32.6004C315.3 32.1004 315.9 31.4004 316.8 31.4004C317.6 31.4004 318.3 31.9004 318.5 32.6004V73.6004C318.5 76.2004 316.5 78.3004 313.9 78.3004C311.4 78.3004 309.3 76.2004 309.3 73.6004V52.9004L298.6 64.5004C297.8 65.2004 297.1 65.7004 296.2 65.7004ZM340.4 70.5004C344.5 70.5004 348 66.8004 348 61.8004C348 56.8004 344.4 53.5004 340.4 53.5004C336.4 53.5004 333.1 56.9004 333.1 61.8004C333.1 66.6004 336.3 70.5004 340.4 70.5004ZM350.2 74.7004L350 73.6004C348.2 77.1004 342.5 78.7004 338.9 78.7004C330.3 78.7004 323.9 70.9004 323.9 61.6004C323.9 52.4004 330.4 44.8004 339.4 44.8004C340.9 44.8004 346.1 45.2004 350.1 49.9004L350.3 48.8004C350.3 46.8004 351.8 45.2004 353.8 45.2004C355.8 45.2004 357.4 46.9004 357.4 48.8004V74.6004C357.4 76.6004 355.8 78.2004 353.8 78.2004C351.7 78.3004 350.2 76.6004 350.2 74.7004ZM382.7 53.4004H381.7C375.9 53.7004 374.8 57.0004 374.8 60.8004V73.6004C374.8 76.2004 372.7 78.3004 370.2 78.3004C367.7 78.3004 365.6 76.2004 365.6 73.6004V48.9004C365.6 46.9004 367.2 45.3004 369.2 45.3004C371.2 45.3004 372.7 47.0004 372.7 48.9004C376.1 45.7004 378.9 45.0004 381.7 44.9004H382.6C384.8 44.9004 386.8 46.8004 386.8 49.2004C386.9 51.4004 384.9 53.4004 382.7 53.4004ZM418.2 71.4004C418.6 72.1004 418.9 72.8004 418.9 73.6004C418.9 76.0004 416.7 78.2004 414.3 78.2004C412.7 78.2004 411.3 77.0004 410.2 75.6004L399.6 63.3004V73.5004C399.6 76.1004 397.5 78.2004 395 78.2004C392.5 78.2004 390.4 76.1004 390.4 73.5004V36.0004C390.4 33.4004 392.4 31.3004 395 31.3004C397.6 31.3004 399.6 33.4004 399.6 36.0004V59.4004L410.2 47.7004C411.3 46.5004 412.6 45.2004 414.2 45.2004C416.5 45.2004 418.6 47.3004 418.6 49.7004C418.6 50.4004 418.4 51.2004 418 51.8004L409.6 61.0004L418.2 71.4004ZM436.2 53.5004C433.7 53.5004 429.6 54.8004 429.6 58.7004H442.9C442.8 54.8004 438.6 53.5004 436.2 53.5004ZM448.2 64.6004H429.6C429.6 70.1004 434.9 71.0004 437.2 71.0004C438.9 71.0004 441.3 70.7004 443.2 69.8004C443.8 69.4004 444.7 69.1004 445.6 69.1004C447.6 69.1004 449.3 70.8004 449.3 72.9004C449.3 74.3004 448.4 75.5004 447.3 76.2004C444.5 78.3004 440.8 78.8004 437.3 78.8004C428 78.8004 420.3 73.8004 420.3 62.1004C420.3 52.9004 425 44.9004 436 44.9004C444.9 44.9004 451.6 50.7004 451.8 61.0004C451.8 62.9004 450.2 64.6004 448.2 64.6004ZM473.8 78.7004H471.3C464.3 78.7004 460.2 75.6004 460.2 64.7004V53.4004H457.8C455.6 53.4004 453.7 51.4004 453.7 49.2004C453.7 46.8004 455.7 44.9004 457.8 44.9004H460.2V36.2004C460.2 33.6004 462.2 31.5004 464.8 31.5004C467.3 31.5004 469.4 33.6004 469.4 36.2004V44.9004H473.2C475.4 44.9004 477.3 46.8004 477.3 49.2004C477.3 51.4004 475.3 53.4004 473.2 53.4004H469.4V62.9004C469.4 69.2004 469.7 70.5004 472.5 70.5004H473.8C476 70.5004 477.9 72.3004 477.9 74.6004C477.9 76.8004 476 78.7004 473.8 78.7004ZM518.3 34.9004C519.5 35.6004 520.6 37.3004 520.6 38.8004C520.6 41.2004 518.6 43.2004 516.3 43.2004C515.7 43.2004 515.2 43.0004 514.7 42.9004C512 40.9004 508.6 39.6004 505 39.6004C496.5 39.6004 490.7 46.5004 490.7 55.1004C490.7 63.7004 496.6 70.5004 505 70.5004C509.2 70.5004 513 68.8004 515.8 66.1004C516.5 65.6004 517.4 65.3004 518.3 65.3004C520.6 65.3004 522.4 67.1004 522.4 69.4004C522.4 70.9004 521.5 72.2004 520.4 72.9004C516.3 76.4004 510.8 78.7004 505.1 78.7004C492.1 78.7004 481.5 68.0004 481.5 54.8004C481.5 41.6004 492.1 30.9004 505.1 30.9004C509.9 30.8004 514.6 32.3004 518.3 34.9004ZM541.6 70.5004C545.7 70.5004 549.2 66.8004 549.2 61.8004C549.2 56.8004 545.6 53.5004 541.6 53.5004C537.5 53.5004 534.3 56.9004 534.3 61.8004C534.3 66.6004 537.6 70.5004 541.6 70.5004ZM551.4 74.7004L551.2 73.6004C549.4 77.1004 543.7 78.7004 540.1 78.7004C531.5 78.7004 525.1 70.9004 525.1 61.6004C525.1 52.4004 531.6 44.8004 540.6 44.8004C542.1 44.8004 547.3 45.2004 551.3 49.9004L551.5 48.8004C551.5 46.8004 553 45.2004 555 45.2004C557 45.2004 558.6 46.9004 558.6 48.8004V74.6004C558.6 76.6004 557 78.2004 555 78.2004C552.9 78.3004 551.4 76.6004 551.4 74.7004ZM583.7 70.5004C587.8 70.5004 591 66.6004 591 61.8004C591 56.8004 587.7 53.5004 583.7 53.5004C579.6 53.5004 576.1 56.8004 576.1 61.8004C576.1 66.8004 579.6 70.5004 583.7 70.5004ZM576.1 76.0004V87.7004C576.1 90.3004 574 92.4004 571.5 92.4004C569 92.4004 566.9 90.3004 566.9 87.7004V48.9004C566.9 46.9004 568.5 45.3004 570.5 45.3004C572.5 45.3004 574 47.0004 574 49.3004C577.4 45.8004 581.6 44.9004 584.8 44.9004C593.7 44.9004 600.3 52.4004 600.3 61.7004C600.3 70.9004 594 78.8004 585.3 78.8004C582.6 78.7004 578.6 77.9004 576.1 76.0004Z" fill="#17181B"/>
</svg>