<svg xmlns="http://www.w3.org/2000/svg" width="396" height="75" viewBox="0 0 396 75" fill="none">
<g clip-path="url(#clip0_37944_14644)">
<path d="M110.769 53.0467C103.466 53.0467 98.9404 46.4922 98.9404 37.4235C98.9404 28.4447 102.749 21.7554 110.724 21.7554C115.966 21.7554 119.416 25.1225 120.044 29.567H132.231C131.603 24.045 129.139 19.1965 124.838 15.9641C121.343 13.2704 116.504 11.6094 110.769 11.6094C96.0728 11.6094 86.5293 22.7431 86.5293 37.4235C86.5293 52.1937 96.3865 63.0132 110.859 63.0132C117.803 63.0132 122.866 61.0828 126.63 57.4014C129.99 54.1691 132.231 49.6796 132.544 44.7862H120.357C119.82 49.5899 116.235 53.0467 110.769 53.0467Z" fill="white"/>
<path d="M155.037 25.6602C143.746 25.6602 136.174 33.7412 136.174 44.3811C136.174 55.021 143.746 63.102 155.037 63.102C166.417 63.102 173.855 55.021 173.855 44.3811C173.855 33.7412 166.417 25.6602 155.037 25.6602ZM154.992 55.0659C150.108 55.0659 147.554 50.801 147.554 44.3811C147.554 37.9612 150.108 33.6065 154.992 33.6065C159.876 33.6065 162.519 37.9612 162.519 44.3811C162.475 50.801 159.876 55.0659 154.992 55.0659Z" fill="white"/>
<path d="M189.797 21.9037C192.194 19.5018 192.194 15.6076 189.797 13.2057C187.399 10.8038 183.513 10.8038 181.116 13.2057C178.719 15.6076 178.719 19.5018 181.116 21.9037C183.513 24.3056 187.399 24.3056 189.797 21.9037Z" fill="white"/>
<path d="M175.692 34.5498H180.396V61.9801H191.598V26.6035H175.692V34.5498Z" fill="white"/>
<path d="M219.153 25.5723C214.27 25.5723 210.864 27.6374 208.266 31.4534H208.042V26.6049H197.244V61.9366H208.49V42.4076C208.49 38.0529 210.954 34.9552 214.673 34.9552C218.347 34.9552 220.184 37.5141 220.184 41.2404V61.9366H231.43V38.9508C231.43 31.0943 226.86 25.5723 219.153 25.5723Z" fill="white"/>
<path d="M257.775 12.5977H236.762V61.9365H257.014C263.197 61.9365 268.17 60.3652 272.024 57.447C277.535 53.227 280.581 46.2684 280.581 37.5589C280.581 22.4744 271.396 12.5977 257.775 12.5977ZM256.118 51.7006H248.949V22.8336H256.252C263.914 22.8336 268.26 28.6249 268.26 37.6038C268.215 46.6275 264.093 51.7006 256.118 51.7006Z" fill="white"/>
<path d="M313.871 30.2394C310.825 27.5009 306.837 25.8398 301.819 25.8398C291.065 25.8398 283.717 33.9207 283.717 44.4709C283.717 55.1557 290.886 63.2367 302.536 63.2367C307.016 63.2367 310.6 62.0694 313.558 60.0043C316.649 57.8494 318.71 54.8414 319.472 51.654H308.539C307.554 53.8538 305.627 55.1557 302.67 55.1557C298.055 55.1557 295.456 52.1927 294.739 47.4339H320.099C320.144 40.2059 318.083 34.1003 313.871 30.2394ZM294.784 40.6998C295.546 36.4797 297.741 33.7861 301.998 33.7861C305.627 33.7861 308.271 36.4797 308.674 40.6998H294.784Z" fill="white"/>
<path d="M342.233 39.8468C337.752 39.0387 333.765 38.6795 333.765 36.2103C333.765 34.0105 335.915 32.9779 338.648 32.9779C341.74 32.9779 343.891 33.9656 344.294 37.1082H354.644C354.106 30.1496 348.73 25.7949 338.738 25.7949C330.404 25.7949 323.504 29.6558 323.504 37.1082C323.504 45.4136 330.046 47.0298 336.184 48.0624C340.889 48.8705 345.145 49.2297 345.145 52.4171C345.145 54.7067 342.995 55.9189 339.634 55.9189C335.915 55.9189 333.585 54.2129 333.137 50.6663H322.519C322.877 58.4779 329.329 63.2366 339.679 63.2366C348.909 63.2366 355.719 59.2411 355.719 51.5193C355.764 42.4955 348.461 40.8793 342.233 39.8468Z" fill="white"/>
<path d="M382.155 39.8934L394.566 26.6047H381.617L371.133 38.5466V12.5977H360.066V61.9813H371.133V51.1169L374.538 47.5254L383.006 61.9813H396L382.155 39.8934Z" fill="white"/>
<path d="M37.1542 40.7009C39.0349 40.7009 40.5594 39.1733 40.5594 37.2889C40.5594 35.4045 39.0349 33.877 37.1542 33.877C35.2736 33.877 33.749 35.4045 33.749 37.2889C33.749 39.1733 35.2736 40.7009 37.1542 40.7009Z" fill="#F8BF1E"/>
<path d="M64.3066 40.7009C66.1872 40.7009 67.7118 39.1733 67.7118 37.2889C67.7118 35.4045 66.1872 33.877 64.3066 33.877C62.4259 33.877 60.9014 35.4045 60.9014 37.2889C60.9014 39.1733 62.4259 40.7009 64.3066 40.7009Z" fill="#F8BF1E"/>
<path d="M64.3066 67.9509C66.1872 67.9509 67.7118 66.4232 67.7118 64.5388C67.7118 62.6545 66.1872 61.127 64.3066 61.127C62.4259 61.127 60.9014 62.6545 60.9014 64.5388C60.9014 66.4232 62.4259 67.9509 64.3066 67.9509Z" fill="#F8BF1E"/>
<path d="M74.2978 9.40948C73.9393 4.42622 69.9517 0.385744 64.9783 0.0265904C61.7971 -0.197881 58.9295 1.01426 56.9133 3.0794C55.3899 4.65069 53.3289 5.59347 51.1334 5.59347H50.3269C48.0867 5.59347 45.9808 4.65069 44.4126 3.0345C42.5756 1.14894 40.0217 0.0265904 37.199 0.0265904C34.3762 0.0265904 31.8223 1.19384 29.9853 3.0345C28.4171 4.65069 26.3113 5.59347 24.071 5.59347H23.3093C21.1139 5.59347 19.008 4.74048 17.4846 3.16919C17.171 2.85493 16.8573 2.54067 16.5437 2.2713C12.7353 -0.8264 7.13459 -0.736612 3.46056 2.54067C-0.975169 6.44646 -1.15439 13.2704 2.9677 17.4006C3.01251 17.4455 3.05731 17.4904 3.10212 17.5353C4.71511 19.0617 5.56641 21.2167 5.56641 23.4165V24.1797C5.56641 26.4244 4.6255 28.5344 3.0125 30.1057C1.13068 31.9464 0.0105494 34.5053 0.0105494 37.3337C0.0105494 40.162 1.17549 42.721 3.0125 44.5617C4.6255 46.133 5.56641 48.243 5.56641 50.4877V51.5203C5.56641 53.7201 4.6255 55.7852 3.05731 57.3116C1.08588 59.2421 -0.123866 61.9806 0.0105494 64.9885C0.234576 70.286 4.53588 74.551 9.77811 74.7306C12.8249 74.8204 15.558 73.6082 17.4846 71.588C19.008 70.0167 21.069 69.029 23.2645 69.029H24.1158C26.3113 69.029 28.3723 69.9718 29.8957 71.588C31.9119 73.698 34.8243 74.9101 38.0055 74.6857C42.9788 74.3265 47.0113 70.286 47.3698 65.2579C47.773 59.287 43.1133 54.3486 37.2438 54.3486C34.4658 54.3486 31.9119 55.4709 30.0749 57.3116C28.5067 58.8829 26.4009 59.8257 24.2054 59.8257H23.2645C21.069 59.8257 18.9184 58.9727 17.3502 57.3565C17.3054 57.3116 17.3054 57.3116 17.2606 57.2667C15.6476 55.6954 14.7067 53.5854 14.7067 51.3407V50.4428C14.7067 48.1981 15.6476 46.0881 17.2606 44.5168C19.1424 42.6761 20.2626 40.1171 20.2626 37.2888C20.2626 34.4605 19.0976 31.9015 17.2606 30.0608C15.6476 28.4895 14.7067 26.3795 14.7067 24.1348V23.3267C14.7067 21.082 15.6476 18.9719 17.2158 17.4006C17.2606 17.3558 17.2606 17.3558 17.3054 17.3109C17.3502 17.266 17.3502 17.266 17.395 17.2211C18.9632 15.6498 21.069 14.707 23.3093 14.707H24.1158C26.3561 14.707 28.4619 15.6498 30.0301 17.266C31.8671 19.1515 34.421 20.2739 37.2438 20.2739C40.0665 20.2739 42.6204 19.1066 44.4574 17.266C46.0256 15.6498 48.1315 14.707 50.3717 14.707H51.0886C53.3289 14.707 55.4347 15.6498 57.0029 17.266C58.8399 19.1515 61.3938 20.2739 64.2166 20.2739C70.0413 20.3188 74.701 15.3804 74.2978 9.40948Z" fill="#F8BF1E"/>
</g>
<defs>
<clipPath id="clip0_37944_14644">
<rect width="396" height="75" fill="white"/>
</clipPath>
</defs>
</svg>