<svg xmlns="http://www.w3.org/2000/svg" width="469" height="122" viewBox="0 0 469 122" fill="none" style="&#10;    /* background: #000; */&#10;">
<g clip-path="url(#clip0_37944_14594)">
<mask id="mask0_37944_14594" style="mask-type:luminance" maskUnits="userSpaceOnUse" x="0" y="0" width="469" height="122">
<path d="M469 0H0V122H469V0Z" fill="white"/>
</mask>
<g mask="url(#mask0_37944_14594)">
<path d="M76.2999 88.6996L54.6999 98.0996V97.1996C50.3999 98.2996 45.9999 98.8996 41.4999 99.0996C21.1999 98.8996 5.0999 88.2996 4.8999 75.6996V70.9996C11.4999 80.6996 25.1999 87.1996 41.4999 86.8996C46.8999 87.0996 52.1999 86.3996 57.3999 84.9996L59.2999 80.2996C53.4999 82.0996 47.4999 83.0996 41.4999 83.0996C21.1999 83.1996 5.0999 72.5996 4.8999 59.6996V55.8996C11.4999 64.8996 25.0999 71.2996 41.4999 70.9996C48.5999 71.3996 55.6999 70.0996 62.0999 67.1996L62.9999 62.4996C56.2999 65.7996 48.8999 67.4996 41.3999 67.1996C21.0999 67.4996 4.9999 56.8996 4.7999 43.7996V39.9996C11.3999 49.1996 25.0999 55.5996 41.3999 55.8996C50.1999 55.5996 58.8999 53.3996 66.7999 49.3996L67.6999 43.7996C61.1999 48.5996 51.5999 51.7996 41.4999 52.1996C21.0999 51.6996 4.9999 41.0996 4.7999 27.7996C4.9999 15.1996 21.0999 4.4996 41.3999 4.3996C53.4999 4.5996 64.6999 8.8996 71.3999 15.6996L72.0999 16.6996H76.7999L76.0999 15.5996C69.3999 6.59961 56.0999 0.599609 41.2999 0.599609C18.8999 0.599609 0.899902 12.9996 0.899902 27.7996V76.5996C1.6999 91.0996 19.1999 102.9 41.2999 102.9C56.0999 102.8 69.1999 96.9996 76.2999 88.6996Z" fill="white"/>
<path d="M67.5 121.799L75.1 89.5992L53.3 99.0992L66.6 43.1992H41L47.6 15.6992H129.1L122.5 43.1992H96L90.3 58.3992L119.7 46.0992L67.5 121.799ZM80.8 82.8992L77 101.799L108.3 54.3992L82.7 65.7992L94.1 39.2992H119.7L124.4 19.3992H50.5L45.8 39.2992H71.4L59.1 92.2992L80.8 82.8992Z" fill="white"/>
<path d="M179.7 34.0996C179.7 35.4996 179.3 36.7996 178.8 37.9996C178.2 39.1996 177.4 40.2996 176.4 41.1996C174.1 42.9996 171.3 43.9996 168.4 43.7996C166.8 43.8996 165.2 43.5996 163.7 42.9996C162.2 42.3996 160.9 41.3996 159.8 40.1996C157.7 37.7996 156.7 34.3996 156.7 30.0996V28.3996C156.6 25.8996 157.1 23.4996 158.1 21.1996C159 19.1996 160.4 17.5996 162.2 16.3996C164.4 15.1996 166.9 14.5996 169.4 14.7996C171.9 14.9996 174.3 15.8996 176.3 17.3996C178.4 19.2996 179.6 21.9996 179.8 24.7996H174C174 23.2996 173.5 21.8996 172.5 20.7996C171.4 19.8996 169.9 19.4996 168.5 19.5996C167.7 19.4996 166.8 19.6996 166 20.0996C165.2 20.4996 164.6 20.9996 164.1 21.6996C163.1 23.0996 162.6 25.2996 162.6 28.1996V30.2996C162.6 33.3996 163.1 35.5996 164 36.9996C164.5 37.6996 165.1 38.2996 165.9 38.5996C166.7 38.9996 167.5 39.0996 168.4 39.0996C169.9 39.1996 171.3 38.7996 172.4 37.8996C173.4 36.8996 173.9 35.4996 173.9 34.0996H179.7Z" fill="white"/>
<path d="M206.8 30.0008C206.9 32.5008 206.4 35.0008 205.3 37.3008C204.4 39.3008 202.9 41.0008 201.1 42.2008C199.2 43.3008 197 43.9008 194.8 43.9008C192.6 43.9008 190.4 43.3008 188.5 42.2008C186.6 41.0008 185.1 39.4008 184.2 37.4008C183.2 35.1008 182.6 32.7008 182.7 30.2008V28.8008C182.6 26.3008 183.2 23.8008 184.2 21.4008C185.1 19.4008 186.6 17.7008 188.5 16.5008C190.4 15.4008 192.6 14.8008 194.8 14.8008C197 14.8008 199.2 15.4008 201.1 16.5008C203 17.7008 204.4 19.4008 205.4 21.4008C206.4 23.7008 207 26.2008 206.9 28.7008V30.0008H206.8ZM200.9 28.7008C200.9 25.7008 200.4 23.5008 199.3 21.9008C198.8 21.2008 198.1 20.6008 197.3 20.2008C196.5 19.8008 195.6 19.6008 194.8 19.6008C193.9 19.6008 193 19.8008 192.3 20.2008C191.5 20.6008 190.8 21.2008 190.3 21.9008C189.2 23.4008 188.7 25.7008 188.7 28.6008V30.0008C188.6 32.3008 189.1 34.7008 190.3 36.7008C190.8 37.4008 191.5 38.0008 192.3 38.4008C193.1 38.8008 194 39.0008 194.9 39.0008C195.8 39.0008 196.7 38.8008 197.5 38.4008C198.3 38.0008 199 37.4008 199.5 36.7008C200.5 35.2008 201.1 32.9008 201.1 30.0008V28.7008H200.9Z" fill="white"/>
<path d="M217.2 43.3996H211.4V15.0996H217.2V43.3996Z" fill="white"/>
<path d="M245.6 43.3996H239.8L228.5 24.7996V43.3996H222.7V15.0996H228.5L239.9 33.6996V15.0996H245.7V43.3996H245.6Z" fill="white"/>
<path d="M271.4 19.8992H262.7V43.4992H257V19.8992H248.5V15.1992H271.5V19.8992H271.4Z" fill="white"/>
<path d="M291.8 31.1992H280.6V38.7992H293.7V43.4992H274.7V15.1992H293.6V19.8992H280.5V26.5992H291.7V31.1992H291.8Z" fill="white"/>
<path d="M303 38.6996H315.4V43.3996H297.2V15.0996H303V38.6996Z" fill="white"/>
<path d="M335.7 31.1992H324.5V38.7992H337.6V43.4992H318.6V15.1992H337.5V19.8992H324.4V26.5992H335.6V31.1992H335.7Z" fill="white"/>
<path d="M363.5 39.8998C362.3 41.2998 360.8 42.2999 359.1 42.7999C357.1 43.4999 354.9 43.8999 352.7 43.7999C350.4 43.8999 348.2 43.2998 346.3 42.1998C344.4 41.0998 342.9 39.4998 342 37.4998C340.9 35.2998 340.4 32.7999 340.5 30.2999V28.3998C340.4 25.8998 340.9 23.3999 341.9 21.0999C342.8 19.0999 344.2 17.4998 346 16.3998C347.9 15.2998 350.1 14.6999 352.3 14.7999C355.7 14.7999 358.3 15.5998 360.2 17.1998C362.2 18.9998 363.4 21.4998 363.6 24.1998H357.9C357.8 22.7998 357.2 21.5999 356.2 20.5999C355.2 19.7999 353.9 19.3998 352.5 19.4998C351.6 19.4998 350.7 19.5998 349.9 19.9998C349.1 20.3998 348.4 20.9998 347.9 21.6998C346.9 23.1998 346.3 25.3999 346.3 28.2999V30.0999C346.3 33.0999 346.9 35.2999 348 36.7999C348.6 37.5999 349.3 38.1999 350.2 38.5999C351.1 38.9999 352 39.1999 353 39.0999C355.2 39.0999 356.7 38.5998 357.7 37.6998V32.7999H352.4V28.4998H363.5V39.8998Z" fill="white"/>
<path d="M378.6 33.0992H374V43.4992H368.2V15.1992H378.7C382 15.1992 384.6 15.8992 386.4 17.3992C387.3 18.1992 388 19.0992 388.5 20.1992C389 21.2992 389.2 22.4992 389.1 23.6992C389.2 25.3992 388.7 27.0992 387.8 28.4992C386.9 29.8992 385.5 30.8992 384 31.5992L390.1 43.1992V43.4992H383.8L378.6 33.0992ZM374 28.2992H378.7C379.9 28.3992 381.2 27.9992 382.1 27.1992C382.5 26.7992 382.8 26.2992 383 25.7992C383.2 25.2992 383.3 24.6992 383.3 24.0992C383.3 23.4992 383.2 22.9992 383.1 22.3992C382.9 21.8992 382.6 21.3992 382.2 20.8992C381.7 20.4992 381.2 20.1992 380.6 19.9992C380 19.7992 379.4 19.6992 378.7 19.7992H374V28.2992Z" fill="white"/>
<path d="M409.5 37.5996H399.3L397.4 43.3996H391.2L401.7 15.0996H407.1L417.7 43.3996H411.5L409.5 37.5996ZM400.9 32.8996H408L404.4 22.2996L400.9 32.8996Z" fill="white"/>
<path d="M426.2 33.4992V43.4992H420.4V15.1992H431.4C433.3 15.1992 435.2 15.5992 437 16.3992C438.5 17.0992 439.8 18.2992 440.7 19.6992C441.6 21.1992 442 22.8992 442 24.5992C442.1 25.7992 441.8 27.0992 441.3 28.1992C440.8 29.2992 440.1 30.2992 439.1 31.0992C437.2 32.6992 434.6 33.4992 431.2 33.4992H426.2ZM426.2 28.6992H431.4C432.7 28.7992 433.9 28.3992 434.9 27.5992C435.3 27.1992 435.6 26.6992 435.9 26.1992C436.1 25.6992 436.2 25.0992 436.2 24.4992C436.2 23.8992 436.1 23.2992 435.9 22.6992C435.7 22.0992 435.4 21.5992 435 21.0992C434.6 20.6992 434 20.2992 433.4 20.0992C432.8 19.8992 432.2 19.7992 431.6 19.7992H426.3V28.6992H426.2Z" fill="white"/>
<path d="M469 43.3996H463.2V31.2996H451.8V43.3996H446V15.0996H451.8V26.5996H463.2V15.0996H469V43.3996Z" fill="white"/>
<path d="M174.9 73.7008H167.7V93.3008H162.8V73.7008H155.7V69.8008H174.9V73.7008Z" fill="white"/>
<path d="M181.9 77.7008C182.5 77.0008 183.2 76.4008 184 76.0008C184.8 75.6008 185.7 75.4008 186.6 75.4008C190.4 75.4008 192.3 77.6008 192.4 82.0008V93.2008H187.7V82.1008C187.8 81.3008 187.5 80.5008 187.1 79.9008C186.8 79.6008 186.5 79.4008 186.1 79.3008C185.7 79.2008 185.3 79.1008 184.9 79.2008C184.3 79.2008 183.7 79.3008 183.2 79.6008C182.7 79.9008 182.2 80.3008 181.9 80.8008V93.2008H177.2V68.3008H181.9V77.7008Z" fill="white"/>
<path d="M203.9 93.6997C202.7 93.6997 201.6 93.5997 200.5 93.1997C199.4 92.7997 198.4 92.1997 197.6 91.3997C196.8 90.5997 196.1 89.5997 195.7 88.4997C195.3 87.3997 195.1 86.2997 195.1 85.0997V84.5997C195.1 82.9997 195.4 81.3997 196.1 79.8997C196.7 78.5997 197.7 77.4997 199 76.6997C200.3 75.8997 201.8 75.4997 203.3 75.5997C204.4 75.4997 205.4 75.6997 206.4 76.0997C207.4 76.4997 208.3 77.0997 209 77.8997C210.4 79.3997 211.1 81.5997 211.1 84.2997V86.1997H200C200.1 87.2997 200.6 88.1997 201.4 88.9997C202.2 89.6997 203.2 90.0997 204.3 89.9997C205.1 89.9997 205.9 89.8997 206.7 89.4997C207.4 89.1997 208.1 88.5997 208.6 87.9997L210.9 90.5997C210.2 91.5997 209.2 92.3997 208.1 92.8997C206.7 93.3997 205.3 93.6997 203.9 93.6997ZM203.4 79.2997C203 79.2997 202.6 79.3997 202.2 79.4997C201.8 79.6997 201.5 79.8997 201.2 80.1997C200.6 80.9997 200.2 81.8997 200.1 82.8997H206.6V82.4997C206.6 81.5997 206.3 80.7997 205.8 80.0997C205.5 79.7997 205.1 79.5997 204.7 79.3997C204.2 79.2997 203.8 79.2997 203.4 79.2997Z" fill="white"/>
<path d="M223.3 93.3006V79.2006H220.7V75.8006H223.3V74.3006C223.2 73.5006 223.4 72.6006 223.7 71.8006C224 71.0006 224.4 70.3006 225 69.7006C226.3 68.6006 228 68.0006 229.7 68.1006C230.5 68.1006 231.3 68.2006 232.1 68.4006V72.0006C231.6 71.9006 231.2 71.8006 230.7 71.9006C228.9 71.9006 228.1 72.7006 228.1 74.4006V75.8006H231.6V79.2006H228V93.3006H223.3Z" fill="white"/>
<path d="M244.4 91.6004C243.8 92.3004 243.1 92.9004 242.3 93.2004C241.5 93.6004 240.6 93.7004 239.7 93.7004C238.9 93.8004 238.1 93.6004 237.4 93.4004C236.7 93.1004 236 92.7004 235.4 92.1004C234.3 90.8004 233.8 89.1004 233.9 87.4004V75.9004H238.6V87.2004C238.6 89.0004 239.4 89.9004 241.1 89.9004C241.7 90.0004 242.4 89.8004 243 89.6004C243.6 89.3004 244.1 88.9004 244.4 88.3004V75.9004H249.1V93.4004H244.7L244.4 91.6004Z" fill="white"/>
<path d="M258.1 71.5V75.8H261.1V79.2H258.1V87.9C258.1 88.4 258.2 88.9 258.5 89.3C258.7 89.5 258.9 89.6 259.2 89.7C259.4 89.8 259.7 89.8 260 89.8C260.5 89.8 260.9 89.8 261.4 89.7V93.2C260.5 93.5 259.5 93.6 258.6 93.6C255.3 93.6 253.6 91.9 253.6 88.6V79.2H251V75.8H253.6V71.5H258.1Z" fill="white"/>
<path d="M274.2 91.6004C273.6 92.3004 272.9 92.9004 272.1 93.2004C271.3 93.6004 270.4 93.7004 269.5 93.7004C268.7 93.8004 267.9 93.6004 267.2 93.4004C266.5 93.1004 265.8 92.7004 265.2 92.1004C264.1 90.8004 263.6 89.1004 263.7 87.4004V75.9004H268.4V87.2004C268.4 89.0004 269.2 89.9004 270.9 89.9004C271.5 90.0004 272.2 89.8004 272.8 89.6004C273.4 89.3004 273.9 88.9004 274.2 88.3004V75.9004H278.9V93.4004H274.5L274.2 91.6004Z" fill="white"/>
<path d="M292.1 80.1995C291.5 80.0995 291 80.0995 290.4 80.0995C288.6 80.0995 287.5 80.6994 286.9 81.8994V93.3994H282.2V75.8994H286.6L286.7 77.9995C287.1 77.2995 287.6 76.6995 288.3 76.1995C289 75.7995 289.8 75.4995 290.6 75.5995C291.1 75.5995 291.6 75.6995 292.1 75.7995V80.1995Z" fill="white"/>
<path d="M302.1 93.6997C300.9 93.6997 299.8 93.5997 298.7 93.1997C297.6 92.7997 296.6 92.1997 295.8 91.3997C295 90.5997 294.3 89.5997 293.9 88.4997C293.5 87.3997 293.3 86.2997 293.3 85.0997V84.5997C293.3 82.9997 293.6 81.3997 294.3 79.8997C294.9 78.5997 295.9 77.4997 297.2 76.6997C298.5 75.8997 300 75.4997 301.5 75.5997C302.6 75.4997 303.6 75.6997 304.6 76.0997C305.6 76.4997 306.5 77.0997 307.2 77.8997C308.6 79.3997 309.3 81.5997 309.3 84.2997V86.1997H298.1C298.2 87.2997 298.7 88.1997 299.5 88.9997C300.3 89.6997 301.3 90.0997 302.4 89.9997C303.2 89.9997 304 89.8997 304.8 89.4997C305.5 89.1997 306.2 88.5997 306.7 87.9997L309 90.5997C308.3 91.5997 307.3 92.3997 306.2 92.8997C304.8 93.3997 303.5 93.6997 302.1 93.6997ZM301.5 79.2997C301.1 79.2997 300.7 79.3997 300.3 79.4997C299.9 79.6997 299.6 79.8997 299.3 80.1997C298.7 80.9997 298.3 81.8997 298.2 82.8997H304.7V82.4997C304.7 81.5997 304.4 80.7997 303.9 80.0997C303.6 79.7997 303.2 79.5997 302.8 79.3997C302.4 79.2997 302 79.2997 301.5 79.2997Z" fill="white"/>
<path d="M319.5 84.4C319.5 82.8 319.8 81.2 320.5 79.8C321.1 78.5 322.1 77.4 323.4 76.6C324.7 75.8 326.2 75.5 327.8 75.5C328.9 75.5 329.9 75.6 330.9 76C331.9 76.4 332.8 76.9 333.6 77.7C335.2 79.3 336 81.4 336.1 83.6V84.8C336.2 87.2 335.4 89.5 333.9 91.3C332.3 92.9 330.1 93.7 327.9 93.7C325.6 93.7 323.5 92.8 321.9 91.3C320.3 89.5 319.5 87.1 319.6 84.7V84.4H319.5ZM324.1 84.8C324 86.1 324.3 87.5 325 88.6C325.3 89 325.7 89.3 326.2 89.6C326.7 89.8 327.2 89.9 327.7 90C328.2 90 328.7 89.9 329.2 89.7C329.7 89.5 330.1 89.1 330.4 88.7C331.1 87.4 331.5 86 331.4 84.5C331.5 83.2 331.1 81.8 330.4 80.7C330.1 80.3 329.7 79.9 329.2 79.7C328.7 79.5 328.2 79.4 327.7 79.4C327.2 79.4 326.7 79.5 326.2 79.7C325.7 79.9 325.3 80.3 325 80.7C324.4 81.9 324 83.3 324.1 84.8Z" fill="white"/>
<path d="M340.2 93.3006V79.2006H337.6V75.8006H340.2V74.3006C340.1 73.5006 340.3 72.6006 340.6 71.8006C340.9 71.0006 341.3 70.3006 341.9 69.7006C343.2 68.6006 344.9 68.0006 346.6 68.1006C347.4 68.1006 348.2 68.2006 349 68.4006V72.0006C348.5 71.9006 348.1 71.8006 347.6 71.9006C345.8 71.9006 345 72.7006 345 74.4006V75.8006H348.5V79.2006H345V93.3006H340.2Z" fill="white"/>
<path d="M363.5 75.7997L363.6 77.7997C364.2 77.0997 365 76.4997 365.8 76.0997C366.7 75.6997 367.6 75.4997 368.6 75.5997C369.6 75.4997 370.5 75.6997 371.3 76.1997C372.1 76.6997 372.8 77.3997 373.2 78.2997C373.8 77.3997 374.6 76.6997 375.5 76.2997C376.4 75.7997 377.4 75.5997 378.5 75.6997C379.3 75.5997 380.1 75.7997 380.8 75.9997C381.5 76.2997 382.2 76.6997 382.7 77.2997C383.7 78.7997 384.2 80.4997 384.1 82.2997V93.4997H379.4V82.2997C379.5 81.4997 379.3 80.7997 378.8 80.0997C378.5 79.7997 378.2 79.5997 377.8 79.4997C377.4 79.3997 377.1 79.2997 376.7 79.3997C376.1 79.3997 375.4 79.4997 374.9 79.8997C374.4 80.2997 374 80.7997 373.8 81.3997V93.3997H369.1V82.1997C369.2 81.3997 369 80.5997 368.5 79.9997C368.2 79.6997 367.9 79.5997 367.6 79.3997C367.2 79.2997 366.9 79.1997 366.5 79.2997C365.9 79.2997 365.3 79.3997 364.8 79.6997C364.3 79.9997 363.9 80.3997 363.6 80.9997V93.3997H358.9V75.8997H363.5V75.7997Z" fill="white"/>
<path d="M387 84.4C387 82.8 387.3 81.2 388 79.8C388.6 78.5 389.6 77.4 390.9 76.6C392.2 75.8 393.7 75.5 395.3 75.5C396.4 75.5 397.4 75.6 398.4 76C399.4 76.4 400.3 76.9 401.1 77.7C402.7 79.3 403.5 81.4 403.6 83.6V84.8C403.7 87.2 402.9 89.5 401.4 91.3C399.8 92.9 397.6 93.7 395.4 93.7C393.2 93.7 391 92.8 389.4 91.3C387.8 89.5 387 87.1 387.1 84.7V84.4H387ZM391.7 84.8C391.6 86.1 391.9 87.5 392.6 88.6C392.9 89 393.3 89.3 393.8 89.6C394.3 89.8 394.8 89.9 395.3 90C395.8 90.1 396.3 89.9 396.8 89.7C397.3 89.5 397.7 89.1 398 88.7C398.7 87.4 399.1 86 399 84.5C399.1 83.2 398.7 81.8 398 80.7C397.7 80.3 397.3 79.9 396.8 79.7C396.3 79.5 395.8 79.4 395.3 79.4C394.8 79.4 394.3 79.5 393.8 79.7C393.3 79.9 392.9 80.3 392.6 80.7C391.9 81.9 391.6 83.3 391.7 84.8Z" fill="white"/>
<path d="M410.8 75.7997L410.9 77.7997C411.5 76.9997 412.3 76.3998 413.1 75.9998C414 75.5998 414.9 75.3996 415.9 75.3996C416.7 75.2996 417.4 75.4996 418.2 75.6996C418.9 75.9996 419.6 76.3998 420.1 76.9998C421.1 78.3998 421.6 80.0996 421.5 81.8996V93.1996H416.8V81.9998C416.9 81.1998 416.6 80.3997 416.2 79.7997C415.9 79.5997 415.6 79.3996 415.2 79.1996C414.8 79.0996 414.4 78.9997 414.1 79.0997C413.5 79.0997 412.9 79.1998 412.4 79.4998C411.9 79.7998 411.4 80.1997 411.2 80.7997V93.1996H406.5V75.6996H410.8V75.7997Z" fill="white"/>
<path d="M433.2 93.6997C432 93.6997 430.9 93.5997 429.8 93.1997C428.7 92.7997 427.7 92.1997 426.9 91.3997C426.1 90.5997 425.4 89.5997 425 88.4997C424.6 87.3997 424.4 86.2997 424.4 85.0997V84.5997C424.4 82.9997 424.7 81.3997 425.4 79.8997C426 78.5997 427 77.4997 428.3 76.6997C429.6 75.8997 431.1 75.4997 432.6 75.5997C433.7 75.4997 434.7 75.6997 435.7 76.0997C436.7 76.4997 437.6 77.0997 438.3 77.8997C439.7 79.3997 440.4 81.5997 440.4 84.2997V86.1997H429.2C429.3 87.2997 429.8 88.1997 430.6 88.9997C431.4 89.6997 432.4 90.0997 433.5 89.9997C434.3 89.9997 435.1 89.8997 435.9 89.4997C436.6 89.1997 437.3 88.5997 437.8 87.9997L440.1 90.5997C439.4 91.5997 438.4 92.3997 437.3 92.8997C435.9 93.3997 434.5 93.6997 433.2 93.6997ZM432.6 79.2997C432.2 79.2997 431.8 79.3997 431.4 79.4997C431 79.6997 430.7 79.8997 430.4 80.1997C429.8 80.9997 429.4 81.8997 429.3 82.8997H435.8V82.4997C435.8 81.5997 435.5 80.7997 435 80.0997C434.7 79.7997 434.3 79.5997 433.9 79.3997C433.5 79.2997 433 79.2997 432.6 79.2997Z" fill="white"/>
<path d="M449.3 86.7008L452.5 75.8008H457.5L450.5 96.0008L450.1 96.9008C449.7 97.9008 449 98.8008 448.1 99.4008C447.2 100.001 446.1 100.301 445 100.301C444.3 100.301 443.6 100.201 442.9 100.001V96.5008H443.6C444.3 96.5008 445 96.4008 445.6 96.1008C446.1 95.8008 446.4 95.3008 446.6 94.8008L447.2 93.4008L441.1 75.8008H446.1L449.3 86.7008Z" fill="white"/>
</g>
</g>
<defs>
<clipPath id="clip0_37944_14594">
<rect width="469" height="122" fill="white"/>
</clipPath>
</defs>
</svg>