<svg xmlns="http://www.w3.org/2000/svg" width="366" height="90" viewBox="0 0 366 90" fill="none">
<g clip-path="url(#clip0_37944_14532)">
<path fill-rule="evenodd" clip-rule="evenodd" d="M82.0128 63.9503H67.0997V61.3848C69.8579 61.1325 70.7283 60.4127 70.7283 58.1056V33.3548C70.7283 30.9924 70.0602 30.1249 68.3807 30.1249C67.921 30.1249 67.3081 30.1741 66.7441 30.2233V27.664L77.005 25H79.6652V37.5569C79.6652 40.1162 78.7457 42.934 78.1818 44.2198L78.5925 44.3736C80.2781 39.8086 83.3367 37.1939 87.6826 37.1939C92.6842 37.1939 95.9022 39.7102 95.9022 45.5487V57.8534C95.9022 60.4681 97.0239 61.231 99.5248 61.3848V63.9503H84.5136V61.3848C86.3034 61.3848 86.9654 60.4681 86.9654 58.1056V46.4716C86.9654 43.9614 85.6905 42.5772 83.5942 42.5772C81.5531 42.5772 80.3762 43.2416 79.6652 44.5767V58.1056C79.6652 60.7203 80.2229 61.231 82.0128 61.3848V63.9503ZM60.4173 28.0759C61.9007 28.0759 62.6669 27.8667 62.9733 27.0485H65.2229V40.1714H62.4094C61.7474 34.019 60.0618 31.6627 55.1582 31.6627H53.8342V55.0292C53.8342 60.2094 54.9559 60.8739 60.0128 61.1323V63.9501H38.2101V61.1323C43.365 60.8739 44.3886 60.1049 44.3886 55.0292V31.6627H43.0585C38.1549 31.6627 36.4693 34.019 35.8073 40.1714H33V27.0485H35.2495C35.5499 27.8667 36.3161 28.0759 37.7994 28.0759H60.4173ZM117.095 57.6995C113.368 57.6995 110.199 55.3924 109.488 49.7015H125.879C125.879 40.836 120.718 37.1938 114.49 37.1938C106.828 37.1938 102.084 42.9893 102.084 51.6518C102.084 59.0284 107.392 64.5655 114.49 64.5655C121.999 64.5655 124.959 59.2868 125.879 55.7L123.782 54.6234C122.299 56.4691 120.718 57.6995 117.095 57.6995ZM113.215 39.9624C115.918 39.9624 116.789 42.3187 116.789 46.7299H109.335C109.384 41.6543 110.812 39.9624 113.215 39.9624ZM158.367 64.3847H140.395V61.5669C144.477 61.1055 145.293 60.1826 145.293 55.4638V37.4252C145.293 32.6079 144.373 31.7897 140.395 31.3283V28.5105H158.367C171.288 28.5105 178.692 35.2227 178.692 46.4445C178.692 57.6725 171.288 64.3847 158.367 64.3847ZM154.738 59.2106C154.738 60.3364 155.406 61.3085 156.632 61.3085H157.343C164.65 61.3085 168.168 56.3374 168.168 46.4445C168.168 36.5516 164.65 31.5805 157.343 31.5805H154.738V59.2106ZM197.535 58.1341C193.809 58.1341 190.64 55.827 189.929 50.1361H206.319C206.319 41.2706 201.158 37.6284 194.93 37.6284C187.269 37.6284 182.524 43.4239 182.524 52.0864C182.524 59.463 187.832 65.0001 194.93 65.0001C202.439 65.0001 205.4 59.7214 206.319 56.1346L204.223 55.0579C202.739 56.9036 201.158 58.1341 197.535 58.1341ZM193.655 40.397C196.359 40.397 197.229 42.7533 197.229 47.1645H189.776C189.825 42.0888 191.253 40.397 193.655 40.397ZM213.003 36.8102C213.003 31.6853 215.713 25.127 225.207 25.127C227.61 25.127 230.215 25.7422 231.95 26.7143V33.5802H229.24C228.579 31.2731 226.997 29.329 223.932 29.329C221.327 29.329 219.593 30.8671 219.593 33.6356C219.593 35.1183 220.206 37.1178 221.481 38.2437H228.07V41.3198H221.94V58.4417C221.94 61.4133 223.522 61.7701 227.15 61.8194V64.3849H209.381V61.8194C212.133 61.7209 213.003 60.9027 213.003 58.5402V41.3198H209.381V39.3757L213.003 38.2437V36.8102ZM238.433 35.3275C241.344 35.3275 243.385 33.1742 243.385 30.3503C243.385 27.5325 241.344 25.4346 238.433 25.4346C235.521 25.4346 233.48 27.5325 233.48 30.3503C233.48 33.1742 235.521 35.3275 238.433 35.3275ZM246.45 61.8194C243.949 61.6656 242.821 60.9027 242.821 58.2879V38.2437H239.659L229.906 41.2706V43.83C230.519 43.7808 231.23 43.7316 231.641 43.7316C233.118 43.7808 233.885 44.599 233.885 46.5985V58.5402C233.885 60.9027 233.02 61.6656 230.262 61.8194V64.3849H246.45V61.8194ZM273.817 59.7706C274.535 59.7706 275.098 59.3645 275.552 58.7493L277.14 60.029C275.963 63.462 272.849 65.0001 269.986 65.0001C266.977 65.0001 264.881 63.7204 263.912 60.595H263.501C262.331 63.8742 259.468 65.0001 256.256 65.0001C252.425 65.0001 249.005 62.8468 249.005 58.0787C249.005 53.7229 252.781 50.7021 259.315 49.4716L263.348 48.7026V47.7797C263.348 44.5006 261.718 42.9071 258.451 42.9071C255.337 42.9071 253.29 44.4452 252.015 46.7031L249.771 45.6264C250.893 41.1168 254.926 37.6284 261.307 37.6284C269.22 37.6284 272.285 42.0396 272.285 49.2132V57.7711C272.285 59.1062 272.898 59.7706 273.817 59.7706ZM257.838 56.2884C257.838 58.7985 259.315 60.1336 261.258 60.1336C262.177 60.1336 262.888 59.826 263.348 59.1554V51.1635L261.822 51.5203C259.315 52.1356 257.838 53.7229 257.838 56.2884ZM310.888 61.8193C308.387 61.6655 307.259 60.9026 307.259 58.2879V45.934C307.259 40.2432 304.096 37.6284 299.144 37.6284C294.7 37.6284 291.739 40.2985 290.054 45.2142L289.594 45.0604C290.054 43.7807 290.409 42.4457 290.409 41.2706V38.2436H287.246L278.414 41.4736V44.0391C278.874 43.9838 279.536 43.9345 279.995 43.9345C281.166 43.9345 282.085 44.599 282.085 45.934V58.5401C282.085 60.9026 281.221 61.6655 278.463 61.8193V64.3848H293.37V61.8193C291.586 61.6655 291.022 61.1549 291.022 58.5401V45.4726C291.69 44.1929 292.861 43.0117 294.804 43.0117C297.201 43.0117 298.329 44.5006 298.329 47.1153V58.5401C298.329 60.9026 297.66 61.8193 295.877 61.8193V64.3848H310.888V61.8193ZM333 60.7976C331.112 62.6925 327.637 64.9996 323.91 64.9996C318.651 64.9996 315.843 62.231 315.843 56.0787V41.3193H312.166V39.5782C316.456 36.5021 319.828 33.6351 323.352 30.3005H324.78V38.2432H331.216V41.3193H324.78V54.7991C324.78 58.1336 326.208 59.6717 328.814 59.6717C330.144 59.6717 331.314 59.1549 331.927 58.7981L333 60.7976Z" fill="white"/>
<path fill-rule="evenodd" clip-rule="evenodd" d="M7 0H0V90H7H359H366V0H359H7ZM359 7H7V83H359V7Z" fill="white"/>
</g>
<defs>
<clipPath id="clip0_37944_14532">
<rect width="366" height="90" fill="white"/>
</clipPath>
</defs>
</svg>