<svg width="485" height="227" viewBox="0 0 485 227" fill="none" xmlns="http://www.w3.org/2000/svg">
<g filter="url(#filter0_d_28784_16453)">
<rect x="181" y="14" width="123" height="32" rx="16" fill="url(#paint0_linear_28784_16453)" fill-opacity="0.1" shape-rendering="crispEdges"/>
<rect x="181.5" y="14.5" width="122" height="31" rx="15.5" stroke="url(#paint1_linear_28784_16453)" stroke-opacity="0.3" shape-rendering="crispEdges"/>
<g clip-path="url(#clip0_28784_16453)">
<path d="M197.574 37.4268L197.574 35.0751L207.496 26.8786L205.842 26.862L208.423 24.8657L206.174 24.8534L208.677 23.8306L208.133 23.3575C209.223 22.8458 210.339 22.6676 212.372 22.6475L212.373 22.6476C212.363 24.0505 212.011 25.5002 211.477 26.6067L211.086 25.8016L209.722 29.0821L209.463 26.8116L207.783 29.0048L207.964 27.2678L199.683 37.4268L197.574 37.4268ZM202.222 37.4268L207.509 29.5238L204.277 37.4268L202.222 37.4268ZM206.076 37.4268L207.662 31.6799L207.739 37.4268L206.076 37.4268L206.076 37.4268ZM197.574 32.9974L197.574 30.4049L205.132 27.3026L197.574 32.9975L197.574 32.9974ZM197.574 28.5821L197.574 26.7885L203.872 26.9384L197.574 28.5821L197.574 28.5821ZM208.735 26.1693C210.028 25.9351 211.281 24.9332 211.645 23.3803C210.685 23.5525 209.992 23.8988 209.525 24.3721C209.065 24.838 208.806 25.4356 208.735 26.1693Z" fill="url(#paint2_linear_28784_16453)"/>
</g>
<path d="M225.072 31.284V31.634C225.072 32.4087 224.845 33.034 224.393 33.51C223.94 33.986 223.338 34.224 222.587 34.224C221.84 34.224 221.238 33.986 220.781 33.51C220.328 33.034 220.102 32.4087 220.102 31.634V25.866C220.102 25.0867 220.328 24.4613 220.781 23.99C221.238 23.514 221.84 23.276 222.587 23.276C223.338 23.276 223.94 23.514 224.393 23.99C224.845 24.4613 225.072 25.0867 225.072 25.866V26.216H224.022V25.866C224.022 25.404 223.891 25.033 223.63 24.753C223.368 24.4683 223.021 24.326 222.587 24.326C222.153 24.326 221.805 24.4683 221.544 24.753C221.282 25.033 221.152 25.404 221.152 25.866V31.634C221.152 32.096 221.282 32.4693 221.544 32.754C221.805 33.034 222.153 33.174 222.587 33.174C223.021 33.174 223.368 33.034 223.63 32.754C223.891 32.4693 224.022 32.096 224.022 31.634V31.284H225.072ZM229.027 34.168C228.551 34.168 228.134 34.0653 227.774 33.86C227.415 33.6547 227.133 33.3677 226.927 32.999C226.722 32.6257 226.619 32.1917 226.619 31.697V28.694C226.619 28.2087 226.722 27.7817 226.927 27.413C227.133 27.0397 227.415 26.7503 227.774 26.545C228.134 26.335 228.551 26.23 229.027 26.23C229.741 26.23 230.318 26.4563 230.756 26.909C231.195 27.3617 231.414 27.9567 231.414 28.694V31.697C231.414 32.4343 231.195 33.0317 230.756 33.489C230.318 33.9417 229.741 34.168 229.027 34.168ZM229.027 33.153C229.452 33.153 229.786 33.0223 230.028 32.761C230.276 32.4997 230.399 32.1567 230.399 31.732V28.659C230.399 28.2343 230.276 27.8937 230.028 27.637C229.786 27.3757 229.452 27.245 229.027 27.245C228.603 27.245 228.264 27.3757 228.012 27.637C227.76 27.8937 227.634 28.2343 227.634 28.659V31.732C227.634 32.1567 227.76 32.4997 228.012 32.761C228.264 33.0223 228.603 33.153 229.027 33.153ZM233.327 34V26.405H234.342V27.413L234.174 27.196C234.347 26.888 234.578 26.65 234.867 26.482C235.161 26.314 235.504 26.23 235.896 26.23C236.372 26.23 236.787 26.3513 237.142 26.594C237.497 26.8367 237.746 27.1937 237.891 27.665L237.646 27.637C237.791 27.203 238.026 26.86 238.353 26.608C238.684 26.356 239.09 26.23 239.571 26.23C239.982 26.23 240.346 26.321 240.663 26.503C240.98 26.685 241.23 26.951 241.412 27.301C241.599 27.6463 241.692 28.064 241.692 28.554V34H240.677V28.659C240.677 28.2343 240.556 27.8937 240.313 27.637C240.075 27.3757 239.758 27.245 239.361 27.245C238.955 27.245 238.628 27.3757 238.381 27.637C238.138 27.8937 238.017 28.2343 238.017 28.659V34H237.002V28.659C237.002 28.2343 236.881 27.8937 236.638 27.637C236.4 27.3757 236.083 27.245 235.686 27.245C235.28 27.245 234.953 27.3757 234.706 27.637C234.463 27.8937 234.342 28.2343 234.342 28.659V34H233.327ZM243.735 34V26.405H244.75V34H243.735ZM243.735 25.558V23.92H244.75V25.558H243.735ZM246.882 34V26.405H247.897V27.42L247.722 27.217C247.9 26.8997 248.135 26.657 248.429 26.489C248.723 26.3163 249.066 26.23 249.458 26.23C250.093 26.23 250.604 26.4493 250.991 26.888C251.379 27.3267 251.572 27.917 251.572 28.659V34H250.557V28.659C250.557 28.2343 250.436 27.8937 250.193 27.637C249.955 27.3757 249.638 27.245 249.241 27.245C248.835 27.245 248.509 27.3757 248.261 27.637C248.019 27.8937 247.897 28.2343 247.897 28.659V34H246.882ZM255.649 36.562C254.94 36.562 254.363 36.3333 253.92 35.876C253.481 35.4233 253.262 34.826 253.262 34.084V33.902H254.277V34.119C254.277 34.5437 254.398 34.8867 254.641 35.148C254.888 35.414 255.224 35.547 255.649 35.547C256.074 35.547 256.412 35.414 256.664 35.148C256.916 34.8867 257.042 34.5437 257.042 34.119V32.033L257.217 32.257C257.044 32.551 256.813 32.7797 256.524 32.943C256.239 33.1063 255.899 33.188 255.502 33.188C255.087 33.188 254.711 33.097 254.375 32.915C254.039 32.7283 253.773 32.453 253.577 32.089C253.381 31.725 253.283 31.2793 253.283 30.752V28.659C253.283 28.1363 253.381 27.6953 253.577 27.336C253.773 26.972 254.039 26.6967 254.375 26.51C254.711 26.3233 255.087 26.23 255.502 26.23C255.899 26.23 256.239 26.314 256.524 26.482C256.813 26.6453 257.044 26.8717 257.217 27.161L257.042 27.392V26.405H258.057V34.091C258.057 34.5857 257.954 35.0173 257.749 35.386C257.544 35.7593 257.261 36.0487 256.902 36.254C256.543 36.4593 256.125 36.562 255.649 36.562ZM255.684 32.173C256.113 32.173 256.447 32.0447 256.685 31.788C256.923 31.5267 257.042 31.1837 257.042 30.759V28.659C257.042 28.2343 256.923 27.8937 256.685 27.637C256.447 27.3757 256.113 27.245 255.684 27.245C255.25 27.245 254.909 27.3757 254.662 27.637C254.419 27.8937 254.298 28.2343 254.298 28.659V30.752C254.298 31.1767 254.419 31.5197 254.662 31.781C254.909 32.0423 255.25 32.173 255.684 32.173ZM265.356 34.168C264.632 34.168 264.051 33.9603 263.613 33.545C263.179 33.125 262.962 32.572 262.962 31.886V31.641H263.977V31.928C263.977 32.2967 264.1 32.593 264.348 32.817C264.6 33.041 264.931 33.153 265.342 33.153C265.738 33.153 266.053 33.041 266.287 32.817C266.52 32.593 266.637 32.2687 266.637 31.844C266.637 31.5687 266.583 31.3587 266.476 31.214C266.373 31.0647 266.224 30.9527 266.028 30.878C265.832 30.8033 265.594 30.738 265.314 30.682C264.852 30.584 264.443 30.4767 264.089 30.36C263.734 30.2387 263.456 30.0473 263.256 29.786C263.06 29.5247 262.962 29.135 262.962 28.617C262.962 27.8423 263.174 27.252 263.599 26.846C264.028 26.4353 264.59 26.23 265.286 26.23C266.009 26.23 266.583 26.44 267.008 26.86C267.437 27.2753 267.652 27.8237 267.652 28.505V28.743H266.637V28.47C266.637 28.0967 266.515 27.8003 266.273 27.581C266.035 27.357 265.71 27.245 265.3 27.245C264.898 27.245 264.576 27.3593 264.334 27.588C264.096 27.812 263.977 28.1363 263.977 28.561C263.977 28.8363 264.028 29.0487 264.131 29.198C264.238 29.3427 264.392 29.45 264.593 29.52C264.793 29.59 265.034 29.6553 265.314 29.716C265.771 29.8093 266.175 29.9167 266.525 30.038C266.875 30.1593 267.15 30.353 267.351 30.619C267.551 30.885 267.652 31.2793 267.652 31.802C267.652 32.5627 267.442 33.1483 267.022 33.559C266.606 33.965 266.051 34.168 265.356 34.168ZM271.597 34.168C271.121 34.168 270.703 34.0653 270.344 33.86C269.985 33.6547 269.702 33.3677 269.497 32.999C269.292 32.6257 269.189 32.1917 269.189 31.697V28.694C269.189 28.2087 269.292 27.7817 269.497 27.413C269.702 27.0397 269.985 26.7503 270.344 26.545C270.703 26.335 271.121 26.23 271.597 26.23C272.311 26.23 272.887 26.4563 273.326 26.909C273.765 27.3617 273.984 27.9567 273.984 28.694V31.697C273.984 32.4343 273.765 33.0317 273.326 33.489C272.887 33.9417 272.311 34.168 271.597 34.168ZM271.597 33.153C272.022 33.153 272.355 33.0223 272.598 32.761C272.845 32.4997 272.969 32.1567 272.969 31.732V28.659C272.969 28.2343 272.845 27.8937 272.598 27.637C272.355 27.3757 272.022 27.245 271.597 27.245C271.172 27.245 270.834 27.3757 270.582 27.637C270.33 27.8937 270.204 28.2343 270.204 28.659V31.732C270.204 32.1567 270.33 32.4997 270.582 32.761C270.834 33.0223 271.172 33.153 271.597 33.153ZM278.081 34.168C277.605 34.168 277.187 34.0653 276.828 33.86C276.468 33.6547 276.186 33.3677 275.981 32.999C275.775 32.6257 275.673 32.1917 275.673 31.697V28.694C275.673 28.2087 275.775 27.7817 275.981 27.413C276.186 27.0397 276.468 26.7503 276.828 26.545C277.187 26.335 277.605 26.23 278.081 26.23C278.795 26.23 279.371 26.4563 279.81 26.909C280.248 27.3617 280.468 27.9567 280.468 28.694V31.697C280.468 32.4343 280.248 33.0317 279.81 33.489C279.371 33.9417 278.795 34.168 278.081 34.168ZM278.081 33.153C278.505 33.153 278.839 33.0223 279.082 32.761C279.329 32.4997 279.453 32.1567 279.453 31.732V28.659C279.453 28.2343 279.329 27.8937 279.082 27.637C278.839 27.3757 278.505 27.245 278.081 27.245C277.656 27.245 277.318 27.3757 277.066 27.637C276.814 27.8937 276.688 28.2343 276.688 28.659V31.732C276.688 32.1567 276.814 32.4997 277.066 32.761C277.318 33.0223 277.656 33.153 278.081 33.153ZM282.381 34V26.405H283.396V27.42L283.221 27.217C283.398 26.8997 283.634 26.657 283.928 26.489C284.222 26.3163 284.565 26.23 284.957 26.23C285.591 26.23 286.102 26.4493 286.49 26.888C286.877 27.3267 287.071 27.917 287.071 28.659V34H286.056V28.659C286.056 28.2343 285.934 27.8937 285.692 27.637C285.454 27.3757 285.136 27.245 284.74 27.245C284.334 27.245 284.007 27.3757 283.76 27.637C283.517 27.8937 283.396 28.2343 283.396 28.659V34H282.381Z" fill="url(#paint3_linear_28784_16453)"/>
</g>
<path d="M4.96094 159V76.9688H47.6172V84.8203H12.9297V114.234H36.6016V122.086H12.9297V151.148H47.6172V159H4.96094ZM54.4141 84.7031V76.9688H105.156V84.7031H83.7109V159H75.7422V84.7031H54.4141ZM112.07 159V76.9688H154.727V84.8203H120.039V114.234H143.711V122.086H120.039V151.148H154.727V159H112.07ZM164.219 159V76.9688H172.188V159H164.219ZM177.812 122.789V115.406H191.758C199.414 115.406 203.789 111.734 204.883 104.391C205.039 103.062 205.117 101.617 205.117 100.055C205.117 91.0703 201.523 85.9141 194.336 84.5859C192.852 84.2734 191.25 84.1172 189.531 84.1172H177.812V76.9688H191.641C205.781 77.6719 212.891 85.25 212.969 99.7031C212.891 109.156 210.195 115.602 204.883 119.039C209.805 121.305 212.656 125.836 213.438 132.633C213.516 133.023 213.555 133.336 213.555 133.57L215.547 159H207.93L206.172 138.141C205.625 131.109 203.867 126.617 200.898 124.664C198.789 123.336 196.016 122.711 192.578 122.789H177.812ZM223.75 159V92.5547H224.688L231.719 103.922V159H223.75ZM223.75 82.0078V76.9688H230.781L275.898 149.039V159H271.914L223.75 82.0078ZM267.93 126.656V76.9688H275.898V138.258H274.961L267.93 126.656ZM284.453 159L300.156 89.3906H302.148L304.961 102.398L292.305 159H284.453ZM300.977 144.82L302.617 137.086H318.203L304.961 77.0859H312.93L331.211 159H323.242L320.195 144.82H300.977ZM339.18 159V76.9688H347.148V151.148H383.242V159H339.18ZM417.109 159L432.812 89.3906H434.805L437.617 102.398L424.961 159H417.109ZM433.633 144.82L435.273 137.086H450.859L437.617 77.0859H445.586L463.867 159H455.898L452.852 144.82H433.633ZM471.953 159V76.9688H479.922V159H471.953Z" fill="white"/>
<path opacity="0.7" d="M124.112 220V202H128.192C129.48 202 130.512 202.408 131.288 203.224C132.064 204.032 132.452 205.104 132.452 206.44V215.56C132.452 216.888 132.064 217.96 131.288 218.776C130.512 219.592 129.48 220 128.192 220H124.112ZM125.912 218.2H128.192C128.936 218.2 129.532 217.96 129.98 217.48C130.428 216.992 130.652 216.352 130.652 215.56V206.44C130.652 205.648 130.428 205.012 129.98 204.532C129.532 204.044 128.936 203.8 128.192 203.8H125.912V218.2ZM139.659 220.288C138.843 220.288 138.127 220.112 137.511 219.76C136.895 219.408 136.411 218.916 136.059 218.284C135.707 217.644 135.531 216.9 135.531 216.052V210.904C135.531 210.072 135.707 209.34 136.059 208.708C136.411 208.068 136.895 207.572 137.511 207.22C138.127 206.86 138.843 206.68 139.659 206.68C140.883 206.68 141.871 207.068 142.623 207.844C143.375 208.62 143.751 209.64 143.751 210.904V213.748H136.923V212.068H142.011V210.844C142.011 210.116 141.799 209.532 141.375 209.092C140.959 208.644 140.387 208.42 139.659 208.42C138.931 208.42 138.351 208.644 137.919 209.092C137.487 209.532 137.271 210.116 137.271 210.844V216.112C137.271 216.84 137.487 217.428 137.919 217.876C138.351 218.324 138.931 218.548 139.659 218.548C140.387 218.548 140.959 218.324 141.375 217.876C141.799 217.428 142.011 216.84 142.011 216.112V215.812H143.751V216.052C143.751 217.316 143.375 218.34 142.623 219.124C141.871 219.9 140.883 220.288 139.659 220.288ZM150.44 220.288C149.624 220.288 148.908 220.112 148.292 219.76C147.676 219.408 147.192 218.916 146.84 218.284C146.488 217.644 146.312 216.9 146.312 216.052V210.904C146.312 210.072 146.488 209.34 146.84 208.708C147.192 208.068 147.676 207.572 148.292 207.22C148.908 206.86 149.624 206.68 150.44 206.68C151.664 206.68 152.652 207.068 153.404 207.844C154.156 208.62 154.532 209.64 154.532 210.904V211.144H152.792V210.844C152.792 210.116 152.58 209.532 152.156 209.092C151.74 208.644 151.168 208.42 150.44 208.42C149.712 208.42 149.132 208.644 148.7 209.092C148.268 209.532 148.052 210.116 148.052 210.844V216.112C148.052 216.84 148.268 217.428 148.7 217.876C149.132 218.324 149.712 218.548 150.44 218.548C151.168 218.548 151.74 218.324 152.156 217.876C152.58 217.428 152.792 216.84 152.792 216.112V215.812H154.532V216.052C154.532 217.316 154.156 218.34 153.404 219.124C152.652 219.9 151.664 220.288 150.44 220.288ZM160.87 220.288C160.054 220.288 159.338 220.112 158.722 219.76C158.106 219.408 157.622 218.916 157.27 218.284C156.918 217.644 156.742 216.9 156.742 216.052V210.904C156.742 210.072 156.918 209.34 157.27 208.708C157.622 208.068 158.106 207.572 158.722 207.22C159.338 206.86 160.054 206.68 160.87 206.68C162.094 206.68 163.082 207.068 163.834 207.844C164.586 208.62 164.962 209.64 164.962 210.904V213.748H158.134V212.068H163.222V210.844C163.222 210.116 163.01 209.532 162.586 209.092C162.17 208.644 161.598 208.42 160.87 208.42C160.142 208.42 159.562 208.644 159.13 209.092C158.698 209.532 158.482 210.116 158.482 210.844V216.112C158.482 216.84 158.698 217.428 159.13 217.876C159.562 218.324 160.142 218.548 160.87 218.548C161.598 218.548 162.17 218.324 162.586 217.876C163.01 217.428 163.222 216.84 163.222 216.112V215.812H164.962V216.052C164.962 217.316 164.586 218.34 163.834 219.124C163.082 219.9 162.094 220.288 160.87 220.288ZM167.907 220V206.98H169.647V208.72L169.347 208.372C169.651 207.828 170.055 207.412 170.559 207.124C171.063 206.828 171.651 206.68 172.323 206.68C173.411 206.68 174.287 207.056 174.951 207.808C175.615 208.56 175.947 209.572 175.947 210.844V220H174.207V210.844C174.207 210.116 173.999 209.532 173.583 209.092C173.175 208.644 172.631 208.42 171.951 208.42C171.255 208.42 170.695 208.644 170.271 209.092C169.855 209.532 169.647 210.116 169.647 210.844V220H167.907ZM184.088 220.144C182.848 220.144 181.852 219.752 181.1 218.968C180.356 218.176 179.984 217.116 179.984 215.788V208.6H177.644V206.956H179.984V203.68H181.724V206.956H184.964V208.6H181.724V215.788C181.724 216.58 181.94 217.216 182.372 217.696C182.804 218.168 183.376 218.404 184.088 218.404H184.964V220.144H184.088ZM187.173 220V206.98H188.913V208.852L188.613 208.492C188.917 207.956 189.321 207.544 189.825 207.256C190.329 206.968 190.913 206.824 191.577 206.824H192.141V208.564H191.217C190.521 208.564 189.961 208.78 189.537 209.212C189.121 209.644 188.913 210.224 188.913 210.952V220H187.173ZM196.922 220.288C195.722 220.288 194.794 219.956 194.138 219.292C193.482 218.628 193.154 217.788 193.154 216.772C193.154 216.14 193.27 215.616 193.502 215.2C193.734 214.776 194.03 214.432 194.39 214.168C194.758 213.904 195.146 213.692 195.554 213.532C196.042 213.332 196.538 213.176 197.042 213.064C197.554 212.944 198.026 212.82 198.458 212.692C198.89 212.556 199.238 212.372 199.502 212.14C199.766 211.908 199.898 211.58 199.898 211.156V210.844C199.898 210.116 199.678 209.532 199.238 209.092C198.806 208.644 198.23 208.42 197.51 208.42C196.782 208.42 196.206 208.644 195.782 209.092C195.366 209.532 195.158 210.116 195.158 210.844V211.204H193.418V210.904C193.418 209.64 193.794 208.62 194.546 207.844C195.298 207.068 196.286 206.68 197.51 206.68C198.318 206.68 199.03 206.86 199.646 207.22C200.27 207.572 200.758 208.064 201.11 208.696C201.462 209.328 201.638 210.064 201.638 210.904V220H199.898V218.2L200.186 218.584C199.882 219.128 199.454 219.548 198.902 219.844C198.35 220.14 197.69 220.288 196.922 220.288ZM197.282 218.632C198.098 218.632 198.738 218.404 199.202 217.948C199.666 217.484 199.898 216.824 199.898 215.968V213.664C199.41 213.968 198.866 214.176 198.266 214.288C197.666 214.392 197.094 214.536 196.55 214.72C196.07 214.88 195.674 215.108 195.362 215.404C195.05 215.692 194.894 216.104 194.894 216.64C194.894 217.224 195.102 217.704 195.518 218.08C195.934 218.448 196.522 218.632 197.282 218.632ZM204.845 220V202H206.585V220H204.845ZM210.001 220V206.98H211.741V220H210.001ZM210.001 205.528V202.72H211.741V205.528H210.001ZM214.029 220V218.632L220.209 208.024L220.617 208.72H214.173V206.98H221.961V208.336L215.853 218.968L215.433 218.26H221.817V220H214.029ZM227.971 220.288C227.155 220.288 226.439 220.112 225.823 219.76C225.207 219.408 224.723 218.916 224.371 218.284C224.019 217.644 223.843 216.9 223.843 216.052V210.904C223.843 210.072 224.019 209.34 224.371 208.708C224.723 208.068 225.207 207.572 225.823 207.22C226.439 206.86 227.155 206.68 227.971 206.68C229.195 206.68 230.183 207.068 230.935 207.844C231.687 208.62 232.063 209.64 232.063 210.904V213.748H225.235V212.068H230.323V210.844C230.323 210.116 230.111 209.532 229.687 209.092C229.271 208.644 228.699 208.42 227.971 208.42C227.243 208.42 226.663 208.644 226.231 209.092C225.799 209.532 225.583 210.116 225.583 210.844V216.112C225.583 216.84 225.799 217.428 226.231 217.876C226.663 218.324 227.243 218.548 227.971 218.548C228.699 218.548 229.271 218.324 229.687 217.876C230.111 217.428 230.323 216.84 230.323 216.112V215.812H232.063V216.052C232.063 217.316 231.687 218.34 230.935 219.124C230.183 219.9 229.195 220.288 227.971 220.288ZM238.477 220.288C237.765 220.288 237.121 220.132 236.545 219.82C235.977 219.5 235.525 219.028 235.189 218.404C234.853 217.78 234.685 217.016 234.685 216.112V210.844C234.685 209.948 234.853 209.192 235.189 208.576C235.525 207.952 235.977 207.48 236.545 207.16C237.121 206.84 237.765 206.68 238.477 206.68C239.165 206.68 239.753 206.824 240.241 207.112C240.737 207.392 241.129 207.78 241.417 208.276L241.129 208.672V202H242.869V220H241.129V218.308L241.417 218.692C241.129 219.196 240.737 219.588 240.241 219.868C239.753 220.148 239.165 220.288 238.477 220.288ZM238.801 218.548C239.537 218.548 240.109 218.328 240.517 217.888C240.925 217.44 241.129 216.852 241.129 216.124V210.844C241.129 210.116 240.921 209.532 240.505 209.092C240.097 208.644 239.525 208.42 238.789 208.42C238.053 208.42 237.473 208.644 237.049 209.092C236.633 209.532 236.425 210.116 236.425 210.844V216.112C236.425 216.84 236.633 217.428 237.049 217.876C237.473 218.324 238.057 218.548 238.801 218.548ZM250.359 220L254.271 202H256.191L260.091 220H258.231L257.463 216.4H252.987L252.219 220H250.359ZM253.323 214.6H257.127L255.087 204.58H255.375L253.323 214.6ZM264.662 220H262.862V202H264.662V220ZM277.354 220.288C276.538 220.288 275.822 220.112 275.206 219.76C274.59 219.408 274.106 218.916 273.754 218.284C273.402 217.644 273.226 216.9 273.226 216.052V210.904C273.226 210.072 273.402 209.34 273.754 208.708C274.106 208.068 274.59 207.572 275.206 207.22C275.822 206.86 276.538 206.68 277.354 206.68C278.578 206.68 279.566 207.068 280.318 207.844C281.07 208.62 281.446 209.64 281.446 210.904V216.052C281.446 217.316 281.07 218.34 280.318 219.124C279.566 219.9 278.578 220.288 277.354 220.288ZM277.354 218.548C278.082 218.548 278.654 218.324 279.07 217.876C279.494 217.428 279.706 216.84 279.706 216.112V210.844C279.706 210.116 279.494 209.532 279.07 209.092C278.654 208.644 278.082 208.42 277.354 208.42C276.626 208.42 276.046 208.644 275.614 209.092C275.182 209.532 274.966 210.116 274.966 210.844V216.112C274.966 216.84 275.182 217.428 275.614 217.876C276.046 218.324 276.626 218.548 277.354 218.548ZM284.485 220V206.98H286.225V208.72L285.925 208.372C286.229 207.828 286.633 207.412 287.137 207.124C287.641 206.828 288.229 206.68 288.901 206.68C289.989 206.68 290.865 207.056 291.529 207.808C292.193 208.56 292.525 209.572 292.525 210.844V220H290.785V210.844C290.785 210.116 290.577 209.532 290.161 209.092C289.753 208.644 289.209 208.42 288.529 208.42C287.833 208.42 287.273 208.644 286.849 209.092C286.433 209.532 286.225 210.116 286.225 210.844V220H284.485ZM301.323 220V202H305.763C306.947 202 307.891 202.372 308.595 203.116C309.307 203.86 309.663 204.848 309.663 206.08V207.544C309.663 208.296 309.523 208.968 309.243 209.56C308.963 210.144 308.575 210.608 308.079 210.952L308.043 210.328C308.611 210.656 309.063 211.132 309.399 211.756C309.735 212.372 309.903 213.088 309.903 213.904V215.92C309.903 217.136 309.547 218.12 308.835 218.872C308.131 219.624 307.187 220 306.003 220H301.323ZM303.123 218.2H306.003C306.643 218.2 307.151 217.992 307.527 217.576C307.911 217.152 308.103 216.6 308.103 215.92V213.904C308.103 213.224 307.911 212.676 307.527 212.26C307.151 211.836 306.643 211.624 306.003 211.624H303.123V218.2ZM303.123 209.824H305.763C306.403 209.824 306.911 209.616 307.287 209.2C307.671 208.784 307.863 208.232 307.863 207.544V206.08C307.863 205.392 307.671 204.84 307.287 204.424C306.911 204.008 306.403 203.8 305.763 203.8H303.123V209.824ZM313.173 220V206.98H314.913V220H313.173ZM313.173 205.528V202.72H314.913V205.528H313.173ZM323.213 220.144C321.973 220.144 320.977 219.752 320.225 218.968C319.481 218.176 319.109 217.116 319.109 215.788V208.6H316.769V206.956H319.109V203.68H320.849V206.956H324.089V208.6H320.849V215.788C320.849 216.58 321.065 217.216 321.497 217.696C321.929 218.168 322.501 218.404 323.213 218.404H324.089V220.144H323.213ZM330.042 220.288C329.226 220.288 328.51 220.112 327.894 219.76C327.278 219.408 326.794 218.916 326.442 218.284C326.09 217.644 325.914 216.9 325.914 216.052V210.904C325.914 210.072 326.09 209.34 326.442 208.708C326.794 208.068 327.278 207.572 327.894 207.22C328.51 206.86 329.226 206.68 330.042 206.68C331.266 206.68 332.254 207.068 333.006 207.844C333.758 208.62 334.134 209.64 334.134 210.904V211.144H332.394V210.844C332.394 210.116 332.182 209.532 331.758 209.092C331.342 208.644 330.77 208.42 330.042 208.42C329.314 208.42 328.734 208.644 328.302 209.092C327.87 209.532 327.654 210.116 327.654 210.844V216.112C327.654 216.84 327.87 217.428 328.302 217.876C328.734 218.324 329.314 218.548 330.042 218.548C330.77 218.548 331.342 218.324 331.758 217.876C332.182 217.428 332.394 216.84 332.394 216.112V215.812H334.134V216.052C334.134 217.316 333.758 218.34 333.006 219.124C332.254 219.9 331.266 220.288 330.042 220.288ZM340.471 220.288C339.655 220.288 338.939 220.112 338.323 219.76C337.707 219.408 337.223 218.916 336.871 218.284C336.519 217.644 336.343 216.9 336.343 216.052V210.904C336.343 210.072 336.519 209.34 336.871 208.708C337.223 208.068 337.707 207.572 338.323 207.22C338.939 206.86 339.655 206.68 340.471 206.68C341.695 206.68 342.683 207.068 343.435 207.844C344.187 208.62 344.563 209.64 344.563 210.904V216.052C344.563 217.316 344.187 218.34 343.435 219.124C342.683 219.9 341.695 220.288 340.471 220.288ZM340.471 218.548C341.199 218.548 341.771 218.324 342.187 217.876C342.611 217.428 342.823 216.84 342.823 216.112V210.844C342.823 210.116 342.611 209.532 342.187 209.092C341.771 208.644 341.199 208.42 340.471 208.42C339.743 208.42 339.163 208.644 338.731 209.092C338.299 209.532 338.083 210.116 338.083 210.844V216.112C338.083 216.84 338.299 217.428 338.731 217.876C339.163 218.324 339.743 218.548 340.471 218.548ZM347.602 220V206.98H349.342V220H347.602ZM347.602 205.528V202.72H349.342V205.528H347.602ZM352.759 220V206.98H354.499V208.72L354.199 208.372C354.503 207.828 354.907 207.412 355.411 207.124C355.915 206.828 356.503 206.68 357.175 206.68C358.263 206.68 359.139 207.056 359.803 207.808C360.467 208.56 360.799 209.572 360.799 210.844V220H359.059V210.844C359.059 210.116 358.851 209.532 358.435 209.092C358.027 208.644 357.483 208.42 356.803 208.42C356.107 208.42 355.547 208.644 355.123 209.092C354.707 209.532 354.499 210.116 354.499 210.844V220H352.759Z" fill="white"/>
<defs>
<filter id="filter0_d_28784_16453" x="167" y="0" width="151" height="60" filterUnits="userSpaceOnUse" color-interpolation-filters="sRGB">
<feFlood flood-opacity="0" result="BackgroundImageFix"/>
<feColorMatrix in="SourceAlpha" type="matrix" values="0 0 0 0 0 0 0 0 0 0 0 0 0 0 0 0 0 0 127 0" result="hardAlpha"/>
<feMorphology radius="6" operator="erode" in="SourceAlpha" result="effect1_dropShadow_28784_16453"/>
<feOffset/>
<feGaussianBlur stdDeviation="10"/>
<feComposite in2="hardAlpha" operator="out"/>
<feColorMatrix type="matrix" values="0 0 0 0 0 0 0 0 0 0 0 0 0 0 0 0 0 0 0.12 0"/>
<feBlend mode="multiply" in2="BackgroundImageFix" result="effect1_dropShadow_28784_16453"/>
<feBlend mode="normal" in="SourceGraphic" in2="effect1_dropShadow_28784_16453" result="shape"/>
</filter>
<linearGradient id="paint0_linear_28784_16453" x1="215.167" y1="14" x2="215.167" y2="46" gradientUnits="userSpaceOnUse">
<stop stop-color="#00F5A0"/>
<stop offset="1"/>
</linearGradient>
<linearGradient id="paint1_linear_28784_16453" x1="181" y1="30" x2="304" y2="30" gradientUnits="userSpaceOnUse">
<stop stop-color="#00F5A0"/>
<stop offset="1" stop-color="#00D9F5"/>
</linearGradient>
<linearGradient id="paint2_linear_28784_16453" x1="197.574" y1="30.0371" x2="212.373" y2="30.0371" gradientUnits="userSpaceOnUse">
<stop stop-color="#00F5A0"/>
<stop offset="1" stop-color="#00D9F5"/>
</linearGradient>
<linearGradient id="paint3_linear_28784_16453" x1="219" y1="30" x2="288" y2="30" gradientUnits="userSpaceOnUse">
<stop stop-color="#00F5A0"/>
<stop offset="1" stop-color="#00D9F5"/>
</linearGradient>
<clipPath id="clip0_28784_16453">
<rect width="16" height="16" fill="white" transform="matrix(1 -8.74228e-08 -8.74228e-08 -1 197 38)"/>
</clipPath>
</defs>
</svg>
