<svg xmlns="http://www.w3.org/2000/svg" width="466" height="130" viewBox="0 0 466 130" fill="none">
<path d="M189.7 121.4H193.2C198 121.2 199.7 119.2 199.7 114.2V60.1996C199.7 53.8996 198.2 51.8996 193.2 51.5996H190.5V49.3996H226.8V57.3996C232.9 49.3996 238.2 46.5996 247.5 46.5996C262.3 46.5996 271.2 54.6996 271.2 68.4996V114C271.2 119.8 271.8 121 275.7 121.3H280.2V123.5H236.7V121.3H239.5C241.8 121.1 243.2 119 243.2 115.5V63.4996C243.2 55.9996 241.2 52.4996 237.2 52.4996C231.7 52.4996 227.4 57.9996 227.4 65.0996V116.1C227.4 120.1 228 121.1 230.4 121.2H233.5V123.4H189.5V121.4H189.7Z" fill="black"/>
<path d="M352.5 81.7006C353.9 93.6006 350 104.101 340.8 113.701C334.1 120.901 326.4 125.001 318.4 125.901C299.1 128.201 277.6 111.701 275.3 92.9006C272.5 69.8006 288 49.4006 310.2 46.7006C330.5 44.4006 349.9 60.4006 352.5 81.7006ZM322.7 85.6006L320.8 69.4006C319.9 61.7006 317.8 54.2006 315.6 51.4006C314.4 49.5006 311.6 48.4006 309.4 48.6006C306.4 49.0006 303.4 51.8006 302.7 55.1006C301.5 60.1006 301.8 63.9006 304.9 90.1006C308.1 117.001 311.2 124.801 318.1 124.001C320.7 123.701 323.4 121.701 324.1 119.601C325.5 116.301 325.4 108.201 324.1 97.0006L322.7 85.6006Z" fill="black"/>
<path d="M340.2 49.5H382.7V51.7H381.9C379.9 51.7 378.9 52.5 378.9 54.2C378.9 54.9 379.1 55.7 379.4 56.7L390.5 97.9L397.8 70.2L393.5 54.6C393 53.1 390.7 51.8 388.5 51.8H386.8V49.6H428.1V51.8H427.1H426.3C423.5 51.8 422.8 52.1 422.8 53.6C422.8 54.3 423 55.4 423.3 56.8L434.2 98L441.2 73.9C442.2 70.6 442.7 67.3 442.7 63.8C442.7 59.3 441.7 55.7 439.9 53.3C438.7 52 438.4 51.8 435.3 51.8H431.5V49.6H461.5V51.8H458C452.9 51.3 448.9 57.1 443.4 73.9L428.1 125.1H413.3L398.7 73.9L384.8 125.1H370.2L351.8 59.6C349.8 53.3 348.3 51.8 343.8 51.8H340.1V49.5H340.2Z" fill="black"/>
<path d="M4.1001 121.5H7.5001C12.2001 121.3 13.8001 119.4 13.8001 114.5V61.4996C13.8001 55.2996 12.3001 53.2996 7.5001 52.9996H5.0001V50.8996H40.6001V58.6996C46.6001 50.8996 51.8001 48.0996 60.9001 48.0996C75.4001 48.0996 84.2001 56.0996 84.2001 69.5996V114.2C84.2001 119.9 84.8001 121 88.6001 121.4H93.0001V123.5H50.3001V121.4H53.1001C55.4001 121.2 56.7001 119.1 56.7001 115.7V64.6996C56.7001 57.3996 54.8001 53.8996 50.9001 53.8996C45.5001 53.8996 41.3001 59.2996 41.3001 66.2996V116.3C41.3001 120.2 41.9001 121.2 44.2001 121.4H47.3001V123.5H4.1001V121.5Z" fill="black"/>
<path d="M83.7 121.501H89C93.1 121.501 94.5 120.201 94.7 116.401V53.2008H86.9V50.9008H94.7V40.8008C94.7 31.2008 98.3 24.8008 106.1 20.8008C114.2 16.7008 124.8 14.3008 134.9 14.3008C148.4 14.3008 157.8 21.0008 157.8 30.8008C157.8 39.3008 151.6 45.8008 143.3 45.8008C135.3 45.8008 129 39.8008 129 32.0008C129 28.6008 130.3 25.0008 132.6 22.5008C134.5 20.2008 137.5 18.9008 143.3 18.1008C139.6 17.3008 137.8 16.9008 135.8 16.9008C127.7 16.9008 123.4 21.1008 123.4 29.4008V50.9008H138.4V53.2008H123.4V114.001C123.4 117.901 125.3 121.301 127.8 121.501H136.9V123.601H83.7V121.501Z" fill="black"/>
<path d="M179.2 99.7992C179.2 117.699 171.9 126.499 156.9 126.499C150.6 126.499 144.9 124.499 141.9 121.399C139.3 118.499 138 113.399 138 106.099V52.9992L130.2 52.8992V50.8992C130.4 50.8992 131 50.9992 131.4 50.9992C131.9 50.9992 132.3 51.0992 132.4 51.0992C142 51.1992 152.6 46.1992 159.2 38.3992C162.6 34.2992 163.9 30.8992 164.2 24.1992H165.8V50.8992H178V52.9992H166V110.799C166 116.699 167.2 119.599 169.6 119.599C170.8 119.599 173.2 117.599 174.3 115.699C176.7 111.499 177.4 107.899 177.4 96.4992H179.2V99.7992Z" fill="black"/>
<path d="M130.7 50.9C130.7 51 133.1 50.8 133.2 50.8C133.8 50.8 134.4 50.7 135 50.7C136.9 50.5 138.9 50.1 140.8 49.7C145.8 48.5 150.7 46.4 154.7 43.1L154.8 43L154.7 51.2V52.9L130.6 53.2C130.7 53.2 130.7 50.9 130.7 50.9Z" fill="black"/>
<path d="M57.9 35.6004C54.9 40.9004 51.6 43.5004 48.2 43.5004C44.8 43.5004 41.3 40.9004 38.9 36.6004L23.2 8.10039L24.4 7.30039L48.7999 29.1004L72.3 6.40039L73.6999 6.80039L57.9 35.6004Z" fill="black"/>
</svg>