<svg xmlns="http://www.w3.org/2000/svg" width="954" height="310" viewBox="0 0 954 310" fill="none">
<g clip-path="url(#clip0_37944_14545)">
<path d="M274.4 0.800781H0.600098V274.601H274.4V0.800781Z" fill="white"/>
<path d="M183.2 92.1016H91.8999V183.402H183.2V92.1016Z" fill="#FF6D33"/>
<path d="M274.4 0.800781H183.1V92.1008H274.4V0.800781Z" fill="#FF4800"/>
<path d="M183.2 183.4H91.8999V274.7H183.2V183.4Z" fill="#FFA68A"/>
<path d="M323.3 148.601V40.8008H347.6L348.6 61.3008H349.8C352.9 53.7008 357.6 48.1008 364 44.4008C370.4 40.7008 377.4 38.8008 385.3 38.8008C390.7 38.8008 395.7 39.6008 400.4 41.3008C405.1 43.0008 409.1 45.6008 412.6 49.2008C416 52.8008 418.7 57.4008 420.7 63.2008C422.7 68.9008 423.6 75.9008 423.6 84.0008V148.701H398.3V89.5008C398.3 82.7008 397.5 77.2008 395.9 72.8008C394.3 68.4008 391.8 65.1008 388.5 63.0008C385.2 60.8008 380.9 59.8008 375.6 59.8008C369.9 59.8008 365.1 61.2008 361.1 63.9008C357.1 66.6008 354 70.2008 351.9 74.6008C349.7 79.1008 348.7 84.0008 348.7 89.4008V148.801H323.3V148.601Z" fill="white"/>
<path d="M452.4 148.601V61.3008H433.8V40.8008H452.4V27.0008C452.4 18.5008 455 12.0008 460.3 7.50078C465.6 3.00078 472.8 0.800781 482 0.800781H502.5V18.4008H489.1C484.6 18.4008 481.6 19.3008 480.1 21.2008C478.5 23.1008 477.8 25.7008 477.8 28.9008V40.7008H500.5V61.2008H477.8V148.601H452.4Z" fill="white"/>
<path d="M551.7 148.601C545.1 148.601 539.9 147.601 536.2 145.701C532.5 143.701 529.9 140.901 528.4 137.301C526.9 133.701 526.2 129.301 526.2 124.101V61.3008H506.3V40.8008H526.2V10.4008L551.3 7.80078V40.8008H574.2V61.3008H551.3V119.501C551.3 122.901 552 125.101 553.5 126.301C555 127.401 557.3 128.001 560.4 128.001H574.2V148.701H551.7V148.601Z" fill="white"/>
<path d="M369 275.201C359 275.201 350.3 273.001 343 268.501C335.6 264.001 329.9 257.701 325.9 249.501C321.8 241.301 319.8 231.801 319.8 221.001C319.8 209.901 321.8 200.301 325.7 192.101C329.6 183.901 335.2 177.601 342.5 173.001C349.8 168.501 358.5 166.201 368.6 166.201C379.5 166.201 388.6 168.601 395.9 173.501C403.1 178.401 408.3 185.101 411.5 193.601C414.7 202.101 415.8 211.701 414.8 222.401H331.7C331.8 231.501 333.5 239.201 336.6 245.501C339.7 251.901 344.1 256.701 349.7 260.101C355.3 263.501 361.8 265.201 369.1 265.201C378.2 265.201 385.6 263.101 391.5 258.801C397.4 254.501 401.1 248.901 402.8 241.901H414.6C413.5 248.701 410.9 254.501 406.7 259.401C402.5 264.301 397.2 268.201 390.8 271.001C384.2 273.801 377 275.201 369 275.201ZM331.9 214.801L330.5 213.601H404.5L403.3 215.401C403.4 206.601 402 199.401 399.1 193.601C396.2 187.901 392.1 183.501 386.8 180.601C381.5 177.701 375.4 176.201 368.4 176.201C361.2 176.201 355 177.801 349.6 180.901C344.3 184.001 340.1 188.401 337 194.201C334 200.001 332.3 206.801 331.9 214.801Z" fill="white"/>
<path d="M451.3 273.601L411.6 167.801H424.6L451.2 241.801L458.1 262.301H458.7L465.4 241.801L491.8 167.801H504.8L465.7 273.601H451.3Z" fill="white"/>
<path d="M550.4 275.201C540.4 275.201 531.7 273.001 524.4 268.501C517 264.001 511.3 257.701 507.3 249.501C503.2 241.301 501.2 231.801 501.2 221.001C501.2 209.901 503.2 200.301 507.1 192.101C511 183.901 516.6 177.601 523.9 173.001C531.2 168.501 539.9 166.201 550 166.201C560.9 166.201 570 168.601 577.3 173.501C584.5 178.401 589.7 185.101 592.9 193.601C596.1 202.101 597.2 211.701 596.2 222.401H513.1C513.2 231.501 514.9 239.201 518 245.501C521.1 251.901 525.5 256.701 531.1 260.101C536.7 263.501 543.2 265.201 550.5 265.201C559.6 265.201 567 263.101 572.9 258.801C578.8 254.501 582.5 248.901 584.2 241.901H596C594.9 248.701 592.3 254.501 588.1 259.401C583.9 264.301 578.6 268.201 572.2 271.001C565.6 273.801 558.4 275.201 550.4 275.201ZM513.3 214.801L511.9 213.601H585.9L584.7 215.401C584.8 206.601 583.4 199.401 580.5 193.601C577.6 187.901 573.5 183.501 568.2 180.601C562.9 177.701 556.8 176.201 549.8 176.201C542.6 176.201 536.4 177.801 531 180.901C525.7 184.001 521.5 188.401 518.4 194.201C515.5 200.001 513.7 206.801 513.3 214.801Z" fill="white"/>
<path d="M611.4 273.6V168H622.5L623.1 190.9H623.9C627.3 182.8 632.4 176.7 639.4 172.6C646.4 168.5 654 166.4 662.2 166.4C667.7 166.4 672.8 167.2 677.5 168.9C682.2 170.6 686.2 173.2 689.6 176.8C693 180.4 695.6 185 697.5 190.8C699.4 196.5 700.3 203.5 700.3 211.8V273.6H688.3V214C688.3 205.5 687.3 198.5 685.2 192.9C683.1 187.4 679.9 183.3 675.6 180.6C671.3 178 665.7 176.6 659 176.6C651.8 176.6 645.6 178.4 640.1 181.9C634.7 185.4 630.5 190.2 627.5 196.2C624.5 202.2 623 209.1 623 217V273.6H611.4Z" fill="white"/>
<path d="M722.1 149.101V125.801H734.1V149.101H722.1ZM722.1 273.601V168.001H734.1V273.601H722.1Z" fill="white"/>
<path d="M756.6 273.6V168H767.7L768.3 190.9H769.1C772.5 182.8 777.6 176.7 784.6 172.6C791.6 168.5 799.2 166.4 807.4 166.4C812.9 166.4 818 167.2 822.7 168.9C827.4 170.6 831.4 173.2 834.8 176.8C838.2 180.4 840.8 185 842.7 190.8C844.6 196.5 845.5 203.5 845.5 211.8V273.6H833.5V214C833.5 205.5 832.5 198.5 830.4 192.9C828.3 187.4 825.1 183.3 820.8 180.6C816.5 178 810.9 176.6 804.2 176.6C797 176.6 790.8 178.4 785.3 181.9C779.9 185.4 775.7 190.2 772.7 196.2C769.7 202.2 768.2 209.1 768.2 217V273.6H756.6Z" fill="white"/>
<path d="M906.4 309.501C898.8 309.501 892.1 308.401 886.3 306.101C880.5 303.801 875.8 300.601 872.2 296.401C868.6 292.201 866.4 287.101 865.4 281.201H877C877.8 285.001 879.5 288.301 882.1 291.201C884.7 294.101 888 296.301 892.1 297.801C896.2 299.301 901 300.001 906.4 300.001C913.6 300.001 919.7 299.001 924.8 296.901C929.9 294.801 934 291.401 936.9 286.701C939.8 282.001 941.3 275.501 941.3 267.201V243.701H940.3C937.7 250.901 933.1 256.701 926.5 261.101C919.9 265.601 912 267.801 902.8 267.801C896.2 267.801 890.2 266.701 884.9 264.401C879.6 262.101 875 258.701 871.2 254.301C867.4 249.801 864.5 244.501 862.5 238.201C860.5 231.901 859.5 224.901 859.5 217.201C859.5 206.801 861.3 197.801 865 190.101C868.6 182.501 873.7 176.601 880.3 172.501C886.9 168.401 894.5 166.301 903.3 166.301C912.5 166.301 920.3 168.501 926.8 172.801C933.3 177.101 937.8 182.901 940.4 190.201H941.4V168.001H953.2V266.901C953.2 274.601 952.1 281.201 949.8 286.601C947.5 292.001 944.3 296.401 940.2 299.801C936.1 303.201 931.1 305.601 925.4 307.201C919.4 308.701 913.1 309.501 906.4 309.501ZM906 257.801C913.4 257.801 919.7 256.101 925 252.701C930.2 249.301 934.2 245.001 937 239.601C939.8 234.301 941.2 228.801 941.4 223.301L941.2 210.301C941.2 204.901 939.9 199.601 937.2 194.301C934.6 189.001 930.6 184.701 925.4 181.301C920.2 177.901 913.9 176.201 906.4 176.201C899.2 176.201 893.1 177.801 887.9 181.101C882.7 184.301 878.7 189.001 875.9 195.201C873.1 201.401 871.7 208.601 871.7 217.001C871.7 225.501 873.1 232.801 876 238.901C878.8 245.001 882.8 249.601 888 252.901C893.1 256.101 899.1 257.801 906 257.801Z" fill="white"/>
</g>
<defs>
<clipPath id="clip0_37944_14545">
<rect width="954" height="310" fill="white"/>
</clipPath>
</defs>
</svg>