<svg xmlns="http://www.w3.org/2000/svg" width="250" height="38" viewBox="0 0 250 38" fill="none">
  <g clip-path="url(#clip0_37944_14581)">
    <path d="M35.7211 6.59423L19.2129 0.142322C18.5962 -0.0474406 18.4065 -0.0474406 17.7898 0.142322L1.28153 6.59423C0.61741 6.87888 0.475098 7.11608 0.475098 7.78025V29.8875C0.475098 30.5991 0.61741 30.7415 1.28153 31.0735L17.7898 37.8101C18.1218 37.9524 18.3116 37.9999 18.5488 37.9999C18.7385 37.9999 18.9757 37.9524 19.2603 37.8101L35.7685 31.0735C36.4327 30.8363 36.575 30.5991 36.575 29.8875V7.78025C36.5275 7.11608 36.3852 6.87888 35.7211 6.59423ZM32.3531 29.9824L18.5013 35.533L4.64959 29.9824L18.5013 25.0012L32.3531 29.9824ZM4.69703 7.68537L18.5013 2.41947L32.3056 7.68537L18.5013 12.7141L4.69703 7.68537ZM23.7669 22.9612C24.0515 22.8663 24.2413 22.5817 24.2413 22.297V15.4182C24.2413 15.1335 24.0515 14.8489 23.7669 14.754L21.9168 13.995L34.1557 9.4881V28.2271L21.9168 23.7203L23.7669 22.9612ZM21.8219 16.6042V21.111L18.5013 22.4394L15.2281 21.111V16.6042L18.5013 15.2758L21.8219 16.6042ZM13.2832 14.754C12.9986 14.8489 12.8088 15.1335 12.8088 15.4656V22.297C12.8088 22.5817 12.9986 22.8663 13.2832 22.9612L15.1333 23.7203L2.8944 28.2271V9.4881L15.1333 14.0424L13.2832 14.754Z" fill="white"/>
    <path d="M54.8001 30.8447H60.5544V11.7308H68.8663V7.1543H46.4546V11.7308H54.8001V30.8447Z" fill="white"/>
    <path d="M70.626 30.8447H76.3803V20.6484H87.2834V30.8447H93.0378V7.1543H87.2834V16.0382H76.3803V7.1543H70.626V30.8447Z" fill="white"/>
    <path d="M116.272 16.2401H103.048V11.7645H116.979V7.1543H97.2935V30.8447H116.979V26.2345H103.048V20.8503H116.272V16.2401Z" fill="white"/>
    <path d="M127.591 30.8447H140.48C146.301 30.8447 149.701 28.2535 149.701 23.7779C149.701 20.783 147.58 18.9995 145.292 18.2928C147.143 17.6198 148.825 16.0045 148.825 13.2452C148.825 9.91369 146.369 7.1543 140.715 7.1543H127.591V30.8447ZM133.245 16.4083V11.4616H139.538C141.523 11.4616 142.903 12.1683 142.903 13.9518C142.903 15.3988 142.061 16.4083 139.504 16.4083H133.245ZM133.245 20.7157H139.841C142.364 20.7157 143.643 21.6916 143.643 23.576C143.643 25.9316 141.961 26.571 139.74 26.571H133.245V20.7157Z" fill="white"/>
    <path d="M152.353 30.8447H170.592V26.2345H158.107V7.1543H152.353V30.8447Z" fill="white"/>
    <path d="M184.152 6.65039C176.109 6.65039 171.264 12.4047 171.264 18.933C171.264 25.8651 175.84 31.3503 183.883 31.3503C192.497 31.3503 196.872 25.495 196.872 18.8994C196.872 12.4384 192.43 6.65039 184.152 6.65039ZM183.984 11.1259C188.762 11.1259 190.815 14.7939 190.815 18.9667C190.815 22.8366 188.964 26.8747 184.219 26.8747C179.576 26.8747 177.321 23.3413 177.321 18.8657C177.321 14.8612 179.373 11.1259 183.984 11.1259Z" fill="white"/>
    <path d="M217.033 23.3077C216.091 25.596 214.61 26.9083 211.245 26.9083C206.568 26.9083 204.481 23.173 204.481 18.7984C204.481 14.4911 206.769 11.0923 211.211 11.0923C215.25 11.0923 216.528 13.2796 217.033 14.6257H222.855C222.148 10.6885 218.548 6.65039 211.279 6.65039C202.9 6.65039 198.424 12.5393 198.424 19.034C198.424 25.495 202.496 31.3503 210.976 31.3503C218.413 31.3503 221.711 27.4804 222.788 23.3077H217.033Z" fill="white"/>
    <path d="M224.895 30.8447H230.65V23.0039L233.645 20.5138L242.36 30.8447H249.494L237.75 17.3506L248.889 7.1543H241.856C237.346 11.3607 234.048 14.3556 230.65 17.5188V7.1543H224.895V30.8447Z" fill="white"/>
  </g>
  <defs>
    <clipPath id="clip0_37944_14581">
      <rect width="250" height="38" fill="white"/>
    </clipPath>
  </defs>
</svg>