<svg width="200" height="200" viewBox="0 0 200 200" fill="none" xmlns="http://www.w3.org/2000/svg">
<path d="M100 158.333C101.75 158.333 103.367 157.508 106.608 155.858L132.692 142.608C144.233 136.741 150 133.808 150 129.166V70.833M100 158.333C98.25 158.333 96.6333 157.508 93.3917 155.858L67.3083 142.608C55.7667 136.741 50 133.808 50 129.166V70.833M100 158.333V99.9997M150 70.833C150 66.1913 144.233 63.2497 132.692 57.3913L106.608 44.1413C103.367 42.4913 101.75 41.6663 100 41.6663C98.25 41.6663 96.6333 42.4913 93.3917 44.1413L67.3083 57.3913C55.7667 63.258 50 66.1913 50 70.833M150 70.833C150 75.4747 144.233 78.4163 132.692 84.2747L106.608 97.5247C103.367 99.1747 101.742 99.9997 100 99.9997M50 70.833C50 75.4747 55.7667 78.4163 67.3083 84.2747L93.3917 97.5247C96.6333 99.1747 98.2583 99.9997 100 99.9997" stroke="white" stroke-width="5" stroke-linecap="round" stroke-linejoin="round"/>
<path d="M109.917 179.8L149.033 160.866C166.342 152.5 175 148.3 175 141.666V58.333C175 51.6997 166.342 47.508 149.033 39.133L109.917 20.1997C105.05 17.8413 102.617 16.6663 100 16.6663C97.3833 16.6663 94.95 17.8413 90.0833 20.1997L50.9667 39.133C33.6583 47.4997 25 51.6997 25 58.333V141.666C25 148.3 33.6583 152.491 50.9667 160.866L90.0833 179.8C94.95 182.158 97.3833 183.333 100 183.333C102.617 183.333 105.05 182.158 109.917 179.8Z" stroke="white" stroke-opacity="0.3" stroke-width="5" stroke-linecap="round" stroke-linejoin="round"/>
</svg>
