<svg width="200" height="200" viewBox="0 0 200 200" fill="none" xmlns="http://www.w3.org/2000/svg">
<path d="M99.0604 25.1885L34.9453 62.8212V132.511L99.0604 172.235L162.479 132.511V62.8212L99.0604 25.1885Z" stroke="white" stroke-opacity="0.3" stroke-width="4"/>
<path d="M100.697 40.1585C108.061 40.1585 114.031 34.189 114.031 26.8252C114.031 19.4614 108.061 13.4919 100.697 13.4919C93.3335 13.4919 87.3639 19.4614 87.3639 26.8252C87.3639 34.189 93.3335 40.1585 100.697 40.1585Z" fill="white" stroke="#DD1E47" stroke-width="6.66667"/>
<path d="M100.697 186.508C108.061 186.508 114.031 180.539 114.031 173.175C114.031 165.811 108.061 159.841 100.697 159.841C93.3335 159.841 87.3639 165.811 87.3639 173.175C87.3639 180.539 93.3335 186.508 100.697 186.508Z" fill="#E7617E" stroke="#DD1E47" stroke-width="6.66667"/>
<path d="M36.582 77.7904C43.9458 77.7904 49.9154 71.8208 49.9154 64.457C49.9154 57.0932 43.9458 51.1237 36.582 51.1237C29.2182 51.1237 23.2487 57.0932 23.2487 64.457C23.2487 71.8208 29.2182 77.7904 36.582 77.7904Z" fill="#E7617E" stroke="#DD1E47" stroke-width="6.66667"/>
<path d="M36.582 147.482C43.9458 147.482 49.9154 141.512 49.9154 134.148C49.9154 126.785 43.9458 120.815 36.582 120.815C29.2182 120.815 23.2487 126.785 23.2487 134.148C23.2487 141.512 29.2182 147.482 36.582 147.482Z" fill="white" stroke="#DD1E47" stroke-width="6.66667"/>
<path d="M163.418 147.482C170.782 147.482 176.751 141.512 176.751 134.148C176.751 126.785 170.782 120.815 163.418 120.815C156.054 120.815 150.085 126.785 150.085 134.148C150.085 141.512 156.054 147.482 163.418 147.482Z" fill="white" stroke="#DD1E47" stroke-width="6.66667"/>
<path d="M163.418 77.7904C170.782 77.7904 176.751 71.8208 176.751 64.457C176.751 57.0932 170.782 51.1237 163.418 51.1237C156.054 51.1237 150.085 57.0932 150.085 64.457C150.085 71.8208 156.054 77.7904 163.418 77.7904Z" fill="#E7617E" stroke="#DD1E47" stroke-width="6.66667"/>
<circle opacity="0.3" cx="98" cy="98" r="42" stroke="white" stroke-width="4" stroke-dasharray="9.33 9.33"/>
<path d="M113.395 103.295L109.371 99.2717C109.211 99.1117 109.098 98.9117 109.043 98.6917L106.672 89.2067C106.068 86.795 104.095 84.97 101.641 84.5583L85.1082 81.785C84.2065 81.645 83.3282 81.93 82.6698 82.5516C82.6465 82.5716 82.6182 82.5784 82.5965 82.6C82.5748 82.6217 82.5665 82.6517 82.5465 82.675C81.9265 83.3333 81.6432 84.2133 81.7832 85.1283L84.5548 101.645C84.9665 104.097 86.7915 106.07 89.2032 106.673L98.6882 109.045C98.9082 109.1 99.1082 109.213 99.2698 109.373L103.292 113.395C103.843 113.947 104.575 114.25 105.353 114.25C106.133 114.25 106.865 113.947 107.415 113.395L113.392 107.418C114.533 106.282 114.533 104.432 113.395 103.295ZM87.0248 101.23L84.5165 86.2817L92.2798 94.045C92.2282 94.245 92.1932 94.45 92.1932 94.6667C92.1932 96.0467 93.3198 97.1667 94.7015 97.1667C96.0832 97.1667 97.2015 96.0467 97.2015 94.6667C97.2015 93.2867 96.0832 92.1667 94.7015 92.1667H94.6848C94.4582 92.1667 94.2415 92.2067 94.0332 92.2634L86.2865 84.5167L101.233 87.025C102.705 87.2717 103.888 88.3667 104.252 89.8134L106.62 99.2833L99.2865 106.617L89.8165 104.25C88.3665 103.887 87.2715 102.702 87.0248 101.23ZM111.628 105.652L105.652 111.628C105.44 111.84 105.277 111.84 105.063 111.628L101.435 108L108 101.435L111.628 105.063C111.79 105.225 111.79 105.488 111.628 105.652Z" fill="white"/>
</svg>
