<svg width="200" height="200" viewBox="0 0 200 200" fill="none" xmlns="http://www.w3.org/2000/svg">
<circle cx="28.3335" cy="96.512" r="10" fill="white" fill-opacity="0.3"/>
<circle cx="171.667" cy="96.512" r="10" fill="white" fill-opacity="0.3"/>
<circle cx="100" cy="28.3333" r="10" fill="white"/>
<circle cx="100" cy="171.667" r="10" fill="white"/>
<path opacity="0.3" fill-rule="evenodd" clip-rule="evenodd" d="M166.118 34.6537C166.768 35.3046 166.768 36.3599 166.118 37.0108L142.855 60.276V57.9192H140.498L163.761 34.6537C164.411 34.0028 165.467 34.0028 166.118 34.6537ZM60.2781 57.9192L37.0127 34.6538C36.3618 34.0029 35.3065 34.0029 34.6556 34.6538C34.0048 35.3046 34.0048 36.3599 34.6556 37.0108L57.9172 60.2724V57.9192H60.2781ZM57.9172 140.508L34.6556 163.772C34.0048 164.423 34.0048 165.478 34.6556 166.129C35.3064 166.78 36.3617 166.78 37.0125 166.129L60.2738 142.865H57.9172V140.508ZM140.51 142.865L163.767 166.122C164.418 166.773 165.473 166.773 166.124 166.122C166.775 165.471 166.775 164.416 166.124 163.765L142.855 140.496V142.865H140.51Z" fill="white"/>
<path d="M123.174 99.2817L101.623 69.1583C101.43 68.8897 101.177 68.6707 100.883 68.5195C100.589 68.3683 100.263 68.2893 99.933 68.289H99.928C99.5963 68.2897 99.2696 68.3695 98.975 68.5219C98.6803 68.6742 98.4263 68.8947 98.234 69.165L76.8214 99.2883C76.6 99.5998 76.4688 99.9662 76.4421 100.347C76.4154 100.728 76.4943 101.11 76.67 101.449C76.8448 101.789 77.11 102.073 77.4363 102.272C77.7627 102.471 78.1375 102.575 78.5196 102.575H88.5968L88.596 129.63C88.5959 129.903 88.6496 130.174 88.7542 130.427C88.8587 130.679 89.0121 130.908 89.2053 131.102C89.3986 131.295 89.6281 131.448 89.8806 131.553C90.1332 131.657 90.4038 131.711 90.6771 131.71L109.322 131.71C109.595 131.71 109.866 131.656 110.119 131.551C110.371 131.447 110.601 131.293 110.794 131.1C110.987 130.907 111.141 130.677 111.245 130.424C111.35 130.172 111.403 129.901 111.403 129.628V102.575H121.484C122.261 102.575 122.975 102.137 123.334 101.445C123.509 101.104 123.587 100.722 123.559 100.341C123.531 99.9591 123.398 99.5926 123.174 99.2817Z" fill="white"/>
</svg>
