<svg width="200" height="200" viewBox="0 0 200 200" fill="none" xmlns="http://www.w3.org/2000/svg">
<path d="M99.0599 25.1883L34.9448 62.821V132.511L99.0599 172.235L162.478 132.511V62.821L99.0599 25.1883Z" stroke="white" stroke-opacity="0.3" stroke-width="3"/>
<path d="M100.697 40.1586C108.061 40.1586 114.031 34.1891 114.031 26.8253C114.031 19.4615 108.061 13.492 100.697 13.492C93.3335 13.492 87.3639 19.4615 87.3639 26.8253C87.3639 34.1891 93.3335 40.1586 100.697 40.1586Z" fill="white" stroke="#8643FB" stroke-width="6.66667"/>
<path d="M100.697 186.508C108.061 186.508 114.031 180.539 114.031 173.175C114.031 165.811 108.061 159.841 100.697 159.841C93.3335 159.841 87.3639 165.811 87.3639 173.175C87.3639 180.539 93.3335 186.508 100.697 186.508Z" fill="white" stroke="#8643FB" stroke-width="6.66667"/>
<path d="M36.582 77.7905C43.9458 77.7905 49.9154 71.8209 49.9154 64.4572C49.9154 57.0934 43.9458 51.1238 36.582 51.1238C29.2182 51.1238 23.2487 57.0934 23.2487 64.4572C23.2487 71.8209 29.2182 77.7905 36.582 77.7905Z" fill="white" stroke="#8643FB" stroke-width="6.66667"/>
<path d="M36.582 147.481C43.9458 147.481 49.9154 141.512 49.9154 134.148C49.9154 126.784 43.9458 120.815 36.582 120.815C29.2182 120.815 23.2487 126.784 23.2487 134.148C23.2487 141.512 29.2182 147.481 36.582 147.481Z" fill="white" stroke="#8643FB" stroke-width="6.66667"/>
<path d="M163.418 147.481C170.782 147.481 176.752 141.512 176.752 134.148C176.752 126.784 170.782 120.815 163.418 120.815C156.055 120.815 150.085 126.784 150.085 134.148C150.085 141.512 156.055 147.481 163.418 147.481Z" fill="white" stroke="#8643FB" stroke-width="6.66667"/>
<path d="M163.418 77.7905C170.782 77.7905 176.751 71.8209 176.751 64.4572C176.751 57.0934 170.782 51.1238 163.418 51.1238C156.054 51.1238 150.085 57.0934 150.085 64.4572C150.085 71.8209 156.054 77.7905 163.418 77.7905Z" fill="white" stroke="#8643FB" stroke-width="6.66667"/>
<circle opacity="0.3" cx="98.3623" cy="98.3632" r="36.5379" stroke="white" stroke-width="3.33333" stroke-dasharray="3.33 3.33"/>
</svg>
