<svg width="200" height="200" viewBox="0 0 200 200" fill="none" xmlns="http://www.w3.org/2000/svg">
<circle cx="35" cy="35" r="10" transform="rotate(90 35 35)" fill="white" fill-opacity="0.3"/>
<circle cx="35" cy="100" r="10" transform="rotate(90 35 100)" fill="white" fill-opacity="0.3"/>
<circle cx="35" cy="165" r="10" transform="rotate(90 35 165)" fill="white" fill-opacity="0.3"/>
<circle cx="78.3335" cy="35" r="10" transform="rotate(90 78.3335 35)" fill="white" fill-opacity="0.3"/>
<circle cx="78.3335" cy="100" r="10" transform="rotate(90 78.3335 100)" fill="white" fill-opacity="0.3"/>
<circle cx="78.3335" cy="165" r="10" transform="rotate(90 78.3335 165)" fill="white" fill-opacity="0.3"/>
<circle cx="121.667" cy="35" r="9.16667" transform="rotate(90 121.667 35)" fill="white" stroke="white" stroke-width="1.66667"/>
<circle cx="121.667" cy="100" r="9.16667" transform="rotate(90 121.667 100)" fill="white" stroke="white" stroke-width="1.66667"/>
<circle cx="121.667" cy="165" r="9.16667" transform="rotate(90 121.667 165)" fill="white" stroke="white" stroke-width="1.66667"/>
<circle cx="165" cy="35" r="10" transform="rotate(90 165 35)" fill="white" fill-opacity="0.3"/>
<circle cx="165" cy="100" r="10" transform="rotate(90 165 100)" fill="white" fill-opacity="0.3"/>
<circle cx="165" cy="165" r="10" transform="rotate(90 165 165)" fill="white" fill-opacity="0.3"/>
</svg>
