<svg width="60" height="60" viewBox="0 0 60 60" fill="none" xmlns="http://www.w3.org/2000/svg">
<g clip-path="url(#clip0_30263_14529)">
<rect x="22.5" y="26.25" width="16.875" height="15" fill="#FA4E0E"/>
<g filter="url(#filter0_d_30263_14529)">
<path d="M38.9963 21.4432L32.8463 13.6957C33.3139 13.1515 33.6155 12.4845 33.7154 11.7739C33.8153 11.0633 33.7092 10.339 33.4097 9.68697C33.1103 9.03489 32.63 8.48242 32.026 8.09512C31.4219 7.70782 30.7195 7.50195 30.0019 7.50195C29.2844 7.50195 28.5819 7.70782 27.9778 8.09512C27.3738 8.48242 26.8935 9.03489 26.5941 9.68697C26.2946 10.339 26.1885 11.0633 26.2884 11.7739C26.3883 12.4845 26.6899 13.1515 27.1575 13.6957L21.0075 21.4432C20.7447 21.7758 20.3769 22.0095 19.9642 22.1062C19.5515 22.2029 19.1182 22.1569 18.735 21.9757L9.31879 17.5357C9.45682 16.7637 9.34932 15.9678 9.01141 15.2601C8.6735 14.5523 8.1222 13.9683 7.43506 13.5902C6.74793 13.2122 5.95955 13.059 5.18085 13.1524C4.40215 13.2458 3.67232 13.581 3.09405 14.1108C2.51579 14.6406 2.11818 15.3384 1.95718 16.1059C1.79619 16.8735 1.8799 17.6723 2.19655 18.3898C2.51319 19.1073 3.04683 19.7075 3.72238 20.1059C4.39794 20.5043 5.1814 20.6808 5.96254 20.6107L10.8375 44.9857C11.0505 46.0466 11.6239 47.0012 12.4606 47.6875C13.2972 48.3737 14.3455 48.7494 15.4275 48.7507H44.565C45.6489 48.7509 46.6994 48.3755 47.5376 47.6884C48.3759 47.0012 48.9501 46.0448 49.1625 44.982L54.0375 20.6107C54.8187 20.6808 55.6021 20.5043 56.2777 20.1059C56.9532 19.7075 57.4869 19.1073 57.8035 18.3898C58.1202 17.6723 58.2039 16.8735 58.0429 16.1059C57.8819 15.3384 57.4843 14.6406 56.906 14.1108C56.3277 13.581 55.5979 13.2458 54.8192 13.1524C54.0405 13.059 53.2521 13.2122 52.565 13.5902C51.8779 13.9683 51.3266 14.5523 50.9887 15.2601C50.6507 15.9678 50.5433 16.7637 50.6813 17.5357L41.2613 21.9757C40.8785 22.156 40.446 22.2014 40.0341 22.1047C39.6222 22.0081 39.2552 21.7749 38.9925 21.4432M30 37.5007C29.0055 37.5007 28.0516 37.1056 27.3484 36.4024C26.6451 35.6991 26.25 34.7453 26.25 33.7507C26.25 32.7562 26.6451 31.8023 27.3484 31.0991C28.0516 30.3958 29.0055 30.0007 30 30.0007C30.9946 30.0007 31.9484 30.3958 32.6517 31.0991C33.3549 31.8023 33.75 32.7562 33.75 33.7507C33.75 34.7453 33.3549 35.6991 32.6517 36.4024C31.9484 37.1056 30.9946 37.5007 30 37.5007Z" fill="url(#paint0_linear_30263_14529)"/>
</g>
</g>
<defs>
<filter id="filter0_d_30263_14529" x="-6.12268" y="3.50195" width="72.2455" height="57.248" filterUnits="userSpaceOnUse" color-interpolation-filters="sRGB">
<feFlood flood-opacity="0" result="BackgroundImageFix"/>
<feColorMatrix in="SourceAlpha" type="matrix" values="0 0 0 0 0 0 0 0 0 0 0 0 0 0 0 0 0 0 127 0" result="hardAlpha"/>
<feOffset dy="4"/>
<feGaussianBlur stdDeviation="4"/>
<feComposite in2="hardAlpha" operator="out"/>
<feColorMatrix type="matrix" values="0 0 0 0 0 0 0 0 0 0 0 0 0 0 0 0 0 0 0.16 0"/>
<feBlend mode="multiply" in2="BackgroundImageFix" result="effect1_dropShadow_30263_14529"/>
<feBlend mode="normal" in="SourceGraphic" in2="effect1_dropShadow_30263_14529" result="shape"/>
</filter>
<linearGradient id="paint0_linear_30263_14529" x1="1.87732" y1="28.1263" x2="58.1227" y2="28.1263" gradientUnits="userSpaceOnUse">
<stop stop-color="#FFE259"/>
<stop offset="1" stop-color="#FFA751"/>
</linearGradient>
<clipPath id="clip0_30263_14529">
<rect width="60" height="60" fill="white"/>
</clipPath>
</defs>
</svg>
