<svg width="312" height="78" viewBox="0 0 312 78" fill="none" xmlns="http://www.w3.org/2000/svg">
<ellipse cx="156" cy="39" rx="156" ry="39" fill="url(#paint0_linear_28747_4087)" fill-opacity="0.06"/>
<path d="M311.5 39C311.5 44.0989 307.354 49.0995 299.486 53.7501C291.652 58.3809 280.281 62.5686 266.187 66.0921C238.007 73.1372 199.05 77.5 156 77.5C112.95 77.5 73.993 73.1372 45.8126 66.0921C31.7186 62.5686 20.3483 58.3809 12.5137 53.7501C4.64552 49.0995 0.5 44.0989 0.5 39C0.5 33.9011 4.64552 28.9005 12.5137 24.2499C20.3483 19.6191 31.7186 15.4314 45.8126 11.9079C73.993 4.86281 112.95 0.5 156 0.5C199.05 0.5 238.007 4.86281 266.187 11.9079C280.281 15.4314 291.652 19.6191 299.486 24.2499C307.354 28.9005 311.5 33.9011 311.5 39Z" stroke="url(#paint1_linear_28747_4087)" stroke-opacity="0.08"/>
<defs>
<linearGradient id="paint0_linear_28747_4087" x1="156" y1="78" x2="156" y2="39" gradientUnits="userSpaceOnUse">
<stop stop-color="#4DB5EA"/>
<stop offset="0.245" stop-color="#4DB5EA" stop-opacity="0.53"/>
<stop offset="1" stop-color="#4DB5EA" stop-opacity="0"/>
</linearGradient>
<linearGradient id="paint1_linear_28747_4087" x1="156" y1="78" x2="156" y2="15.8017" gradientUnits="userSpaceOnUse">
<stop stop-color="#4DB5EA"/>
<stop offset="1" stop-color="#4DB5EA" stop-opacity="0"/>
</linearGradient>
</defs>
</svg>
