<svg width="22" height="25" viewBox="0 0 22 25" fill="none" xmlns="http://www.w3.org/2000/svg">
    <path d="M17.9078 2.44884C16.3272 1.1445 14.1635 0.5 11.4014 0.5H4.52672V1.46675H11.2786C13.6264 1.46675 15.7441 1.94245 17.0484 3.078C18.3528 4.21354 19.3195 5.87083 19.3195 7.92709C19.3195 9.92197 18.4602 11.3798 17.1252 12.5C15.7901 13.6202 13.3656 14.1112 10.9564 14.1112H3.20703V15.078H11.0178C13.918 15.078 16.1891 14.4488 17.831 13.1905C19.4576 11.9322 20.2863 10.1522 20.2863 7.86571C20.2863 5.53324 19.4883 3.73784 17.9078 2.44884Z" fill="#1C1E1D"/>
    <path d="M17.3223 3.83085C16.3402 3.07893 15.22 2.48047 12.0282 2.48047H6.71875V3.41653C6.71875 3.41653 9.09726 3.38584 11.9054 3.41653C14.6215 3.44722 15.619 3.75412 16.5397 4.42931C17.7059 5.28865 18.4425 6.36281 18.4425 7.8513C18.4425 9.29375 17.7059 10.3065 16.5244 11.1812C15.3274 12.0712 13.486 12.0712 12.7341 12.1019C12.4579 12.1019 8.79036 12.1019 8.79036 12.1019V13.038C8.79036 13.038 10.6011 13.0687 11.7366 13.038C14.3146 12.9766 15.8492 12.8232 17.2763 11.7643C18.6113 10.7669 19.3172 9.46255 19.3172 7.80526C19.3172 5.62624 18.2123 4.53673 17.3223 3.83085Z" fill="#1C1E1D"/>
    <path d="M16.8477 5.0739C16.1111 4.61355 15.4666 4.30664 12.4129 4.30664H8.59195V4.92045H12.3055C15.0063 4.92045 16.019 5.39615 16.3413 5.59564C16.9551 5.96393 17.7531 6.57774 17.7531 7.80535C17.7531 8.58796 17.2927 9.5854 16.6022 9.96903C15.973 10.322 14.8221 10.6442 12.8119 10.6442H0.351562V11.258H12.8426C15.2825 11.258 16.1111 10.9818 16.9704 10.5061C17.8298 10.0304 18.4129 9.04832 18.4129 7.80535C18.4129 6.39359 17.6303 5.56495 16.8477 5.0739Z" fill="#1C1E1D"/>
    <path d="M19.271 11.8707C17.6905 10.5664 15.5268 9.92188 12.7647 9.92188H8.1611V10.8886H12.6266C14.9744 10.8886 17.092 11.3797 18.3964 12.4999C19.7007 13.6201 20.6828 15.2927 20.6828 17.349C20.6828 19.3438 19.8388 20.8016 18.4884 21.9218C17.1381 23.042 14.7289 23.5331 12.3197 23.5331H4.57031V24.4998H12.381C15.2813 24.4998 17.5524 23.8707 19.1943 22.6124C20.8363 21.3541 21.6496 19.574 21.6496 17.2876C21.6342 14.9705 20.8516 13.1751 19.271 11.8707Z" fill="#1C1E1D"/>
    <path d="M18.69 13.2508C17.7079 12.5142 16.5877 11.9004 13.3959 11.9004H6.18359V12.8365C6.18359 12.8365 10.4649 12.8058 13.2731 12.8365C15.9892 12.8671 16.9866 13.174 17.9073 13.8492C19.0736 14.7086 19.8102 15.7827 19.8102 17.2712C19.8102 18.7137 19.0736 19.7265 17.892 20.6011C16.6951 21.4912 14.8537 21.4912 14.1017 21.5219C13.8255 21.5219 10.158 21.5219 10.158 21.5219V22.4579C10.158 22.4579 11.9841 22.4886 13.1043 22.4579C15.6823 22.3965 17.2168 22.2431 18.6439 21.1843C19.979 20.1868 20.6848 18.8825 20.6848 17.2252C20.6848 15.0615 19.5953 13.9567 18.69 13.2508Z" fill="#1C1E1D"/>
    <path d="M7.71875 16.4436H14.486V15.9219H7.71875V16.4436Z" fill="#1C1E1D"/>
    <path d="M10.5117 18.2692H14.4401V17.8242H10.5117V18.2692Z" fill="#1C1E1D"/>
    <path d="M4.57031 16.4436H6.56519V15.9219H4.57031V16.4436Z" fill="#1C1E1D"/>
    <path d="M3.3125 18.301H9.40456V17.7793H3.3125V18.301Z" fill="#1C1E1D"/>
    <path d="M4.81641 4.87303H7.19492V4.44336H4.81641V4.87303Z" fill="#1C1E1D"/>
    <path d="M3.17578 8.37191H8.59265V7.88086H3.17578V8.37191Z" fill="#1C1E1D"/>
    <path d="M3.3125 22.397H9.03627V21.7832H3.3125V22.397Z" fill="#1C1E1D"/>
    <path d="M1.90234 24.4386H3.32945V23.5332H1.90234V24.4386Z" fill="#1C1E1D"/>
    <path d="M5.46094 6.83675H14.4532V6.3457H5.46094V6.83675Z" fill="#1C1E1D"/>
    <path d="M9.95703 8.37191H14.2844V7.88086H9.95703V8.37191Z" fill="#1C1E1D"/>
    <path d="M18.2149 14.5859C17.4783 14.1409 16.8338 13.834 13.7801 13.834H8.93101V14.4324H13.688C16.3888 14.4324 17.4169 14.8928 17.7238 15.0769C18.3223 15.4299 19.1356 16.013 19.1356 17.2099C19.1356 17.9772 18.6752 18.9286 17.9847 19.2969C17.3555 19.6345 16.2046 19.9414 14.1944 19.9414H1.71875V20.5399H14.2098C16.6497 20.5399 17.4783 20.279 18.3376 19.8186C19.197 19.3583 19.7647 18.4222 19.7647 17.2099C19.7801 15.8749 18.9975 15.0769 18.2149 14.5859Z" fill="#1C1E1D"/>
</svg>
