<svg width="41" height="24" viewBox="0 0 41 24" fill="none" xmlns="http://www.w3.org/2000/svg">
<g clip-path="url(#clip0_33022_14045)">
<path d="M39.3548 16.9094L30.9308 2.2836C29.0923 -0.762296 24.5644 -0.789737 22.7808 2.42082L13.9449 17.6229C12.2985 20.4218 14.3291 23.9068 17.6494 23.9068H35.4034C38.7238 23.9342 41.2209 20.3121 39.3548 16.9094Z" fill="#003087"/>
<path d="M27.1989 18.0612L26.6775 17.1556C26.1836 16.305 25.1134 14.4939 25.1134 14.4939L17.9789 2.09081C16.1403 -0.653247 11.7499 -0.900216 9.91134 2.58474L1.59685 16.9636C-0.131905 19.982 1.92614 23.906 5.65807 23.9335H23.3023H30.821H35.2939C30.7387 23.9609 29.2844 21.5736 27.1989 18.0612Z" fill="#1877F2"/>
<path d="M27.1984 18.0071L26.6771 17.1015C26.1832 16.2509 25.113 14.4398 25.113 14.4398L20.503 6.31738L13.8898 17.6229C12.2433 20.4218 14.2739 23.9068 17.5943 23.9068H23.2744H30.7932H35.2935C30.7109 23.8794 29.284 21.5469 27.1984 18.0071Z" fill="url(#paint0_linear_33022_14045)"/>
</g>
<defs>
<linearGradient id="paint0_linear_33022_14045" x1="11.5295" y1="12.4991" x2="32.0295" y2="20.0745" gradientUnits="userSpaceOnUse">
<stop stop-color="#003087" stop-opacity="0"/>
<stop offset="1" stop-color="#003087"/>
</linearGradient>
<clipPath id="clip0_33022_14045">
<rect width="39.0698" height="24" fill="white" transform="translate(0.965332)"/>
</clipPath>
</defs>
</svg>
