<svg width="21" height="25" viewBox="0 0 21 25" fill="none" xmlns="http://www.w3.org/2000/svg">
    <path d="M20.89 6.5203V12.5133L15.6989 9.51678L10.5078 6.50624L15.713 3.52382L20.9041 0.527344L20.89 6.5203Z" fill="#072B38"/>
    <path d="M10.4955 12.5008V18.4937L5.30437 15.4973L0.113281 12.4867L5.30437 9.50429L10.4955 6.50781V12.5008Z" fill="#144556"/>
    <path d="M0.113281 6.49296V0.5L5.30437 3.49648L10.4955 6.49296L5.30437 9.50351L0.113281 12.4859V6.49296Z" fill="#41D9BF"/>
    <path d="M0.0976562 18.4793L0.111725 12.4863L5.30281 15.4969L10.4939 18.4934L5.30281 21.4898L0.0976562 24.4722V18.4793Z" fill="#072B38"/>
    <path d="M15.6989 9.51836L10.5078 6.50781V12.5008V18.4937L15.6848 21.5043L20.8759 24.5008V18.5078L20.89 12.5148L15.6989 9.51836Z" fill="#41D9BF"/>
</svg>
