<svg width="21" height="25" viewBox="0 0 21 25" fill="none" xmlns="http://www.w3.org/2000/svg">
    <mask id="mask0_29046_8438" style="mask-type:luminance" maskUnits="userSpaceOnUse" x="0" y="0" width="21" height="25">
        <path d="M20.0625 0.5H0.9375V24.5H20.0625V0.5Z" fill="white"/>
    </mask>
    <g mask="url(#mask0_29046_8438)">
        <path d="M14.4284 2.65914L19.4356 7.53715C19.8618 7.95148 20.0716 8.37073 20.065 8.79321C20.0583 9.21568 19.875 9.60077 19.5165 9.95012C19.1415 10.3157 18.7368 10.501 18.304 10.5091C17.8711 10.5156 17.4416 10.3109 17.0154 9.89653L11.8943 4.90802C11.3128 4.34095 10.7511 3.93958 10.2109 3.70396C9.67066 3.46835 9.10239 3.43098 8.50768 3.59347C7.91131 3.75434 7.27201 4.16869 6.58644 4.8349C5.64151 5.75623 5.1905 6.62068 5.23678 7.42828C5.28301 8.23585 5.75218 9.07431 6.64261 9.94041L11.8051 14.9711C12.2362 15.3904 12.4476 15.8096 12.4411 16.2256C12.4345 16.6432 12.2494 17.0283 11.8843 17.3841C11.5209 17.7383 11.1195 17.9236 10.6833 17.9382C10.2472 17.9528 9.81275 17.7497 9.38323 17.3305L4.37608 12.4525C3.56165 11.6596 2.97354 10.9088 2.61176 10.2004C2.24997 9.49191 2.11451 8.69083 2.20868 7.79713C2.29293 7.0318 2.54237 6.29083 2.95868 5.57263C3.37332 4.8544 3.96804 4.11994 4.73952 3.36761C5.65801 2.47228 6.53521 1.78657 7.37113 1.30884C8.20539 0.831115 9.01318 0.566253 9.79291 0.511006C10.5743 0.455759 11.3441 0.608501 12.1057 0.969231C12.8673 1.32996 13.6404 1.89218 14.4268 2.65914H14.4284Z" fill="url(#paint0_linear_29046_8438)"/>
        <path d="M6.57255 22.3427L1.56706 17.4647C1.14085 17.0487 0.931043 16.6311 0.937651 16.2086C0.944259 15.7861 1.12763 15.401 1.48611 15.0516C1.86111 14.6861 2.26585 14.5008 2.69866 14.4927C3.13148 14.4862 3.561 14.6893 3.98721 15.1053L9.10669 20.0938C9.68985 20.6609 10.2499 21.0622 10.7901 21.2978C11.3303 21.5334 11.8986 21.5692 12.4949 21.4083C13.0913 21.2475 13.7306 20.8331 14.4162 20.1653C15.3611 19.2439 15.8121 18.3795 15.7659 17.5719C15.7196 16.7643 15.2504 15.9258 14.36 15.0582L11.6095 12.4014C11.1783 11.9822 10.9668 11.5629 10.9734 11.147C10.98 10.7294 11.1651 10.3443 11.5302 9.98843C11.8936 9.63417 12.295 9.44896 12.7311 9.43433C13.1673 9.41971 13.6017 9.62281 14.0313 10.0421L16.6249 12.546C17.4393 13.339 18.0274 14.0897 18.3892 14.7982C18.751 15.5066 18.8864 16.3077 18.7923 17.2014C18.708 17.9667 18.4586 18.7077 18.0423 19.4259C17.6276 20.1441 17.0329 20.8786 16.2614 21.6309C15.3429 22.5263 14.4657 23.212 13.6298 23.6897C12.7939 24.1674 11.9861 24.4339 11.2047 24.4892C10.4233 24.5444 9.65351 24.3917 8.89196 24.0309C8.13037 23.6702 7.35724 23.108 6.5709 22.341L6.57255 22.3427Z" fill="url(#paint1_linear_29046_8438)"/>
        <path d="M9.69413 9.75573C10.7096 9.75573 11.5328 8.94603 11.5328 7.94718C11.5328 6.94837 10.7096 6.13867 9.69413 6.13867C8.67867 6.13867 7.85547 6.94837 7.85547 7.94718C7.85547 8.94603 8.67867 9.75573 9.69413 9.75573Z" fill="url(#paint2_radial_29046_8438)"/>
    </g>
    <defs>
        <linearGradient id="paint0_linear_29046_8438" x1="18.612" y1="5.50108" x2="3.18013" y2="12.4733" gradientUnits="userSpaceOnUse">
            <stop stop-color="#201C1B"/>
            <stop offset="0.36" stop-color="#77390D"/>
            <stop offset="0.67" stop-color="#EA8101"/>
            <stop offset="1" stop-color="#F4B852"/>
        </linearGradient>
        <linearGradient id="paint1_linear_29046_8438" x1="2.81781" y1="19.7017" x2="20.7507" y2="14.2756" gradientUnits="userSpaceOnUse">
            <stop stop-color="#1F1D1C"/>
            <stop offset="0.37" stop-color="#77390D"/>
            <stop offset="0.67" stop-color="#EA8101"/>
            <stop offset="1" stop-color="#F4FB52"/>
        </linearGradient>
        <radialGradient id="paint2_radial_29046_8438" cx="0" cy="0" r="1" gradientUnits="userSpaceOnUse" gradientTransform="translate(9.69413 7.94883) scale(1.83866 1.80853)">
            <stop stop-color="#F4B852"/>
            <stop offset="0.33" stop-color="#EA8101"/>
            <stop offset="0.64" stop-color="#77390D"/>
            <stop offset="1" stop-color="#211C1D"/>
        </radialGradient>
    </defs>
</svg>
