<svg width="22" height="25" viewBox="0 0 22 25" fill="none" xmlns="http://www.w3.org/2000/svg">
    <g clip-path="url(#clip0_29046_8426)">
        <path d="M8.75207 5.96112C8.49201 5.92397 8.47963 5.91158 8.60347 5.8992C8.83876 5.86205 9.38365 5.91158 9.76755 5.99827C10.6592 6.2088 11.4641 6.75369 12.3186 7.70725L12.5415 7.96731L12.8635 7.91778C14.2381 7.69486 15.6499 7.86824 16.8264 8.41313C17.1484 8.56174 17.6561 8.85895 17.718 8.93325C17.7428 8.95802 17.7799 9.11901 17.8047 9.28C17.8914 9.86205 17.8542 10.2955 17.6685 10.6298C17.5694 10.8156 17.5694 10.8651 17.6313 11.0261C17.6809 11.15 17.8295 11.2367 17.9657 11.2367C18.2629 11.2367 18.5725 10.7661 18.7211 10.1097L18.783 9.84966L18.8945 9.9735C19.5261 10.6794 20.0214 11.6577 20.0957 12.3512L20.1205 12.537L20.009 12.376C19.8233 12.0911 19.6499 11.9054 19.4146 11.7444C18.9936 11.4596 18.5477 11.3729 17.3713 11.311C16.3063 11.249 15.6994 11.1624 15.105 10.9642C14.0895 10.6298 13.5694 10.1964 12.3682 8.59889C11.8357 7.89301 11.5013 7.50911 11.1669 7.18712C10.4363 6.48124 9.70563 6.10973 8.75207 5.96112Z" fill="#FF007A"/>
        <path d="M17.9772 7.53335C18.002 7.06277 18.0639 6.75317 18.2001 6.46834C18.2497 6.35688 18.2992 6.25781 18.3116 6.25781C18.324 6.25781 18.2992 6.3445 18.2621 6.44357C18.163 6.71602 18.1506 7.09992 18.2125 7.53335C18.2992 8.09063 18.3364 8.16493 18.9308 8.77174C19.2032 9.05657 19.5252 9.41571 19.6491 9.56431L19.8596 9.83676L19.6491 9.63862C19.389 9.39094 18.7946 8.92035 18.6583 8.85843C18.5717 8.8089 18.5593 8.8089 18.4974 8.87082C18.4478 8.92035 18.4354 8.99465 18.4354 9.35379C18.4231 9.91106 18.3488 10.2578 18.163 10.6169C18.0639 10.8027 18.0515 10.7656 18.1382 10.555C18.2001 10.394 18.2125 10.3197 18.2125 9.78722C18.2125 8.70982 18.0887 8.44976 17.3333 8.01633C17.1475 7.90487 16.8255 7.74388 16.6398 7.65719C16.4416 7.57051 16.293 7.4962 16.3054 7.4962C16.3302 7.47143 17.0608 7.68196 17.3457 7.8058C17.7791 7.97917 17.8534 7.99156 17.9029 7.97917C17.9401 7.94202 17.9649 7.84295 17.9772 7.53335Z" fill="#FF007A"/>
        <path d="M9.25924 9.37963C8.73912 8.66137 8.40475 7.54681 8.47906 6.71709L8.50382 6.45703L8.62766 6.4818C8.85057 6.51895 9.23447 6.66756 9.42023 6.77901C9.91559 7.07623 10.1385 7.48489 10.349 8.50037C10.4109 8.79759 10.4976 9.14434 10.5348 9.25579C10.5967 9.44155 10.832 9.87499 11.0301 10.1474C11.1664 10.3456 11.0797 10.4446 10.7701 10.4199C10.2995 10.3703 9.66791 9.93691 9.25924 9.37963Z" fill="#FF007A"/>
        <path d="M17.3462 14.7659C14.8942 13.7752 14.0273 12.9207 14.0273 11.4718C14.0273 11.2613 14.0397 11.0879 14.0397 11.0879C14.0521 11.0879 14.1388 11.1622 14.2503 11.2489C14.7456 11.6452 15.3029 11.8185 16.8509 12.0415C17.7549 12.1777 18.275 12.2767 18.7456 12.4377C20.2441 12.9331 21.1729 13.9486 21.3958 15.3232C21.4577 15.7195 21.4205 16.4749 21.3215 16.8712C21.2348 17.1808 20.9871 17.7504 20.9252 17.7628C20.9128 17.7628 20.888 17.7009 20.888 17.6018C20.8633 17.0817 20.6032 16.5863 20.1698 16.2024C19.6496 15.7566 18.9809 15.4223 17.3462 14.7659Z" fill="#FF007A"/>
        <path d="M15.612 15.1746C15.5872 14.9889 15.5253 14.7536 15.4881 14.6545L15.4262 14.4688L15.5377 14.605C15.6986 14.7907 15.8225 15.0136 15.9339 15.3232C16.0206 15.5585 16.0206 15.6328 16.0206 16.0167C16.0206 16.3883 16.0082 16.4749 15.9339 16.6855C15.8101 17.0198 15.6615 17.2551 15.4138 17.5152C14.968 17.9734 14.3859 18.2211 13.5562 18.3325C13.4076 18.3449 12.9866 18.3821 12.615 18.4068C11.6863 18.4564 11.0671 18.5554 10.5098 18.7536C10.4355 18.7783 10.3612 18.8031 10.3488 18.7907C10.324 18.766 10.7079 18.5431 11.0175 18.3944C11.451 18.1839 11.8968 18.0725 12.8751 17.8991C13.3581 17.8248 13.8534 17.7257 13.9773 17.6762C15.2033 17.2923 15.8101 16.3387 15.612 15.1746Z" fill="#FF007A"/>
        <path d="M16.7397 17.1691C16.4177 16.4632 16.3434 15.7945 16.5168 15.1629C16.5416 15.101 16.5663 15.0391 16.5911 15.0391C16.6159 15.0391 16.6902 15.0762 16.7645 15.1257C16.9131 15.2248 17.2227 15.3982 18.0153 15.8316C19.0184 16.3765 19.588 16.7976 19.9843 17.2805C20.331 17.7016 20.5416 18.1846 20.6406 18.779C20.7026 19.1134 20.6654 19.9183 20.5787 20.2527C20.3063 21.3053 19.6871 22.1474 18.7831 22.6304C18.6468 22.7047 18.5354 22.7542 18.523 22.7542C18.5106 22.7542 18.5601 22.6304 18.6345 22.4818C18.9317 21.8502 18.9688 21.2434 18.7459 20.5623C18.6097 20.1412 18.3249 19.6335 17.7552 18.779C17.0741 17.7883 16.9131 17.5282 16.7397 17.1691Z" fill="#FF007A"/>
        <path d="M7.51397 20.9582C8.43038 20.1904 9.55731 19.6455 10.5976 19.4722C11.0434 19.3979 11.7864 19.4226 12.1951 19.5341C12.8514 19.7075 13.4459 20.079 13.7555 20.5372C14.0527 20.983 14.1889 21.3669 14.3251 22.2214C14.3746 22.5558 14.4366 22.9025 14.449 22.9768C14.548 23.4226 14.7462 23.7694 14.9938 23.9551C15.3777 24.24 16.0465 24.2523 16.7028 24.0047C16.8143 23.9675 16.9133 23.9304 16.9133 23.9427C16.9381 23.9675 16.6038 24.1904 16.3808 24.3019C16.0712 24.4629 15.8236 24.5124 15.4892 24.5124C14.8948 24.5124 14.387 24.2028 13.9784 23.5836C13.8917 23.4598 13.7183 23.1006 13.5697 22.7663C13.1363 21.7632 12.9133 21.466 12.4056 21.1316C11.9598 20.8468 11.3901 20.7849 10.9567 20.9954C10.387 21.2678 10.2384 21.9985 10.6347 22.4443C10.7957 22.6301 11.0929 22.7787 11.3406 22.8158C11.7988 22.8777 12.1951 22.5186 12.1951 22.0604C12.1951 21.7632 12.0836 21.5898 11.7864 21.4536C11.3901 21.2802 10.9567 21.4784 10.9691 21.8623C10.9691 22.0232 11.0434 22.1223 11.2044 22.1966C11.3034 22.2462 11.3034 22.2462 11.2291 22.2338C10.87 22.1595 10.7833 21.7136 11.0681 21.4288C11.4149 21.0821 12.1455 21.2307 12.3932 21.7136C12.4923 21.9118 12.5047 22.3081 12.418 22.5558C12.2075 23.1006 11.613 23.3855 11.0062 23.2245C10.5976 23.113 10.4242 23.0016 9.92883 22.4938C9.06196 21.6022 8.72759 21.4288 7.4892 21.2431L7.25391 21.2059L7.51397 20.9582Z" fill="#FF007A"/>
        <path fill-rule="evenodd" clip-rule="evenodd" d="M0.999728 1.03251C3.88518 4.53715 8.331 9.98607 8.55391 10.2833C8.73967 10.531 8.66536 10.7663 8.35577 10.9396C8.18239 11.0387 7.82326 11.1378 7.64988 11.1378C7.45174 11.1378 7.21645 11.0387 7.05546 10.8777C6.944 10.7663 6.46103 10.0604 5.37125 8.36378C4.54152 7.06347 3.83564 5.98607 3.82326 5.97368C3.77372 5.94892 3.77372 5.94892 5.28456 8.64861C6.23812 10.3452 6.54772 10.952 6.54772 11.0263C6.54772 11.1873 6.49818 11.274 6.30004 11.4969C5.96567 11.8684 5.81707 12.2895 5.70561 13.1687C5.58177 14.1471 5.24741 14.8406 4.29385 16.017C3.73657 16.7105 3.64988 16.8344 3.51366 17.1192C3.34029 17.4659 3.29075 17.6641 3.26598 18.1099C3.24121 18.5805 3.29075 18.8777 3.42697 19.3235C3.55081 19.7198 3.68703 19.9799 4.0214 20.4876C4.30623 20.9334 4.4796 21.2678 4.4796 21.3916C4.4796 21.4907 4.50437 21.4907 4.95019 21.3916C6.01521 21.144 6.89447 20.7229 7.37744 20.2028C7.67465 19.8808 7.74895 19.7074 7.74895 19.2616C7.74895 18.9768 7.73657 18.9149 7.66227 18.7415C7.53843 18.469 7.30313 18.2461 6.79539 17.8994C6.12666 17.4412 5.84183 17.0697 5.76753 16.5743C5.70561 16.1533 5.77991 15.8684 6.15143 15.0882C6.53533 14.2833 6.6344 13.9489 6.69632 13.1316C6.73347 12.6115 6.79539 12.4009 6.944 12.2399C7.10499 12.0666 7.24121 12.0046 7.62512 11.9551C8.25669 11.8684 8.66536 11.7074 8.98734 11.3978C9.27217 11.1378 9.39601 10.8777 9.4084 10.4938L9.42078 10.209L9.25979 10.0356C8.67775 9.36687 0.615828 0.5 0.578676 0.5C0.566292 0.5 0.764434 0.735294 0.999728 1.03251ZM4.80159 18.6424C4.93781 18.4071 4.86351 18.1099 4.64059 17.9613C4.43007 17.8251 4.10809 17.887 4.10809 18.0728C4.10809 18.1223 4.13286 18.1718 4.20716 18.1966C4.31861 18.2585 4.331 18.3204 4.24431 18.4567C4.15762 18.5929 4.15762 18.7167 4.26908 18.8034C4.44245 18.9396 4.67775 18.8653 4.80159 18.6424Z" fill="#FF007A"/>
        <path fill-rule="evenodd" clip-rule="evenodd" d="M9.81507 12.1279C9.51786 12.2146 9.23303 12.5366 9.14634 12.8586C9.0968 13.0567 9.12157 13.4159 9.20826 13.5273C9.34448 13.7007 9.46832 13.7502 9.81507 13.7502C10.4962 13.7502 11.0782 13.453 11.1401 13.0939C11.2021 12.7967 10.942 12.388 10.5829 12.2022C10.3971 12.1032 10.0132 12.066 9.81507 12.1279ZM10.6076 12.7471C10.7067 12.5985 10.6696 12.4375 10.4838 12.3261C10.1494 12.1155 9.6417 12.2889 9.6417 12.6109C9.6417 12.7719 9.90176 12.9453 10.1494 12.9453C10.3104 12.9453 10.5333 12.8462 10.6076 12.7471Z" fill="#FF007A"/>
    </g>
    <defs>
        <clipPath id="clip0_29046_8426">
            <rect width="20.8421" height="24" fill="white" transform="translate(0.578125 0.5)"/>
        </clipPath>
    </defs>
</svg>
