<svg width="15" height="14" viewBox="0 0 15 14" fill="none" xmlns="http://www.w3.org/2000/svg">
<path d="M7.50065 0.333008C3.81865 0.333008 0.833984 3.31767 0.833984 6.99967C0.833984 10.6817 3.81865 13.6663 7.50065 13.6663C11.1827 13.6663 14.1673 10.6817 14.1673 6.99967C14.1673 3.31767 11.1827 0.333008 7.50065 0.333008ZM8.00065 9.99967C8.00065 10.2757 7.77665 10.4997 7.50065 10.4997C7.22465 10.4997 7.00065 10.2757 7.00065 9.99967V6.95231C7.00065 6.67631 7.22465 6.45231 7.50065 6.45231C7.77665 6.45231 8.00065 6.67631 8.00065 6.95231V9.99967ZM7.514 5.33301C7.146 5.33301 6.84391 5.03434 6.84391 4.66634C6.84391 4.29834 7.13932 3.99967 7.50732 3.99967H7.514C7.88266 3.99967 8.18066 4.29834 8.18066 4.66634C8.18066 5.03434 7.882 5.33301 7.514 5.33301Z" fill="#10C800"/>
</svg>
