<svg
width="14"
height="14"
viewBox="0 0 16 16"
fill="none"
xmlns="http://www.w3.org/2000/svg"
>
<g clip-path="url(#clip0_19684_9780)">
    <path
    d="M15.7607 9.93462C14.6918 14.2226 10.3474 16.8292 6.06549 15.7603C1.77737 14.6914 -0.829259 10.3472 0.239679 6.06537C1.30855 1.77737 5.64668 -0.829258 9.9348 0.239679C14.2167 1.3023 16.8296 5.64655 15.7607 9.93462Z"
    fill="black"
    />
    <path
    d="M11.8094 7.00332C11.9656 5.94082 11.1594 5.36582 10.0469 4.98457L10.4094 3.54082L9.53438 3.32207L9.18438 4.72832C8.95313 4.67207 8.71563 4.61582 8.47813 4.56582L8.82812 3.15332L7.95313 2.93457L7.59687 4.37207C7.40313 4.32832 7.21562 4.28457 7.03437 4.24082V4.23457L5.82187 3.93457L5.59062 4.87207C5.59062 4.87207 6.24062 5.02207 6.22812 5.02832C6.58437 5.11582 6.64687 5.35332 6.63437 5.54082L6.22187 7.18457C6.24687 7.19082 6.27812 7.19707 6.31562 7.21582C6.28437 7.20957 6.25312 7.20332 6.22187 7.19082L5.64687 9.49082C5.60312 9.59707 5.49062 9.75957 5.24687 9.69707C5.25312 9.70957 4.60938 9.54082 4.60938 9.54082L4.17188 10.5471L5.31562 10.8346C5.52812 10.8908 5.73437 10.9408 5.94062 10.9971L5.57813 12.4533L6.45312 12.6721L6.81562 11.2283C7.05312 11.2908 7.29063 11.3533 7.51563 11.4096L7.15937 12.8471L8.03437 13.0658L8.39687 11.6096C9.89687 11.8908 11.0219 11.7783 11.4906 10.4221C11.8719 9.33457 11.4719 8.70332 10.6844 8.29082C11.2656 8.15957 11.6969 7.77832 11.8094 7.00332ZM9.80313 9.81582C9.53438 10.9033 7.69687 10.3158 7.10312 10.1658L7.58437 8.23457C8.17812 8.38457 10.0906 8.67832 9.80313 9.81582ZM10.0781 6.98457C9.82812 7.97832 8.30312 7.47207 7.80937 7.34707L8.24688 5.59707C8.74063 5.72207 10.3344 5.95332 10.0781 6.98457Z"
    fill="white"
    />
</g>
<defs>
    <clipPath id="clip0_19684_9780">
    <rect width="16" height="16" fill="white" />
    </clipPath>
</defs>
</svg>