<svg
      width="12"
      height="10"
      viewBox="0 0 12 10"
      fill="none"
      xmlns="http://www.w3.org/2000/svg"
    >
    <path
    d="M5.99021 9.82892C4.64381 9.82564 3.32606 9.65153 2.03337 9.30332C1.27065 9.09965 0.830206 8.58062 0.747846 7.82507C0.644002 6.87899 0.522253 5.93619 0.407665 4.9934C0.303821 4.14258 0.203557 3.29176 0.103293 2.44095C0.0710656 2.18472 0.0424188 1.92849 0.00661029 1.67226C-0.0256174 1.43902 0.060323 1.27148 0.25727 1.19264C0.461378 1.11052 0.651163 1.17293 0.812302 1.37003C1.59293 2.33254 2.36997 3.29505 3.1506 4.25755C3.24012 4.36924 3.24012 4.36924 3.31532 4.24113C4.07446 2.91399 4.83002 1.58684 5.58916 0.259703C5.70374 0.0593171 5.88279 -0.0228084 6.1048 0.0231817C6.25161 0.0527467 6.34113 0.141442 6.40917 0.259703C7.06447 1.40945 7.72334 2.56249 8.37864 3.71224C8.48248 3.8962 8.59349 4.08016 8.69375 4.26741C8.74389 4.36267 8.76537 4.36267 8.83341 4.27726C9.37053 3.60712 9.91124 2.94355 10.4519 2.2767C10.7098 1.95805 10.9676 1.6394 11.229 1.32076C11.34 1.18936 11.4904 1.1368 11.6659 1.17293C11.8377 1.20907 11.9452 1.31419 11.9881 1.46858C12.0025 1.51457 12.0025 1.56713 11.9953 1.61312C11.9129 2.29969 11.8306 2.98954 11.7482 3.67611C11.6623 4.38239 11.5763 5.09195 11.4904 5.79822C11.4009 6.54392 11.3328 7.28962 11.2111 8.03203C11.1108 8.65946 10.6954 9.0898 10.0366 9.28033C9.10197 9.5497 8.1423 9.71066 7.16473 9.77965C6.77442 9.80921 6.3841 9.82892 5.99021 9.82892Z"
    fill="#FFBC1C"
    />
</svg>