<svg width="17" height="16" viewBox="0 0 17 16" fill="none" xmlns="http://www.w3.org/2000/svg">
<path d="M8.10026 1.33301C4.41826 1.33301 1.43359 4.31767 1.43359 7.99967C1.43359 11.6817 4.41826 14.6663 8.10026 14.6663C11.7823 14.6663 14.7669 11.6817 14.7669 7.99967C14.7669 4.31767 11.7823 1.33301 8.10026 1.33301ZM8.60026 10.9997C8.60026 11.2757 8.37626 11.4997 8.10026 11.4997C7.82426 11.4997 7.60026 11.2757 7.60026 10.9997V7.95231C7.60026 7.67631 7.82426 7.45231 8.10026 7.45231C8.37626 7.45231 8.60026 7.67631 8.60026 7.95231V10.9997ZM8.11361 6.33301C7.74561 6.33301 7.44352 6.03434 7.44352 5.66634C7.44352 5.29834 7.73893 4.99967 8.10693 4.99967H8.11361C8.48227 4.99967 8.78027 5.29834 8.78027 5.66634C8.78027 6.03434 8.48161 6.33301 8.11361 6.33301Z" fill="white"/>
</svg>
