<svg width="20" height="20" viewBox="0 0 20 20" fill="none" xmlns="http://www.w3.org/2000/svg">
<g opacity="0.7">
<path d="M5.83333 9.99967C5.83333 10.4417 5.65774 10.8656 5.34518 11.1782C5.03262 11.4907 4.60869 11.6663 4.16667 11.6663C3.72464 11.6663 3.30072 11.4907 2.98816 11.1782C2.67559 10.8656 2.5 10.4417 2.5 9.99967C2.5 9.55765 2.67559 9.13372 2.98816 8.82116C3.30072 8.5086 3.72464 8.33301 4.16667 8.33301C4.60869 8.33301 5.03262 8.5086 5.34518 8.82116C5.65774 9.13372 5.83333 9.55765 5.83333 9.99967ZM11.6667 9.99967C11.6667 10.4417 11.4911 10.8656 11.1785 11.1782C10.866 11.4907 10.442 11.6663 10 11.6663C9.55797 11.6663 9.13405 11.4907 8.82149 11.1782C8.50893 10.8656 8.33333 10.4417 8.33333 9.99967C8.33333 9.55765 8.50893 9.13372 8.82149 8.82116C9.13405 8.5086 9.55797 8.33301 10 8.33301C10.442 8.33301 10.866 8.5086 11.1785 8.82116C11.4911 9.13372 11.6667 9.55765 11.6667 9.99967ZM17.5 9.99967C17.5 10.4417 17.3244 10.8656 17.0118 11.1782C16.6993 11.4907 16.2754 11.6663 15.8333 11.6663C15.3913 11.6663 14.9674 11.4907 14.6548 11.1782C14.3423 10.8656 14.1667 10.4417 14.1667 9.99967C14.1667 9.55765 14.3423 9.13372 14.6548 8.82116C14.9674 8.5086 15.3913 8.33301 15.8333 8.33301C16.2754 8.33301 16.6993 8.5086 17.0118 8.82116C17.3244 9.13372 17.5 9.55765 17.5 9.99967Z" fill="white"/>
</g>
</svg>
