<svg width="25" height="24" viewBox="0 0 25 24" fill="none" xmlns="http://www.w3.org/2000/svg">
<path d="M12.5996 2C7.07961 2 2.59961 6.48 2.59961 12C2.59961 17.52 7.07961 22 12.5996 22C18.1196 22 22.5996 17.52 22.5996 12C22.5996 6.48 18.1196 2 12.5996 2ZM16.6296 10.2L11.9596 14.86C11.8196 15.01 11.6296 15.08 11.4296 15.08C11.2396 15.08 11.0496 15.01 10.8996 14.86L8.56961 12.53C8.27961 12.24 8.27961 11.76 8.56961 11.47C8.85961 11.18 9.33961 11.18 9.62961 11.47L11.4296 13.27L15.5696 9.14001C15.8596 8.84001 16.3396 8.84001 16.6296 9.14001C16.9196 9.43001 16.9196 9.90001 16.6296 10.2Z" fill="url(#paint0_linear_29010_5378)"/>
<defs>
<linearGradient id="paint0_linear_29010_5378" x1="2.59961" y1="12" x2="22.5996" y2="12" gradientUnits="userSpaceOnUse">
<stop stop-color="#00F5A0"/>
<stop offset="1" stop-color="#00D9F5"/>
</linearGradient>
</defs>
</svg>
