<svg width="46" height="45" viewBox="0 0 46 45" fill="none" xmlns="http://www.w3.org/2000/svg">
<path d="M4 17.0039V40.0039C4 42.7649 6.239 45.0039 9 45.0039H37C39.761 45.0039 42 42.7649 42 40.0039V17.0039H4Z" fill="#AFAFAF"/>
<path d="M27 17.0039H19V45.0039H27V17.0039Z" fill="#CDCDCD"/>
<path d="M45 10.0099H38.352C38.352 10.0099 38.355 10.0059 38.357 10.0039H33.767C33.76 10.0039 33.754 10.0059 33.747 10.0049C33.731 10.0049 33.716 10.0049 33.701 10.0039H7.629C7.629 10.0039 7.632 10.0079 7.634 10.0099H1C0.448 10.0099 0 10.4569 0 11.0089V16.0049C0 16.5569 0.448 17.0039 1 17.0039H45C45.552 17.0039 46 16.5569 46 16.0049V11.0089C46 10.4569 45.552 10.0099 45 10.0099Z" fill="#B1B1B1"/>
<path d="M7.99905 6.0084V6.0034C8.10705 3.7094 10.038 1.9274 12.333 2.0034C17.752 2.0034 20.569 7.4654 21.586 10.0034H24.41C25.422 7.4684 28.235 2.0034 33.699 2.0034C35.974 1.9364 37.884 3.7004 37.999 5.9734C37.938 8.2544 36.044 10.0534 33.765 10.0034H38.355C39.368 8.9004 39.952 7.4704 39.998 5.9734C39.888 2.5804 37.058 -0.0875989 33.664 0.00340108C27.698 0.00340108 24.454 5.0204 22.998 8.2034C21.545 5.0204 18.31 0.00340108 12.363 0.00340108C8.96005 -0.108599 6.11005 2.5594 5.99805 5.9624C5.99805 5.9664 5.99805 5.9704 5.99805 5.9734V6.0394C6.04905 7.5134 6.62705 8.9194 7.62705 10.0034H12.298C10.008 10.0874 8.08205 8.2994 7.99805 6.0084H7.99905Z" fill="#AEAEAE"/>
<path d="M28 10.0039H18V17.0039H28V10.0039Z" fill="#D1D1D1"/>
<path opacity="0.15" d="M42 17.0039H4V19.0039H42V17.0039Z" fill="black"/>
</svg>
