<svg width="47" height="45" viewBox="0 0 47 45" fill="none" xmlns="http://www.w3.org/2000/svg">
<path d="M4.79883 17.0039V40.0039C4.79883 42.7649 7.03783 45.0039 9.79883 45.0039H37.7988C40.5598 45.0039 42.7988 42.7649 42.7988 40.0039V17.0039H4.79883Z" fill="url(#paint0_linear_29010_5369)"/>
<path d="M27.7988 17.0039H19.7988V45.0039H27.7988V17.0039Z" fill="url(#paint1_linear_29010_5369)"/>
<path d="M45.7988 10.0099H39.1508C39.1508 10.0099 39.1538 10.0059 39.1558 10.0039H34.5658C34.5588 10.0039 34.5528 10.0059 34.5458 10.0049C34.5298 10.0049 34.5148 10.0049 34.4998 10.0039H8.42783C8.42783 10.0039 8.43083 10.0079 8.43283 10.0099H1.79883C1.24683 10.0099 0.798828 10.4569 0.798828 11.0089V16.0049C0.798828 16.5569 1.24683 17.0039 1.79883 17.0039H45.7988C46.3508 17.0039 46.7988 16.5569 46.7988 16.0049V11.0089C46.7988 10.4569 46.3508 10.0099 45.7988 10.0099Z" fill="url(#paint2_linear_29010_5369)"/>
<path d="M8.79787 6.0084V6.0034C8.90587 3.7094 10.8369 1.9274 13.1319 2.0034C18.5509 2.0034 21.3679 7.4654 22.3849 10.0034H25.2089C26.2209 7.4684 29.0339 2.0034 34.4979 2.0034C36.7729 1.9364 38.6829 3.7004 38.7979 5.9734C38.7369 8.2544 36.8429 10.0534 34.5639 10.0034H39.1539C40.1669 8.9004 40.7509 7.4704 40.7969 5.9734C40.6869 2.5804 37.8569 -0.0875989 34.4629 0.00340108C28.4969 0.00340108 25.2529 5.0204 23.7969 8.2034C22.3439 5.0204 19.1089 0.00340108 13.1619 0.00340108C9.75888 -0.108599 6.90888 2.5594 6.79688 5.9624C6.79688 5.9664 6.79688 5.9704 6.79688 5.9734V6.0394C6.84787 7.5134 7.42588 8.9194 8.42588 10.0034H13.0969C10.8069 10.0874 8.88087 8.2994 8.79687 6.0084H8.79787Z" fill="url(#paint3_linear_29010_5369)"/>
<path d="M28.7988 10.0039H18.7988V17.0039H28.7988V10.0039Z" fill="url(#paint4_linear_29010_5369)"/>
<path opacity="0.15" d="M42.7988 17.0039H4.79883V19.0039H42.7988V17.0039Z" fill="black"/>
<defs>
<linearGradient id="paint0_linear_29010_5369" x1="23.7988" y1="17.0039" x2="23.7988" y2="45.0039" gradientUnits="userSpaceOnUse">
<stop stop-color="#FF666D"/>
<stop offset="1" stop-color="#E0211F"/>
</linearGradient>
<linearGradient id="paint1_linear_29010_5369" x1="23.7988" y1="17.0039" x2="23.7988" y2="45.0039" gradientUnits="userSpaceOnUse">
<stop stop-color="#FFD6DA"/>
<stop offset="1" stop-color="#FF9EA8"/>
</linearGradient>
<linearGradient id="paint2_linear_29010_5369" x1="23.7988" y1="10.0039" x2="23.7988" y2="17.0039" gradientUnits="userSpaceOnUse">
<stop stop-color="#FF9EA8"/>
<stop offset="1" stop-color="#FF666D"/>
</linearGradient>
<linearGradient id="paint3_linear_29010_5369" x1="23.7969" y1="8.05302e-08" x2="23.7969" y2="10.0062" gradientUnits="userSpaceOnUse">
<stop stop-color="#FFD6DA"/>
<stop offset="1" stop-color="#FF9EA8"/>
</linearGradient>
<linearGradient id="paint4_linear_29010_5369" x1="23.7988" y1="10.0039" x2="23.7988" y2="17.0039" gradientUnits="userSpaceOnUse">
<stop stop-color="#FFD6DA"/>
<stop offset="1" stop-color="#FF9EA8"/>
</linearGradient>
</defs>
</svg>
