<svg xmlns="http://www.w3.org/2000/svg" width="20" height="21" viewBox="0 0 20 21" fill="none">
  <path
    d="M8.11465 8.29623C8.03075 8.29923 7.94715 8.28523 7.86875 8.25513C7.79035 8.22513 7.71885 8.17953 7.65845 8.12133C7.59815 8.06303 7.55005 7.99313 7.51725 7.91583C7.48445 7.83863 7.46755 7.75553 7.46755 7.67163C7.46755 7.58773 7.48445 7.50463 7.51725 7.42733C7.55005 7.35013 7.59815 7.28023 7.65845 7.22193C7.71885 7.16363 7.79035 7.11813 7.86875 7.08803C7.94715 7.05803 8.03075 7.04403 8.11465 7.04703H12.8286C12.9942 7.04713 13.1531 7.11293 13.2702 7.23003C13.3873 7.34713 13.4531 7.50603 13.4532 7.67163V12.3856C13.4562 12.4695 13.4422 12.5531 13.4122 12.6315C13.3821 12.7099 13.3366 12.7814 13.2783 12.8418C13.22 12.9021 13.1501 12.9502 13.0729 12.983C12.9956 13.0158 12.9126 13.0327 12.8286 13.0327C12.7447 13.0327 12.6616 13.0158 12.5844 12.983C12.5071 12.9502 12.4372 12.9021 12.3789 12.8418C12.3207 12.7814 12.2751 12.7099 12.2451 12.6315C12.215 12.5531 12.201 12.4695 12.204 12.3856V9.18013L6.49415 14.89C6.37695 15.0072 6.21795 15.073 6.05225 15.073C5.88645 15.073 5.72745 15.0072 5.61025 14.89C5.49305 14.7728 5.42725 14.6138 5.42725 14.448C5.42725 14.2823 5.49305 14.1233 5.61025 14.0061L11.3201 8.29623H8.11465Z"
    fill="white" />
</svg>
