<svg xmlns="http://www.w3.org/2000/svg" width="17" height="16" viewBox="0 0 17 16" fill="none">
  <g clip-path="url(#clip0_31998_38871)">
    <path fill-rule="evenodd" clip-rule="evenodd"
      d="M13.6851 2.95331C13.8498 2.88397 14.0302 2.86006 14.2073 2.88405C14.3844 2.90805 14.5519 2.97909 14.6922 3.08977C14.8326 3.20044 14.9407 3.34672 15.0053 3.51337C15.07 3.68001 15.0888 3.86094 15.0598 4.03731L13.5478 13.2086C13.4011 14.0933 12.4304 14.6006 11.6191 14.16C10.9404 13.7913 9.93242 13.2233 9.02575 12.6306C8.57242 12.334 7.18375 11.384 7.35442 10.708C7.50109 10.13 9.83442 7.95798 11.1678 6.66664C11.6911 6.15931 11.4524 5.86664 10.8344 6.33331C9.29975 7.49198 6.83575 9.25398 6.02109 9.74998C5.30242 10.1873 4.92775 10.262 4.47975 10.1873C3.66242 10.0513 2.90442 9.84064 2.28575 9.58398C1.44975 9.23731 1.49042 8.08798 2.28509 7.75331L13.6851 2.95331Z"
      fill="white" />
  </g>
  <defs>
    <clipPath id="clip0_31998_38871">
      <rect width="16" height="16" fill="white" transform="translate(0.5)" />
    </clipPath>
  </defs>
</svg>
