<svg width="20" height="17" viewBox="0 0 20 17" fill="none" xmlns="http://www.w3.org/2000/svg">
    <path d="M19.7061 9.20829L12.707 16.2073C12.512 16.4023 12.256 16.5003 12 16.5003C11.744 16.5003 11.488 16.4023 11.293 16.2073C10.902 15.8163 10.902 15.1842 11.293 14.7933L16.5859 9.50028H1C0.447 9.50028 0 9.05228 0 8.50028C0 7.94828 0.447 7.50028 1 7.50028H16.5859L11.293 2.20731C10.902 1.81631 10.902 1.18425 11.293 0.79325C11.684 0.40225 12.316 0.40225 12.707 0.79325L19.7061 7.79227C19.7991 7.88527 19.8721 7.9952 19.9231 8.1182C20.0241 8.3622 20.0241 8.63836 19.9231 8.88236C19.8721 9.00536 19.7991 9.11529 19.7061 9.20829Z" fill="black"/>
</svg>
