<svg width="18" height="18" viewBox="0 0 18 18" fill="none" xmlns="http://www.w3.org/2000/svg">
  <rect width="18" height="18" rx="9" fill="#FA4E0E"/>
  <path d="M8.89453 9.12387L14.3266 6.98572V11.6665L8.89453 13.7469V9.12387Z" fill="white"/>
  <path opacity="0.7" d="M3 6.92615L8.89435 9.12208V13.7451L3 11.4914V6.92615Z" fill="white"/>
  <path opacity="0.4" d="M8.89435 4.73096L14.3264 7.04247L8.89435 9.12283L3 6.92689L8.89435 4.73096Z" fill="white"/>
  <path fill-rule="evenodd" clip-rule="evenodd" d="M11.5528 6.46372C11.4956 6.46372 11.4403 6.46191 11.386 6.4596C11.3794 6.45935 11.3729 6.45898 11.3665 6.45855L11.3521 6.4576L11.3381 6.45666C11.2994 6.45449 11.2613 6.45139 11.2241 6.44806L11.2191 6.44761C11.2098 6.44673 11.2003 6.44586 11.191 6.4449L11.1785 6.44357C11.1353 6.43883 11.0931 6.43344 11.0519 6.42715L11.0434 6.42602L11.0354 6.42498C11.0119 6.42125 10.989 6.41727 10.9666 6.4131C10.9432 6.40875 10.9203 6.40415 10.8978 6.39944C10.8947 6.39879 10.8916 6.39806 10.8885 6.39733L10.8826 6.39594L10.8793 6.39521C10.8416 6.387 10.8055 6.378 10.7712 6.36863L10.7509 6.36287C10.567 6.3105 10.4318 6.24405 10.3551 6.17797L10.3522 6.17543L10.352 6.17526C10.3502 6.17368 10.3484 6.1721 10.3468 6.17038C10.3397 6.16411 10.3329 6.15793 10.3272 6.15153C10.3196 6.14318 10.3124 6.13485 10.3066 6.12675C10.3055 6.12512 10.3045 6.12354 10.3036 6.12199L10.3022 6.11967L10.3001 6.11612C10.2961 6.10932 10.2926 6.10277 10.2898 6.09608C10.2883 6.09301 10.2871 6.08993 10.2863 6.08686C10.2835 6.07754 10.2813 6.06812 10.2812 6.0592V6.98381C10.2812 6.99262 10.2835 7.00209 10.2863 7.01147C10.2871 7.01454 10.2883 7.01761 10.2898 7.02069C10.2926 7.02738 10.2961 7.03392 10.3001 7.04072L10.3021 7.04416C10.3035 7.04651 10.3049 7.04888 10.3066 7.05136C10.3124 7.05945 10.3196 7.06779 10.3272 7.07613C10.3329 7.08253 10.3397 7.08872 10.3468 7.09498C10.3485 7.09678 10.3504 7.0984 10.3522 7.10003L10.3551 7.10257C10.4318 7.16866 10.567 7.2351 10.7509 7.28747L10.7712 7.29323C10.8055 7.3026 10.8416 7.3116 10.8793 7.31981C10.8855 7.32108 10.8915 7.32275 10.8978 7.32404C10.9419 7.33327 10.9873 7.34199 11.0354 7.34958L11.0433 7.35062L11.0519 7.35175C11.0931 7.35804 11.1353 7.36344 11.1785 7.36818C11.1919 7.36967 11.2056 7.37094 11.2192 7.37221L11.2241 7.37266C11.2613 7.37599 11.2994 7.3791 11.3381 7.38127C11.3487 7.38194 11.3591 7.38274 11.3697 7.38339C11.3751 7.38372 11.3805 7.384 11.386 7.38421C11.4403 7.38652 11.4956 7.38832 11.5528 7.38832C12.3286 7.38832 12.8239 7.14876 12.8239 6.98401V6.0594C12.8239 6.22416 12.3286 6.46372 11.5528 6.46372Z" fill="#FA4E0E"/>
  <path d="M11.5528 6.46491C11.4956 6.46491 11.4403 6.46312 11.3861 6.46081C11.3698 6.46016 11.3541 6.45888 11.3381 6.45786C11.2994 6.45567 11.2613 6.45259 11.2241 6.44926C11.209 6.44785 11.1935 6.44644 11.1785 6.44477C11.1353 6.44002 11.0931 6.43463 11.0519 6.42834C11.0467 6.42757 11.0407 6.42693 11.0354 6.42616C10.9873 6.41859 10.9419 6.40987 10.8978 6.40063C10.8915 6.39934 10.8855 6.39768 10.8793 6.39639C10.8416 6.38818 10.8055 6.3792 10.7712 6.36983C10.7644 6.36791 10.7576 6.36598 10.7509 6.36406C10.567 6.3117 10.4318 6.24524 10.3551 6.17915C10.3523 6.17659 10.3494 6.17428 10.3468 6.17158C10.3397 6.1653 10.3329 6.15914 10.3272 6.15272C10.3196 6.14438 10.3124 6.13604 10.3066 6.12796C10.3041 6.12424 10.3022 6.12077 10.3001 6.11731C10.2961 6.11051 10.2926 6.10396 10.2898 6.09729C10.2883 6.09421 10.2871 6.09113 10.2863 6.08805C10.2835 6.07868 10.2812 6.06919 10.2812 6.06021C10.2812 6.05007 10.2833 6.03942 10.2871 6.02864C10.2906 6.01889 10.2958 6.00914 10.3019 5.99926C10.3041 5.99592 10.307 5.99245 10.3097 5.98886C10.3144 5.98232 10.3193 5.97577 10.3252 5.96923C10.3292 5.965 10.3339 5.96063 10.3383 5.9564C10.3443 5.95062 10.3503 5.94485 10.3571 5.93908C10.3627 5.93433 10.369 5.92958 10.3754 5.9247C10.3822 5.9197 10.389 5.91457 10.3965 5.90943C10.4041 5.90417 10.4124 5.89879 10.4207 5.8934C10.4276 5.88916 10.4351 5.88467 10.4426 5.88018C10.4527 5.87428 10.463 5.8685 10.4738 5.86286C10.4806 5.85926 10.4878 5.8558 10.4948 5.85233C10.5077 5.84592 10.5207 5.8395 10.5348 5.83322C10.5398 5.83103 10.545 5.82885 10.5501 5.82667C10.6904 5.76611 10.8821 5.71375 11.115 5.6836C11.1158 5.68334 11.1164 5.68334 11.1172 5.68321C11.1506 5.67898 11.1849 5.67513 11.2199 5.67192C11.2214 5.67179 11.2227 5.67179 11.2241 5.67141C11.2593 5.66807 11.2952 5.66525 11.3321 5.66294H11.3324C11.403 5.65871 11.4759 5.65588 11.5523 5.65588C11.6324 5.65588 11.7095 5.65845 11.7835 5.66333C11.9071 5.67128 12.0212 5.68565 12.1256 5.70426C12.133 5.70554 12.1402 5.70695 12.1473 5.70824C12.2298 5.72376 12.3059 5.74211 12.3748 5.76239C12.3819 5.76444 12.3888 5.76649 12.3958 5.7688C12.4292 5.77907 12.4613 5.78972 12.4913 5.80088C12.4917 5.80101 12.4919 5.80114 12.4925 5.80139C12.5212 5.81204 12.548 5.82359 12.5734 5.83488C12.5797 5.83771 12.5857 5.84066 12.5918 5.84348C12.6164 5.85516 12.6402 5.86696 12.6611 5.87915C12.6615 5.87941 12.6621 5.87992 12.6629 5.88018C12.6832 5.89186 12.7009 5.90366 12.7173 5.91559C12.7219 5.9188 12.7262 5.92201 12.7303 5.92522C12.7463 5.93754 12.7611 5.94985 12.773 5.96192C12.8063 5.99605 12.8239 6.02967 12.8239 6.06059C12.8239 6.22535 12.3286 6.46491 11.5528 6.46491Z" fill="white"/>
  <path d="M11.5528 6.46491C11.4956 6.46491 11.4403 6.46312 11.3861 6.46081C11.3698 6.46016 11.3541 6.45888 11.3381 6.45786C11.2994 6.45567 11.2613 6.45259 11.2241 6.44926C11.209 6.44785 11.1935 6.44644 11.1785 6.44477C11.1353 6.44002 11.0931 6.43463 11.0519 6.42834C11.0467 6.42757 11.0407 6.42693 11.0354 6.42616C10.9873 6.41859 10.9419 6.40987 10.8978 6.40063C10.8915 6.39934 10.8855 6.39768 10.8793 6.39639C10.8416 6.38818 10.8055 6.3792 10.7712 6.36983C10.7644 6.36791 10.7576 6.36598 10.7509 6.36406C10.567 6.3117 10.4318 6.24524 10.3551 6.17915C10.3523 6.17659 10.3494 6.17428 10.3468 6.17158C10.3397 6.1653 10.3329 6.15914 10.3272 6.15272C10.3196 6.14438 10.3124 6.13604 10.3066 6.12796C10.3041 6.12424 10.3022 6.12077 10.3001 6.11731C10.2961 6.1105 10.2926 6.10396 10.2898 6.09729C10.2883 6.09421 10.2871 6.09113 10.2863 6.08805C10.2835 6.07868 10.2812 6.06919 10.2812 6.06021C10.2812 6.05007 10.2833 6.03942 10.2871 6.02864C10.2906 6.01889 10.2958 6.00914 10.3019 5.99926C10.3041 5.99592 10.307 5.99245 10.3097 5.98886C10.3144 5.98232 10.3193 5.97577 10.3252 5.96923C10.3292 5.965 10.3339 5.96063 10.3383 5.9564C10.3443 5.95062 10.3503 5.94485 10.3571 5.93908C10.3627 5.93433 10.369 5.92958 10.3754 5.9247C10.3822 5.9197 10.389 5.91457 10.3965 5.90943C10.4041 5.90417 10.4124 5.89879 10.4207 5.8934C10.4276 5.88916 10.4351 5.88467 10.4426 5.88018C10.4527 5.87428 10.463 5.8685 10.4738 5.86286C10.4806 5.85926 10.4878 5.8558 10.4948 5.85233C10.5077 5.84592 10.5207 5.8395 10.5348 5.83322C10.5398 5.83103 10.545 5.82885 10.5501 5.82667C10.6904 5.76611 10.8821 5.71375 11.115 5.6836C11.1158 5.68334 11.1164 5.68334 11.1172 5.68321C11.1506 5.67898 11.1849 5.67513 11.2199 5.67192C11.2214 5.67179 11.2227 5.67179 11.2241 5.67141C11.2593 5.66807 11.2952 5.66525 11.3321 5.66294H11.3324C11.403 5.65871 11.4759 5.65588 11.5523 5.65588C11.6324 5.65588 11.7095 5.65845 11.7835 5.66333C11.9071 5.67128 12.0212 5.68565 12.1256 5.70426C12.133 5.70554 12.1402 5.70695 12.1473 5.70824C12.2298 5.72376 12.3059 5.74211 12.3748 5.76239C12.3819 5.76444 12.3888 5.76649 12.3958 5.7688C12.4292 5.77907 12.4613 5.78972 12.4913 5.80088C12.4917 5.80101 12.4919 5.80114 12.4925 5.80139C12.5212 5.81204 12.548 5.82359 12.5734 5.83488C12.5797 5.83771 12.5857 5.84066 12.5918 5.84348C12.6164 5.85516 12.6402 5.86696 12.6611 5.87915C12.6615 5.87941 12.6621 5.87992 12.6629 5.88018C12.6832 5.89186 12.7009 5.90366 12.7173 5.91559C12.7219 5.9188 12.7262 5.92201 12.7303 5.92522C12.7463 5.93754 12.7611 5.94985 12.773 5.96192C12.8063 5.99605 12.8239 6.02967 12.8239 6.06059C12.8239 6.22535 12.3286 6.46491 11.5528 6.46491Z" fill="white"/>
  <path fill-rule="evenodd" clip-rule="evenodd" d="M8.66418 5.30783C8.60688 5.30783 8.55159 5.30603 8.49737 5.30372C8.49076 5.30346 8.48425 5.30309 8.47779 5.30267L8.46343 5.30171L8.44943 5.30078C8.41071 5.29861 8.37266 5.2955 8.3354 5.29217L8.33046 5.29172C8.32112 5.29085 8.31165 5.28997 8.3023 5.28901L8.28985 5.28769C8.24658 5.28295 8.20439 5.27756 8.16326 5.27127L8.15471 5.27014L8.1467 5.26909C8.12319 5.26537 8.10032 5.26139 8.07795 5.25721C8.05454 5.25287 8.03167 5.24827 8.00914 5.24356C8.00601 5.24291 8.00293 5.24217 7.99987 5.24144L7.99392 5.24006L7.99059 5.23933C7.95292 5.23111 7.91687 5.22211 7.88253 5.21274L7.86224 5.20699C7.67836 5.15462 7.54309 5.08817 7.46642 5.02208L7.46357 5.01955L7.46332 5.01938C7.46153 5.0178 7.45976 5.01622 7.45815 5.01449C7.45107 5.00823 7.44426 5.00205 7.43851 4.99565C7.43091 4.98729 7.42369 4.97897 7.41794 4.97087C7.41683 4.96923 7.41586 4.96765 7.41491 4.9661L7.41354 4.96379L7.41141 4.96023C7.40741 4.95343 7.40394 4.94689 7.40113 4.9402C7.39966 4.93712 7.39845 4.93405 7.39766 4.93097C7.39486 4.92166 7.39261 4.91224 7.39258 4.90332V5.82792C7.39258 5.83673 7.39485 5.84621 7.39766 5.85558C7.39845 5.85866 7.39966 5.86173 7.40113 5.8648C7.40394 5.8715 7.40741 5.87804 7.41141 5.88483L7.41347 5.88828C7.41486 5.89062 7.41625 5.89299 7.41794 5.89548C7.42369 5.90357 7.43091 5.9119 7.43851 5.92025C7.44426 5.92665 7.45107 5.93283 7.45815 5.9391C7.45983 5.9409 7.46168 5.94252 7.46356 5.94415L7.46642 5.94669C7.54309 6.01278 7.67836 6.07922 7.86224 6.13159L7.88255 6.13734C7.91687 6.14672 7.95292 6.15572 7.99059 6.16393C7.99687 6.1652 8.00288 6.16686 8.00914 6.16816C8.05321 6.17739 8.09862 6.1861 8.1467 6.1937L8.15467 6.19474L8.16326 6.19587C8.20439 6.20216 8.24658 6.20756 8.28985 6.21229C8.30319 6.21379 8.31696 6.21506 8.33049 6.21633L8.3354 6.21678C8.37266 6.22011 8.41071 6.22322 8.44943 6.22539C8.46003 6.22606 8.47046 6.22686 8.48102 6.2275C8.48643 6.22784 8.49186 6.22812 8.49737 6.22832C8.55159 6.23064 8.60688 6.23244 8.66418 6.23244C9.43993 6.23244 9.93524 5.99287 9.93524 5.82812V4.90352C9.93524 5.06828 9.43993 5.30783 8.66418 5.30783Z" fill="#FA4E0E"/>
  <path d="M8.66418 5.30903C8.60688 5.30903 8.5516 5.30723 8.49738 5.30492C8.48109 5.30428 8.46546 5.303 8.44944 5.30197C8.41071 5.29979 8.37265 5.29671 8.33539 5.29337C8.3203 5.29196 8.30481 5.29055 8.28985 5.28888C8.24659 5.28414 8.20439 5.27875 8.16326 5.27246C8.15805 5.27169 8.15204 5.27105 8.1467 5.27028C8.09862 5.26271 8.05322 5.25398 8.00915 5.24474C8.00287 5.24346 7.99686 5.24179 7.99058 5.24051C7.95293 5.2323 7.91687 5.22331 7.88255 5.21395C7.87574 5.21202 7.86893 5.2101 7.86225 5.20817C7.67836 5.15582 7.54308 5.08935 7.46643 5.02327C7.46362 5.0207 7.46069 5.01839 7.45815 5.0157C7.45107 5.00941 7.44426 5.00325 7.43852 4.99684C7.4309 4.9885 7.42369 4.98016 7.41795 4.97207C7.41541 4.96835 7.41354 4.96489 7.41141 4.96142C7.4074 4.95462 7.40393 4.94808 7.40112 4.94141C7.39966 4.93833 7.39845 4.93525 7.39765 4.93217C7.39485 4.9228 7.39258 4.9133 7.39258 4.90432C7.39258 4.89419 7.39458 4.88354 7.39845 4.87276C7.40193 4.863 7.40713 4.85325 7.41328 4.84337C7.41541 4.84004 7.41835 4.83657 7.42102 4.83298C7.4257 4.82644 7.43064 4.81989 7.43651 4.81335C7.44052 4.80911 7.44519 4.80475 7.4496 4.80051C7.45561 4.79474 7.46162 4.78897 7.46843 4.78319C7.47404 4.77844 7.48032 4.7737 7.48673 4.76882C7.49354 4.76382 7.50035 4.75868 7.50783 4.75355C7.51544 4.74829 7.52372 4.7429 7.532 4.73751C7.53894 4.73328 7.54642 4.72879 7.5539 4.7243C7.56405 4.71839 7.57433 4.71262 7.58515 4.70697C7.59196 4.70338 7.59917 4.69992 7.60611 4.69645C7.61907 4.69004 7.63202 4.68362 7.64618 4.67733C7.65112 4.67515 7.65633 4.67297 7.6614 4.67079C7.80175 4.61022 7.99339 4.55787 8.22629 4.52772C8.22709 4.52746 8.22776 4.52746 8.22856 4.52733C8.26194 4.5231 8.29626 4.51925 8.33125 4.51604C8.33272 4.51591 8.33406 4.51591 8.33539 4.51553C8.37065 4.51219 8.40657 4.50937 8.44343 4.50706H8.4437C8.51434 4.50282 8.58726 4.5 8.66364 4.5C8.74377 4.5 8.82083 4.50257 8.89481 4.50744C9.01847 4.5154 9.13251 4.52977 9.23694 4.54837C9.24428 4.54966 9.2515 4.55107 9.25858 4.55235C9.3411 4.56788 9.41723 4.58623 9.48614 4.6065C9.49321 4.60855 9.50016 4.61061 9.5071 4.61292C9.54049 4.62318 9.57267 4.63383 9.60258 4.645C9.60298 4.64512 9.60325 4.64525 9.60378 4.64551C9.6325 4.65616 9.65934 4.66771 9.68472 4.679C9.69099 4.68182 9.697 4.68477 9.70314 4.6876C9.72771 4.69927 9.75149 4.71108 9.77245 4.72327C9.77286 4.72353 9.77339 4.72404 9.77419 4.7243C9.79448 4.73597 9.81224 4.74778 9.82867 4.75971C9.83321 4.76292 9.83749 4.76613 9.84162 4.76933C9.85765 4.78165 9.87247 4.79397 9.88436 4.80603C9.91761 4.84016 9.93524 4.87378 9.93524 4.90471C9.93524 5.06946 9.43993 5.30903 8.66418 5.30903Z" fill="white"/>
  <path d="M8.66418 5.30903C8.60688 5.30903 8.5516 5.30723 8.49738 5.30492C8.48109 5.30428 8.46546 5.303 8.44944 5.30197C8.41071 5.29979 8.37265 5.29671 8.33539 5.29337C8.3203 5.29196 8.30481 5.29055 8.28985 5.28888C8.24659 5.28414 8.20439 5.27875 8.16326 5.27246C8.15805 5.27169 8.15204 5.27105 8.1467 5.27028C8.09862 5.26271 8.05322 5.25398 8.00915 5.24474C8.00287 5.24346 7.99686 5.24179 7.99058 5.24051C7.95293 5.2323 7.91687 5.22331 7.88255 5.21395C7.87574 5.21202 7.86893 5.2101 7.86225 5.20817C7.67836 5.15582 7.54308 5.08935 7.46643 5.02327C7.46362 5.0207 7.46069 5.01839 7.45815 5.0157C7.45107 5.00941 7.44426 5.00325 7.43852 4.99684C7.4309 4.9885 7.42369 4.98016 7.41795 4.97207C7.41541 4.96835 7.41354 4.96489 7.41141 4.96142C7.4074 4.95462 7.40393 4.94808 7.40112 4.94141C7.39966 4.93833 7.39845 4.93525 7.39765 4.93217C7.39485 4.9228 7.39258 4.9133 7.39258 4.90432C7.39258 4.89419 7.39458 4.88354 7.39845 4.87276C7.40193 4.863 7.40713 4.85325 7.41328 4.84337C7.41541 4.84004 7.41835 4.83657 7.42102 4.83298C7.4257 4.82644 7.43064 4.81989 7.43651 4.81335C7.44052 4.80911 7.44519 4.80475 7.4496 4.80051C7.45561 4.79474 7.46162 4.78897 7.46843 4.78319C7.47404 4.77844 7.48032 4.7737 7.48673 4.76882C7.49354 4.76382 7.50035 4.75868 7.50783 4.75355C7.51544 4.74829 7.52372 4.7429 7.532 4.73751C7.53894 4.73328 7.54642 4.72879 7.5539 4.7243C7.56405 4.71839 7.57433 4.71262 7.58515 4.70697C7.59196 4.70338 7.59917 4.69992 7.60611 4.69645C7.61907 4.69004 7.63202 4.68362 7.64618 4.67733C7.65112 4.67515 7.65633 4.67297 7.6614 4.67079C7.80175 4.61022 7.99339 4.55787 8.22629 4.52772C8.22709 4.52746 8.22776 4.52746 8.22856 4.52733C8.26194 4.5231 8.29626 4.51925 8.33125 4.51604C8.33272 4.51591 8.33406 4.51591 8.33539 4.51553C8.37065 4.51219 8.40657 4.50937 8.44343 4.50706H8.4437C8.51434 4.50282 8.58726 4.5 8.66364 4.5C8.74377 4.5 8.82083 4.50257 8.89481 4.50744C9.01847 4.5154 9.13251 4.52977 9.23694 4.54837C9.24428 4.54966 9.2515 4.55107 9.25858 4.55235C9.3411 4.56788 9.41723 4.58623 9.48614 4.6065C9.49321 4.60855 9.50016 4.61061 9.5071 4.61292C9.54049 4.62318 9.57267 4.63383 9.60258 4.645C9.60298 4.64512 9.60325 4.64525 9.60378 4.64551C9.6325 4.65616 9.65934 4.66771 9.68472 4.679C9.69099 4.68182 9.697 4.68477 9.70314 4.6876C9.72771 4.69927 9.75149 4.71108 9.77245 4.72327C9.77286 4.72353 9.77339 4.72404 9.77419 4.7243C9.79448 4.73597 9.81224 4.74778 9.82867 4.75971C9.83321 4.76292 9.83749 4.76613 9.84162 4.76933C9.85765 4.78165 9.87247 4.79397 9.88436 4.80603C9.91761 4.84016 9.93524 4.87378 9.93524 4.90471C9.93524 5.06946 9.43993 5.30903 8.66418 5.30903Z" fill="white"/>
  <path fill-rule="evenodd" clip-rule="evenodd" d="M8.77941 7.61777C8.72212 7.61777 8.66683 7.61597 8.61261 7.61365C8.60599 7.6134 8.59949 7.61303 8.59303 7.61261L8.57866 7.61165L8.56467 7.61072C8.52594 7.60854 8.48789 7.60544 8.45063 7.60211L8.44569 7.60166C8.43635 7.60079 8.42689 7.59991 8.41753 7.59895L8.40509 7.59762C8.36182 7.59288 8.31962 7.5875 8.27849 7.5812L8.26995 7.58007L8.26193 7.57903C8.23843 7.57531 8.21556 7.57133 8.19318 7.56715C8.16978 7.5628 8.14691 7.55821 8.12438 7.55349C8.12124 7.55284 8.11817 7.55211 8.11511 7.55138L8.10915 7.54999L8.10582 7.54926C8.06815 7.54105 8.03211 7.53205 7.99777 7.52268L7.97748 7.51692C7.79359 7.46456 7.65832 7.3981 7.58166 7.33202L7.57881 7.32948L7.57855 7.32931C7.57676 7.32773 7.575 7.32615 7.57339 7.32443C7.56631 7.31817 7.55949 7.31199 7.55375 7.30558C7.54614 7.29723 7.53892 7.28891 7.53318 7.28081C7.53206 7.27917 7.53109 7.27759 7.53015 7.27604L7.52878 7.27372L7.52665 7.27017C7.52264 7.26337 7.51917 7.25682 7.51636 7.25014C7.51489 7.24706 7.51368 7.24398 7.51289 7.24091C7.5101 7.2316 7.50784 7.22217 7.50781 7.21326V8.13786C7.50781 8.14667 7.51008 8.15615 7.51289 8.16552C7.51368 8.16859 7.51489 8.17167 7.51636 8.17474C7.51917 8.18143 7.52264 8.18797 7.52665 8.19477L7.52871 8.19821C7.53009 8.20056 7.53149 8.20293 7.53318 8.20542C7.53892 8.21351 7.54614 8.22184 7.55375 8.23018C7.55949 8.23659 7.56631 8.24277 7.57339 8.24903C7.57507 8.25084 7.57692 8.25245 7.57879 8.25408L7.58166 8.25663C7.65832 8.32271 7.79359 8.38916 7.97748 8.44152L7.99778 8.44728C8.03211 8.45665 8.06815 8.46566 8.10582 8.47386C8.1121 8.47513 8.11811 8.4768 8.12438 8.47809C8.16845 8.48733 8.21385 8.49604 8.26193 8.50363L8.2699 8.50468L8.27849 8.50581C8.31962 8.51209 8.36182 8.51749 8.40509 8.52223C8.41842 8.52372 8.43219 8.52499 8.44572 8.52626L8.45063 8.52672C8.48789 8.53004 8.52594 8.53315 8.56467 8.53533C8.57526 8.536 8.58569 8.53679 8.59626 8.53744C8.60166 8.53778 8.60709 8.53805 8.61261 8.53826C8.66683 8.54057 8.72212 8.54238 8.77941 8.54238C9.55516 8.54238 10.0505 8.30281 10.0505 8.13806V7.21345C10.0505 7.37821 9.55516 7.61777 8.77941 7.61777Z" fill="#FA4E0E"/>
  <path d="M8.77941 7.61884C8.72212 7.61884 8.66684 7.61705 8.61262 7.61474C8.59632 7.6141 8.5807 7.61281 8.56467 7.61179C8.52595 7.6096 8.48789 7.60653 8.45063 7.60319C8.43554 7.60178 8.42005 7.60037 8.40509 7.5987C8.36182 7.59395 8.31962 7.58856 8.27849 7.58227C8.27328 7.5815 8.26727 7.58086 8.26193 7.58009C8.21386 7.57252 8.16845 7.5638 8.12438 7.55456C8.1181 7.55327 8.1121 7.55161 8.10582 7.55032C8.06816 7.54211 8.0321 7.53313 7.99778 7.52376C7.99097 7.52184 7.98416 7.51991 7.97748 7.51799C7.79359 7.46564 7.65832 7.39917 7.58166 7.33309C7.57886 7.33052 7.57592 7.32821 7.57338 7.32551C7.5663 7.31923 7.55949 7.31307 7.55375 7.30665C7.54614 7.29831 7.53893 7.28997 7.53319 7.28189C7.53065 7.27817 7.52878 7.2747 7.52664 7.27124C7.52264 7.26444 7.51916 7.25789 7.51636 7.25122C7.51489 7.24814 7.51369 7.24506 7.51289 7.24198C7.51008 7.23261 7.50781 7.22312 7.50781 7.21414C7.50781 7.204 7.50982 7.19335 7.51369 7.18257C7.51716 7.17282 7.52237 7.16307 7.52851 7.15319C7.53065 7.14985 7.53359 7.14639 7.53626 7.14279C7.54093 7.13625 7.54587 7.1297 7.55175 7.12316C7.55575 7.11893 7.56043 7.11456 7.56484 7.11033C7.57084 7.10456 7.57685 7.09878 7.58366 7.09301C7.58927 7.08826 7.59555 7.08351 7.60196 7.07864C7.60877 7.07363 7.61558 7.0685 7.62306 7.06337C7.63067 7.0581 7.63895 7.05272 7.64723 7.04733C7.65418 7.04309 7.66165 7.0386 7.66913 7.03411C7.67928 7.02821 7.68956 7.02243 7.70038 7.01679C7.70719 7.01319 7.7144 7.00973 7.72135 7.00627C7.7343 6.99985 7.74725 6.99343 7.76141 6.98715C7.76635 6.98496 7.77156 6.98278 7.77664 6.9806C7.91699 6.92004 8.10862 6.86768 8.34152 6.83753C8.34232 6.83727 8.34299 6.83727 8.34379 6.83715C8.37718 6.83291 8.4115 6.82906 8.44649 6.82585C8.44796 6.82573 8.44929 6.82573 8.45063 6.82534C8.48588 6.822 8.52181 6.81918 8.55866 6.81687H8.55893C8.62957 6.81264 8.70249 6.80981 8.77888 6.80981C8.85901 6.80981 8.93606 6.81238 9.01004 6.81726C9.13371 6.82521 9.24774 6.83958 9.35218 6.85819C9.35952 6.85947 9.36673 6.86088 9.37381 6.86217C9.45634 6.87769 9.53246 6.89604 9.60137 6.91632C9.60844 6.91837 9.61539 6.92042 9.62234 6.92273C9.65573 6.933 9.6879 6.94365 9.71781 6.95481C9.71822 6.95494 9.71848 6.95507 9.71902 6.95532C9.74774 6.96597 9.77457 6.97752 9.79995 6.98881C9.80623 6.99164 9.81224 6.99459 9.81838 6.99741C9.84295 7.00909 9.86672 7.02089 9.88769 7.03308C9.88809 7.03334 9.88862 7.03385 9.88942 7.03411C9.90972 7.04579 9.92748 7.05759 9.9439 7.06953C9.94844 7.07273 9.95272 7.07594 9.95686 7.07915C9.97289 7.09147 9.98771 7.10379 9.9996 7.11585C10.0328 7.14998 10.0505 7.1836 10.0505 7.21452C10.0505 7.37928 9.55516 7.61884 8.77941 7.61884Z" fill="white"/>
  <path d="M8.77941 7.61884C8.72212 7.61884 8.66684 7.61705 8.61262 7.61474C8.59632 7.6141 8.5807 7.61281 8.56467 7.61179C8.52595 7.6096 8.48789 7.60653 8.45063 7.60319C8.43554 7.60178 8.42005 7.60037 8.40509 7.5987C8.36182 7.59395 8.31962 7.58856 8.27849 7.58227C8.27328 7.5815 8.26727 7.58086 8.26193 7.58009C8.21386 7.57252 8.16845 7.5638 8.12438 7.55456C8.1181 7.55327 8.1121 7.55161 8.10582 7.55032C8.06816 7.54211 8.0321 7.53313 7.99778 7.52376C7.99097 7.52184 7.98416 7.51991 7.97748 7.51799C7.79359 7.46564 7.65832 7.39917 7.58166 7.33309C7.57886 7.33052 7.57592 7.32821 7.57338 7.32551C7.5663 7.31923 7.55949 7.31307 7.55375 7.30665C7.54614 7.29831 7.53893 7.28997 7.53319 7.28189C7.53065 7.27817 7.52878 7.2747 7.52664 7.27124C7.52264 7.26444 7.51916 7.25789 7.51636 7.25122C7.51489 7.24814 7.51369 7.24506 7.51289 7.24198C7.51008 7.23261 7.50781 7.22312 7.50781 7.21414C7.50781 7.204 7.50982 7.19335 7.51369 7.18257C7.51716 7.17282 7.52237 7.16307 7.52851 7.15319C7.53065 7.14985 7.53359 7.14639 7.53626 7.14279C7.54093 7.13625 7.54587 7.1297 7.55175 7.12316C7.55575 7.11893 7.56043 7.11456 7.56484 7.11033C7.57084 7.10456 7.57685 7.09878 7.58366 7.09301C7.58927 7.08826 7.59555 7.08351 7.60196 7.07864C7.60877 7.07363 7.61558 7.0685 7.62306 7.06337C7.63067 7.0581 7.63895 7.05272 7.64723 7.04733C7.65418 7.04309 7.66165 7.0386 7.66913 7.03411C7.67928 7.02821 7.68956 7.02243 7.70038 7.01679C7.70719 7.01319 7.7144 7.00973 7.72135 7.00627C7.7343 6.99985 7.74725 6.99343 7.76141 6.98715C7.76635 6.98496 7.77156 6.98278 7.77664 6.9806C7.91699 6.92004 8.10862 6.86768 8.34152 6.83753C8.34232 6.83727 8.34299 6.83727 8.34379 6.83715C8.37718 6.83291 8.4115 6.82906 8.44649 6.82585C8.44796 6.82573 8.44929 6.82573 8.45063 6.82534C8.48588 6.822 8.52181 6.81918 8.55866 6.81687H8.55893C8.62957 6.81264 8.70249 6.80981 8.77888 6.80981C8.85901 6.80981 8.93606 6.81238 9.01004 6.81726C9.13371 6.82521 9.24774 6.83958 9.35218 6.85819C9.35952 6.85947 9.36673 6.86088 9.37381 6.86217C9.45634 6.87769 9.53246 6.89604 9.60137 6.91632C9.60844 6.91837 9.61539 6.92042 9.62234 6.92273C9.65573 6.933 9.6879 6.94365 9.71781 6.95481C9.71822 6.95494 9.71848 6.95507 9.71902 6.95532C9.74774 6.96597 9.77457 6.97752 9.79995 6.98881C9.80623 6.99164 9.81224 6.99459 9.81838 6.99741C9.84295 7.00909 9.86672 7.02089 9.88769 7.03308C9.88809 7.03334 9.88862 7.03385 9.88942 7.03411C9.90972 7.04579 9.92748 7.05759 9.9439 7.06953C9.94844 7.07273 9.95272 7.07594 9.95686 7.07915C9.97289 7.09147 9.98771 7.10379 9.9996 7.11585C10.0328 7.14998 10.0505 7.1836 10.0505 7.21452C10.0505 7.37928 9.55516 7.61884 8.77941 7.61884Z" fill="white"/>
  <path fill-rule="evenodd" clip-rule="evenodd" d="M5.88878 6.46372C5.83149 6.46372 5.7762 6.46191 5.72198 6.4596C5.71537 6.45935 5.70886 6.45898 5.7024 6.45855L5.68804 6.4576L5.67404 6.45666C5.63532 6.45449 5.59727 6.45139 5.56001 6.44806L5.55507 6.44761C5.54573 6.44673 5.53626 6.44586 5.52691 6.4449L5.51446 6.44357C5.47119 6.43883 5.429 6.43344 5.38787 6.42715L5.37932 6.42602L5.37131 6.42498C5.3478 6.42125 5.32493 6.41727 5.30256 6.4131C5.27915 6.40875 5.25628 6.40415 5.23375 6.39944C5.23062 6.39879 5.22754 6.39806 5.22448 6.39733L5.21853 6.39594L5.2152 6.39521C5.17753 6.387 5.14148 6.378 5.10714 6.36863L5.08685 6.36287C4.90297 6.3105 4.7677 6.24405 4.69103 6.17797L4.68818 6.17543L4.68793 6.17526C4.68614 6.17368 4.68437 6.1721 4.68276 6.17038C4.67568 6.16411 4.66887 6.15793 4.66312 6.15153C4.65552 6.14318 4.6483 6.13485 4.64255 6.12675C4.64144 6.12512 4.64047 6.12354 4.63952 6.12199L4.63815 6.11967L4.63602 6.11612C4.63202 6.10932 4.62854 6.10277 4.62574 6.09608C4.62427 6.09301 4.62306 6.08993 4.62227 6.08686C4.61947 6.07754 4.61722 6.06812 4.61719 6.0592V6.98381C4.61719 6.99262 4.61946 7.00209 4.62227 7.01147C4.62306 7.01454 4.62427 7.01761 4.62574 7.02069C4.62854 7.02738 4.63202 7.03392 4.63602 7.04072L4.63808 7.04416C4.63946 7.04651 4.64086 7.04888 4.64255 7.05136C4.6483 7.05945 4.65552 7.06779 4.66312 7.07613C4.66887 7.08253 4.67568 7.08872 4.68276 7.09498C4.68444 7.09678 4.68629 7.0984 4.68817 7.10003L4.69103 7.10257C4.7677 7.16866 4.90297 7.2351 5.08685 7.28747L5.10716 7.29323C5.14148 7.3026 5.17753 7.3116 5.2152 7.31981C5.22148 7.32108 5.22749 7.32275 5.23375 7.32404C5.27782 7.33327 5.32323 7.34199 5.37131 7.34958L5.37928 7.35062L5.38787 7.35175C5.429 7.35804 5.47119 7.36344 5.51446 7.36818C5.5278 7.36967 5.54157 7.37094 5.5551 7.37221L5.56001 7.37266C5.59727 7.37599 5.63532 7.3791 5.67404 7.38127C5.68464 7.38194 5.69506 7.38274 5.70563 7.38339C5.71104 7.38372 5.71647 7.384 5.72198 7.38421C5.7762 7.38652 5.83149 7.38832 5.88878 7.38832C6.66454 7.38832 7.15985 7.14876 7.15985 6.98401V6.0594C7.15985 6.22416 6.66454 6.46372 5.88878 6.46372Z" fill="#FA4E0E"/>
  <path d="M5.88878 6.46491C5.83149 6.46491 5.77621 6.46312 5.72199 6.46081C5.7057 6.46016 5.69007 6.45888 5.67405 6.45786C5.63532 6.45567 5.59726 6.45259 5.56 6.44926C5.54491 6.44785 5.52942 6.44644 5.51446 6.44477C5.4712 6.44002 5.429 6.43463 5.38786 6.42834C5.38266 6.42757 5.37665 6.42693 5.37131 6.42616C5.32323 6.41859 5.27783 6.40987 5.23376 6.40063C5.22748 6.39934 5.22147 6.39768 5.21519 6.39639C5.17753 6.38818 5.14148 6.3792 5.10716 6.36983C5.10035 6.36791 5.09354 6.36598 5.08686 6.36406C4.90297 6.3117 4.76769 6.24524 4.69104 6.17915C4.68823 6.17659 4.68529 6.17428 4.68276 6.17158C4.67568 6.1653 4.66887 6.15914 4.66313 6.15272C4.65551 6.14438 4.6483 6.13604 4.64256 6.12796C4.64002 6.12424 4.63815 6.12077 4.63602 6.11731C4.63201 6.11051 4.62854 6.10396 4.62573 6.09729C4.62427 6.09421 4.62306 6.09113 4.62226 6.08805C4.61946 6.07868 4.61719 6.06919 4.61719 6.06021C4.61719 6.05007 4.61919 6.03942 4.62306 6.02864C4.62654 6.01889 4.63174 6.00914 4.63789 5.99926C4.64002 5.99592 4.64296 5.99245 4.64563 5.98886C4.65031 5.98232 4.65525 5.97577 4.66112 5.96923C4.66513 5.965 4.6698 5.96063 4.67421 5.9564C4.68022 5.95062 4.68623 5.94485 4.69304 5.93908C4.69865 5.93433 4.70493 5.92958 4.71134 5.9247C4.71815 5.9197 4.72496 5.91457 4.73244 5.90943C4.74005 5.90417 4.74833 5.89879 4.75661 5.8934C4.76355 5.88916 4.77103 5.88467 4.77851 5.88018C4.78866 5.87428 4.79894 5.8685 4.80976 5.86286C4.81657 5.85926 4.82378 5.8558 4.83072 5.85233C4.84368 5.84592 4.85663 5.8395 4.87079 5.83322C4.87573 5.83103 4.88094 5.82885 4.88601 5.82667C5.02636 5.76611 5.218 5.71375 5.4509 5.6836C5.4517 5.68334 5.45237 5.68334 5.45317 5.68321C5.48655 5.67898 5.52087 5.67513 5.55586 5.67192C5.55733 5.67179 5.55867 5.67179 5.56 5.67141C5.59526 5.66807 5.63118 5.66525 5.66804 5.66294H5.66831C5.73895 5.65871 5.81187 5.65588 5.88825 5.65588C5.96838 5.65588 6.04544 5.65845 6.11942 5.66333C6.24308 5.67128 6.35712 5.68565 6.46155 5.70426C6.46889 5.70554 6.4761 5.70695 6.48319 5.70824C6.56571 5.72376 6.64184 5.74211 6.71075 5.76239C6.71782 5.76444 6.72477 5.76649 6.73171 5.7688C6.7651 5.77907 6.79728 5.78972 6.82719 5.80088C6.82759 5.80101 6.82786 5.80114 6.82839 5.80139C6.85711 5.81204 6.88395 5.82359 6.90933 5.83488C6.9156 5.83771 6.92161 5.84066 6.92775 5.84348C6.95232 5.85516 6.9761 5.86696 6.99706 5.87915C6.99747 5.87941 6.998 5.87992 6.9988 5.88018C7.01909 5.89186 7.03685 5.90366 7.05328 5.91559C7.05782 5.9188 7.0621 5.92201 7.06623 5.92522C7.08226 5.93754 7.09708 5.94985 7.10897 5.96192C7.14222 5.99605 7.15985 6.02967 7.15985 6.06059C7.15985 6.22535 6.66454 6.46491 5.88878 6.46491Z" fill="white"/>
  <path d="M5.88878 6.46491C5.83149 6.46491 5.77621 6.46312 5.72199 6.46081C5.7057 6.46016 5.69007 6.45888 5.67405 6.45786C5.63532 6.45567 5.59726 6.45259 5.56 6.44926C5.54491 6.44785 5.52942 6.44644 5.51446 6.44477C5.4712 6.44002 5.429 6.43463 5.38786 6.42834C5.38266 6.42757 5.37665 6.42693 5.37131 6.42616C5.32323 6.41859 5.27783 6.40987 5.23376 6.40063C5.22748 6.39934 5.22147 6.39768 5.21519 6.39639C5.17753 6.38818 5.14148 6.3792 5.10716 6.36983C5.10035 6.36791 5.09354 6.36598 5.08686 6.36406C4.90297 6.3117 4.76769 6.24524 4.69104 6.17915C4.68823 6.17659 4.68529 6.17428 4.68276 6.17158C4.67568 6.1653 4.66887 6.15914 4.66313 6.15272C4.65551 6.14438 4.6483 6.13604 4.64256 6.12796C4.64002 6.12424 4.63815 6.12077 4.63602 6.11731C4.63201 6.1105 4.62854 6.10396 4.62573 6.09729C4.62427 6.09421 4.62306 6.09113 4.62226 6.08805C4.61946 6.07868 4.61719 6.06919 4.61719 6.06021C4.61719 6.05007 4.61919 6.03942 4.62306 6.02864C4.62654 6.01889 4.63174 6.00914 4.63789 5.99926C4.64002 5.99592 4.64296 5.99245 4.64563 5.98886C4.65031 5.98232 4.65525 5.97577 4.66112 5.96923C4.66513 5.965 4.6698 5.96063 4.67421 5.9564C4.68022 5.95062 4.68623 5.94485 4.69304 5.93908C4.69865 5.93433 4.70493 5.92958 4.71134 5.9247C4.71815 5.9197 4.72496 5.91457 4.73244 5.90943C4.74005 5.90417 4.74833 5.89879 4.75661 5.8934C4.76355 5.88916 4.77103 5.88467 4.77851 5.88018C4.78866 5.87428 4.79894 5.8685 4.80976 5.86286C4.81657 5.85926 4.82378 5.8558 4.83072 5.85233C4.84368 5.84592 4.85663 5.8395 4.87079 5.83322C4.87573 5.83103 4.88094 5.82885 4.88601 5.82667C5.02636 5.76611 5.218 5.71375 5.4509 5.6836C5.4517 5.68334 5.45237 5.68334 5.45317 5.68321C5.48655 5.67898 5.52087 5.67513 5.55586 5.67192C5.55733 5.67179 5.55867 5.67179 5.56 5.67141C5.59526 5.66807 5.63118 5.66525 5.66804 5.66294H5.66831C5.73895 5.65871 5.81187 5.65588 5.88825 5.65588C5.96838 5.65588 6.04544 5.65845 6.11942 5.66333C6.24308 5.67128 6.35712 5.68565 6.46155 5.70426C6.46889 5.70554 6.4761 5.70695 6.48319 5.70824C6.56571 5.72376 6.64184 5.74211 6.71075 5.76239C6.71782 5.76444 6.72477 5.76649 6.73171 5.7688C6.7651 5.77907 6.79728 5.78972 6.82719 5.80088C6.82759 5.80101 6.82786 5.80114 6.82839 5.80139C6.85711 5.81204 6.88395 5.82359 6.90933 5.83488C6.9156 5.83771 6.92161 5.84066 6.92775 5.84348C6.95232 5.85516 6.9761 5.86696 6.99706 5.87915C6.99747 5.87941 6.998 5.87992 6.9988 5.88018C7.01909 5.89186 7.03685 5.90366 7.05328 5.91559C7.05782 5.9188 7.0621 5.92201 7.06623 5.92522C7.08226 5.93754 7.09708 5.94985 7.10897 5.96192C7.14222 5.99605 7.15985 6.02967 7.15985 6.06059C7.15985 6.22535 6.66454 6.46491 5.88878 6.46491Z" fill="white"/>
</svg>
