<svg width="20" height="20" viewBox="0 0 20 20" fill="none" xmlns="http://www.w3.org/2000/svg">
<g opacity="0.7" clip-path="url(#clip0_29237_5637)">
<path fill-rule="evenodd" clip-rule="evenodd" d="M16.4809 3.69164C16.6868 3.60496 16.9122 3.57507 17.1336 3.60507C17.355 3.63507 17.5643 3.72386 17.7398 3.86221C17.9152 4.00056 18.0504 4.1834 18.1312 4.39171C18.212 4.60001 18.2355 4.82617 18.1992 5.04664L16.3092 16.5108C16.1259 17.6166 14.9125 18.2508 13.8984 17.7C13.05 17.2391 11.79 16.5291 10.6567 15.7883C10.09 15.4175 8.3542 14.23 8.56754 13.385C8.75087 12.6625 11.6675 9.94747 13.3342 8.3333C13.9884 7.69914 13.69 7.3333 12.9175 7.91664C10.9992 9.36497 7.9192 11.5675 6.90087 12.1875C6.00254 12.7341 5.5342 12.8275 4.9742 12.7341C3.95254 12.5641 3.00504 12.3008 2.2317 11.98C1.1867 11.5466 1.23754 10.11 2.23087 9.69164L16.4809 3.69164Z" fill="white"/>
</g>
<defs>
<clipPath id="clip0_29237_5637">
<rect width="20" height="20" fill="white"/>
</clipPath>
</defs>
</svg>
