<svg width="18" height="15" viewBox="0 0 18 15" fill="none" xmlns="http://www.w3.org/2000/svg">
  <path fill-rule="evenodd" clip-rule="evenodd" d="M15.4789 0.191638C15.6848 0.104963 15.9103 0.07507 16.1317 0.105069C16.3531 0.135067 16.5624 0.223861 16.7378 0.362209C16.9133 0.500556 17.0484 0.683399 17.1292 0.891706C17.21 1.10001 17.2335 1.32617 17.1973 1.54664L15.3073 13.0108C15.1239 14.1166 13.9106 14.7508 12.8964 14.2C12.0481 13.7391 10.7881 13.0291 9.65475 12.2883C9.08808 11.9175 7.35225 10.73 7.56558 9.88497C7.74892 9.16247 10.6656 6.44747 12.3323 4.8333C12.9864 4.19914 12.6881 3.8333 11.9156 4.41664C9.99725 5.86497 6.91725 8.06747 5.89892 8.68747C5.00058 9.23414 4.53225 9.32747 3.97225 9.23414C2.95058 9.06414 2.00308 8.80081 1.22975 8.47997C0.18475 8.04664 0.235584 6.60997 1.22892 6.19164L15.4789 0.191638Z" fill="black"/>
</svg>
