<svg width="18" height="17" viewBox="0 0 18 17" fill="none" xmlns="http://www.w3.org/2000/svg">
  <path fill-rule="evenodd" clip-rule="evenodd" d="M6.63146 0.335733C4.98838 0.813666 3.52764 1.77604 2.44005 3.09713C1.35246 4.41822 0.688588 6.03661 0.535156 7.7409H4.42047C4.64571 5.14752 5.39763 2.62734 6.63024 0.334519L6.63146 0.335733ZM4.42047 9.2586H0.535156C0.688267 10.9629 1.35185 12.5815 2.43923 13.9028C3.5266 15.2241 4.98721 16.1868 6.63024 16.665C5.39763 14.3722 4.64571 11.852 4.42047 9.2586ZM8.57776 16.9892C7.10473 14.6549 6.20213 12.0066 5.94303 9.2586H12.0563C11.7972 12.0066 10.8946 14.6549 9.4216 16.9892C9.14048 17.0028 8.85887 17.0028 8.57776 16.9892ZM11.3703 16.6638C13.0132 16.1856 14.4737 15.2232 15.561 13.9021C16.6484 12.581 17.3121 10.9627 17.4654 9.2586H13.5801C13.3549 11.852 12.6029 14.3722 11.3703 16.665V16.6638ZM13.5801 7.7409H17.4654C17.3123 6.03655 16.6487 4.418 15.5613 3.09669C14.474 1.77538 13.0134 0.812735 11.3703 0.334519C12.603 2.62733 13.3549 5.14751 13.5801 7.7409ZM8.57776 0.0103378C8.85927 -0.00344594 9.1413 -0.00344594 9.42281 0.0103378C10.8954 2.34469 11.7976 4.99302 12.0563 7.7409H5.94424C6.20772 4.97626 7.11227 2.32574 8.57776 0.0103378Z" fill="black"/>
</svg>
