<svg width="20" height="20" viewBox="0 0 20 20" fill="none" xmlns="http://www.w3.org/2000/svg">
<path opacity="0.7" fill-rule="evenodd" clip-rule="evenodd" d="M7.20166 0.394994C5.26066 0.957288 3.53507 2.08953 2.25028 3.64381C0.965492 5.19809 0.181251 7.10215 0 9.10726H4.58979C4.85587 6.05611 5.74412 3.0911 7.20023 0.393565L7.20166 0.394994ZM4.58979 10.8929H0C0.180872 12.898 0.964778 14.8023 2.24931 16.3568C3.53385 17.9114 5.25929 19.0439 7.20023 19.6066C5.74412 16.909 4.85587 13.944 4.58979 10.8929ZM9.50086 19.988C7.76075 17.2417 6.69449 14.1259 6.38841 10.8929H13.6102C13.3041 14.1259 12.2378 17.2417 10.4977 19.988C10.1656 20.004 9.83295 20.004 9.50086 19.988ZM12.7998 19.6051C14.7405 19.0426 16.4658 17.9102 17.7503 16.356C19.0348 14.8017 19.8189 12.8978 20 10.8929H15.4102C15.1441 13.944 14.2559 16.909 12.7998 19.6066V19.6051ZM15.4102 9.10726H20C19.8191 7.10207 19.0352 5.19783 17.7507 3.64329C16.4662 2.08875 14.7407 0.956192 12.7998 0.393565C14.2559 3.09108 15.1442 6.05611 15.4102 9.10726ZM9.50086 0.0121626C9.83342 -0.00405419 10.1666 -0.00405419 10.4991 0.0121626C12.2387 2.75856 13.3045 5.87435 13.6102 9.10726H6.38984C6.70109 5.85462 7.76965 2.73626 9.50086 0.0121626Z" fill="white"/>
</svg>
