<svg width="49" height="48" viewBox="0 0 49 48" fill="none" xmlns="http://www.w3.org/2000/svg">
  <rect x="0.5" width="48" height="48" rx="24" fill="black"/>
  <path d="M19.0009 33.5109C18.3587 33.5437 17.7163 33.4464 17.1139 33.2247C16.5116 33.003 15.962 32.662 15.4993 32.2223C14.5932 31.2609 14.0319 30.0344 13.9011 28.7296C13.6948 27.1333 13.7841 25.5136 14.1648 23.9486C14.5093 22.2283 15.162 20.5818 16.0925 19.0863C16.8861 17.8014 17.9473 16.6966 19.2069 15.8449C20.3075 15.0654 21.624 14.6355 22.9801 14.6132C23.8827 14.5795 24.7714 14.8387 25.5095 15.3506C26.199 15.8669 26.7432 16.5473 27.0913 17.3278C27.5138 18.2454 27.8263 19.2079 28.0222 20.1965C28.2474 21.277 28.4204 22.4116 28.5413 23.6001L29.0602 27.4493C29.1718 28.466 29.4296 29.4618 29.8264 30.4071C29.9326 30.7122 30.1288 30.9794 30.3898 31.1744C30.6512 31.3692 30.9657 31.4831 31.2929 31.5011C31.7982 31.4826 32.2838 31.3033 32.6771 30.9907C33.1634 30.6286 33.6233 30.2332 34.0529 29.8075L34.8767 30.7879C34.2622 31.4791 33.5619 32.0915 32.7924 32.6114C32.0781 33.1347 31.2116 33.4188 30.3207 33.4216C29.9668 33.4364 29.6141 33.371 29.2899 33.2304C28.9656 33.09 28.6784 32.8781 28.4506 32.6114C27.9341 31.9715 27.548 31.2396 27.3137 30.4558C27.0144 29.4904 26.8048 28.5004 26.6877 27.498C26.5475 26.4201 26.424 25.3586 26.3002 24.3213C26.1191 22.7817 25.8966 21.412 25.6412 20.2694C25.4612 19.2759 25.0864 18.3262 24.5373 17.4738C24.3165 17.1447 24.0134 16.8771 23.657 16.6968C23.3005 16.5164 22.9027 16.4296 22.5022 16.4446C21.5795 16.4632 20.6975 16.8218 20.0307 17.4494C19.1956 18.2191 18.5162 19.1376 18.0287 20.156C17.4066 21.4036 16.9604 22.7285 16.7023 24.0944C16.4098 25.3532 16.3182 26.6491 16.4305 27.9356C16.4879 28.8993 16.8413 29.8232 17.4437 30.5854C17.724 30.9075 18.0751 31.1625 18.4705 31.331C18.8661 31.4995 19.2952 31.5771 19.7258 31.5579C20.6544 31.5518 21.5591 31.2691 22.321 30.7474C23.3028 30.0836 24.1871 29.29 24.9491 28.3893C25.932 27.2472 26.8217 26.0306 27.6104 24.7509C28.5001 23.3083 29.42 21.7228 30.3702 19.994C31.3206 18.2653 32.2761 16.4285 33.2373 14.4834L35.2063 15.1966C34.0585 17.2711 32.96 19.2269 31.9109 21.0637C30.8619 22.9005 29.821 24.5805 28.7884 26.1042C27.8628 27.4929 26.8299 28.8096 25.6988 30.0424C24.7719 31.0551 23.6874 31.9169 22.4858 32.5952C21.4224 33.1875 20.2229 33.5027 19.0009 33.5109Z" fill="white"/>
</svg>
