<svg width="49" height="48" viewBox="0 0 49 48" fill="none" xmlns="http://www.w3.org/2000/svg">
  <g clip-path="url(#clip0_29425_7035)">
    <path d="M24.5 48C37.7548 48 48.5 37.2548 48.5 24C48.5 10.7452 37.7548 0 24.5 0C11.2452 0 0.5 10.7452 0.5 24C0.5 37.2548 11.2452 48 24.5 48Z" fill="#F8D34C"/>
    <path d="M24.5 2.08691C20.166 2.08691 15.9293 3.37209 12.3257 5.77993C8.72215 8.18776 5.9135 11.6101 4.25495 15.6142C2.59641 19.6183 2.16246 24.0243 3.00798 28.275C3.8535 32.5257 5.94051 36.4302 9.00511 39.4948C12.0697 42.5594 15.9742 44.6464 20.2249 45.4919C24.4757 46.3375 28.8816 45.9035 32.8857 44.245C36.8898 42.5864 40.3122 39.7778 42.72 36.1742C45.1278 32.5706 46.413 28.3339 46.413 24C46.413 18.1883 44.1043 12.6146 39.9948 8.5051C35.8853 4.3956 30.3117 2.08691 24.5 2.08691ZM24.5 43.826C20.5787 43.826 16.7456 42.6633 13.4852 40.4847C10.2248 38.3062 7.68364 35.2098 6.18305 31.5871C4.68246 27.9643 4.28984 23.978 5.05483 20.1321C5.81983 16.2862 7.70808 12.7535 10.4808 9.9808C13.2535 7.20807 16.7862 5.31982 20.6321 4.55482C24.478 3.78983 28.4643 4.18245 32.0871 5.68304C35.7098 7.18363 38.8062 9.72479 40.9848 12.9852C43.1633 16.2456 44.326 20.0787 44.326 24C44.326 29.2582 42.2372 34.301 38.5191 38.0191C34.801 41.7372 29.7582 43.826 24.5 43.826Z" fill="#BB991D"/>
    <path d="M24.5005 40.6959C24.2238 40.6959 23.9583 40.586 23.7627 40.3903C23.567 40.1946 23.457 39.9292 23.457 39.6524V36.522C23.457 36.2452 23.567 35.9798 23.7627 35.7841C23.9583 35.5885 24.2238 35.4785 24.5005 35.4785C24.7773 35.4785 25.0427 35.5885 25.2384 35.7841C25.4341 35.9798 25.544 36.2452 25.544 36.522V39.6524C25.544 39.9292 25.4341 40.1946 25.2384 40.3903C25.0427 40.586 24.7773 40.6959 24.5005 40.6959Z" fill="#BB991D"/>
    <path d="M40.378 29.1592C40.2925 29.4224 40.1059 29.6408 39.8594 29.7664C39.6128 29.892 39.3264 29.9146 39.0633 29.8291L36.082 28.8618C35.9461 28.8242 35.8193 28.7596 35.7091 28.6716C35.5989 28.5837 35.5076 28.4744 35.4409 28.3502C35.3741 28.226 35.3332 28.0896 35.3206 27.9492C35.308 27.8088 35.324 27.6673 35.3676 27.5332C35.4112 27.3992 35.4815 27.2753 35.5743 27.1692C35.6671 27.063 35.7804 26.9768 35.9075 26.9157C36.0345 26.8546 36.1726 26.8198 36.3134 26.8135C36.4543 26.8073 36.5949 26.8296 36.7269 26.8792L39.704 27.8465C39.9674 27.9312 40.1864 28.1171 40.3129 28.3632C40.4393 28.6094 40.4627 28.8957 40.378 29.1592Z" fill="#BB991D"/>
    <path d="M34.3135 10.4929C34.4249 10.5735 34.5192 10.6753 34.591 10.7924C34.6629 10.9095 34.7109 11.0397 34.7323 11.1754C34.7538 11.3112 34.7482 11.4498 34.7159 11.5834C34.6836 11.717 34.6252 11.8428 34.5442 11.9538L32.7035 14.4832C32.5402 14.7071 32.2946 14.8569 32.0209 14.8998C31.7471 14.9426 31.4675 14.875 31.2436 14.7117C31.0197 14.5484 30.8699 14.3029 30.827 14.0291C30.7842 13.7553 30.8518 13.4758 31.0151 13.2519L32.8558 10.7193C33.0191 10.4961 33.2644 10.3468 33.5378 10.3044C33.8112 10.2619 34.0902 10.3297 34.3135 10.4929Z" fill="#BB991D"/>
    <path d="M14.6913 10.493C14.8022 10.4119 14.9281 10.3535 15.0617 10.3212C15.1953 10.2889 15.3339 10.2833 15.4696 10.3048C15.6054 10.3262 15.7355 10.3742 15.8527 10.4461C15.9698 10.518 16.0716 10.6123 16.1522 10.7236L17.9845 13.2519C18.1472 13.4758 18.2144 13.7552 18.1711 14.0285C18.1279 14.3019 17.9778 14.5469 17.7539 14.7096C17.53 14.8724 17.2507 14.9395 16.9773 14.8963C16.7039 14.853 16.4589 14.7029 16.2962 14.479L14.4555 11.9465C14.2946 11.7223 14.229 11.4435 14.2732 11.171C14.3174 10.8986 14.4678 10.6548 14.6913 10.493Z" fill="#BB991D"/>
    <path d="M8.62137 29.1593C8.53587 28.8961 8.55841 28.6098 8.68405 28.3632C8.80968 28.1166 9.0281 27.9301 9.29128 27.8445L12.2683 26.8772C12.4003 26.8276 12.5409 26.8053 12.6818 26.8116C12.8226 26.8179 12.9607 26.8526 13.0878 26.9137C13.2148 26.9749 13.3281 27.0611 13.4209 27.1672C13.5137 27.2734 13.584 27.3972 13.6277 27.5313C13.6713 27.6653 13.6872 27.8068 13.6747 27.9473C13.6621 28.0877 13.6211 28.2241 13.5544 28.3482C13.4876 28.4724 13.3964 28.5818 13.2862 28.6697C13.176 28.7576 13.0491 28.8223 12.9132 28.8598L9.93615 29.8271C9.67324 29.9127 9.3871 29.8905 9.14058 29.7653C8.89407 29.64 8.70732 29.4221 8.62137 29.1593Z" fill="#BB991D"/>
    <path d="M30.9499 33.89C30.7807 33.8899 30.6141 33.8483 30.4647 33.7689L24.5002 30.6385L18.5357 33.7689C18.3634 33.8592 18.1695 33.8995 17.9756 33.8854C17.7817 33.8712 17.5956 33.8032 17.4382 33.689C17.2809 33.5747 17.1587 33.4188 17.0852 33.2388C17.0118 33.0588 16.9901 32.8618 17.0226 32.6702L18.1621 26.0284L13.335 21.3265C13.1954 21.1906 13.0967 21.0184 13.05 20.8294C13.0033 20.6403 13.0104 20.4419 13.0705 20.2567C13.1307 20.0715 13.2415 19.9068 13.3904 19.7812C13.5393 19.6557 13.7203 19.5743 13.9131 19.5463L20.5809 18.578L23.5631 12.5363C23.6588 12.3733 23.7954 12.2382 23.9594 12.1443C24.1234 12.0504 24.3091 12.001 24.4981 12.001C24.6871 12.001 24.8728 12.0504 25.0368 12.1443C25.2008 12.2382 25.3374 12.3733 25.433 12.5363L28.4153 18.578L35.0831 19.5463C35.2759 19.5743 35.4569 19.6557 35.6058 19.7812C35.7547 19.9068 35.8655 20.0715 35.9256 20.2567C35.9858 20.4419 35.9929 20.6403 35.9462 20.8294C35.8994 21.0184 35.8007 21.1906 35.6612 21.3265L30.8362 26.0284L31.9757 32.6702C32.0013 32.8199 31.994 32.9734 31.9542 33.12C31.9144 33.2666 31.843 33.4027 31.7452 33.5189C31.6473 33.6351 31.5252 33.7284 31.3875 33.7925C31.2498 33.8566 31.0997 33.8899 30.9478 33.89H30.9499Z" fill="#FFE75C"/>
    <path d="M17.7226 27.4163C18.3406 27.7673 19.0226 27.9375 19.7684 27.9375C20.3651 27.9375 20.9192 27.8418 21.4093 27.6397C21.8994 27.4482 22.315 27.161 22.6666 26.7781C22.9756 26.459 23.21 26.0761 23.3699 25.6294C23.519 25.1933 23.6043 24.7146 23.6043 24.2041C23.6043 23.9488 23.5723 23.7148 23.519 23.4808H19.6832V24.8104H22.0699C22.0273 25.0018 21.9527 25.1933 21.8462 25.3847C21.7396 25.5762 21.6224 25.7357 21.4945 25.8527C21.047 26.2676 20.4717 26.4697 19.7791 26.4697C19.3102 26.4697 18.8947 26.3633 18.5111 26.1506C18.1275 25.9378 17.8185 25.64 17.5841 25.2465C17.3497 24.8635 17.2431 24.4168 17.2431 23.9063C17.2431 23.4063 17.3497 22.9596 17.5841 22.566C17.8079 22.1831 18.1062 21.8747 18.4898 21.6619C18.8734 21.4492 19.2889 21.3428 19.7578 21.3428C20.1627 21.3428 20.5143 21.4173 20.8126 21.5449C21.111 21.6726 21.4093 21.8853 21.6863 22.1725L22.7519 21.1301C22.3683 20.7259 21.9208 20.4068 21.42 20.1941C20.9192 19.9814 20.3651 19.875 19.7684 19.875C19.0226 19.875 18.3406 20.0558 17.7226 20.3962C17.094 20.7472 16.5932 21.2258 16.2309 21.8428C15.8686 22.4597 15.6875 23.1511 15.6875 23.9063C15.6875 24.6721 15.8686 25.3528 16.2309 25.9697C16.5932 26.5867 17.094 27.0759 17.7226 27.4163Z" fill="#BB991D"/>
    <path d="M24.9781 20.0452V27.7673H26.5018V23.9594L26.4166 22.7469L28.3664 27.7673H29.5492L31.4884 22.7469L31.4032 23.9594V27.7673H32.9375V20.0452H30.9876L28.9631 25.3954H28.9418L26.9173 20.0452H24.9781Z" fill="#BB991D"/>
  </g>
  <defs>
    <clipPath id="clip0_29425_7035">
      <rect width="48" height="48" fill="white" transform="translate(0.5)"/>
    </clipPath>
  </defs>
</svg>
