<svg width="88" height="28" viewBox="0 0 88 28" fill="none" xmlns="http://www.w3.org/2000/svg">
<path d="M6.00087 23.5107C5.35868 23.5435 4.71626 23.4462 4.11391 23.2245C3.51157 23.0028 2.96196 22.6617 2.4993 22.2221C1.59321 21.2607 1.03188 20.0342 0.901099 18.7294C0.694849 17.1331 0.784146 15.5133 1.16477 13.9484C1.5093 12.2281 2.16204 10.5816 3.09251 9.08604C3.8861 7.8012 4.94735 6.69636 6.20688 5.84464C7.30751 5.06511 8.62399 4.63526 9.98008 4.613C10.8827 4.57925 11.7714 4.83847 12.5095 5.35034C13.199 5.86667 13.7432 6.54706 14.0913 7.32753C14.5138 8.24511 14.8263 9.20769 15.0222 10.1963C15.2474 11.2767 15.4204 12.4114 15.5413 13.5999L16.0602 17.449C16.1718 18.4657 16.4296 19.4616 16.8264 20.4068C16.9326 20.712 17.1288 20.9792 17.3898 21.1742C17.6512 21.3689 17.9657 21.4828 18.2929 21.5009C18.7982 21.4824 19.2838 21.3031 19.6771 20.9904C20.1634 20.6283 20.6233 20.2329 21.0529 19.8073L21.8767 20.7877C21.2622 21.4789 20.5619 22.0913 19.7924 22.6111C19.0781 23.1345 18.2116 23.4185 17.3207 23.4214C16.9668 23.4361 16.6141 23.3707 16.2899 23.2301C15.9656 23.0897 15.6784 22.8778 15.4506 22.6111C14.9341 21.9713 14.548 21.2393 14.3137 20.4556C14.0144 19.4902 13.8048 18.5002 13.6877 17.4978C13.5475 16.4199 13.424 15.3584 13.3002 14.321C13.1191 12.7814 12.8966 11.4117 12.6412 10.2692C12.4612 9.27566 12.0864 8.32597 11.5373 7.47354C11.3165 7.14448 11.0134 6.87682 10.657 6.69659C10.3005 6.51612 9.90274 6.42941 9.50219 6.44441C8.57946 6.46292 7.6975 6.82152 7.0307 7.44917C6.19563 8.21886 5.51618 9.13737 5.02868 10.1557C4.40664 11.4033 3.96039 12.7282 3.70235 14.0942C3.40985 15.353 3.31821 16.6489 3.43047 17.9353C3.48789 18.8991 3.84133 19.823 4.44367 20.5852C4.72399 20.9072 5.07508 21.1622 5.47047 21.3307C5.8661 21.4992 6.29524 21.5768 6.72578 21.5576C7.65438 21.5515 8.55906 21.2689 9.32102 20.7471C10.3028 20.0834 11.1871 19.2898 11.9491 18.3891C12.932 17.247 13.8217 16.0303 14.6104 14.7507C15.5001 13.3081 16.42 11.7225 17.3702 9.99378C18.3206 8.26503 19.2761 6.42823 20.2373 4.48315L22.2063 5.19636C21.0585 7.27081 19.96 9.22667 18.9109 11.0635C17.8619 12.9003 16.821 14.5803 15.7884 16.1039C14.8628 17.4926 13.8299 18.8093 12.6988 20.0421C11.7719 21.0549 10.6874 21.9167 9.48578 22.595C8.42243 23.1872 7.2229 23.5025 6.00087 23.5107Z" fill="white"/>
<path d="M34.2461 20L39.8461 6H42.1261L47.7261 20H45.4461L43.8661 15.94H38.1261L36.5261 20H34.2461ZM38.8261 13.98H43.1661L41.0861 8.76H40.9061L38.8261 13.98ZM49.2007 5.76H51.1807V20H49.2007V5.76ZM54.064 10H55.704L56.024 11.12H56.204C56.704 10.32 57.864 9.76 59.124 9.76C61.884 9.76 63.904 11.98 63.904 15C63.904 18.02 61.884 20.24 59.124 20.24C57.844 20.24 56.384 19.52 56.044 18.62V24H54.064V10ZM58.924 11.58C57.204 11.58 56.044 12.96 56.044 14.96C56.044 16.98 57.204 18.36 58.924 18.36C60.684 18.36 61.924 16.94 61.924 14.96C61.924 13 60.684 11.58 58.924 11.58ZM68.1381 11.12C68.5781 10.36 69.4781 9.82 70.6781 9.82C73.0981 9.82 74.6781 11.46 74.6781 13.9V20H72.6981V14.4C72.6981 12.52 71.6181 11.6 70.1981 11.6C68.9181 11.6 67.9581 12.82 67.9581 14.64V20H65.9781V5.76H67.9581V11.12H68.1381ZM80.23 20.24C78.23 20.24 76.51 19.04 76.51 17.12C76.51 15.18 78.23 13.92 80.85 13.92C81.63 13.92 82.37 14.02 83.07 14.24V13.42C83.07 12.42 82.15 11.7 80.87 11.7C79.73 11.7 79.13 12.12 78.81 12.88L76.95 12.34C77.41 10.78 78.93 9.76 80.75 9.76C83.17 9.76 84.99 11.3 84.99 13.18V20H83.35L83.03 18.88H82.85C82.53 19.78 81.65 20.24 80.23 20.24ZM78.45 17.06C78.45 17.98 79.29 18.44 80.47 18.44C81.87 18.44 83.07 17.74 83.07 16.68V15.94C82.37 15.7 81.53 15.56 80.77 15.56C79.33 15.56 78.45 16.1 78.45 17.06Z" fill="white"/>
</svg>
