<svg width="30" height="30" viewBox="0 0 30 30" fill="none" xmlns="http://www.w3.org/2000/svg">
<path fill-rule="evenodd" clip-rule="evenodd" d="M19.6656 3.14372C19.3566 3.14372 19.1061 3.39424 19.1061 3.70326V4.82234H15.8887C15.5797 4.82234 15.3292 5.07286 15.3292 5.38188V17.412C15.3292 17.721 15.5797 17.9715 15.8887 17.9715H18.2667V17.412C18.2667 16.7939 18.7678 16.2929 19.3858 16.2929H21.624C22.242 16.2929 22.7431 16.7939 22.7431 17.412V17.9715H25.6807C25.9897 17.9715 26.2402 17.721 26.2402 17.412V5.38188C26.2402 5.07286 25.9897 4.82234 25.6807 4.82234H22.4633V3.70326C22.4633 3.39424 22.2128 3.14372 21.9038 3.14372H19.6656ZM19.3937 14.8941L17.2025 6.2772H18.8767L20.6985 13.8478H20.8709L22.6927 6.2772H24.3669L22.1757 14.8941H19.3937Z" fill="white"/>
<path fill-rule="evenodd" clip-rule="evenodd" d="M8.47417 16.8507C8.16514 16.8507 7.91463 17.1012 7.91463 17.4102V18.5293H4.30954C4.00051 18.5293 3.75 18.7798 3.75 19.0889V29.4403C3.75 29.7494 4.00051 29.9999 4.30954 29.9999H25.68C25.989 29.9999 26.2396 29.7494 26.2396 29.4403V19.0889C26.2396 18.7798 25.989 18.5293 25.68 18.5293H22.1829V17.4102C22.1829 17.1012 21.9324 16.8507 21.6234 16.8507H19.3852C19.0762 16.8507 18.8257 17.1012 18.8257 17.4102V18.5293H11.2719V17.4102C11.2719 17.1012 11.0214 16.8507 10.7123 16.8507H8.47417ZM10.4326 19.956V28.5729H12.0082V21.1501H12.2298L13.707 28.5729H16.3905L17.8677 21.1501H18.0893V28.5729H19.665V19.956H16.649L15.1596 27.4651H14.938L13.4485 19.956H10.4326Z" fill="white"/>
<path d="M8.42943 10.2732H9.95585C10.3087 10.2732 10.5919 10.187 10.8052 10.0147C11.0268 9.84236 11.1376 9.59616 11.1376 9.27611V9.15301C11.1376 8.83295 11.0309 8.58675 10.8175 8.41442C10.6042 8.24208 10.3169 8.15591 9.95585 8.15591H8.42943V10.2732Z" fill="white"/>
<path d="M8.42943 6.67872H9.93123C10.2677 6.67872 10.5426 6.59255 10.756 6.42022C10.9776 6.24788 11.0884 6.00989 11.0884 5.70624V5.58314C11.0884 5.27129 10.9817 5.0333 10.7683 4.86917C10.5549 4.69683 10.2759 4.61066 9.93123 4.61066H8.42943V6.67872Z" fill="white"/>
<path fill-rule="evenodd" clip-rule="evenodd" d="M8.09822 0C7.78919 0 7.53867 0.250515 7.53867 0.55954V1.67862H4.32132C4.01229 1.67862 3.76178 1.92913 3.76178 2.23816V14.2683C3.76178 14.5773 4.01229 14.8278 4.32132 14.8278H7.16267V13.797C7.16267 13.488 7.41318 13.2374 7.72221 13.2374H10.7124C11.0214 13.2374 11.2719 13.488 11.2719 13.797V14.8278H14.1133C14.4223 14.8278 14.6728 14.5773 14.6728 14.2683V2.23816C14.6728 1.92913 14.4223 1.67862 14.1133 1.67862H10.8959V0.55954C10.8959 0.250515 10.6454 0 10.3364 0H8.09822ZM7.16041 2.29417H7.99972V3.13348H9.50717V2.29417H10.3465V3.14019C10.7705 3.16414 11.145 3.25218 11.47 3.4043C11.8639 3.57663 12.1675 3.82694 12.3809 4.1552C12.6025 4.47526 12.7133 4.86097 12.7133 5.31233V5.43543C12.7133 5.82934 12.6394 6.1535 12.4917 6.40791C12.344 6.6541 12.1675 6.84696 11.9624 6.98647C11.7654 7.11778 11.5767 7.21215 11.3961 7.2696V7.49118C11.5767 7.54041 11.7736 7.63479 11.987 7.7743C12.2004 7.90561 12.3809 8.09846 12.5286 8.35287C12.6845 8.60727 12.7625 8.93964 12.7625 9.34997V9.47307C12.7625 9.94905 12.6517 10.3594 12.4301 10.7041C12.2086 11.0405 11.9008 11.299 11.5069 11.4796C11.1701 11.6372 10.7833 11.726 10.3465 11.746V12.5896H9.50717V11.7504H7.99972V12.5896H7.16041V11.7504H5.67202V10.3224H6.80452V4.56142H5.67202V3.13348H7.16041V2.29417Z" fill="white"/>
</svg>
