<svg width="17" height="16" viewBox="0 0 17 16" fill="none" xmlns="http://www.w3.org/2000/svg">
<rect x="0.618164" width="16" height="16" rx="8" fill="white"/>
<path d="M7.46189 5.58981C7.38873 5.59239 7.31582 5.58021 7.24747 5.554C7.17912 5.52779 7.11676 5.48807 7.0641 5.43724C7.01143 5.3864 6.96954 5.32548 6.94094 5.2581C6.91233 5.19073 6.89758 5.11827 6.89758 5.04507C6.89758 4.97188 6.91233 4.89943 6.94094 4.83205C6.96954 4.76467 7.01143 4.70375 7.0641 4.65291C7.11676 4.60207 7.17912 4.56236 7.24747 4.53615C7.31582 4.50994 7.38873 4.49776 7.46189 4.50034H11.5731C11.7175 4.50043 11.856 4.55785 11.9582 4.65999C12.0603 4.76213 12.1177 4.90063 12.1178 5.04507V9.15628C12.1204 9.22943 12.1082 9.30235 12.082 9.3707C12.0558 9.43905 12.0161 9.5014 11.9653 9.55407C11.9144 9.60674 11.8535 9.64862 11.7861 9.67723C11.7187 9.70584 11.6463 9.72057 11.5731 9.72057C11.4999 9.72057 11.4274 9.70584 11.3601 9.67723C11.2927 9.64862 11.2318 9.60674 11.1809 9.55407C11.1301 9.5014 11.0904 9.43905 11.0642 9.3707C11.038 9.30235 11.0258 9.22943 11.0284 9.15628V6.36066L6.04866 11.3404C5.94644 11.4426 5.8078 11.5 5.66324 11.5C5.51868 11.5 5.38003 11.4426 5.27781 11.3404C5.17559 11.2381 5.11816 11.0995 5.11816 10.9549C5.11816 10.8104 5.17559 10.6717 5.27781 10.5695L10.2575 5.58981H7.46189Z" fill="black"/>
</svg>
