<svg width="24" height="24" viewBox="0 0 24 24" fill="none" xmlns="http://www.w3.org/2000/svg">
<rect width="24" height="24" fill="white"/>
<path d="M10.1145 9.7962C10.0306 9.7992 9.94702 9.7852 9.86862 9.7551C9.79022 9.7251 9.71872 9.6795 9.65832 9.6213C9.59802 9.563 9.54992 9.4931 9.51712 9.4158C9.48432 9.3386 9.46742 9.2555 9.46742 9.1716C9.46742 9.0877 9.48432 9.0046 9.51712 8.9273C9.54992 8.8501 9.59802 8.7802 9.65832 8.7219C9.71872 8.6636 9.79022 8.6181 9.86862 8.588C9.94702 8.558 10.0306 8.544 10.1145 8.547H14.8285C14.9941 8.5471 15.153 8.6129 15.2701 8.73C15.3872 8.8471 15.453 9.006 15.4531 9.1716V13.8856C15.4561 13.9695 15.4421 14.0531 15.4121 14.1315C15.382 14.2099 15.3365 14.2814 15.2782 14.3418C15.2199 14.4021 15.15 14.4502 15.0728 14.483C14.9955 14.5158 14.9125 14.5327 14.8285 14.5327C14.7446 14.5327 14.6615 14.5158 14.5843 14.483C14.507 14.4502 14.4371 14.4021 14.3788 14.3418C14.3206 14.2814 14.275 14.2099 14.245 14.1315C14.2149 14.0531 14.2009 13.9695 14.2039 13.8856V10.6801L8.49402 16.39C8.37682 16.5072 8.21782 16.573 8.05212 16.573C7.88632 16.573 7.72732 16.5072 7.61012 16.39C7.49292 16.2728 7.42712 16.1138 7.42712 15.948C7.42712 15.7823 7.49292 15.6233 7.61012 15.5061L13.32 9.7962H10.1145Z" fill="black"/>
</svg>
