<svg width="120" height="120" viewBox="0 0 120 120" fill="none" xmlns="http://www.w3.org/2000/svg">
<path opacity="0.3" fill-rule="evenodd" clip-rule="evenodd" d="M73.7201 49.2987C70.4194 45.2565 65.3965 42.6758 59.7709 42.6758C54.2273 42.6758 49.2691 45.1818 45.9672 49.1227L24.8209 37.2279C24.1591 36.8557 24.1373 35.9108 24.7811 35.5084L59.4701 13.8278C59.7943 13.6251 60.2058 13.6251 60.5301 13.8278L95.219 35.5084C95.8629 35.9108 95.841 36.8557 95.1793 37.2279L73.7201 49.2987ZM63.5809 78.2718V104.822C63.5809 106.352 65.2283 107.315 66.5615 106.565L101.21 87.0757C101.839 86.7215 102.229 86.0551 102.229 85.3326V46.4925C102.229 44.9216 100.501 43.9639 99.1691 44.7965L77.6115 58.27C77.7103 59.0098 77.7642 59.7638 77.7703 60.5292L100.229 46.4925V85.3326L65.5809 104.822V77.7175C64.9302 77.9393 64.2628 78.1248 63.5809 78.2718ZM41.9674 58.0068L20.8309 44.7965C19.4988 43.9639 17.7709 44.9216 17.7709 46.4925V85.2994C17.7709 86.0569 18.1989 86.7494 18.8764 87.0882L53.5246 104.412C54.8544 105.077 56.419 104.11 56.419 102.623V78.3643C55.7381 78.236 55.0706 78.0694 54.419 77.8668V102.623L19.7709 85.2994V46.4925L41.7759 60.2456C41.7937 59.4868 41.8585 58.7396 41.9674 58.0068Z" fill="white"/>
<g clip-path="url(#clip0_33812_1820)">
<path fill-rule="evenodd" clip-rule="evenodd" d="M59.7709 72.676C66.3983 72.676 71.7709 67.3034 71.7709 60.676C71.7709 54.0486 66.3983 48.676 59.7709 48.676C53.1435 48.676 47.7709 54.0486 47.7709 60.676C47.7709 67.3034 53.1435 72.676 59.7709 72.676Z" fill="white"/>
<path d="M54.7709 48.6758V59.6758H57.7709V68.6758L64.7709 56.6758H60.7709L64.7709 48.6758H54.7709Z" fill="#020202"/>
</g>
<path fill-rule="evenodd" clip-rule="evenodd" d="M73.7201 49.2987C70.4194 45.2565 65.3965 42.6758 59.7709 42.6758C54.2273 42.6758 49.2691 45.1818 45.9672 49.1227L24.8209 37.2279C24.1591 36.8557 24.1373 35.9108 24.7811 35.5084L59.4701 13.8278C59.7943 13.6251 60.2058 13.6251 60.5301 13.8278L95.219 35.5084C95.8629 35.9108 95.841 36.8557 95.1793 37.2279L73.7201 49.2987Z" fill="white"/>
<defs>
<clipPath id="clip0_33812_1820">
<rect width="24" height="24" fill="white" transform="translate(47.7709 48.6758)"/>
</clipPath>
</defs>
</svg>
