<svg width="120" height="120" viewBox="0 0 120 120" fill="none" xmlns="http://www.w3.org/2000/svg">
<path d="M59.4359 15.1128L20.9669 37.6924V79.5066L59.4359 103.341L97.4868 79.5066V37.6924L59.4359 15.1128Z" stroke="white" stroke-width="2"/>
<path d="M60.4182 24.0952C64.8365 24.0952 68.4182 20.5135 68.4182 16.0952C68.4182 11.6769 64.8365 8.09521 60.4182 8.09521C55.9999 8.09521 52.4182 11.6769 52.4182 16.0952C52.4182 20.5135 55.9999 24.0952 60.4182 24.0952Z" fill="white" stroke="black" stroke-width="4"/>
<path d="M60.4182 111.905C64.8365 111.905 68.4182 108.323 68.4182 103.905C68.4182 99.4865 64.8365 95.9048 60.4182 95.9048C55.9999 95.9048 52.4182 99.4865 52.4182 103.905C52.4182 108.323 55.9999 111.905 60.4182 111.905Z" fill="#4C4C4C" stroke="black" stroke-width="4"/>
<path d="M21.9491 46.6748C26.3674 46.6748 29.9491 43.0931 29.9491 38.6748C29.9491 34.2565 26.3674 30.6748 21.9491 30.6748C17.5308 30.6748 13.9491 34.2565 13.9491 38.6748C13.9491 43.0931 17.5308 46.6748 21.9491 46.6748Z" fill="#4C4C4C" stroke="black" stroke-width="4"/>
<path d="M21.9491 88.4888C26.3674 88.4888 29.9491 84.907 29.9491 80.4888C29.9491 76.0705 26.3674 72.4888 21.9491 72.4888C17.5308 72.4888 13.9491 76.0705 13.9491 80.4888C13.9491 84.907 17.5308 88.4888 21.9491 88.4888Z" fill="white" stroke="black" stroke-width="4"/>
<path d="M98.0509 88.4888C102.469 88.4888 106.051 84.907 106.051 80.4888C106.051 76.0705 102.469 72.4888 98.0509 72.4888C93.6326 72.4888 90.0509 76.0705 90.0509 80.4888C90.0509 84.907 93.6326 88.4888 98.0509 88.4888Z" fill="white" stroke="black" stroke-width="4"/>
<path d="M98.0509 46.6748C102.469 46.6748 106.051 43.0931 106.051 38.6748C106.051 34.2565 102.469 30.6748 98.0509 30.6748C93.6326 30.6748 90.0509 34.2565 90.0509 38.6748C90.0509 43.0931 93.6326 46.6748 98.0509 46.6748Z" fill="#4C4C4C" stroke="black" stroke-width="4"/>
<circle opacity="0.3" cx="59.0176" cy="59.018" r="21.9228" stroke="white" stroke-width="2" stroke-dasharray="2 2"/>
</svg>
