<svg width="120" height="120" viewBox="0 0 120 120" fill="none" xmlns="http://www.w3.org/2000/svg">
<circle cx="17" cy="57.9075" r="6" fill="white" fill-opacity="0.3"/>
<circle cx="103" cy="57.9075" r="6" fill="white" fill-opacity="0.3"/>
<circle cx="60" cy="17" r="6" fill="white"/>
<circle cx="60" cy="103" r="6" fill="white"/>
<path opacity="0.3" fill-rule="evenodd" clip-rule="evenodd" d="M99.6701 20.7929C100.061 21.1835 100.061 21.8166 99.6701 22.2072L85.7127 36.1659V34.7515H84.2987L98.2559 20.7929C98.6464 20.4024 99.2795 20.4024 99.6701 20.7929ZM36.1657 34.7515L22.2071 20.7929C21.8166 20.4024 21.1834 20.4024 20.7929 20.7929C20.4024 21.1835 20.4024 21.8166 20.7929 22.2072L34.7502 36.1645V34.7515H36.1657ZM34.7502 84.305L20.7929 98.2637C20.4024 98.6543 20.4024 99.2875 20.7929 99.678C21.1834 100.069 21.8165 100.069 22.207 99.678L36.1645 85.7192H34.7502V84.305ZM84.3049 85.7192L98.2598 99.6741C98.6503 100.065 99.2835 100.065 99.674 99.6741C100.065 99.2835 100.065 98.6504 99.674 98.2599L85.7127 84.2986V85.7192H84.3049Z" fill="white"/>
<path d="M73.9042 59.5693L60.9733 41.4952C60.8578 41.334 60.7056 41.2026 60.5293 41.1119C60.353 41.0212 60.1576 40.9738 59.9593 40.9736H59.9564C59.7573 40.974 59.5613 41.022 59.3845 41.1134C59.2077 41.2048 59.0553 41.3371 58.94 41.4992L46.0924 59.5732C45.9596 59.7601 45.8808 59.9799 45.8648 60.2086C45.8488 60.4373 45.8961 60.666 46.0016 60.8696C46.1064 61.0734 46.2656 61.2443 46.4614 61.3635C46.6572 61.4827 46.8821 61.5455 47.1113 61.545H53.1576L53.1571 77.7783C53.1571 77.9423 53.1893 78.1046 53.2521 78.2561C53.3148 78.4076 53.4068 78.5453 53.5227 78.6612C53.6387 78.7771 53.7764 78.8691 53.9279 78.9317C54.0794 78.9944 54.2418 79.0266 54.4058 79.0265L65.5928 79.026C65.7568 79.026 65.9193 78.9938 66.0708 78.931C66.2224 78.8683 66.3601 78.7762 66.476 78.6602C66.592 78.5442 66.684 78.4065 66.7467 78.2549C66.8094 78.1033 66.8416 77.9408 66.8414 77.7768V61.5455H72.8898C73.3563 61.5455 73.7846 61.2825 74 60.8671C74.105 60.6629 74.1517 60.4337 74.1348 60.2047C74.1179 59.9757 74.0381 59.7558 73.9042 59.5693Z" fill="white"/>
</svg>
