<svg width="28" height="28" viewBox="0 0 28 28" fill="none" xmlns="http://www.w3.org/2000/svg">
<path d="M13.3115 10.2236C13.8632 9.90498 14.7579 9.90498 15.3096 10.2236L18.5365 12.0866C19.0883 12.4051 19.0883 12.9216 18.5365 13.2402L15.3096 15.1032C14.7579 15.4218 13.8632 15.4218 13.3115 15.1032L10.0846 13.2402C9.53284 12.9216 9.53284 12.4051 10.0846 12.0866L13.3115 10.2236Z" fill="#BDCBFD"/>
<rect width="3.61999" height="3.61999" transform="matrix(0.866025 0.5 0 1 10.1309 13.2668)" fill="#93AAFC"/>
<rect width="3.61999" height="3.61999" transform="matrix(0.866025 -0.5 0 1 15.3564 15.0767)" fill="#6580E1"/>
<path d="M9.69824 12.6636C9.69824 12.8992 9.86366 13.1125 10.1311 13.2669V16.8869C9.86366 16.7325 9.69824 16.5192 9.69824 16.2836V12.6636Z" fill="#93AAFC"/>
<path d="M13.2666 15.0767C13.8437 15.4099 14.7795 15.4099 15.3566 15.0767V18.6967C14.7795 19.0299 13.8437 19.0299 13.2666 18.6967V15.0767Z" fill="#6580E1"/>
<path d="M18.9231 12.6636C18.9231 12.8992 18.7577 13.1125 18.4902 13.2669V16.8869C18.7577 16.7325 18.9231 16.5192 18.9231 16.2836V12.6636Z" fill="#6580E1"/>
<path d="M6.22162 14.4203C6.7734 14.1018 7.66801 14.1018 8.21979 14.4203L11.4466 16.2833C11.9984 16.6019 11.9984 17.1184 11.4466 17.437L8.21979 19.3C7.66801 19.6186 6.7734 19.6186 6.22162 19.3L2.99478 17.437C2.443 17.1184 2.443 16.6019 2.99478 16.2833L6.22162 14.4203Z" fill="white"/>
<rect width="3.61999" height="3.61999" transform="matrix(0.866025 0.5 0 1 3.04102 17.4636)" fill="#93AAFC"/>
<rect width="3.61999" height="3.61999" transform="matrix(0.866025 -0.5 0 1 8.2666 19.2734)" fill="#6580E1"/>
<path d="M2.6084 16.8604C2.6084 17.096 2.77381 17.3093 3.04125 17.4637V21.0837C2.77381 20.9293 2.6084 20.716 2.6084 20.4803V16.8604Z" fill="#93AAFC"/>
<path d="M6.17676 19.2734C6.7539 19.6066 7.68962 19.6066 8.26676 19.2734V22.8934C7.68962 23.2266 6.7539 23.2266 6.17676 22.8934V19.2734Z" fill="#6580E1"/>
<path d="M11.8332 16.8604C11.8332 17.096 11.6678 17.3093 11.4004 17.4637V21.0837C11.6678 20.9293 11.8332 20.716 11.8332 20.4803V16.8604Z" fill="#6580E1"/>
<path d="M19.4687 14.4203C20.0205 14.1018 20.9151 14.1018 21.4669 14.4203L24.6937 16.2833C25.2455 16.6019 25.2455 17.1184 24.6937 17.437L21.4669 19.3C20.9151 19.6186 20.0205 19.6186 19.4687 19.3L16.2418 17.437C15.6901 17.1184 15.6901 16.6019 16.2418 16.2833L19.4687 14.4203Z" fill="white"/>
<rect width="3.61999" height="3.61999" transform="matrix(0.866025 0.5 0 1 16.2881 17.4636)" fill="#93AAFC"/>
<rect width="3.61999" height="3.61999" transform="matrix(0.866025 -0.5 0 1 21.5137 19.2734)" fill="#6580E1"/>
<path d="M15.8555 16.8604C15.8555 17.096 16.0209 17.3093 16.2883 17.4637V21.0837C16.0209 20.9293 15.8555 20.716 15.8555 20.4803V16.8604Z" fill="#93AAFC"/>
<path d="M19.4238 19.2734C20.001 19.6066 20.9367 19.6066 21.5138 19.2734V22.8934C20.9367 23.2266 20.001 23.2266 19.4238 22.8934V19.2734Z" fill="#6580E1"/>
<path d="M25.0803 16.8604C25.0803 17.096 24.9149 17.3093 24.6475 17.4637V21.0837C24.9149 20.9293 25.0803 20.716 25.0803 20.4803V16.8604Z" fill="#6580E1"/>
<path d="M12.3788 18.6171C12.9306 18.2985 13.8252 18.2985 14.377 18.6171L17.6039 20.4801C18.1556 20.7987 18.1556 21.3152 17.6039 21.6338L14.377 23.4968C13.8252 23.8154 12.9306 23.8154 12.3788 23.4968L9.152 21.6338C8.60022 21.3152 8.60022 20.7987 9.152 20.4801L12.3788 18.6171Z" fill="white"/>
<rect width="3.61999" height="3.61999" transform="matrix(0.866025 0.5 0 1 9.19824 21.6602)" fill="#93AAFC"/>
<rect width="3.61999" height="3.61999" transform="matrix(0.866025 -0.5 0 1 14.4238 23.4702)" fill="#6580E1"/>
<path d="M8.76562 21.0569C8.76562 21.2925 8.93104 21.5058 9.19848 21.6602V25.2802C8.93104 25.1258 8.76562 24.9125 8.76562 24.6769V21.0569Z" fill="#93AAFC"/>
<path d="M12.334 23.4702C12.9111 23.8034 13.8468 23.8034 14.424 23.4702V27.0902C13.8468 27.4234 12.9111 27.4234 12.334 27.0902V23.4702Z" fill="#6580E1"/>
<path d="M17.9905 21.0569C17.9905 21.2925 17.8251 21.5058 17.5576 21.6602V25.2802C17.8251 25.1258 17.9905 24.9125 17.9905 24.6769V21.0569Z" fill="#6580E1"/>
<path d="M13.3115 5.57438C13.8632 5.25581 14.7579 5.25581 15.3096 5.57438L18.5365 7.4374C19.0883 7.75597 19.0883 8.27247 18.5365 8.59104L15.3096 10.4541C14.7579 10.7726 13.8632 10.7726 13.3115 10.4541L10.0846 8.59104C9.53284 8.27247 9.53284 7.75597 10.0846 7.4374L13.3115 5.57438Z" fill="white"/>
<rect width="3.61999" height="3.61999" transform="matrix(0.866025 0.5 0 1 10.1309 8.61768)" fill="#93DEFC"/>
<rect width="3.61999" height="3.61999" transform="matrix(0.866025 -0.5 0 1 15.3564 10.4275)" fill="#65BEE1"/>
<path d="M9.69824 8.0144C9.69824 8.25002 9.86366 8.46333 10.1311 8.61774V12.2377C9.86366 12.0833 9.69824 11.87 9.69824 11.6344V8.0144Z" fill="#93DEFC"/>
<path d="M13.2666 10.4275C13.8437 10.7607 14.7795 10.7607 15.3566 10.4275V14.0475C14.7795 14.3807 13.8437 14.3807 13.2666 14.0475V10.4275Z" fill="#65BEE1"/>
<path d="M18.9231 8.0144C18.9231 8.25002 18.7577 8.46333 18.4902 8.61774V12.2377C18.7577 12.0833 18.9231 11.87 18.9231 11.6344V8.0144Z" fill="#65BEE1"/>
<path d="M6.22162 9.77116C6.7734 9.45259 7.66801 9.45259 8.21979 9.77116L11.4466 11.6342C11.9984 11.9527 11.9984 12.4693 11.4466 12.7878L8.21979 14.6508C7.66801 14.9694 6.7734 14.9694 6.22162 14.6508L2.99478 12.7878C2.443 12.4693 2.443 11.9527 2.99478 11.6342L6.22162 9.77116Z" fill="white"/>
<rect width="3.61999" height="3.61999" transform="matrix(0.866025 0.5 0 1 3.04102 12.8142)" fill="#93DEFC"/>
<rect width="3.61999" height="3.61999" transform="matrix(0.866025 -0.5 0 1 8.2666 14.6243)" fill="#65BEE1"/>
<path d="M2.6084 12.2109C2.6084 12.4466 2.77381 12.6599 3.04125 12.8143V16.4343C2.77381 16.2799 2.6084 16.0665 2.6084 15.8309V12.2109Z" fill="#93DEFC"/>
<path d="M6.17676 14.6243C6.7539 14.9575 7.68962 14.9575 8.26676 14.6243V18.2443C7.68962 18.5775 6.7539 18.5775 6.17676 18.2443V14.6243Z" fill="#65BEE1"/>
<path d="M11.8332 12.2109C11.8332 12.4466 11.6678 12.6599 11.4004 12.8143V16.4343C11.6678 16.2799 11.8332 16.0665 11.8332 15.8309V12.2109Z" fill="#65BEE1"/>
<path d="M19.4687 9.77116C20.0205 9.45259 20.9151 9.45259 21.4669 9.77116L24.6937 11.6342C25.2455 11.9527 25.2455 12.4693 24.6937 12.7878L21.4669 14.6508C20.9151 14.9694 20.0205 14.9694 19.4687 14.6508L16.2418 12.7878C15.6901 12.4693 15.6901 11.9527 16.2418 11.6342L19.4687 9.77116Z" fill="white"/>
<rect width="3.61999" height="3.61999" transform="matrix(0.866025 0.5 0 1 16.2881 12.8142)" fill="#93DEFC"/>
<rect width="3.61999" height="3.61999" transform="matrix(0.866025 -0.5 0 1 21.5137 14.6243)" fill="#65BEE1"/>
<path d="M15.8555 12.2109C15.8555 12.4466 16.0209 12.6599 16.2883 12.8143V16.4343C16.0209 16.2799 15.8555 16.0665 15.8555 15.8309V12.2109Z" fill="#93DEFC"/>
<path d="M19.4238 14.6243C20.001 14.9575 20.9367 14.9575 21.5138 14.6243V18.2443C20.9367 18.5775 20.001 18.5775 19.4238 18.2443V14.6243Z" fill="#65BEE1"/>
<path d="M25.0803 12.2109C25.0803 12.4466 24.9149 12.6599 24.6475 12.8143V16.4343C24.9149 16.2799 25.0803 16.0665 25.0803 15.8309V12.2109Z" fill="#65BEE1"/>
<path d="M12.3788 13.9672C12.9306 13.6486 13.8252 13.6486 14.377 13.9672L17.6039 15.8302C18.1556 16.1488 18.1556 16.6653 17.6039 16.9839L14.377 18.8469C13.8252 19.1655 12.9306 19.1655 12.3788 18.8469L9.152 16.9839C8.60022 16.6653 8.60022 16.1488 9.152 15.8302L12.3788 13.9672Z" fill="white"/>
<rect width="3.61999" height="3.61999" transform="matrix(0.866025 0.5 0 1 9.19824 17.0105)" fill="#93DEFC"/>
<rect width="3.61999" height="3.61999" transform="matrix(0.866025 -0.5 0 1 14.4238 18.8203)" fill="#65BEE1"/>
<path d="M8.76562 16.4072C8.76562 16.6428 8.93104 16.8562 9.19848 17.0106V20.6306C8.93104 20.4761 8.76562 20.2628 8.76562 20.0272V16.4072Z" fill="#93DEFC"/>
<path d="M12.334 18.8203C12.9111 19.1535 13.8468 19.1535 14.424 18.8203V22.4403C13.8468 22.7735 12.9111 22.7735 12.334 22.4403V18.8203Z" fill="#65BEE1"/>
<path d="M17.9905 16.4072C17.9905 16.6428 17.8251 16.8562 17.5576 17.0106V20.6306C17.8251 20.4761 17.9905 20.2628 17.9905 20.0272V16.4072Z" fill="#65BEE1"/>
<path d="M13.3115 0.923991C13.8632 0.60542 14.7579 0.60542 15.3096 0.923991L18.5365 2.78701C19.0883 3.10558 19.0883 3.62208 18.5365 3.94065L15.3096 5.80367C14.7579 6.12224 13.8632 6.12224 13.3115 5.80367L10.0846 3.94065C9.53284 3.62208 9.53284 3.10558 10.0846 2.78701L13.3115 0.923991Z" fill="#BDFDCF"/>
<rect width="3.61999" height="3.61999" transform="matrix(0.866025 0.5 0 1 10.1309 3.96704)" fill="#93FCB1"/>
<rect width="3.61999" height="3.61999" transform="matrix(0.866025 -0.5 0 1 15.3564 5.7771)" fill="#65E188"/>
<path d="M9.69824 3.36377C9.69824 3.59939 9.86366 3.8127 10.1311 3.9671V7.5871C9.86366 7.43269 9.69824 7.21938 9.69824 6.98376V3.36377Z" fill="#93FCB1"/>
<path d="M13.2666 5.7771C13.8437 6.11031 14.7795 6.11031 15.3566 5.7771V9.39709C14.7795 9.7303 13.8437 9.7303 13.2666 9.39709V5.7771Z" fill="#65E188"/>
<path d="M18.9231 3.36377C18.9231 3.59939 18.7577 3.8127 18.4902 3.9671V7.5871C18.7577 7.43269 18.9231 7.21938 18.9231 6.98376V3.36377Z" fill="#65E188"/>
<path d="M6.22162 5.12028C6.7734 4.80171 7.66801 4.80171 8.21979 5.12028L11.4466 6.9833C11.9984 7.30187 11.9984 7.81837 11.4466 8.13694L8.21979 9.99996C7.66801 10.3185 6.7734 10.3185 6.22162 9.99996L2.99478 8.13694C2.443 7.81837 2.443 7.30187 2.99478 6.9833L6.22162 5.12028Z" fill="#BDFDCF"/>
<rect width="3.61999" height="3.61999" transform="matrix(0.866025 0.5 0 1 3.04102 8.16357)" fill="#93FCB1"/>
<rect width="3.61999" height="3.61999" transform="matrix(0.866025 -0.5 0 1 8.2666 9.97339)" fill="#65E188"/>
<path d="M2.6084 7.5603C2.6084 7.79592 2.77381 8.00923 3.04125 8.16364V11.7836C2.77381 11.6292 2.6084 11.4159 2.6084 11.1803V7.5603Z" fill="#93FCB1"/>
<path d="M6.17676 9.97339C6.7539 10.3066 7.68962 10.3066 8.26676 9.97339V13.5934C7.68962 13.9266 6.7539 13.9266 6.17676 13.5934V9.97339Z" fill="#65E188"/>
<path d="M11.8332 7.5603C11.8332 7.79592 11.6678 8.00923 11.4004 8.16364V11.7836C11.6678 11.6292 11.8332 11.4159 11.8332 11.1803V7.5603Z" fill="#65E188"/>
<path d="M19.4677 5.12052C20.0195 4.80195 20.9141 4.80195 21.4659 5.12052L24.6927 6.98354C25.2445 7.30211 25.2445 7.81862 24.6927 8.13719L21.4659 10.0002C20.9141 10.3188 20.0195 10.3188 19.4677 10.0002L16.2409 8.13719C15.6891 7.81862 15.6891 7.30211 16.2409 6.98354L19.4677 5.12052Z" fill="#BDFDCF"/>
<rect width="3.61999" height="3.61999" transform="matrix(0.866026 0.5 0 1 16.2871 8.16382)" fill="#93FCB1"/>
<rect width="3.61999" height="3.61999" transform="matrix(0.866025 -0.5 0 1 21.5127 9.97363)" fill="#65E188"/>
<path d="M15.8545 7.56055C15.8545 7.79616 16.0199 8.00947 16.2873 8.16388V11.7839C16.0199 11.6295 15.8545 11.4162 15.8545 11.1805V7.56055Z" fill="#93FCB1"/>
<path d="M19.4229 9.97363C20 10.3068 20.9357 10.3068 21.5129 9.97363V13.5936C20.9357 13.9268 20 13.9268 19.4229 13.5936V9.97363Z" fill="#65E188"/>
<path d="M25.0793 7.56055C25.0793 7.79616 24.9139 8.00947 24.6465 8.16388V11.7839C24.9139 11.6295 25.0793 11.4162 25.0793 11.1805V7.56055Z" fill="#65E188"/>
<path d="M12.3788 9.3173C12.9306 8.99873 13.8252 8.99873 14.377 9.3173L17.6039 11.1803C18.1556 11.4989 18.1556 12.0154 17.6039 12.334L14.377 14.197C13.8252 14.5155 12.9306 14.5155 12.3788 14.197L9.152 12.334C8.60022 12.0154 8.60022 11.4989 9.152 11.1803L12.3788 9.3173Z" fill="#BDFDCF"/>
<path d="M12.3788 9.97428C12.9306 9.65571 13.8252 9.65571 14.377 9.97428L14.4688 10.0273C15.0206 10.3459 15.0206 10.8624 14.4688 11.1809L14.377 11.234C13.8252 11.5525 12.9306 11.5525 12.3788 11.234L12.287 11.1809C11.7352 10.8624 11.7352 10.3459 12.287 10.0273L12.3788 9.97428Z" fill="#BDFDCF"/>
<path d="M11.9004 10.6042C11.9004 10.8399 12.0658 11.0532 12.3332 11.2076V12.4142C12.0658 12.2598 11.9004 12.0465 11.9004 11.8109V10.6042Z" fill="#93FCB1"/>
<path d="M12.334 11.2075C12.9111 11.5407 13.8468 11.5407 14.424 11.2075V12.4142C13.8468 12.7474 12.9111 12.7474 12.334 12.4142V11.2075Z" fill="#65E188"/>
<path d="M14.8567 10.6042C14.8567 10.8399 14.6913 11.0532 14.4238 11.2076V12.4142C14.6913 12.2598 14.8567 12.0465 14.8567 11.8109V10.6042Z" fill="#65E188"/>
<path d="M6.22064 5.78117C6.77242 5.4626 7.66703 5.4626 8.21881 5.78117L8.31064 5.83419C8.86242 6.15276 8.86242 6.66926 8.31064 6.98783L8.21881 7.04085C7.66703 7.35942 6.77242 7.35942 6.22064 7.04085L6.12881 6.98783C5.57703 6.66926 5.57703 6.15276 6.12881 5.83419L6.22064 5.78117Z" fill="#BDFDCF"/>
<path d="M5.74219 6.41089C5.74219 6.6465 5.9076 6.85981 6.17504 7.01422V8.22089C5.9076 8.06648 5.74219 7.85317 5.74219 7.61755V6.41089Z" fill="#93FCB1"/>
<path d="M6.17578 7.0144C6.75292 7.34762 7.68865 7.34762 8.26579 7.0144V8.22107C7.68865 8.55428 6.75292 8.55428 6.17578 8.22107V7.0144Z" fill="#65E188"/>
<path d="M8.69848 6.41089C8.69848 6.6465 8.53306 6.85981 8.26562 7.01422V8.22089C8.53306 8.06648 8.69848 7.85317 8.69848 7.61755V6.41089Z" fill="#65E188"/>
<path d="M13.3105 1.59147C13.8623 1.2729 14.7569 1.2729 15.3087 1.59147L15.4005 1.64449C15.9523 1.96306 15.9523 2.47957 15.4005 2.79814L15.3087 2.85115C14.7569 3.16973 13.8623 3.16973 13.3105 2.85115L13.2187 2.79814C12.6669 2.47957 12.6669 1.96306 13.2187 1.64449L13.3105 1.59147Z" fill="#BDFDCF"/>
<path d="M12.832 2.22119C12.832 2.45681 12.9974 2.67012 13.2649 2.82452V4.03119C12.9974 3.87678 12.832 3.66347 12.832 3.42786V2.22119Z" fill="#93FCB1"/>
<path d="M13.2656 2.82446C13.8428 3.15767 14.7785 3.15767 15.3556 2.82446V4.03113C14.7785 4.36434 13.8428 4.36434 13.2656 4.03113V2.82446Z" fill="#65E188"/>
<path d="M15.7883 2.22119C15.7883 2.45681 15.6229 2.67012 15.3555 2.82452V4.03119C15.6229 3.87678 15.7883 3.66347 15.7883 3.42786V2.22119Z" fill="#65E188"/>
<path d="M19.4687 5.78117C20.0205 5.4626 20.9151 5.4626 21.4669 5.78117L21.5587 5.83419C22.1105 6.15276 22.1105 6.66926 21.5587 6.98783L21.4669 7.04085C20.9151 7.35942 20.0205 7.35942 19.4687 7.04085L19.3769 6.98783C18.8251 6.66926 18.8251 6.15276 19.3769 5.83419L19.4687 5.78117Z" fill="#BDFDCF"/>
<path d="M18.9902 6.41089C18.9902 6.6465 19.1556 6.85981 19.4231 7.01422V8.22089C19.1556 8.06648 18.9902 7.85317 18.9902 7.61755V6.41089Z" fill="#93FCB1"/>
<path d="M19.4238 7.0144C20.001 7.34762 20.9367 7.34762 21.5138 7.0144V8.22107C20.9367 8.55428 20.001 8.55428 19.4238 8.22107V7.0144Z" fill="#65E188"/>
<path d="M21.9465 6.41089C21.9465 6.6465 21.7811 6.85981 21.5137 7.01422V8.22089C21.7811 8.06648 21.9465 7.85317 21.9465 7.61755V6.41089Z" fill="#65E188"/>
<rect width="3.61999" height="3.61999" transform="matrix(0.866025 0.5 0 1 9.19824 12.3606)" fill="#93FCB1"/>
<rect width="3.61999" height="3.61999" transform="matrix(0.866025 -0.5 0 1 14.4229 14.1704)" fill="#65E188"/>
<path d="M8.76465 11.7571C8.76465 11.9927 8.93006 12.206 9.1975 12.3604V15.9804C8.93006 15.826 8.76465 15.6127 8.76465 15.3771V11.7571Z" fill="#93FCB1"/>
<path d="M12.333 14.1704C12.9101 14.5036 13.8459 14.5036 14.423 14.1704V17.7904C13.8459 18.1236 12.9101 18.1236 12.333 17.7904V14.1704Z" fill="#65E188"/>
<path d="M17.9905 11.7571C17.9905 11.9927 17.8251 12.206 17.5576 12.3604V15.9804C17.8251 15.826 17.9905 15.6127 17.9905 15.3771V11.7571Z" fill="#65E188"/>
</svg>
