
<svg width="38px" height="28px" viewBox="0 0 38 28" version="1.1" xmlns="http://www.w3.org/2000/svg" xmlns:xlink="http://www.w3.org/1999/xlink">
  <g id="Page-1" stroke="none" stroke-width="1" fill="none" fill-rule="evenodd">
    <g id="icon-datetime" fill-rule="nonzero">
      <rect id="Rectangle" fill="#FFFFFF" x="0" y="0" width="38" height="28" rx="14"></rect>
      <g id="Group" transform="translate(21.75, 7.0769)" fill="#000000" stroke="#000000" stroke-width="0.1">
        <path d="M3.73333333,5.81538462 L2.33333333,5.81538462 L2.33333333,7.36615385 L3.73333333,7.36615385 L3.73333333,5.81538462 Z M6.06666667,5.81538462 L4.66666667,5.81538462 L4.66666667,7.36615385 L6.06666667,7.36615385 L6.06666667,5.81538462 Z M8.4,5.81538462 L7,5.81538462 L7,7.36615385 L8.4,7.36615385 L8.4,5.81538462 Z M9.33333333,1.29230769 L8.75,1.29230769 L8.75,0 L7.58333333,0 L7.58333333,1.29230769 L2.91666667,1.29230769 L2.91666667,0 L1.75,0 L1.75,1.29230769 L1.16666667,1.29230769 C0.519166667,1.29230769 0.00583333333,1.87384615 0.00583333333,2.58461538 L0,11.6307692 C0,12.3444911 0.522334459,12.9230769 1.16666667,12.9230769 L9.33333333,12.9230769 C9.975,12.9230769 10.5,12.3415385 10.5,11.6307692 L10.5,2.58461538 C10.5,1.87384615 9.975,1.29230769 9.33333333,1.29230769 Z M9.33333333,11.6307692 L1.16666667,11.6307692 L1.16666667,4.52307692 L9.33333333,4.52307692 L9.33333333,11.6307692 Z" id="Shape"></path>
      </g>
    </g>
  </g>
</svg>
